<?xml version="1.0" encoding="UTF-8" standalone="no"?><svg xmlns="http://www.w3.org/2000/svg" xmlns:xlink="http://www.w3.org/1999/xlink" contentScriptType="application/ecmascript" contentStyleType="text/css" height="800px" preserveAspectRatio="none" style="width:364px;height:800px;" version="1.1" viewBox="0 0 364 800" width="364px" zoomAndPan="magnify"><defs><filter height="300%" id="fpu2we2gub5tr" width="300%" x="-1" y="-1"><feGaussianBlur result="blurOut" stdDeviation="2.0"/><feColorMatrix in="blurOut" result="blurOut2" type="matrix" values="0 0 0 0 0 0 0 0 0 0 0 0 0 0 0 0 0 0 .4 0"/><feOffset dx="4.0" dy="4.0" in="blurOut2" result="blurOut3"/><feBlend in="SourceGraphic" in2="blurOut3" mode="normal"/></filter></defs><g><!--MD5=[55bac42f2cbe7018e29835bba5de44af]
class CreateFreelancerUI--><rect fill="#FEFECE" filter="url(#fpu2we2gub5tr)" height="48" id="CreateFreelancerUI" style="stroke: #A80036; stroke-width: 1.5;" width="140" x="124.5" y="8"/><ellipse cx="139.5" cy="24" fill="#ADD1B2" rx="11" ry="11" style="stroke: #A80036; stroke-width: 1.0;"/><path d="M142.2656,19.875 Q142.4219,19.6563 142.6094,19.5469 Q142.7969,19.4375 143.0156,19.4375 Q143.3906,19.4375 143.625,19.7031 Q143.8594,19.9531 143.8594,20.5625 L143.8594,22.0156 Q143.8594,22.625 143.625,22.8906 Q143.3906,23.1563 143.0156,23.1563 Q142.6719,23.1563 142.4688,22.9531 Q142.2656,22.7656 142.1563,22.25 Q142.1094,21.8906 141.9219,21.7031 Q141.5938,21.3281 140.9844,21.1094 Q140.375,20.8906 139.75,20.8906 Q138.9844,20.8906 138.3438,21.2188 Q137.7188,21.5469 137.2188,22.2969 Q136.7344,23.0469 136.7344,24.0781 L136.7344,25.1719 Q136.7344,26.4063 137.625,27.2344 Q138.5156,28.0469 140.1094,28.0469 Q141.0469,28.0469 141.7031,27.7969 Q142.0938,27.6406 142.5156,27.2031 Q142.7813,26.9375 142.9219,26.8594 Q143.0781,26.7813 143.2813,26.7813 Q143.6094,26.7813 143.8594,27.0469 Q144.125,27.2969 144.125,27.6406 Q144.125,27.9844 143.7813,28.3906 Q143.2813,28.9688 142.4844,29.2969 Q141.4063,29.75 140.1094,29.75 Q138.5938,29.75 137.3906,29.125 Q136.4063,28.625 135.7188,27.5625 Q135.0313,26.4844 135.0313,25.2031 L135.0313,24.0469 Q135.0313,22.7188 135.6406,21.5781 Q136.2656,20.4219 137.3594,19.8125 Q138.4531,19.1875 139.6875,19.1875 Q140.4219,19.1875 141.0625,19.3594 Q141.7188,19.5156 142.2656,19.875 Z "/><text fill="#000000" font-family="sans-serif" font-size="12" lengthAdjust="spacingAndGlyphs" textLength="108" x="153.5" y="28.9102">CreateFreelancerUI</text><line style="stroke: #A80036; stroke-width: 1.5;" x1="125.5" x2="263.5" y1="40" y2="40"/><line style="stroke: #A80036; stroke-width: 1.5;" x1="125.5" x2="263.5" y1="48" y2="48"/><!--MD5=[2c4d674395a7e90c12831620707be165]
class CreateFreelancerController--><rect fill="#FEFECE" filter="url(#fpu2we2gub5tr)" height="75.6719" id="CreateFreelancerController" style="stroke: #A80036; stroke-width: 1.5;" width="182" x="103.5" y="117"/><ellipse cx="118.5" cy="133" fill="#ADD1B2" rx="11" ry="11" style="stroke: #A80036; stroke-width: 1.0;"/><path d="M121.2656,128.875 Q121.4219,128.6563 121.6094,128.5469 Q121.7969,128.4375 122.0156,128.4375 Q122.3906,128.4375 122.625,128.7031 Q122.8594,128.9531 122.8594,129.5625 L122.8594,131.0156 Q122.8594,131.625 122.625,131.8906 Q122.3906,132.1563 122.0156,132.1563 Q121.6719,132.1563 121.4688,131.9531 Q121.2656,131.7656 121.1563,131.25 Q121.1094,130.8906 120.9219,130.7031 Q120.5938,130.3281 119.9844,130.1094 Q119.375,129.8906 118.75,129.8906 Q117.9844,129.8906 117.3438,130.2188 Q116.7188,130.5469 116.2188,131.2969 Q115.7344,132.0469 115.7344,133.0781 L115.7344,134.1719 Q115.7344,135.4063 116.625,136.2344 Q117.5156,137.0469 119.1094,137.0469 Q120.0469,137.0469 120.7031,136.7969 Q121.0938,136.6406 121.5156,136.2031 Q121.7813,135.9375 121.9219,135.8594 Q122.0781,135.7813 122.2813,135.7813 Q122.6094,135.7813 122.8594,136.0469 Q123.125,136.2969 123.125,136.6406 Q123.125,136.9844 122.7813,137.3906 Q122.2813,137.9688 121.4844,138.2969 Q120.4063,138.75 119.1094,138.75 Q117.5938,138.75 116.3906,138.125 Q115.4063,137.625 114.7188,136.5625 Q114.0313,135.4844 114.0313,134.2031 L114.0313,133.0469 Q114.0313,131.7188 114.6406,130.5781 Q115.2656,129.4219 116.3594,128.8125 Q117.4531,128.1875 118.6875,128.1875 Q119.4219,128.1875 120.0625,128.3594 Q120.7188,128.5156 121.2656,128.875 Z "/><text fill="#000000" font-family="sans-serif" font-size="12" lengthAdjust="spacingAndGlyphs" textLength="150" x="132.5" y="137.9102">CreateFreelancerController</text><line style="stroke: #A80036; stroke-width: 1.5;" x1="104.5" x2="284.5" y1="149" y2="149"/><line style="stroke: #A80036; stroke-width: 1.5;" x1="104.5" x2="284.5" y1="157" y2="157"/><text fill="#000000" font-family="sans-serif" font-size="11" lengthAdjust="spacingAndGlyphs" textLength="88" x="109.5" y="172.4189">+newFreelancer()</text><text fill="#000000" font-family="sans-serif" font-size="11" lengthAdjust="spacingAndGlyphs" textLength="84" x="109.5" y="186.2549">+addFreelancer()</text><!--MD5=[335f4d9be48430461c68bf6d6fdba145]
class App--><rect fill="#FEFECE" filter="url(#fpu2we2gub5tr)" height="61.8359" id="App" style="stroke: #A80036; stroke-width: 1.5;" width="123" x="47" y="254"/><ellipse cx="93.75" cy="270" fill="#ADD1B2" rx="11" ry="11" style="stroke: #A80036; stroke-width: 1.0;"/><path d="M96.5156,265.875 Q96.6719,265.6563 96.8594,265.5469 Q97.0469,265.4375 97.2656,265.4375 Q97.6406,265.4375 97.875,265.7031 Q98.1094,265.9531 98.1094,266.5625 L98.1094,268.0156 Q98.1094,268.625 97.875,268.8906 Q97.6406,269.1563 97.2656,269.1563 Q96.9219,269.1563 96.7188,268.9531 Q96.5156,268.7656 96.4063,268.25 Q96.3594,267.8906 96.1719,267.7031 Q95.8438,267.3281 95.2344,267.1094 Q94.625,266.8906 94,266.8906 Q93.2344,266.8906 92.5938,267.2188 Q91.9688,267.5469 91.4688,268.2969 Q90.9844,269.0469 90.9844,270.0781 L90.9844,271.1719 Q90.9844,272.4063 91.875,273.2344 Q92.7656,274.0469 94.3594,274.0469 Q95.2969,274.0469 95.9531,273.7969 Q96.3438,273.6406 96.7656,273.2031 Q97.0313,272.9375 97.1719,272.8594 Q97.3281,272.7813 97.5313,272.7813 Q97.8594,272.7813 98.1094,273.0469 Q98.375,273.2969 98.375,273.6406 Q98.375,273.9844 98.0313,274.3906 Q97.5313,274.9688 96.7344,275.2969 Q95.6563,275.75 94.3594,275.75 Q92.8438,275.75 91.6406,275.125 Q90.6563,274.625 89.9688,273.5625 Q89.2813,272.4844 89.2813,271.2031 L89.2813,270.0469 Q89.2813,268.7188 89.8906,267.5781 Q90.5156,266.4219 91.6094,265.8125 Q92.7031,265.1875 93.9375,265.1875 Q94.6719,265.1875 95.3125,265.3594 Q95.9688,265.5156 96.5156,265.875 Z "/><text fill="#000000" font-family="sans-serif" font-size="12" lengthAdjust="spacingAndGlyphs" textLength="21" x="114.25" y="274.9102">App</text><line style="stroke: #A80036; stroke-width: 1.5;" x1="48" x2="169" y1="286" y2="286"/><line style="stroke: #A80036; stroke-width: 1.5;" x1="48" x2="169" y1="294" y2="294"/><text fill="#000000" font-family="sans-serif" font-size="11" lengthAdjust="spacingAndGlyphs" textLength="111" x="53" y="309.4189">+getRegistFreelancer()</text><!--MD5=[eba5144af5135a87840971fc4358c553]
class RegistFreelancer--><rect fill="#FEFECE" filter="url(#fpu2we2gub5tr)" height="131.0156" id="RegistFreelancer" style="stroke: #A80036; stroke-width: 1.5;" width="302" x="28.5" y="394"/><ellipse cx="127.75" cy="410" fill="#ADD1B2" rx="11" ry="11" style="stroke: #A80036; stroke-width: 1.0;"/><path d="M130.5156,405.875 Q130.6719,405.6563 130.8594,405.5469 Q131.0469,405.4375 131.2656,405.4375 Q131.6406,405.4375 131.875,405.7031 Q132.1094,405.9531 132.1094,406.5625 L132.1094,408.0156 Q132.1094,408.625 131.875,408.8906 Q131.6406,409.1563 131.2656,409.1563 Q130.9219,409.1563 130.7188,408.9531 Q130.5156,408.7656 130.4063,408.25 Q130.3594,407.8906 130.1719,407.7031 Q129.8438,407.3281 129.2344,407.1094 Q128.625,406.8906 128,406.8906 Q127.2344,406.8906 126.5938,407.2188 Q125.9688,407.5469 125.4688,408.2969 Q124.9844,409.0469 124.9844,410.0781 L124.9844,411.1719 Q124.9844,412.4063 125.875,413.2344 Q126.7656,414.0469 128.3594,414.0469 Q129.2969,414.0469 129.9531,413.7969 Q130.3438,413.6406 130.7656,413.2031 Q131.0313,412.9375 131.1719,412.8594 Q131.3281,412.7813 131.5313,412.7813 Q131.8594,412.7813 132.1094,413.0469 Q132.375,413.2969 132.375,413.6406 Q132.375,413.9844 132.0313,414.3906 Q131.5313,414.9688 130.7344,415.2969 Q129.6563,415.75 128.3594,415.75 Q126.8438,415.75 125.6406,415.125 Q124.6563,414.625 123.9688,413.5625 Q123.2813,412.4844 123.2813,411.2031 L123.2813,410.0469 Q123.2813,408.7188 123.8906,407.5781 Q124.5156,406.4219 125.6094,405.8125 Q126.7031,405.1875 127.9375,405.1875 Q128.6719,405.1875 129.3125,405.3594 Q129.9688,405.5156 130.5156,405.875 Z "/><text fill="#000000" font-family="sans-serif" font-size="12" lengthAdjust="spacingAndGlyphs" textLength="95" x="148.25" y="414.9102">RegistFreelancer</text><line style="stroke: #A80036; stroke-width: 1.5;" x1="29.5" x2="329.5" y1="426" y2="426"/><line style="stroke: #A80036; stroke-width: 1.5;" x1="29.5" x2="329.5" y1="434" y2="434"/><text fill="#000000" font-family="sans-serif" font-size="11" lengthAdjust="spacingAndGlyphs" textLength="287" x="34.5" y="449.4189">+newFreelancer(String name, String expertise, String email,</text><text fill="#000000" font-family="sans-serif" font-size="11" lengthAdjust="spacingAndGlyphs" textLength="259" x="37.5" y="463.2549">String NIF, String IBAN, String address, String counry)</text><text fill="#000000" font-family="sans-serif" font-size="11" lengthAdjust="spacingAndGlyphs" textLength="120" x="34.5" y="477.0908">+validate(Freelancer fre)</text><text fill="#000000" font-family="sans-serif" font-size="11" lengthAdjust="spacingAndGlyphs" textLength="153" x="34.5" y="490.9268">+addFreelancer(Freelancer fre)</text><text fill="#000000" font-family="sans-serif" font-size="11" lengthAdjust="spacingAndGlyphs" textLength="101" x="34.5" y="504.7627">+add(Freelancer fre)</text><text fill="#000000" font-family="sans-serif" font-size="11" lengthAdjust="spacingAndGlyphs" textLength="121" x="34.5" y="518.5986">-generateID(String name)</text><!--MD5=[1f687b5315377fe49fca59b457947463]
class Freelancer--><rect fill="#FEFECE" filter="url(#fpu2we2gub5tr)" height="186.3594" id="Freelancer" style="stroke: #A80036; stroke-width: 1.5;" width="347" x="6" y="603"/><ellipse cx="145.75" cy="619" fill="#ADD1B2" rx="11" ry="11" style="stroke: #A80036; stroke-width: 1.0;"/><path d="M148.5156,614.875 Q148.6719,614.6563 148.8594,614.5469 Q149.0469,614.4375 149.2656,614.4375 Q149.6406,614.4375 149.875,614.7031 Q150.1094,614.9531 150.1094,615.5625 L150.1094,617.0156 Q150.1094,617.625 149.875,617.8906 Q149.6406,618.1563 149.2656,618.1563 Q148.9219,618.1563 148.7188,617.9531 Q148.5156,617.7656 148.4063,617.25 Q148.3594,616.8906 148.1719,616.7031 Q147.8438,616.3281 147.2344,616.1094 Q146.625,615.8906 146,615.8906 Q145.2344,615.8906 144.5938,616.2188 Q143.9688,616.5469 143.4688,617.2969 Q142.9844,618.0469 142.9844,619.0781 L142.9844,620.1719 Q142.9844,621.4063 143.875,622.2344 Q144.7656,623.0469 146.3594,623.0469 Q147.2969,623.0469 147.9531,622.7969 Q148.3438,622.6406 148.7656,622.2031 Q149.0313,621.9375 149.1719,621.8594 Q149.3281,621.7813 149.5313,621.7813 Q149.8594,621.7813 150.1094,622.0469 Q150.375,622.2969 150.375,622.6406 Q150.375,622.9844 150.0313,623.3906 Q149.5313,623.9688 148.7344,624.2969 Q147.6563,624.75 146.3594,624.75 Q144.8438,624.75 143.6406,624.125 Q142.6563,623.625 141.9688,622.5625 Q141.2813,621.4844 141.2813,620.2031 L141.2813,619.0469 Q141.2813,617.7188 141.8906,616.5781 Q142.5156,615.4219 143.6094,614.8125 Q144.7031,614.1875 145.9375,614.1875 Q146.6719,614.1875 147.3125,614.3594 Q147.9688,614.5156 148.5156,614.875 Z "/><text fill="#000000" font-family="sans-serif" font-size="12" lengthAdjust="spacingAndGlyphs" textLength="59" x="166.25" y="623.9102">Freelancer</text><line style="stroke: #A80036; stroke-width: 1.5;" x1="7" x2="352" y1="635" y2="635"/><text fill="#000000" font-family="sans-serif" font-size="11" lengthAdjust="spacingAndGlyphs" textLength="43" x="12" y="650.4189">-String id</text><text fill="#000000" font-family="sans-serif" font-size="11" lengthAdjust="spacingAndGlyphs" textLength="61" x="12" y="664.2549">-String name</text><text fill="#000000" font-family="sans-serif" font-size="11" lengthAdjust="spacingAndGlyphs" textLength="114" x="12" y="678.0908">-String levelOfExpertise</text><text fill="#000000" font-family="sans-serif" font-size="11" lengthAdjust="spacingAndGlyphs" textLength="59" x="12" y="691.9268">-String email</text><text fill="#000000" font-family="sans-serif" font-size="11" lengthAdjust="spacingAndGlyphs" textLength="50" x="12" y="705.7627">-String NIF</text><text fill="#000000" font-family="sans-serif" font-size="11" lengthAdjust="spacingAndGlyphs" textLength="123" x="12" y="719.5986">-String bankAccountIBAN</text><text fill="#000000" font-family="sans-serif" font-size="11" lengthAdjust="spacingAndGlyphs" textLength="75" x="12" y="733.4346">-String address</text><text fill="#000000" font-family="sans-serif" font-size="11" lengthAdjust="spacingAndGlyphs" textLength="72" x="12" y="747.2705">-String country</text><line style="stroke: #A80036; stroke-width: 1.5;" x1="7" x2="352" y1="753.6875" y2="753.6875"/><text fill="#000000" font-family="sans-serif" font-size="11" lengthAdjust="spacingAndGlyphs" textLength="332" x="12" y="769.1064">+newFreelancer(String id, String name, String expertise, String email,</text><text fill="#000000" font-family="sans-serif" font-size="11" lengthAdjust="spacingAndGlyphs" textLength="259" x="15" y="782.9424">String NIF, String IBAN, String address, String counry)</text><!--MD5=[b6364c4b2832d891c852b7a54cf602f7]
link CreateFreelancerUI to CreateFreelancerController--><path d="M194.5,56.044 C194.5,71.713 194.5,92.908 194.5,111.575 " fill="none" id="CreateFreelancerUI-&gt;CreateFreelancerController" style="stroke: #A80036; stroke-width: 1.0; stroke-dasharray: 7.0,7.0;"/><polygon fill="#A80036" points="194.5,116.767,198.5,107.767,194.5,111.767,190.5,107.767,194.5,116.767" style="stroke: #A80036; stroke-width: 1.0;"/><!--MD5=[63433469261ec862b8c30966e5a25371]
link CreateFreelancerController to App--><path d="M169.625,193.023 C157.643,210.856 143.364,232.11 131.62,249.589 " fill="none" id="CreateFreelancerController-&gt;App" style="stroke: #A80036; stroke-width: 1.0; stroke-dasharray: 7.0,7.0;"/><polygon fill="#A80036" points="128.692,253.947,137.0317,248.7077,131.4806,249.7969,130.3915,244.2459,128.692,253.947" style="stroke: #A80036; stroke-width: 1.0;"/><!--MD5=[bf6801db2644a2c8ad674e3d1bbc9bfd]
link CreateFreelancerController to RegistFreelancer--><path d="M193.003,193.185 C191.667,225.617 189.601,273.929 187.5,316 C186.316,339.698 184.899,365.605 183.588,388.753 " fill="none" id="CreateFreelancerController-&gt;RegistFreelancer" style="stroke: #A80036; stroke-width: 1.0; stroke-dasharray: 7.0,7.0;"/><polygon fill="#A80036" points="183.293,393.956,187.7957,385.1967,183.5758,388.964,179.8085,384.7442,183.293,393.956" style="stroke: #A80036; stroke-width: 1.0;"/><!--MD5=[96c7b0b2c198895e0003cefbcde5a63b]
link App to RegistFreelancer--><path d="M120.867,316.047 C129.171,336.221 140.465,363.66 150.924,389.073 " fill="none" id="App-&gt;RegistFreelancer" style="stroke: #A80036; stroke-width: 1.0;"/><polygon fill="#A80036" points="152.867,393.792,153.1413,383.947,150.9643,389.1682,145.7431,386.9912,152.867,393.792" style="stroke: #A80036; stroke-width: 1.0;"/><text fill="#000000" font-family="sans-serif" font-size="13" lengthAdjust="spacingAndGlyphs" textLength="21" x="141.5" y="360.4951">has</text><polygon fill="#000000" points="147.5,369.3516,150.5,375.3516,153.5,369.3516,147.5,369.3516" style="stroke: #000000; stroke-width: 1.0;"/><text fill="#000000" font-family="sans-serif" font-size="13" lengthAdjust="spacingAndGlyphs" textLength="7" x="115.6127" y="337.2803">1</text><text fill="#000000" font-family="sans-serif" font-size="13" lengthAdjust="spacingAndGlyphs" textLength="7" x="142.5712" y="383.2437">1</text><!--MD5=[12a648b87e57a40b1492f312537407ab]
link RegistFreelancer to Freelancer--><path d="M179.5,525.199 C179.5,547.601 179.5,573.23 179.5,597.669 " fill="none" id="RegistFreelancer-&gt;Freelancer" style="stroke: #A80036; stroke-width: 1.0;"/><polygon fill="#A80036" points="179.5,602.865,183.5,593.865,179.5,597.865,175.5,593.865,179.5,602.865" style="stroke: #A80036; stroke-width: 1.0;"/><text fill="#000000" font-family="sans-serif" font-size="13" lengthAdjust="spacingAndGlyphs" textLength="21" x="180.5" y="569.4951">has</text><polygon fill="#000000" points="186.5,578.3516,189.5,584.3516,192.5,578.3516,186.5,578.3516" style="stroke: #000000; stroke-width: 1.0;"/><text fill="#000000" font-family="sans-serif" font-size="13" lengthAdjust="spacingAndGlyphs" textLength="7" x="172.1391" y="546.3116">1</text><text fill="#000000" font-family="sans-serif" font-size="13" lengthAdjust="spacingAndGlyphs" textLength="5" x="174.3008" y="592.3006">*</text><!--MD5=[cd7f85f352365078a898d0cd4f50ba54]
@startuml CD
skinparam classAttributeIconSize 0
top to bottom direction

class CreateFreelancerUI {

}

class CreateFreelancerController {
        + newFreelancer()
        + addFreelancer()
}

class App {
        + getRegistFreelancer()
}

class RegistFreelancer {
        + newFreelancer(String name, String expertise, String email, \n String NIF, String IBAN, String address, String counry)
        + validate(Freelancer fre)
        + addFreelancer(Freelancer fre)
        + add(Freelancer fre)
        - generateID(String name)
}

class Freelancer {
        - String id
        - String name
        - String levelOfExpertise
        - String email
        - String NIF
        - String bankAccountIBAN
        - String address
        - String country

        + newFreelancer(String id, String name, String expertise, String email, \n String NIF, String IBAN, String address, String counry)
}

CreateFreelancerUI               ..>          CreateFreelancerController
CreateFreelancerController       ..>          App
CreateFreelancerController       ..>          RegistFreelancer
App                          "1" - -> "1"      RegistFreelancer          : has >
RegistFreelancer             "1" - -> "*"      Freelancer                : has >

@enduml

PlantUML version 1.2020.10(Sun May 17 10:35:57 WEST 2020)
(GPL source distribution)
Java Runtime: OpenJDK Runtime Environment
JVM: OpenJDK 64-Bit Server VM
Java Version: 14+36
Operating System: Windows 10
Default Encoding: Cp1252
Language: en
Country: US
--></g></svg>