<?xml version="1.0" encoding="UTF-8" standalone="no"?><svg xmlns="http://www.w3.org/2000/svg" xmlns:xlink="http://www.w3.org/1999/xlink" contentScriptType="application/ecmascript" contentStyleType="text/css" height="191px" preserveAspectRatio="none" style="width:716px;height:191px;" version="1.1" viewBox="0 0 716 191" width="716px" zoomAndPan="magnify"><defs><filter height="300%" id="f1h93fv02q6ztb" width="300%" x="-1" y="-1"><feGaussianBlur result="blurOut" stdDeviation="2.0"/><feColorMatrix in="blurOut" result="blurOut2" type="matrix" values="0 0 0 0 0 0 0 0 0 0 0 0 0 0 0 0 0 0 .4 0"/><feOffset dx="4.0" dy="4.0" in="blurOut2" result="blurOut3"/><feBlend in="SourceGraphic" in2="blurOut3" mode="normal"/></filter></defs><g><!--MD5=[335f4d9be48430461c68bf6d6fdba145]
class App--><rect fill="#FEFECE" filter="url(#f1h93fv02q6ztb)" height="40" id="App" style="stroke: #A80036; stroke-width: 1.5;" width="53" x="6" y="87.5"/><ellipse cx="21" cy="103.5" fill="#ADD1B2" rx="11" ry="11" style="stroke: #A80036; stroke-width: 1.0;"/><path d="M23.7656,99.375 Q23.9219,99.1563 24.1094,99.0469 Q24.2969,98.9375 24.5156,98.9375 Q24.8906,98.9375 25.125,99.2031 Q25.3594,99.4531 25.3594,100.0625 L25.3594,101.5156 Q25.3594,102.125 25.125,102.3906 Q24.8906,102.6563 24.5156,102.6563 Q24.1719,102.6563 23.9688,102.4531 Q23.7656,102.2656 23.6563,101.75 Q23.6094,101.3906 23.4219,101.2031 Q23.0938,100.8281 22.4844,100.6094 Q21.875,100.3906 21.25,100.3906 Q20.4844,100.3906 19.8438,100.7188 Q19.2188,101.0469 18.7188,101.7969 Q18.2344,102.5469 18.2344,103.5781 L18.2344,104.6719 Q18.2344,105.9063 19.125,106.7344 Q20.0156,107.5469 21.6094,107.5469 Q22.5469,107.5469 23.2031,107.2969 Q23.5938,107.1406 24.0156,106.7031 Q24.2813,106.4375 24.4219,106.3594 Q24.5781,106.2813 24.7813,106.2813 Q25.1094,106.2813 25.3594,106.5469 Q25.625,106.7969 25.625,107.1406 Q25.625,107.4844 25.2813,107.8906 Q24.7813,108.4688 23.9844,108.7969 Q22.9063,109.25 21.6094,109.25 Q20.0938,109.25 18.8906,108.625 Q17.9063,108.125 17.2188,107.0625 Q16.5313,105.9844 16.5313,104.7031 L16.5313,103.5469 Q16.5313,102.2188 17.1406,101.0781 Q17.7656,99.9219 18.8594,99.3125 Q19.9531,98.6875 21.1875,98.6875 Q21.9219,98.6875 22.5625,98.8594 Q23.2188,99.0156 23.7656,99.375 Z "/><text fill="#000000" font-family="sans-serif" font-size="12" lengthAdjust="spacingAndGlyphs" textLength="21" x="35" y="108.4102">App</text><line style="stroke: #A80036; stroke-width: 1.5;" x1="7" x2="58" y1="119.5" y2="119.5"/><!--MD5=[86c7c362de55a38b660185a1328fe18d]
class Organization--><rect fill="#FEFECE" filter="url(#f1h93fv02q6ztb)" height="67.6719" id="Organization" style="stroke: #A80036; stroke-width: 1.5;" width="101" x="155" y="19.5"/><ellipse cx="170" cy="35.5" fill="#ADD1B2" rx="11" ry="11" style="stroke: #A80036; stroke-width: 1.0;"/><path d="M172.7656,31.375 Q172.9219,31.1563 173.1094,31.0469 Q173.2969,30.9375 173.5156,30.9375 Q173.8906,30.9375 174.125,31.2031 Q174.3594,31.4531 174.3594,32.0625 L174.3594,33.5156 Q174.3594,34.125 174.125,34.3906 Q173.8906,34.6563 173.5156,34.6563 Q173.1719,34.6563 172.9688,34.4531 Q172.7656,34.2656 172.6563,33.75 Q172.6094,33.3906 172.4219,33.2031 Q172.0938,32.8281 171.4844,32.6094 Q170.875,32.3906 170.25,32.3906 Q169.4844,32.3906 168.8438,32.7188 Q168.2188,33.0469 167.7188,33.7969 Q167.2344,34.5469 167.2344,35.5781 L167.2344,36.6719 Q167.2344,37.9063 168.125,38.7344 Q169.0156,39.5469 170.6094,39.5469 Q171.5469,39.5469 172.2031,39.2969 Q172.5938,39.1406 173.0156,38.7031 Q173.2813,38.4375 173.4219,38.3594 Q173.5781,38.2813 173.7813,38.2813 Q174.1094,38.2813 174.3594,38.5469 Q174.625,38.7969 174.625,39.1406 Q174.625,39.4844 174.2813,39.8906 Q173.7813,40.4688 172.9844,40.7969 Q171.9063,41.25 170.6094,41.25 Q169.0938,41.25 167.8906,40.625 Q166.9063,40.125 166.2188,39.0625 Q165.5313,37.9844 165.5313,36.7031 L165.5313,35.5469 Q165.5313,34.2188 166.1406,33.0781 Q166.7656,31.9219 167.8594,31.3125 Q168.9531,30.6875 170.1875,30.6875 Q170.9219,30.6875 171.5625,30.8594 Q172.2188,31.0156 172.7656,31.375 Z "/><text fill="#000000" font-family="sans-serif" font-size="12" lengthAdjust="spacingAndGlyphs" textLength="69" x="184" y="40.4102">Organization</text><line style="stroke: #A80036; stroke-width: 1.5;" x1="156" x2="255" y1="51.5" y2="51.5"/><text fill="#000000" font-family="sans-serif" font-size="11" lengthAdjust="spacingAndGlyphs" textLength="61" x="161" y="66.9189">-String nome</text><text fill="#000000" font-family="sans-serif" font-size="11" lengthAdjust="spacingAndGlyphs" textLength="50" x="161" y="80.7549">-String NIF</text><!--MD5=[f483d6e5de34a60207b28a5563be5e8b]
class Collaborator--><rect fill="#FEFECE" filter="url(#f1h93fv02q6ztb)" height="81.5078" id="Collaborator" style="stroke: #A80036; stroke-width: 1.5;" width="100" x="352" y="8.5"/><ellipse cx="367" cy="24.5" fill="#ADD1B2" rx="11" ry="11" style="stroke: #A80036; stroke-width: 1.0;"/><path d="M369.7656,20.375 Q369.9219,20.1563 370.1094,20.0469 Q370.2969,19.9375 370.5156,19.9375 Q370.8906,19.9375 371.125,20.2031 Q371.3594,20.4531 371.3594,21.0625 L371.3594,22.5156 Q371.3594,23.125 371.125,23.3906 Q370.8906,23.6563 370.5156,23.6563 Q370.1719,23.6563 369.9688,23.4531 Q369.7656,23.2656 369.6563,22.75 Q369.6094,22.3906 369.4219,22.2031 Q369.0938,21.8281 368.4844,21.6094 Q367.875,21.3906 367.25,21.3906 Q366.4844,21.3906 365.8438,21.7188 Q365.2188,22.0469 364.7188,22.7969 Q364.2344,23.5469 364.2344,24.5781 L364.2344,25.6719 Q364.2344,26.9063 365.125,27.7344 Q366.0156,28.5469 367.6094,28.5469 Q368.5469,28.5469 369.2031,28.2969 Q369.5938,28.1406 370.0156,27.7031 Q370.2813,27.4375 370.4219,27.3594 Q370.5781,27.2813 370.7813,27.2813 Q371.1094,27.2813 371.3594,27.5469 Q371.625,27.7969 371.625,28.1406 Q371.625,28.4844 371.2813,28.8906 Q370.7813,29.4688 369.9844,29.7969 Q368.9063,30.25 367.6094,30.25 Q366.0938,30.25 364.8906,29.625 Q363.9063,29.125 363.2188,28.0625 Q362.5313,26.9844 362.5313,25.7031 L362.5313,24.5469 Q362.5313,23.2188 363.1406,22.0781 Q363.7656,20.9219 364.8594,20.3125 Q365.9531,19.6875 367.1875,19.6875 Q367.9219,19.6875 368.5625,19.8594 Q369.2188,20.0156 369.7656,20.375 Z "/><text fill="#000000" font-family="sans-serif" font-size="12" lengthAdjust="spacingAndGlyphs" textLength="68" x="381" y="29.4102">Collaborator</text><line style="stroke: #A80036; stroke-width: 1.5;" x1="353" x2="451" y1="40.5" y2="40.5"/><text fill="#000000" font-family="sans-serif" font-size="11" lengthAdjust="spacingAndGlyphs" textLength="61" x="358" y="55.9189">-String nome</text><text fill="#000000" font-family="sans-serif" font-size="11" lengthAdjust="spacingAndGlyphs" textLength="59" x="358" y="69.7549">-String email</text><text fill="#000000" font-family="sans-serif" font-size="11" lengthAdjust="spacingAndGlyphs" textLength="85" x="358" y="83.5908">-String password</text><!--MD5=[1f687b5315377fe49fca59b457947463]
class Freelancer--><rect fill="#FEFECE" filter="url(#f1h93fv02q6ztb)" height="150.6875" id="Freelancer" style="stroke: #A80036; stroke-width: 1.5;" width="135" x="570" y="30"/><ellipse cx="604.8" cy="46" fill="#ADD1B2" rx="11" ry="11" style="stroke: #A80036; stroke-width: 1.0;"/><path d="M607.5656,41.875 Q607.7219,41.6563 607.9094,41.5469 Q608.0969,41.4375 608.3156,41.4375 Q608.6906,41.4375 608.925,41.7031 Q609.1594,41.9531 609.1594,42.5625 L609.1594,44.0156 Q609.1594,44.625 608.925,44.8906 Q608.6906,45.1563 608.3156,45.1563 Q607.9719,45.1563 607.7688,44.9531 Q607.5656,44.7656 607.4563,44.25 Q607.4094,43.8906 607.2219,43.7031 Q606.8938,43.3281 606.2844,43.1094 Q605.675,42.8906 605.05,42.8906 Q604.2844,42.8906 603.6438,43.2188 Q603.0188,43.5469 602.5188,44.2969 Q602.0344,45.0469 602.0344,46.0781 L602.0344,47.1719 Q602.0344,48.4063 602.925,49.2344 Q603.8156,50.0469 605.4094,50.0469 Q606.3469,50.0469 607.0031,49.7969 Q607.3938,49.6406 607.8156,49.2031 Q608.0813,48.9375 608.2219,48.8594 Q608.3781,48.7813 608.5813,48.7813 Q608.9094,48.7813 609.1594,49.0469 Q609.425,49.2969 609.425,49.6406 Q609.425,49.9844 609.0813,50.3906 Q608.5813,50.9688 607.7844,51.2969 Q606.7063,51.75 605.4094,51.75 Q603.8938,51.75 602.6906,51.125 Q601.7063,50.625 601.0188,49.5625 Q600.3313,48.4844 600.3313,47.2031 L600.3313,46.0469 Q600.3313,44.7188 600.9406,43.5781 Q601.5656,42.4219 602.6594,41.8125 Q603.7531,41.1875 604.9875,41.1875 Q605.7219,41.1875 606.3625,41.3594 Q607.0188,41.5156 607.5656,41.875 Z "/><text fill="#000000" font-family="sans-serif" font-size="12" lengthAdjust="spacingAndGlyphs" textLength="59" x="623.2" y="50.9102">Freelancer</text><line style="stroke: #A80036; stroke-width: 1.5;" x1="571" x2="704" y1="62" y2="62"/><text fill="#000000" font-family="sans-serif" font-size="11" lengthAdjust="spacingAndGlyphs" textLength="43" x="576" y="77.4189">-String id</text><text fill="#000000" font-family="sans-serif" font-size="11" lengthAdjust="spacingAndGlyphs" textLength="61" x="576" y="91.2549">-String name</text><text fill="#000000" font-family="sans-serif" font-size="11" lengthAdjust="spacingAndGlyphs" textLength="114" x="576" y="105.0908">-String levelOfExpertise</text><text fill="#000000" font-family="sans-serif" font-size="11" lengthAdjust="spacingAndGlyphs" textLength="59" x="576" y="118.9268">-String email</text><text fill="#000000" font-family="sans-serif" font-size="11" lengthAdjust="spacingAndGlyphs" textLength="50" x="576" y="132.7627">-String NIF</text><text fill="#000000" font-family="sans-serif" font-size="11" lengthAdjust="spacingAndGlyphs" textLength="123" x="576" y="146.5986">-String bankAccountIBAN</text><text fill="#000000" font-family="sans-serif" font-size="11" lengthAdjust="spacingAndGlyphs" textLength="75" x="576" y="160.4346">-String address</text><text fill="#000000" font-family="sans-serif" font-size="11" lengthAdjust="spacingAndGlyphs" textLength="72" x="576" y="174.2705">-String country</text><!--MD5=[d2c3650dbd07e79cdad2ffd4a879dec6]
link Collaborator to Freelancer--><path d="M452.234,61.308 C486.353,69.491 532.194,80.484 569.617,89.4595 " fill="none" id="Collaborator-Freelancer" style="stroke: #A80036; stroke-width: 1.0;"/><text fill="#000000" font-family="sans-serif" font-size="13" lengthAdjust="spacingAndGlyphs" textLength="43" x="483" y="65.9951">creates</text><polygon fill="#000000" points="529,59.1758,535,62.1758,529,65.1758,529,59.1758" style="stroke: #000000; stroke-width: 1.0;"/><text fill="#000000" font-family="sans-serif" font-size="13" lengthAdjust="spacingAndGlyphs" textLength="7" x="460.1262" y="77.7744">1</text><text fill="#000000" font-family="sans-serif" font-size="13" lengthAdjust="spacingAndGlyphs" textLength="5" x="556.9189" y="102.1115">*</text><!--MD5=[45817597bcd7048073a670d966abfd17]
link Organization to Collaborator--><path d="M256.084,52.48 C285.459,51.876 322.544,51.113 351.844,50.511 " fill="none" id="Organization-Collaborator" style="stroke: #A80036; stroke-width: 1.0;"/><text fill="#000000" font-family="sans-serif" font-size="13" lengthAdjust="spacingAndGlyphs" textLength="21" x="287" y="47.9951">has</text><polygon fill="#000000" points="311,41.1758,317,44.1758,311,47.1758,311,41.1758" style="stroke: #000000; stroke-width: 1.0;"/><text fill="#000000" font-family="sans-serif" font-size="13" lengthAdjust="spacingAndGlyphs" textLength="7" x="264.0276" y="67.0502">1</text><text fill="#000000" font-family="sans-serif" font-size="13" lengthAdjust="spacingAndGlyphs" textLength="7" x="336.9633" y="65.3916">1</text><!--MD5=[1370966fb1e3885ea6828d35f10d9d48]
link App to Organization--><path d="M59.1004,99.4157 C84.3496,91.4422 123.605,79.046 154.965,69.143 " fill="none" id="App-Organization" style="stroke: #A80036; stroke-width: 1.0;"/><text fill="#000000" font-family="sans-serif" font-size="13" lengthAdjust="spacingAndGlyphs" textLength="21" x="90" y="75.9951">has</text><polygon fill="#000000" points="114,69.1758,120,72.1758,114,75.1758,114,69.1758" style="stroke: #000000; stroke-width: 1.0;"/><text fill="#000000" font-family="sans-serif" font-size="13" lengthAdjust="spacingAndGlyphs" textLength="7" x="66.8136" y="92.8343">1</text><text fill="#000000" font-family="sans-serif" font-size="13" lengthAdjust="spacingAndGlyphs" textLength="5" x="141.844" y="86.3105">*</text><!--MD5=[d88947b97cc296deaa09f9756953ae3a]
link App to Freelancer--><path d="M59.4567,107.5978 C125.164,107.824 303.42,108.3053 452,107.5 C491.08,107.2882 534.814,106.824 569.891,106.3962 " fill="none" id="App-Freelancer" style="stroke: #A80036; stroke-width: 1.0;"/><text fill="#000000" font-family="sans-serif" font-size="13" lengthAdjust="spacingAndGlyphs" textLength="21" x="287" y="104.9951">has</text><polygon fill="#000000" points="311,98.1758,317,101.1758,311,104.1758,311,98.1758" style="stroke: #000000; stroke-width: 1.0;"/><text fill="#000000" font-family="sans-serif" font-size="13" lengthAdjust="spacingAndGlyphs" textLength="7" x="66.8805" y="123.1096">1</text><text fill="#000000" font-family="sans-serif" font-size="13" lengthAdjust="spacingAndGlyphs" textLength="5" x="556.7846" y="120.9583">*</text><!--MD5=[1182844cec82981208ddfb2ca7885654]
@startuml MD

skinparam classAttributeIconSize 0
hide methods
left to right direction

class App {

}

class Organization {
        - String nome
        - String NIF
}

class Collaborator {
        - String nome
        - String email
        - String password
}

class Freelancer {
        - String id
        - String name
        - String levelOfExpertise
        - String email
        - String NIF
        - String bankAccountIBAN
        - String address
        - String country
}

Collaborator                 "1" - - "*"      Freelancer                : creates >
Organization                 "1" - - "1"      Collaborator              : has >
App                          "1" - - "*"      Organization              : has >
App                          "1" - - "*"      Freelancer                : has >

@enduml

PlantUML version 1.2020.10(Sun May 17 10:35:57 WEST 2020)
(GPL source distribution)
Java Runtime: OpenJDK Runtime Environment
JVM: OpenJDK 64-Bit Server VM
Java Version: 14+36
Operating System: Windows 10
Default Encoding: Cp1252
Language: en
Country: US
--></g></svg>