<?xml version="1.0" encoding="UTF-8" standalone="no"?><svg xmlns="http://www.w3.org/2000/svg" xmlns:xlink="http://www.w3.org/1999/xlink" contentScriptType="application/ecmascript" contentStyleType="text/css" height="528px" preserveAspectRatio="none" style="width:1304px;height:528px;" version="1.1" viewBox="0 0 1304 528" width="1304px" zoomAndPan="magnify"><defs><filter height="300%" id="f1nmrr3blri1na" width="300%" x="-1" y="-1"><feGaussianBlur result="blurOut" stdDeviation="2.0"/><feColorMatrix in="blurOut" result="blurOut2" type="matrix" values="0 0 0 0 0 0 0 0 0 0 0 0 0 0 0 0 0 0 .4 0"/><feOffset dx="4.0" dy="4.0" in="blurOut2" result="blurOut3"/><feBlend in="SourceGraphic" in2="blurOut3" mode="normal"/></filter></defs><g><!--MD5=[4555bb1b0911a5adf28ce6dbe60fed2e]
class Transaction--><rect fill="#FEFECE" filter="url(#f1nmrr3blri1na)" height="40" id="Transaction" style="stroke: #A80036; stroke-width: 1.5;" width="97" x="900.5" y="76"/><ellipse cx="915.5" cy="92" fill="#ADD1B2" rx="11" ry="11" style="stroke: #A80036; stroke-width: 1.0;"/><path d="M918.2656,87.875 Q918.4219,87.6563 918.6094,87.5469 Q918.7969,87.4375 919.0156,87.4375 Q919.3906,87.4375 919.625,87.7031 Q919.8594,87.9531 919.8594,88.5625 L919.8594,90.0156 Q919.8594,90.625 919.625,90.8906 Q919.3906,91.1563 919.0156,91.1563 Q918.6719,91.1563 918.4688,90.9531 Q918.2656,90.7656 918.1563,90.25 Q918.1094,89.8906 917.9219,89.7031 Q917.5938,89.3281 916.9844,89.1094 Q916.375,88.8906 915.75,88.8906 Q914.9844,88.8906 914.3438,89.2188 Q913.7188,89.5469 913.2188,90.2969 Q912.7344,91.0469 912.7344,92.0781 L912.7344,93.1719 Q912.7344,94.4063 913.625,95.2344 Q914.5156,96.0469 916.1094,96.0469 Q917.0469,96.0469 917.7031,95.7969 Q918.0938,95.6406 918.5156,95.2031 Q918.7813,94.9375 918.9219,94.8594 Q919.0781,94.7813 919.2813,94.7813 Q919.6094,94.7813 919.8594,95.0469 Q920.125,95.2969 920.125,95.6406 Q920.125,95.9844 919.7813,96.3906 Q919.2813,96.9688 918.4844,97.2969 Q917.4063,97.75 916.1094,97.75 Q914.5938,97.75 913.3906,97.125 Q912.4063,96.625 911.7188,95.5625 Q911.0313,94.4844 911.0313,93.2031 L911.0313,92.0469 Q911.0313,90.7188 911.6406,89.5781 Q912.2656,88.4219 913.3594,87.8125 Q914.4531,87.1875 915.6875,87.1875 Q916.4219,87.1875 917.0625,87.3594 Q917.7188,87.5156 918.2656,87.875 Z "/><text fill="#000000" font-family="sans-serif" font-size="12" lengthAdjust="spacingAndGlyphs" textLength="65" x="929.5" y="96.9102">Transaction</text><line style="stroke: #A80036; stroke-width: 1.5;" x1="901.5" x2="996.5" y1="108" y2="108"/><!--MD5=[dc84a4e894a42f8e8d7fc762e5a59f92]
class PaymentScheduler--><rect fill="#FEFECE" filter="url(#f1nmrr3blri1na)" height="67.6719" id="PaymentScheduler" style="stroke: #A80036; stroke-width: 1.5;" width="136" x="381" y="60"/><ellipse cx="396" cy="76" fill="#ADD1B2" rx="11" ry="11" style="stroke: #A80036; stroke-width: 1.0;"/><path d="M398.7656,71.875 Q398.9219,71.6563 399.1094,71.5469 Q399.2969,71.4375 399.5156,71.4375 Q399.8906,71.4375 400.125,71.7031 Q400.3594,71.9531 400.3594,72.5625 L400.3594,74.0156 Q400.3594,74.625 400.125,74.8906 Q399.8906,75.1563 399.5156,75.1563 Q399.1719,75.1563 398.9688,74.9531 Q398.7656,74.7656 398.6563,74.25 Q398.6094,73.8906 398.4219,73.7031 Q398.0938,73.3281 397.4844,73.1094 Q396.875,72.8906 396.25,72.8906 Q395.4844,72.8906 394.8438,73.2188 Q394.2188,73.5469 393.7188,74.2969 Q393.2344,75.0469 393.2344,76.0781 L393.2344,77.1719 Q393.2344,78.4063 394.125,79.2344 Q395.0156,80.0469 396.6094,80.0469 Q397.5469,80.0469 398.2031,79.7969 Q398.5938,79.6406 399.0156,79.2031 Q399.2813,78.9375 399.4219,78.8594 Q399.5781,78.7813 399.7813,78.7813 Q400.1094,78.7813 400.3594,79.0469 Q400.625,79.2969 400.625,79.6406 Q400.625,79.9844 400.2813,80.3906 Q399.7813,80.9688 398.9844,81.2969 Q397.9063,81.75 396.6094,81.75 Q395.0938,81.75 393.8906,81.125 Q392.9063,80.625 392.2188,79.5625 Q391.5313,78.4844 391.5313,77.2031 L391.5313,76.0469 Q391.5313,74.7188 392.1406,73.5781 Q392.7656,72.4219 393.8594,71.8125 Q394.9531,71.1875 396.1875,71.1875 Q396.9219,71.1875 397.5625,71.3594 Q398.2188,71.5156 398.7656,71.875 Z "/><text fill="#000000" font-family="sans-serif" font-size="12" lengthAdjust="spacingAndGlyphs" textLength="104" x="410" y="80.9102">PaymentScheduler</text><line style="stroke: #A80036; stroke-width: 1.5;" x1="382" x2="516" y1="92" y2="92"/><text fill="#000000" font-family="sans-serif" font-size="11" lengthAdjust="spacingAndGlyphs" textLength="87" x="387" y="107.4189">-Integer dayMonth</text><text fill="#000000" font-family="sans-serif" font-size="11" lengthAdjust="spacingAndGlyphs" textLength="105" x="387" y="121.2549">-LocalTime timeOfDay</text><!--MD5=[86c7c362de55a38b660185a1328fe18d]
class Organization--><rect fill="#FEFECE" filter="url(#f1nmrr3blri1na)" height="53.8359" id="Organization" style="stroke: #A80036; stroke-width: 1.5;" width="101" x="155" y="118"/><ellipse cx="170" cy="134" fill="#ADD1B2" rx="11" ry="11" style="stroke: #A80036; stroke-width: 1.0;"/><path d="M172.7656,129.875 Q172.9219,129.6563 173.1094,129.5469 Q173.2969,129.4375 173.5156,129.4375 Q173.8906,129.4375 174.125,129.7031 Q174.3594,129.9531 174.3594,130.5625 L174.3594,132.0156 Q174.3594,132.625 174.125,132.8906 Q173.8906,133.1563 173.5156,133.1563 Q173.1719,133.1563 172.9688,132.9531 Q172.7656,132.7656 172.6563,132.25 Q172.6094,131.8906 172.4219,131.7031 Q172.0938,131.3281 171.4844,131.1094 Q170.875,130.8906 170.25,130.8906 Q169.4844,130.8906 168.8438,131.2188 Q168.2188,131.5469 167.7188,132.2969 Q167.2344,133.0469 167.2344,134.0781 L167.2344,135.1719 Q167.2344,136.4063 168.125,137.2344 Q169.0156,138.0469 170.6094,138.0469 Q171.5469,138.0469 172.2031,137.7969 Q172.5938,137.6406 173.0156,137.2031 Q173.2813,136.9375 173.4219,136.8594 Q173.5781,136.7813 173.7813,136.7813 Q174.1094,136.7813 174.3594,137.0469 Q174.625,137.2969 174.625,137.6406 Q174.625,137.9844 174.2813,138.3906 Q173.7813,138.9688 172.9844,139.2969 Q171.9063,139.75 170.6094,139.75 Q169.0938,139.75 167.8906,139.125 Q166.9063,138.625 166.2188,137.5625 Q165.5313,136.4844 165.5313,135.2031 L165.5313,134.0469 Q165.5313,132.7188 166.1406,131.5781 Q166.7656,130.4219 167.8594,129.8125 Q168.9531,129.1875 170.1875,129.1875 Q170.9219,129.1875 171.5625,129.3594 Q172.2188,129.5156 172.7656,129.875 Z "/><text fill="#000000" font-family="sans-serif" font-size="12" lengthAdjust="spacingAndGlyphs" textLength="69" x="184" y="138.9102">Organization</text><line style="stroke: #A80036; stroke-width: 1.5;" x1="156" x2="255" y1="150" y2="150"/><text fill="#000000" font-family="sans-serif" font-size="11" lengthAdjust="spacingAndGlyphs" textLength="61" x="161" y="165.4189">-String nome</text><!--MD5=[335f4d9be48430461c68bf6d6fdba145]
class App--><rect fill="#FEFECE" filter="url(#f1nmrr3blri1na)" height="40" id="App" style="stroke: #A80036; stroke-width: 1.5;" width="53" x="6" y="320"/><ellipse cx="21" cy="336" fill="#ADD1B2" rx="11" ry="11" style="stroke: #A80036; stroke-width: 1.0;"/><path d="M23.7656,331.875 Q23.9219,331.6563 24.1094,331.5469 Q24.2969,331.4375 24.5156,331.4375 Q24.8906,331.4375 25.125,331.7031 Q25.3594,331.9531 25.3594,332.5625 L25.3594,334.0156 Q25.3594,334.625 25.125,334.8906 Q24.8906,335.1563 24.5156,335.1563 Q24.1719,335.1563 23.9688,334.9531 Q23.7656,334.7656 23.6563,334.25 Q23.6094,333.8906 23.4219,333.7031 Q23.0938,333.3281 22.4844,333.1094 Q21.875,332.8906 21.25,332.8906 Q20.4844,332.8906 19.8438,333.2188 Q19.2188,333.5469 18.7188,334.2969 Q18.2344,335.0469 18.2344,336.0781 L18.2344,337.1719 Q18.2344,338.4063 19.125,339.2344 Q20.0156,340.0469 21.6094,340.0469 Q22.5469,340.0469 23.2031,339.7969 Q23.5938,339.6406 24.0156,339.2031 Q24.2813,338.9375 24.4219,338.8594 Q24.5781,338.7813 24.7813,338.7813 Q25.1094,338.7813 25.3594,339.0469 Q25.625,339.2969 25.625,339.6406 Q25.625,339.9844 25.2813,340.3906 Q24.7813,340.9688 23.9844,341.2969 Q22.9063,341.75 21.6094,341.75 Q20.0938,341.75 18.8906,341.125 Q17.9063,340.625 17.2188,339.5625 Q16.5313,338.4844 16.5313,337.2031 L16.5313,336.0469 Q16.5313,334.7188 17.1406,333.5781 Q17.7656,332.4219 18.8594,331.8125 Q19.9531,331.1875 21.1875,331.1875 Q21.9219,331.1875 22.5625,331.3594 Q23.2188,331.5156 23.7656,331.875 Z "/><text fill="#000000" font-family="sans-serif" font-size="12" lengthAdjust="spacingAndGlyphs" textLength="21" x="35" y="340.9102">App</text><line style="stroke: #A80036; stroke-width: 1.5;" x1="7" x2="58" y1="352" y2="352"/><!--MD5=[1f687b5315377fe49fca59b457947463]
class Freelancer--><rect fill="#FEFECE" filter="url(#f1nmrr3blri1na)" height="150.6875" id="Freelancer" style="stroke: #A80036; stroke-width: 1.5;" width="135" x="1158" y="56.5"/><ellipse cx="1192.8" cy="72.5" fill="#ADD1B2" rx="11" ry="11" style="stroke: #A80036; stroke-width: 1.0;"/><path d="M1195.5656,68.375 Q1195.7219,68.1563 1195.9094,68.0469 Q1196.0969,67.9375 1196.3156,67.9375 Q1196.6906,67.9375 1196.925,68.2031 Q1197.1594,68.4531 1197.1594,69.0625 L1197.1594,70.5156 Q1197.1594,71.125 1196.925,71.3906 Q1196.6906,71.6563 1196.3156,71.6563 Q1195.9719,71.6563 1195.7688,71.4531 Q1195.5656,71.2656 1195.4563,70.75 Q1195.4094,70.3906 1195.2219,70.2031 Q1194.8938,69.8281 1194.2844,69.6094 Q1193.675,69.3906 1193.05,69.3906 Q1192.2844,69.3906 1191.6438,69.7188 Q1191.0188,70.0469 1190.5188,70.7969 Q1190.0344,71.5469 1190.0344,72.5781 L1190.0344,73.6719 Q1190.0344,74.9063 1190.925,75.7344 Q1191.8156,76.5469 1193.4094,76.5469 Q1194.3469,76.5469 1195.0031,76.2969 Q1195.3938,76.1406 1195.8156,75.7031 Q1196.0813,75.4375 1196.2219,75.3594 Q1196.3781,75.2813 1196.5813,75.2813 Q1196.9094,75.2813 1197.1594,75.5469 Q1197.425,75.7969 1197.425,76.1406 Q1197.425,76.4844 1197.0813,76.8906 Q1196.5813,77.4688 1195.7844,77.7969 Q1194.7063,78.25 1193.4094,78.25 Q1191.8938,78.25 1190.6906,77.625 Q1189.7063,77.125 1189.0188,76.0625 Q1188.3313,74.9844 1188.3313,73.7031 L1188.3313,72.5469 Q1188.3313,71.2188 1188.9406,70.0781 Q1189.5656,68.9219 1190.6594,68.3125 Q1191.7531,67.6875 1192.9875,67.6875 Q1193.7219,67.6875 1194.3625,67.8594 Q1195.0188,68.0156 1195.5656,68.375 Z "/><text fill="#000000" font-family="sans-serif" font-size="12" lengthAdjust="spacingAndGlyphs" textLength="59" x="1211.2" y="77.4102">Freelancer</text><line style="stroke: #A80036; stroke-width: 1.5;" x1="1159" x2="1292" y1="88.5" y2="88.5"/><text fill="#000000" font-family="sans-serif" font-size="11" lengthAdjust="spacingAndGlyphs" textLength="43" x="1164" y="103.9189">-String id</text><text fill="#000000" font-family="sans-serif" font-size="11" lengthAdjust="spacingAndGlyphs" textLength="61" x="1164" y="117.7549">-String name</text><text fill="#000000" font-family="sans-serif" font-size="11" lengthAdjust="spacingAndGlyphs" textLength="114" x="1164" y="131.5908">-String levelOfExpertise</text><text fill="#000000" font-family="sans-serif" font-size="11" lengthAdjust="spacingAndGlyphs" textLength="59" x="1164" y="145.4268">-String email</text><text fill="#000000" font-family="sans-serif" font-size="11" lengthAdjust="spacingAndGlyphs" textLength="50" x="1164" y="159.2627">-String NIF</text><text fill="#000000" font-family="sans-serif" font-size="11" lengthAdjust="spacingAndGlyphs" textLength="123" x="1164" y="173.0986">-String bankAccountIBAN</text><text fill="#000000" font-family="sans-serif" font-size="11" lengthAdjust="spacingAndGlyphs" textLength="75" x="1164" y="186.9346">-String address</text><text fill="#000000" font-family="sans-serif" font-size="11" lengthAdjust="spacingAndGlyphs" textLength="72" x="1164" y="200.7705">-String country</text><!--MD5=[764fca796ce7f635542948d8fc39db5e]
class Payment--><rect fill="#FEFECE" filter="url(#f1nmrr3blri1na)" height="40" id="Payment" style="stroke: #A80036; stroke-width: 1.5;" width="80" x="655" y="161"/><ellipse cx="670" cy="177" fill="#ADD1B2" rx="11" ry="11" style="stroke: #A80036; stroke-width: 1.0;"/><path d="M672.7656,172.875 Q672.9219,172.6563 673.1094,172.5469 Q673.2969,172.4375 673.5156,172.4375 Q673.8906,172.4375 674.125,172.7031 Q674.3594,172.9531 674.3594,173.5625 L674.3594,175.0156 Q674.3594,175.625 674.125,175.8906 Q673.8906,176.1563 673.5156,176.1563 Q673.1719,176.1563 672.9688,175.9531 Q672.7656,175.7656 672.6563,175.25 Q672.6094,174.8906 672.4219,174.7031 Q672.0938,174.3281 671.4844,174.1094 Q670.875,173.8906 670.25,173.8906 Q669.4844,173.8906 668.8438,174.2188 Q668.2188,174.5469 667.7188,175.2969 Q667.2344,176.0469 667.2344,177.0781 L667.2344,178.1719 Q667.2344,179.4063 668.125,180.2344 Q669.0156,181.0469 670.6094,181.0469 Q671.5469,181.0469 672.2031,180.7969 Q672.5938,180.6406 673.0156,180.2031 Q673.2813,179.9375 673.4219,179.8594 Q673.5781,179.7813 673.7813,179.7813 Q674.1094,179.7813 674.3594,180.0469 Q674.625,180.2969 674.625,180.6406 Q674.625,180.9844 674.2813,181.3906 Q673.7813,181.9688 672.9844,182.2969 Q671.9063,182.75 670.6094,182.75 Q669.0938,182.75 667.8906,182.125 Q666.9063,181.625 666.2188,180.5625 Q665.5313,179.4844 665.5313,178.2031 L665.5313,177.0469 Q665.5313,175.7188 666.1406,174.5781 Q666.7656,173.4219 667.8594,172.8125 Q668.9531,172.1875 670.1875,172.1875 Q670.9219,172.1875 671.5625,172.3594 Q672.2188,172.5156 672.7656,172.875 Z "/><text fill="#000000" font-family="sans-serif" font-size="12" lengthAdjust="spacingAndGlyphs" textLength="48" x="684" y="181.9102">Payment</text><line style="stroke: #A80036; stroke-width: 1.5;" x1="656" x2="734" y1="193" y2="193"/><!--MD5=[8806e557260fb3598decb516dc04693d]
class EmailAPI--><rect fill="#FEFECE" filter="url(#f1nmrr3blri1na)" height="40" id="EmailAPI" style="stroke: #A80036; stroke-width: 1.5;" width="82" x="908" y="151"/><ellipse cx="923" cy="167" fill="#ADD1B2" rx="11" ry="11" style="stroke: #A80036; stroke-width: 1.0;"/><path d="M925.7656,162.875 Q925.9219,162.6563 926.1094,162.5469 Q926.2969,162.4375 926.5156,162.4375 Q926.8906,162.4375 927.125,162.7031 Q927.3594,162.9531 927.3594,163.5625 L927.3594,165.0156 Q927.3594,165.625 927.125,165.8906 Q926.8906,166.1563 926.5156,166.1563 Q926.1719,166.1563 925.9688,165.9531 Q925.7656,165.7656 925.6563,165.25 Q925.6094,164.8906 925.4219,164.7031 Q925.0938,164.3281 924.4844,164.1094 Q923.875,163.8906 923.25,163.8906 Q922.4844,163.8906 921.8438,164.2188 Q921.2188,164.5469 920.7188,165.2969 Q920.2344,166.0469 920.2344,167.0781 L920.2344,168.1719 Q920.2344,169.4063 921.125,170.2344 Q922.0156,171.0469 923.6094,171.0469 Q924.5469,171.0469 925.2031,170.7969 Q925.5938,170.6406 926.0156,170.2031 Q926.2813,169.9375 926.4219,169.8594 Q926.5781,169.7813 926.7813,169.7813 Q927.1094,169.7813 927.3594,170.0469 Q927.625,170.2969 927.625,170.6406 Q927.625,170.9844 927.2813,171.3906 Q926.7813,171.9688 925.9844,172.2969 Q924.9063,172.75 923.6094,172.75 Q922.0938,172.75 920.8906,172.125 Q919.9063,171.625 919.2188,170.5625 Q918.5313,169.4844 918.5313,168.2031 L918.5313,167.0469 Q918.5313,165.7188 919.1406,164.5781 Q919.7656,163.4219 920.8594,162.8125 Q921.9531,162.1875 923.1875,162.1875 Q923.9219,162.1875 924.5625,162.3594 Q925.2188,162.5156 925.7656,162.875 Z "/><text fill="#000000" font-family="sans-serif" font-size="12" lengthAdjust="spacingAndGlyphs" textLength="50" x="937" y="171.9102">EmailAPI</text><line style="stroke: #A80036; stroke-width: 1.5;" x1="909" x2="989" y1="183" y2="183"/><!--MD5=[b9b2b358c4596a7c3c612fa1a577c109]
class PaymentAPI--><rect fill="#FEFECE" filter="url(#f1nmrr3blri1na)" height="40" id="PaymentAPI" style="stroke: #A80036; stroke-width: 1.5;" width="98" x="900" y="274"/><ellipse cx="915" cy="290" fill="#ADD1B2" rx="11" ry="11" style="stroke: #A80036; stroke-width: 1.0;"/><path d="M917.7656,285.875 Q917.9219,285.6563 918.1094,285.5469 Q918.2969,285.4375 918.5156,285.4375 Q918.8906,285.4375 919.125,285.7031 Q919.3594,285.9531 919.3594,286.5625 L919.3594,288.0156 Q919.3594,288.625 919.125,288.8906 Q918.8906,289.1563 918.5156,289.1563 Q918.1719,289.1563 917.9688,288.9531 Q917.7656,288.7656 917.6563,288.25 Q917.6094,287.8906 917.4219,287.7031 Q917.0938,287.3281 916.4844,287.1094 Q915.875,286.8906 915.25,286.8906 Q914.4844,286.8906 913.8438,287.2188 Q913.2188,287.5469 912.7188,288.2969 Q912.2344,289.0469 912.2344,290.0781 L912.2344,291.1719 Q912.2344,292.4063 913.125,293.2344 Q914.0156,294.0469 915.6094,294.0469 Q916.5469,294.0469 917.2031,293.7969 Q917.5938,293.6406 918.0156,293.2031 Q918.2813,292.9375 918.4219,292.8594 Q918.5781,292.7813 918.7813,292.7813 Q919.1094,292.7813 919.3594,293.0469 Q919.625,293.2969 919.625,293.6406 Q919.625,293.9844 919.2813,294.3906 Q918.7813,294.9688 917.9844,295.2969 Q916.9063,295.75 915.6094,295.75 Q914.0938,295.75 912.8906,295.125 Q911.9063,294.625 911.2188,293.5625 Q910.5313,292.4844 910.5313,291.2031 L910.5313,290.0469 Q910.5313,288.7188 911.1406,287.5781 Q911.7656,286.4219 912.8594,285.8125 Q913.9531,285.1875 915.1875,285.1875 Q915.9219,285.1875 916.5625,285.3594 Q917.2188,285.5156 917.7656,285.875 Z "/><text fill="#000000" font-family="sans-serif" font-size="12" lengthAdjust="spacingAndGlyphs" textLength="66" x="929" y="294.9102">PaymentAPI</text><line style="stroke: #A80036; stroke-width: 1.5;" x1="901" x2="997" y1="306" y2="306"/><!--MD5=[b76730e11bf88a141099e30fd5a76626]
class MonetaryUnitConversionAPI--><rect fill="#FEFECE" filter="url(#f1nmrr3blri1na)" height="40" id="MonetaryUnitConversionAPI" style="stroke: #A80036; stroke-width: 1.5;" width="184" x="857" y="444"/><ellipse cx="872" cy="460" fill="#ADD1B2" rx="11" ry="11" style="stroke: #A80036; stroke-width: 1.0;"/><path d="M874.7656,455.875 Q874.9219,455.6563 875.1094,455.5469 Q875.2969,455.4375 875.5156,455.4375 Q875.8906,455.4375 876.125,455.7031 Q876.3594,455.9531 876.3594,456.5625 L876.3594,458.0156 Q876.3594,458.625 876.125,458.8906 Q875.8906,459.1563 875.5156,459.1563 Q875.1719,459.1563 874.9688,458.9531 Q874.7656,458.7656 874.6563,458.25 Q874.6094,457.8906 874.4219,457.7031 Q874.0938,457.3281 873.4844,457.1094 Q872.875,456.8906 872.25,456.8906 Q871.4844,456.8906 870.8438,457.2188 Q870.2188,457.5469 869.7188,458.2969 Q869.2344,459.0469 869.2344,460.0781 L869.2344,461.1719 Q869.2344,462.4063 870.125,463.2344 Q871.0156,464.0469 872.6094,464.0469 Q873.5469,464.0469 874.2031,463.7969 Q874.5938,463.6406 875.0156,463.2031 Q875.2813,462.9375 875.4219,462.8594 Q875.5781,462.7813 875.7813,462.7813 Q876.1094,462.7813 876.3594,463.0469 Q876.625,463.2969 876.625,463.6406 Q876.625,463.9844 876.2813,464.3906 Q875.7813,464.9688 874.9844,465.2969 Q873.9063,465.75 872.6094,465.75 Q871.0938,465.75 869.8906,465.125 Q868.9063,464.625 868.2188,463.5625 Q867.5313,462.4844 867.5313,461.2031 L867.5313,460.0469 Q867.5313,458.7188 868.1406,457.5781 Q868.7656,456.4219 869.8594,455.8125 Q870.9531,455.1875 872.1875,455.1875 Q872.9219,455.1875 873.5625,455.3594 Q874.2188,455.5156 874.7656,455.875 Z "/><text fill="#000000" font-family="sans-serif" font-size="12" lengthAdjust="spacingAndGlyphs" textLength="152" x="886" y="464.9102">MonetaryUnitConversionAPI</text><line style="stroke: #A80036; stroke-width: 1.5;" x1="858" x2="1040" y1="476" y2="476"/><!--MD5=[c4629210b2ba88e64afbee18491f07dd]
link Payment to Transaction--><path d="M735.026,162.362 C744.715,158.043 755.148,153.648 765,150 C810.199,133.265 863.134,118.11 900.411,108.144 " fill="none" id="Payment-Transaction" style="stroke: #A80036; stroke-width: 1.0;"/><text fill="#000000" font-family="sans-serif" font-size="13" lengthAdjust="spacingAndGlyphs" textLength="47" x="766" y="126.4951">refers to</text><polygon fill="#000000" points="816,119.6758,822,122.6758,816,125.6758,816,119.6758" style="stroke: #000000; stroke-width: 1.0;"/><text fill="#000000" font-family="sans-serif" font-size="13" lengthAdjust="spacingAndGlyphs" textLength="7" x="743.0511" y="173.9281">1</text><text fill="#000000" font-family="sans-serif" font-size="13" lengthAdjust="spacingAndGlyphs" textLength="7" x="885.4349" y="124.7506">1</text><!--MD5=[ac4dd7fdeb0fa08e65a2b7971307989b]
link Payment to EmailAPI--><path d="M735.099,179.448 C782.102,177.583 860.564,174.47 907.976,172.588 " fill="none" id="Payment-EmailAPI" style="stroke: #A80036; stroke-width: 1.0;"/><text fill="#000000" font-family="sans-serif" font-size="13" lengthAdjust="spacingAndGlyphs" textLength="28" x="775.5" y="172.4951">uses</text><polygon fill="#000000" points="806.5,165.6758,812.5,168.6758,806.5,171.6758,806.5,165.6758" style="stroke: #000000; stroke-width: 1.0;"/><text fill="#000000" font-family="sans-serif" font-size="13" lengthAdjust="spacingAndGlyphs" textLength="5" x="742.9532" y="194.1644">*</text><text fill="#000000" font-family="sans-serif" font-size="13" lengthAdjust="spacingAndGlyphs" textLength="7" x="893.0452" y="187.8223">1</text><!--MD5=[4e8d4ca70e30f9b9e34071c7768f0551]
link Payment to PaymentAPI--><path d="M735.099,198.532 C780.582,218.927 855.52,252.531 903.279,273.947 " fill="none" id="Payment-PaymentAPI" style="stroke: #A80036; stroke-width: 1.0;"/><text fill="#000000" font-family="sans-serif" font-size="13" lengthAdjust="spacingAndGlyphs" textLength="28" x="775.5" y="210.4951">uses</text><polygon fill="#000000" points="806.5,203.6758,812.5,206.6758,806.5,209.6758,806.5,203.6758" style="stroke: #000000; stroke-width: 1.0;"/><text fill="#000000" font-family="sans-serif" font-size="13" lengthAdjust="spacingAndGlyphs" textLength="5" x="742.9532" y="216.767">*</text><text fill="#000000" font-family="sans-serif" font-size="13" lengthAdjust="spacingAndGlyphs" textLength="7" x="884.8966" y="264.9955">1</text><!--MD5=[a5bfdb67ecdee50c8f593adbd3c04571]
link Payment to MonetaryUnitConversionAPI--><path d="M712.516,201.068 C726.362,217.785 746.74,242.141 765,263 C823.904,330.29 895.877,408.097 929.294,443.979 " fill="none" id="Payment-MonetaryUnitConversionAPI" style="stroke: #A80036; stroke-width: 1.0;"/><text fill="#000000" font-family="sans-serif" font-size="13" lengthAdjust="spacingAndGlyphs" textLength="28" x="775.5" y="259.4951">uses</text><polygon fill="#000000" points="785,268.3516,788,274.3516,791,268.3516,785,268.3516" style="stroke: #000000; stroke-width: 1.0;"/><text fill="#000000" font-family="sans-serif" font-size="13" lengthAdjust="spacingAndGlyphs" textLength="5" x="711.7393" y="222.5067">*</text><text fill="#000000" font-family="sans-serif" font-size="13" lengthAdjust="spacingAndGlyphs" textLength="7" x="915.4772" y="433.2946">1</text><!--MD5=[c9e7bf11fbb39a4b7f8255480c211d61]
link Payment to Organization--><path d="M654.924,179.323 C595.647,176.65 479.474,170.906 381,163 C338.802,159.612 290.983,154.596 256.088,150.72 " fill="none" id="Payment-Organization" style="stroke: #A80036; stroke-width: 1.0;"/><polygon fill="#000000" points="398.5,152.6758,392.5,155.6758,398.5,158.6758,398.5,152.6758" style="stroke: #000000; stroke-width: 1.0;"/><text fill="#000000" font-family="sans-serif" font-size="13" lengthAdjust="spacingAndGlyphs" textLength="102" x="404.5" y="159.4951">made on behalf of</text><text fill="#000000" font-family="sans-serif" font-size="13" lengthAdjust="spacingAndGlyphs" textLength="5" x="642.074" y="175.0663">*</text><text fill="#000000" font-family="sans-serif" font-size="13" lengthAdjust="spacingAndGlyphs" textLength="7" x="264.0322" y="166.2681">1</text><!--MD5=[542f32193441b56ea302115ed1249c3b]
link Transaction to Freelancer--><path d="M997.501,102.23 C1041.77,108.035 1108.22,116.751 1157.81,123.253 " fill="none" id="Transaction-Freelancer" style="stroke: #A80036; stroke-width: 1.0;"/><text fill="#000000" font-family="sans-serif" font-size="13" lengthAdjust="spacingAndGlyphs" textLength="11" x="1087.5" y="109.4951">to</text><polygon fill="#000000" points="1101.5,102.6758,1107.5,105.6758,1101.5,108.6758,1101.5,102.6758" style="stroke: #000000; stroke-width: 1.0;"/><text fill="#000000" font-family="sans-serif" font-size="13" lengthAdjust="spacingAndGlyphs" textLength="5" x="1005.6293" y="118.021">*</text><text fill="#000000" font-family="sans-serif" font-size="13" lengthAdjust="spacingAndGlyphs" textLength="7" x="1143.0236" y="136.7027">1</text><!--MD5=[f8679721e8e5159e33912074b64b525d]
link PaymentScheduler to Payment--><path d="M517.034,116.928 C549.677,128.204 589.459,142.112 625,155 C634.628,158.491 644.976,162.34 654.655,165.981 " fill="none" id="PaymentScheduler-Payment" style="stroke: #A80036; stroke-width: 1.0;"/><text fill="#000000" font-family="sans-serif" font-size="13" lengthAdjust="spacingAndGlyphs" textLength="59" x="550" y="124.4951">schedules</text><polygon fill="#000000" points="612,117.6758,618,120.6758,612,123.6758,612,117.6758" style="stroke: #000000; stroke-width: 1.0;"/><text fill="#000000" font-family="sans-serif" font-size="13" lengthAdjust="spacingAndGlyphs" textLength="7" x="524.858" y="133.843">1</text><text fill="#000000" font-family="sans-serif" font-size="13" lengthAdjust="spacingAndGlyphs" textLength="5" x="642.0232" y="178.2572">*</text><!--MD5=[5f4f57afaa4ed75c0a27618a4620afc1]
link Organization to PaymentScheduler--><path d="M256.246,134.495 C292.284,126.884 341.41,116.51 380.915,108.167 " fill="none" id="Organization-PaymentScheduler" style="stroke: #A80036; stroke-width: 1.0;"/><text fill="#000000" font-family="sans-serif" font-size="13" lengthAdjust="spacingAndGlyphs" textLength="28" x="298" y="111.4951">uses</text><polygon fill="#000000" points="329,104.6758,335,107.6758,329,110.6758,329,104.6758" style="stroke: #000000; stroke-width: 1.0;"/><text fill="#000000" font-family="sans-serif" font-size="13" lengthAdjust="spacingAndGlyphs" textLength="7" x="263.8743" y="147.6741">1</text><text fill="#000000" font-family="sans-serif" font-size="13" lengthAdjust="spacingAndGlyphs" textLength="7" x="366.0854" y="124.1238">1</text><!--MD5=[42a7202f7cf6325e6697bc6383dceeb9]
link Organization to Transaction--><path d="M238.591,117.817 C271.73,91.847 326.192,54.816 381,42 C569.719,-2.13 801.827,52.968 900.261,81.219 " fill="none" id="Organization-Transaction" style="stroke: #A80036; stroke-width: 1.0;"/><text fill="#000000" font-family="sans-serif" font-size="13" lengthAdjust="spacingAndGlyphs" textLength="63" x="548" y="22.4951">has unpaid</text><polygon fill="#000000" points="614,15.6758,620,18.6758,614,21.6758,614,15.6758" style="stroke: #000000; stroke-width: 1.0;"/><text fill="#000000" font-family="sans-serif" font-size="13" lengthAdjust="spacingAndGlyphs" textLength="7" x="238.4339" y="107.2357">1</text><text fill="#000000" font-family="sans-serif" font-size="13" lengthAdjust="spacingAndGlyphs" textLength="5" x="887.415" y="93.7027">*</text><!--MD5=[939acada67c666032ddf52a0068bc128]
link App to MonetaryUnitConversionAPI--><path d="M41.6286,360.189 C61.7266,406.419 118.443,516 204.5,516 C204.5,516 204.5,516 696,516 C762.002,516 835.76,498.6788 886.335,484.0302 " fill="none" id="App-MonetaryUnitConversionAPI" style="stroke: #A80036; stroke-width: 1.0;"/><text fill="#000000" font-family="sans-serif" font-size="13" lengthAdjust="spacingAndGlyphs" textLength="50" x="417.5" y="512.4951">supports</text><polygon fill="#000000" points="470.5,505.6758,476.5,508.6758,470.5,511.6758,470.5,505.6758" style="stroke: #000000; stroke-width: 1.0;"/><text fill="#000000" font-family="sans-serif" font-size="13" lengthAdjust="spacingAndGlyphs" textLength="7" x="36.2116" y="381.6617">1</text><text fill="#000000" font-family="sans-serif" font-size="13" lengthAdjust="spacingAndGlyphs" textLength="7" x="860.7261" y="505.4582">1</text><!--MD5=[1370966fb1e3885ea6828d35f10d9d48]
link App to Organization--><path d="M42.5076,319.765 C52.2296,299.195 69.0336,267.023 89,243 C111.524,215.9 142.114,190.319 166.154,172.093 " fill="none" id="App-Organization" style="stroke: #A80036; stroke-width: 1.0;"/><polygon fill="#000000" points="96,201,99,195,102,201,96,201" style="stroke: #000000; stroke-width: 1.0;"/><text fill="#000000" font-family="sans-serif" font-size="13" lengthAdjust="spacingAndGlyphs" textLength="21" x="90" y="217.4951">has</text><text fill="#000000" font-family="sans-serif" font-size="13" lengthAdjust="spacingAndGlyphs" textLength="7" x="37.4192" y="309.0177">1</text><text fill="#000000" font-family="sans-serif" font-size="13" lengthAdjust="spacingAndGlyphs" textLength="5" x="152.0002" y="193.3211">*</text><!--MD5=[1cb21011969cc62c73f846209be643c8]
link App to EmailAPI--><path d="M59.2833,340 C92.7572,340 152.992,340 204.5,340 C204.5,340 204.5,340 696,340 C755.038,340 779.648,353.26 827,318 C851.232,299.956 839.07,281.317 857,257 C875.706,231.631 902.415,207.41 922.061,191.176 " fill="none" id="App-EmailAPI" style="stroke: #A80036; stroke-width: 1.0;"/><text fill="#000000" font-family="sans-serif" font-size="13" lengthAdjust="spacingAndGlyphs" textLength="50" x="417.5" y="336.4951">supports</text><polygon fill="#000000" points="470.5,329.6758,476.5,332.6758,470.5,335.6758,470.5,329.6758" style="stroke: #000000; stroke-width: 1.0;"/><text fill="#000000" font-family="sans-serif" font-size="13" lengthAdjust="spacingAndGlyphs" textLength="7" x="67.0434" y="355.5902">1</text><text fill="#000000" font-family="sans-serif" font-size="13" lengthAdjust="spacingAndGlyphs" textLength="7" x="906.5" y="212.6451">1</text><!--MD5=[c476b523f9294f20b13319074aa597a2]
link App to PaymentAPI--><path d="M55.6814,360.189 C86.615,386.17 145.57,428 204.5,428 C204.5,428 204.5,428 696,428 C791.881,428 886.79,351.443 927.418,314.061 " fill="none" id="App-PaymentAPI" style="stroke: #A80036; stroke-width: 1.0;"/><text fill="#000000" font-family="sans-serif" font-size="13" lengthAdjust="spacingAndGlyphs" textLength="50" x="417.5" y="424.4951">supports</text><polygon fill="#000000" points="470.5,417.6758,476.5,420.6758,470.5,423.6758,470.5,417.6758" style="stroke: #000000; stroke-width: 1.0;"/><text fill="#000000" font-family="sans-serif" font-size="13" lengthAdjust="spacingAndGlyphs" textLength="7" x="54.2168" y="381.6617">1</text><text fill="#000000" font-family="sans-serif" font-size="13" lengthAdjust="spacingAndGlyphs" textLength="7" x="913.3637" y="335.4977">1</text><!--MD5=[96d7ba993ba442b366771602ebe86063]
link App to Payment--><path d="M59.2642,326.478 C68.4651,322.041 79.0251,317.386 89,314 C296.744,243.48 557.577,200.895 654.969,186.504 " fill="none" id="App-Payment" style="stroke: #A80036; stroke-width: 1.0;"/><text fill="#000000" font-family="sans-serif" font-size="13" lengthAdjust="spacingAndGlyphs" textLength="50" x="287" y="239.4951">registers</text><polygon fill="#000000" points="340,232.6758,346,235.6758,340,238.6758,340,232.6758" style="stroke: #000000; stroke-width: 1.0;"/><text fill="#000000" font-family="sans-serif" font-size="13" lengthAdjust="spacingAndGlyphs" textLength="7" x="67.0194" y="318.5031">1</text><text fill="#000000" font-family="sans-serif" font-size="13" lengthAdjust="spacingAndGlyphs" textLength="5" x="642.1273" y="202.5213">*</text><!--MD5=[cbdd6193c065fcdcc21acc530d8838bb]
link EmailAPI to Freelancer--><path d="M990.303,165.393 C1026.39,160.36 1080.73,152.748 1128,146 C1137.64,144.624 1147.81,143.16 1157.8,141.717 " fill="none" id="EmailAPI-Freelancer" style="stroke: #A80036; stroke-width: 1.0;"/><text fill="#000000" font-family="sans-serif" font-size="13" lengthAdjust="spacingAndGlyphs" textLength="42" x="1072" y="142.4951">e-mails</text><polygon fill="#000000" points="1117,135.6758,1123,138.6758,1117,141.6758,1117,135.6758" style="stroke: #000000; stroke-width: 1.0;"/><text fill="#000000" font-family="sans-serif" font-size="13" lengthAdjust="spacingAndGlyphs" textLength="7" x="998.0035" y="179.3296">1</text><text fill="#000000" font-family="sans-serif" font-size="13" lengthAdjust="spacingAndGlyphs" textLength="5" x="1145.1219" y="157.1862">*</text><!--MD5=[b6849c842fcd029af282a21ff1ef4f6e]
@startuml MD

skinparam classAttributeIconSize 0
hide methods
left to right direction

class Transaction {

}

class PaymentScheduler {
        - Integer dayMonth
        - LocalTime timeOfDay
}

class Organization {
        - String nome
}

class App {

}

class Freelancer {
        - String id
        - String name
        - String levelOfExpertise
        - String email
        - String NIF
        - String bankAccountIBAN
        - String address
        - String country
}

Payment                      "1" - - "1"      Transaction               : refers to >
Payment                      "*" - - "1"      EmailAPI                  : uses >
Payment                      "*" - - "1"      PaymentAPI                : uses >
Payment                      "*" - - "1"      MonetaryUnitConversionAPI : uses >
Payment                      "*" - - "1"      Organization              : made on behalf of >
Transaction                  "*" - - "1"      Freelancer                : to >
PaymentScheduler             "1" - - "*"      Payment                   : schedules >
Organization                 "1" - - "1"      PaymentScheduler          : uses >
Organization                 "1" - - "*"      Transaction               : has unpaid >
App                          "1" - - "1"      MonetaryUnitConversionAPI : supports >
App                          "1" - - "*"      Organization              : has >
App                          "1" - - "1"      EmailAPI                  : supports >
App                          "1" - - "1"      PaymentAPI                : supports >
App                          "1" - - "*"      Payment                   : registers >
EmailAPI                     "1" - - "*"      Freelancer                : e-mails >

@enduml

PlantUML version 1.2020.10(Sun May 17 10:35:57 WEST 2020)
(GPL source distribution)
Java Runtime: OpenJDK Runtime Environment
JVM: OpenJDK 64-Bit Server VM
Java Version: 14+36
Operating System: Windows 10
Default Encoding: Cp1252
Language: en
Country: US
--></g></svg>