<?xml version="1.0" encoding="UTF-8" standalone="no"?><svg xmlns="http://www.w3.org/2000/svg" xmlns:xlink="http://www.w3.org/1999/xlink" contentScriptType="application/ecmascript" contentStyleType="text/css" height="169px" preserveAspectRatio="none" style="width:301px;height:169px;" version="1.1" viewBox="0 0 301 169" width="301px" zoomAndPan="magnify"><defs><filter height="300%" id="foo4ribbkw4uz" width="300%" x="-1" y="-1"><feGaussianBlur result="blurOut" stdDeviation="2.0"/><feColorMatrix in="blurOut" result="blurOut2" type="matrix" values="0 0 0 0 0 0 0 0 0 0 0 0 0 0 0 0 0 0 .4 0"/><feOffset dx="4.0" dy="4.0" in="blurOut2" result="blurOut3"/><feBlend in="SourceGraphic" in2="blurOut3" mode="normal"/></filter></defs><g><!--MD5=[335f4d9be48430461c68bf6d6fdba145]
class App--><rect fill="#FEFECE" filter="url(#foo4ribbkw4uz)" height="40" id="App" style="stroke: #A80036; stroke-width: 1.5;" width="53" x="6" y="63.5"/><ellipse cx="21" cy="79.5" fill="#ADD1B2" rx="11" ry="11" style="stroke: #A80036; stroke-width: 1.0;"/><path d="M23.7656,75.375 Q23.9219,75.1563 24.1094,75.0469 Q24.2969,74.9375 24.5156,74.9375 Q24.8906,74.9375 25.125,75.2031 Q25.3594,75.4531 25.3594,76.0625 L25.3594,77.5156 Q25.3594,78.125 25.125,78.3906 Q24.8906,78.6563 24.5156,78.6563 Q24.1719,78.6563 23.9688,78.4531 Q23.7656,78.2656 23.6563,77.75 Q23.6094,77.3906 23.4219,77.2031 Q23.0938,76.8281 22.4844,76.6094 Q21.875,76.3906 21.25,76.3906 Q20.4844,76.3906 19.8438,76.7188 Q19.2188,77.0469 18.7188,77.7969 Q18.2344,78.5469 18.2344,79.5781 L18.2344,80.6719 Q18.2344,81.9063 19.125,82.7344 Q20.0156,83.5469 21.6094,83.5469 Q22.5469,83.5469 23.2031,83.2969 Q23.5938,83.1406 24.0156,82.7031 Q24.2813,82.4375 24.4219,82.3594 Q24.5781,82.2813 24.7813,82.2813 Q25.1094,82.2813 25.3594,82.5469 Q25.625,82.7969 25.625,83.1406 Q25.625,83.4844 25.2813,83.8906 Q24.7813,84.4688 23.9844,84.7969 Q22.9063,85.25 21.6094,85.25 Q20.0938,85.25 18.8906,84.625 Q17.9063,84.125 17.2188,83.0625 Q16.5313,81.9844 16.5313,80.7031 L16.5313,79.5469 Q16.5313,78.2188 17.1406,77.0781 Q17.7656,75.9219 18.8594,75.3125 Q19.9531,74.6875 21.1875,74.6875 Q21.9219,74.6875 22.5625,74.8594 Q23.2188,75.0156 23.7656,75.375 Z "/><text fill="#000000" font-family="sans-serif" font-size="12" lengthAdjust="spacingAndGlyphs" textLength="21" x="35" y="84.4102">App</text><line style="stroke: #A80036; stroke-width: 1.5;" x1="7" x2="58" y1="95.5" y2="95.5"/><!--MD5=[1f687b5315377fe49fca59b457947463]
class Freelancer--><rect fill="#FEFECE" filter="url(#foo4ribbkw4uz)" height="150.6875" id="Freelancer" style="stroke: #A80036; stroke-width: 1.5;" width="135" x="155" y="8"/><ellipse cx="189.8" cy="24" fill="#ADD1B2" rx="11" ry="11" style="stroke: #A80036; stroke-width: 1.0;"/><path d="M192.5656,19.875 Q192.7219,19.6563 192.9094,19.5469 Q193.0969,19.4375 193.3156,19.4375 Q193.6906,19.4375 193.925,19.7031 Q194.1594,19.9531 194.1594,20.5625 L194.1594,22.0156 Q194.1594,22.625 193.925,22.8906 Q193.6906,23.1563 193.3156,23.1563 Q192.9719,23.1563 192.7688,22.9531 Q192.5656,22.7656 192.4563,22.25 Q192.4094,21.8906 192.2219,21.7031 Q191.8938,21.3281 191.2844,21.1094 Q190.675,20.8906 190.05,20.8906 Q189.2844,20.8906 188.6438,21.2188 Q188.0188,21.5469 187.5188,22.2969 Q187.0344,23.0469 187.0344,24.0781 L187.0344,25.1719 Q187.0344,26.4063 187.925,27.2344 Q188.8156,28.0469 190.4094,28.0469 Q191.3469,28.0469 192.0031,27.7969 Q192.3938,27.6406 192.8156,27.2031 Q193.0813,26.9375 193.2219,26.8594 Q193.3781,26.7813 193.5813,26.7813 Q193.9094,26.7813 194.1594,27.0469 Q194.425,27.2969 194.425,27.6406 Q194.425,27.9844 194.0813,28.3906 Q193.5813,28.9688 192.7844,29.2969 Q191.7063,29.75 190.4094,29.75 Q188.8938,29.75 187.6906,29.125 Q186.7063,28.625 186.0188,27.5625 Q185.3313,26.4844 185.3313,25.2031 L185.3313,24.0469 Q185.3313,22.7188 185.9406,21.5781 Q186.5656,20.4219 187.6594,19.8125 Q188.7531,19.1875 189.9875,19.1875 Q190.7219,19.1875 191.3625,19.3594 Q192.0188,19.5156 192.5656,19.875 Z "/><text fill="#000000" font-family="sans-serif" font-size="12" lengthAdjust="spacingAndGlyphs" textLength="59" x="208.2" y="28.9102">Freelancer</text><line style="stroke: #A80036; stroke-width: 1.5;" x1="156" x2="289" y1="40" y2="40"/><text fill="#000000" font-family="sans-serif" font-size="11" lengthAdjust="spacingAndGlyphs" textLength="43" x="161" y="55.4189">-String id</text><text fill="#000000" font-family="sans-serif" font-size="11" lengthAdjust="spacingAndGlyphs" textLength="61" x="161" y="69.2549">-String name</text><text fill="#000000" font-family="sans-serif" font-size="11" lengthAdjust="spacingAndGlyphs" textLength="114" x="161" y="83.0908">-String levelOfExpertise</text><text fill="#000000" font-family="sans-serif" font-size="11" lengthAdjust="spacingAndGlyphs" textLength="59" x="161" y="96.9268">-String email</text><text fill="#000000" font-family="sans-serif" font-size="11" lengthAdjust="spacingAndGlyphs" textLength="50" x="161" y="110.7627">-String NIF</text><text fill="#000000" font-family="sans-serif" font-size="11" lengthAdjust="spacingAndGlyphs" textLength="123" x="161" y="124.5986">-String bankAccountIBAN</text><text fill="#000000" font-family="sans-serif" font-size="11" lengthAdjust="spacingAndGlyphs" textLength="75" x="161" y="138.4346">-String address</text><text fill="#000000" font-family="sans-serif" font-size="11" lengthAdjust="spacingAndGlyphs" textLength="72" x="161" y="152.2705">-String country</text><!--MD5=[d88947b97cc296deaa09f9756953ae3a]
link App to Freelancer--><path d="M59.2464,83.5 C83.7839,83.5 121.784,83.5 154.842,83.5 " fill="none" id="App-Freelancer" style="stroke: #A80036; stroke-width: 1.0;"/><text fill="#000000" font-family="sans-serif" font-size="13" lengthAdjust="spacingAndGlyphs" textLength="21" x="90" y="79.9951">has</text><polygon fill="#000000" points="114,73.1758,120,76.1758,114,79.1758,114,73.1758" style="stroke: #000000; stroke-width: 1.0;"/><text fill="#000000" font-family="sans-serif" font-size="13" lengthAdjust="spacingAndGlyphs" textLength="7" x="66.997" y="99.0902">1</text><text fill="#000000" font-family="sans-serif" font-size="13" lengthAdjust="spacingAndGlyphs" textLength="5" x="142.1685" y="97.9064">*</text><!--MD5=[d7122a8828af1a6ef75c1c27973c99f7]
@startuml MD

skinparam classAttributeIconSize 0
hide methods
left to right direction

class App {

}

class Freelancer {
        - String id
        - String name
        - String levelOfExpertise
        - String email
        - String NIF
        - String bankAccountIBAN
        - String address
        - String country
}

App                          "1" - - "*"      Freelancer                : has >

@enduml

PlantUML version 1.2020.10(Sun May 17 10:35:57 WEST 2020)
(GPL source distribution)
Java Runtime: OpenJDK Runtime Environment
JVM: OpenJDK 64-Bit Server VM
Java Version: 14+36
Operating System: Windows 10
Default Encoding: Cp1252
Language: en
Country: US
--></g></svg>