<?xml version="1.0" encoding="UTF-8" standalone="no"?><svg xmlns="http://www.w3.org/2000/svg" xmlns:xlink="http://www.w3.org/1999/xlink" contentScriptType="application/ecmascript" contentStyleType="text/css" height="1209px" preserveAspectRatio="none" style="width:792px;height:1209px;" version="1.1" viewBox="0 0 792 1209" width="792px" zoomAndPan="magnify"><defs><filter height="300%" id="f4iid9tddcem1" width="300%" x="-1" y="-1"><feGaussianBlur result="blurOut" stdDeviation="2.0"/><feColorMatrix in="blurOut" result="blurOut2" type="matrix" values="0 0 0 0 0 0 0 0 0 0 0 0 0 0 0 0 0 0 .4 0"/><feOffset dx="4.0" dy="4.0" in="blurOut2" result="blurOut3"/><feBlend in="SourceGraphic" in2="blurOut3" mode="normal"/></filter></defs><g><!--MD5=[32c8f4cee6bbe0ca0bf85c0866f45559]
class SendEmailTask--><rect fill="#FEFECE" filter="url(#f4iid9tddcem1)" height="89.5078" id="SendEmailTask" style="stroke: #A80036; stroke-width: 1.5;" width="261" x="241.5" y="8"/><ellipse cx="323.75" cy="24" fill="#ADD1B2" rx="11" ry="11" style="stroke: #A80036; stroke-width: 1.0;"/><path d="M326.5156,19.875 Q326.6719,19.6563 326.8594,19.5469 Q327.0469,19.4375 327.2656,19.4375 Q327.6406,19.4375 327.875,19.7031 Q328.1094,19.9531 328.1094,20.5625 L328.1094,22.0156 Q328.1094,22.625 327.875,22.8906 Q327.6406,23.1563 327.2656,23.1563 Q326.9219,23.1563 326.7188,22.9531 Q326.5156,22.7656 326.4063,22.25 Q326.3594,21.8906 326.1719,21.7031 Q325.8438,21.3281 325.2344,21.1094 Q324.625,20.8906 324,20.8906 Q323.2344,20.8906 322.5938,21.2188 Q321.9688,21.5469 321.4688,22.2969 Q320.9844,23.0469 320.9844,24.0781 L320.9844,25.1719 Q320.9844,26.4063 321.875,27.2344 Q322.7656,28.0469 324.3594,28.0469 Q325.2969,28.0469 325.9531,27.7969 Q326.3438,27.6406 326.7656,27.2031 Q327.0313,26.9375 327.1719,26.8594 Q327.3281,26.7813 327.5313,26.7813 Q327.8594,26.7813 328.1094,27.0469 Q328.375,27.2969 328.375,27.6406 Q328.375,27.9844 328.0313,28.3906 Q327.5313,28.9688 326.7344,29.2969 Q325.6563,29.75 324.3594,29.75 Q322.8438,29.75 321.6406,29.125 Q320.6563,28.625 319.9688,27.5625 Q319.2813,26.4844 319.2813,25.2031 L319.2813,24.0469 Q319.2813,22.7188 319.8906,21.5781 Q320.5156,20.4219 321.6094,19.8125 Q322.7031,19.1875 323.9375,19.1875 Q324.6719,19.1875 325.3125,19.3594 Q325.9688,19.5156 326.5156,19.875 Z "/><text fill="#000000" font-family="sans-serif" font-size="12" lengthAdjust="spacingAndGlyphs" textLength="88" x="344.25" y="28.9102">SendEmailTask</text><line style="stroke: #A80036; stroke-width: 1.5;" x1="242.5" x2="501.5" y1="40" y2="40"/><line style="stroke: #A80036; stroke-width: 1.5;" x1="242.5" x2="501.5" y1="48" y2="48"/><text fill="#000000" font-family="sans-serif" font-size="11" lengthAdjust="spacingAndGlyphs" textLength="249" x="247.5" y="63.4189">+sendMessages(Map&lt;Freelancer, String&gt; fre_msg)</text><text fill="#000000" font-family="sans-serif" font-size="11" lengthAdjust="spacingAndGlyphs" textLength="30" x="247.5" y="77.2549">+run()</text><text fill="#000000" font-family="sans-serif" font-size="11" lengthAdjust="spacingAndGlyphs" textLength="79" x="247.5" y="91.0908">+getMessages()</text><!--MD5=[8806e557260fb3598decb516dc04693d]
class EmailAPI--><rect fill="#FEFECE" filter="url(#f4iid9tddcem1)" height="61.8359" id="EmailAPI" style="stroke: #A80036; stroke-width: 1.5;" width="282" x="201" y="285"/><ellipse cx="312.75" cy="301" fill="#ADD1B2" rx="11" ry="11" style="stroke: #A80036; stroke-width: 1.0;"/><path d="M315.5156,296.875 Q315.6719,296.6563 315.8594,296.5469 Q316.0469,296.4375 316.2656,296.4375 Q316.6406,296.4375 316.875,296.7031 Q317.1094,296.9531 317.1094,297.5625 L317.1094,299.0156 Q317.1094,299.625 316.875,299.8906 Q316.6406,300.1563 316.2656,300.1563 Q315.9219,300.1563 315.7188,299.9531 Q315.5156,299.7656 315.4063,299.25 Q315.3594,298.8906 315.1719,298.7031 Q314.8438,298.3281 314.2344,298.1094 Q313.625,297.8906 313,297.8906 Q312.2344,297.8906 311.5938,298.2188 Q310.9688,298.5469 310.4688,299.2969 Q309.9844,300.0469 309.9844,301.0781 L309.9844,302.1719 Q309.9844,303.4063 310.875,304.2344 Q311.7656,305.0469 313.3594,305.0469 Q314.2969,305.0469 314.9531,304.7969 Q315.3438,304.6406 315.7656,304.2031 Q316.0313,303.9375 316.1719,303.8594 Q316.3281,303.7813 316.5313,303.7813 Q316.8594,303.7813 317.1094,304.0469 Q317.375,304.2969 317.375,304.6406 Q317.375,304.9844 317.0313,305.3906 Q316.5313,305.9688 315.7344,306.2969 Q314.6563,306.75 313.3594,306.75 Q311.8438,306.75 310.6406,306.125 Q309.6563,305.625 308.9688,304.5625 Q308.2813,303.4844 308.2813,302.2031 L308.2813,301.0469 Q308.2813,299.7188 308.8906,298.5781 Q309.5156,297.4219 310.6094,296.8125 Q311.7031,296.1875 312.9375,296.1875 Q313.6719,296.1875 314.3125,296.3594 Q314.9688,296.5156 315.5156,296.875 Z "/><text fill="#000000" font-family="sans-serif" font-size="12" lengthAdjust="spacingAndGlyphs" textLength="50" x="333.25" y="305.9102">EmailAPI</text><line style="stroke: #A80036; stroke-width: 1.5;" x1="202" x2="482" y1="317" y2="317"/><line style="stroke: #A80036; stroke-width: 1.5;" x1="202" x2="482" y1="325" y2="325"/><text fill="#000000" font-family="sans-serif" font-size="11" lengthAdjust="spacingAndGlyphs" textLength="270" x="207" y="340.4189">+payTo(String freelancerId,String taskId, Interger delay )</text><!--MD5=[86c7c362de55a38b660185a1328fe18d]
class Organization--><rect fill="#FEFECE" filter="url(#f4iid9tddcem1)" height="75.6719" id="Organization" style="stroke: #A80036; stroke-width: 1.5;" width="101" x="232.5" y="425"/><ellipse cx="247.5" cy="441" fill="#ADD1B2" rx="11" ry="11" style="stroke: #A80036; stroke-width: 1.0;"/><path d="M250.2656,436.875 Q250.4219,436.6563 250.6094,436.5469 Q250.7969,436.4375 251.0156,436.4375 Q251.3906,436.4375 251.625,436.7031 Q251.8594,436.9531 251.8594,437.5625 L251.8594,439.0156 Q251.8594,439.625 251.625,439.8906 Q251.3906,440.1563 251.0156,440.1563 Q250.6719,440.1563 250.4688,439.9531 Q250.2656,439.7656 250.1563,439.25 Q250.1094,438.8906 249.9219,438.7031 Q249.5938,438.3281 248.9844,438.1094 Q248.375,437.8906 247.75,437.8906 Q246.9844,437.8906 246.3438,438.2188 Q245.7188,438.5469 245.2188,439.2969 Q244.7344,440.0469 244.7344,441.0781 L244.7344,442.1719 Q244.7344,443.4063 245.625,444.2344 Q246.5156,445.0469 248.1094,445.0469 Q249.0469,445.0469 249.7031,444.7969 Q250.0938,444.6406 250.5156,444.2031 Q250.7813,443.9375 250.9219,443.8594 Q251.0781,443.7813 251.2813,443.7813 Q251.6094,443.7813 251.8594,444.0469 Q252.125,444.2969 252.125,444.6406 Q252.125,444.9844 251.7813,445.3906 Q251.2813,445.9688 250.4844,446.2969 Q249.4063,446.75 248.1094,446.75 Q246.5938,446.75 245.3906,446.125 Q244.4063,445.625 243.7188,444.5625 Q243.0313,443.4844 243.0313,442.2031 L243.0313,441.0469 Q243.0313,439.7188 243.6406,438.5781 Q244.2656,437.4219 245.3594,436.8125 Q246.4531,436.1875 247.6875,436.1875 Q248.4219,436.1875 249.0625,436.3594 Q249.7188,436.5156 250.2656,436.875 Z "/><text fill="#000000" font-family="sans-serif" font-size="12" lengthAdjust="spacingAndGlyphs" textLength="69" x="261.5" y="445.9102">Organization</text><line style="stroke: #A80036; stroke-width: 1.5;" x1="233.5" x2="332.5" y1="457" y2="457"/><text fill="#000000" font-family="sans-serif" font-size="11" lengthAdjust="spacingAndGlyphs" textLength="61" x="238.5" y="472.4189">-String name</text><line style="stroke: #A80036; stroke-width: 1.5;" x1="233.5" x2="332.5" y1="478.8359" y2="478.8359"/><text fill="#000000" font-family="sans-serif" font-size="11" lengthAdjust="spacingAndGlyphs" textLength="69" x="238.5" y="494.2549">+getTaskList()</text><!--MD5=[031a1c1e2bc7e464975852eaac477fa5]
class ListTransaction--><rect fill="#FEFECE" filter="url(#f4iid9tddcem1)" height="61.8359" id="ListTransaction" style="stroke: #A80036; stroke-width: 1.5;" width="117" x="224.5" y="579"/><ellipse cx="239.5" cy="595" fill="#ADD1B2" rx="11" ry="11" style="stroke: #A80036; stroke-width: 1.0;"/><path d="M242.2656,590.875 Q242.4219,590.6563 242.6094,590.5469 Q242.7969,590.4375 243.0156,590.4375 Q243.3906,590.4375 243.625,590.7031 Q243.8594,590.9531 243.8594,591.5625 L243.8594,593.0156 Q243.8594,593.625 243.625,593.8906 Q243.3906,594.1563 243.0156,594.1563 Q242.6719,594.1563 242.4688,593.9531 Q242.2656,593.7656 242.1563,593.25 Q242.1094,592.8906 241.9219,592.7031 Q241.5938,592.3281 240.9844,592.1094 Q240.375,591.8906 239.75,591.8906 Q238.9844,591.8906 238.3438,592.2188 Q237.7188,592.5469 237.2188,593.2969 Q236.7344,594.0469 236.7344,595.0781 L236.7344,596.1719 Q236.7344,597.4063 237.625,598.2344 Q238.5156,599.0469 240.1094,599.0469 Q241.0469,599.0469 241.7031,598.7969 Q242.0938,598.6406 242.5156,598.2031 Q242.7813,597.9375 242.9219,597.8594 Q243.0781,597.7813 243.2813,597.7813 Q243.6094,597.7813 243.8594,598.0469 Q244.125,598.2969 244.125,598.6406 Q244.125,598.9844 243.7813,599.3906 Q243.2813,599.9688 242.4844,600.2969 Q241.4063,600.75 240.1094,600.75 Q238.5938,600.75 237.3906,600.125 Q236.4063,599.625 235.7188,598.5625 Q235.0313,597.4844 235.0313,596.2031 L235.0313,595.0469 Q235.0313,593.7188 235.6406,592.5781 Q236.2656,591.4219 237.3594,590.8125 Q238.4531,590.1875 239.6875,590.1875 Q240.4219,590.1875 241.0625,590.3594 Q241.7188,590.5156 242.2656,590.875 Z "/><text fill="#000000" font-family="sans-serif" font-size="12" lengthAdjust="spacingAndGlyphs" textLength="85" x="253.5" y="599.9102">ListTransaction</text><line style="stroke: #A80036; stroke-width: 1.5;" x1="225.5" x2="340.5" y1="611" y2="611"/><line style="stroke: #A80036; stroke-width: 1.5;" x1="225.5" x2="340.5" y1="619" y2="619"/><text fill="#000000" font-family="sans-serif" font-size="11" lengthAdjust="spacingAndGlyphs" textLength="95" x="230.5" y="634.4189">+getTransaction(ID)</text><!--MD5=[4555bb1b0911a5adf28ce6dbe60fed2e]
class Transaction--><rect fill="#FEFECE" filter="url(#f4iid9tddcem1)" height="61.8359" id="Transaction" style="stroke: #A80036; stroke-width: 1.5;" width="120" x="492" y="719"/><ellipse cx="517.35" cy="735" fill="#ADD1B2" rx="11" ry="11" style="stroke: #A80036; stroke-width: 1.0;"/><path d="M520.1156,730.875 Q520.2719,730.6563 520.4594,730.5469 Q520.6469,730.4375 520.8656,730.4375 Q521.2406,730.4375 521.475,730.7031 Q521.7094,730.9531 521.7094,731.5625 L521.7094,733.0156 Q521.7094,733.625 521.475,733.8906 Q521.2406,734.1563 520.8656,734.1563 Q520.5219,734.1563 520.3188,733.9531 Q520.1156,733.7656 520.0063,733.25 Q519.9594,732.8906 519.7719,732.7031 Q519.4438,732.3281 518.8344,732.1094 Q518.225,731.8906 517.6,731.8906 Q516.8344,731.8906 516.1938,732.2188 Q515.5688,732.5469 515.0688,733.2969 Q514.5844,734.0469 514.5844,735.0781 L514.5844,736.1719 Q514.5844,737.4063 515.475,738.2344 Q516.3656,739.0469 517.9594,739.0469 Q518.8969,739.0469 519.5531,738.7969 Q519.9438,738.6406 520.3656,738.2031 Q520.6313,737.9375 520.7719,737.8594 Q520.9281,737.7813 521.1313,737.7813 Q521.4594,737.7813 521.7094,738.0469 Q521.975,738.2969 521.975,738.6406 Q521.975,738.9844 521.6313,739.3906 Q521.1313,739.9688 520.3344,740.2969 Q519.2563,740.75 517.9594,740.75 Q516.4438,740.75 515.2406,740.125 Q514.2563,739.625 513.5688,738.5625 Q512.8813,737.4844 512.8813,736.2031 L512.8813,735.0469 Q512.8813,733.7188 513.4906,732.5781 Q514.1156,731.4219 515.2094,730.8125 Q516.3031,730.1875 517.5375,730.1875 Q518.2719,730.1875 518.9125,730.3594 Q519.5688,730.5156 520.1156,730.875 Z "/><text fill="#000000" font-family="sans-serif" font-size="12" lengthAdjust="spacingAndGlyphs" textLength="65" x="533.65" y="739.9102">Transaction</text><line style="stroke: #A80036; stroke-width: 1.5;" x1="493" x2="611" y1="751" y2="751"/><line style="stroke: #A80036; stroke-width: 1.5;" x1="493" x2="611" y1="759" y2="759"/><text fill="#000000" font-family="sans-serif" font-size="11" lengthAdjust="spacingAndGlyphs" textLength="108" x="498" y="774.4189">+getExecutionDetails()</text><!--MD5=[f9fa7692a1144bec397c3ffa19589ca2]
class TaskExecutionDetails--><rect fill="#FEFECE" filter="url(#f4iid9tddcem1)" height="103.3438" id="TaskExecutionDetails" style="stroke: #A80036; stroke-width: 1.5;" width="171" x="466.5" y="859"/><ellipse cx="490.5" cy="875" fill="#ADD1B2" rx="11" ry="11" style="stroke: #A80036; stroke-width: 1.0;"/><path d="M493.2656,870.875 Q493.4219,870.6563 493.6094,870.5469 Q493.7969,870.4375 494.0156,870.4375 Q494.3906,870.4375 494.625,870.7031 Q494.8594,870.9531 494.8594,871.5625 L494.8594,873.0156 Q494.8594,873.625 494.625,873.8906 Q494.3906,874.1563 494.0156,874.1563 Q493.6719,874.1563 493.4688,873.9531 Q493.2656,873.7656 493.1563,873.25 Q493.1094,872.8906 492.9219,872.7031 Q492.5938,872.3281 491.9844,872.1094 Q491.375,871.8906 490.75,871.8906 Q489.9844,871.8906 489.3438,872.2188 Q488.7188,872.5469 488.2188,873.2969 Q487.7344,874.0469 487.7344,875.0781 L487.7344,876.1719 Q487.7344,877.4063 488.625,878.2344 Q489.5156,879.0469 491.1094,879.0469 Q492.0469,879.0469 492.7031,878.7969 Q493.0938,878.6406 493.5156,878.2031 Q493.7813,877.9375 493.9219,877.8594 Q494.0781,877.7813 494.2813,877.7813 Q494.6094,877.7813 494.8594,878.0469 Q495.125,878.2969 495.125,878.6406 Q495.125,878.9844 494.7813,879.3906 Q494.2813,879.9688 493.4844,880.2969 Q492.4063,880.75 491.1094,880.75 Q489.5938,880.75 488.3906,880.125 Q487.4063,879.625 486.7188,878.5625 Q486.0313,877.4844 486.0313,876.2031 L486.0313,875.0469 Q486.0313,873.7188 486.6406,872.5781 Q487.2656,871.4219 488.3594,870.8125 Q489.4531,870.1875 490.6875,870.1875 Q491.4219,870.1875 492.0625,870.3594 Q492.7188,870.5156 493.2656,870.875 Z "/><text fill="#000000" font-family="sans-serif" font-size="12" lengthAdjust="spacingAndGlyphs" textLength="119" x="506.5" y="879.9102">TaskExecutionDetails</text><line style="stroke: #A80036; stroke-width: 1.5;" x1="467.5" x2="636.5" y1="891" y2="891"/><text fill="#000000" font-family="sans-serif" font-size="11" lengthAdjust="spacingAndGlyphs" textLength="69" x="472.5" y="906.4189">-Date endDate</text><text fill="#000000" font-family="sans-serif" font-size="11" lengthAdjust="spacingAndGlyphs" textLength="99" x="472.5" y="920.2549">-Integer delayInDays</text><text fill="#000000" font-family="sans-serif" font-size="11" lengthAdjust="spacingAndGlyphs" textLength="159" x="472.5" y="934.0908">-String DescriptionQualityOfWork</text><line style="stroke: #A80036; stroke-width: 1.5;" x1="467.5" x2="636.5" y1="940.5078" y2="940.5078"/><text fill="#000000" font-family="sans-serif" font-size="11" lengthAdjust="spacingAndGlyphs" textLength="114" x="472.5" y="955.9268">+sendEmailFreelancer()</text><!--MD5=[1f687b5315377fe49fca59b457947463]
class Freelancer--><rect fill="#FEFECE" filter="url(#f4iid9tddcem1)" height="158.6875" id="Freelancer" style="stroke: #A80036; stroke-width: 1.5;" width="135" x="639.5" y="1040"/><ellipse cx="674.3" cy="1056" fill="#ADD1B2" rx="11" ry="11" style="stroke: #A80036; stroke-width: 1.0;"/><path d="M677.0656,1051.875 Q677.2219,1051.6563 677.4094,1051.5469 Q677.5969,1051.4375 677.8156,1051.4375 Q678.1906,1051.4375 678.425,1051.7031 Q678.6594,1051.9531 678.6594,1052.5625 L678.6594,1054.0156 Q678.6594,1054.625 678.425,1054.8906 Q678.1906,1055.1563 677.8156,1055.1563 Q677.4719,1055.1563 677.2688,1054.9531 Q677.0656,1054.7656 676.9563,1054.25 Q676.9094,1053.8906 676.7219,1053.7031 Q676.3938,1053.3281 675.7844,1053.1094 Q675.175,1052.8906 674.55,1052.8906 Q673.7844,1052.8906 673.1438,1053.2188 Q672.5188,1053.5469 672.0188,1054.2969 Q671.5344,1055.0469 671.5344,1056.0781 L671.5344,1057.1719 Q671.5344,1058.4063 672.425,1059.2344 Q673.3156,1060.0469 674.9094,1060.0469 Q675.8469,1060.0469 676.5031,1059.7969 Q676.8938,1059.6406 677.3156,1059.2031 Q677.5813,1058.9375 677.7219,1058.8594 Q677.8781,1058.7813 678.0813,1058.7813 Q678.4094,1058.7813 678.6594,1059.0469 Q678.925,1059.2969 678.925,1059.6406 Q678.925,1059.9844 678.5813,1060.3906 Q678.0813,1060.9688 677.2844,1061.2969 Q676.2063,1061.75 674.9094,1061.75 Q673.3938,1061.75 672.1906,1061.125 Q671.2063,1060.625 670.5188,1059.5625 Q669.8313,1058.4844 669.8313,1057.2031 L669.8313,1056.0469 Q669.8313,1054.7188 670.4406,1053.5781 Q671.0656,1052.4219 672.1594,1051.8125 Q673.2531,1051.1875 674.4875,1051.1875 Q675.2219,1051.1875 675.8625,1051.3594 Q676.5188,1051.5156 677.0656,1051.875 Z "/><text fill="#000000" font-family="sans-serif" font-size="12" lengthAdjust="spacingAndGlyphs" textLength="59" x="692.7" y="1060.9102">Freelancer</text><line style="stroke: #A80036; stroke-width: 1.5;" x1="640.5" x2="773.5" y1="1072" y2="1072"/><text fill="#000000" font-family="sans-serif" font-size="11" lengthAdjust="spacingAndGlyphs" textLength="43" x="645.5" y="1087.4189">-String id</text><text fill="#000000" font-family="sans-serif" font-size="11" lengthAdjust="spacingAndGlyphs" textLength="61" x="645.5" y="1101.2549">-String name</text><text fill="#000000" font-family="sans-serif" font-size="11" lengthAdjust="spacingAndGlyphs" textLength="114" x="645.5" y="1115.0908">-String levelOfExpertise</text><text fill="#000000" font-family="sans-serif" font-size="11" lengthAdjust="spacingAndGlyphs" textLength="59" x="645.5" y="1128.9268">-String email</text><text fill="#000000" font-family="sans-serif" font-size="11" lengthAdjust="spacingAndGlyphs" textLength="50" x="645.5" y="1142.7627">-String NIF</text><text fill="#000000" font-family="sans-serif" font-size="11" lengthAdjust="spacingAndGlyphs" textLength="123" x="645.5" y="1156.5986">-String bankAccountIBAN</text><text fill="#000000" font-family="sans-serif" font-size="11" lengthAdjust="spacingAndGlyphs" textLength="75" x="645.5" y="1170.4346">-String address</text><text fill="#000000" font-family="sans-serif" font-size="11" lengthAdjust="spacingAndGlyphs" textLength="72" x="645.5" y="1184.2705">-String country</text><line style="stroke: #A80036; stroke-width: 1.5;" x1="640.5" x2="773.5" y1="1190.6875" y2="1190.6875"/><!--MD5=[335f4d9be48430461c68bf6d6fdba145]
class App--><rect fill="#FEFECE" filter="url(#f4iid9tddcem1)" height="48" id="App" style="stroke: #A80036; stroke-width: 1.5;" width="53" x="395.5" y="159"/><ellipse cx="410.5" cy="175" fill="#ADD1B2" rx="11" ry="11" style="stroke: #A80036; stroke-width: 1.0;"/><path d="M413.2656,170.875 Q413.4219,170.6563 413.6094,170.5469 Q413.7969,170.4375 414.0156,170.4375 Q414.3906,170.4375 414.625,170.7031 Q414.8594,170.9531 414.8594,171.5625 L414.8594,173.0156 Q414.8594,173.625 414.625,173.8906 Q414.3906,174.1563 414.0156,174.1563 Q413.6719,174.1563 413.4688,173.9531 Q413.2656,173.7656 413.1563,173.25 Q413.1094,172.8906 412.9219,172.7031 Q412.5938,172.3281 411.9844,172.1094 Q411.375,171.8906 410.75,171.8906 Q409.9844,171.8906 409.3438,172.2188 Q408.7188,172.5469 408.2188,173.2969 Q407.7344,174.0469 407.7344,175.0781 L407.7344,176.1719 Q407.7344,177.4063 408.625,178.2344 Q409.5156,179.0469 411.1094,179.0469 Q412.0469,179.0469 412.7031,178.7969 Q413.0938,178.6406 413.5156,178.2031 Q413.7813,177.9375 413.9219,177.8594 Q414.0781,177.7813 414.2813,177.7813 Q414.6094,177.7813 414.8594,178.0469 Q415.125,178.2969 415.125,178.6406 Q415.125,178.9844 414.7813,179.3906 Q414.2813,179.9688 413.4844,180.2969 Q412.4063,180.75 411.1094,180.75 Q409.5938,180.75 408.3906,180.125 Q407.4063,179.625 406.7188,178.5625 Q406.0313,177.4844 406.0313,176.2031 L406.0313,175.0469 Q406.0313,173.7188 406.6406,172.5781 Q407.2656,171.4219 408.3594,170.8125 Q409.4531,170.1875 410.6875,170.1875 Q411.4219,170.1875 412.0625,170.3594 Q412.7188,170.5156 413.2656,170.875 Z "/><text fill="#000000" font-family="sans-serif" font-size="12" lengthAdjust="spacingAndGlyphs" textLength="21" x="424.5" y="179.9102">App</text><line style="stroke: #A80036; stroke-width: 1.5;" x1="396.5" x2="447.5" y1="191" y2="191"/><line style="stroke: #A80036; stroke-width: 1.5;" x1="396.5" x2="447.5" y1="199" y2="199"/><!--MD5=[e09e0019787cf83947156283bb671e06]
class RegistOrganization--><rect fill="#FEFECE" filter="url(#f4iid9tddcem1)" height="48" id="RegistOrganization" style="stroke: #A80036; stroke-width: 1.5;" width="137" x="518.5" y="292"/><ellipse cx="533.5" cy="308" fill="#ADD1B2" rx="11" ry="11" style="stroke: #A80036; stroke-width: 1.0;"/><path d="M536.2656,303.875 Q536.4219,303.6563 536.6094,303.5469 Q536.7969,303.4375 537.0156,303.4375 Q537.3906,303.4375 537.625,303.7031 Q537.8594,303.9531 537.8594,304.5625 L537.8594,306.0156 Q537.8594,306.625 537.625,306.8906 Q537.3906,307.1563 537.0156,307.1563 Q536.6719,307.1563 536.4688,306.9531 Q536.2656,306.7656 536.1563,306.25 Q536.1094,305.8906 535.9219,305.7031 Q535.5938,305.3281 534.9844,305.1094 Q534.375,304.8906 533.75,304.8906 Q532.9844,304.8906 532.3438,305.2188 Q531.7188,305.5469 531.2188,306.2969 Q530.7344,307.0469 530.7344,308.0781 L530.7344,309.1719 Q530.7344,310.4063 531.625,311.2344 Q532.5156,312.0469 534.1094,312.0469 Q535.0469,312.0469 535.7031,311.7969 Q536.0938,311.6406 536.5156,311.2031 Q536.7813,310.9375 536.9219,310.8594 Q537.0781,310.7813 537.2813,310.7813 Q537.6094,310.7813 537.8594,311.0469 Q538.125,311.2969 538.125,311.6406 Q538.125,311.9844 537.7813,312.3906 Q537.2813,312.9688 536.4844,313.2969 Q535.4063,313.75 534.1094,313.75 Q532.5938,313.75 531.3906,313.125 Q530.4063,312.625 529.7188,311.5625 Q529.0313,310.4844 529.0313,309.2031 L529.0313,308.0469 Q529.0313,306.7188 529.6406,305.5781 Q530.2656,304.4219 531.3594,303.8125 Q532.4531,303.1875 533.6875,303.1875 Q534.4219,303.1875 535.0625,303.3594 Q535.7188,303.5156 536.2656,303.875 Z "/><text fill="#000000" font-family="sans-serif" font-size="12" lengthAdjust="spacingAndGlyphs" textLength="105" x="547.5" y="312.9102">RegistOrganization</text><line style="stroke: #A80036; stroke-width: 1.5;" x1="519.5" x2="654.5" y1="324" y2="324"/><line style="stroke: #A80036; stroke-width: 1.5;" x1="519.5" x2="654.5" y1="332" y2="332"/><!--MD5=[34f9f932fd778d30fdc72ceaaad0e98f]
link App to RegistOrganization--><path d="M448.51,205.047 C477.106,227.751 522.695,263.945 553.691,288.554 " fill="none" id="App-&gt;RegistOrganization" style="stroke: #A80036; stroke-width: 1.0;"/><polygon fill="#A80036" points="557.774,291.797,553.2142,283.0673,553.8587,288.6873,548.2387,289.3318,557.774,291.797" style="stroke: #A80036; stroke-width: 1.0;"/><text fill="#000000" font-family="sans-serif" font-size="13" lengthAdjust="spacingAndGlyphs" textLength="21" x="511" y="251.4951">has</text><text fill="#000000" font-family="sans-serif" font-size="13" lengthAdjust="spacingAndGlyphs" textLength="7" x="456.5752" y="206.3683">1</text><text fill="#000000" font-family="sans-serif" font-size="13" lengthAdjust="spacingAndGlyphs" textLength="7" x="542.388" y="281.0851">1</text><!--MD5=[b2767384522f615c85a28d92ddf7f4b1]
link RegistOrganization to Organization--><path d="M538.494,340.136 C483.955,366.15 395.56,408.312 338.361,435.594 " fill="none" id="RegistOrganization-&gt;Organization" style="stroke: #A80036; stroke-width: 1.0;"/><polygon fill="#A80036" points="333.612,437.859,343.4573,437.5941,338.1248,435.7062,340.0128,430.3737,333.612,437.859" style="stroke: #A80036; stroke-width: 1.0;"/><text fill="#000000" font-family="sans-serif" font-size="13" lengthAdjust="spacingAndGlyphs" textLength="21" x="455" y="391.4951">has</text><text fill="#000000" font-family="sans-serif" font-size="13" lengthAdjust="spacingAndGlyphs" textLength="7" x="518.8175" y="361.5071">1</text><text fill="#000000" font-family="sans-serif" font-size="13" lengthAdjust="spacingAndGlyphs" textLength="5" x="341.4128" y="430.5364">*</text><!--MD5=[eddc38b6bc72bc48b6f4e6dee3f36f26]
link Organization to ListTransaction--><path d="M283,501.341 C283,523.559 283,551.588 283,573.477 " fill="none" id="Organization-&gt;ListTransaction" style="stroke: #A80036; stroke-width: 1.0;"/><polygon fill="#A80036" points="283,578.617,287,569.617,283,573.617,279,569.617,283,578.617" style="stroke: #A80036; stroke-width: 1.0;"/><text fill="#000000" font-family="sans-serif" font-size="13" lengthAdjust="spacingAndGlyphs" textLength="21" x="284" y="545.4951">has</text><text fill="#000000" font-family="sans-serif" font-size="13" lengthAdjust="spacingAndGlyphs" textLength="7" x="275.4422" y="522.2759">1</text><text fill="#000000" font-family="sans-serif" font-size="13" lengthAdjust="spacingAndGlyphs" textLength="7" x="275.2781" y="568.0425">1</text><!--MD5=[71d2e20b7b04e36d280b22ce75f9673c]
link ListTransaction to Transaction--><path d="M341.701,641.114 C385.193,663.426 444.385,693.793 488.892,716.625 " fill="none" id="ListTransaction-&gt;Transaction" style="stroke: #A80036; stroke-width: 1.0;"/><polygon fill="#A80036" points="493.424,718.95,487.2411,711.2838,488.975,716.6683,483.5904,718.4022,493.424,718.95" style="stroke: #A80036; stroke-width: 1.0;"/><text fill="#000000" font-family="sans-serif" font-size="13" lengthAdjust="spacingAndGlyphs" textLength="21" x="435" y="685.4951">has</text><text fill="#000000" font-family="sans-serif" font-size="13" lengthAdjust="spacingAndGlyphs" textLength="7" x="345.5687" y="662.3604">1</text><text fill="#000000" font-family="sans-serif" font-size="13" lengthAdjust="spacingAndGlyphs" textLength="5" x="479.0717" y="710.5051">*</text><!--MD5=[9aa0fa191c99edeef0ce6e9ae1d37765]
link Transaction to TaskExecutionDetails--><path d="M552,781.186 C552,801.646 552,829.3 552,853.696 " fill="none" id="Transaction-&gt;TaskExecutionDetails" style="stroke: #A80036; stroke-width: 1.0;"/><polygon fill="#A80036" points="552,858.849,556,849.849,552,853.849,548,849.849,552,858.849" style="stroke: #A80036; stroke-width: 1.0;"/><text fill="#000000" font-family="sans-serif" font-size="13" lengthAdjust="spacingAndGlyphs" textLength="21" x="553" y="825.4951">has</text><text fill="#000000" font-family="sans-serif" font-size="13" lengthAdjust="spacingAndGlyphs" textLength="7" x="544.3109" y="802.4466">1</text><text fill="#000000" font-family="sans-serif" font-size="13" lengthAdjust="spacingAndGlyphs" textLength="7" x="544.5297" y="848.329">1</text><!--MD5=[c897986958b0183b1953bc97f4a63ae6]
link TaskExecutionDetails to Freelancer--><path d="M589.917,962.138 C606.438,984.201 626.24,1010.646 644.818,1035.457 " fill="none" id="TaskExecutionDetails-&gt;Freelancer" style="stroke: #A80036; stroke-width: 1.0;"/><polygon fill="#A80036" points="648.029,1039.745,645.8367,1030.1432,645.0322,1035.7426,639.4328,1034.9381,648.029,1039.745" style="stroke: #A80036; stroke-width: 1.0;"/><text fill="#000000" font-family="sans-serif" font-size="13" lengthAdjust="spacingAndGlyphs" textLength="37" x="625" y="1006.4951">knows</text><text fill="#000000" font-family="sans-serif" font-size="13" lengthAdjust="spacingAndGlyphs" textLength="5" x="589.8975" y="984.0203">*</text><text fill="#000000" font-family="sans-serif" font-size="13" lengthAdjust="spacingAndGlyphs" textLength="7" x="635.27" y="1029.1808">1</text><!--MD5=[1cb21011969cc62c73f846209be643c8]
link App to EmailAPI--><path d="M407.882,207.119 C395.518,227.364 377.374,257.076 363.255,280.195 " fill="none" id="App-&gt;EmailAPI" style="stroke: #A80036; stroke-width: 1.0;"/><polygon fill="#A80036" points="360.488,284.726,368.5923,279.1295,363.0938,280.4587,361.7646,274.9602,360.488,284.726" style="stroke: #A80036; stroke-width: 1.0;"/><text fill="#000000" font-family="sans-serif" font-size="13" lengthAdjust="spacingAndGlyphs" textLength="21" x="391" y="251.4951">has</text><text fill="#000000" font-family="sans-serif" font-size="13" lengthAdjust="spacingAndGlyphs" textLength="7" x="396.5876" y="228.486">1</text><text fill="#000000" font-family="sans-serif" font-size="13" lengthAdjust="spacingAndGlyphs" textLength="7" x="356.5793" y="274.174">1</text><!--MD5=[36225989b952fc1099937874e0b17701]
link SendEmailTask to ListTransaction--><path d="M241.32,61.48 C162.413,73.89 77,105.1 77,182 C77,182 77,182 77,464 C77,534.509 158.698,573.717 219.195,593.085 " fill="none" id="SendEmailTask-&gt;ListTransaction" style="stroke: #A80036; stroke-width: 1.0; stroke-dasharray: 7.0,7.0;"/><polygon fill="#A80036" points="224.244,594.671,216.8567,588.1574,219.4739,593.1724,214.4589,595.7896,224.244,594.671" style="stroke: #A80036; stroke-width: 1.0;"/><!--MD5=[6dc378cc4fdf1196b1d371e1658671f0]
link SendEmailTask to Transaction--><path d="M502.775,78.73 C597.504,100.5 709,135.92 709,182 C709,182 709,182 709,611 C709,662.821 660.151,699.768 616.949,722.31 " fill="none" id="SendEmailTask-&gt;Transaction" style="stroke: #A80036; stroke-width: 1.0; stroke-dasharray: 7.0,7.0;"/><polygon fill="#A80036" points="612.251,724.717,622.0848,724.173,616.7009,722.437,618.4369,717.0531,612.251,724.717" style="stroke: #A80036; stroke-width: 1.0;"/><!--MD5=[4439405596eca8d852451d15e5c042db]
link SendEmailTask to App--><path d="M389.207,98.05 C396.426,116.53 404.609,137.48 410.995,153.83 " fill="none" id="SendEmailTask-&gt;App" style="stroke: #A80036; stroke-width: 1.0; stroke-dasharray: 7.0,7.0;"/><polygon fill="#A80036" points="412.915,158.74,413.3752,148.9019,411.1,154.0811,405.9209,151.8059,412.915,158.74" style="stroke: #A80036; stroke-width: 1.0;"/><!--MD5=[fae6f325b53506524a37b6098a6d45dd]
link SendEmailTask to Organization--><path d="M319.566,98.18 C273.592,140.63 210.001,209.358 183,285 C173.736,310.952 173.348,321.19 183,347 C193.513,375.112 214.344,400.89 234.285,420.884 " fill="none" id="SendEmailTask-&gt;Organization" style="stroke: #A80036; stroke-width: 1.0; stroke-dasharray: 7.0,7.0;"/><polygon fill="#A80036" points="238.258,424.804,234.6613,415.6354,234.699,421.2921,229.0422,421.3298,238.258,424.804" style="stroke: #A80036; stroke-width: 1.0;"/><!--MD5=[3c7b3923b0989a8f68d3d539ee9a1120]
link SendEmailTask to TaskExecutionDetails--><path d="M241.416,74.58 C136.306,94.96 6,130.59 6,182 C6,182 6,182 6,751 C6,844.678 306.171,886.576 461.383,901.98 " fill="none" id="SendEmailTask-&gt;TaskExecutionDetails" style="stroke: #A80036; stroke-width: 1.0; stroke-dasharray: 7.0,7.0;"/><polygon fill="#A80036" points="466.387,902.472,457.8223,897.6092,461.4111,901.982,457.0383,905.5707,466.387,902.472" style="stroke: #A80036; stroke-width: 1.0;"/><!--MD5=[d52f2a070bb5e27bf010c70a4009b221]
link SendEmailTask to RegistOrganization--><path d="M417.929,98.26 C453.66,133.93 503.332,186.33 541,237 C552.73,252.779 563.977,271.756 572.414,287.041 " fill="none" id="SendEmailTask-&gt;RegistOrganization" style="stroke: #A80036; stroke-width: 1.0; stroke-dasharray: 7.0,7.0;"/><polygon fill="#A80036" points="574.94,291.659,574.1298,281.8435,572.5403,287.2725,567.1114,285.683,574.94,291.659" style="stroke: #A80036; stroke-width: 1.0;"/><!--MD5=[242c093320b58be68ea01c114cb3c188]
link SendEmailTask to EmailAPI--><path d="M366.911,98.28 C361.024,149.49 351.45,232.787 346.046,279.8 " fill="none" id="SendEmailTask-&gt;EmailAPI" style="stroke: #A80036; stroke-width: 1.0; stroke-dasharray: 7.0,7.0;"/><polygon fill="#A80036" points="345.472,284.791,350.4744,276.3071,346.0434,279.8238,342.5268,275.3928,345.472,284.791" style="stroke: #A80036; stroke-width: 1.0;"/><!--MD5=[52055e04d67a057c847f7653b5815ba3]
link SendEmailTask to Freelancer--><path d="M502.777,69.7 C622.116,87.79 780,122.89 780,182 C780,182 780,182 780,911.5 C780,953.622 766.39,997.962 750.923,1034.75 " fill="none" id="SendEmailTask-&gt;Freelancer" style="stroke: #A80036; stroke-width: 1.0; stroke-dasharray: 7.0,7.0;"/><polygon fill="#A80036" points="748.83,1039.659,756.0395,1032.9491,750.7911,1035.0597,748.6806,1029.8113,748.83,1039.659" style="stroke: #A80036; stroke-width: 1.0;"/><!--MD5=[806ba68052557d8cb32a07876df6e068]
@startuml CD
skinparam classAttributeIconSize 0
top to bottom direction

class SendEmailTask {
	+ sendMessages(Map<Freelancer, String> fre_msg)
        + run()
	+ getMessages()
}


class EmailAPI {
	+ payTo(String freelancerId,String taskId, Interger delay )
}


class Organization {
        - String name
        + getTaskList()
}

class ListTransaction {
        + getTransaction(ID)
}

class Transaction {
        + getExecutionDetails()
}


class TaskExecutionDetails {
        - Date endDate
        - Integer delayInDays
        - String DescriptionQualityOfWork
        + sendEmailFreelancer()
}

class Freelancer {
        - String id
        - String name
        - String levelOfExpertise
        - String email
        - String NIF
        - String bankAccountIBAN
        - String address
        - String country
}

App                          "1" - -> "1"      RegistOrganization        : has
RegistOrganization           "1" - -> "*"      Organization              : has
Organization                 "1" - -> "1"      ListTransaction           : has
ListTransaction              "1" - -> "*"      Transaction               : has
Transaction                  "1" - -> "1"      TaskExecutionDetails      : has
TaskExecutionDetails         "*" - -> "1"      Freelancer                : knows
App                          "1" - -> "1"      EmailAPI                  : has
SendEmailTask                    ..>          ListTransaction
SendEmailTask                    ..>          Transaction
SendEmailTask                    ..>          App
SendEmailTask                    ..>          Organization
SendEmailTask                    ..>          TaskExecutionDetails
SendEmailTask                    ..>          RegistOrganization
SendEmailTask                    ..>          EmailAPI
SendEmailTask                    ..>          Freelancer

@enduml

PlantUML version 1.2020.10(Sun May 17 10:35:57 WEST 2020)
(GPL source distribution)
Java Runtime: OpenJDK Runtime Environment
JVM: OpenJDK 64-Bit Server VM
Java Version: 14+36
Operating System: Windows 10
Default Encoding: Cp1252
Language: en
Country: US
--></g></svg>