<?xml version="1.0" encoding="UTF-8" standalone="no"?><svg xmlns="http://www.w3.org/2000/svg" xmlns:xlink="http://www.w3.org/1999/xlink" contentScriptType="application/ecmascript" contentStyleType="text/css" height="353px" preserveAspectRatio="none" style="width:665px;height:353px;" version="1.1" viewBox="0 0 665 353" width="665px" zoomAndPan="magnify"><defs><filter height="300%" id="fmzory1w3vp5d" width="300%" x="-1" y="-1"><feGaussianBlur result="blurOut" stdDeviation="2.0"/><feColorMatrix in="blurOut" result="blurOut2" type="matrix" values="0 0 0 0 0 0 0 0 0 0 0 0 0 0 0 0 0 0 .4 0"/><feOffset dx="4.0" dy="4.0" in="blurOut2" result="blurOut3"/><feBlend in="SourceGraphic" in2="blurOut3" mode="normal"/></filter></defs><g><!--MD5=[f9fa7692a1144bec397c3ffa19589ca2]
class TaskExecutionDetails--><rect fill="#FEFECE" filter="url(#fmzory1w3vp5d)" height="81.5078" id="TaskExecutionDetails" style="stroke: #A80036; stroke-width: 1.5;" width="171" x="184" y="8"/><ellipse cx="208" cy="24" fill="#ADD1B2" rx="11" ry="11" style="stroke: #A80036; stroke-width: 1.0;"/><path d="M210.7656,19.875 Q210.9219,19.6563 211.1094,19.5469 Q211.2969,19.4375 211.5156,19.4375 Q211.8906,19.4375 212.125,19.7031 Q212.3594,19.9531 212.3594,20.5625 L212.3594,22.0156 Q212.3594,22.625 212.125,22.8906 Q211.8906,23.1563 211.5156,23.1563 Q211.1719,23.1563 210.9688,22.9531 Q210.7656,22.7656 210.6563,22.25 Q210.6094,21.8906 210.4219,21.7031 Q210.0938,21.3281 209.4844,21.1094 Q208.875,20.8906 208.25,20.8906 Q207.4844,20.8906 206.8438,21.2188 Q206.2188,21.5469 205.7188,22.2969 Q205.2344,23.0469 205.2344,24.0781 L205.2344,25.1719 Q205.2344,26.4063 206.125,27.2344 Q207.0156,28.0469 208.6094,28.0469 Q209.5469,28.0469 210.2031,27.7969 Q210.5938,27.6406 211.0156,27.2031 Q211.2813,26.9375 211.4219,26.8594 Q211.5781,26.7813 211.7813,26.7813 Q212.1094,26.7813 212.3594,27.0469 Q212.625,27.2969 212.625,27.6406 Q212.625,27.9844 212.2813,28.3906 Q211.7813,28.9688 210.9844,29.2969 Q209.9063,29.75 208.6094,29.75 Q207.0938,29.75 205.8906,29.125 Q204.9063,28.625 204.2188,27.5625 Q203.5313,26.4844 203.5313,25.2031 L203.5313,24.0469 Q203.5313,22.7188 204.1406,21.5781 Q204.7656,20.4219 205.8594,19.8125 Q206.9531,19.1875 208.1875,19.1875 Q208.9219,19.1875 209.5625,19.3594 Q210.2188,19.5156 210.7656,19.875 Z "/><text fill="#000000" font-family="sans-serif" font-size="12" lengthAdjust="spacingAndGlyphs" textLength="119" x="224" y="28.9102">TaskExecutionDetails</text><line style="stroke: #A80036; stroke-width: 1.5;" x1="185" x2="354" y1="40" y2="40"/><text fill="#000000" font-family="sans-serif" font-size="11" lengthAdjust="spacingAndGlyphs" textLength="69" x="190" y="55.4189">-Date endDate</text><text fill="#000000" font-family="sans-serif" font-size="11" lengthAdjust="spacingAndGlyphs" textLength="99" x="190" y="69.2549">-Integer delayInDays</text><text fill="#000000" font-family="sans-serif" font-size="11" lengthAdjust="spacingAndGlyphs" textLength="159" x="190" y="83.0908">-String DescriptionQualityOfWork</text><!--MD5=[86c7c362de55a38b660185a1328fe18d]
class Organization--><rect fill="#FEFECE" filter="url(#fmzory1w3vp5d)" height="53.8359" id="Organization" style="stroke: #A80036; stroke-width: 1.5;" width="101" x="219" y="125"/><ellipse cx="234" cy="141" fill="#ADD1B2" rx="11" ry="11" style="stroke: #A80036; stroke-width: 1.0;"/><path d="M236.7656,136.875 Q236.9219,136.6563 237.1094,136.5469 Q237.2969,136.4375 237.5156,136.4375 Q237.8906,136.4375 238.125,136.7031 Q238.3594,136.9531 238.3594,137.5625 L238.3594,139.0156 Q238.3594,139.625 238.125,139.8906 Q237.8906,140.1563 237.5156,140.1563 Q237.1719,140.1563 236.9688,139.9531 Q236.7656,139.7656 236.6563,139.25 Q236.6094,138.8906 236.4219,138.7031 Q236.0938,138.3281 235.4844,138.1094 Q234.875,137.8906 234.25,137.8906 Q233.4844,137.8906 232.8438,138.2188 Q232.2188,138.5469 231.7188,139.2969 Q231.2344,140.0469 231.2344,141.0781 L231.2344,142.1719 Q231.2344,143.4063 232.125,144.2344 Q233.0156,145.0469 234.6094,145.0469 Q235.5469,145.0469 236.2031,144.7969 Q236.5938,144.6406 237.0156,144.2031 Q237.2813,143.9375 237.4219,143.8594 Q237.5781,143.7813 237.7813,143.7813 Q238.1094,143.7813 238.3594,144.0469 Q238.625,144.2969 238.625,144.6406 Q238.625,144.9844 238.2813,145.3906 Q237.7813,145.9688 236.9844,146.2969 Q235.9063,146.75 234.6094,146.75 Q233.0938,146.75 231.8906,146.125 Q230.9063,145.625 230.2188,144.5625 Q229.5313,143.4844 229.5313,142.2031 L229.5313,141.0469 Q229.5313,139.7188 230.1406,138.5781 Q230.7656,137.4219 231.8594,136.8125 Q232.9531,136.1875 234.1875,136.1875 Q234.9219,136.1875 235.5625,136.3594 Q236.2188,136.5156 236.7656,136.875 Z "/><text fill="#000000" font-family="sans-serif" font-size="12" lengthAdjust="spacingAndGlyphs" textLength="69" x="248" y="145.9102">Organization</text><line style="stroke: #A80036; stroke-width: 1.5;" x1="220" x2="319" y1="157" y2="157"/><text fill="#000000" font-family="sans-serif" font-size="11" lengthAdjust="spacingAndGlyphs" textLength="61" x="225" y="172.4189">-String nome</text><!--MD5=[b34797a66dc35cbf1d65f7e3ca75530e]
class Task--><rect fill="#FEFECE" filter="url(#fmzory1w3vp5d)" height="109.1797" id="Task" style="stroke: #A80036; stroke-width: 1.5;" width="169" x="485" y="19.5"/><ellipse cx="551.75" cy="35.5" fill="#ADD1B2" rx="11" ry="11" style="stroke: #A80036; stroke-width: 1.0;"/><path d="M554.5156,31.375 Q554.6719,31.1563 554.8594,31.0469 Q555.0469,30.9375 555.2656,30.9375 Q555.6406,30.9375 555.875,31.2031 Q556.1094,31.4531 556.1094,32.0625 L556.1094,33.5156 Q556.1094,34.125 555.875,34.3906 Q555.6406,34.6563 555.2656,34.6563 Q554.9219,34.6563 554.7188,34.4531 Q554.5156,34.2656 554.4063,33.75 Q554.3594,33.3906 554.1719,33.2031 Q553.8438,32.8281 553.2344,32.6094 Q552.625,32.3906 552,32.3906 Q551.2344,32.3906 550.5938,32.7188 Q549.9688,33.0469 549.4688,33.7969 Q548.9844,34.5469 548.9844,35.5781 L548.9844,36.6719 Q548.9844,37.9063 549.875,38.7344 Q550.7656,39.5469 552.3594,39.5469 Q553.2969,39.5469 553.9531,39.2969 Q554.3438,39.1406 554.7656,38.7031 Q555.0313,38.4375 555.1719,38.3594 Q555.3281,38.2813 555.5313,38.2813 Q555.8594,38.2813 556.1094,38.5469 Q556.375,38.7969 556.375,39.1406 Q556.375,39.4844 556.0313,39.8906 Q555.5313,40.4688 554.7344,40.7969 Q553.6563,41.25 552.3594,41.25 Q550.8438,41.25 549.6406,40.625 Q548.6563,40.125 547.9688,39.0625 Q547.2813,37.9844 547.2813,36.7031 L547.2813,35.5469 Q547.2813,34.2188 547.8906,33.0781 Q548.5156,31.9219 549.6094,31.3125 Q550.7031,30.6875 551.9375,30.6875 Q552.6719,30.6875 553.3125,30.8594 Q553.9688,31.0156 554.5156,31.375 Z "/><text fill="#000000" font-family="sans-serif" font-size="12" lengthAdjust="spacingAndGlyphs" textLength="27" x="572.25" y="40.4102">Task</text><line style="stroke: #A80036; stroke-width: 1.5;" x1="486" x2="653" y1="51.5" y2="51.5"/><text fill="#000000" font-family="sans-serif" font-size="11" lengthAdjust="spacingAndGlyphs" textLength="43" x="491" y="66.9189">-String id</text><text fill="#000000" font-family="sans-serif" font-size="11" lengthAdjust="spacingAndGlyphs" textLength="88" x="491" y="80.7549">-String description</text><text fill="#000000" font-family="sans-serif" font-size="11" lengthAdjust="spacingAndGlyphs" textLength="116" x="491" y="94.5908">-Integer durationInHours</text><text fill="#000000" font-family="sans-serif" font-size="11" lengthAdjust="spacingAndGlyphs" textLength="157" x="491" y="108.4268">-Double costPerHourOfJuniorEur</text><text fill="#000000" font-family="sans-serif" font-size="11" lengthAdjust="spacingAndGlyphs" textLength="78" x="491" y="122.2627">-String category</text><!--MD5=[335f4d9be48430461c68bf6d6fdba145]
class App--><rect fill="#FEFECE" filter="url(#fmzory1w3vp5d)" height="40" id="App" style="stroke: #A80036; stroke-width: 1.5;" width="53" x="6" y="212"/><ellipse cx="21" cy="228" fill="#ADD1B2" rx="11" ry="11" style="stroke: #A80036; stroke-width: 1.0;"/><path d="M23.7656,223.875 Q23.9219,223.6563 24.1094,223.5469 Q24.2969,223.4375 24.5156,223.4375 Q24.8906,223.4375 25.125,223.7031 Q25.3594,223.9531 25.3594,224.5625 L25.3594,226.0156 Q25.3594,226.625 25.125,226.8906 Q24.8906,227.1563 24.5156,227.1563 Q24.1719,227.1563 23.9688,226.9531 Q23.7656,226.7656 23.6563,226.25 Q23.6094,225.8906 23.4219,225.7031 Q23.0938,225.3281 22.4844,225.1094 Q21.875,224.8906 21.25,224.8906 Q20.4844,224.8906 19.8438,225.2188 Q19.2188,225.5469 18.7188,226.2969 Q18.2344,227.0469 18.2344,228.0781 L18.2344,229.1719 Q18.2344,230.4063 19.125,231.2344 Q20.0156,232.0469 21.6094,232.0469 Q22.5469,232.0469 23.2031,231.7969 Q23.5938,231.6406 24.0156,231.2031 Q24.2813,230.9375 24.4219,230.8594 Q24.5781,230.7813 24.7813,230.7813 Q25.1094,230.7813 25.3594,231.0469 Q25.625,231.2969 25.625,231.6406 Q25.625,231.9844 25.2813,232.3906 Q24.7813,232.9688 23.9844,233.2969 Q22.9063,233.75 21.6094,233.75 Q20.0938,233.75 18.8906,233.125 Q17.9063,232.625 17.2188,231.5625 Q16.5313,230.4844 16.5313,229.2031 L16.5313,228.0469 Q16.5313,226.7188 17.1406,225.5781 Q17.7656,224.4219 18.8594,223.8125 Q19.9531,223.1875 21.1875,223.1875 Q21.9219,223.1875 22.5625,223.3594 Q23.2188,223.5156 23.7656,223.875 Z "/><text fill="#000000" font-family="sans-serif" font-size="12" lengthAdjust="spacingAndGlyphs" textLength="21" x="35" y="232.9102">App</text><line style="stroke: #A80036; stroke-width: 1.5;" x1="7" x2="58" y1="244" y2="244"/><!--MD5=[1f687b5315377fe49fca59b457947463]
class Freelancer--><rect fill="#FEFECE" filter="url(#fmzory1w3vp5d)" height="150.6875" id="Freelancer" style="stroke: #A80036; stroke-width: 1.5;" width="135" x="502" y="188.5"/><ellipse cx="536.8" cy="204.5" fill="#ADD1B2" rx="11" ry="11" style="stroke: #A80036; stroke-width: 1.0;"/><path d="M539.5656,200.375 Q539.7219,200.1563 539.9094,200.0469 Q540.0969,199.9375 540.3156,199.9375 Q540.6906,199.9375 540.925,200.2031 Q541.1594,200.4531 541.1594,201.0625 L541.1594,202.5156 Q541.1594,203.125 540.925,203.3906 Q540.6906,203.6563 540.3156,203.6563 Q539.9719,203.6563 539.7688,203.4531 Q539.5656,203.2656 539.4563,202.75 Q539.4094,202.3906 539.2219,202.2031 Q538.8938,201.8281 538.2844,201.6094 Q537.675,201.3906 537.05,201.3906 Q536.2844,201.3906 535.6438,201.7188 Q535.0188,202.0469 534.5188,202.7969 Q534.0344,203.5469 534.0344,204.5781 L534.0344,205.6719 Q534.0344,206.9063 534.925,207.7344 Q535.8156,208.5469 537.4094,208.5469 Q538.3469,208.5469 539.0031,208.2969 Q539.3938,208.1406 539.8156,207.7031 Q540.0813,207.4375 540.2219,207.3594 Q540.3781,207.2813 540.5813,207.2813 Q540.9094,207.2813 541.1594,207.5469 Q541.425,207.7969 541.425,208.1406 Q541.425,208.4844 541.0813,208.8906 Q540.5813,209.4688 539.7844,209.7969 Q538.7063,210.25 537.4094,210.25 Q535.8938,210.25 534.6906,209.625 Q533.7063,209.125 533.0188,208.0625 Q532.3313,206.9844 532.3313,205.7031 L532.3313,204.5469 Q532.3313,203.2188 532.9406,202.0781 Q533.5656,200.9219 534.6594,200.3125 Q535.7531,199.6875 536.9875,199.6875 Q537.7219,199.6875 538.3625,199.8594 Q539.0188,200.0156 539.5656,200.375 Z "/><text fill="#000000" font-family="sans-serif" font-size="12" lengthAdjust="spacingAndGlyphs" textLength="59" x="555.2" y="209.4102">Freelancer</text><line style="stroke: #A80036; stroke-width: 1.5;" x1="503" x2="636" y1="220.5" y2="220.5"/><text fill="#000000" font-family="sans-serif" font-size="11" lengthAdjust="spacingAndGlyphs" textLength="43" x="508" y="235.9189">-String id</text><text fill="#000000" font-family="sans-serif" font-size="11" lengthAdjust="spacingAndGlyphs" textLength="61" x="508" y="249.7549">-String name</text><text fill="#000000" font-family="sans-serif" font-size="11" lengthAdjust="spacingAndGlyphs" textLength="114" x="508" y="263.5908">-String levelOfExpertise</text><text fill="#000000" font-family="sans-serif" font-size="11" lengthAdjust="spacingAndGlyphs" textLength="59" x="508" y="277.4268">-String email</text><text fill="#000000" font-family="sans-serif" font-size="11" lengthAdjust="spacingAndGlyphs" textLength="50" x="508" y="291.2627">-String NIF</text><text fill="#000000" font-family="sans-serif" font-size="11" lengthAdjust="spacingAndGlyphs" textLength="123" x="508" y="305.0986">-String bankAccountIBAN</text><text fill="#000000" font-family="sans-serif" font-size="11" lengthAdjust="spacingAndGlyphs" textLength="75" x="508" y="318.9346">-String address</text><text fill="#000000" font-family="sans-serif" font-size="11" lengthAdjust="spacingAndGlyphs" textLength="72" x="508" y="332.7705">-String country</text><!--MD5=[8806e557260fb3598decb516dc04693d]
class EmailAPI--><rect fill="#FEFECE" filter="url(#fmzory1w3vp5d)" height="40" id="EmailAPI" style="stroke: #A80036; stroke-width: 1.5;" width="82" x="228.5" y="302"/><ellipse cx="243.5" cy="318" fill="#ADD1B2" rx="11" ry="11" style="stroke: #A80036; stroke-width: 1.0;"/><path d="M246.2656,313.875 Q246.4219,313.6563 246.6094,313.5469 Q246.7969,313.4375 247.0156,313.4375 Q247.3906,313.4375 247.625,313.7031 Q247.8594,313.9531 247.8594,314.5625 L247.8594,316.0156 Q247.8594,316.625 247.625,316.8906 Q247.3906,317.1563 247.0156,317.1563 Q246.6719,317.1563 246.4688,316.9531 Q246.2656,316.7656 246.1563,316.25 Q246.1094,315.8906 245.9219,315.7031 Q245.5938,315.3281 244.9844,315.1094 Q244.375,314.8906 243.75,314.8906 Q242.9844,314.8906 242.3438,315.2188 Q241.7188,315.5469 241.2188,316.2969 Q240.7344,317.0469 240.7344,318.0781 L240.7344,319.1719 Q240.7344,320.4063 241.625,321.2344 Q242.5156,322.0469 244.1094,322.0469 Q245.0469,322.0469 245.7031,321.7969 Q246.0938,321.6406 246.5156,321.2031 Q246.7813,320.9375 246.9219,320.8594 Q247.0781,320.7813 247.2813,320.7813 Q247.6094,320.7813 247.8594,321.0469 Q248.125,321.2969 248.125,321.6406 Q248.125,321.9844 247.7813,322.3906 Q247.2813,322.9688 246.4844,323.2969 Q245.4063,323.75 244.1094,323.75 Q242.5938,323.75 241.3906,323.125 Q240.4063,322.625 239.7188,321.5625 Q239.0313,320.4844 239.0313,319.2031 L239.0313,318.0469 Q239.0313,316.7188 239.6406,315.5781 Q240.2656,314.4219 241.3594,313.8125 Q242.4531,313.1875 243.6875,313.1875 Q244.4219,313.1875 245.0625,313.3594 Q245.7188,313.5156 246.2656,313.875 Z "/><text fill="#000000" font-family="sans-serif" font-size="12" lengthAdjust="spacingAndGlyphs" textLength="50" x="257.5" y="322.9102">EmailAPI</text><line style="stroke: #A80036; stroke-width: 1.5;" x1="229.5" x2="309.5" y1="334" y2="334"/><!--MD5=[1370966fb1e3885ea6828d35f10d9d48]
link App to Organization--><path d="M59.1383,219.035 C68.4185,214.598 79.0612,209.8 89,206 C132.012,189.556 182.315,174.793 218.709,164.876 " fill="none" id="App-Organization" style="stroke: #A80036; stroke-width: 1.0;"/><text fill="#000000" font-family="sans-serif" font-size="13" lengthAdjust="spacingAndGlyphs" textLength="21" x="104.5" y="181.4951">has</text><polygon fill="#000000" points="128.5,174.6758,134.5,177.6758,128.5,180.6758,128.5,174.6758" style="stroke: #000000; stroke-width: 1.0;"/><text fill="#000000" font-family="sans-serif" font-size="13" lengthAdjust="spacingAndGlyphs" textLength="7" x="66.8612" y="211.2029">1</text><text fill="#000000" font-family="sans-serif" font-size="13" lengthAdjust="spacingAndGlyphs" textLength="5" x="205.8819" y="181.4751">*</text><!--MD5=[1cb21011969cc62c73f846209be643c8]
link App to EmailAPI--><path d="M54.4546,252.0683 C64.2813,260.5274 76.5534,269.8241 89,276 C133.956,298.3067 190.777,310.5087 228.308,316.6377 " fill="none" id="App-EmailAPI" style="stroke: #A80036; stroke-width: 1.0;"/><text fill="#000000" font-family="sans-serif" font-size="13" lengthAdjust="spacingAndGlyphs" textLength="50" x="90" y="272.4951">supports</text><polygon fill="#000000" points="143,265.6758,149,268.6758,143,271.6758,143,265.6758" style="stroke: #000000; stroke-width: 1.0;"/><text fill="#000000" font-family="sans-serif" font-size="13" lengthAdjust="spacingAndGlyphs" textLength="7" x="52.645" y="273.5071">1</text><text fill="#000000" font-family="sans-serif" font-size="13" lengthAdjust="spacingAndGlyphs" textLength="7" x="213.6266" y="330.6164">1</text><!--MD5=[4078351e3988aa35b1504a42837f2ab1]
link Organization to Task--><path d="M320.043,139.032 C364.894,127.293 431.873,109.761 484.99,95.858 " fill="none" id="Organization-Task" style="stroke: #A80036; stroke-width: 1.0;"/><text fill="#000000" font-family="sans-serif" font-size="13" lengthAdjust="spacingAndGlyphs" textLength="55" x="386" y="100.4951">publishes</text><polygon fill="#000000" points="444,93.6758,450,96.6758,444,99.6758,444,93.6758" style="stroke: #000000; stroke-width: 1.0;"/><text fill="#000000" font-family="sans-serif" font-size="13" lengthAdjust="spacingAndGlyphs" textLength="7" x="327.9806" y="151.8353">1</text><text fill="#000000" font-family="sans-serif" font-size="13" lengthAdjust="spacingAndGlyphs" textLength="5" x="471.9688" y="112.1136">*</text><!--MD5=[cbdd6193c065fcdcc21acc530d8838bb]
link EmailAPI to Freelancer--><path d="M310.69,314.1779 C359.701,304.6388 443.249,288.3778 501.92,276.9585 " fill="none" id="EmailAPI-Freelancer" style="stroke: #A80036; stroke-width: 1.0;"/><text fill="#000000" font-family="sans-serif" font-size="13" lengthAdjust="spacingAndGlyphs" textLength="42" x="392.5" y="283.4951">e-mails</text><polygon fill="#000000" points="437.5,276.6758,443.5,279.6758,437.5,282.6758,437.5,276.6758" style="stroke: #000000; stroke-width: 1.0;"/><text fill="#000000" font-family="sans-serif" font-size="13" lengthAdjust="spacingAndGlyphs" textLength="7" x="318.3711" y="327.7338">1</text><text fill="#000000" font-family="sans-serif" font-size="13" lengthAdjust="spacingAndGlyphs" textLength="5" x="488.817" y="292.9153">*</text><!--MD5=[9155e95983ae2a088b11740d001758c9]
link TaskExecutionDetails to Task--><path d="M355.098,56.097 C395.793,59.511 444.426,63.591 484.979,66.993 " fill="none" id="TaskExecutionDetails-Task" style="stroke: #A80036; stroke-width: 1.0;"/><text fill="#000000" font-family="sans-serif" font-size="13" lengthAdjust="spacingAndGlyphs" textLength="47" x="390" y="56.4951">refers to</text><polygon fill="#000000" points="440,49.6758,446,52.6758,440,55.6758,440,49.6758" style="stroke: #000000; stroke-width: 1.0;"/><text fill="#000000" font-family="sans-serif" font-size="13" lengthAdjust="spacingAndGlyphs" textLength="7" x="363.0333" y="70.9743">1</text><text fill="#000000" font-family="sans-serif" font-size="13" lengthAdjust="spacingAndGlyphs" textLength="7" x="469.8646" y="80.5876">1</text><!--MD5=[d88947b97cc296deaa09f9756953ae3a]
link App to Freelancer--><path d="M59.3042,233.543 C138.934,238.306 382.602,252.8809 501.642,260.001 " fill="none" id="App-Freelancer" style="stroke: #A80036; stroke-width: 1.0;"/><text fill="#000000" font-family="sans-serif" font-size="13" lengthAdjust="spacingAndGlyphs" textLength="21" x="252.5" y="238.4951">has</text><polygon fill="#000000" points="276.5,231.6758,282.5,234.6758,276.5,237.6758,276.5,231.6758" style="stroke: #000000; stroke-width: 1.0;"/><text fill="#000000" font-family="sans-serif" font-size="13" lengthAdjust="spacingAndGlyphs" textLength="7" x="67.0697" y="249.5286">1</text><text fill="#000000" font-family="sans-serif" font-size="13" lengthAdjust="spacingAndGlyphs" textLength="5" x="488.9466" y="273.97">*</text><!--MD5=[89b8bf4942b94b2eb4780c6f6b9ea928]
@startuml MD

skinparam classAttributeIconSize 0
hide methods
left to right direction

class TaskExecutionDetails {
        - Date endDate
        - Integer delayInDays
        - String DescriptionQualityOfWork
}

class Organization {
        - String nome
}

class Task {
        - String id
        - String description
        - Integer durationInHours
        - Double costPerHourOfJuniorEur
        - String category
}

class App {

}

class Freelancer {
        - String id
        - String name
        - String levelOfExpertise
        - String email
        - String NIF
        - String bankAccountIBAN
        - String address
        - String country
}

App                          "1" - - "*"      Organization              : has >
App                          "1" - - "1"      EmailAPI                  : supports >
Organization                 "1" - - "*"      Task                      : publishes >
EmailAPI                     "1" - - "*"      Freelancer                : e-mails >
TaskExecutionDetails         "1" - - "1"      Task                      : refers to >
App                          "1" - - "*"      Freelancer                : has >

@enduml

PlantUML version 1.2020.10(Sun May 17 10:35:57 WEST 2020)
(GPL source distribution)
Java Runtime: OpenJDK Runtime Environment
JVM: OpenJDK 64-Bit Server VM
Java Version: 14+36
Operating System: Windows 10
Default Encoding: Cp1252
Language: en
Country: US
--></g></svg>