<?xml version="1.0" encoding="UTF-8" standalone="no"?><svg xmlns="http://www.w3.org/2000/svg" xmlns:xlink="http://www.w3.org/1999/xlink" contentScriptType="application/ecmascript" contentStyleType="text/css" height="324px" preserveAspectRatio="none" style="width:165px;height:324px;" version="1.1" viewBox="0 0 165 324" width="165px" zoomAndPan="magnify"><defs><filter height="300%" id="fkgw1gghkoxeg" width="300%" x="-1" y="-1"><feGaussianBlur result="blurOut" stdDeviation="2.0"/><feColorMatrix in="blurOut" result="blurOut2" type="matrix" values="0 0 0 0 0 0 0 0 0 0 0 0 0 0 0 0 0 0 .4 0"/><feOffset dx="4.0" dy="4.0" in="blurOut2" result="blurOut3"/><feBlend in="SourceGraphic" in2="blurOut3" mode="normal"/></filter></defs><g><!--MD5=[96729813db72cdbf6c2660c3fcc2bee9]
class DeserializeUI--><rect fill="#FEFECE" filter="url(#fkgw1gghkoxeg)" height="48" id="DeserializeUI" style="stroke: #A80036; stroke-width: 1.5;" width="106" x="27" y="8"/><ellipse cx="42" cy="24" fill="#ADD1B2" rx="11" ry="11" style="stroke: #A80036; stroke-width: 1.0;"/><path d="M44.7656,19.875 Q44.9219,19.6563 45.1094,19.5469 Q45.2969,19.4375 45.5156,19.4375 Q45.8906,19.4375 46.125,19.7031 Q46.3594,19.9531 46.3594,20.5625 L46.3594,22.0156 Q46.3594,22.625 46.125,22.8906 Q45.8906,23.1563 45.5156,23.1563 Q45.1719,23.1563 44.9688,22.9531 Q44.7656,22.7656 44.6563,22.25 Q44.6094,21.8906 44.4219,21.7031 Q44.0938,21.3281 43.4844,21.1094 Q42.875,20.8906 42.25,20.8906 Q41.4844,20.8906 40.8438,21.2188 Q40.2188,21.5469 39.7188,22.2969 Q39.2344,23.0469 39.2344,24.0781 L39.2344,25.1719 Q39.2344,26.4063 40.125,27.2344 Q41.0156,28.0469 42.6094,28.0469 Q43.5469,28.0469 44.2031,27.7969 Q44.5938,27.6406 45.0156,27.2031 Q45.2813,26.9375 45.4219,26.8594 Q45.5781,26.7813 45.7813,26.7813 Q46.1094,26.7813 46.3594,27.0469 Q46.625,27.2969 46.625,27.6406 Q46.625,27.9844 46.2813,28.3906 Q45.7813,28.9688 44.9844,29.2969 Q43.9063,29.75 42.6094,29.75 Q41.0938,29.75 39.8906,29.125 Q38.9063,28.625 38.2188,27.5625 Q37.5313,26.4844 37.5313,25.2031 L37.5313,24.0469 Q37.5313,22.7188 38.1406,21.5781 Q38.7656,20.4219 39.8594,19.8125 Q40.9531,19.1875 42.1875,19.1875 Q42.9219,19.1875 43.5625,19.3594 Q44.2188,19.5156 44.7656,19.875 Z "/><text fill="#000000" font-family="sans-serif" font-size="12" lengthAdjust="spacingAndGlyphs" textLength="74" x="56" y="28.9102">DeserializeUI</text><line style="stroke: #A80036; stroke-width: 1.5;" x1="28" x2="132" y1="40" y2="40"/><line style="stroke: #A80036; stroke-width: 1.5;" x1="28" x2="132" y1="48" y2="48"/><!--MD5=[1035391448a8d79741a91d268485bd38]
class DeserializeController--><rect fill="#FEFECE" filter="url(#fkgw1gghkoxeg)" height="75.6719" id="DeserializeController" style="stroke: #A80036; stroke-width: 1.5;" width="148" x="6" y="116"/><ellipse cx="21" cy="132" fill="#ADD1B2" rx="11" ry="11" style="stroke: #A80036; stroke-width: 1.0;"/><path d="M23.7656,127.875 Q23.9219,127.6563 24.1094,127.5469 Q24.2969,127.4375 24.5156,127.4375 Q24.8906,127.4375 25.125,127.7031 Q25.3594,127.9531 25.3594,128.5625 L25.3594,130.0156 Q25.3594,130.625 25.125,130.8906 Q24.8906,131.1563 24.5156,131.1563 Q24.1719,131.1563 23.9688,130.9531 Q23.7656,130.7656 23.6563,130.25 Q23.6094,129.8906 23.4219,129.7031 Q23.0938,129.3281 22.4844,129.1094 Q21.875,128.8906 21.25,128.8906 Q20.4844,128.8906 19.8438,129.2188 Q19.2188,129.5469 18.7188,130.2969 Q18.2344,131.0469 18.2344,132.0781 L18.2344,133.1719 Q18.2344,134.4063 19.125,135.2344 Q20.0156,136.0469 21.6094,136.0469 Q22.5469,136.0469 23.2031,135.7969 Q23.5938,135.6406 24.0156,135.2031 Q24.2813,134.9375 24.4219,134.8594 Q24.5781,134.7813 24.7813,134.7813 Q25.1094,134.7813 25.3594,135.0469 Q25.625,135.2969 25.625,135.6406 Q25.625,135.9844 25.2813,136.3906 Q24.7813,136.9688 23.9844,137.2969 Q22.9063,137.75 21.6094,137.75 Q20.0938,137.75 18.8906,137.125 Q17.9063,136.625 17.2188,135.5625 Q16.5313,134.4844 16.5313,133.2031 L16.5313,132.0469 Q16.5313,130.7188 17.1406,129.5781 Q17.7656,128.4219 18.8594,127.8125 Q19.9531,127.1875 21.1875,127.1875 Q21.9219,127.1875 22.5625,127.3594 Q23.2188,127.5156 23.7656,127.875 Z "/><text fill="#000000" font-family="sans-serif" font-size="12" lengthAdjust="spacingAndGlyphs" textLength="116" x="35" y="136.9102">DeserializeController</text><line style="stroke: #A80036; stroke-width: 1.5;" x1="7" x2="153" y1="148" y2="148"/><line style="stroke: #A80036; stroke-width: 1.5;" x1="7" x2="153" y1="156" y2="156"/><text fill="#000000" font-family="sans-serif" font-size="11" lengthAdjust="spacingAndGlyphs" textLength="70" x="12" y="171.4189">+hasDataFile()</text><text fill="#000000" font-family="sans-serif" font-size="11" lengthAdjust="spacingAndGlyphs" textLength="66" x="12" y="185.2549">+deserialize()</text><!--MD5=[335f4d9be48430461c68bf6d6fdba145]
class App--><rect fill="#FEFECE" filter="url(#fkgw1gghkoxeg)" height="61.8359" id="App" style="stroke: #A80036; stroke-width: 1.5;" width="130" x="15" y="252"/><ellipse cx="65.25" cy="268" fill="#ADD1B2" rx="11" ry="11" style="stroke: #A80036; stroke-width: 1.0;"/><path d="M68.0156,263.875 Q68.1719,263.6563 68.3594,263.5469 Q68.5469,263.4375 68.7656,263.4375 Q69.1406,263.4375 69.375,263.7031 Q69.6094,263.9531 69.6094,264.5625 L69.6094,266.0156 Q69.6094,266.625 69.375,266.8906 Q69.1406,267.1563 68.7656,267.1563 Q68.4219,267.1563 68.2188,266.9531 Q68.0156,266.7656 67.9063,266.25 Q67.8594,265.8906 67.6719,265.7031 Q67.3438,265.3281 66.7344,265.1094 Q66.125,264.8906 65.5,264.8906 Q64.7344,264.8906 64.0938,265.2188 Q63.4688,265.5469 62.9688,266.2969 Q62.4844,267.0469 62.4844,268.0781 L62.4844,269.1719 Q62.4844,270.4063 63.375,271.2344 Q64.2656,272.0469 65.8594,272.0469 Q66.7969,272.0469 67.4531,271.7969 Q67.8438,271.6406 68.2656,271.2031 Q68.5313,270.9375 68.6719,270.8594 Q68.8281,270.7813 69.0313,270.7813 Q69.3594,270.7813 69.6094,271.0469 Q69.875,271.2969 69.875,271.6406 Q69.875,271.9844 69.5313,272.3906 Q69.0313,272.9688 68.2344,273.2969 Q67.1563,273.75 65.8594,273.75 Q64.3438,273.75 63.1406,273.125 Q62.1563,272.625 61.4688,271.5625 Q60.7813,270.4844 60.7813,269.2031 L60.7813,268.0469 Q60.7813,266.7188 61.3906,265.5781 Q62.0156,264.4219 63.1094,263.8125 Q64.2031,263.1875 65.4375,263.1875 Q66.1719,263.1875 66.8125,263.3594 Q67.4688,263.5156 68.0156,263.875 Z "/><text fill="#000000" font-family="sans-serif" font-size="12" lengthAdjust="spacingAndGlyphs" textLength="21" x="85.75" y="272.9102">App</text><line style="stroke: #A80036; stroke-width: 1.5;" x1="16" x2="144" y1="284" y2="284"/><line style="stroke: #A80036; stroke-width: 1.5;" x1="16" x2="144" y1="292" y2="292"/><text fill="#000000" font-family="sans-serif" font-size="11" lengthAdjust="spacingAndGlyphs" textLength="118" x="21" y="307.4189">+deserialize(String path)</text><!--MD5=[c3ec3a28a3fea77724771b9a1ca17d1d]
link DeserializeUI to DeserializeController--><path d="M80,56.137 C80,71.576 80,92.332 80,110.669 " fill="none" id="DeserializeUI-&gt;DeserializeController" style="stroke: #A80036; stroke-width: 1.0; stroke-dasharray: 7.0,7.0;"/><polygon fill="#A80036" points="80,115.771,84,106.771,80,110.771,76,106.771,80,115.771" style="stroke: #A80036; stroke-width: 1.0;"/><!--MD5=[2c80a55d0c6f3d184d2b4704ecac0a02]
link DeserializeController to App--><path d="M80,192.075 C80,209.326 80,229.7443 80,246.7609 " fill="none" id="DeserializeController-&gt;App" style="stroke: #A80036; stroke-width: 1.0; stroke-dasharray: 7.0,7.0;"/><polygon fill="#A80036" points="80,251.9254,84,242.9254,80,246.9254,76,242.9254,80,251.9254" style="stroke: #A80036; stroke-width: 1.0;"/><!--MD5=[2aab1d617fa8780a452a9ac09a48099c]
@startuml CD
skinparam classAttributeIconSize 0
top to bottom direction

class DeserializeUI {

}

class DeserializeController {
        + hasDataFile()
        + deserialize()
}

DeserializeUI ..> DeserializeController

class App {
        + deserialize(String path)
}

DeserializeController ..> App

@enduml

PlantUML version 1.2020.10(Sun May 17 10:35:57 WEST 2020)
(GPL source distribution)
Java Runtime: OpenJDK Runtime Environment
JVM: OpenJDK 64-Bit Server VM
Java Version: 14+36
Operating System: Windows 10
Default Encoding: Cp1252
Language: en
Country: US
--></g></svg>