<?xml version="1.0" encoding="UTF-8" standalone="no"?><svg xmlns="http://www.w3.org/2000/svg" xmlns:xlink="http://www.w3.org/1999/xlink" contentScriptType="application/ecmascript" contentStyleType="text/css" height="560px" preserveAspectRatio="none" style="width:1006px;height:560px;" version="1.1" viewBox="0 0 1006 560" width="1006px" zoomAndPan="magnify"><defs><filter height="300%" id="fsobdl3rvfs6w" width="300%" x="-1" y="-1"><feGaussianBlur result="blurOut" stdDeviation="2.0"/><feColorMatrix in="blurOut" result="blurOut2" type="matrix" values="0 0 0 0 0 0 0 0 0 0 0 0 0 0 0 0 0 0 .4 0"/><feOffset dx="4.0" dy="4.0" in="blurOut2" result="blurOut3"/><feBlend in="SourceGraphic" in2="blurOut3" mode="normal"/></filter></defs><g><rect fill="#FFFFFF" filter="url(#fsobdl3rvfs6w)" height="363.8672" style="stroke: #A80036; stroke-width: 1.0;" width="10" x="35.5" y="97.6094"/><rect fill="#FFFFFF" filter="url(#fsobdl3rvfs6w)" height="86.0547" style="stroke: #A80036; stroke-width: 1.0;" width="10" x="625.5" y="119.9609"/><rect fill="#FFFFFF" filter="url(#fsobdl3rvfs6w)" height="225.1094" style="stroke: #A80036; stroke-width: 1.0;" width="10" x="625.5" y="236.3672"/><rect fill="#FFFFFF" filter="url(#fsobdl3rvfs6w)" height="60.3516" style="stroke: #A80036; stroke-width: 1.0;" width="10" x="765.5" y="266.7188"/><rect fill="#FFFFFF" filter="url(#fsobdl3rvfs6w)" height="30" style="stroke: #A80036; stroke-width: 1.0;" width="10" x="900.5" y="297.0703"/><rect fill="#FFFFFF" filter="url(#fsobdl3rvfs6w)" height="289.1641" style="stroke: #000000; stroke-width: 2.0;" width="981" x="13" y="165.3125"/><rect fill="#FFFFFF" height="32.3516" style="stroke: none; stroke-width: 1.0;" width="981" x="13" y="422.125"/><line style="stroke: #A80036; stroke-width: 1.0; stroke-dasharray: 5.0,5.0;" x1="40" x2="40" y1="87.6094" y2="471.4766"/><line style="stroke: #A80036; stroke-width: 1.0; stroke-dasharray: 5.0,5.0;" x1="630" x2="630" y1="87.6094" y2="471.4766"/><line style="stroke: #A80036; stroke-width: 1.0; stroke-dasharray: 5.0,5.0;" x1="770" x2="770" y1="87.6094" y2="471.4766"/><line style="stroke: #A80036; stroke-width: 1.0; stroke-dasharray: 5.0,5.0;" x1="905" x2="905" y1="87.6094" y2="471.4766"/><text fill="#000000" font-family="sans-serif" font-size="14" lengthAdjust="spacingAndGlyphs" textLength="29" x="23" y="84.5332">User</text><ellipse cx="40.5" cy="13" fill="#FEFECE" filter="url(#fsobdl3rvfs6w)" rx="8" ry="8" style="stroke: #A80036; stroke-width: 2.0;"/><path d="M40.5,21 L40.5,48 M27.5,29 L53.5,29 M40.5,48 L27.5,63 M40.5,48 L53.5,63 " fill="none" filter="url(#fsobdl3rvfs6w)" style="stroke: #A80036; stroke-width: 2.0;"/><text fill="#000000" font-family="sans-serif" font-size="14" lengthAdjust="spacingAndGlyphs" textLength="29" x="23" y="485.0098">User</text><ellipse cx="40.5" cy="498.0859" fill="#FEFECE" filter="url(#fsobdl3rvfs6w)" rx="8" ry="8" style="stroke: #A80036; stroke-width: 2.0;"/><path d="M40.5,506.0859 L40.5,533.0859 M27.5,514.0859 L53.5,514.0859 M40.5,533.0859 L27.5,548.0859 M40.5,533.0859 L53.5,548.0859 " fill="none" filter="url(#fsobdl3rvfs6w)" style="stroke: #A80036; stroke-width: 2.0;"/><rect fill="#FEFECE" filter="url(#fsobdl3rvfs6w)" height="31.6094" style="stroke: #A80036; stroke-width: 1.5;" width="99" x="579" y="51"/><text fill="#000000" font-family="sans-serif" font-size="14" lengthAdjust="spacingAndGlyphs" textLength="85" x="586" y="72.5332">:DeserializeUI</text><rect fill="#FEFECE" filter="url(#fsobdl3rvfs6w)" height="31.6094" style="stroke: #A80036; stroke-width: 1.5;" width="99" x="579" y="470.4766"/><text fill="#000000" font-family="sans-serif" font-size="14" lengthAdjust="spacingAndGlyphs" textLength="85" x="586" y="492.0098">:DeserializeUI</text><rect fill="#FEFECE" filter="url(#fsobdl3rvfs6w)" height="31.6094" style="stroke: #A80036; stroke-width: 1.5;" width="149" x="694" y="51"/><text fill="#000000" font-family="sans-serif" font-size="14" lengthAdjust="spacingAndGlyphs" textLength="135" x="701" y="72.5332">:DeserializeController</text><rect fill="#FEFECE" filter="url(#fsobdl3rvfs6w)" height="31.6094" style="stroke: #A80036; stroke-width: 1.5;" width="149" x="694" y="470.4766"/><text fill="#000000" font-family="sans-serif" font-size="14" lengthAdjust="spacingAndGlyphs" textLength="135" x="701" y="492.0098">:DeserializeController</text><rect fill="#FEFECE" filter="url(#fsobdl3rvfs6w)" height="31.6094" style="stroke: #A80036; stroke-width: 1.5;" width="43" x="882" y="51"/><text fill="#000000" font-family="sans-serif" font-size="14" lengthAdjust="spacingAndGlyphs" textLength="29" x="889" y="72.5332">:App</text><rect fill="#FEFECE" filter="url(#fsobdl3rvfs6w)" height="31.6094" style="stroke: #A80036; stroke-width: 1.5;" width="43" x="882" y="470.4766"/><text fill="#000000" font-family="sans-serif" font-size="14" lengthAdjust="spacingAndGlyphs" textLength="29" x="889" y="492.0098">:App</text><rect fill="#FFFFFF" filter="url(#fsobdl3rvfs6w)" height="363.8672" style="stroke: #A80036; stroke-width: 1.0;" width="10" x="35.5" y="97.6094"/><rect fill="#FFFFFF" filter="url(#fsobdl3rvfs6w)" height="86.0547" style="stroke: #A80036; stroke-width: 1.0;" width="10" x="625.5" y="119.9609"/><rect fill="#FFFFFF" filter="url(#fsobdl3rvfs6w)" height="225.1094" style="stroke: #A80036; stroke-width: 1.0;" width="10" x="625.5" y="236.3672"/><rect fill="#FFFFFF" filter="url(#fsobdl3rvfs6w)" height="60.3516" style="stroke: #A80036; stroke-width: 1.0;" width="10" x="765.5" y="266.7188"/><rect fill="#FFFFFF" filter="url(#fsobdl3rvfs6w)" height="30" style="stroke: #A80036; stroke-width: 1.0;" width="10" x="900.5" y="297.0703"/><polygon fill="#A80036" points="613.5,115.9609,623.5,119.9609,613.5,123.9609,617.5,119.9609" style="stroke: #A80036; stroke-width: 1.0;"/><line style="stroke: #A80036; stroke-width: 1.0;" x1="45.5" x2="619.5" y1="119.9609" y2="119.9609"/><text fill="#000000" font-family="sans-serif" font-size="13" font-weight="bold" lengthAdjust="spacingAndGlyphs" textLength="7" x="52.5" y="115.1045">1</text><text fill="#000000" font-family="sans-serif" font-size="13" lengthAdjust="spacingAndGlyphs" textLength="253" x="63.5" y="115.1045">starts the process of starting up the system</text><polygon fill="#A80036" points="758.5,146.3125,768.5,150.3125,758.5,154.3125,762.5,150.3125" style="stroke: #A80036; stroke-width: 1.0;"/><line style="stroke: #A80036; stroke-width: 1.0;" x1="635.5" x2="764.5" y1="150.3125" y2="150.3125"/><text fill="#000000" font-family="sans-serif" font-size="13" font-weight="bold" lengthAdjust="spacingAndGlyphs" textLength="7" x="642.5" y="145.4561">2</text><text fill="#000000" font-family="sans-serif" font-size="13" lengthAdjust="spacingAndGlyphs" textLength="100" x="653.5" y="145.4561">b = hasDataFile()</text><path d="M13,165.3125 L78,165.3125 L78,173.3125 L68,183.3125 L13,183.3125 L13,165.3125 " fill="#EEEEEE" style="stroke: #000000; stroke-width: 1.0;"/><rect fill="none" height="289.1641" style="stroke: #000000; stroke-width: 2.0;" width="981" x="13" y="165.3125"/><text fill="#000000" font-family="sans-serif" font-size="13" font-weight="bold" lengthAdjust="spacingAndGlyphs" textLength="20" x="28" y="179.8076">opt</text><text fill="#000000" font-family="sans-serif" font-size="11" font-weight="bold" lengthAdjust="spacingAndGlyphs" textLength="56" x="93" y="178.7314">[b == true]</text><polygon fill="#A80036" points="56.5,202.0156,46.5,206.0156,56.5,210.0156,52.5,206.0156" style="stroke: #A80036; stroke-width: 1.0;"/><line style="stroke: #A80036; stroke-width: 1.0; stroke-dasharray: 2.0,2.0;" x1="50.5" x2="629.5" y1="206.0156" y2="206.0156"/><text fill="#000000" font-family="sans-serif" font-size="13" font-weight="bold" lengthAdjust="spacingAndGlyphs" textLength="7" x="62.5" y="201.1592">3</text><text fill="#000000" font-family="sans-serif" font-size="13" lengthAdjust="spacingAndGlyphs" textLength="545" x="73.5" y="201.1592">questions if the changes that were made to the system in a previous session should be loaded</text><polygon fill="#A80036" points="613.5,232.3672,623.5,236.3672,613.5,240.3672,617.5,236.3672" style="stroke: #A80036; stroke-width: 1.0;"/><line style="stroke: #A80036; stroke-width: 1.0;" x1="45.5" x2="619.5" y1="236.3672" y2="236.3672"/><text fill="#000000" font-family="sans-serif" font-size="13" font-weight="bold" lengthAdjust="spacingAndGlyphs" textLength="7" x="52.5" y="231.5107">4</text><text fill="#000000" font-family="sans-serif" font-size="13" lengthAdjust="spacingAndGlyphs" textLength="49" x="63.5" y="231.5107">confirms</text><polygon fill="#A80036" points="753.5,262.7188,763.5,266.7188,753.5,270.7188,757.5,266.7188" style="stroke: #A80036; stroke-width: 1.0;"/><line style="stroke: #A80036; stroke-width: 1.0;" x1="635.5" x2="759.5" y1="266.7188" y2="266.7188"/><text fill="#000000" font-family="sans-serif" font-size="13" font-weight="bold" lengthAdjust="spacingAndGlyphs" textLength="7" x="642.5" y="261.8623">5</text><text fill="#000000" font-family="sans-serif" font-size="13" lengthAdjust="spacingAndGlyphs" textLength="70" x="653.5" y="261.8623">deserialize()</text><polygon fill="#A80036" points="888.5,293.0703,898.5,297.0703,888.5,301.0703,892.5,297.0703" style="stroke: #A80036; stroke-width: 1.0;"/><line style="stroke: #A80036; stroke-width: 1.0;" x1="775.5" x2="894.5" y1="297.0703" y2="297.0703"/><text fill="#000000" font-family="sans-serif" font-size="13" font-weight="bold" lengthAdjust="spacingAndGlyphs" textLength="7" x="782.5" y="292.2139">6</text><text fill="#000000" font-family="sans-serif" font-size="13" lengthAdjust="spacingAndGlyphs" textLength="95" x="793.5" y="292.2139">deserialize(path)</text><path d="M826,340.0703 L826,382.0703 L980,382.0703 L980,350.0703 L970,340.0703 L826,340.0703 " fill="#FBFB77" filter="url(#fsobdl3rvfs6w)" style="stroke: #A80036; stroke-width: 1.0;"/><path d="M970,340.0703 L970,350.0703 L980,350.0703 L970,340.0703 " fill="#FBFB77" style="stroke: #A80036; stroke-width: 1.0;"/><text fill="#000000" font-family="sans-serif" font-size="13" lengthAdjust="spacingAndGlyphs" textLength="129" x="832" y="358.5654">The app deerializes all</text><text fill="#000000" font-family="sans-serif" font-size="13" lengthAdjust="spacingAndGlyphs" textLength="120" x="832" y="374.917">the objects in the file</text><polygon fill="#A80036" points="56.5,410.125,46.5,414.125,56.5,418.125,52.5,414.125" style="stroke: #A80036; stroke-width: 1.0;"/><line style="stroke: #A80036; stroke-width: 1.0; stroke-dasharray: 2.0,2.0;" x1="50.5" x2="624.5" y1="414.125" y2="414.125"/><text fill="#000000" font-family="sans-serif" font-size="13" font-weight="bold" lengthAdjust="spacingAndGlyphs" textLength="7" x="62.5" y="409.2686">7</text><text fill="#000000" font-family="sans-serif" font-size="13" lengthAdjust="spacingAndGlyphs" textLength="51" x="73.5" y="409.2686">starts up</text><line style="stroke: #000000; stroke-width: 1.0; stroke-dasharray: 2.0,2.0;" x1="13" x2="994" y1="423.125" y2="423.125"/><polygon fill="#A80036" points="56.5,442.4766,46.5,446.4766,56.5,450.4766,52.5,446.4766" style="stroke: #A80036; stroke-width: 1.0;"/><line style="stroke: #A80036; stroke-width: 1.0; stroke-dasharray: 2.0,2.0;" x1="50.5" x2="624.5" y1="446.4766" y2="446.4766"/><text fill="#000000" font-family="sans-serif" font-size="13" font-weight="bold" lengthAdjust="spacingAndGlyphs" textLength="7" x="62.5" y="441.6201">8</text><text fill="#000000" font-family="sans-serif" font-size="13" lengthAdjust="spacingAndGlyphs" textLength="51" x="73.5" y="441.6201">starts up</text><!--MD5=[ffdfc86fe831ad42467bffb04223faa7]
@startuml SD
autonumber
actor "User" as U
participant ":DeserializeUI" as ui
participant ":DeserializeController" as ctr
participant ":App" as app

activate U
        U -> ui : starts the process of starting up the system
        activate ui
                ui -> ctr : b = hasDataFile()
                opt b == true
                                ui - -> U : questions if the changes that were made to the system in a previous session should be loaded
                        deactivate ui
                        U -> ui : confirms
                        activate ui
                                ui -> ctr : deserialize()
                                activate ctr
                                        ctr -> app : deserialize(path)
                                        activate app
                                                note over app : The app deerializes all \nthe objects in the file
                                        deactivate app
                                deactivate ctr
                                ui - -> U : starts up
                else
                        ui - -> U : starts up
                end
        deactivate ui
deactivate U

@enduml

PlantUML version 1.2020.10(Sun May 17 10:35:57 WEST 2020)
(GPL source distribution)
Java Runtime: OpenJDK Runtime Environment
JVM: OpenJDK 64-Bit Server VM
Java Version: 14+36
Operating System: Windows 10
Default Encoding: Cp1252
Language: en
Country: US
--></g></svg>