<?xml version="1.0" encoding="UTF-8" standalone="no"?><svg xmlns="http://www.w3.org/2000/svg" xmlns:xlink="http://www.w3.org/1999/xlink" contentScriptType="application/ecmascript" contentStyleType="text/css" height="1348px" preserveAspectRatio="none" style="width:759px;height:1348px;" version="1.1" viewBox="0 0 759 1348" width="759px" zoomAndPan="magnify"><defs><filter height="300%" id="f1wnb54vd832rs" width="300%" x="-1" y="-1"><feGaussianBlur result="blurOut" stdDeviation="2.0"/><feColorMatrix in="blurOut" result="blurOut2" type="matrix" values="0 0 0 0 0 0 0 0 0 0 0 0 0 0 0 0 0 0 .4 0"/><feOffset dx="4.0" dy="4.0" in="blurOut2" result="blurOut3"/><feBlend in="SourceGraphic" in2="blurOut3" mode="normal"/></filter></defs><g><!--MD5=[dc84a4e894a42f8e8d7fc762e5a59f92]
class PaymentScheduler--><rect fill="#FEFECE" filter="url(#f1wnb54vd832rs)" height="117.1797" id="PaymentScheduler" style="stroke: #A80036; stroke-width: 1.5;" width="307" x="60.5" y="8"/><ellipse cx="157.75" cy="24" fill="#ADD1B2" rx="11" ry="11" style="stroke: #A80036; stroke-width: 1.0;"/><path d="M160.5156,19.875 Q160.6719,19.6563 160.8594,19.5469 Q161.0469,19.4375 161.2656,19.4375 Q161.6406,19.4375 161.875,19.7031 Q162.1094,19.9531 162.1094,20.5625 L162.1094,22.0156 Q162.1094,22.625 161.875,22.8906 Q161.6406,23.1563 161.2656,23.1563 Q160.9219,23.1563 160.7188,22.9531 Q160.5156,22.7656 160.4063,22.25 Q160.3594,21.8906 160.1719,21.7031 Q159.8438,21.3281 159.2344,21.1094 Q158.625,20.8906 158,20.8906 Q157.2344,20.8906 156.5938,21.2188 Q155.9688,21.5469 155.4688,22.2969 Q154.9844,23.0469 154.9844,24.0781 L154.9844,25.1719 Q154.9844,26.4063 155.875,27.2344 Q156.7656,28.0469 158.3594,28.0469 Q159.2969,28.0469 159.9531,27.7969 Q160.3438,27.6406 160.7656,27.2031 Q161.0313,26.9375 161.1719,26.8594 Q161.3281,26.7813 161.5313,26.7813 Q161.8594,26.7813 162.1094,27.0469 Q162.375,27.2969 162.375,27.6406 Q162.375,27.9844 162.0313,28.3906 Q161.5313,28.9688 160.7344,29.2969 Q159.6563,29.75 158.3594,29.75 Q156.8438,29.75 155.6406,29.125 Q154.6563,28.625 153.9688,27.5625 Q153.2813,26.4844 153.2813,25.2031 L153.2813,24.0469 Q153.2813,22.7188 153.8906,21.5781 Q154.5156,20.4219 155.6094,19.8125 Q156.7031,19.1875 157.9375,19.1875 Q158.6719,19.1875 159.3125,19.3594 Q159.9688,19.5156 160.5156,19.875 Z "/><text fill="#000000" font-family="sans-serif" font-size="12" lengthAdjust="spacingAndGlyphs" textLength="104" x="178.25" y="28.9102">PaymentScheduler</text><line style="stroke: #A80036; stroke-width: 1.5;" x1="61.5" x2="366.5" y1="40" y2="40"/><text fill="#000000" font-family="sans-serif" font-size="11" lengthAdjust="spacingAndGlyphs" textLength="87" x="66.5" y="55.4189">-Integer dayMonth</text><text fill="#000000" font-family="sans-serif" font-size="11" lengthAdjust="spacingAndGlyphs" textLength="105" x="66.5" y="69.2549">-LocalTime timeOfDay</text><line style="stroke: #A80036; stroke-width: 1.5;" x1="61.5" x2="366.5" y1="75.6719" y2="75.6719"/><text fill="#000000" font-family="sans-serif" font-size="11" lengthAdjust="spacingAndGlyphs" textLength="295" x="66.5" y="91.0908">+create (Integer day, LoaclTime timeOfDay, Organization org)</text><text fill="#000000" font-family="sans-serif" font-size="11" lengthAdjust="spacingAndGlyphs" textLength="109" x="66.5" y="104.9268">+scheduleNestMonth()</text><text fill="#000000" font-family="sans-serif" font-size="11" lengthAdjust="spacingAndGlyphs" textLength="71" x="66.5" y="118.7627">-getNextDate()</text><!--MD5=[eb1ab569dc5baf9282d4d315063bd4a9]
class MakePaymentTask--><rect fill="#FEFECE" filter="url(#f1wnb54vd832rs)" height="89.5078" id="MakePaymentTask" style="stroke: #A80036; stroke-width: 1.5;" width="284" x="72" y="186"/><ellipse cx="157.75" cy="202" fill="#ADD1B2" rx="11" ry="11" style="stroke: #A80036; stroke-width: 1.0;"/><path d="M160.5156,197.875 Q160.6719,197.6563 160.8594,197.5469 Q161.0469,197.4375 161.2656,197.4375 Q161.6406,197.4375 161.875,197.7031 Q162.1094,197.9531 162.1094,198.5625 L162.1094,200.0156 Q162.1094,200.625 161.875,200.8906 Q161.6406,201.1563 161.2656,201.1563 Q160.9219,201.1563 160.7188,200.9531 Q160.5156,200.7656 160.4063,200.25 Q160.3594,199.8906 160.1719,199.7031 Q159.8438,199.3281 159.2344,199.1094 Q158.625,198.8906 158,198.8906 Q157.2344,198.8906 156.5938,199.2188 Q155.9688,199.5469 155.4688,200.2969 Q154.9844,201.0469 154.9844,202.0781 L154.9844,203.1719 Q154.9844,204.4063 155.875,205.2344 Q156.7656,206.0469 158.3594,206.0469 Q159.2969,206.0469 159.9531,205.7969 Q160.3438,205.6406 160.7656,205.2031 Q161.0313,204.9375 161.1719,204.8594 Q161.3281,204.7813 161.5313,204.7813 Q161.8594,204.7813 162.1094,205.0469 Q162.375,205.2969 162.375,205.6406 Q162.375,205.9844 162.0313,206.3906 Q161.5313,206.9688 160.7344,207.2969 Q159.6563,207.75 158.3594,207.75 Q156.8438,207.75 155.6406,207.125 Q154.6563,206.625 153.9688,205.5625 Q153.2813,204.4844 153.2813,203.2031 L153.2813,202.0469 Q153.2813,200.7188 153.8906,199.5781 Q154.5156,198.4219 155.6094,197.8125 Q156.7031,197.1875 157.9375,197.1875 Q158.6719,197.1875 159.3125,197.3594 Q159.9688,197.5156 160.5156,197.875 Z "/><text fill="#000000" font-family="sans-serif" font-size="12" lengthAdjust="spacingAndGlyphs" textLength="104" x="178.25" y="206.9102">MakePaymentTask</text><line style="stroke: #A80036; stroke-width: 1.5;" x1="73" x2="355" y1="218" y2="218"/><line style="stroke: #A80036; stroke-width: 1.5;" x1="73" x2="355" y1="226" y2="226"/><text fill="#000000" font-family="sans-serif" font-size="11" lengthAdjust="spacingAndGlyphs" textLength="272" x="78" y="241.4189">+create(Organization org, PaymentScheduler scheduler)</text><text fill="#000000" font-family="sans-serif" font-size="11" lengthAdjust="spacingAndGlyphs" textLength="30" x="78" y="255.2549">+run()</text><text fill="#000000" font-family="sans-serif" font-size="11" lengthAdjust="spacingAndGlyphs" textLength="84" x="78" y="269.0908">-makePayments()</text><!--MD5=[4555bb1b0911a5adf28ce6dbe60fed2e]
class Transaction--><rect fill="#FEFECE" filter="url(#f1wnb54vd832rs)" height="48" id="Transaction" style="stroke: #A80036; stroke-width: 1.5;" width="97" x="236.5" y="1053"/><ellipse cx="251.5" cy="1069" fill="#ADD1B2" rx="11" ry="11" style="stroke: #A80036; stroke-width: 1.0;"/><path d="M254.2656,1064.875 Q254.4219,1064.6563 254.6094,1064.5469 Q254.7969,1064.4375 255.0156,1064.4375 Q255.3906,1064.4375 255.625,1064.7031 Q255.8594,1064.9531 255.8594,1065.5625 L255.8594,1067.0156 Q255.8594,1067.625 255.625,1067.8906 Q255.3906,1068.1563 255.0156,1068.1563 Q254.6719,1068.1563 254.4688,1067.9531 Q254.2656,1067.7656 254.1563,1067.25 Q254.1094,1066.8906 253.9219,1066.7031 Q253.5938,1066.3281 252.9844,1066.1094 Q252.375,1065.8906 251.75,1065.8906 Q250.9844,1065.8906 250.3438,1066.2188 Q249.7188,1066.5469 249.2188,1067.2969 Q248.7344,1068.0469 248.7344,1069.0781 L248.7344,1070.1719 Q248.7344,1071.4063 249.625,1072.2344 Q250.5156,1073.0469 252.1094,1073.0469 Q253.0469,1073.0469 253.7031,1072.7969 Q254.0938,1072.6406 254.5156,1072.2031 Q254.7813,1071.9375 254.9219,1071.8594 Q255.0781,1071.7813 255.2813,1071.7813 Q255.6094,1071.7813 255.8594,1072.0469 Q256.125,1072.2969 256.125,1072.6406 Q256.125,1072.9844 255.7813,1073.3906 Q255.2813,1073.9688 254.4844,1074.2969 Q253.4063,1074.75 252.1094,1074.75 Q250.5938,1074.75 249.3906,1074.125 Q248.4063,1073.625 247.7188,1072.5625 Q247.0313,1071.4844 247.0313,1070.2031 L247.0313,1069.0469 Q247.0313,1067.7188 247.6406,1066.5781 Q248.2656,1065.4219 249.3594,1064.8125 Q250.4531,1064.1875 251.6875,1064.1875 Q252.4219,1064.1875 253.0625,1064.3594 Q253.7188,1064.5156 254.2656,1064.875 Z "/><text fill="#000000" font-family="sans-serif" font-size="12" lengthAdjust="spacingAndGlyphs" textLength="65" x="265.5" y="1073.9102">Transaction</text><line style="stroke: #A80036; stroke-width: 1.5;" x1="237.5" x2="332.5" y1="1085" y2="1085"/><line style="stroke: #A80036; stroke-width: 1.5;" x1="237.5" x2="332.5" y1="1093" y2="1093"/><!--MD5=[86c7c362de55a38b660185a1328fe18d]
class Organization--><rect fill="#FEFECE" filter="url(#f1wnb54vd832rs)" height="75.6719" id="Organization" style="stroke: #A80036; stroke-width: 1.5;" width="115" x="98.5" y="759"/><ellipse cx="119.8" cy="775" fill="#ADD1B2" rx="11" ry="11" style="stroke: #A80036; stroke-width: 1.0;"/><path d="M122.5656,770.875 Q122.7219,770.6563 122.9094,770.5469 Q123.0969,770.4375 123.3156,770.4375 Q123.6906,770.4375 123.925,770.7031 Q124.1594,770.9531 124.1594,771.5625 L124.1594,773.0156 Q124.1594,773.625 123.925,773.8906 Q123.6906,774.1563 123.3156,774.1563 Q122.9719,774.1563 122.7688,773.9531 Q122.5656,773.7656 122.4563,773.25 Q122.4094,772.8906 122.2219,772.7031 Q121.8938,772.3281 121.2844,772.1094 Q120.675,771.8906 120.05,771.8906 Q119.2844,771.8906 118.6438,772.2188 Q118.0188,772.5469 117.5188,773.2969 Q117.0344,774.0469 117.0344,775.0781 L117.0344,776.1719 Q117.0344,777.4063 117.925,778.2344 Q118.8156,779.0469 120.4094,779.0469 Q121.3469,779.0469 122.0031,778.7969 Q122.3938,778.6406 122.8156,778.2031 Q123.0813,777.9375 123.2219,777.8594 Q123.3781,777.7813 123.5813,777.7813 Q123.9094,777.7813 124.1594,778.0469 Q124.425,778.2969 124.425,778.6406 Q124.425,778.9844 124.0813,779.3906 Q123.5813,779.9688 122.7844,780.2969 Q121.7063,780.75 120.4094,780.75 Q118.8938,780.75 117.6906,780.125 Q116.7063,779.625 116.0188,778.5625 Q115.3313,777.4844 115.3313,776.2031 L115.3313,775.0469 Q115.3313,773.7188 115.9406,772.5781 Q116.5656,771.4219 117.6594,770.8125 Q118.7531,770.1875 119.9875,770.1875 Q120.7219,770.1875 121.3625,770.3594 Q122.0188,770.5156 122.5656,770.875 Z "/><text fill="#000000" font-family="sans-serif" font-size="12" lengthAdjust="spacingAndGlyphs" textLength="69" x="135.2" y="779.9102">Organization</text><line style="stroke: #A80036; stroke-width: 1.5;" x1="99.5" x2="212.5" y1="791" y2="791"/><text fill="#000000" font-family="sans-serif" font-size="11" lengthAdjust="spacingAndGlyphs" textLength="61" x="104.5" y="806.4189">-String nome</text><line style="stroke: #A80036; stroke-width: 1.5;" x1="99.5" x2="212.5" y1="812.8359" y2="812.8359"/><text fill="#000000" font-family="sans-serif" font-size="11" lengthAdjust="spacingAndGlyphs" textLength="103" x="104.5" y="828.2549">+getListTransaction()</text><!--MD5=[031a1c1e2bc7e464975852eaac477fa5]
class ListTransaction--><rect fill="#FEFECE" filter="url(#f1wnb54vd832rs)" height="61.8359" id="ListTransaction" style="stroke: #A80036; stroke-width: 1.5;" width="152" x="80" y="913"/><ellipse cx="110.75" cy="929" fill="#ADD1B2" rx="11" ry="11" style="stroke: #A80036; stroke-width: 1.0;"/><path d="M113.5156,924.875 Q113.6719,924.6563 113.8594,924.5469 Q114.0469,924.4375 114.2656,924.4375 Q114.6406,924.4375 114.875,924.7031 Q115.1094,924.9531 115.1094,925.5625 L115.1094,927.0156 Q115.1094,927.625 114.875,927.8906 Q114.6406,928.1563 114.2656,928.1563 Q113.9219,928.1563 113.7188,927.9531 Q113.5156,927.7656 113.4063,927.25 Q113.3594,926.8906 113.1719,926.7031 Q112.8438,926.3281 112.2344,926.1094 Q111.625,925.8906 111,925.8906 Q110.2344,925.8906 109.5938,926.2188 Q108.9688,926.5469 108.4688,927.2969 Q107.9844,928.0469 107.9844,929.0781 L107.9844,930.1719 Q107.9844,931.4063 108.875,932.2344 Q109.7656,933.0469 111.3594,933.0469 Q112.2969,933.0469 112.9531,932.7969 Q113.3438,932.6406 113.7656,932.2031 Q114.0313,931.9375 114.1719,931.8594 Q114.3281,931.7813 114.5313,931.7813 Q114.8594,931.7813 115.1094,932.0469 Q115.375,932.2969 115.375,932.6406 Q115.375,932.9844 115.0313,933.3906 Q114.5313,933.9688 113.7344,934.2969 Q112.6563,934.75 111.3594,934.75 Q109.8438,934.75 108.6406,934.125 Q107.6563,933.625 106.9688,932.5625 Q106.2813,931.4844 106.2813,930.2031 L106.2813,929.0469 Q106.2813,927.7188 106.8906,926.5781 Q107.5156,925.4219 108.6094,924.8125 Q109.7031,924.1875 110.9375,924.1875 Q111.6719,924.1875 112.3125,924.3594 Q112.9688,924.5156 113.5156,924.875 Z "/><text fill="#000000" font-family="sans-serif" font-size="12" lengthAdjust="spacingAndGlyphs" textLength="85" x="128.25" y="933.9102">ListTransaction</text><line style="stroke: #A80036; stroke-width: 1.5;" x1="81" x2="231" y1="945" y2="945"/><line style="stroke: #A80036; stroke-width: 1.5;" x1="81" x2="231" y1="953" y2="953"/><text fill="#000000" font-family="sans-serif" font-size="11" lengthAdjust="spacingAndGlyphs" textLength="140" x="86" y="968.4189">removeUnpaidTransactions()</text><!--MD5=[335f4d9be48430461c68bf6d6fdba145]
class App--><rect fill="#FEFECE" filter="url(#f1wnb54vd832rs)" height="61.8359" id="App" style="stroke: #A80036; stroke-width: 1.5;" width="112" x="373" y="337"/><ellipse cx="414.55" cy="353" fill="#ADD1B2" rx="11" ry="11" style="stroke: #A80036; stroke-width: 1.0;"/><path d="M417.3156,348.875 Q417.4719,348.6563 417.6594,348.5469 Q417.8469,348.4375 418.0656,348.4375 Q418.4406,348.4375 418.675,348.7031 Q418.9094,348.9531 418.9094,349.5625 L418.9094,351.0156 Q418.9094,351.625 418.675,351.8906 Q418.4406,352.1563 418.0656,352.1563 Q417.7219,352.1563 417.5188,351.9531 Q417.3156,351.7656 417.2063,351.25 Q417.1594,350.8906 416.9719,350.7031 Q416.6438,350.3281 416.0344,350.1094 Q415.425,349.8906 414.8,349.8906 Q414.0344,349.8906 413.3938,350.2188 Q412.7688,350.5469 412.2688,351.2969 Q411.7844,352.0469 411.7844,353.0781 L411.7844,354.1719 Q411.7844,355.4063 412.675,356.2344 Q413.5656,357.0469 415.1594,357.0469 Q416.0969,357.0469 416.7531,356.7969 Q417.1438,356.6406 417.5656,356.2031 Q417.8313,355.9375 417.9719,355.8594 Q418.1281,355.7813 418.3313,355.7813 Q418.6594,355.7813 418.9094,356.0469 Q419.175,356.2969 419.175,356.6406 Q419.175,356.9844 418.8313,357.3906 Q418.3313,357.9688 417.5344,358.2969 Q416.4563,358.75 415.1594,358.75 Q413.6438,358.75 412.4406,358.125 Q411.4563,357.625 410.7688,356.5625 Q410.0813,355.4844 410.0813,354.2031 L410.0813,353.0469 Q410.0813,351.7188 410.6906,350.5781 Q411.3156,349.4219 412.4094,348.8125 Q413.5031,348.1875 414.7375,348.1875 Q415.4719,348.1875 416.1125,348.3594 Q416.7688,348.5156 417.3156,348.875 Z "/><text fill="#000000" font-family="sans-serif" font-size="12" lengthAdjust="spacingAndGlyphs" textLength="21" x="434.45" y="357.9102">App</text><line style="stroke: #A80036; stroke-width: 1.5;" x1="374" x2="484" y1="369" y2="369"/><line style="stroke: #A80036; stroke-width: 1.5;" x1="374" x2="484" y1="377" y2="377"/><text fill="#000000" font-family="sans-serif" font-size="11" lengthAdjust="spacingAndGlyphs" textLength="100" x="379" y="392.4189">+getRegistPayment()</text><!--MD5=[1f687b5315377fe49fca59b457947463]
class Freelancer--><rect fill="#FEFECE" filter="url(#f1wnb54vd832rs)" height="158.6875" id="Freelancer" style="stroke: #A80036; stroke-width: 1.5;" width="135" x="217.5" y="1179"/><ellipse cx="252.3" cy="1195" fill="#ADD1B2" rx="11" ry="11" style="stroke: #A80036; stroke-width: 1.0;"/><path d="M255.0656,1190.875 Q255.2219,1190.6563 255.4094,1190.5469 Q255.5969,1190.4375 255.8156,1190.4375 Q256.1906,1190.4375 256.425,1190.7031 Q256.6594,1190.9531 256.6594,1191.5625 L256.6594,1193.0156 Q256.6594,1193.625 256.425,1193.8906 Q256.1906,1194.1563 255.8156,1194.1563 Q255.4719,1194.1563 255.2688,1193.9531 Q255.0656,1193.7656 254.9563,1193.25 Q254.9094,1192.8906 254.7219,1192.7031 Q254.3938,1192.3281 253.7844,1192.1094 Q253.175,1191.8906 252.55,1191.8906 Q251.7844,1191.8906 251.1438,1192.2188 Q250.5188,1192.5469 250.0188,1193.2969 Q249.5344,1194.0469 249.5344,1195.0781 L249.5344,1196.1719 Q249.5344,1197.4063 250.425,1198.2344 Q251.3156,1199.0469 252.9094,1199.0469 Q253.8469,1199.0469 254.5031,1198.7969 Q254.8938,1198.6406 255.3156,1198.2031 Q255.5813,1197.9375 255.7219,1197.8594 Q255.8781,1197.7813 256.0813,1197.7813 Q256.4094,1197.7813 256.6594,1198.0469 Q256.925,1198.2969 256.925,1198.6406 Q256.925,1198.9844 256.5813,1199.3906 Q256.0813,1199.9688 255.2844,1200.2969 Q254.2063,1200.75 252.9094,1200.75 Q251.3938,1200.75 250.1906,1200.125 Q249.2063,1199.625 248.5188,1198.5625 Q247.8313,1197.4844 247.8313,1196.2031 L247.8313,1195.0469 Q247.8313,1193.7188 248.4406,1192.5781 Q249.0656,1191.4219 250.1594,1190.8125 Q251.2531,1190.1875 252.4875,1190.1875 Q253.2219,1190.1875 253.8625,1190.3594 Q254.5188,1190.5156 255.0656,1190.875 Z "/><text fill="#000000" font-family="sans-serif" font-size="12" lengthAdjust="spacingAndGlyphs" textLength="59" x="270.7" y="1199.9102">Freelancer</text><line style="stroke: #A80036; stroke-width: 1.5;" x1="218.5" x2="351.5" y1="1211" y2="1211"/><text fill="#000000" font-family="sans-serif" font-size="11" lengthAdjust="spacingAndGlyphs" textLength="43" x="223.5" y="1226.4189">-String id</text><text fill="#000000" font-family="sans-serif" font-size="11" lengthAdjust="spacingAndGlyphs" textLength="61" x="223.5" y="1240.2549">-String name</text><text fill="#000000" font-family="sans-serif" font-size="11" lengthAdjust="spacingAndGlyphs" textLength="114" x="223.5" y="1254.0908">-String levelOfExpertise</text><text fill="#000000" font-family="sans-serif" font-size="11" lengthAdjust="spacingAndGlyphs" textLength="59" x="223.5" y="1267.9268">-String email</text><text fill="#000000" font-family="sans-serif" font-size="11" lengthAdjust="spacingAndGlyphs" textLength="50" x="223.5" y="1281.7627">-String NIF</text><text fill="#000000" font-family="sans-serif" font-size="11" lengthAdjust="spacingAndGlyphs" textLength="123" x="223.5" y="1295.5986">-String bankAccountIBAN</text><text fill="#000000" font-family="sans-serif" font-size="11" lengthAdjust="spacingAndGlyphs" textLength="75" x="223.5" y="1309.4346">-String address</text><text fill="#000000" font-family="sans-serif" font-size="11" lengthAdjust="spacingAndGlyphs" textLength="72" x="223.5" y="1323.2705">-String country</text><line style="stroke: #A80036; stroke-width: 1.5;" x1="218.5" x2="351.5" y1="1329.6875" y2="1329.6875"/><!--MD5=[8f0fe9bf296a24a2a76394614775b289]
class RegistPayment--><rect fill="#FEFECE" filter="url(#f1wnb54vd832rs)" height="48" id="RegistPayment" style="stroke: #A80036; stroke-width: 1.5;" width="116" x="212" y="477"/><ellipse cx="227" cy="493" fill="#ADD1B2" rx="11" ry="11" style="stroke: #A80036; stroke-width: 1.0;"/><path d="M229.7656,488.875 Q229.9219,488.6563 230.1094,488.5469 Q230.2969,488.4375 230.5156,488.4375 Q230.8906,488.4375 231.125,488.7031 Q231.3594,488.9531 231.3594,489.5625 L231.3594,491.0156 Q231.3594,491.625 231.125,491.8906 Q230.8906,492.1563 230.5156,492.1563 Q230.1719,492.1563 229.9688,491.9531 Q229.7656,491.7656 229.6563,491.25 Q229.6094,490.8906 229.4219,490.7031 Q229.0938,490.3281 228.4844,490.1094 Q227.875,489.8906 227.25,489.8906 Q226.4844,489.8906 225.8438,490.2188 Q225.2188,490.5469 224.7188,491.2969 Q224.2344,492.0469 224.2344,493.0781 L224.2344,494.1719 Q224.2344,495.4063 225.125,496.2344 Q226.0156,497.0469 227.6094,497.0469 Q228.5469,497.0469 229.2031,496.7969 Q229.5938,496.6406 230.0156,496.2031 Q230.2813,495.9375 230.4219,495.8594 Q230.5781,495.7813 230.7813,495.7813 Q231.1094,495.7813 231.3594,496.0469 Q231.625,496.2969 231.625,496.6406 Q231.625,496.9844 231.2813,497.3906 Q230.7813,497.9688 229.9844,498.2969 Q228.9063,498.75 227.6094,498.75 Q226.0938,498.75 224.8906,498.125 Q223.9063,497.625 223.2188,496.5625 Q222.5313,495.4844 222.5313,494.2031 L222.5313,493.0469 Q222.5313,491.7188 223.1406,490.5781 Q223.7656,489.4219 224.8594,488.8125 Q225.9531,488.1875 227.1875,488.1875 Q227.9219,488.1875 228.5625,488.3594 Q229.2188,488.5156 229.7656,488.875 Z "/><text fill="#000000" font-family="sans-serif" font-size="12" lengthAdjust="spacingAndGlyphs" textLength="84" x="241" y="497.9102">RegistPayment</text><line style="stroke: #A80036; stroke-width: 1.5;" x1="213" x2="327" y1="509" y2="509"/><line style="stroke: #A80036; stroke-width: 1.5;" x1="213" x2="327" y1="517" y2="517"/><!--MD5=[764fca796ce7f635542948d8fc39db5e]
class Payment--><rect fill="#FEFECE" filter="url(#f1wnb54vd832rs)" height="48" id="Payment" style="stroke: #A80036; stroke-width: 1.5;" width="80" x="303" y="633"/><ellipse cx="318" cy="649" fill="#ADD1B2" rx="11" ry="11" style="stroke: #A80036; stroke-width: 1.0;"/><path d="M320.7656,644.875 Q320.9219,644.6563 321.1094,644.5469 Q321.2969,644.4375 321.5156,644.4375 Q321.8906,644.4375 322.125,644.7031 Q322.3594,644.9531 322.3594,645.5625 L322.3594,647.0156 Q322.3594,647.625 322.125,647.8906 Q321.8906,648.1563 321.5156,648.1563 Q321.1719,648.1563 320.9688,647.9531 Q320.7656,647.7656 320.6563,647.25 Q320.6094,646.8906 320.4219,646.7031 Q320.0938,646.3281 319.4844,646.1094 Q318.875,645.8906 318.25,645.8906 Q317.4844,645.8906 316.8438,646.2188 Q316.2188,646.5469 315.7188,647.2969 Q315.2344,648.0469 315.2344,649.0781 L315.2344,650.1719 Q315.2344,651.4063 316.125,652.2344 Q317.0156,653.0469 318.6094,653.0469 Q319.5469,653.0469 320.2031,652.7969 Q320.5938,652.6406 321.0156,652.2031 Q321.2813,651.9375 321.4219,651.8594 Q321.5781,651.7813 321.7813,651.7813 Q322.1094,651.7813 322.3594,652.0469 Q322.625,652.2969 322.625,652.6406 Q322.625,652.9844 322.2813,653.3906 Q321.7813,653.9688 320.9844,654.2969 Q319.9063,654.75 318.6094,654.75 Q317.0938,654.75 315.8906,654.125 Q314.9063,653.625 314.2188,652.5625 Q313.5313,651.4844 313.5313,650.2031 L313.5313,649.0469 Q313.5313,647.7188 314.1406,646.5781 Q314.7656,645.4219 315.8594,644.8125 Q316.9531,644.1875 318.1875,644.1875 Q318.9219,644.1875 319.5625,644.3594 Q320.2188,644.5156 320.7656,644.875 Z "/><text fill="#000000" font-family="sans-serif" font-size="12" lengthAdjust="spacingAndGlyphs" textLength="48" x="332" y="653.9102">Payment</text><line style="stroke: #A80036; stroke-width: 1.5;" x1="304" x2="382" y1="665" y2="665"/><line style="stroke: #A80036; stroke-width: 1.5;" x1="304" x2="382" y1="673" y2="673"/><!--MD5=[1b844c90688aafb95cd8c95626c3b83a]
class Timer--><rect fill="#FEFECE" filter="url(#f1wnb54vd832rs)" height="48" id="Timer" style="stroke: #A80036; stroke-width: 1.5;" width="64" x="391" y="207"/><ellipse cx="406" cy="223" fill="#ADD1B2" rx="11" ry="11" style="stroke: #A80036; stroke-width: 1.0;"/><path d="M408.7656,218.875 Q408.9219,218.6563 409.1094,218.5469 Q409.2969,218.4375 409.5156,218.4375 Q409.8906,218.4375 410.125,218.7031 Q410.3594,218.9531 410.3594,219.5625 L410.3594,221.0156 Q410.3594,221.625 410.125,221.8906 Q409.8906,222.1563 409.5156,222.1563 Q409.1719,222.1563 408.9688,221.9531 Q408.7656,221.7656 408.6563,221.25 Q408.6094,220.8906 408.4219,220.7031 Q408.0938,220.3281 407.4844,220.1094 Q406.875,219.8906 406.25,219.8906 Q405.4844,219.8906 404.8438,220.2188 Q404.2188,220.5469 403.7188,221.2969 Q403.2344,222.0469 403.2344,223.0781 L403.2344,224.1719 Q403.2344,225.4063 404.125,226.2344 Q405.0156,227.0469 406.6094,227.0469 Q407.5469,227.0469 408.2031,226.7969 Q408.5938,226.6406 409.0156,226.2031 Q409.2813,225.9375 409.4219,225.8594 Q409.5781,225.7813 409.7813,225.7813 Q410.1094,225.7813 410.3594,226.0469 Q410.625,226.2969 410.625,226.6406 Q410.625,226.9844 410.2813,227.3906 Q409.7813,227.9688 408.9844,228.2969 Q407.9063,228.75 406.6094,228.75 Q405.0938,228.75 403.8906,228.125 Q402.9063,227.625 402.2188,226.5625 Q401.5313,225.4844 401.5313,224.2031 L401.5313,223.0469 Q401.5313,221.7188 402.1406,220.5781 Q402.7656,219.4219 403.8594,218.8125 Q404.9531,218.1875 406.1875,218.1875 Q406.9219,218.1875 407.5625,218.3594 Q408.2188,218.5156 408.7656,218.875 Z "/><text fill="#000000" font-family="sans-serif" font-size="12" lengthAdjust="spacingAndGlyphs" textLength="32" x="420" y="227.9102">Timer</text><line style="stroke: #A80036; stroke-width: 1.5;" x1="392" x2="454" y1="239" y2="239"/><line style="stroke: #A80036; stroke-width: 1.5;" x1="392" x2="454" y1="247" y2="247"/><!--MD5=[e09e0019787cf83947156283bb671e06]
class RegistOrganization--><rect fill="#FEFECE" filter="url(#f1wnb54vd832rs)" height="48" id="RegistOrganization" style="stroke: #A80036; stroke-width: 1.5;" width="137" x="100.5" y="555"/><ellipse cx="115.5" cy="571" fill="#ADD1B2" rx="11" ry="11" style="stroke: #A80036; stroke-width: 1.0;"/><path d="M118.2656,566.875 Q118.4219,566.6563 118.6094,566.5469 Q118.7969,566.4375 119.0156,566.4375 Q119.3906,566.4375 119.625,566.7031 Q119.8594,566.9531 119.8594,567.5625 L119.8594,569.0156 Q119.8594,569.625 119.625,569.8906 Q119.3906,570.1563 119.0156,570.1563 Q118.6719,570.1563 118.4688,569.9531 Q118.2656,569.7656 118.1563,569.25 Q118.1094,568.8906 117.9219,568.7031 Q117.5938,568.3281 116.9844,568.1094 Q116.375,567.8906 115.75,567.8906 Q114.9844,567.8906 114.3438,568.2188 Q113.7188,568.5469 113.2188,569.2969 Q112.7344,570.0469 112.7344,571.0781 L112.7344,572.1719 Q112.7344,573.4063 113.625,574.2344 Q114.5156,575.0469 116.1094,575.0469 Q117.0469,575.0469 117.7031,574.7969 Q118.0938,574.6406 118.5156,574.2031 Q118.7813,573.9375 118.9219,573.8594 Q119.0781,573.7813 119.2813,573.7813 Q119.6094,573.7813 119.8594,574.0469 Q120.125,574.2969 120.125,574.6406 Q120.125,574.9844 119.7813,575.3906 Q119.2813,575.9688 118.4844,576.2969 Q117.4063,576.75 116.1094,576.75 Q114.5938,576.75 113.3906,576.125 Q112.4063,575.625 111.7188,574.5625 Q111.0313,573.4844 111.0313,572.2031 L111.0313,571.0469 Q111.0313,569.7188 111.6406,568.5781 Q112.2656,567.4219 113.3594,566.8125 Q114.4531,566.1875 115.6875,566.1875 Q116.4219,566.1875 117.0625,566.3594 Q117.7188,566.5156 118.2656,566.875 Z "/><text fill="#000000" font-family="sans-serif" font-size="12" lengthAdjust="spacingAndGlyphs" textLength="105" x="129.5" y="575.9102">RegistOrganization</text><line style="stroke: #A80036; stroke-width: 1.5;" x1="101.5" x2="236.5" y1="587" y2="587"/><line style="stroke: #A80036; stroke-width: 1.5;" x1="101.5" x2="236.5" y1="595" y2="595"/><!--MD5=[8806e557260fb3598decb516dc04693d]
class EmailAPI--><rect fill="#FEFECE" filter="url(#f1wnb54vd832rs)" height="48" id="EmailAPI" style="stroke: #A80036; stroke-width: 1.5;" width="82" x="557" y="773"/><ellipse cx="572" cy="789" fill="#ADD1B2" rx="11" ry="11" style="stroke: #A80036; stroke-width: 1.0;"/><path d="M574.7656,784.875 Q574.9219,784.6563 575.1094,784.5469 Q575.2969,784.4375 575.5156,784.4375 Q575.8906,784.4375 576.125,784.7031 Q576.3594,784.9531 576.3594,785.5625 L576.3594,787.0156 Q576.3594,787.625 576.125,787.8906 Q575.8906,788.1563 575.5156,788.1563 Q575.1719,788.1563 574.9688,787.9531 Q574.7656,787.7656 574.6563,787.25 Q574.6094,786.8906 574.4219,786.7031 Q574.0938,786.3281 573.4844,786.1094 Q572.875,785.8906 572.25,785.8906 Q571.4844,785.8906 570.8438,786.2188 Q570.2188,786.5469 569.7188,787.2969 Q569.2344,788.0469 569.2344,789.0781 L569.2344,790.1719 Q569.2344,791.4063 570.125,792.2344 Q571.0156,793.0469 572.6094,793.0469 Q573.5469,793.0469 574.2031,792.7969 Q574.5938,792.6406 575.0156,792.2031 Q575.2813,791.9375 575.4219,791.8594 Q575.5781,791.7813 575.7813,791.7813 Q576.1094,791.7813 576.3594,792.0469 Q576.625,792.2969 576.625,792.6406 Q576.625,792.9844 576.2813,793.3906 Q575.7813,793.9688 574.9844,794.2969 Q573.9063,794.75 572.6094,794.75 Q571.0938,794.75 569.8906,794.125 Q568.9063,793.625 568.2188,792.5625 Q567.5313,791.4844 567.5313,790.2031 L567.5313,789.0469 Q567.5313,787.7188 568.1406,786.5781 Q568.7656,785.4219 569.8594,784.8125 Q570.9531,784.1875 572.1875,784.1875 Q572.9219,784.1875 573.5625,784.3594 Q574.2188,784.5156 574.7656,784.875 Z "/><text fill="#000000" font-family="sans-serif" font-size="12" lengthAdjust="spacingAndGlyphs" textLength="50" x="586" y="793.9102">EmailAPI</text><line style="stroke: #A80036; stroke-width: 1.5;" x1="558" x2="638" y1="805" y2="805"/><line style="stroke: #A80036; stroke-width: 1.5;" x1="558" x2="638" y1="813" y2="813"/><!--MD5=[b9b2b358c4596a7c3c612fa1a577c109]
class PaymentAPI--><rect fill="#FEFECE" filter="url(#f1wnb54vd832rs)" height="48" id="PaymentAPI" style="stroke: #A80036; stroke-width: 1.5;" width="98" x="524" y="1234.5"/><ellipse cx="539" cy="1250.5" fill="#ADD1B2" rx="11" ry="11" style="stroke: #A80036; stroke-width: 1.0;"/><path d="M541.7656,1246.375 Q541.9219,1246.1563 542.1094,1246.0469 Q542.2969,1245.9375 542.5156,1245.9375 Q542.8906,1245.9375 543.125,1246.2031 Q543.3594,1246.4531 543.3594,1247.0625 L543.3594,1248.5156 Q543.3594,1249.125 543.125,1249.3906 Q542.8906,1249.6563 542.5156,1249.6563 Q542.1719,1249.6563 541.9688,1249.4531 Q541.7656,1249.2656 541.6563,1248.75 Q541.6094,1248.3906 541.4219,1248.2031 Q541.0938,1247.8281 540.4844,1247.6094 Q539.875,1247.3906 539.25,1247.3906 Q538.4844,1247.3906 537.8438,1247.7188 Q537.2188,1248.0469 536.7188,1248.7969 Q536.2344,1249.5469 536.2344,1250.5781 L536.2344,1251.6719 Q536.2344,1252.9063 537.125,1253.7344 Q538.0156,1254.5469 539.6094,1254.5469 Q540.5469,1254.5469 541.2031,1254.2969 Q541.5938,1254.1406 542.0156,1253.7031 Q542.2813,1253.4375 542.4219,1253.3594 Q542.5781,1253.2813 542.7813,1253.2813 Q543.1094,1253.2813 543.3594,1253.5469 Q543.625,1253.7969 543.625,1254.1406 Q543.625,1254.4844 543.2813,1254.8906 Q542.7813,1255.4688 541.9844,1255.7969 Q540.9063,1256.25 539.6094,1256.25 Q538.0938,1256.25 536.8906,1255.625 Q535.9063,1255.125 535.2188,1254.0625 Q534.5313,1252.9844 534.5313,1251.7031 L534.5313,1250.5469 Q534.5313,1249.2188 535.1406,1248.0781 Q535.7656,1246.9219 536.8594,1246.3125 Q537.9531,1245.6875 539.1875,1245.6875 Q539.9219,1245.6875 540.5625,1245.8594 Q541.2188,1246.0156 541.7656,1246.375 Z "/><text fill="#000000" font-family="sans-serif" font-size="12" lengthAdjust="spacingAndGlyphs" textLength="66" x="553" y="1255.4102">PaymentAPI</text><line style="stroke: #A80036; stroke-width: 1.5;" x1="525" x2="621" y1="1266.5" y2="1266.5"/><line style="stroke: #A80036; stroke-width: 1.5;" x1="525" x2="621" y1="1274.5" y2="1274.5"/><!--MD5=[b76730e11bf88a141099e30fd5a76626]
class MonetaryUnitConversionAPI--><rect fill="#FEFECE" filter="url(#f1wnb54vd832rs)" height="48" id="MonetaryUnitConversionAPI" style="stroke: #A80036; stroke-width: 1.5;" width="184" x="338" y="773"/><ellipse cx="353" cy="789" fill="#ADD1B2" rx="11" ry="11" style="stroke: #A80036; stroke-width: 1.0;"/><path d="M355.7656,784.875 Q355.9219,784.6563 356.1094,784.5469 Q356.2969,784.4375 356.5156,784.4375 Q356.8906,784.4375 357.125,784.7031 Q357.3594,784.9531 357.3594,785.5625 L357.3594,787.0156 Q357.3594,787.625 357.125,787.8906 Q356.8906,788.1563 356.5156,788.1563 Q356.1719,788.1563 355.9688,787.9531 Q355.7656,787.7656 355.6563,787.25 Q355.6094,786.8906 355.4219,786.7031 Q355.0938,786.3281 354.4844,786.1094 Q353.875,785.8906 353.25,785.8906 Q352.4844,785.8906 351.8438,786.2188 Q351.2188,786.5469 350.7188,787.2969 Q350.2344,788.0469 350.2344,789.0781 L350.2344,790.1719 Q350.2344,791.4063 351.125,792.2344 Q352.0156,793.0469 353.6094,793.0469 Q354.5469,793.0469 355.2031,792.7969 Q355.5938,792.6406 356.0156,792.2031 Q356.2813,791.9375 356.4219,791.8594 Q356.5781,791.7813 356.7813,791.7813 Q357.1094,791.7813 357.3594,792.0469 Q357.625,792.2969 357.625,792.6406 Q357.625,792.9844 357.2813,793.3906 Q356.7813,793.9688 355.9844,794.2969 Q354.9063,794.75 353.6094,794.75 Q352.0938,794.75 350.8906,794.125 Q349.9063,793.625 349.2188,792.5625 Q348.5313,791.4844 348.5313,790.2031 L348.5313,789.0469 Q348.5313,787.7188 349.1406,786.5781 Q349.7656,785.4219 350.8594,784.8125 Q351.9531,784.1875 353.1875,784.1875 Q353.9219,784.1875 354.5625,784.3594 Q355.2188,784.5156 355.7656,784.875 Z "/><text fill="#000000" font-family="sans-serif" font-size="12" lengthAdjust="spacingAndGlyphs" textLength="152" x="367" y="793.9102">MonetaryUnitConversionAPI</text><line style="stroke: #A80036; stroke-width: 1.5;" x1="339" x2="521" y1="805" y2="805"/><line style="stroke: #A80036; stroke-width: 1.5;" x1="339" x2="521" y1="813" y2="813"/><!--MD5=[dfcd1ebd91c1b15ae9e85c323f7cd20a]
link MakePaymentTask to Organization--><path d="M133.118,276.29 C103.4573,298.81 77,329.43 77,367 C77,367 77,367 77,658 C77,693.9 97.3855,728.937 117.446,754.724 " fill="none" id="MakePaymentTask-&gt;Organization" style="stroke: #A80036; stroke-width: 1.0; stroke-dasharray: 7.0,7.0;"/><polygon fill="#A80036" points="120.659,758.782,118.2074,749.2431,117.5549,754.8622,111.9358,754.2097,120.659,758.782" style="stroke: #A80036; stroke-width: 1.0;"/><!--MD5=[5bc67783950c5c8ea01850a4fb11e0ff]
link MakePaymentTask to App--><path d="M284.102,276.02 C314.228,294.93 348.831,316.66 376.666,334.14 " fill="none" id="MakePaymentTask-&gt;App" style="stroke: #A80036; stroke-width: 1.0; stroke-dasharray: 7.0,7.0;"/><polygon fill="#A80036" points="381.073,336.91,375.5828,328.7333,376.8401,334.2487,371.3247,335.506,381.073,336.91" style="stroke: #A80036; stroke-width: 1.0;"/><!--MD5=[ff2df7973005010da745d0206fea9a54]
link MakePaymentTask to RegistPayment--><path d="M223.247,276.25 C234.847,331.77 254.394,425.312 264.126,471.891 " fill="none" id="MakePaymentTask-&gt;RegistPayment" style="stroke: #A80036; stroke-width: 1.0; stroke-dasharray: 7.0,7.0;"/><polygon fill="#A80036" points="265.15,476.791,267.2243,467.1631,264.1271,471.8967,259.3935,468.7996,265.15,476.791" style="stroke: #A80036; stroke-width: 1.0;"/><!--MD5=[9566c530981e1a2d8be985e727d9e3e9]
link MakePaymentTask to Payment--><path d="M240.786,276.36 C246.135,285.98 251.488,296.21 256,306 C283.88,366.528 268.021,392.949 307,447 C319.586,464.453 335.123,457.883 345,477 C369.881,525.16 359.929,590.789 351.06,627.725 " fill="none" id="MakePaymentTask-&gt;Payment" style="stroke: #A80036; stroke-width: 1.0; stroke-dasharray: 7.0,7.0;"/><polygon fill="#A80036" points="349.763,632.961,355.8102,625.1873,350.9656,628.1078,348.0451,623.2631,349.763,632.961" style="stroke: #A80036; stroke-width: 1.0;"/><!--MD5=[11bbebcc76a599afaa64365ce126e922]
link PaymentScheduler to Timer--><path d="M293.82,125.02 C319.443,144.01 347.724,165.52 373,186 C379.77,191.49 386.887,197.56 393.56,203.39 " fill="none" id="PaymentScheduler-&gt;Timer" style="stroke: #A80036; stroke-width: 1.0; stroke-dasharray: 7.0,7.0;"/><polygon fill="#A80036" points="397.65,206.98,393.5276,198.0354,393.8933,203.6804,388.2483,204.0461,397.65,206.98" style="stroke: #A80036; stroke-width: 1.0;"/><!--MD5=[311fcdaab1c80d93ce10f7851a8df4c5]
link PaymentScheduler to MakePaymentTask--><path d="M214,125.25 C214,143.35 214,163.16 214,180.63 " fill="none" id="PaymentScheduler-&gt;MakePaymentTask" style="stroke: #A80036; stroke-width: 1.0; stroke-dasharray: 7.0,7.0;"/><polygon fill="#A80036" points="214,185.98,218,176.98,214,180.98,210,176.98,214,185.98" style="stroke: #A80036; stroke-width: 1.0;"/><!--MD5=[15621898c24993a7abe6c20ba102243b]
link App to RegistPayment--><path d="M409.366,399.19 C398.227,414.757 383.279,433.299 367,447 C354.733,457.325 340.14,466.556 326.046,474.307 " fill="none" id="App-&gt;RegistPayment" style="stroke: #A80036; stroke-width: 1.0;"/><polygon fill="#A80036" points="321.29,476.879,331.1093,476.1165,325.6881,474.5007,327.304,469.0795,321.29,476.879" style="stroke: #A80036; stroke-width: 1.0;"/><text fill="#000000" font-family="sans-serif" font-size="13" lengthAdjust="spacingAndGlyphs" textLength="21" x="386" y="443.4951">has</text><text fill="#000000" font-family="sans-serif" font-size="13" lengthAdjust="spacingAndGlyphs" textLength="7" x="397.8115" y="420.4514">1</text><text fill="#000000" font-family="sans-serif" font-size="13" lengthAdjust="spacingAndGlyphs" textLength="7" x="326.5362" y="466.1882">1</text><!--MD5=[34f9f932fd778d30fdc72ceaaad0e98f]
link App to RegistOrganization--><path d="M372.956,380.077 C319.146,393.658 239.517,421.999 194,477 C177.154,497.356 171.397,527.424 169.557,549.46 " fill="none" id="App-&gt;RegistOrganization" style="stroke: #A80036; stroke-width: 1.0;"/><polygon fill="#A80036" points="169.186,554.596,173.8261,545.9087,169.5474,549.6091,165.847,545.3304,169.186,554.596" style="stroke: #A80036; stroke-width: 1.0;"/><text fill="#000000" font-family="sans-serif" font-size="13" lengthAdjust="spacingAndGlyphs" textLength="21" x="252" y="443.4951">has</text><text fill="#000000" font-family="sans-serif" font-size="13" lengthAdjust="spacingAndGlyphs" textLength="7" x="357.9548" y="378.1546">1</text><text fill="#000000" font-family="sans-serif" font-size="13" lengthAdjust="spacingAndGlyphs" textLength="7" x="161.3782" y="544.2355">1</text><!--MD5=[eddc38b6bc72bc48b6f4e6dee3f36f26]
link Organization to ListTransaction--><path d="M156,835.341 C156,857.559 156,885.588 156,907.477 " fill="none" id="Organization-&gt;ListTransaction" style="stroke: #A80036; stroke-width: 1.0;"/><polygon fill="#A80036" points="156,912.617,160,903.617,156,907.617,152,903.617,156,912.617" style="stroke: #A80036; stroke-width: 1.0;"/><text fill="#000000" font-family="sans-serif" font-size="13" lengthAdjust="spacingAndGlyphs" textLength="21" x="157" y="879.4951">has</text><text fill="#000000" font-family="sans-serif" font-size="13" lengthAdjust="spacingAndGlyphs" textLength="7" x="148.4422" y="856.2759">1</text><text fill="#000000" font-family="sans-serif" font-size="13" lengthAdjust="spacingAndGlyphs" textLength="7" x="148.2781" y="902.0425">1</text><!--MD5=[c4629210b2ba88e64afbee18491f07dd]
link Payment to Transaction--><path d="M336.945,681.117 C331.799,701.493 324.542,732.045 320,759 C302.175,864.786 291.283,992.025 287.04,1047.649 " fill="none" id="Payment-&gt;Transaction" style="stroke: #A80036; stroke-width: 1.0;"/><polygon fill="#A80036" points="286.65,1052.806,291.3175,1044.1334,287.0271,1047.8202,283.3403,1043.5299,286.65,1052.806" style="stroke: #A80036; stroke-width: 1.0;"/><text fill="#000000" font-family="sans-serif" font-size="13" lengthAdjust="spacingAndGlyphs" textLength="37" x="306" y="879.4951">knows</text><text fill="#000000" font-family="sans-serif" font-size="13" lengthAdjust="spacingAndGlyphs" textLength="7" x="327.616" y="702.4835">1</text><text fill="#000000" font-family="sans-serif" font-size="13" lengthAdjust="spacingAndGlyphs" textLength="23" x="261.1259" y="1042.0964">1,...</text><!--MD5=[ac4dd7fdeb0fa08e65a2b7971307989b]
link Payment to EmailAPI--><path d="M383.318,677.533 C423.317,697.202 486.119,728.865 539,759 C545.145,762.502 551.563,766.336 557.807,770.166 " fill="none" id="Payment-&gt;EmailAPI" style="stroke: #A80036; stroke-width: 1.0; stroke-dasharray: 7.0,7.0;"/><polygon fill="#A80036" points="562.097,772.814,556.5411,764.6818,557.8428,770.1869,552.3377,771.4886,562.097,772.814" style="stroke: #A80036; stroke-width: 1.0;"/><!--MD5=[c4d304e021406f0669e27c527a415194]
link Transaction to PaymentAPI--><path d="M322.061,1101.099 C375.957,1134.69 475.639,1196.818 531.783,1231.811 " fill="none" id="Transaction-&gt;PaymentAPI" style="stroke: #A80036; stroke-width: 1.0; stroke-dasharray: 7.0,7.0;"/><polygon fill="#A80036" points="536.081,1234.49,530.5586,1226.335,531.8376,1231.8454,526.3273,1233.1244,536.081,1234.49" style="stroke: #A80036; stroke-width: 1.0;"/><!--MD5=[a5bfdb67ecdee50c8f593adbd3c04571]
link Payment to MonetaryUnitConversionAPI--><path d="M350.348,681.294 C355.381,695.614 362.804,714.022 372,729 C380.751,743.253 392.529,757.483 403.185,769.139 " fill="none" id="Payment-&gt;MonetaryUnitConversionAPI" style="stroke: #A80036; stroke-width: 1.0; stroke-dasharray: 7.0,7.0;"/><polygon fill="#A80036" points="406.75,772.99,403.5719,763.668,403.3536,769.3206,397.7009,769.1023,406.75,772.99" style="stroke: #A80036; stroke-width: 1.0;"/><!--MD5=[542f32193441b56ea302115ed1249c3b]
link Transaction to Freelancer--><path d="M285,1101.099 C285,1119.652 285,1146.91 285,1173.493 " fill="none" id="Transaction-&gt;Freelancer" style="stroke: #A80036; stroke-width: 1.0;"/><polygon fill="#A80036" points="285,1178.798,289,1169.798,285,1173.798,281,1169.798,285,1178.798" style="stroke: #A80036; stroke-width: 1.0;"/><text fill="#000000" font-family="sans-serif" font-size="13" lengthAdjust="spacingAndGlyphs" textLength="37" x="286" y="1145.4951">knows</text><text fill="#000000" font-family="sans-serif" font-size="13" lengthAdjust="spacingAndGlyphs" textLength="5" x="279.3906" y="1122.4611">*</text><text fill="#000000" font-family="sans-serif" font-size="13" lengthAdjust="spacingAndGlyphs" textLength="7" x="277.6773" y="1168.2387">1</text><!--MD5=[5f4f57afaa4ed75c0a27618a4620afc1]
link Organization to PaymentScheduler--><path d="M98.4351,771.003 C56.1343,748.312 6,710.371 6,658 C6,230 6,230 6,230 C6,186.63 34.4345,153.11 70.2771,128.09 " fill="none" id="Organization-&gt;PaymentScheduler" style="stroke: #A80036; stroke-width: 1.0;"/><polygon fill="#A80036" points="74.6834,125.09,64.9954,126.8625,70.5544,127.9098,69.5071,133.4689,74.6834,125.09" style="stroke: #A80036; stroke-width: 1.0;"/><text fill="#000000" font-family="sans-serif" font-size="13" lengthAdjust="spacingAndGlyphs" textLength="21" x="7" y="443.4951">has</text><text fill="#000000" font-family="sans-serif" font-size="13" lengthAdjust="spacingAndGlyphs" textLength="7" x="83.6112" y="764.1858">1</text><text fill="#000000" font-family="sans-serif" font-size="13" lengthAdjust="spacingAndGlyphs" textLength="7" x="50.2776" y="146.7112">1</text><!--MD5=[c9e7bf11fbb39a4b7f8255480c211d61]
link Payment to Organization--><path d="M302.796,669.423 C277.292,678.026 244.588,691.674 220,711 C204.734,722.999 191.214,739.476 180.58,754.729 " fill="none" id="Payment-&gt;Organization" style="stroke: #A80036; stroke-width: 1.0;"/><polygon fill="#A80036" points="177.658,758.994,186.0438,753.8289,180.4834,754.8688,179.4435,749.3083,177.658,758.994" style="stroke: #A80036; stroke-width: 1.0;"/><text fill="#000000" font-family="sans-serif" font-size="13" lengthAdjust="spacingAndGlyphs" textLength="37" x="221" y="725.4951">knows</text><text fill="#000000" font-family="sans-serif" font-size="13" lengthAdjust="spacingAndGlyphs" textLength="5" x="289.9224" y="667.766">*</text><text fill="#000000" font-family="sans-serif" font-size="13" lengthAdjust="spacingAndGlyphs" textLength="7" x="174.0059" y="748.0694">1</text><!--MD5=[71d2e20b7b04e36d280b22ce75f9673c]
link ListTransaction to Transaction--><path d="M185.595,975.054 C207.534,997.333 237.183,1027.442 258.379,1048.967 " fill="none" id="ListTransaction-&gt;Transaction" style="stroke: #A80036; stroke-width: 1.0;"/><polygon fill="#A80036" points="261.97,1052.613,258.5051,1043.3937,258.4617,1049.0504,252.805,1049.007,261.97,1052.613" style="stroke: #A80036; stroke-width: 1.0;"/><text fill="#000000" font-family="sans-serif" font-size="13" lengthAdjust="spacingAndGlyphs" textLength="21" x="234" y="1019.4951">has</text><text fill="#000000" font-family="sans-serif" font-size="13" lengthAdjust="spacingAndGlyphs" textLength="7" x="183.7325" y="996.2886">1</text><text fill="#000000" font-family="sans-serif" font-size="13" lengthAdjust="spacingAndGlyphs" textLength="5" x="250.7471" y="1042.2566">*</text><!--MD5=[939acada67c666032ddf52a0068bc128]
link App to MonetaryUnitConversionAPI--><path d="M429.07,399.026 C429.255,477.906 429.752,690.221 429.933,767.431 " fill="none" id="App-&gt;MonetaryUnitConversionAPI" style="stroke: #A80036; stroke-width: 1.0;"/><polygon fill="#A80036" points="429.946,772.753,433.9254,763.7439,429.9346,767.753,425.9254,763.7622,429.946,772.753" style="stroke: #A80036; stroke-width: 1.0;"/><text fill="#000000" font-family="sans-serif" font-size="13" lengthAdjust="spacingAndGlyphs" textLength="37" x="431" y="584.4951">knows</text><text fill="#000000" font-family="sans-serif" font-size="13" lengthAdjust="spacingAndGlyphs" textLength="7" x="421.3947" y="420.2551">1</text><text fill="#000000" font-family="sans-serif" font-size="13" lengthAdjust="spacingAndGlyphs" textLength="7" x="422.0353" y="762.0299">1</text><!--MD5=[b2767384522f615c85a28d92ddf7f4b1]
link RegistOrganization to Organization--><path d="M167.609,603.116 C165.452,638.955 161.267,708.485 158.555,753.541 " fill="none" id="RegistOrganization-&gt;Organization" style="stroke: #A80036; stroke-width: 1.0;"/><polygon fill="#A80036" points="158.249,758.638,162.7817,749.8942,158.549,753.647,154.7962,749.4142,158.249,758.638" style="stroke: #A80036; stroke-width: 1.0;"/><text fill="#000000" font-family="sans-serif" font-size="13" lengthAdjust="spacingAndGlyphs" textLength="21" x="167" y="662.4951">has</text><text fill="#000000" font-family="sans-serif" font-size="13" lengthAdjust="spacingAndGlyphs" textLength="7" x="159.4168" y="624.4822">1</text><text fill="#000000" font-family="sans-serif" font-size="13" lengthAdjust="spacingAndGlyphs" textLength="5" x="153.2059" y="748.2231">*</text><!--MD5=[1cb21011969cc62c73f846209be643c8]
link App to EmailAPI--><path d="M442.915,399.078 C447.218,408.601 451.902,419.199 456,429 C508.291,554.067 564.83,705.737 587.617,767.636 " fill="none" id="App-&gt;EmailAPI" style="stroke: #A80036; stroke-width: 1.0;"/><polygon fill="#A80036" points="589.458,772.64,590.106,762.8125,587.7323,767.9472,582.5976,765.5736,589.458,772.64" style="stroke: #A80036; stroke-width: 1.0;"/><text fill="#000000" font-family="sans-serif" font-size="13" lengthAdjust="spacingAndGlyphs" textLength="37" x="527" y="584.4951">knows</text><text fill="#000000" font-family="sans-serif" font-size="13" lengthAdjust="spacingAndGlyphs" textLength="7" x="437.9655" y="420.3174">1</text><text fill="#000000" font-family="sans-serif" font-size="13" lengthAdjust="spacingAndGlyphs" textLength="7" x="579.5228" y="762.2902">1</text><!--MD5=[c476b523f9294f20b13319074aa597a2]
link App to PaymentAPI--><path d="M485.325,370.999 C567.09,377.251 709,402.19 709,500 C709,500 709,500 709,1078 C709,1143.261 651.182,1199.73 610.943,1231.128 " fill="none" id="App-&gt;PaymentAPI" style="stroke: #A80036; stroke-width: 1.0;"/><polygon fill="#A80036" points="606.618,1234.459,616.1889,1232.1358,610.5791,1231.4078,611.307,1225.798,606.618,1234.459" style="stroke: #A80036; stroke-width: 1.0;"/><text fill="#000000" font-family="sans-serif" font-size="13" lengthAdjust="spacingAndGlyphs" textLength="37" x="710" y="802.4951">knows</text><text fill="#000000" font-family="sans-serif" font-size="13" lengthAdjust="spacingAndGlyphs" textLength="7" x="492.9901" y="367.8864">1</text><text fill="#000000" font-family="sans-serif" font-size="13" lengthAdjust="spacingAndGlyphs" textLength="7" x="607.3357" y="1223.7887">1</text><!--MD5=[cc0ce8ec080b096d19ae792b7c778278]
link RegistPayment to Payment--><path d="M280.929,525.055 C293.992,552.613 315.837,598.697 329.822,628.2 " fill="none" id="RegistPayment-&gt;Payment" style="stroke: #A80036; stroke-width: 1.0;"/><polygon fill="#A80036" points="331.996,632.787,331.7538,622.9411,329.8535,628.2693,324.5254,626.3691,331.996,632.787" style="stroke: #A80036; stroke-width: 1.0;"/><text fill="#000000" font-family="sans-serif" font-size="13" lengthAdjust="spacingAndGlyphs" textLength="21" x="319" y="584.4951">has</text><text fill="#000000" font-family="sans-serif" font-size="13" lengthAdjust="spacingAndGlyphs" textLength="7" x="275.7398" y="546.4064">1</text><text fill="#000000" font-family="sans-serif" font-size="13" lengthAdjust="spacingAndGlyphs" textLength="5" x="323.5356" y="622.0726">*</text><!--MD5=[1622af2e62cdf261989c6f6a9c16e50e]
@startuml CD
skinparam classAttributeIconSize 0
top to bottom direction

class PaymentScheduler {
        - Integer dayMonth
        - LocalTime timeOfDay
        + create (Integer day, LoaclTime timeOfDay, Organization org)
        + scheduleNestMonth()
        - getNextDate()
}

class MakePaymentTask {
        + create(Organization org, PaymentScheduler scheduler)
        + run()
        - makePayments()
}


class Transaction {

}


class Organization {
        - String nome
        + getListTransaction()
}

class ListTransaction {
        removeUnpaidTransactions()
}

class App {
        + getRegistPayment()
}

class Freelancer {
        - String id
        - String name
        - String levelOfExpertise
        - String email
        - String NIF
        - String bankAccountIBAN
        - String address
        - String country
}

MakePaymentTask ..> Organization
MakePaymentTask ..> App
MakePaymentTask ..> RegistPayment
MakePaymentTask ..> Payment

PaymentScheduler ..> Timer
PaymentScheduler ..> MakePaymentTask

App "1" - -> "1" RegistPayment : has
App "1" - -> "1" RegistOrganization : has
Organization "1" - -> "1" ListTransaction : has
Payment                      "1" - -> "1,..."  Transaction               : knows
Payment                          ..>          EmailAPI
Transaction                      ..>          PaymentAPI
Payment                          ..>          MonetaryUnitConversionAPI
Transaction                  "*" - -> "1"      Freelancer                : knows
Organization                 "1" - -> "1"      PaymentScheduler          : has
Payment                      "*" - -> "1"      Organization              : knows
ListTransaction              "1" - -> "*"      Transaction               : has
App                          "1" - -> "1"      MonetaryUnitConversionAPI : knows
RegistOrganization           "1" - -> "*"      Organization              : has
App                          "1" - -> "1"      EmailAPI                  : knows
App                          "1" - -> "1"      PaymentAPI                : knows
RegistPayment                "1" - -> "*"      Payment                   : has

@enduml

PlantUML version 1.2020.10(Sun May 17 10:35:57 WEST 2020)
(GPL source distribution)
Java Runtime: OpenJDK Runtime Environment
JVM: OpenJDK 64-Bit Server VM
Java Version: 14+36
Operating System: Windows 10
Default Encoding: Cp1252
Language: en
Country: US
--></g></svg>