<?xml version="1.0" encoding="UTF-8" standalone="no"?><svg xmlns="http://www.w3.org/2000/svg" xmlns:xlink="http://www.w3.org/1999/xlink" contentScriptType="application/ecmascript" contentStyleType="text/css" height="1613px" preserveAspectRatio="none" style="width:755px;height:1613px;" version="1.1" viewBox="0 0 755 1613" width="755px" zoomAndPan="magnify"><defs><filter height="300%" id="f1cwj019boc45o" width="300%" x="-1" y="-1"><feGaussianBlur result="blurOut" stdDeviation="2.0"/><feColorMatrix in="blurOut" result="blurOut2" type="matrix" values="0 0 0 0 0 0 0 0 0 0 0 0 0 0 0 0 0 0 .4 0"/><feOffset dx="4.0" dy="4.0" in="blurOut2" result="blurOut3"/><feBlend in="SourceGraphic" in2="blurOut3" mode="normal"/></filter></defs><g><!--MD5=[dc84a4e894a42f8e8d7fc762e5a59f92]
class PaymentScheduler--><rect fill="#FEFECE" filter="url(#f1cwj019boc45o)" height="131.0156" id="PaymentScheduler" style="stroke: #A80036; stroke-width: 1.5;" width="307" x="36.5" y="8"/><ellipse cx="133.75" cy="24" fill="#ADD1B2" rx="11" ry="11" style="stroke: #A80036; stroke-width: 1.0;"/><path d="M136.5156,19.875 Q136.6719,19.6563 136.8594,19.5469 Q137.0469,19.4375 137.2656,19.4375 Q137.6406,19.4375 137.875,19.7031 Q138.1094,19.9531 138.1094,20.5625 L138.1094,22.0156 Q138.1094,22.625 137.875,22.8906 Q137.6406,23.1563 137.2656,23.1563 Q136.9219,23.1563 136.7188,22.9531 Q136.5156,22.7656 136.4063,22.25 Q136.3594,21.8906 136.1719,21.7031 Q135.8438,21.3281 135.2344,21.1094 Q134.625,20.8906 134,20.8906 Q133.2344,20.8906 132.5938,21.2188 Q131.9688,21.5469 131.4688,22.2969 Q130.9844,23.0469 130.9844,24.0781 L130.9844,25.1719 Q130.9844,26.4063 131.875,27.2344 Q132.7656,28.0469 134.3594,28.0469 Q135.2969,28.0469 135.9531,27.7969 Q136.3438,27.6406 136.7656,27.2031 Q137.0313,26.9375 137.1719,26.8594 Q137.3281,26.7813 137.5313,26.7813 Q137.8594,26.7813 138.1094,27.0469 Q138.375,27.2969 138.375,27.6406 Q138.375,27.9844 138.0313,28.3906 Q137.5313,28.9688 136.7344,29.2969 Q135.6563,29.75 134.3594,29.75 Q132.8438,29.75 131.6406,29.125 Q130.6563,28.625 129.9688,27.5625 Q129.2813,26.4844 129.2813,25.2031 L129.2813,24.0469 Q129.2813,22.7188 129.8906,21.5781 Q130.5156,20.4219 131.6094,19.8125 Q132.7031,19.1875 133.9375,19.1875 Q134.6719,19.1875 135.3125,19.3594 Q135.9688,19.5156 136.5156,19.875 Z "/><text fill="#000000" font-family="sans-serif" font-size="12" lengthAdjust="spacingAndGlyphs" textLength="104" x="154.25" y="28.9102">PaymentScheduler</text><line style="stroke: #A80036; stroke-width: 1.5;" x1="37.5" x2="342.5" y1="40" y2="40"/><text fill="#000000" font-family="sans-serif" font-size="11" lengthAdjust="spacingAndGlyphs" textLength="87" x="42.5" y="55.4189">-Integer dayMonth</text><text fill="#000000" font-family="sans-serif" font-size="11" lengthAdjust="spacingAndGlyphs" textLength="105" x="42.5" y="69.2549">-LocalTime timeOfDay</text><line style="stroke: #A80036; stroke-width: 1.5;" x1="37.5" x2="342.5" y1="75.6719" y2="75.6719"/><text fill="#000000" font-family="sans-serif" font-size="11" lengthAdjust="spacingAndGlyphs" textLength="295" x="42.5" y="91.0908">+create (Integer day, LoaclTime timeOfDay, Organization org)</text><text fill="#000000" font-family="sans-serif" font-size="11" lengthAdjust="spacingAndGlyphs" textLength="251" x="42.5" y="104.9268">+resetTime(Integer dayMonth, LocalTime timeOfDay)</text><text fill="#000000" font-family="sans-serif" font-size="11" lengthAdjust="spacingAndGlyphs" textLength="109" x="42.5" y="118.7627">+scheduleNestMonth()</text><text fill="#000000" font-family="sans-serif" font-size="11" lengthAdjust="spacingAndGlyphs" textLength="73" x="42.5" y="132.5986">+getNextDate()</text><!--MD5=[eb1ab569dc5baf9282d4d315063bd4a9]
class MakePaymentTask--><rect fill="#FEFECE" filter="url(#f1cwj019boc45o)" height="89.5078" id="MakePaymentTask" style="stroke: #A80036; stroke-width: 1.5;" width="284" x="140" y="326"/><ellipse cx="225.75" cy="342" fill="#ADD1B2" rx="11" ry="11" style="stroke: #A80036; stroke-width: 1.0;"/><path d="M228.5156,337.875 Q228.6719,337.6563 228.8594,337.5469 Q229.0469,337.4375 229.2656,337.4375 Q229.6406,337.4375 229.875,337.7031 Q230.1094,337.9531 230.1094,338.5625 L230.1094,340.0156 Q230.1094,340.625 229.875,340.8906 Q229.6406,341.1563 229.2656,341.1563 Q228.9219,341.1563 228.7188,340.9531 Q228.5156,340.7656 228.4063,340.25 Q228.3594,339.8906 228.1719,339.7031 Q227.8438,339.3281 227.2344,339.1094 Q226.625,338.8906 226,338.8906 Q225.2344,338.8906 224.5938,339.2188 Q223.9688,339.5469 223.4688,340.2969 Q222.9844,341.0469 222.9844,342.0781 L222.9844,343.1719 Q222.9844,344.4063 223.875,345.2344 Q224.7656,346.0469 226.3594,346.0469 Q227.2969,346.0469 227.9531,345.7969 Q228.3438,345.6406 228.7656,345.2031 Q229.0313,344.9375 229.1719,344.8594 Q229.3281,344.7813 229.5313,344.7813 Q229.8594,344.7813 230.1094,345.0469 Q230.375,345.2969 230.375,345.6406 Q230.375,345.9844 230.0313,346.3906 Q229.5313,346.9688 228.7344,347.2969 Q227.6563,347.75 226.3594,347.75 Q224.8438,347.75 223.6406,347.125 Q222.6563,346.625 221.9688,345.5625 Q221.2813,344.4844 221.2813,343.2031 L221.2813,342.0469 Q221.2813,340.7188 221.8906,339.5781 Q222.5156,338.4219 223.6094,337.8125 Q224.7031,337.1875 225.9375,337.1875 Q226.6719,337.1875 227.3125,337.3594 Q227.9688,337.5156 228.5156,337.875 Z "/><text fill="#000000" font-family="sans-serif" font-size="12" lengthAdjust="spacingAndGlyphs" textLength="104" x="246.25" y="346.9102">MakePaymentTask</text><line style="stroke: #A80036; stroke-width: 1.5;" x1="141" x2="423" y1="358" y2="358"/><line style="stroke: #A80036; stroke-width: 1.5;" x1="141" x2="423" y1="366" y2="366"/><text fill="#000000" font-family="sans-serif" font-size="11" lengthAdjust="spacingAndGlyphs" textLength="272" x="146" y="381.4189">+create(Organization org, PaymentScheduler scheduler)</text><text fill="#000000" font-family="sans-serif" font-size="11" lengthAdjust="spacingAndGlyphs" textLength="30" x="146" y="395.2549">+run()</text><text fill="#000000" font-family="sans-serif" font-size="11" lengthAdjust="spacingAndGlyphs" textLength="84" x="146" y="409.0908">-makePayments()</text><!--MD5=[335f4d9be48430461c68bf6d6fdba145]
class App--><rect fill="#FEFECE" filter="url(#f1cwj019boc45o)" height="61.8359" id="App" style="stroke: #A80036; stroke-width: 1.5;" width="112" x="471" y="477"/><ellipse cx="512.55" cy="493" fill="#ADD1B2" rx="11" ry="11" style="stroke: #A80036; stroke-width: 1.0;"/><path d="M515.3156,488.875 Q515.4719,488.6563 515.6594,488.5469 Q515.8469,488.4375 516.0656,488.4375 Q516.4406,488.4375 516.675,488.7031 Q516.9094,488.9531 516.9094,489.5625 L516.9094,491.0156 Q516.9094,491.625 516.675,491.8906 Q516.4406,492.1563 516.0656,492.1563 Q515.7219,492.1563 515.5188,491.9531 Q515.3156,491.7656 515.2063,491.25 Q515.1594,490.8906 514.9719,490.7031 Q514.6438,490.3281 514.0344,490.1094 Q513.425,489.8906 512.8,489.8906 Q512.0344,489.8906 511.3937,490.2188 Q510.7687,490.5469 510.2687,491.2969 Q509.7844,492.0469 509.7844,493.0781 L509.7844,494.1719 Q509.7844,495.4063 510.675,496.2344 Q511.5656,497.0469 513.1594,497.0469 Q514.0969,497.0469 514.7531,496.7969 Q515.1438,496.6406 515.5656,496.2031 Q515.8313,495.9375 515.9719,495.8594 Q516.1281,495.7813 516.3313,495.7813 Q516.6594,495.7813 516.9094,496.0469 Q517.175,496.2969 517.175,496.6406 Q517.175,496.9844 516.8313,497.3906 Q516.3313,497.9688 515.5344,498.2969 Q514.4563,498.75 513.1594,498.75 Q511.6437,498.75 510.4406,498.125 Q509.4562,497.625 508.7687,496.5625 Q508.0812,495.4844 508.0812,494.2031 L508.0812,493.0469 Q508.0812,491.7188 508.6906,490.5781 Q509.3156,489.4219 510.4094,488.8125 Q511.5031,488.1875 512.7375,488.1875 Q513.4719,488.1875 514.1125,488.3594 Q514.7688,488.5156 515.3156,488.875 Z "/><text fill="#000000" font-family="sans-serif" font-size="12" lengthAdjust="spacingAndGlyphs" textLength="21" x="532.45" y="497.9102">App</text><line style="stroke: #A80036; stroke-width: 1.5;" x1="472" x2="582" y1="509" y2="509"/><line style="stroke: #A80036; stroke-width: 1.5;" x1="472" x2="582" y1="517" y2="517"/><text fill="#000000" font-family="sans-serif" font-size="11" lengthAdjust="spacingAndGlyphs" textLength="100" x="477" y="532.4189">+getRegistPayment()</text><!--MD5=[b9b2b358c4596a7c3c612fa1a577c109]
class PaymentAPI--><rect fill="#FEFECE" filter="url(#f1cwj019boc45o)" height="61.8359" id="PaymentAPI" style="stroke: #A80036; stroke-width: 1.5;" width="171" x="490.5" y="1492.5"/><ellipse cx="538.75" cy="1508.5" fill="#ADD1B2" rx="11" ry="11" style="stroke: #A80036; stroke-width: 1.0;"/><path d="M541.5156,1504.375 Q541.6719,1504.1563 541.8594,1504.0469 Q542.0469,1503.9375 542.2656,1503.9375 Q542.6406,1503.9375 542.875,1504.2031 Q543.1094,1504.4531 543.1094,1505.0625 L543.1094,1506.5156 Q543.1094,1507.125 542.875,1507.3906 Q542.6406,1507.6563 542.2656,1507.6563 Q541.9219,1507.6563 541.7188,1507.4531 Q541.5156,1507.2656 541.4063,1506.75 Q541.3594,1506.3906 541.1719,1506.2031 Q540.8438,1505.8281 540.2344,1505.6094 Q539.625,1505.3906 539,1505.3906 Q538.2344,1505.3906 537.5938,1505.7188 Q536.9688,1506.0469 536.4688,1506.7969 Q535.9844,1507.5469 535.9844,1508.5781 L535.9844,1509.6719 Q535.9844,1510.9063 536.875,1511.7344 Q537.7656,1512.5469 539.3594,1512.5469 Q540.2969,1512.5469 540.9531,1512.2969 Q541.3438,1512.1406 541.7656,1511.7031 Q542.0313,1511.4375 542.1719,1511.3594 Q542.3281,1511.2813 542.5313,1511.2813 Q542.8594,1511.2813 543.1094,1511.5469 Q543.375,1511.7969 543.375,1512.1406 Q543.375,1512.4844 543.0313,1512.8906 Q542.5313,1513.4688 541.7344,1513.7969 Q540.6563,1514.25 539.3594,1514.25 Q537.8438,1514.25 536.6406,1513.625 Q535.6563,1513.125 534.9688,1512.0625 Q534.2813,1510.9844 534.2813,1509.7031 L534.2813,1508.5469 Q534.2813,1507.2188 534.8906,1506.0781 Q535.5156,1504.9219 536.6094,1504.3125 Q537.7031,1503.6875 538.9375,1503.6875 Q539.6719,1503.6875 540.3125,1503.8594 Q540.9688,1504.0156 541.5156,1504.375 Z "/><text fill="#000000" font-family="sans-serif" font-size="12" lengthAdjust="spacingAndGlyphs" textLength="66" x="559.25" y="1513.4102">PaymentAPI</text><line style="stroke: #A80036; stroke-width: 1.5;" x1="491.5" x2="660.5" y1="1524.5" y2="1524.5"/><line style="stroke: #A80036; stroke-width: 1.5;" x1="491.5" x2="660.5" y1="1532.5" y2="1532.5"/><text fill="#000000" font-family="sans-serif" font-size="11" lengthAdjust="spacingAndGlyphs" textLength="159" x="496.5" y="1547.9189">+payTO(Double eur, String IBAN)</text><!--MD5=[8806e557260fb3598decb516dc04693d]
class EmailAPI--><rect fill="#FEFECE" filter="url(#f1cwj019boc45o)" height="48" id="EmailAPI" style="stroke: #A80036; stroke-width: 1.5;" width="82" x="586" y="1297"/><ellipse cx="601" cy="1313" fill="#ADD1B2" rx="11" ry="11" style="stroke: #A80036; stroke-width: 1.0;"/><path d="M603.7656,1308.875 Q603.9219,1308.6563 604.1094,1308.5469 Q604.2969,1308.4375 604.5156,1308.4375 Q604.8906,1308.4375 605.125,1308.7031 Q605.3594,1308.9531 605.3594,1309.5625 L605.3594,1311.0156 Q605.3594,1311.625 605.125,1311.8906 Q604.8906,1312.1563 604.5156,1312.1563 Q604.1719,1312.1563 603.9688,1311.9531 Q603.7656,1311.7656 603.6563,1311.25 Q603.6094,1310.8906 603.4219,1310.7031 Q603.0938,1310.3281 602.4844,1310.1094 Q601.875,1309.8906 601.25,1309.8906 Q600.4844,1309.8906 599.8438,1310.2188 Q599.2188,1310.5469 598.7188,1311.2969 Q598.2344,1312.0469 598.2344,1313.0781 L598.2344,1314.1719 Q598.2344,1315.4063 599.125,1316.2344 Q600.0156,1317.0469 601.6094,1317.0469 Q602.5469,1317.0469 603.2031,1316.7969 Q603.5938,1316.6406 604.0156,1316.2031 Q604.2813,1315.9375 604.4219,1315.8594 Q604.5781,1315.7813 604.7813,1315.7813 Q605.1094,1315.7813 605.3594,1316.0469 Q605.625,1316.2969 605.625,1316.6406 Q605.625,1316.9844 605.2813,1317.3906 Q604.7813,1317.9688 603.9844,1318.2969 Q602.9063,1318.75 601.6094,1318.75 Q600.0938,1318.75 598.8906,1318.125 Q597.9063,1317.625 597.2188,1316.5625 Q596.5313,1315.4844 596.5313,1314.2031 L596.5313,1313.0469 Q596.5313,1311.7188 597.1406,1310.5781 Q597.7656,1309.4219 598.8594,1308.8125 Q599.9531,1308.1875 601.1875,1308.1875 Q601.9219,1308.1875 602.5625,1308.3594 Q603.2188,1308.5156 603.7656,1308.875 Z "/><text fill="#000000" font-family="sans-serif" font-size="12" lengthAdjust="spacingAndGlyphs" textLength="50" x="615" y="1317.9102">EmailAPI</text><line style="stroke: #A80036; stroke-width: 1.5;" x1="587" x2="667" y1="1329" y2="1329"/><line style="stroke: #A80036; stroke-width: 1.5;" x1="587" x2="667" y1="1337" y2="1337"/><!--MD5=[b76730e11bf88a141099e30fd5a76626]
class MonetaryUnitConversionAPI--><rect fill="#FEFECE" filter="url(#f1cwj019boc45o)" height="48" id="MonetaryUnitConversionAPI" style="stroke: #A80036; stroke-width: 1.5;" width="184" x="367" y="1297"/><ellipse cx="382" cy="1313" fill="#ADD1B2" rx="11" ry="11" style="stroke: #A80036; stroke-width: 1.0;"/><path d="M384.7656,1308.875 Q384.9219,1308.6563 385.1094,1308.5469 Q385.2969,1308.4375 385.5156,1308.4375 Q385.8906,1308.4375 386.125,1308.7031 Q386.3594,1308.9531 386.3594,1309.5625 L386.3594,1311.0156 Q386.3594,1311.625 386.125,1311.8906 Q385.8906,1312.1563 385.5156,1312.1563 Q385.1719,1312.1563 384.9688,1311.9531 Q384.7656,1311.7656 384.6563,1311.25 Q384.6094,1310.8906 384.4219,1310.7031 Q384.0938,1310.3281 383.4844,1310.1094 Q382.875,1309.8906 382.25,1309.8906 Q381.4844,1309.8906 380.8438,1310.2188 Q380.2188,1310.5469 379.7188,1311.2969 Q379.2344,1312.0469 379.2344,1313.0781 L379.2344,1314.1719 Q379.2344,1315.4063 380.125,1316.2344 Q381.0156,1317.0469 382.6094,1317.0469 Q383.5469,1317.0469 384.2031,1316.7969 Q384.5938,1316.6406 385.0156,1316.2031 Q385.2813,1315.9375 385.4219,1315.8594 Q385.5781,1315.7813 385.7813,1315.7813 Q386.1094,1315.7813 386.3594,1316.0469 Q386.625,1316.2969 386.625,1316.6406 Q386.625,1316.9844 386.2813,1317.3906 Q385.7813,1317.9688 384.9844,1318.2969 Q383.9063,1318.75 382.6094,1318.75 Q381.0938,1318.75 379.8906,1318.125 Q378.9063,1317.625 378.2188,1316.5625 Q377.5313,1315.4844 377.5313,1314.2031 L377.5313,1313.0469 Q377.5313,1311.7188 378.1406,1310.5781 Q378.7656,1309.4219 379.8594,1308.8125 Q380.9531,1308.1875 382.1875,1308.1875 Q382.9219,1308.1875 383.5625,1308.3594 Q384.2188,1308.5156 384.7656,1308.875 Z "/><text fill="#000000" font-family="sans-serif" font-size="12" lengthAdjust="spacingAndGlyphs" textLength="152" x="396" y="1317.9102">MonetaryUnitConversionAPI</text><line style="stroke: #A80036; stroke-width: 1.5;" x1="368" x2="550" y1="1329" y2="1329"/><line style="stroke: #A80036; stroke-width: 1.5;" x1="368" x2="550" y1="1337" y2="1337"/><!--MD5=[86c7c362de55a38b660185a1328fe18d]
class Organization--><rect fill="#FEFECE" filter="url(#f1cwj019boc45o)" height="75.6719" id="Organization" style="stroke: #A80036; stroke-width: 1.5;" width="115" x="320.5" y="941"/><ellipse cx="341.8" cy="957" fill="#ADD1B2" rx="11" ry="11" style="stroke: #A80036; stroke-width: 1.0;"/><path d="M344.5656,952.875 Q344.7219,952.6563 344.9094,952.5469 Q345.0969,952.4375 345.3156,952.4375 Q345.6906,952.4375 345.925,952.7031 Q346.1594,952.9531 346.1594,953.5625 L346.1594,955.0156 Q346.1594,955.625 345.925,955.8906 Q345.6906,956.1563 345.3156,956.1563 Q344.9719,956.1563 344.7688,955.9531 Q344.5656,955.7656 344.4563,955.25 Q344.4094,954.8906 344.2219,954.7031 Q343.8938,954.3281 343.2844,954.1094 Q342.675,953.8906 342.05,953.8906 Q341.2844,953.8906 340.6438,954.2188 Q340.0188,954.5469 339.5188,955.2969 Q339.0344,956.0469 339.0344,957.0781 L339.0344,958.1719 Q339.0344,959.4063 339.925,960.2344 Q340.8156,961.0469 342.4094,961.0469 Q343.3469,961.0469 344.0031,960.7969 Q344.3938,960.6406 344.8156,960.2031 Q345.0813,959.9375 345.2219,959.8594 Q345.3781,959.7813 345.5813,959.7813 Q345.9094,959.7813 346.1594,960.0469 Q346.425,960.2969 346.425,960.6406 Q346.425,960.9844 346.0813,961.3906 Q345.5813,961.9688 344.7844,962.2969 Q343.7063,962.75 342.4094,962.75 Q340.8938,962.75 339.6906,962.125 Q338.7063,961.625 338.0188,960.5625 Q337.3313,959.4844 337.3313,958.2031 L337.3313,957.0469 Q337.3313,955.7188 337.9406,954.5781 Q338.5656,953.4219 339.6594,952.8125 Q340.7531,952.1875 341.9875,952.1875 Q342.7219,952.1875 343.3625,952.3594 Q344.0188,952.5156 344.5656,952.875 Z "/><text fill="#000000" font-family="sans-serif" font-size="12" lengthAdjust="spacingAndGlyphs" textLength="69" x="357.2" y="961.9102">Organization</text><line style="stroke: #A80036; stroke-width: 1.5;" x1="321.5" x2="434.5" y1="973" y2="973"/><text fill="#000000" font-family="sans-serif" font-size="11" lengthAdjust="spacingAndGlyphs" textLength="61" x="326.5" y="988.4189">-String nome</text><line style="stroke: #A80036; stroke-width: 1.5;" x1="321.5" x2="434.5" y1="994.8359" y2="994.8359"/><text fill="#000000" font-family="sans-serif" font-size="11" lengthAdjust="spacingAndGlyphs" textLength="103" x="326.5" y="1010.2549">+getListTransaction()</text><!--MD5=[031a1c1e2bc7e464975852eaac477fa5]
class ListTransaction--><rect fill="#FEFECE" filter="url(#f1cwj019boc45o)" height="103.3438" id="ListTransaction" style="stroke: #A80036; stroke-width: 1.5;" width="135" x="357.5" y="1095"/><ellipse cx="380.6" cy="1111" fill="#ADD1B2" rx="11" ry="11" style="stroke: #A80036; stroke-width: 1.0;"/><path d="M383.3656,1106.875 Q383.5219,1106.6563 383.7094,1106.5469 Q383.8969,1106.4375 384.1156,1106.4375 Q384.4906,1106.4375 384.725,1106.7031 Q384.9594,1106.9531 384.9594,1107.5625 L384.9594,1109.0156 Q384.9594,1109.625 384.725,1109.8906 Q384.4906,1110.1563 384.1156,1110.1563 Q383.7719,1110.1563 383.5688,1109.9531 Q383.3656,1109.7656 383.2563,1109.25 Q383.2094,1108.8906 383.0219,1108.7031 Q382.6938,1108.3281 382.0844,1108.1094 Q381.475,1107.8906 380.85,1107.8906 Q380.0844,1107.8906 379.4438,1108.2188 Q378.8188,1108.5469 378.3188,1109.2969 Q377.8344,1110.0469 377.8344,1111.0781 L377.8344,1112.1719 Q377.8344,1113.4063 378.725,1114.2344 Q379.6156,1115.0469 381.2094,1115.0469 Q382.1469,1115.0469 382.8031,1114.7969 Q383.1938,1114.6406 383.6156,1114.2031 Q383.8813,1113.9375 384.0219,1113.8594 Q384.1781,1113.7813 384.3813,1113.7813 Q384.7094,1113.7813 384.9594,1114.0469 Q385.225,1114.2969 385.225,1114.6406 Q385.225,1114.9844 384.8813,1115.3906 Q384.3813,1115.9688 383.5844,1116.2969 Q382.5063,1116.75 381.2094,1116.75 Q379.6938,1116.75 378.4906,1116.125 Q377.5063,1115.625 376.8188,1114.5625 Q376.1313,1113.4844 376.1313,1112.2031 L376.1313,1111.0469 Q376.1313,1109.7188 376.7406,1108.5781 Q377.3656,1107.4219 378.4594,1106.8125 Q379.5531,1106.1875 380.7875,1106.1875 Q381.5219,1106.1875 382.1625,1106.3594 Q382.8188,1106.5156 383.3656,1106.875 Z "/><text fill="#000000" font-family="sans-serif" font-size="12" lengthAdjust="spacingAndGlyphs" textLength="85" x="396.4" y="1115.9102">ListTransaction</text><line style="stroke: #A80036; stroke-width: 1.5;" x1="358.5" x2="491.5" y1="1127" y2="1127"/><line style="stroke: #A80036; stroke-width: 1.5;" x1="358.5" x2="491.5" y1="1135" y2="1135"/><text fill="#000000" font-family="sans-serif" font-size="11" lengthAdjust="spacingAndGlyphs" textLength="95" x="363.5" y="1150.4189">+getTransaction(ID)</text><text fill="#000000" font-family="sans-serif" font-size="11" lengthAdjust="spacingAndGlyphs" textLength="123" x="363.5" y="1164.2549">+remove(Transaction trs)</text><text fill="#000000" font-family="sans-serif" font-size="11" lengthAdjust="spacingAndGlyphs" textLength="105" x="363.5" y="1178.0908">+add(Transaction trs)</text><text fill="#000000" font-family="sans-serif" font-size="11" lengthAdjust="spacingAndGlyphs" textLength="108" x="363.5" y="1191.9268">+emailAboutPayment()</text><!--MD5=[4555bb1b0911a5adf28ce6dbe60fed2e]
class Transaction--><rect fill="#FEFECE" filter="url(#f1cwj019boc45o)" height="89.5078" id="Transaction" style="stroke: #A80036; stroke-width: 1.5;" width="178" x="154" y="1276"/><ellipse cx="206.25" cy="1292" fill="#ADD1B2" rx="11" ry="11" style="stroke: #A80036; stroke-width: 1.0;"/><path d="M209.0156,1287.875 Q209.1719,1287.6563 209.3594,1287.5469 Q209.5469,1287.4375 209.7656,1287.4375 Q210.1406,1287.4375 210.375,1287.7031 Q210.6094,1287.9531 210.6094,1288.5625 L210.6094,1290.0156 Q210.6094,1290.625 210.375,1290.8906 Q210.1406,1291.1563 209.7656,1291.1563 Q209.4219,1291.1563 209.2188,1290.9531 Q209.0156,1290.7656 208.9063,1290.25 Q208.8594,1289.8906 208.6719,1289.7031 Q208.3438,1289.3281 207.7344,1289.1094 Q207.125,1288.8906 206.5,1288.8906 Q205.7344,1288.8906 205.0938,1289.2188 Q204.4688,1289.5469 203.9688,1290.2969 Q203.4844,1291.0469 203.4844,1292.0781 L203.4844,1293.1719 Q203.4844,1294.4063 204.375,1295.2344 Q205.2656,1296.0469 206.8594,1296.0469 Q207.7969,1296.0469 208.4531,1295.7969 Q208.8438,1295.6406 209.2656,1295.2031 Q209.5313,1294.9375 209.6719,1294.8594 Q209.8281,1294.7813 210.0313,1294.7813 Q210.3594,1294.7813 210.6094,1295.0469 Q210.875,1295.2969 210.875,1295.6406 Q210.875,1295.9844 210.5313,1296.3906 Q210.0313,1296.9688 209.2344,1297.2969 Q208.1563,1297.75 206.8594,1297.75 Q205.3438,1297.75 204.1406,1297.125 Q203.1563,1296.625 202.4688,1295.5625 Q201.7813,1294.4844 201.7813,1293.2031 L201.7813,1292.0469 Q201.7813,1290.7188 202.3906,1289.5781 Q203.0156,1288.4219 204.1094,1287.8125 Q205.2031,1287.1875 206.4375,1287.1875 Q207.1719,1287.1875 207.8125,1287.3594 Q208.4688,1287.5156 209.0156,1287.875 Z "/><text fill="#000000" font-family="sans-serif" font-size="12" lengthAdjust="spacingAndGlyphs" textLength="65" x="226.75" y="1296.9102">Transaction</text><line style="stroke: #A80036; stroke-width: 1.5;" x1="155" x2="331" y1="1308" y2="1308"/><line style="stroke: #A80036; stroke-width: 1.5;" x1="155" x2="331" y1="1316" y2="1316"/><text fill="#000000" font-family="sans-serif" font-size="11" lengthAdjust="spacingAndGlyphs" textLength="166" x="160" y="1331.4189">+makeBankTransfer(Organization)</text><text fill="#000000" font-family="sans-serif" font-size="11" lengthAdjust="spacingAndGlyphs" textLength="104" x="160" y="1345.2549">+getAmmountToPay()</text><text fill="#000000" font-family="sans-serif" font-size="11" lengthAdjust="spacingAndGlyphs" textLength="103" x="160" y="1359.0908">-getFreelancerIBAN()</text><!--MD5=[1f687b5315377fe49fca59b457947463]
class Freelancer--><rect fill="#FEFECE" filter="url(#f1cwj019boc45o)" height="158.6875" id="Freelancer" style="stroke: #A80036; stroke-width: 1.5;" width="135" x="175.5" y="1444"/><ellipse cx="210.3" cy="1460" fill="#ADD1B2" rx="11" ry="11" style="stroke: #A80036; stroke-width: 1.0;"/><path d="M213.0656,1455.875 Q213.2219,1455.6563 213.4094,1455.5469 Q213.5969,1455.4375 213.8156,1455.4375 Q214.1906,1455.4375 214.425,1455.7031 Q214.6594,1455.9531 214.6594,1456.5625 L214.6594,1458.0156 Q214.6594,1458.625 214.425,1458.8906 Q214.1906,1459.1563 213.8156,1459.1563 Q213.4719,1459.1563 213.2688,1458.9531 Q213.0656,1458.7656 212.9563,1458.25 Q212.9094,1457.8906 212.7219,1457.7031 Q212.3938,1457.3281 211.7844,1457.1094 Q211.175,1456.8906 210.55,1456.8906 Q209.7844,1456.8906 209.1438,1457.2188 Q208.5188,1457.5469 208.0188,1458.2969 Q207.5344,1459.0469 207.5344,1460.0781 L207.5344,1461.1719 Q207.5344,1462.4063 208.425,1463.2344 Q209.3156,1464.0469 210.9094,1464.0469 Q211.8469,1464.0469 212.5031,1463.7969 Q212.8938,1463.6406 213.3156,1463.2031 Q213.5813,1462.9375 213.7219,1462.8594 Q213.8781,1462.7813 214.0813,1462.7813 Q214.4094,1462.7813 214.6594,1463.0469 Q214.925,1463.2969 214.925,1463.6406 Q214.925,1463.9844 214.5813,1464.3906 Q214.0813,1464.9688 213.2844,1465.2969 Q212.2063,1465.75 210.9094,1465.75 Q209.3938,1465.75 208.1906,1465.125 Q207.2063,1464.625 206.5188,1463.5625 Q205.8313,1462.4844 205.8313,1461.2031 L205.8313,1460.0469 Q205.8313,1458.7188 206.4406,1457.5781 Q207.0656,1456.4219 208.1594,1455.8125 Q209.2531,1455.1875 210.4875,1455.1875 Q211.2219,1455.1875 211.8625,1455.3594 Q212.5188,1455.5156 213.0656,1455.875 Z "/><text fill="#000000" font-family="sans-serif" font-size="12" lengthAdjust="spacingAndGlyphs" textLength="59" x="228.7" y="1464.9102">Freelancer</text><line style="stroke: #A80036; stroke-width: 1.5;" x1="176.5" x2="309.5" y1="1476" y2="1476"/><text fill="#000000" font-family="sans-serif" font-size="11" lengthAdjust="spacingAndGlyphs" textLength="43" x="181.5" y="1491.4189">-String id</text><text fill="#000000" font-family="sans-serif" font-size="11" lengthAdjust="spacingAndGlyphs" textLength="61" x="181.5" y="1505.2549">-String name</text><text fill="#000000" font-family="sans-serif" font-size="11" lengthAdjust="spacingAndGlyphs" textLength="114" x="181.5" y="1519.0908">-String levelOfExpertise</text><text fill="#000000" font-family="sans-serif" font-size="11" lengthAdjust="spacingAndGlyphs" textLength="59" x="181.5" y="1532.9268">-String email</text><text fill="#000000" font-family="sans-serif" font-size="11" lengthAdjust="spacingAndGlyphs" textLength="50" x="181.5" y="1546.7627">-String NIF</text><text fill="#000000" font-family="sans-serif" font-size="11" lengthAdjust="spacingAndGlyphs" textLength="123" x="181.5" y="1560.5986">-String bankAccountIBAN</text><text fill="#000000" font-family="sans-serif" font-size="11" lengthAdjust="spacingAndGlyphs" textLength="75" x="181.5" y="1574.4346">-String address</text><text fill="#000000" font-family="sans-serif" font-size="11" lengthAdjust="spacingAndGlyphs" textLength="72" x="181.5" y="1588.2705">-String country</text><line style="stroke: #A80036; stroke-width: 1.5;" x1="176.5" x2="309.5" y1="1594.6875" y2="1594.6875"/><!--MD5=[8f0fe9bf296a24a2a76394614775b289]
class RegistPayment--><rect fill="#FEFECE" filter="url(#f1cwj019boc45o)" height="75.6719" id="RegistPayment" style="stroke: #A80036; stroke-width: 1.5;" width="266" x="59" y="617"/><ellipse cx="145.75" cy="633" fill="#ADD1B2" rx="11" ry="11" style="stroke: #A80036; stroke-width: 1.0;"/><path d="M148.5156,628.875 Q148.6719,628.6563 148.8594,628.5469 Q149.0469,628.4375 149.2656,628.4375 Q149.6406,628.4375 149.875,628.7031 Q150.1094,628.9531 150.1094,629.5625 L150.1094,631.0156 Q150.1094,631.625 149.875,631.8906 Q149.6406,632.1563 149.2656,632.1563 Q148.9219,632.1563 148.7188,631.9531 Q148.5156,631.7656 148.4063,631.25 Q148.3594,630.8906 148.1719,630.7031 Q147.8438,630.3281 147.2344,630.1094 Q146.625,629.8906 146,629.8906 Q145.2344,629.8906 144.5938,630.2188 Q143.9688,630.5469 143.4688,631.2969 Q142.9844,632.0469 142.9844,633.0781 L142.9844,634.1719 Q142.9844,635.4063 143.875,636.2344 Q144.7656,637.0469 146.3594,637.0469 Q147.2969,637.0469 147.9531,636.7969 Q148.3438,636.6406 148.7656,636.2031 Q149.0313,635.9375 149.1719,635.8594 Q149.3281,635.7813 149.5313,635.7813 Q149.8594,635.7813 150.1094,636.0469 Q150.375,636.2969 150.375,636.6406 Q150.375,636.9844 150.0313,637.3906 Q149.5313,637.9688 148.7344,638.2969 Q147.6563,638.75 146.3594,638.75 Q144.8438,638.75 143.6406,638.125 Q142.6563,637.625 141.9688,636.5625 Q141.2813,635.4844 141.2813,634.2031 L141.2813,633.0469 Q141.2813,631.7188 141.8906,630.5781 Q142.5156,629.4219 143.6094,628.8125 Q144.7031,628.1875 145.9375,628.1875 Q146.6719,628.1875 147.3125,628.3594 Q147.9688,628.5156 148.5156,628.875 Z "/><text fill="#000000" font-family="sans-serif" font-size="12" lengthAdjust="spacingAndGlyphs" textLength="84" x="166.25" y="637.9102">RegistPayment</text><line style="stroke: #A80036; stroke-width: 1.5;" x1="60" x2="324" y1="649" y2="649"/><line style="stroke: #A80036; stroke-width: 1.5;" x1="60" x2="324" y1="657" y2="657"/><text fill="#000000" font-family="sans-serif" font-size="11" lengthAdjust="spacingAndGlyphs" textLength="254" x="65" y="672.4189">+makePayments(ListTransaction lt, Organization org)</text><text fill="#000000" font-family="sans-serif" font-size="11" lengthAdjust="spacingAndGlyphs" textLength="115" x="65" y="686.2549">-add(Payment payment)</text><!--MD5=[764fca796ce7f635542948d8fc39db5e]
class Payment--><rect fill="#FEFECE" filter="url(#f1cwj019boc45o)" height="61.8359" id="Payment" style="stroke: #A80036; stroke-width: 1.5;" width="216" x="109" y="801"/><ellipse cx="188.75" cy="817" fill="#ADD1B2" rx="11" ry="11" style="stroke: #A80036; stroke-width: 1.0;"/><path d="M191.5156,812.875 Q191.6719,812.6563 191.8594,812.5469 Q192.0469,812.4375 192.2656,812.4375 Q192.6406,812.4375 192.875,812.7031 Q193.1094,812.9531 193.1094,813.5625 L193.1094,815.0156 Q193.1094,815.625 192.875,815.8906 Q192.6406,816.1563 192.2656,816.1563 Q191.9219,816.1563 191.7188,815.9531 Q191.5156,815.7656 191.4063,815.25 Q191.3594,814.8906 191.1719,814.7031 Q190.8438,814.3281 190.2344,814.1094 Q189.625,813.8906 189,813.8906 Q188.2344,813.8906 187.5938,814.2188 Q186.9688,814.5469 186.4688,815.2969 Q185.9844,816.0469 185.9844,817.0781 L185.9844,818.1719 Q185.9844,819.4063 186.875,820.2344 Q187.7656,821.0469 189.3594,821.0469 Q190.2969,821.0469 190.9531,820.7969 Q191.3438,820.6406 191.7656,820.2031 Q192.0313,819.9375 192.1719,819.8594 Q192.3281,819.7813 192.5313,819.7813 Q192.8594,819.7813 193.1094,820.0469 Q193.375,820.2969 193.375,820.6406 Q193.375,820.9844 193.0313,821.3906 Q192.5313,821.9688 191.7344,822.2969 Q190.6563,822.75 189.3594,822.75 Q187.8438,822.75 186.6406,822.125 Q185.6563,821.625 184.9688,820.5625 Q184.2813,819.4844 184.2813,818.2031 L184.2813,817.0469 Q184.2813,815.7188 184.8906,814.5781 Q185.5156,813.4219 186.6094,812.8125 Q187.7031,812.1875 188.9375,812.1875 Q189.6719,812.1875 190.3125,812.3594 Q190.9688,812.5156 191.5156,812.875 Z "/><text fill="#000000" font-family="sans-serif" font-size="12" lengthAdjust="spacingAndGlyphs" textLength="48" x="209.25" y="821.9102">Payment</text><line style="stroke: #A80036; stroke-width: 1.5;" x1="110" x2="324" y1="833" y2="833"/><line style="stroke: #A80036; stroke-width: 1.5;" x1="110" x2="324" y1="841" y2="841"/><text fill="#000000" font-family="sans-serif" font-size="11" lengthAdjust="spacingAndGlyphs" textLength="204" x="115" y="856.4189">+create(Transaction trs, Organization org)</text><!--MD5=[e09e0019787cf83947156283bb671e06]
class RegistOrganization--><rect fill="#FEFECE" filter="url(#f1cwj019boc45o)" height="48" id="RegistOrganization" style="stroke: #A80036; stroke-width: 1.5;" width="137" x="401.5" y="723"/><ellipse cx="416.5" cy="739" fill="#ADD1B2" rx="11" ry="11" style="stroke: #A80036; stroke-width: 1.0;"/><path d="M419.2656,734.875 Q419.4219,734.6563 419.6094,734.5469 Q419.7969,734.4375 420.0156,734.4375 Q420.3906,734.4375 420.625,734.7031 Q420.8594,734.9531 420.8594,735.5625 L420.8594,737.0156 Q420.8594,737.625 420.625,737.8906 Q420.3906,738.1563 420.0156,738.1563 Q419.6719,738.1563 419.4688,737.9531 Q419.2656,737.7656 419.1563,737.25 Q419.1094,736.8906 418.9219,736.7031 Q418.5938,736.3281 417.9844,736.1094 Q417.375,735.8906 416.75,735.8906 Q415.9844,735.8906 415.3438,736.2188 Q414.7188,736.5469 414.2188,737.2969 Q413.7344,738.0469 413.7344,739.0781 L413.7344,740.1719 Q413.7344,741.4063 414.625,742.2344 Q415.5156,743.0469 417.1094,743.0469 Q418.0469,743.0469 418.7031,742.7969 Q419.0938,742.6406 419.5156,742.2031 Q419.7813,741.9375 419.9219,741.8594 Q420.0781,741.7813 420.2813,741.7813 Q420.6094,741.7813 420.8594,742.0469 Q421.125,742.2969 421.125,742.6406 Q421.125,742.9844 420.7813,743.3906 Q420.2813,743.9688 419.4844,744.2969 Q418.4063,744.75 417.1094,744.75 Q415.5938,744.75 414.3906,744.125 Q413.4063,743.625 412.7188,742.5625 Q412.0313,741.4844 412.0313,740.2031 L412.0313,739.0469 Q412.0313,737.7188 412.6406,736.5781 Q413.2656,735.4219 414.3594,734.8125 Q415.4531,734.1875 416.6875,734.1875 Q417.4219,734.1875 418.0625,734.3594 Q418.7188,734.5156 419.2656,734.875 Z "/><text fill="#000000" font-family="sans-serif" font-size="12" lengthAdjust="spacingAndGlyphs" textLength="105" x="430.5" y="743.9102">RegistOrganization</text><line style="stroke: #A80036; stroke-width: 1.5;" x1="402.5" x2="537.5" y1="755" y2="755"/><line style="stroke: #A80036; stroke-width: 1.5;" x1="402.5" x2="537.5" y1="763" y2="763"/><!--MD5=[1b844c90688aafb95cd8c95626c3b83a]
class Timer--><rect fill="#FEFECE" filter="url(#f1cwj019boc45o)" height="48" id="Timer" style="stroke: #A80036; stroke-width: 1.5;" width="64" x="93" y="217"/><ellipse cx="108" cy="233" fill="#ADD1B2" rx="11" ry="11" style="stroke: #A80036; stroke-width: 1.0;"/><path d="M110.7656,228.875 Q110.9219,228.6563 111.1094,228.5469 Q111.2969,228.4375 111.5156,228.4375 Q111.8906,228.4375 112.125,228.7031 Q112.3594,228.9531 112.3594,229.5625 L112.3594,231.0156 Q112.3594,231.625 112.125,231.8906 Q111.8906,232.1563 111.5156,232.1563 Q111.1719,232.1563 110.9688,231.9531 Q110.7656,231.7656 110.6563,231.25 Q110.6094,230.8906 110.4219,230.7031 Q110.0938,230.3281 109.4844,230.1094 Q108.875,229.8906 108.25,229.8906 Q107.4844,229.8906 106.8438,230.2188 Q106.2188,230.5469 105.7188,231.2969 Q105.2344,232.0469 105.2344,233.0781 L105.2344,234.1719 Q105.2344,235.4063 106.125,236.2344 Q107.0156,237.0469 108.6094,237.0469 Q109.5469,237.0469 110.2031,236.7969 Q110.5938,236.6406 111.0156,236.2031 Q111.2813,235.9375 111.4219,235.8594 Q111.5781,235.7813 111.7813,235.7813 Q112.1094,235.7813 112.3594,236.0469 Q112.625,236.2969 112.625,236.6406 Q112.625,236.9844 112.2813,237.3906 Q111.7813,237.9688 110.9844,238.2969 Q109.9063,238.75 108.6094,238.75 Q107.0938,238.75 105.8906,238.125 Q104.9063,237.625 104.2188,236.5625 Q103.5313,235.4844 103.5313,234.2031 L103.5313,233.0469 Q103.5313,231.7188 104.1406,230.5781 Q104.7656,229.4219 105.8594,228.8125 Q106.9531,228.1875 108.1875,228.1875 Q108.9219,228.1875 109.5625,228.3594 Q110.2188,228.5156 110.7656,228.875 Z "/><text fill="#000000" font-family="sans-serif" font-size="12" lengthAdjust="spacingAndGlyphs" textLength="32" x="122" y="237.9102">Timer</text><line style="stroke: #A80036; stroke-width: 1.5;" x1="94" x2="156" y1="249" y2="249"/><line style="stroke: #A80036; stroke-width: 1.5;" x1="94" x2="156" y1="257" y2="257"/><!--MD5=[1cb21011969cc62c73f846209be643c8]
link App to EmailAPI--><path d="M566.772,539.2 C596.85,565.76 633,607.382 633,654 C633,654 633,654 633,1147.5 C633,1198.273 630.372,1257.402 628.594,1291.584 " fill="none" id="App-&gt;EmailAPI" style="stroke: #A80036; stroke-width: 1.0;"/><polygon fill="#A80036" points="628.317,1296.851,632.7846,1288.0737,628.5799,1291.8579,624.7957,1287.6532,628.317,1296.851" style="stroke: #A80036; stroke-width: 1.0;"/><text fill="#000000" font-family="sans-serif" font-size="13" lengthAdjust="spacingAndGlyphs" textLength="21" x="634" y="907.4951">has</text><text fill="#000000" font-family="sans-serif" font-size="13" lengthAdjust="spacingAndGlyphs" textLength="7" x="566.6864" y="560.2168">1</text><text fill="#000000" font-family="sans-serif" font-size="13" lengthAdjust="spacingAndGlyphs" textLength="7" x="620.7576" y="1286.153">1</text><!--MD5=[c476b523f9294f20b13319074aa597a2]
link App to PaymentAPI--><path d="M583.113,524.64 C640.408,544.44 721,584.62 721,654 C721,654 721,654 721,1322 C721,1391.29 663.437,1452.86 620.849,1488.932 " fill="none" id="App-&gt;PaymentAPI" style="stroke: #A80036; stroke-width: 1.0;"/><polygon fill="#A80036" points="616.776,1492.343,626.2441,1489.631,620.6092,1489.1327,621.1076,1483.4978,616.776,1492.343" style="stroke: #A80036; stroke-width: 1.0;"/><text fill="#000000" font-family="sans-serif" font-size="13" lengthAdjust="spacingAndGlyphs" textLength="21" x="722" y="984.4951">has</text><text fill="#000000" font-family="sans-serif" font-size="13" lengthAdjust="spacingAndGlyphs" textLength="7" x="591.1235" y="523.3308">1</text><text fill="#000000" font-family="sans-serif" font-size="13" lengthAdjust="spacingAndGlyphs" textLength="7" x="617.4642" y="1481.8152">1</text><!--MD5=[15621898c24993a7abe6c20ba102243b]
link App to RegistPayment--><path d="M470.929,533.27 C419.464,555.55 342.315,588.94 282.19,614.963 " fill="none" id="App-&gt;RegistPayment" style="stroke: #A80036; stroke-width: 1.0;"/><polygon fill="#A80036" points="277.526,616.981,287.3744,617.0776,282.1148,614.9952,284.1971,609.7356,277.526,616.981" style="stroke: #A80036; stroke-width: 1.0;"/><text fill="#000000" font-family="sans-serif" font-size="13" lengthAdjust="spacingAndGlyphs" textLength="21" x="381" y="583.4951">has</text><text fill="#000000" font-family="sans-serif" font-size="13" lengthAdjust="spacingAndGlyphs" textLength="7" x="455.9241" y="533.1204">1</text><text fill="#000000" font-family="sans-serif" font-size="13" lengthAdjust="spacingAndGlyphs" textLength="7" x="285.6495" y="606.0528">1</text><!--MD5=[34f9f932fd778d30fdc72ceaaad0e98f]
link App to RegistOrganization--><path d="M519.781,539.02 C508.676,585.19 487.554,673.011 476.743,717.963 " fill="none" id="App-&gt;RegistOrganization" style="stroke: #A80036; stroke-width: 1.0;"/><polygon fill="#A80036" points="475.54,722.964,481.5349,715.1498,476.7099,718.1028,473.7569,713.2779,475.54,722.964" style="stroke: #A80036; stroke-width: 1.0;"/><text fill="#000000" font-family="sans-serif" font-size="13" lengthAdjust="spacingAndGlyphs" textLength="21" x="512" y="583.4951">has</text><text fill="#000000" font-family="sans-serif" font-size="13" lengthAdjust="spacingAndGlyphs" textLength="7" x="510.6707" y="560.2479">1</text><text fill="#000000" font-family="sans-serif" font-size="13" lengthAdjust="spacingAndGlyphs" textLength="7" x="469.0628" y="712.2949">1</text><!--MD5=[939acada67c666032ddf52a0068bc128]
link App to MonetaryUnitConversionAPI--><path d="M538.654,539.04 C548.836,568.02 562,613.342 562,654 C562,654 562,654 562,1147.5 C562,1205.821 518.061,1261.545 487.58,1293.186 " fill="none" id="App-&gt;MonetaryUnitConversionAPI" style="stroke: #A80036; stroke-width: 1.0;"/><polygon fill="#A80036" points="483.933,1296.924,493.0804,1293.2736,487.424,1293.3445,487.3531,1287.6881,483.933,1296.924" style="stroke: #A80036; stroke-width: 1.0;"/><text fill="#000000" font-family="sans-serif" font-size="13" lengthAdjust="spacingAndGlyphs" textLength="21" x="563" y="907.4951">has</text><text fill="#000000" font-family="sans-serif" font-size="13" lengthAdjust="spacingAndGlyphs" textLength="7" x="533.2593" y="560.2719">1</text><text fill="#000000" font-family="sans-serif" font-size="13" lengthAdjust="spacingAndGlyphs" textLength="7" x="482.4252" y="1286.2447">1</text><!--MD5=[3f8b7558f43bda44723ecf40355dbb38]
link Timer to MakePaymentTask--><path d="M153.432,265.18 C172.978,281.12 199.633,302.85 223.606,322.39 " fill="none" id="Timer-&gt;MakePaymentTask" style="stroke: #A80036; stroke-width: 1.0; stroke-dasharray: 7.0,7.0;"/><polygon fill="#A80036" points="227.738,325.76,223.2773,316.9792,223.8581,322.6062,218.2312,323.187,227.738,325.76" style="stroke: #A80036; stroke-width: 1.0;"/><!--MD5=[c4629210b2ba88e64afbee18491f07dd]
link Payment to Transaction--><path d="M218.607,863.097 C222.958,944.589 234.999,1170.142 240.363,1270.611 " fill="none" id="Payment-&gt;Transaction" style="stroke: #A80036; stroke-width: 1.0;"/><polygon fill="#A80036" points="240.645,1275.883,244.1586,1266.6822,240.3779,1270.8901,236.17,1267.1095,240.645,1275.883" style="stroke: #A80036; stroke-width: 1.0;"/><text fill="#000000" font-family="sans-serif" font-size="13" lengthAdjust="spacingAndGlyphs" textLength="37" x="231" y="1061.4951">knows</text><text fill="#000000" font-family="sans-serif" font-size="13" lengthAdjust="spacingAndGlyphs" textLength="7" x="211.2343" y="884.3401">1</text><text fill="#000000" font-family="sans-serif" font-size="13" lengthAdjust="spacingAndGlyphs" textLength="23" x="215.4369" y="1264.9798">1,...</text><!--MD5=[c9e7bf11fbb39a4b7f8255480c211d61]
link Payment to Organization--><path d="M250.359,863.044 C274.238,884.549 306.66,913.75 332.852,937.339 " fill="none" id="Payment-&gt;Organization" style="stroke: #A80036; stroke-width: 1.0;"/><polygon fill="#A80036" points="336.669,940.777,332.6573,931.7822,332.9533,937.4313,327.3042,937.7273,336.669,940.777" style="stroke: #A80036; stroke-width: 1.0;"/><text fill="#000000" font-family="sans-serif" font-size="13" lengthAdjust="spacingAndGlyphs" textLength="37" x="304" y="907.4951">knows</text><text fill="#000000" font-family="sans-serif" font-size="13" lengthAdjust="spacingAndGlyphs" textLength="5" x="251.4344" y="884.2767">*</text><text fill="#000000" font-family="sans-serif" font-size="13" lengthAdjust="spacingAndGlyphs" textLength="7" x="321.6835" y="930.0992">1</text><!--MD5=[c4d304e021406f0669e27c527a415194]
link Transaction to PaymentAPI--><path d="M316.078,1366.001 C378.12,1403.356 465.749,1456.118 521.723,1489.82 " fill="none" id="Transaction-&gt;PaymentAPI" style="stroke: #A80036; stroke-width: 1.0; stroke-dasharray: 7.0,7.0;"/><polygon fill="#A80036" points="526.032,1492.414,520.3848,1484.345,521.7484,1489.835,516.2584,1491.1987,526.032,1492.414" style="stroke: #A80036; stroke-width: 1.0;"/><!--MD5=[542f32193441b56ea302115ed1249c3b]
link Transaction to Freelancer--><path d="M243,1366.001 C243,1387.309 243,1413.631 243,1438.568 " fill="none" id="Transaction-&gt;Freelancer" style="stroke: #A80036; stroke-width: 1.0;"/><polygon fill="#A80036" points="243,1443.866,247,1434.866,243,1438.866,239,1434.866,243,1443.866" style="stroke: #A80036; stroke-width: 1.0;"/><text fill="#000000" font-family="sans-serif" font-size="13" lengthAdjust="spacingAndGlyphs" textLength="37" x="244" y="1410.4951">knows</text><text fill="#000000" font-family="sans-serif" font-size="13" lengthAdjust="spacingAndGlyphs" textLength="5" x="237.6484" y="1387.0087">*</text><text fill="#000000" font-family="sans-serif" font-size="13" lengthAdjust="spacingAndGlyphs" textLength="7" x="235.6664" y="1433.0401">1</text><!--MD5=[eddc38b6bc72bc48b6f4e6dee3f36f26]
link Organization to ListTransaction--><path d="M388.548,1017.141 C394.637,1038.584 402.414,1065.969 409.219,1089.932 " fill="none" id="Organization-&gt;ListTransaction" style="stroke: #A80036; stroke-width: 1.0;"/><polygon fill="#A80036" points="410.656,1094.99,412.0457,1085.2397,409.2903,1090.1801,404.3499,1087.4248,410.656,1094.99" style="stroke: #A80036; stroke-width: 1.0;"/><text fill="#000000" font-family="sans-serif" font-size="13" lengthAdjust="spacingAndGlyphs" textLength="21" x="403" y="1061.4951">has</text><text fill="#000000" font-family="sans-serif" font-size="13" lengthAdjust="spacingAndGlyphs" textLength="7" x="382.6713" y="1038.044">1</text><text fill="#000000" font-family="sans-serif" font-size="13" lengthAdjust="spacingAndGlyphs" textLength="7" x="401.1467" y="1084.1171">1</text><!--MD5=[5f4f57afaa4ed75c0a27618a4620afc1]
link Organization to PaymentScheduler--><path d="M320.283,967.899 C215.795,947.96 6,899.63 6,833 C6,240 6,240 6,240 C6,200.42 29.8227,167.9 60.3243,142.48 " fill="none" id="Organization-&gt;PaymentScheduler" style="stroke: #A80036; stroke-width: 1.0;"/><polygon fill="#A80036" points="64.4716,139.1,54.9698,141.6916,60.5979,142.2614,60.0281,147.8895,64.4716,139.1" style="stroke: #A80036; stroke-width: 1.0;"/><text fill="#000000" font-family="sans-serif" font-size="13" lengthAdjust="spacingAndGlyphs" textLength="21" x="7" y="513.4951">has</text><text fill="#000000" font-family="sans-serif" font-size="13" lengthAdjust="spacingAndGlyphs" textLength="7" x="305.4396" y="962.9903">1</text><text fill="#000000" font-family="sans-serif" font-size="13" lengthAdjust="spacingAndGlyphs" textLength="7" x="43.3591" y="160.6635">1</text><!--MD5=[cc0ce8ec080b096d19ae792b7c778278]
link RegistPayment to Payment--><path d="M197.302,693.113 C201.638,723.463 207.726,766.082 211.983,795.879 " fill="none" id="RegistPayment-&gt;Payment" style="stroke: #A80036; stroke-width: 1.0;"/><polygon fill="#A80036" points="212.702,800.916,215.389,791.4408,211.9949,795.9663,207.4694,792.5721,212.702,800.916" style="stroke: #A80036; stroke-width: 1.0;"/><text fill="#000000" font-family="sans-serif" font-size="13" lengthAdjust="spacingAndGlyphs" textLength="21" x="210" y="752.4951">has</text><text fill="#000000" font-family="sans-serif" font-size="13" lengthAdjust="spacingAndGlyphs" textLength="7" x="190.6005" y="714.3019">1</text><text fill="#000000" font-family="sans-serif" font-size="13" lengthAdjust="spacingAndGlyphs" textLength="5" x="206.2149" y="789.9179">*</text><!--MD5=[5bc67783950c5c8ea01850a4fb11e0ff]
link MakePaymentTask to App--><path d="M361.883,416.02 C396.355,435.01 435.97,456.84 467.755,474.35 " fill="none" id="MakePaymentTask-&gt;App" style="stroke: #A80036; stroke-width: 1.0; stroke-dasharray: 7.0,7.0;"/><polygon fill="#A80036" points="472.386,476.91,466.4287,469.0671,468.0052,474.4999,462.5725,476.0764,472.386,476.91" style="stroke: #A80036; stroke-width: 1.0;"/><!--MD5=[dfcd1ebd91c1b15ae9e85c323f7cd20a]
link MakePaymentTask to Organization--><path d="M294.851,416.31 C308.525,465.08 329.828,546 342,617 C361.603,731.35 371.634,868.043 375.719,935.724 " fill="none" id="MakePaymentTask-&gt;Organization" style="stroke: #A80036; stroke-width: 1.0; stroke-dasharray: 7.0,7.0;"/><polygon fill="#A80036" points="376.026,940.871,379.4841,931.6492,375.7289,935.8798,371.4982,932.1246,376.026,940.871" style="stroke: #A80036; stroke-width: 1.0;"/><!--MD5=[ff2df7973005010da745d0206fea9a54]
link MakePaymentTask to RegistPayment--><path d="M267.938,416.06 C250.84,469.64 222.192,559.4 205.399,612.015 " fill="none" id="MakePaymentTask-&gt;RegistPayment" style="stroke: #A80036; stroke-width: 1.0; stroke-dasharray: 7.0,7.0;"/><polygon fill="#A80036" points="203.812,616.989,210.3583,609.6306,205.3317,612.2256,202.7368,607.199,203.812,616.989" style="stroke: #A80036; stroke-width: 1.0;"/><!--MD5=[e5b57313444b32b42b4387f12821cd18]
link MakePaymentTask to PaymentScheduler--><path d="M268.264,325.88 C253.333,277.92 229.265,200.62 211.757,144.38 " fill="none" id="MakePaymentTask-&gt;PaymentScheduler" style="stroke: #A80036; stroke-width: 1.0;"/><polygon fill="#A80036" points="210.19,139.35,209.0449,149.1321,211.6757,144.1242,216.6836,146.755,210.19,139.35" style="stroke: #A80036; stroke-width: 1.0;"/><text fill="#000000" font-family="sans-serif" font-size="13" lengthAdjust="spacingAndGlyphs" textLength="37" x="250" y="246.4951">knows</text><text fill="#000000" font-family="sans-serif" font-size="13" lengthAdjust="spacingAndGlyphs" textLength="7" x="258.6247" y="315.3057">1</text><text fill="#000000" font-family="sans-serif" font-size="13" lengthAdjust="spacingAndGlyphs" textLength="7" x="204.9112" y="160.4782">1</text><!--MD5=[311fcdaab1c80d93ce10f7851a8df4c5]
link PaymentScheduler to MakePaymentTask--><path d="M251.836,139.34 C269.642,162.12 286.743,189.05 296,217 C307.057,250.39 303.008,289.98 296.482,320.52 " fill="none" id="PaymentScheduler-&gt;MakePaymentTask" style="stroke: #A80036; stroke-width: 1.0;"/><polygon fill="#A80036" points="295.326,325.73,301.1846,317.8131,296.4116,320.8493,293.3754,316.0762,295.326,325.73" style="stroke: #A80036; stroke-width: 1.0;"/><text fill="#000000" font-family="sans-serif" font-size="13" lengthAdjust="spacingAndGlyphs" textLength="21" x="304" y="246.4951">has</text><text fill="#000000" font-family="sans-serif" font-size="13" lengthAdjust="spacingAndGlyphs" textLength="7" x="250.8519" y="160.4672">1</text><text fill="#000000" font-family="sans-serif" font-size="13" lengthAdjust="spacingAndGlyphs" textLength="7" x="289.8306" y="315.1327">1</text><!--MD5=[a9895c86d8f8cbf121b60f477a5a70cd]
link ListTransaction to EmailAPI--><path d="M484.242,1198.09 C520.897,1229.392 566.457,1268.299 596.108,1293.619 " fill="none" id="ListTransaction-&gt;EmailAPI" style="stroke: #A80036; stroke-width: 1.0; stroke-dasharray: 7.0,7.0;"/><polygon fill="#A80036" points="600.003,1296.946,595.7561,1288.0599,596.2006,1293.6992,590.5612,1294.1437,600.003,1296.946" style="stroke: #A80036; stroke-width: 1.0;"/><!--MD5=[71d2e20b7b04e36d280b22ce75f9673c]
link ListTransaction to Transaction--><path d="M371.378,1198.323 C346.695,1221.718 317.571,1249.322 293.307,1272.319 " fill="none" id="ListTransaction-&gt;Transaction" style="stroke: #A80036; stroke-width: 1.0;"/><polygon fill="#A80036" points="289.456,1275.969,298.7394,1272.6799,293.0846,1272.529,293.2354,1266.8742,289.456,1275.969" style="stroke: #A80036; stroke-width: 1.0;"/><text fill="#000000" font-family="sans-serif" font-size="13" lengthAdjust="spacingAndGlyphs" textLength="21" x="341" y="1242.4951">has</text><text fill="#000000" font-family="sans-serif" font-size="13" lengthAdjust="spacingAndGlyphs" textLength="7" x="356.7022" y="1219.8574">1</text><text fill="#000000" font-family="sans-serif" font-size="13" lengthAdjust="spacingAndGlyphs" textLength="5" x="291.4615" y="1265.0795">*</text><!--MD5=[fa07de2ecf66d3cbd650cd32d77e9e29]
link ListTransaction to MonetaryUnitConversionAPI--><path d="M435.017,1198.323 C441.016,1228.755 448.418,1266.31 453.399,1291.581 " fill="none" id="ListTransaction-&gt;MonetaryUnitConversionAPI" style="stroke: #A80036; stroke-width: 1.0; stroke-dasharray: 7.0,7.0;"/><polygon fill="#A80036" points="454.423,1296.781,456.6067,1287.1773,453.4559,1291.8754,448.7577,1288.7247,454.423,1296.781" style="stroke: #A80036; stroke-width: 1.0;"/><!--MD5=[11bbebcc76a599afaa64365ce126e922]
link PaymentScheduler to Timer--><path d="M164.497,139.43 C154.595,164.65 143.783,192.18 135.979,212.05 " fill="none" id="PaymentScheduler-&gt;Timer" style="stroke: #A80036; stroke-width: 1.0;"/><polygon fill="#A80036" points="134.062,216.93,141.076,210.016,135.8904,212.2763,133.6301,207.0906,134.062,216.93" style="stroke: #A80036; stroke-width: 1.0;"/><text fill="#000000" font-family="sans-serif" font-size="13" lengthAdjust="spacingAndGlyphs" textLength="21" x="153" y="183.4951">has</text><text fill="#000000" font-family="sans-serif" font-size="13" lengthAdjust="spacingAndGlyphs" textLength="7" x="154.5061" y="160.5665">1</text><text fill="#000000" font-family="sans-serif" font-size="13" lengthAdjust="spacingAndGlyphs" textLength="7" x="128.4873" y="206.2522">1</text><!--MD5=[b2767384522f615c85a28d92ddf7f4b1]
link RegistOrganization to Organization--><path d="M460.672,771.319 C445.259,809.853 414.257,887.359 394.906,935.735 " fill="none" id="RegistOrganization-&gt;Organization" style="stroke: #A80036; stroke-width: 1.0;"/><polygon fill="#A80036" points="392.954,940.614,400.0112,933.744,394.8114,935.9718,392.5837,930.7721,392.954,940.614" style="stroke: #A80036; stroke-width: 1.0;"/><text fill="#000000" font-family="sans-serif" font-size="13" lengthAdjust="spacingAndGlyphs" textLength="21" x="449" y="837.4951">has</text><text fill="#000000" font-family="sans-serif" font-size="13" lengthAdjust="spacingAndGlyphs" textLength="7" x="450.7055" y="792.3285">1</text><text fill="#000000" font-family="sans-serif" font-size="13" lengthAdjust="spacingAndGlyphs" textLength="5" x="390.0945" y="930.1949">*</text><!--MD5=[45d9cf5ee1d8096010011564d99f649f]
@startuml CD
skinparam classAttributeIconSize 0
top to bottom direction

class PaymentScheduler {
        - Integer dayMonth
        - LocalTime timeOfDay
        + create (Integer day, LoaclTime timeOfDay, Organization org)
        + resetTime(Integer dayMonth, LocalTime timeOfDay)
        + scheduleNestMonth()
        + getNextDate()
}

class MakePaymentTask {
        + create(Organization org, PaymentScheduler scheduler)
        + run()
        - makePayments()
}

class App {
        + getRegistPayment()
}

class PaymentAPI {
        + payTO(Double eur, String IBAN)
}

class EmailAPI {

}

class MonetaryUnitConversionAPI {

}

class Organization {
        - String nome
        + getListTransaction()
}

class ListTransaction {
        + getTransaction(ID)
        + remove(Transaction trs)
        + add(Transaction trs)
        + emailAboutPayment()
}

class Transaction {
        + makeBankTransfer(Organization)
        + getAmmountToPay()
        - getFreelancerIBAN()
}

class Freelancer {
        - String id
        - String name
        - String levelOfExpertise
        - String email
        - String NIF
        - String bankAccountIBAN
        - String address
        - String country
}

class RegistPayment {
        + makePayments(ListTransaction lt, Organization org)
        - add(Payment payment)
}

class Payment {
        + create(Transaction trs, Organization org)
}


App                          "1" - -> "1"      EmailAPI                  : has
App                          "1" - -> "1"      PaymentAPI                : has
App                          "1" - -> "1"      RegistPayment             : has
App                          "1" - -> "1"      RegistOrganization        : has
App                          "1" - -> "1"      MonetaryUnitConversionAPI : has
Timer                            ..>          MakePaymentTask
Payment                      "1" - -> "1,..."  Transaction               : knows
Payment                      "*" - -> "1"      Organization              : knows
Transaction                      ..>          PaymentAPI
Transaction                  "*" - -> "1"      Freelancer                : knows
Organization                 "1" - -> "1"      ListTransaction           : has
Organization                 "1" - -> "1"      PaymentScheduler          : has
RegistPayment                "1" - -> "*"      Payment                   : has
MakePaymentTask                  ..>          App
MakePaymentTask                  ..>          Organization
MakePaymentTask                  ..>          RegistPayment
MakePaymentTask              "1" - -> "1"      PaymentScheduler          : knows
ListTransaction                  ..>          EmailAPI
ListTransaction              "1" - -> "*"      Transaction               : has
ListTransaction                  ..>          MonetaryUnitConversionAPI
PaymentScheduler             "1" - -> "1"      Timer                     : has
PaymentScheduler             "1" - -> "1"      MakePaymentTask           : has
RegistOrganization           "1" - -> "*"      Organization              : has

@enduml

PlantUML version 1.2020.10(Sun May 17 10:35:57 WEST 2020)
(GPL source distribution)
Java Runtime: OpenJDK Runtime Environment
JVM: OpenJDK 64-Bit Server VM
Java Version: 14+36
Operating System: Windows 10
Default Encoding: Cp1252
Language: en
Country: US
--></g></svg>