<?xml version="1.0" encoding="UTF-8" standalone="no"?><svg xmlns="http://www.w3.org/2000/svg" xmlns:xlink="http://www.w3.org/1999/xlink" contentScriptType="application/ecmascript" contentStyleType="text/css" height="1390px" preserveAspectRatio="none" style="width:807px;height:1390px;" version="1.1" viewBox="0 0 807 1390" width="807px" zoomAndPan="magnify"><defs><filter height="300%" id="f1mqa0u8i6csbz" width="300%" x="-1" y="-1"><feGaussianBlur result="blurOut" stdDeviation="2.0"/><feColorMatrix in="blurOut" result="blurOut2" type="matrix" values="0 0 0 0 0 0 0 0 0 0 0 0 0 0 0 0 0 0 .4 0"/><feOffset dx="4.0" dy="4.0" in="blurOut2" result="blurOut3"/><feBlend in="SourceGraphic" in2="blurOut3" mode="normal"/></filter></defs><g><!--MD5=[dc84a4e894a42f8e8d7fc762e5a59f92]
class PaymentScheduler--><rect fill="#FEFECE" filter="url(#f1mqa0u8i6csbz)" height="131.0156" id="PaymentScheduler" style="stroke: #A80036; stroke-width: 1.5;" width="307" x="166.5" y="8"/><ellipse cx="263.75" cy="24" fill="#ADD1B2" rx="11" ry="11" style="stroke: #A80036; stroke-width: 1.0;"/><path d="M266.5156,19.875 Q266.6719,19.6563 266.8594,19.5469 Q267.0469,19.4375 267.2656,19.4375 Q267.6406,19.4375 267.875,19.7031 Q268.1094,19.9531 268.1094,20.5625 L268.1094,22.0156 Q268.1094,22.625 267.875,22.8906 Q267.6406,23.1563 267.2656,23.1563 Q266.9219,23.1563 266.7188,22.9531 Q266.5156,22.7656 266.4063,22.25 Q266.3594,21.8906 266.1719,21.7031 Q265.8438,21.3281 265.2344,21.1094 Q264.625,20.8906 264,20.8906 Q263.2344,20.8906 262.5938,21.2188 Q261.9688,21.5469 261.4688,22.2969 Q260.9844,23.0469 260.9844,24.0781 L260.9844,25.1719 Q260.9844,26.4063 261.875,27.2344 Q262.7656,28.0469 264.3594,28.0469 Q265.2969,28.0469 265.9531,27.7969 Q266.3438,27.6406 266.7656,27.2031 Q267.0313,26.9375 267.1719,26.8594 Q267.3281,26.7813 267.5313,26.7813 Q267.8594,26.7813 268.1094,27.0469 Q268.375,27.2969 268.375,27.6406 Q268.375,27.9844 268.0313,28.3906 Q267.5313,28.9688 266.7344,29.2969 Q265.6563,29.75 264.3594,29.75 Q262.8438,29.75 261.6406,29.125 Q260.6563,28.625 259.9688,27.5625 Q259.2813,26.4844 259.2813,25.2031 L259.2813,24.0469 Q259.2813,22.7188 259.8906,21.5781 Q260.5156,20.4219 261.6094,19.8125 Q262.7031,19.1875 263.9375,19.1875 Q264.6719,19.1875 265.3125,19.3594 Q265.9688,19.5156 266.5156,19.875 Z "/><text fill="#000000" font-family="sans-serif" font-size="12" lengthAdjust="spacingAndGlyphs" textLength="104" x="284.25" y="28.9102">PaymentScheduler</text><line style="stroke: #A80036; stroke-width: 1.5;" x1="167.5" x2="472.5" y1="40" y2="40"/><text fill="#000000" font-family="sans-serif" font-size="11" lengthAdjust="spacingAndGlyphs" textLength="87" x="172.5" y="55.4189">-Integer dayMonth</text><text fill="#000000" font-family="sans-serif" font-size="11" lengthAdjust="spacingAndGlyphs" textLength="105" x="172.5" y="69.2549">-LocalTime timeOfDay</text><line style="stroke: #A80036; stroke-width: 1.5;" x1="167.5" x2="472.5" y1="75.6719" y2="75.6719"/><text fill="#000000" font-family="sans-serif" font-size="11" lengthAdjust="spacingAndGlyphs" textLength="295" x="172.5" y="91.0908">+create (Integer day, LoaclTime timeOfDay, Organization org)</text><text fill="#000000" font-family="sans-serif" font-size="11" lengthAdjust="spacingAndGlyphs" textLength="251" x="172.5" y="104.9268">+resetTime(Integer dayMonth, LocalTime timeOfDay)</text><text fill="#000000" font-family="sans-serif" font-size="11" lengthAdjust="spacingAndGlyphs" textLength="109" x="172.5" y="118.7627">+scheduleNestMonth()</text><text fill="#000000" font-family="sans-serif" font-size="11" lengthAdjust="spacingAndGlyphs" textLength="73" x="172.5" y="132.5986">+getNextDate()</text><!--MD5=[eb1ab569dc5baf9282d4d315063bd4a9]
class MakePaymentTask--><rect fill="#FEFECE" filter="url(#f1mqa0u8i6csbz)" height="89.5078" id="MakePaymentTask" style="stroke: #A80036; stroke-width: 1.5;" width="284" x="266" y="326"/><ellipse cx="351.75" cy="342" fill="#ADD1B2" rx="11" ry="11" style="stroke: #A80036; stroke-width: 1.0;"/><path d="M354.5156,337.875 Q354.6719,337.6563 354.8594,337.5469 Q355.0469,337.4375 355.2656,337.4375 Q355.6406,337.4375 355.875,337.7031 Q356.1094,337.9531 356.1094,338.5625 L356.1094,340.0156 Q356.1094,340.625 355.875,340.8906 Q355.6406,341.1563 355.2656,341.1563 Q354.9219,341.1563 354.7188,340.9531 Q354.5156,340.7656 354.4063,340.25 Q354.3594,339.8906 354.1719,339.7031 Q353.8438,339.3281 353.2344,339.1094 Q352.625,338.8906 352,338.8906 Q351.2344,338.8906 350.5938,339.2188 Q349.9688,339.5469 349.4688,340.2969 Q348.9844,341.0469 348.9844,342.0781 L348.9844,343.1719 Q348.9844,344.4063 349.875,345.2344 Q350.7656,346.0469 352.3594,346.0469 Q353.2969,346.0469 353.9531,345.7969 Q354.3438,345.6406 354.7656,345.2031 Q355.0313,344.9375 355.1719,344.8594 Q355.3281,344.7813 355.5313,344.7813 Q355.8594,344.7813 356.1094,345.0469 Q356.375,345.2969 356.375,345.6406 Q356.375,345.9844 356.0313,346.3906 Q355.5313,346.9688 354.7344,347.2969 Q353.6563,347.75 352.3594,347.75 Q350.8438,347.75 349.6406,347.125 Q348.6563,346.625 347.9688,345.5625 Q347.2813,344.4844 347.2813,343.2031 L347.2813,342.0469 Q347.2813,340.7188 347.8906,339.5781 Q348.5156,338.4219 349.6094,337.8125 Q350.7031,337.1875 351.9375,337.1875 Q352.6719,337.1875 353.3125,337.3594 Q353.9688,337.5156 354.5156,337.875 Z "/><text fill="#000000" font-family="sans-serif" font-size="12" lengthAdjust="spacingAndGlyphs" textLength="104" x="372.25" y="346.9102">MakePaymentTask</text><line style="stroke: #A80036; stroke-width: 1.5;" x1="267" x2="549" y1="358" y2="358"/><line style="stroke: #A80036; stroke-width: 1.5;" x1="267" x2="549" y1="366" y2="366"/><text fill="#000000" font-family="sans-serif" font-size="11" lengthAdjust="spacingAndGlyphs" textLength="272" x="272" y="381.4189">+create(Organization org, PaymentScheduler scheduler)</text><text fill="#000000" font-family="sans-serif" font-size="11" lengthAdjust="spacingAndGlyphs" textLength="30" x="272" y="395.2549">+run()</text><text fill="#000000" font-family="sans-serif" font-size="11" lengthAdjust="spacingAndGlyphs" textLength="84" x="272" y="409.0908">-makePayments()</text><!--MD5=[b9b2b358c4596a7c3c612fa1a577c109]
class PaymentAPI--><rect fill="#FEFECE" filter="url(#f1mqa0u8i6csbz)" height="75.6719" id="PaymentAPI" style="stroke: #A80036; stroke-width: 1.5;" width="323" x="473.5" y="1262.5"/><ellipse cx="597.75" cy="1278.5" fill="#ADD1B2" rx="11" ry="11" style="stroke: #A80036; stroke-width: 1.0;"/><path d="M600.5156,1274.375 Q600.6719,1274.1563 600.8594,1274.0469 Q601.0469,1273.9375 601.2656,1273.9375 Q601.6406,1273.9375 601.875,1274.2031 Q602.1094,1274.4531 602.1094,1275.0625 L602.1094,1276.5156 Q602.1094,1277.125 601.875,1277.3906 Q601.6406,1277.6563 601.2656,1277.6563 Q600.9219,1277.6563 600.7188,1277.4531 Q600.5156,1277.2656 600.4063,1276.75 Q600.3594,1276.3906 600.1719,1276.2031 Q599.8438,1275.8281 599.2344,1275.6094 Q598.625,1275.3906 598,1275.3906 Q597.2344,1275.3906 596.5938,1275.7188 Q595.9688,1276.0469 595.4688,1276.7969 Q594.9844,1277.5469 594.9844,1278.5781 L594.9844,1279.6719 Q594.9844,1280.9063 595.875,1281.7344 Q596.7656,1282.5469 598.3594,1282.5469 Q599.2969,1282.5469 599.9531,1282.2969 Q600.3438,1282.1406 600.7656,1281.7031 Q601.0313,1281.4375 601.1719,1281.3594 Q601.3281,1281.2813 601.5313,1281.2813 Q601.8594,1281.2813 602.1094,1281.5469 Q602.375,1281.7969 602.375,1282.1406 Q602.375,1282.4844 602.0313,1282.8906 Q601.5313,1283.4688 600.7344,1283.7969 Q599.6563,1284.25 598.3594,1284.25 Q596.8438,1284.25 595.6406,1283.625 Q594.6563,1283.125 593.9688,1282.0625 Q593.2813,1280.9844 593.2813,1279.7031 L593.2813,1278.5469 Q593.2813,1277.2188 593.8906,1276.0781 Q594.5156,1274.9219 595.6094,1274.3125 Q596.7031,1273.6875 597.9375,1273.6875 Q598.6719,1273.6875 599.3125,1273.8594 Q599.9688,1274.0156 600.5156,1274.375 Z "/><text fill="#000000" font-family="sans-serif" font-size="12" lengthAdjust="spacingAndGlyphs" textLength="66" x="618.25" y="1283.4102">PaymentAPI</text><line style="stroke: #A80036; stroke-width: 1.5;" x1="474.5" x2="795.5" y1="1294.5" y2="1294.5"/><line style="stroke: #A80036; stroke-width: 1.5;" x1="474.5" x2="795.5" y1="1302.5" y2="1302.5"/><text fill="#000000" font-family="sans-serif" font-size="11" lengthAdjust="spacingAndGlyphs" textLength="308" x="479.5" y="1317.9189">+payTo(String freelancerId, String freelancerIBAN, String taskId,</text><text fill="#000000" font-family="sans-serif" font-size="11" lengthAdjust="spacingAndGlyphs" textLength="283" x="479.5" y="1331.7549">String taskDescription, Double eur, Double nativeCurrency)</text><!--MD5=[8806e557260fb3598decb516dc04693d]
class EmailAPI--><rect fill="#FEFECE" filter="url(#f1mqa0u8i6csbz)" height="48" id="EmailAPI" style="stroke: #A80036; stroke-width: 1.5;" width="82" x="130" y="1088"/><ellipse cx="145" cy="1104" fill="#ADD1B2" rx="11" ry="11" style="stroke: #A80036; stroke-width: 1.0;"/><path d="M147.7656,1099.875 Q147.9219,1099.6563 148.1094,1099.5469 Q148.2969,1099.4375 148.5156,1099.4375 Q148.8906,1099.4375 149.125,1099.7031 Q149.3594,1099.9531 149.3594,1100.5625 L149.3594,1102.0156 Q149.3594,1102.625 149.125,1102.8906 Q148.8906,1103.1563 148.5156,1103.1563 Q148.1719,1103.1563 147.9688,1102.9531 Q147.7656,1102.7656 147.6563,1102.25 Q147.6094,1101.8906 147.4219,1101.7031 Q147.0938,1101.3281 146.4844,1101.1094 Q145.875,1100.8906 145.25,1100.8906 Q144.4844,1100.8906 143.8438,1101.2188 Q143.2188,1101.5469 142.7188,1102.2969 Q142.2344,1103.0469 142.2344,1104.0781 L142.2344,1105.1719 Q142.2344,1106.4063 143.125,1107.2344 Q144.0156,1108.0469 145.6094,1108.0469 Q146.5469,1108.0469 147.2031,1107.7969 Q147.5938,1107.6406 148.0156,1107.2031 Q148.2813,1106.9375 148.4219,1106.8594 Q148.5781,1106.7813 148.7813,1106.7813 Q149.1094,1106.7813 149.3594,1107.0469 Q149.625,1107.2969 149.625,1107.6406 Q149.625,1107.9844 149.2813,1108.3906 Q148.7813,1108.9688 147.9844,1109.2969 Q146.9063,1109.75 145.6094,1109.75 Q144.0938,1109.75 142.8906,1109.125 Q141.9063,1108.625 141.2188,1107.5625 Q140.5313,1106.4844 140.5313,1105.2031 L140.5313,1104.0469 Q140.5313,1102.7188 141.1406,1101.5781 Q141.7656,1100.4219 142.8594,1099.8125 Q143.9531,1099.1875 145.1875,1099.1875 Q145.9219,1099.1875 146.5625,1099.3594 Q147.2188,1099.5156 147.7656,1099.875 Z "/><text fill="#000000" font-family="sans-serif" font-size="12" lengthAdjust="spacingAndGlyphs" textLength="50" x="159" y="1108.9102">EmailAPI</text><line style="stroke: #A80036; stroke-width: 1.5;" x1="131" x2="211" y1="1120" y2="1120"/><line style="stroke: #A80036; stroke-width: 1.5;" x1="131" x2="211" y1="1128" y2="1128"/><!--MD5=[b76730e11bf88a141099e30fd5a76626]
class MonetaryUnitConversionAPI--><rect fill="#FEFECE" filter="url(#f1mqa0u8i6csbz)" height="48" id="MonetaryUnitConversionAPI" style="stroke: #A80036; stroke-width: 1.5;" width="184" x="84" y="1276.5"/><ellipse cx="99" cy="1292.5" fill="#ADD1B2" rx="11" ry="11" style="stroke: #A80036; stroke-width: 1.0;"/><path d="M101.7656,1288.375 Q101.9219,1288.1563 102.1094,1288.0469 Q102.2969,1287.9375 102.5156,1287.9375 Q102.8906,1287.9375 103.125,1288.2031 Q103.3594,1288.4531 103.3594,1289.0625 L103.3594,1290.5156 Q103.3594,1291.125 103.125,1291.3906 Q102.8906,1291.6563 102.5156,1291.6563 Q102.1719,1291.6563 101.9688,1291.4531 Q101.7656,1291.2656 101.6563,1290.75 Q101.6094,1290.3906 101.4219,1290.2031 Q101.0938,1289.8281 100.4844,1289.6094 Q99.875,1289.3906 99.25,1289.3906 Q98.4844,1289.3906 97.8438,1289.7188 Q97.2188,1290.0469 96.7188,1290.7969 Q96.2344,1291.5469 96.2344,1292.5781 L96.2344,1293.6719 Q96.2344,1294.9063 97.125,1295.7344 Q98.0156,1296.5469 99.6094,1296.5469 Q100.5469,1296.5469 101.2031,1296.2969 Q101.5938,1296.1406 102.0156,1295.7031 Q102.2813,1295.4375 102.4219,1295.3594 Q102.5781,1295.2813 102.7813,1295.2813 Q103.1094,1295.2813 103.3594,1295.5469 Q103.625,1295.7969 103.625,1296.1406 Q103.625,1296.4844 103.2813,1296.8906 Q102.7813,1297.4688 101.9844,1297.7969 Q100.9063,1298.25 99.6094,1298.25 Q98.0938,1298.25 96.8906,1297.625 Q95.9063,1297.125 95.2188,1296.0625 Q94.5313,1294.9844 94.5313,1293.7031 L94.5313,1292.5469 Q94.5313,1291.2188 95.1406,1290.0781 Q95.7656,1288.9219 96.8594,1288.3125 Q97.9531,1287.6875 99.1875,1287.6875 Q99.9219,1287.6875 100.5625,1287.8594 Q101.2188,1288.0156 101.7656,1288.375 Z "/><text fill="#000000" font-family="sans-serif" font-size="12" lengthAdjust="spacingAndGlyphs" textLength="152" x="113" y="1297.4102">MonetaryUnitConversionAPI</text><line style="stroke: #A80036; stroke-width: 1.5;" x1="85" x2="267" y1="1308.5" y2="1308.5"/><line style="stroke: #A80036; stroke-width: 1.5;" x1="85" x2="267" y1="1316.5" y2="1316.5"/><!--MD5=[86c7c362de55a38b660185a1328fe18d]
class Organization--><rect fill="#FEFECE" filter="url(#f1mqa0u8i6csbz)" height="75.6719" id="Organization" style="stroke: #A80036; stroke-width: 1.5;" width="115" x="228.5" y="746"/><ellipse cx="249.8" cy="762" fill="#ADD1B2" rx="11" ry="11" style="stroke: #A80036; stroke-width: 1.0;"/><path d="M252.5656,757.875 Q252.7219,757.6563 252.9094,757.5469 Q253.0969,757.4375 253.3156,757.4375 Q253.6906,757.4375 253.925,757.7031 Q254.1594,757.9531 254.1594,758.5625 L254.1594,760.0156 Q254.1594,760.625 253.925,760.8906 Q253.6906,761.1563 253.3156,761.1563 Q252.9719,761.1563 252.7688,760.9531 Q252.5656,760.7656 252.4563,760.25 Q252.4094,759.8906 252.2219,759.7031 Q251.8938,759.3281 251.2844,759.1094 Q250.675,758.8906 250.05,758.8906 Q249.2844,758.8906 248.6438,759.2188 Q248.0188,759.5469 247.5188,760.2969 Q247.0344,761.0469 247.0344,762.0781 L247.0344,763.1719 Q247.0344,764.4063 247.925,765.2344 Q248.8156,766.0469 250.4094,766.0469 Q251.3469,766.0469 252.0031,765.7969 Q252.3938,765.6406 252.8156,765.2031 Q253.0813,764.9375 253.2219,764.8594 Q253.3781,764.7813 253.5813,764.7813 Q253.9094,764.7813 254.1594,765.0469 Q254.425,765.2969 254.425,765.6406 Q254.425,765.9844 254.0813,766.3906 Q253.5813,766.9688 252.7844,767.2969 Q251.7063,767.75 250.4094,767.75 Q248.8938,767.75 247.6906,767.125 Q246.7063,766.625 246.0188,765.5625 Q245.3313,764.4844 245.3313,763.2031 L245.3313,762.0469 Q245.3313,760.7188 245.9406,759.5781 Q246.5656,758.4219 247.6594,757.8125 Q248.7531,757.1875 249.9875,757.1875 Q250.7219,757.1875 251.3625,757.3594 Q252.0188,757.5156 252.5656,757.875 Z "/><text fill="#000000" font-family="sans-serif" font-size="12" lengthAdjust="spacingAndGlyphs" textLength="69" x="265.2" y="766.9102">Organization</text><line style="stroke: #A80036; stroke-width: 1.5;" x1="229.5" x2="342.5" y1="778" y2="778"/><text fill="#000000" font-family="sans-serif" font-size="11" lengthAdjust="spacingAndGlyphs" textLength="61" x="234.5" y="793.4189">-String name</text><line style="stroke: #A80036; stroke-width: 1.5;" x1="229.5" x2="342.5" y1="799.8359" y2="799.8359"/><text fill="#000000" font-family="sans-serif" font-size="11" lengthAdjust="spacingAndGlyphs" textLength="103" x="234.5" y="815.2549">+getListTransaction()</text><!--MD5=[031a1c1e2bc7e464975852eaac477fa5]
class ListTransaction--><rect fill="#FEFECE" filter="url(#f1mqa0u8i6csbz)" height="103.3438" id="ListTransaction" style="stroke: #A80036; stroke-width: 1.5;" width="135" x="218.5" y="900"/><ellipse cx="241.6" cy="916" fill="#ADD1B2" rx="11" ry="11" style="stroke: #A80036; stroke-width: 1.0;"/><path d="M244.3656,911.875 Q244.5219,911.6563 244.7094,911.5469 Q244.8969,911.4375 245.1156,911.4375 Q245.4906,911.4375 245.725,911.7031 Q245.9594,911.9531 245.9594,912.5625 L245.9594,914.0156 Q245.9594,914.625 245.725,914.8906 Q245.4906,915.1563 245.1156,915.1563 Q244.7719,915.1563 244.5688,914.9531 Q244.3656,914.7656 244.2563,914.25 Q244.2094,913.8906 244.0219,913.7031 Q243.6938,913.3281 243.0844,913.1094 Q242.475,912.8906 241.85,912.8906 Q241.0844,912.8906 240.4438,913.2188 Q239.8188,913.5469 239.3188,914.2969 Q238.8344,915.0469 238.8344,916.0781 L238.8344,917.1719 Q238.8344,918.4063 239.725,919.2344 Q240.6156,920.0469 242.2094,920.0469 Q243.1469,920.0469 243.8031,919.7969 Q244.1938,919.6406 244.6156,919.2031 Q244.8813,918.9375 245.0219,918.8594 Q245.1781,918.7813 245.3813,918.7813 Q245.7094,918.7813 245.9594,919.0469 Q246.225,919.2969 246.225,919.6406 Q246.225,919.9844 245.8813,920.3906 Q245.3813,920.9688 244.5844,921.2969 Q243.5063,921.75 242.2094,921.75 Q240.6938,921.75 239.4906,921.125 Q238.5063,920.625 237.8188,919.5625 Q237.1313,918.4844 237.1313,917.2031 L237.1313,916.0469 Q237.1313,914.7188 237.7406,913.5781 Q238.3656,912.4219 239.4594,911.8125 Q240.5531,911.1875 241.7875,911.1875 Q242.5219,911.1875 243.1625,911.3594 Q243.8188,911.5156 244.3656,911.875 Z "/><text fill="#000000" font-family="sans-serif" font-size="12" lengthAdjust="spacingAndGlyphs" textLength="85" x="257.4" y="920.9102">ListTransaction</text><line style="stroke: #A80036; stroke-width: 1.5;" x1="219.5" x2="352.5" y1="932" y2="932"/><line style="stroke: #A80036; stroke-width: 1.5;" x1="219.5" x2="352.5" y1="940" y2="940"/><text fill="#000000" font-family="sans-serif" font-size="11" lengthAdjust="spacingAndGlyphs" textLength="95" x="224.5" y="955.4189">+getTransaction(ID)</text><text fill="#000000" font-family="sans-serif" font-size="11" lengthAdjust="spacingAndGlyphs" textLength="123" x="224.5" y="969.2549">+remove(Transaction trs)</text><text fill="#000000" font-family="sans-serif" font-size="11" lengthAdjust="spacingAndGlyphs" textLength="105" x="224.5" y="983.0908">+add(Transaction trs)</text><text fill="#000000" font-family="sans-serif" font-size="11" lengthAdjust="spacingAndGlyphs" textLength="108" x="224.5" y="996.9268">+emailAboutPayment()</text><!--MD5=[4555bb1b0911a5adf28ce6dbe60fed2e]
class Transaction--><rect fill="#FEFECE" filter="url(#f1mqa0u8i6csbz)" height="61.8359" id="Transaction" style="stroke: #A80036; stroke-width: 1.5;" width="117" x="318.5" y="1081"/><ellipse cx="342.5" cy="1097" fill="#ADD1B2" rx="11" ry="11" style="stroke: #A80036; stroke-width: 1.0;"/><path d="M345.2656,1092.875 Q345.4219,1092.6563 345.6094,1092.5469 Q345.7969,1092.4375 346.0156,1092.4375 Q346.3906,1092.4375 346.625,1092.7031 Q346.8594,1092.9531 346.8594,1093.5625 L346.8594,1095.0156 Q346.8594,1095.625 346.625,1095.8906 Q346.3906,1096.1563 346.0156,1096.1563 Q345.6719,1096.1563 345.4688,1095.9531 Q345.2656,1095.7656 345.1563,1095.25 Q345.1094,1094.8906 344.9219,1094.7031 Q344.5938,1094.3281 343.9844,1094.1094 Q343.375,1093.8906 342.75,1093.8906 Q341.9844,1093.8906 341.3438,1094.2188 Q340.7188,1094.5469 340.2188,1095.2969 Q339.7344,1096.0469 339.7344,1097.0781 L339.7344,1098.1719 Q339.7344,1099.4063 340.625,1100.2344 Q341.5156,1101.0469 343.1094,1101.0469 Q344.0469,1101.0469 344.7031,1100.7969 Q345.0938,1100.6406 345.5156,1100.2031 Q345.7813,1099.9375 345.9219,1099.8594 Q346.0781,1099.7813 346.2813,1099.7813 Q346.6094,1099.7813 346.8594,1100.0469 Q347.125,1100.2969 347.125,1100.6406 Q347.125,1100.9844 346.7813,1101.3906 Q346.2813,1101.9688 345.4844,1102.2969 Q344.4063,1102.75 343.1094,1102.75 Q341.5938,1102.75 340.3906,1102.125 Q339.4063,1101.625 338.7188,1100.5625 Q338.0313,1099.4844 338.0313,1098.2031 L338.0313,1097.0469 Q338.0313,1095.7188 338.6406,1094.5781 Q339.2656,1093.4219 340.3594,1092.8125 Q341.4531,1092.1875 342.6875,1092.1875 Q343.4219,1092.1875 344.0625,1092.3594 Q344.7188,1092.5156 345.2656,1092.875 Z "/><text fill="#000000" font-family="sans-serif" font-size="12" lengthAdjust="spacingAndGlyphs" textLength="65" x="358.5" y="1101.9102">Transaction</text><line style="stroke: #A80036; stroke-width: 1.5;" x1="319.5" x2="434.5" y1="1113" y2="1113"/><line style="stroke: #A80036; stroke-width: 1.5;" x1="319.5" x2="434.5" y1="1121" y2="1121"/><text fill="#000000" font-family="sans-serif" font-size="11" lengthAdjust="spacingAndGlyphs" textLength="105" x="324.5" y="1136.4189">+makeBankTransfer()</text><!--MD5=[1f687b5315377fe49fca59b457947463]
class Freelancer--><rect fill="#FEFECE" filter="url(#f1mqa0u8i6csbz)" height="158.6875" id="Freelancer" style="stroke: #A80036; stroke-width: 1.5;" width="135" x="303.5" y="1221"/><ellipse cx="338.3" cy="1237" fill="#ADD1B2" rx="11" ry="11" style="stroke: #A80036; stroke-width: 1.0;"/><path d="M341.0656,1232.875 Q341.2219,1232.6563 341.4094,1232.5469 Q341.5969,1232.4375 341.8156,1232.4375 Q342.1906,1232.4375 342.425,1232.7031 Q342.6594,1232.9531 342.6594,1233.5625 L342.6594,1235.0156 Q342.6594,1235.625 342.425,1235.8906 Q342.1906,1236.1563 341.8156,1236.1563 Q341.4719,1236.1563 341.2688,1235.9531 Q341.0656,1235.7656 340.9563,1235.25 Q340.9094,1234.8906 340.7219,1234.7031 Q340.3938,1234.3281 339.7844,1234.1094 Q339.175,1233.8906 338.55,1233.8906 Q337.7844,1233.8906 337.1438,1234.2188 Q336.5188,1234.5469 336.0188,1235.2969 Q335.5344,1236.0469 335.5344,1237.0781 L335.5344,1238.1719 Q335.5344,1239.4063 336.425,1240.2344 Q337.3156,1241.0469 338.9094,1241.0469 Q339.8469,1241.0469 340.5031,1240.7969 Q340.8938,1240.6406 341.3156,1240.2031 Q341.5813,1239.9375 341.7219,1239.8594 Q341.8781,1239.7813 342.0813,1239.7813 Q342.4094,1239.7813 342.6594,1240.0469 Q342.925,1240.2969 342.925,1240.6406 Q342.925,1240.9844 342.5813,1241.3906 Q342.0813,1241.9688 341.2844,1242.2969 Q340.2063,1242.75 338.9094,1242.75 Q337.3938,1242.75 336.1906,1242.125 Q335.2063,1241.625 334.5188,1240.5625 Q333.8313,1239.4844 333.8313,1238.2031 L333.8313,1237.0469 Q333.8313,1235.7188 334.4406,1234.5781 Q335.0656,1233.4219 336.1594,1232.8125 Q337.2531,1232.1875 338.4875,1232.1875 Q339.2219,1232.1875 339.8625,1232.3594 Q340.5188,1232.5156 341.0656,1232.875 Z "/><text fill="#000000" font-family="sans-serif" font-size="12" lengthAdjust="spacingAndGlyphs" textLength="59" x="356.7" y="1241.9102">Freelancer</text><line style="stroke: #A80036; stroke-width: 1.5;" x1="304.5" x2="437.5" y1="1253" y2="1253"/><text fill="#000000" font-family="sans-serif" font-size="11" lengthAdjust="spacingAndGlyphs" textLength="43" x="309.5" y="1268.4189">-String id</text><text fill="#000000" font-family="sans-serif" font-size="11" lengthAdjust="spacingAndGlyphs" textLength="61" x="309.5" y="1282.2549">-String name</text><text fill="#000000" font-family="sans-serif" font-size="11" lengthAdjust="spacingAndGlyphs" textLength="114" x="309.5" y="1296.0908">-String levelOfExpertise</text><text fill="#000000" font-family="sans-serif" font-size="11" lengthAdjust="spacingAndGlyphs" textLength="59" x="309.5" y="1309.9268">-String email</text><text fill="#000000" font-family="sans-serif" font-size="11" lengthAdjust="spacingAndGlyphs" textLength="50" x="309.5" y="1323.7627">-String NIF</text><text fill="#000000" font-family="sans-serif" font-size="11" lengthAdjust="spacingAndGlyphs" textLength="123" x="309.5" y="1337.5986">-String bankAccountIBAN</text><text fill="#000000" font-family="sans-serif" font-size="11" lengthAdjust="spacingAndGlyphs" textLength="75" x="309.5" y="1351.4346">-String address</text><text fill="#000000" font-family="sans-serif" font-size="11" lengthAdjust="spacingAndGlyphs" textLength="72" x="309.5" y="1365.2705">-String country</text><line style="stroke: #A80036; stroke-width: 1.5;" x1="304.5" x2="437.5" y1="1371.6875" y2="1371.6875"/><!--MD5=[335f4d9be48430461c68bf6d6fdba145]
class App--><rect fill="#FEFECE" filter="url(#f1mqa0u8i6csbz)" height="48" id="App" style="stroke: #A80036; stroke-width: 1.5;" width="53" x="259.5" y="494"/><ellipse cx="274.5" cy="510" fill="#ADD1B2" rx="11" ry="11" style="stroke: #A80036; stroke-width: 1.0;"/><path d="M277.2656,505.875 Q277.4219,505.6563 277.6094,505.5469 Q277.7969,505.4375 278.0156,505.4375 Q278.3906,505.4375 278.625,505.7031 Q278.8594,505.9531 278.8594,506.5625 L278.8594,508.0156 Q278.8594,508.625 278.625,508.8906 Q278.3906,509.1563 278.0156,509.1563 Q277.6719,509.1563 277.4688,508.9531 Q277.2656,508.7656 277.1563,508.25 Q277.1094,507.8906 276.9219,507.7031 Q276.5938,507.3281 275.9844,507.1094 Q275.375,506.8906 274.75,506.8906 Q273.9844,506.8906 273.3438,507.2188 Q272.7188,507.5469 272.2188,508.2969 Q271.7344,509.0469 271.7344,510.0781 L271.7344,511.1719 Q271.7344,512.4063 272.625,513.2344 Q273.5156,514.0469 275.1094,514.0469 Q276.0469,514.0469 276.7031,513.7969 Q277.0938,513.6406 277.5156,513.2031 Q277.7813,512.9375 277.9219,512.8594 Q278.0781,512.7813 278.2813,512.7813 Q278.6094,512.7813 278.8594,513.0469 Q279.125,513.2969 279.125,513.6406 Q279.125,513.9844 278.7813,514.3906 Q278.2813,514.9688 277.4844,515.2969 Q276.4063,515.75 275.1094,515.75 Q273.5938,515.75 272.3906,515.125 Q271.4063,514.625 270.7188,513.5625 Q270.0313,512.4844 270.0313,511.2031 L270.0313,510.0469 Q270.0313,508.7188 270.6406,507.5781 Q271.2656,506.4219 272.3594,505.8125 Q273.4531,505.1875 274.6875,505.1875 Q275.4219,505.1875 276.0625,505.3594 Q276.7188,505.5156 277.2656,505.875 Z "/><text fill="#000000" font-family="sans-serif" font-size="12" lengthAdjust="spacingAndGlyphs" textLength="21" x="288.5" y="514.9102">App</text><line style="stroke: #A80036; stroke-width: 1.5;" x1="260.5" x2="311.5" y1="526" y2="526"/><line style="stroke: #A80036; stroke-width: 1.5;" x1="260.5" x2="311.5" y1="534" y2="534"/><!--MD5=[e09e0019787cf83947156283bb671e06]
class RegistOrganization--><rect fill="#FEFECE" filter="url(#f1mqa0u8i6csbz)" height="48" id="RegistOrganization" style="stroke: #A80036; stroke-width: 1.5;" width="137" x="217.5" y="620"/><ellipse cx="232.5" cy="636" fill="#ADD1B2" rx="11" ry="11" style="stroke: #A80036; stroke-width: 1.0;"/><path d="M235.2656,631.875 Q235.4219,631.6563 235.6094,631.5469 Q235.7969,631.4375 236.0156,631.4375 Q236.3906,631.4375 236.625,631.7031 Q236.8594,631.9531 236.8594,632.5625 L236.8594,634.0156 Q236.8594,634.625 236.625,634.8906 Q236.3906,635.1563 236.0156,635.1563 Q235.6719,635.1563 235.4688,634.9531 Q235.2656,634.7656 235.1563,634.25 Q235.1094,633.8906 234.9219,633.7031 Q234.5938,633.3281 233.9844,633.1094 Q233.375,632.8906 232.75,632.8906 Q231.9844,632.8906 231.3438,633.2188 Q230.7188,633.5469 230.2188,634.2969 Q229.7344,635.0469 229.7344,636.0781 L229.7344,637.1719 Q229.7344,638.4063 230.625,639.2344 Q231.5156,640.0469 233.1094,640.0469 Q234.0469,640.0469 234.7031,639.7969 Q235.0938,639.6406 235.5156,639.2031 Q235.7813,638.9375 235.9219,638.8594 Q236.0781,638.7813 236.2813,638.7813 Q236.6094,638.7813 236.8594,639.0469 Q237.125,639.2969 237.125,639.6406 Q237.125,639.9844 236.7813,640.3906 Q236.2813,640.9688 235.4844,641.2969 Q234.4063,641.75 233.1094,641.75 Q231.5938,641.75 230.3906,641.125 Q229.4063,640.625 228.7188,639.5625 Q228.0313,638.4844 228.0313,637.2031 L228.0313,636.0469 Q228.0313,634.7188 228.6406,633.5781 Q229.2656,632.4219 230.3594,631.8125 Q231.4531,631.1875 232.6875,631.1875 Q233.4219,631.1875 234.0625,631.3594 Q234.7188,631.5156 235.2656,631.875 Z "/><text fill="#000000" font-family="sans-serif" font-size="12" lengthAdjust="spacingAndGlyphs" textLength="105" x="246.5" y="640.9102">RegistOrganization</text><line style="stroke: #A80036; stroke-width: 1.5;" x1="218.5" x2="353.5" y1="652" y2="652"/><line style="stroke: #A80036; stroke-width: 1.5;" x1="218.5" x2="353.5" y1="660" y2="660"/><!--MD5=[1b844c90688aafb95cd8c95626c3b83a]
class Timer--><rect fill="#FEFECE" filter="url(#f1mqa0u8i6csbz)" height="48" id="Timer" style="stroke: #A80036; stroke-width: 1.5;" width="64" x="433" y="217"/><ellipse cx="448" cy="233" fill="#ADD1B2" rx="11" ry="11" style="stroke: #A80036; stroke-width: 1.0;"/><path d="M450.7656,228.875 Q450.9219,228.6563 451.1094,228.5469 Q451.2969,228.4375 451.5156,228.4375 Q451.8906,228.4375 452.125,228.7031 Q452.3594,228.9531 452.3594,229.5625 L452.3594,231.0156 Q452.3594,231.625 452.125,231.8906 Q451.8906,232.1563 451.5156,232.1563 Q451.1719,232.1563 450.9688,231.9531 Q450.7656,231.7656 450.6563,231.25 Q450.6094,230.8906 450.4219,230.7031 Q450.0938,230.3281 449.4844,230.1094 Q448.875,229.8906 448.25,229.8906 Q447.4844,229.8906 446.8438,230.2188 Q446.2188,230.5469 445.7188,231.2969 Q445.2344,232.0469 445.2344,233.0781 L445.2344,234.1719 Q445.2344,235.4063 446.125,236.2344 Q447.0156,237.0469 448.6094,237.0469 Q449.5469,237.0469 450.2031,236.7969 Q450.5938,236.6406 451.0156,236.2031 Q451.2813,235.9375 451.4219,235.8594 Q451.5781,235.7813 451.7813,235.7813 Q452.1094,235.7813 452.3594,236.0469 Q452.625,236.2969 452.625,236.6406 Q452.625,236.9844 452.2813,237.3906 Q451.7813,237.9688 450.9844,238.2969 Q449.9063,238.75 448.6094,238.75 Q447.0938,238.75 445.8906,238.125 Q444.9063,237.625 444.2188,236.5625 Q443.5313,235.4844 443.5313,234.2031 L443.5313,233.0469 Q443.5313,231.7188 444.1406,230.5781 Q444.7656,229.4219 445.8594,228.8125 Q446.9531,228.1875 448.1875,228.1875 Q448.9219,228.1875 449.5625,228.3594 Q450.2188,228.5156 450.7656,228.875 Z "/><text fill="#000000" font-family="sans-serif" font-size="12" lengthAdjust="spacingAndGlyphs" textLength="32" x="462" y="237.9102">Timer</text><line style="stroke: #A80036; stroke-width: 1.5;" x1="434" x2="496" y1="249" y2="249"/><line style="stroke: #A80036; stroke-width: 1.5;" x1="434" x2="496" y1="257" y2="257"/><!--MD5=[1cb21011969cc62c73f846209be643c8]
link App to EmailAPI--><path d="M259.266,541.765 C239.229,560.536 213.099,589.032 200,620 C130.968,783.205 154.798,1004.456 166.299,1082.402 " fill="none" id="App-&gt;EmailAPI" style="stroke: #A80036; stroke-width: 1.0;"/><polygon fill="#A80036" points="167.104,1087.764,169.7224,1078.2696,166.3611,1082.8195,161.8112,1079.4582,167.104,1087.764" style="stroke: #A80036; stroke-width: 1.0;"/><text fill="#000000" font-family="sans-serif" font-size="13" lengthAdjust="spacingAndGlyphs" textLength="21" x="166" y="789.4951">has</text><text fill="#000000" font-family="sans-serif" font-size="13" lengthAdjust="spacingAndGlyphs" textLength="7" x="244.5185" y="543.3449">1</text><text fill="#000000" font-family="sans-serif" font-size="13" lengthAdjust="spacingAndGlyphs" textLength="7" x="158.2088" y="1077.0437">1</text><!--MD5=[c476b523f9294f20b13319074aa597a2]
link App to PaymentAPI--><path d="M309.689,542.126 C328.536,561.537 354.554,590.719 372,620 C505.205,843.574 594.169,1146.655 623.97,1257.055 " fill="none" id="App-&gt;PaymentAPI" style="stroke: #A80036; stroke-width: 1.0;"/><polygon fill="#A80036" points="625.344,1262.166,626.8694,1252.436,624.0455,1257.3376,619.1439,1254.5136,625.344,1262.166" style="stroke: #A80036; stroke-width: 1.0;"/><text fill="#000000" font-family="sans-serif" font-size="13" lengthAdjust="spacingAndGlyphs" textLength="21" x="495" y="866.4951">has</text><text fill="#000000" font-family="sans-serif" font-size="13" lengthAdjust="spacingAndGlyphs" textLength="7" x="307.6101" y="563.4947">1</text><text fill="#000000" font-family="sans-serif" font-size="13" lengthAdjust="spacingAndGlyphs" textLength="7" x="616.0828" y="1251.7559">1</text><!--MD5=[34f9f932fd778d30fdc72ceaaad0e98f]
link App to RegistOrganization--><path d="M286,542.033 C286,562.522 286,592.561 286,614.546 " fill="none" id="App-&gt;RegistOrganization" style="stroke: #A80036; stroke-width: 1.0;"/><polygon fill="#A80036" points="286,619.67,290,610.67,286,614.67,282,610.67,286,619.67" style="stroke: #A80036; stroke-width: 1.0;"/><text fill="#000000" font-family="sans-serif" font-size="13" lengthAdjust="spacingAndGlyphs" textLength="21" x="287" y="586.4951">has</text><text fill="#000000" font-family="sans-serif" font-size="13" lengthAdjust="spacingAndGlyphs" textLength="7" x="278.1469" y="563.379">1</text><text fill="#000000" font-family="sans-serif" font-size="13" lengthAdjust="spacingAndGlyphs" textLength="7" x="278.1469" y="609.3275">1</text><!--MD5=[939acada67c666032ddf52a0068bc128]
link App to MonetaryUnitConversionAPI--><path d="M259.105,522.282 C202.657,530.826 77,559.252 77,643 C77,643 77,643 77,1113 C77,1175.702 121.196,1237.873 150.529,1272.232 " fill="none" id="App-&gt;MonetaryUnitConversionAPI" style="stroke: #A80036; stroke-width: 1.0;"/><polygon fill="#A80036" points="154.029,1276.282,151.1715,1266.8568,150.76,1272.4987,145.1181,1272.0872,154.029,1276.282" style="stroke: #A80036; stroke-width: 1.0;"/><text fill="#000000" font-family="sans-serif" font-size="13" lengthAdjust="spacingAndGlyphs" textLength="21" x="78" y="866.4951">has</text><text fill="#000000" font-family="sans-serif" font-size="13" lengthAdjust="spacingAndGlyphs" textLength="7" x="244.3163" y="518.8694">1</text><text fill="#000000" font-family="sans-serif" font-size="13" lengthAdjust="spacingAndGlyphs" textLength="7" x="140.5021" y="1265.5663">1</text><!--MD5=[3f8b7558f43bda44723ecf40355dbb38]
link Timer to MakePaymentTask--><path d="M454.678,265.18 C447.757,280.72 438.382,301.77 429.85,320.93 " fill="none" id="Timer-&gt;MakePaymentTask" style="stroke: #A80036; stroke-width: 1.0; stroke-dasharray: 7.0,7.0;"/><polygon fill="#A80036" points="427.7,325.76,435.009,319.1586,429.7296,321.1905,427.6977,315.9111,427.7,325.76" style="stroke: #A80036; stroke-width: 1.0;"/><!--MD5=[c4d304e021406f0669e27c527a415194]
link Transaction to PaymentAPI--><path d="M413.71,1143.309 C431.892,1158.039 454.328,1175.799 475,1191 C506.956,1214.5 543.508,1239.427 573.601,1259.454 " fill="none" id="Transaction-&gt;PaymentAPI" style="stroke: #A80036; stroke-width: 1.0; stroke-dasharray: 7.0,7.0;"/><polygon fill="#A80036" points="577.993,1262.373,572.7128,1254.0592,573.8292,1259.6048,568.2836,1260.7212,577.993,1262.373" style="stroke: #A80036; stroke-width: 1.0;"/><!--MD5=[542f32193441b56ea302115ed1249c3b]
link Transaction to Freelancer--><path d="M376.023,1143.38 C375.388,1163.12 374.526,1189.896 373.696,1215.697 " fill="none" id="Transaction-&gt;Freelancer" style="stroke: #A80036; stroke-width: 1.0;"/><polygon fill="#A80036" points="373.531,1220.842,377.8194,1211.9758,373.6924,1215.8446,369.8236,1211.7176,373.531,1220.842" style="stroke: #A80036; stroke-width: 1.0;"/><text fill="#000000" font-family="sans-serif" font-size="13" lengthAdjust="spacingAndGlyphs" textLength="37" x="377" y="1187.4951">knows</text><text fill="#000000" font-family="sans-serif" font-size="13" lengthAdjust="spacingAndGlyphs" textLength="5" x="370.3602" y="1164.4311">*</text><text fill="#000000" font-family="sans-serif" font-size="13" lengthAdjust="spacingAndGlyphs" textLength="7" x="366.4386" y="1210.0139">1</text><!--MD5=[a076089185b05be152ea01834bad5592]
link Transaction to MonetaryUnitConversionAPI--><path d="M344.259,1143.38 C305.512,1179.331 241.614,1238.619 204.717,1272.855 " fill="none" id="Transaction-&gt;MonetaryUnitConversionAPI" style="stroke: #A80036; stroke-width: 1.0; stroke-dasharray: 7.0,7.0;"/><polygon fill="#A80036" points="200.794,1276.495,210.1128,1273.3074,204.4599,1273.0948,204.6725,1267.442,200.794,1276.495" style="stroke: #A80036; stroke-width: 1.0;"/><!--MD5=[eddc38b6bc72bc48b6f4e6dee3f36f26]
link Organization to ListTransaction--><path d="M286,822.141 C286,843.584 286,870.969 286,894.932 " fill="none" id="Organization-&gt;ListTransaction" style="stroke: #A80036; stroke-width: 1.0;"/><polygon fill="#A80036" points="286,899.99,290,890.99,286,894.99,282,890.99,286,899.99" style="stroke: #A80036; stroke-width: 1.0;"/><text fill="#000000" font-family="sans-serif" font-size="13" lengthAdjust="spacingAndGlyphs" textLength="21" x="287" y="866.4951">has</text><text fill="#000000" font-family="sans-serif" font-size="13" lengthAdjust="spacingAndGlyphs" textLength="7" x="278.4422" y="843.044">1</text><text fill="#000000" font-family="sans-serif" font-size="13" lengthAdjust="spacingAndGlyphs" textLength="7" x="278.5078" y="889.1171">1</text><!--MD5=[5f4f57afaa4ed75c0a27618a4620afc1]
link Organization to PaymentScheduler--><path d="M228.323,757.714 C146.357,721.346 6,657.278 6,645 C6,240 6,240 6,240 C6,161.76 83.2325,120.42 161.091,98.62 " fill="none" id="Organization-&gt;PaymentScheduler" style="stroke: #A80036; stroke-width: 1.0;"/><polygon fill="#A80036" points="166.22,97.22,156.4829,95.7402,161.3977,98.5411,158.5968,103.4559,166.22,97.22" style="stroke: #A80036; stroke-width: 1.0;"/><text fill="#000000" font-family="sans-serif" font-size="13" lengthAdjust="spacingAndGlyphs" textLength="21" x="7" y="460.4951">has</text><text fill="#000000" font-family="sans-serif" font-size="13" lengthAdjust="spacingAndGlyphs" textLength="7" x="213.4847" y="750.8598">1</text><text fill="#000000" font-family="sans-serif" font-size="13" lengthAdjust="spacingAndGlyphs" textLength="7" x="151.6018" y="95.4847">1</text><!--MD5=[5bc67783950c5c8ea01850a4fb11e0ff]
link MakePaymentTask to App--><path d="M370.733,416.293 C350.499,440.341 326.138,469.295 308.74,489.973 " fill="none" id="MakePaymentTask-&gt;App" style="stroke: #A80036; stroke-width: 1.0; stroke-dasharray: 7.0,7.0;"/><polygon fill="#A80036" points="305.357,493.994,314.2118,489.6822,308.5759,490.1679,308.0901,484.532,305.357,493.994" style="stroke: #A80036; stroke-width: 1.0;"/><!--MD5=[dfcd1ebd91c1b15ae9e85c323f7cd20a]
link MakePaymentTask to Organization--><path d="M409.593,416.133 C410.208,475.552 405.879,583.562 372,668 C361.164,695.006 342.332,721.292 325.048,741.9 " fill="none" id="MakePaymentTask-&gt;Organization" style="stroke: #A80036; stroke-width: 1.0; stroke-dasharray: 7.0,7.0;"/><polygon fill="#A80036" points="321.614,745.945,330.488,741.6727,324.8499,742.1333,324.3893,736.4953,321.614,745.945" style="stroke: #A80036; stroke-width: 1.0;"/><!--MD5=[091fa0065f1a575dcd1b4512a17fb83f]
link MakePaymentTask to ListTransaction--><path d="M486.476,416.109 C519.317,440.791 550,475.071 550,517 C550,517 550,517 550,785 C550,825.855 544.638,841.88 515,870 C472.365,910.451 408.221,930.719 358.657,940.79 " fill="none" id="MakePaymentTask-&gt;ListTransaction" style="stroke: #A80036; stroke-width: 1.0; stroke-dasharray: 7.0,7.0;"/><polygon fill="#A80036" points="353.603,941.792,363.2093,943.9644,358.5074,940.8191,361.6527,936.1173,353.603,941.792" style="stroke: #A80036; stroke-width: 1.0;"/><!--MD5=[014a72dde07d3e72b92fd6c6647f682a]
link MakePaymentTask to Transaction--><path d="M545.304,416.096 C586.519,438.452 621,470.924 621,517 C621,517 621,517 621,708 C621,864.776 484.205,1012.715 415.467,1077.155 " fill="none" id="MakePaymentTask-&gt;Transaction" style="stroke: #A80036; stroke-width: 1.0; stroke-dasharray: 7.0,7.0;"/><polygon fill="#A80036" points="411.442,1080.906,420.7536,1077.6977,415.1003,1077.4977,415.3003,1071.8443,411.442,1080.906" style="stroke: #A80036; stroke-width: 1.0;"/><!--MD5=[e5b57313444b32b42b4387f12821cd18]
link MakePaymentTask to PaymentScheduler--><path d="M341.358,325.79 C322.069,309.23 303.42,288.62 293,265 C276.293,227.12 282.091,181.27 292.518,144.04 " fill="none" id="MakePaymentTask-&gt;PaymentScheduler" style="stroke: #A80036; stroke-width: 1.0;"/><polygon fill="#A80036" points="293.949,139.08,287.6115,146.6189,292.5633,143.8842,295.2981,148.836,293.949,139.08" style="stroke: #A80036; stroke-width: 1.0;"/><text fill="#000000" font-family="sans-serif" font-size="13" lengthAdjust="spacingAndGlyphs" textLength="37" x="294" y="246.4951">knows</text><text fill="#000000" font-family="sans-serif" font-size="13" lengthAdjust="spacingAndGlyphs" textLength="7" x="323.6175" y="315.2019">1</text><text fill="#000000" font-family="sans-serif" font-size="13" lengthAdjust="spacingAndGlyphs" textLength="7" x="283.7169" y="160.6413">1</text><!--MD5=[311fcdaab1c80d93ce10f7851a8df4c5]
link PaymentScheduler to MakePaymentTask--><path d="M339.312,139.35 C355.6,194.04 378.563,271.15 393.366,320.86 " fill="none" id="PaymentScheduler-&gt;MakePaymentTask" style="stroke: #A80036; stroke-width: 1.0;"/><polygon fill="#A80036" points="394.862,325.88,396.1245,316.1124,393.4338,321.0883,388.4579,318.3976,394.862,325.88" style="stroke: #A80036; stroke-width: 1.0;"/><text fill="#000000" font-family="sans-serif" font-size="13" lengthAdjust="spacingAndGlyphs" textLength="21" x="378" y="246.4951">has</text><text fill="#000000" font-family="sans-serif" font-size="13" lengthAdjust="spacingAndGlyphs" textLength="7" x="333.9426" y="160.4782">1</text><text fill="#000000" font-family="sans-serif" font-size="13" lengthAdjust="spacingAndGlyphs" textLength="7" x="385.3143" y="315.3057">1</text><!--MD5=[a9895c86d8f8cbf121b60f477a5a70cd]
link ListTransaction to EmailAPI--><path d="M249.297,1003.086 C229.947,1029.756 206.965,1061.431 190.924,1083.54 " fill="none" id="ListTransaction-&gt;EmailAPI" style="stroke: #A80036; stroke-width: 1.0; stroke-dasharray: 7.0,7.0;"/><polygon fill="#A80036" points="187.811,1087.829,196.3334,1082.8925,190.7468,1083.7817,189.8577,1078.1951,187.811,1087.829" style="stroke: #A80036; stroke-width: 1.0;"/><!--MD5=[71d2e20b7b04e36d280b22ce75f9673c]
link ListTransaction to Transaction--><path d="M315.043,1003.086 C328.737,1026.938 344.73,1054.794 357.037,1076.229 " fill="none" id="ListTransaction-&gt;Transaction" style="stroke: #A80036; stroke-width: 1.0;"/><polygon fill="#A80036" points="359.605,1080.702,358.5915,1070.9054,357.1149,1076.3662,351.6542,1074.8895,359.605,1080.702" style="stroke: #A80036; stroke-width: 1.0;"/><text fill="#000000" font-family="sans-serif" font-size="13" lengthAdjust="spacingAndGlyphs" textLength="21" x="344" y="1047.4951">has</text><text fill="#000000" font-family="sans-serif" font-size="13" lengthAdjust="spacingAndGlyphs" textLength="7" x="311.635" y="1024.9609">1</text><text fill="#000000" font-family="sans-serif" font-size="13" lengthAdjust="spacingAndGlyphs" textLength="5" x="350.5017" y="1070.1451">*</text><!--MD5=[fa07de2ecf66d3cbd650cd32d77e9e29]
link ListTransaction to MonetaryUnitConversionAPI--><path d="M271.369,1003.189 C260.136,1041.66 244.048,1095.802 229,1143 C214.608,1188.14 196.726,1240.177 185.847,1271.421 " fill="none" id="ListTransaction-&gt;MonetaryUnitConversionAPI" style="stroke: #A80036; stroke-width: 1.0; stroke-dasharray: 7.0,7.0;"/><polygon fill="#A80036" points="184.163,1276.253,190.9024,1269.071,185.8087,1271.5316,183.3481,1266.4379,184.163,1276.253" style="stroke: #A80036; stroke-width: 1.0;"/><!--MD5=[11bbebcc76a599afaa64365ce126e922]
link PaymentScheduler to Timer--><path d="M376.892,139.43 C399.355,165.07 423.917,193.11 441.388,213.05 " fill="none" id="PaymentScheduler-&gt;Timer" style="stroke: #A80036; stroke-width: 1.0;"/><polygon fill="#A80036" points="444.785,216.93,441.8564,207.5266,441.4875,213.1715,435.8427,212.8026,444.785,216.93" style="stroke: #A80036; stroke-width: 1.0;"/><text fill="#000000" font-family="sans-serif" font-size="13" lengthAdjust="spacingAndGlyphs" textLength="21" x="420" y="183.4951">has</text><text fill="#000000" font-family="sans-serif" font-size="13" lengthAdjust="spacingAndGlyphs" textLength="7" x="375.3981" y="160.5665">1</text><text fill="#000000" font-family="sans-serif" font-size="13" lengthAdjust="spacingAndGlyphs" textLength="7" x="431.708" y="206.2522">1</text><!--MD5=[b2767384522f615c85a28d92ddf7f4b1]
link RegistOrganization to Organization--><path d="M286,668.098 C286,687.869 286,716.842 286,740.747 " fill="none" id="RegistOrganization-&gt;Organization" style="stroke: #A80036; stroke-width: 1.0;"/><polygon fill="#A80036" points="286,745.766,290,736.766,286,740.766,282,736.766,286,745.766" style="stroke: #A80036; stroke-width: 1.0;"/><text fill="#000000" font-family="sans-serif" font-size="13" lengthAdjust="spacingAndGlyphs" textLength="21" x="287" y="712.4951">has</text><text fill="#000000" font-family="sans-serif" font-size="13" lengthAdjust="spacingAndGlyphs" textLength="7" x="278.1469" y="689.4599">1</text><text fill="#000000" font-family="sans-serif" font-size="13" lengthAdjust="spacingAndGlyphs" textLength="5" x="280.5547" y="735.0862">*</text><!--MD5=[ef025b727e42613a31685db33ad2e5c1]
@startuml CD
skinparam classAttributeIconSize 0
top to bottom direction

class PaymentScheduler {
        - Integer dayMonth
        - LocalTime timeOfDay
        + create (Integer day, LoaclTime timeOfDay, Organization org)
        + resetTime(Integer dayMonth, LocalTime timeOfDay)
        + scheduleNestMonth()
        + getNextDate()
}

class MakePaymentTask {
        + create(Organization org, PaymentScheduler scheduler)
        + run()
        - makePayments()
}

class PaymentAPI {
        + payTo(String freelancerId, String freelancerIBAN, String taskId, \nString taskDescription, Double eur, Double nativeCurrency)
}

class EmailAPI {

}

class MonetaryUnitConversionAPI {

}

class Organization {
        - String name
        + getListTransaction()
}

class ListTransaction {
        + getTransaction(ID)
        + remove(Transaction trs)
        + add(Transaction trs)
        + emailAboutPayment()
}

class Transaction {
        + makeBankTransfer()
}

class Freelancer {
        - String id
        - String name
        - String levelOfExpertise
        - String email
        - String NIF
        - String bankAccountIBAN
        - String address
        - String country
}


App                          "1" - -> "1"      EmailAPI                  : has
App                          "1" - -> "1"      PaymentAPI                : has
App                          "1" - -> "1"      RegistOrganization        : has
App                          "1" - -> "1"      MonetaryUnitConversionAPI : has
Timer                            ..>          MakePaymentTask
Transaction                      ..>          PaymentAPI
Transaction                  "*" - -> "1"      Freelancer                : knows
Transaction                      ..>          MonetaryUnitConversionAPI
Organization                 "1" - -> "1"      ListTransaction           : has
Organization                 "1" - -> "1"      PaymentScheduler          : has
MakePaymentTask                  ..>          App
MakePaymentTask                  ..>          Organization
MakePaymentTask                  ..>          ListTransaction
MakePaymentTask                  ..>          Transaction
MakePaymentTask              "1" - -> "1"      PaymentScheduler          : knows
ListTransaction                  ..>          EmailAPI
ListTransaction              "1" - -> "*"      Transaction               : has
ListTransaction                  ..>          MonetaryUnitConversionAPI
PaymentScheduler             "1" - -> "1"      Timer                     : has
PaymentScheduler             "1" - -> "1"      MakePaymentTask           : has
RegistOrganization           "1" - -> "*"      Organization              : has

@enduml

PlantUML version 1.2020.10(Sun May 17 10:35:57 WEST 2020)
(GPL source distribution)
Java Runtime: OpenJDK Runtime Environment
JVM: OpenJDK 64-Bit Server VM
Java Version: 14+36
Operating System: Windows 10
Default Encoding: Cp1252
Language: en
Country: US
--></g></svg>