<?xml version="1.0" encoding="UTF-8" standalone="no"?><svg xmlns="http://www.w3.org/2000/svg" xmlns:xlink="http://www.w3.org/1999/xlink" contentScriptType="application/ecmascript" contentStyleType="text/css" height="528px" preserveAspectRatio="none" style="width:1307px;height:528px;" version="1.1" viewBox="0 0 1307 528" width="1307px" zoomAndPan="magnify"><defs><filter height="300%" id="f1vx6f5ay9z53k" width="300%" x="-1" y="-1"><feGaussianBlur result="blurOut" stdDeviation="2.0"/><feColorMatrix in="blurOut" result="blurOut2" type="matrix" values="0 0 0 0 0 0 0 0 0 0 0 0 0 0 0 0 0 0 .4 0"/><feOffset dx="4.0" dy="4.0" in="blurOut2" result="blurOut3"/><feBlend in="SourceGraphic" in2="blurOut3" mode="normal"/></filter></defs><g><!--MD5=[4555bb1b0911a5adf28ce6dbe60fed2e]
class Transaction--><rect fill="#FEFECE" filter="url(#f1vx6f5ay9z53k)" height="40" id="Transaction" style="stroke: #A80036; stroke-width: 1.5;" width="97" x="903.5" y="76"/><ellipse cx="918.5" cy="92" fill="#ADD1B2" rx="11" ry="11" style="stroke: #A80036; stroke-width: 1.0;"/><path d="M921.2656,87.875 Q921.4219,87.6563 921.6094,87.5469 Q921.7969,87.4375 922.0156,87.4375 Q922.3906,87.4375 922.625,87.7031 Q922.8594,87.9531 922.8594,88.5625 L922.8594,90.0156 Q922.8594,90.625 922.625,90.8906 Q922.3906,91.1563 922.0156,91.1563 Q921.6719,91.1563 921.4688,90.9531 Q921.2656,90.7656 921.1563,90.25 Q921.1094,89.8906 920.9219,89.7031 Q920.5938,89.3281 919.9844,89.1094 Q919.375,88.8906 918.75,88.8906 Q917.9844,88.8906 917.3438,89.2188 Q916.7188,89.5469 916.2188,90.2969 Q915.7344,91.0469 915.7344,92.0781 L915.7344,93.1719 Q915.7344,94.4063 916.625,95.2344 Q917.5156,96.0469 919.1094,96.0469 Q920.0469,96.0469 920.7031,95.7969 Q921.0938,95.6406 921.5156,95.2031 Q921.7813,94.9375 921.9219,94.8594 Q922.0781,94.7813 922.2813,94.7813 Q922.6094,94.7813 922.8594,95.0469 Q923.125,95.2969 923.125,95.6406 Q923.125,95.9844 922.7813,96.3906 Q922.2813,96.9688 921.4844,97.2969 Q920.4063,97.75 919.1094,97.75 Q917.5938,97.75 916.3906,97.125 Q915.4063,96.625 914.7188,95.5625 Q914.0313,94.4844 914.0313,93.2031 L914.0313,92.0469 Q914.0313,90.7188 914.6406,89.5781 Q915.2656,88.4219 916.3594,87.8125 Q917.4531,87.1875 918.6875,87.1875 Q919.4219,87.1875 920.0625,87.3594 Q920.7188,87.5156 921.2656,87.875 Z "/><text fill="#000000" font-family="sans-serif" font-size="12" lengthAdjust="spacingAndGlyphs" textLength="65" x="932.5" y="96.9102">Transaction</text><line style="stroke: #A80036; stroke-width: 1.5;" x1="904.5" x2="999.5" y1="108" y2="108"/><!--MD5=[dc84a4e894a42f8e8d7fc762e5a59f92]
class PaymentScheduler--><rect fill="#FEFECE" filter="url(#f1vx6f5ay9z53k)" height="67.6719" id="PaymentScheduler" style="stroke: #A80036; stroke-width: 1.5;" width="136" x="381" y="60"/><ellipse cx="396" cy="76" fill="#ADD1B2" rx="11" ry="11" style="stroke: #A80036; stroke-width: 1.0;"/><path d="M398.7656,71.875 Q398.9219,71.6563 399.1094,71.5469 Q399.2969,71.4375 399.5156,71.4375 Q399.8906,71.4375 400.125,71.7031 Q400.3594,71.9531 400.3594,72.5625 L400.3594,74.0156 Q400.3594,74.625 400.125,74.8906 Q399.8906,75.1563 399.5156,75.1563 Q399.1719,75.1563 398.9688,74.9531 Q398.7656,74.7656 398.6563,74.25 Q398.6094,73.8906 398.4219,73.7031 Q398.0938,73.3281 397.4844,73.1094 Q396.875,72.8906 396.25,72.8906 Q395.4844,72.8906 394.8438,73.2188 Q394.2188,73.5469 393.7188,74.2969 Q393.2344,75.0469 393.2344,76.0781 L393.2344,77.1719 Q393.2344,78.4063 394.125,79.2344 Q395.0156,80.0469 396.6094,80.0469 Q397.5469,80.0469 398.2031,79.7969 Q398.5938,79.6406 399.0156,79.2031 Q399.2813,78.9375 399.4219,78.8594 Q399.5781,78.7813 399.7813,78.7813 Q400.1094,78.7813 400.3594,79.0469 Q400.625,79.2969 400.625,79.6406 Q400.625,79.9844 400.2813,80.3906 Q399.7813,80.9688 398.9844,81.2969 Q397.9063,81.75 396.6094,81.75 Q395.0938,81.75 393.8906,81.125 Q392.9063,80.625 392.2188,79.5625 Q391.5313,78.4844 391.5313,77.2031 L391.5313,76.0469 Q391.5313,74.7188 392.1406,73.5781 Q392.7656,72.4219 393.8594,71.8125 Q394.9531,71.1875 396.1875,71.1875 Q396.9219,71.1875 397.5625,71.3594 Q398.2188,71.5156 398.7656,71.875 Z "/><text fill="#000000" font-family="sans-serif" font-size="12" lengthAdjust="spacingAndGlyphs" textLength="104" x="410" y="80.9102">PaymentScheduler</text><line style="stroke: #A80036; stroke-width: 1.5;" x1="382" x2="516" y1="92" y2="92"/><text fill="#000000" font-family="sans-serif" font-size="11" lengthAdjust="spacingAndGlyphs" textLength="87" x="387" y="107.4189">-Integer dayMonth</text><text fill="#000000" font-family="sans-serif" font-size="11" lengthAdjust="spacingAndGlyphs" textLength="105" x="387" y="121.2549">-LocalTime timeOfDay</text><!--MD5=[86c7c362de55a38b660185a1328fe18d]
class Organization--><rect fill="#FEFECE" filter="url(#f1vx6f5ay9z53k)" height="53.8359" id="Organization" style="stroke: #A80036; stroke-width: 1.5;" width="101" x="155" y="118"/><ellipse cx="170" cy="134" fill="#ADD1B2" rx="11" ry="11" style="stroke: #A80036; stroke-width: 1.0;"/><path d="M172.7656,129.875 Q172.9219,129.6563 173.1094,129.5469 Q173.2969,129.4375 173.5156,129.4375 Q173.8906,129.4375 174.125,129.7031 Q174.3594,129.9531 174.3594,130.5625 L174.3594,132.0156 Q174.3594,132.625 174.125,132.8906 Q173.8906,133.1563 173.5156,133.1563 Q173.1719,133.1563 172.9688,132.9531 Q172.7656,132.7656 172.6563,132.25 Q172.6094,131.8906 172.4219,131.7031 Q172.0938,131.3281 171.4844,131.1094 Q170.875,130.8906 170.25,130.8906 Q169.4844,130.8906 168.8438,131.2188 Q168.2188,131.5469 167.7188,132.2969 Q167.2344,133.0469 167.2344,134.0781 L167.2344,135.1719 Q167.2344,136.4063 168.125,137.2344 Q169.0156,138.0469 170.6094,138.0469 Q171.5469,138.0469 172.2031,137.7969 Q172.5938,137.6406 173.0156,137.2031 Q173.2813,136.9375 173.4219,136.8594 Q173.5781,136.7813 173.7813,136.7813 Q174.1094,136.7813 174.3594,137.0469 Q174.625,137.2969 174.625,137.6406 Q174.625,137.9844 174.2813,138.3906 Q173.7813,138.9688 172.9844,139.2969 Q171.9063,139.75 170.6094,139.75 Q169.0938,139.75 167.8906,139.125 Q166.9063,138.625 166.2188,137.5625 Q165.5313,136.4844 165.5313,135.2031 L165.5313,134.0469 Q165.5313,132.7188 166.1406,131.5781 Q166.7656,130.4219 167.8594,129.8125 Q168.9531,129.1875 170.1875,129.1875 Q170.9219,129.1875 171.5625,129.3594 Q172.2188,129.5156 172.7656,129.875 Z "/><text fill="#000000" font-family="sans-serif" font-size="12" lengthAdjust="spacingAndGlyphs" textLength="69" x="184" y="138.9102">Organization</text><line style="stroke: #A80036; stroke-width: 1.5;" x1="156" x2="255" y1="150" y2="150"/><text fill="#000000" font-family="sans-serif" font-size="11" lengthAdjust="spacingAndGlyphs" textLength="61" x="161" y="165.4189">-String nome</text><!--MD5=[335f4d9be48430461c68bf6d6fdba145]
class App--><rect fill="#FEFECE" filter="url(#f1vx6f5ay9z53k)" height="40" id="App" style="stroke: #A80036; stroke-width: 1.5;" width="53" x="6" y="320"/><ellipse cx="21" cy="336" fill="#ADD1B2" rx="11" ry="11" style="stroke: #A80036; stroke-width: 1.0;"/><path d="M23.7656,331.875 Q23.9219,331.6563 24.1094,331.5469 Q24.2969,331.4375 24.5156,331.4375 Q24.8906,331.4375 25.125,331.7031 Q25.3594,331.9531 25.3594,332.5625 L25.3594,334.0156 Q25.3594,334.625 25.125,334.8906 Q24.8906,335.1563 24.5156,335.1563 Q24.1719,335.1563 23.9688,334.9531 Q23.7656,334.7656 23.6563,334.25 Q23.6094,333.8906 23.4219,333.7031 Q23.0938,333.3281 22.4844,333.1094 Q21.875,332.8906 21.25,332.8906 Q20.4844,332.8906 19.8438,333.2188 Q19.2188,333.5469 18.7188,334.2969 Q18.2344,335.0469 18.2344,336.0781 L18.2344,337.1719 Q18.2344,338.4063 19.125,339.2344 Q20.0156,340.0469 21.6094,340.0469 Q22.5469,340.0469 23.2031,339.7969 Q23.5938,339.6406 24.0156,339.2031 Q24.2813,338.9375 24.4219,338.8594 Q24.5781,338.7813 24.7813,338.7813 Q25.1094,338.7813 25.3594,339.0469 Q25.625,339.2969 25.625,339.6406 Q25.625,339.9844 25.2813,340.3906 Q24.7813,340.9688 23.9844,341.2969 Q22.9063,341.75 21.6094,341.75 Q20.0938,341.75 18.8906,341.125 Q17.9063,340.625 17.2188,339.5625 Q16.5313,338.4844 16.5313,337.2031 L16.5313,336.0469 Q16.5313,334.7188 17.1406,333.5781 Q17.7656,332.4219 18.8594,331.8125 Q19.9531,331.1875 21.1875,331.1875 Q21.9219,331.1875 22.5625,331.3594 Q23.2188,331.5156 23.7656,331.875 Z "/><text fill="#000000" font-family="sans-serif" font-size="12" lengthAdjust="spacingAndGlyphs" textLength="21" x="35" y="340.9102">App</text><line style="stroke: #A80036; stroke-width: 1.5;" x1="7" x2="58" y1="352" y2="352"/><!--MD5=[1f687b5315377fe49fca59b457947463]
class Freelancer--><rect fill="#FEFECE" filter="url(#f1vx6f5ay9z53k)" height="150.6875" id="Freelancer" style="stroke: #A80036; stroke-width: 1.5;" width="135" x="1161" y="56.5"/><ellipse cx="1195.8" cy="72.5" fill="#ADD1B2" rx="11" ry="11" style="stroke: #A80036; stroke-width: 1.0;"/><path d="M1198.5656,68.375 Q1198.7219,68.1563 1198.9094,68.0469 Q1199.0969,67.9375 1199.3156,67.9375 Q1199.6906,67.9375 1199.925,68.2031 Q1200.1594,68.4531 1200.1594,69.0625 L1200.1594,70.5156 Q1200.1594,71.125 1199.925,71.3906 Q1199.6906,71.6563 1199.3156,71.6563 Q1198.9719,71.6563 1198.7688,71.4531 Q1198.5656,71.2656 1198.4563,70.75 Q1198.4094,70.3906 1198.2219,70.2031 Q1197.8938,69.8281 1197.2844,69.6094 Q1196.675,69.3906 1196.05,69.3906 Q1195.2844,69.3906 1194.6438,69.7188 Q1194.0188,70.0469 1193.5188,70.7969 Q1193.0344,71.5469 1193.0344,72.5781 L1193.0344,73.6719 Q1193.0344,74.9063 1193.925,75.7344 Q1194.8156,76.5469 1196.4094,76.5469 Q1197.3469,76.5469 1198.0031,76.2969 Q1198.3938,76.1406 1198.8156,75.7031 Q1199.0813,75.4375 1199.2219,75.3594 Q1199.3781,75.2813 1199.5813,75.2813 Q1199.9094,75.2813 1200.1594,75.5469 Q1200.425,75.7969 1200.425,76.1406 Q1200.425,76.4844 1200.0813,76.8906 Q1199.5813,77.4688 1198.7844,77.7969 Q1197.7063,78.25 1196.4094,78.25 Q1194.8938,78.25 1193.6906,77.625 Q1192.7063,77.125 1192.0188,76.0625 Q1191.3313,74.9844 1191.3313,73.7031 L1191.3313,72.5469 Q1191.3313,71.2188 1191.9406,70.0781 Q1192.5656,68.9219 1193.6594,68.3125 Q1194.7531,67.6875 1195.9875,67.6875 Q1196.7219,67.6875 1197.3625,67.8594 Q1198.0188,68.0156 1198.5656,68.375 Z "/><text fill="#000000" font-family="sans-serif" font-size="12" lengthAdjust="spacingAndGlyphs" textLength="59" x="1214.2" y="77.4102">Freelancer</text><line style="stroke: #A80036; stroke-width: 1.5;" x1="1162" x2="1295" y1="88.5" y2="88.5"/><text fill="#000000" font-family="sans-serif" font-size="11" lengthAdjust="spacingAndGlyphs" textLength="43" x="1167" y="103.9189">-String id</text><text fill="#000000" font-family="sans-serif" font-size="11" lengthAdjust="spacingAndGlyphs" textLength="61" x="1167" y="117.7549">-String name</text><text fill="#000000" font-family="sans-serif" font-size="11" lengthAdjust="spacingAndGlyphs" textLength="114" x="1167" y="131.5908">-String levelOfExpertise</text><text fill="#000000" font-family="sans-serif" font-size="11" lengthAdjust="spacingAndGlyphs" textLength="59" x="1167" y="145.4268">-String email</text><text fill="#000000" font-family="sans-serif" font-size="11" lengthAdjust="spacingAndGlyphs" textLength="50" x="1167" y="159.2627">-String NIF</text><text fill="#000000" font-family="sans-serif" font-size="11" lengthAdjust="spacingAndGlyphs" textLength="123" x="1167" y="173.0986">-String bankAccountIBAN</text><text fill="#000000" font-family="sans-serif" font-size="11" lengthAdjust="spacingAndGlyphs" textLength="75" x="1167" y="186.9346">-String address</text><text fill="#000000" font-family="sans-serif" font-size="11" lengthAdjust="spacingAndGlyphs" textLength="72" x="1167" y="200.7705">-String country</text><!--MD5=[764fca796ce7f635542948d8fc39db5e]
class Payment--><rect fill="#FEFECE" filter="url(#f1vx6f5ay9z53k)" height="40" id="Payment" style="stroke: #A80036; stroke-width: 1.5;" width="80" x="655" y="161"/><ellipse cx="670" cy="177" fill="#ADD1B2" rx="11" ry="11" style="stroke: #A80036; stroke-width: 1.0;"/><path d="M672.7656,172.875 Q672.9219,172.6563 673.1094,172.5469 Q673.2969,172.4375 673.5156,172.4375 Q673.8906,172.4375 674.125,172.7031 Q674.3594,172.9531 674.3594,173.5625 L674.3594,175.0156 Q674.3594,175.625 674.125,175.8906 Q673.8906,176.1563 673.5156,176.1563 Q673.1719,176.1563 672.9688,175.9531 Q672.7656,175.7656 672.6563,175.25 Q672.6094,174.8906 672.4219,174.7031 Q672.0938,174.3281 671.4844,174.1094 Q670.875,173.8906 670.25,173.8906 Q669.4844,173.8906 668.8438,174.2188 Q668.2188,174.5469 667.7188,175.2969 Q667.2344,176.0469 667.2344,177.0781 L667.2344,178.1719 Q667.2344,179.4063 668.125,180.2344 Q669.0156,181.0469 670.6094,181.0469 Q671.5469,181.0469 672.2031,180.7969 Q672.5938,180.6406 673.0156,180.2031 Q673.2813,179.9375 673.4219,179.8594 Q673.5781,179.7813 673.7813,179.7813 Q674.1094,179.7813 674.3594,180.0469 Q674.625,180.2969 674.625,180.6406 Q674.625,180.9844 674.2813,181.3906 Q673.7813,181.9688 672.9844,182.2969 Q671.9063,182.75 670.6094,182.75 Q669.0938,182.75 667.8906,182.125 Q666.9063,181.625 666.2188,180.5625 Q665.5313,179.4844 665.5313,178.2031 L665.5313,177.0469 Q665.5313,175.7188 666.1406,174.5781 Q666.7656,173.4219 667.8594,172.8125 Q668.9531,172.1875 670.1875,172.1875 Q670.9219,172.1875 671.5625,172.3594 Q672.2188,172.5156 672.7656,172.875 Z "/><text fill="#000000" font-family="sans-serif" font-size="12" lengthAdjust="spacingAndGlyphs" textLength="48" x="684" y="181.9102">Payment</text><line style="stroke: #A80036; stroke-width: 1.5;" x1="656" x2="734" y1="193" y2="193"/><!--MD5=[8806e557260fb3598decb516dc04693d]
class EmailAPI--><rect fill="#FEFECE" filter="url(#f1vx6f5ay9z53k)" height="40" id="EmailAPI" style="stroke: #A80036; stroke-width: 1.5;" width="82" x="911" y="151"/><ellipse cx="926" cy="167" fill="#ADD1B2" rx="11" ry="11" style="stroke: #A80036; stroke-width: 1.0;"/><path d="M928.7656,162.875 Q928.9219,162.6563 929.1094,162.5469 Q929.2969,162.4375 929.5156,162.4375 Q929.8906,162.4375 930.125,162.7031 Q930.3594,162.9531 930.3594,163.5625 L930.3594,165.0156 Q930.3594,165.625 930.125,165.8906 Q929.8906,166.1563 929.5156,166.1563 Q929.1719,166.1563 928.9688,165.9531 Q928.7656,165.7656 928.6563,165.25 Q928.6094,164.8906 928.4219,164.7031 Q928.0938,164.3281 927.4844,164.1094 Q926.875,163.8906 926.25,163.8906 Q925.4844,163.8906 924.8438,164.2188 Q924.2188,164.5469 923.7188,165.2969 Q923.2344,166.0469 923.2344,167.0781 L923.2344,168.1719 Q923.2344,169.4063 924.125,170.2344 Q925.0156,171.0469 926.6094,171.0469 Q927.5469,171.0469 928.2031,170.7969 Q928.5938,170.6406 929.0156,170.2031 Q929.2813,169.9375 929.4219,169.8594 Q929.5781,169.7813 929.7813,169.7813 Q930.1094,169.7813 930.3594,170.0469 Q930.625,170.2969 930.625,170.6406 Q930.625,170.9844 930.2813,171.3906 Q929.7813,171.9688 928.9844,172.2969 Q927.9063,172.75 926.6094,172.75 Q925.0938,172.75 923.8906,172.125 Q922.9063,171.625 922.2188,170.5625 Q921.5313,169.4844 921.5313,168.2031 L921.5313,167.0469 Q921.5313,165.7188 922.1406,164.5781 Q922.7656,163.4219 923.8594,162.8125 Q924.9531,162.1875 926.1875,162.1875 Q926.9219,162.1875 927.5625,162.3594 Q928.2188,162.5156 928.7656,162.875 Z "/><text fill="#000000" font-family="sans-serif" font-size="12" lengthAdjust="spacingAndGlyphs" textLength="50" x="940" y="171.9102">EmailAPI</text><line style="stroke: #A80036; stroke-width: 1.5;" x1="912" x2="992" y1="183" y2="183"/><!--MD5=[b9b2b358c4596a7c3c612fa1a577c109]
class PaymentAPI--><rect fill="#FEFECE" filter="url(#f1vx6f5ay9z53k)" height="40" id="PaymentAPI" style="stroke: #A80036; stroke-width: 1.5;" width="98" x="903" y="274"/><ellipse cx="918" cy="290" fill="#ADD1B2" rx="11" ry="11" style="stroke: #A80036; stroke-width: 1.0;"/><path d="M920.7656,285.875 Q920.9219,285.6563 921.1094,285.5469 Q921.2969,285.4375 921.5156,285.4375 Q921.8906,285.4375 922.125,285.7031 Q922.3594,285.9531 922.3594,286.5625 L922.3594,288.0156 Q922.3594,288.625 922.125,288.8906 Q921.8906,289.1563 921.5156,289.1563 Q921.1719,289.1563 920.9688,288.9531 Q920.7656,288.7656 920.6563,288.25 Q920.6094,287.8906 920.4219,287.7031 Q920.0938,287.3281 919.4844,287.1094 Q918.875,286.8906 918.25,286.8906 Q917.4844,286.8906 916.8438,287.2188 Q916.2188,287.5469 915.7188,288.2969 Q915.2344,289.0469 915.2344,290.0781 L915.2344,291.1719 Q915.2344,292.4063 916.125,293.2344 Q917.0156,294.0469 918.6094,294.0469 Q919.5469,294.0469 920.2031,293.7969 Q920.5938,293.6406 921.0156,293.2031 Q921.2813,292.9375 921.4219,292.8594 Q921.5781,292.7813 921.7813,292.7813 Q922.1094,292.7813 922.3594,293.0469 Q922.625,293.2969 922.625,293.6406 Q922.625,293.9844 922.2813,294.3906 Q921.7813,294.9688 920.9844,295.2969 Q919.9063,295.75 918.6094,295.75 Q917.0938,295.75 915.8906,295.125 Q914.9063,294.625 914.2188,293.5625 Q913.5313,292.4844 913.5313,291.2031 L913.5313,290.0469 Q913.5313,288.7188 914.1406,287.5781 Q914.7656,286.4219 915.8594,285.8125 Q916.9531,285.1875 918.1875,285.1875 Q918.9219,285.1875 919.5625,285.3594 Q920.2188,285.5156 920.7656,285.875 Z "/><text fill="#000000" font-family="sans-serif" font-size="12" lengthAdjust="spacingAndGlyphs" textLength="66" x="932" y="294.9102">PaymentAPI</text><line style="stroke: #A80036; stroke-width: 1.5;" x1="904" x2="1000" y1="306" y2="306"/><!--MD5=[b76730e11bf88a141099e30fd5a76626]
class MonetaryUnitConversionAPI--><rect fill="#FEFECE" filter="url(#f1vx6f5ay9z53k)" height="40" id="MonetaryUnitConversionAPI" style="stroke: #A80036; stroke-width: 1.5;" width="184" x="860" y="444"/><ellipse cx="875" cy="460" fill="#ADD1B2" rx="11" ry="11" style="stroke: #A80036; stroke-width: 1.0;"/><path d="M877.7656,455.875 Q877.9219,455.6563 878.1094,455.5469 Q878.2969,455.4375 878.5156,455.4375 Q878.8906,455.4375 879.125,455.7031 Q879.3594,455.9531 879.3594,456.5625 L879.3594,458.0156 Q879.3594,458.625 879.125,458.8906 Q878.8906,459.1563 878.5156,459.1563 Q878.1719,459.1563 877.9688,458.9531 Q877.7656,458.7656 877.6563,458.25 Q877.6094,457.8906 877.4219,457.7031 Q877.0938,457.3281 876.4844,457.1094 Q875.875,456.8906 875.25,456.8906 Q874.4844,456.8906 873.8438,457.2188 Q873.2188,457.5469 872.7188,458.2969 Q872.2344,459.0469 872.2344,460.0781 L872.2344,461.1719 Q872.2344,462.4063 873.125,463.2344 Q874.0156,464.0469 875.6094,464.0469 Q876.5469,464.0469 877.2031,463.7969 Q877.5938,463.6406 878.0156,463.2031 Q878.2813,462.9375 878.4219,462.8594 Q878.5781,462.7813 878.7813,462.7813 Q879.1094,462.7813 879.3594,463.0469 Q879.625,463.2969 879.625,463.6406 Q879.625,463.9844 879.2813,464.3906 Q878.7813,464.9688 877.9844,465.2969 Q876.9063,465.75 875.6094,465.75 Q874.0938,465.75 872.8906,465.125 Q871.9063,464.625 871.2188,463.5625 Q870.5313,462.4844 870.5313,461.2031 L870.5313,460.0469 Q870.5313,458.7188 871.1406,457.5781 Q871.7656,456.4219 872.8594,455.8125 Q873.9531,455.1875 875.1875,455.1875 Q875.9219,455.1875 876.5625,455.3594 Q877.2188,455.5156 877.7656,455.875 Z "/><text fill="#000000" font-family="sans-serif" font-size="12" lengthAdjust="spacingAndGlyphs" textLength="152" x="889" y="464.9102">MonetaryUnitConversionAPI</text><line style="stroke: #A80036; stroke-width: 1.5;" x1="861" x2="1043" y1="476" y2="476"/><!--MD5=[c4629210b2ba88e64afbee18491f07dd]
link Payment to Transaction--><path d="M735.015,162.332 C744.704,158.013 755.14,153.626 765,150 C811.233,132.997 865.464,117.771 903.398,107.855 " fill="none" id="Payment-Transaction" style="stroke: #A80036; stroke-width: 1.0;"/><text fill="#000000" font-family="sans-serif" font-size="13" lengthAdjust="spacingAndGlyphs" textLength="50" x="766" y="126.4951">registers</text><polygon fill="#000000" points="819,119.6758,825,122.6758,819,125.6758,819,119.6758" style="stroke: #000000; stroke-width: 1.0;"/><text fill="#000000" font-family="sans-serif" font-size="13" lengthAdjust="spacingAndGlyphs" textLength="7" x="743.0381" y="173.8926">1</text><text fill="#000000" font-family="sans-serif" font-size="13" lengthAdjust="spacingAndGlyphs" textLength="23" x="872.3218" y="124.0418">1,...</text><!--MD5=[ac4dd7fdeb0fa08e65a2b7971307989b]
link Payment to EmailAPI--><path d="M735.007,179.47 C782.582,177.605 862.595,174.467 910.735,172.579 " fill="none" id="Payment-EmailAPI" style="stroke: #A80036; stroke-width: 1.0;"/><text fill="#000000" font-family="sans-serif" font-size="13" lengthAdjust="spacingAndGlyphs" textLength="28" x="777" y="172.4951">uses</text><polygon fill="#000000" points="808,165.6758,814,168.6758,808,171.6758,808,165.6758" style="stroke: #000000; stroke-width: 1.0;"/><text fill="#000000" font-family="sans-serif" font-size="13" lengthAdjust="spacingAndGlyphs" textLength="5" x="743.1099" y="194.232">*</text><text fill="#000000" font-family="sans-serif" font-size="13" lengthAdjust="spacingAndGlyphs" textLength="7" x="896.041" y="187.7507">1</text><!--MD5=[4e8d4ca70e30f9b9e34071c7768f0551]
link Payment to PaymentAPI--><path d="M735.007,198.285 C780.908,218.626 857.004,252.347 905.537,273.854 " fill="none" id="Payment-PaymentAPI" style="stroke: #A80036; stroke-width: 1.0;"/><text fill="#000000" font-family="sans-serif" font-size="13" lengthAdjust="spacingAndGlyphs" textLength="28" x="777" y="210.4951">uses</text><polygon fill="#000000" points="808,203.6758,814,206.6758,808,209.6758,808,203.6758" style="stroke: #000000; stroke-width: 1.0;"/><text fill="#000000" font-family="sans-serif" font-size="13" lengthAdjust="spacingAndGlyphs" textLength="5" x="743.1099" y="216.6336">*</text><text fill="#000000" font-family="sans-serif" font-size="13" lengthAdjust="spacingAndGlyphs" textLength="7" x="888.2321" y="265.5803">1</text><!--MD5=[a5bfdb67ecdee50c8f593adbd3c04571]
link Payment to MonetaryUnitConversionAPI--><path d="M712.472,201.107 C726.291,217.846 746.656,242.215 765,263 C824.46,330.373 897.505,407.823 931.666,443.7476 " fill="none" id="Payment-MonetaryUnitConversionAPI" style="stroke: #A80036; stroke-width: 1.0;"/><text fill="#000000" font-family="sans-serif" font-size="13" lengthAdjust="spacingAndGlyphs" textLength="28" x="777" y="259.4951">uses</text><polygon fill="#000000" points="786.5,268.3516,789.5,274.3516,792.5,268.3516,786.5,268.3516" style="stroke: #000000; stroke-width: 1.0;"/><text fill="#000000" font-family="sans-serif" font-size="13" lengthAdjust="spacingAndGlyphs" textLength="5" x="711.6829" y="222.5566">*</text><text fill="#000000" font-family="sans-serif" font-size="13" lengthAdjust="spacingAndGlyphs" textLength="7" x="917.6648" y="432.9952">1</text><!--MD5=[c9e7bf11fbb39a4b7f8255480c211d61]
link Payment to Organization--><path d="M654.924,179.323 C595.647,176.65 479.474,170.906 381,163 C340.78,159.771 295.454,155.063 261.078,151.272 " fill="none" id="Payment-&gt;Organization" style="stroke: #A80036; stroke-width: 1.0;"/><polygon fill="#A80036" points="256.088,150.72,264.5934,155.6857,261.0577,151.27,265.4734,147.7342,256.088,150.72" style="stroke: #A80036; stroke-width: 1.0;"/><polygon fill="#000000" points="398.5,152.6758,392.5,155.6758,398.5,158.6758,398.5,152.6758" style="stroke: #000000; stroke-width: 1.0;"/><text fill="#000000" font-family="sans-serif" font-size="13" lengthAdjust="spacingAndGlyphs" textLength="102" x="404.5" y="159.4951">made on behalf of</text><text fill="#000000" font-family="sans-serif" font-size="13" lengthAdjust="spacingAndGlyphs" textLength="5" x="642.074" y="194.0163">*</text><text fill="#000000" font-family="sans-serif" font-size="13" lengthAdjust="spacingAndGlyphs" textLength="7" x="264.0322" y="166.2681">1</text><!--MD5=[542f32193441b56ea302115ed1249c3b]
link Transaction to Freelancer--><path d="M1000.501,102.23 C1044.77,108.035 1111.22,116.751 1160.81,123.253 " fill="none" id="Transaction-Freelancer" style="stroke: #A80036; stroke-width: 1.0;"/><text fill="#000000" font-family="sans-serif" font-size="13" lengthAdjust="spacingAndGlyphs" textLength="11" x="1090.5" y="109.4951">to</text><polygon fill="#000000" points="1104.5,102.6758,1110.5,105.6758,1104.5,108.6758,1104.5,102.6758" style="stroke: #000000; stroke-width: 1.0;"/><text fill="#000000" font-family="sans-serif" font-size="13" lengthAdjust="spacingAndGlyphs" textLength="5" x="1008.6293" y="118.021">*</text><text fill="#000000" font-family="sans-serif" font-size="13" lengthAdjust="spacingAndGlyphs" textLength="7" x="1146.0236" y="136.7027">1</text><!--MD5=[f8679721e8e5159e33912074b64b525d]
link PaymentScheduler to Payment--><path d="M517.034,116.928 C549.677,128.204 589.459,142.112 625,155 C634.628,158.491 644.976,162.34 654.655,165.981 " fill="none" id="PaymentScheduler-Payment" style="stroke: #A80036; stroke-width: 1.0;"/><text fill="#000000" font-family="sans-serif" font-size="13" lengthAdjust="spacingAndGlyphs" textLength="59" x="550" y="124.4951">schedules</text><polygon fill="#000000" points="612,117.6758,618,120.6758,612,123.6758,612,117.6758" style="stroke: #000000; stroke-width: 1.0;"/><text fill="#000000" font-family="sans-serif" font-size="13" lengthAdjust="spacingAndGlyphs" textLength="7" x="524.858" y="133.843">1</text><text fill="#000000" font-family="sans-serif" font-size="13" lengthAdjust="spacingAndGlyphs" textLength="5" x="642.0232" y="178.2572">*</text><!--MD5=[5f4f57afaa4ed75c0a27618a4620afc1]
link Organization to PaymentScheduler--><path d="M256.246,134.495 C292.284,126.884 341.41,116.51 380.915,108.167 " fill="none" id="Organization-PaymentScheduler" style="stroke: #A80036; stroke-width: 1.0;"/><text fill="#000000" font-family="sans-serif" font-size="13" lengthAdjust="spacingAndGlyphs" textLength="28" x="298" y="111.4951">uses</text><polygon fill="#000000" points="329,104.6758,335,107.6758,329,110.6758,329,104.6758" style="stroke: #000000; stroke-width: 1.0;"/><text fill="#000000" font-family="sans-serif" font-size="13" lengthAdjust="spacingAndGlyphs" textLength="7" x="263.8743" y="147.6741">1</text><text fill="#000000" font-family="sans-serif" font-size="13" lengthAdjust="spacingAndGlyphs" textLength="7" x="366.0854" y="124.1238">1</text><!--MD5=[42a7202f7cf6325e6697bc6383dceeb9]
link Organization to Transaction--><path d="M238.591,117.817 C271.73,91.847 326.192,54.816 381,42 C570.951,-2.418 804.645,53 903.385,81.289 " fill="none" id="Organization-Transaction" style="stroke: #A80036; stroke-width: 1.0;"/><text fill="#000000" font-family="sans-serif" font-size="13" lengthAdjust="spacingAndGlyphs" textLength="63" x="548" y="22.4951">has unpaid</text><polygon fill="#000000" points="614,15.6758,620,18.6758,614,21.6758,614,15.6758" style="stroke: #000000; stroke-width: 1.0;"/><text fill="#000000" font-family="sans-serif" font-size="13" lengthAdjust="spacingAndGlyphs" textLength="7" x="238.4339" y="107.2357">1</text><text fill="#000000" font-family="sans-serif" font-size="13" lengthAdjust="spacingAndGlyphs" textLength="5" x="890.558" y="93.7834">*</text><!--MD5=[939acada67c666032ddf52a0068bc128]
link App to MonetaryUnitConversionAPI--><path d="M41.6286,360.189 C61.7266,406.419 118.443,516 204.5,516 C204.5,516 204.5,516 696,516 C762.756,516 837.397,498.6788 888.584,484.0302 " fill="none" id="App-MonetaryUnitConversionAPI" style="stroke: #A80036; stroke-width: 1.0;"/><text fill="#000000" font-family="sans-serif" font-size="13" lengthAdjust="spacingAndGlyphs" textLength="50" x="417.5" y="512.4951">supports</text><polygon fill="#000000" points="470.5,505.6758,476.5,508.6758,470.5,511.6758,470.5,505.6758" style="stroke: #000000; stroke-width: 1.0;"/><text fill="#000000" font-family="sans-serif" font-size="13" lengthAdjust="spacingAndGlyphs" textLength="7" x="36.2116" y="381.6617">1</text><text fill="#000000" font-family="sans-serif" font-size="13" lengthAdjust="spacingAndGlyphs" textLength="7" x="862.7639" y="505.4582">1</text><!--MD5=[1370966fb1e3885ea6828d35f10d9d48]
link App to Organization--><path d="M42.5076,319.765 C52.2296,299.195 69.0336,267.023 89,243 C111.524,215.9 142.114,190.319 166.154,172.093 " fill="none" id="App-Organization" style="stroke: #A80036; stroke-width: 1.0;"/><polygon fill="#000000" points="96,201,99,195,102,201,96,201" style="stroke: #000000; stroke-width: 1.0;"/><text fill="#000000" font-family="sans-serif" font-size="13" lengthAdjust="spacingAndGlyphs" textLength="21" x="90" y="217.4951">has</text><text fill="#000000" font-family="sans-serif" font-size="13" lengthAdjust="spacingAndGlyphs" textLength="7" x="37.4192" y="309.0177">1</text><text fill="#000000" font-family="sans-serif" font-size="13" lengthAdjust="spacingAndGlyphs" textLength="5" x="152.0002" y="193.3211">*</text><!--MD5=[1cb21011969cc62c73f846209be643c8]
link App to EmailAPI--><path d="M59.2833,340 C92.7572,340 152.992,340 204.5,340 C204.5,340 204.5,340 696,340 C756.353,340 781.527,353.957 830,318 C854.265,300 842.07,281.317 860,257 C878.706,231.631 905.415,207.41 925.061,191.176 " fill="none" id="App-EmailAPI" style="stroke: #A80036; stroke-width: 1.0;"/><text fill="#000000" font-family="sans-serif" font-size="13" lengthAdjust="spacingAndGlyphs" textLength="50" x="417.5" y="336.4951">supports</text><polygon fill="#000000" points="470.5,329.6758,476.5,332.6758,470.5,335.6758,470.5,329.6758" style="stroke: #000000; stroke-width: 1.0;"/><text fill="#000000" font-family="sans-serif" font-size="13" lengthAdjust="spacingAndGlyphs" textLength="7" x="67.0434" y="355.5902">1</text><text fill="#000000" font-family="sans-serif" font-size="13" lengthAdjust="spacingAndGlyphs" textLength="7" x="909.5" y="212.6451">1</text><!--MD5=[c476b523f9294f20b13319074aa597a2]
link App to PaymentAPI--><path d="M55.6814,360.189 C86.615,386.17 145.57,428 204.5,428 C204.5,428 204.5,428 696,428 C792.772,428 888.939,351.443 930.128,314.061 " fill="none" id="App-PaymentAPI" style="stroke: #A80036; stroke-width: 1.0;"/><text fill="#000000" font-family="sans-serif" font-size="13" lengthAdjust="spacingAndGlyphs" textLength="50" x="417.5" y="424.4951">supports</text><polygon fill="#000000" points="470.5,417.6758,476.5,420.6758,470.5,423.6758,470.5,417.6758" style="stroke: #000000; stroke-width: 1.0;"/><text fill="#000000" font-family="sans-serif" font-size="13" lengthAdjust="spacingAndGlyphs" textLength="7" x="54.2168" y="381.6617">1</text><text fill="#000000" font-family="sans-serif" font-size="13" lengthAdjust="spacingAndGlyphs" textLength="7" x="915.9921" y="335.4977">1</text><!--MD5=[96d7ba993ba442b366771602ebe86063]
link App to Payment--><path d="M59.2642,326.478 C68.4651,322.041 79.0251,317.386 89,314 C296.744,243.48 557.577,200.895 654.969,186.504 " fill="none" id="App-Payment" style="stroke: #A80036; stroke-width: 1.0;"/><text fill="#000000" font-family="sans-serif" font-size="13" lengthAdjust="spacingAndGlyphs" textLength="50" x="287" y="239.4951">registers</text><polygon fill="#000000" points="340,232.6758,346,235.6758,340,238.6758,340,232.6758" style="stroke: #000000; stroke-width: 1.0;"/><text fill="#000000" font-family="sans-serif" font-size="13" lengthAdjust="spacingAndGlyphs" textLength="7" x="67.0194" y="318.5031">1</text><text fill="#000000" font-family="sans-serif" font-size="13" lengthAdjust="spacingAndGlyphs" textLength="5" x="642.1273" y="202.5213">*</text><!--MD5=[cbdd6193c065fcdcc21acc530d8838bb]
link EmailAPI to Freelancer--><path d="M993.303,165.393 C1029.39,160.36 1083.73,152.748 1131,146 C1140.64,144.624 1150.81,143.16 1160.8,141.717 " fill="none" id="EmailAPI-Freelancer" style="stroke: #A80036; stroke-width: 1.0;"/><text fill="#000000" font-family="sans-serif" font-size="13" lengthAdjust="spacingAndGlyphs" textLength="42" x="1075" y="142.4951">e-mails</text><polygon fill="#000000" points="1120,135.6758,1126,138.6758,1120,141.6758,1120,135.6758" style="stroke: #000000; stroke-width: 1.0;"/><text fill="#000000" font-family="sans-serif" font-size="13" lengthAdjust="spacingAndGlyphs" textLength="7" x="1001.0035" y="179.3296">1</text><text fill="#000000" font-family="sans-serif" font-size="13" lengthAdjust="spacingAndGlyphs" textLength="5" x="1148.1219" y="157.1862">*</text><!--MD5=[957ca6257d25274fdd9a9e27457e10c3]
@startuml MD

skinparam classAttributeIconSize 0
hide methods
left to right direction

class Transaction {

}

class PaymentScheduler {
        - Integer dayMonth
        - LocalTime timeOfDay
}

class Organization {
        - String nome
}

class App {

}

class Freelancer {
        - String id
        - String name
        - String levelOfExpertise
        - String email
        - String NIF
        - String bankAccountIBAN
        - String address
        - String country
}

Payment                      "1" - - "1,..."  Transaction               : registers >
Payment                      "*" - - "1"      EmailAPI                  : uses >
Payment                      "*" - - "1"      PaymentAPI                : uses >
Payment                      "*" - - "1"      MonetaryUnitConversionAPI : uses >
Payment                      "*" - -> "1"     Organization              : made on behalf of >
Transaction                  "*" - - "1"      Freelancer                : to >
PaymentScheduler             "1" - - "*"      Payment                   : schedules >
Organization                 "1" - - "1"      PaymentScheduler          : uses >
Organization                 "1" - - "*"      Transaction               : has unpaid >
App                          "1" - - "1"      MonetaryUnitConversionAPI : supports >
App                          "1" - - "*"      Organization              : has >
App                          "1" - - "1"      EmailAPI                  : supports >
App                          "1" - - "1"      PaymentAPI                : supports >
App                          "1" - - "*"      Payment                   : registers >
EmailAPI                     "1" - - "*"      Freelancer                : e-mails >

@enduml

PlantUML version 1.2020.10(Sun May 17 10:35:57 WEST 2020)
(GPL source distribution)
Java Runtime: OpenJDK Runtime Environment
JVM: OpenJDK 64-Bit Server VM
Java Version: 14+36
Operating System: Windows 10
Default Encoding: Cp1252
Language: en
Country: US
--></g></svg>