<?xml version="1.0" encoding="UTF-8" standalone="no"?><svg xmlns="http://www.w3.org/2000/svg" xmlns:xlink="http://www.w3.org/1999/xlink" contentScriptType="application/ecmascript" contentStyleType="text/css" height="1683px" preserveAspectRatio="none" style="width:777px;height:1683px;" version="1.1" viewBox="0 0 777 1683" width="777px" zoomAndPan="magnify"><defs><filter height="300%" id="fexi6s78hn0pi" width="300%" x="-1" y="-1"><feGaussianBlur result="blurOut" stdDeviation="2.0"/><feColorMatrix in="blurOut" result="blurOut2" type="matrix" values="0 0 0 0 0 0 0 0 0 0 0 0 0 0 0 0 0 0 .4 0"/><feOffset dx="4.0" dy="4.0" in="blurOut2" result="blurOut3"/><feBlend in="SourceGraphic" in2="blurOut3" mode="normal"/></filter></defs><g><!--MD5=[2ad3bda609d85732b523ad100919172e]
class AdministratorStatisticsUI--><rect fill="#FEFECE" filter="url(#fexi6s78hn0pi)" height="48" id="AdministratorStatisticsUI" style="stroke: #A80036; stroke-width: 1.5;" width="167" x="506" y="8"/><ellipse cx="521" cy="24" fill="#ADD1B2" rx="11" ry="11" style="stroke: #A80036; stroke-width: 1.0;"/><path d="M523.7656,19.875 Q523.9219,19.6563 524.1094,19.5469 Q524.2969,19.4375 524.5156,19.4375 Q524.8906,19.4375 525.125,19.7031 Q525.3594,19.9531 525.3594,20.5625 L525.3594,22.0156 Q525.3594,22.625 525.125,22.8906 Q524.8906,23.1563 524.5156,23.1563 Q524.1719,23.1563 523.9688,22.9531 Q523.7656,22.7656 523.6563,22.25 Q523.6094,21.8906 523.4219,21.7031 Q523.0938,21.3281 522.4844,21.1094 Q521.875,20.8906 521.25,20.8906 Q520.4844,20.8906 519.8438,21.2188 Q519.2188,21.5469 518.7188,22.2969 Q518.2344,23.0469 518.2344,24.0781 L518.2344,25.1719 Q518.2344,26.4063 519.125,27.2344 Q520.0156,28.0469 521.6094,28.0469 Q522.5469,28.0469 523.2031,27.7969 Q523.5938,27.6406 524.0156,27.2031 Q524.2813,26.9375 524.4219,26.8594 Q524.5781,26.7813 524.7813,26.7813 Q525.1094,26.7813 525.3594,27.0469 Q525.625,27.2969 525.625,27.6406 Q525.625,27.9844 525.2813,28.3906 Q524.7813,28.9688 523.9844,29.2969 Q522.9063,29.75 521.6094,29.75 Q520.0938,29.75 518.8906,29.125 Q517.9063,28.625 517.2188,27.5625 Q516.5313,26.4844 516.5313,25.2031 L516.5313,24.0469 Q516.5313,22.7188 517.1406,21.5781 Q517.7656,20.4219 518.8594,19.8125 Q519.9531,19.1875 521.1875,19.1875 Q521.9219,19.1875 522.5625,19.3594 Q523.2188,19.5156 523.7656,19.875 Z "/><text fill="#000000" font-family="sans-serif" font-size="12" lengthAdjust="spacingAndGlyphs" textLength="135" x="535" y="28.9102">AdministratorStatisticsUI</text><line style="stroke: #A80036; stroke-width: 1.5;" x1="507" x2="672" y1="40" y2="40"/><line style="stroke: #A80036; stroke-width: 1.5;" x1="507" x2="672" y1="48" y2="48"/><!--MD5=[29bdcc2f1551b6504631d33ea5a27fd9]
class AdministratorStatisticsController--><rect fill="#FEFECE" filter="url(#fexi6s78hn0pi)" height="158.6875" id="AdministratorStatisticsController" style="stroke: #A80036; stroke-width: 1.5;" width="223" x="478" y="117"/><ellipse cx="499.3" cy="133" fill="#ADD1B2" rx="11" ry="11" style="stroke: #A80036; stroke-width: 1.0;"/><path d="M502.0656,128.875 Q502.2219,128.6563 502.4094,128.5469 Q502.5969,128.4375 502.8156,128.4375 Q503.1906,128.4375 503.425,128.7031 Q503.6594,128.9531 503.6594,129.5625 L503.6594,131.0156 Q503.6594,131.625 503.425,131.8906 Q503.1906,132.1563 502.8156,132.1563 Q502.4719,132.1563 502.2688,131.9531 Q502.0656,131.7656 501.9563,131.25 Q501.9094,130.8906 501.7219,130.7031 Q501.3938,130.3281 500.7844,130.1094 Q500.175,129.8906 499.55,129.8906 Q498.7844,129.8906 498.1438,130.2188 Q497.5188,130.5469 497.0188,131.2969 Q496.5344,132.0469 496.5344,133.0781 L496.5344,134.1719 Q496.5344,135.4063 497.425,136.2344 Q498.3156,137.0469 499.9094,137.0469 Q500.8469,137.0469 501.5031,136.7969 Q501.8938,136.6406 502.3156,136.2031 Q502.5813,135.9375 502.7219,135.8594 Q502.8781,135.7813 503.0813,135.7813 Q503.4094,135.7813 503.6594,136.0469 Q503.925,136.2969 503.925,136.6406 Q503.925,136.9844 503.5813,137.3906 Q503.0813,137.9688 502.2844,138.2969 Q501.2063,138.75 499.9094,138.75 Q498.3938,138.75 497.1906,138.125 Q496.2063,137.625 495.5188,136.5625 Q494.8313,135.4844 494.8313,134.2031 L494.8313,133.0469 Q494.8313,131.7188 495.4406,130.5781 Q496.0656,129.4219 497.1594,128.8125 Q498.2531,128.1875 499.4875,128.1875 Q500.2219,128.1875 500.8625,128.3594 Q501.5188,128.5156 502.0656,128.875 Z "/><text fill="#000000" font-family="sans-serif" font-size="12" lengthAdjust="spacingAndGlyphs" textLength="177" x="514.7" y="137.9102">AdministratorStatisticsController</text><line style="stroke: #A80036; stroke-width: 1.5;" x1="479" x2="700" y1="149" y2="149"/><line style="stroke: #A80036; stroke-width: 1.5;" x1="479" x2="700" y1="157" y2="157"/><text fill="#000000" font-family="sans-serif" font-size="11" lengthAdjust="spacingAndGlyphs" textLength="87" x="484" y="172.4189">+getFreelancers()</text><text fill="#000000" font-family="sans-serif" font-size="11" lengthAdjust="spacingAndGlyphs" textLength="211" x="484" y="186.2549">+setFreelancers(Set&lt;Freelancer&gt; selected)</text><text fill="#000000" font-family="sans-serif" font-size="11" lengthAdjust="spacingAndGlyphs" textLength="88" x="484" y="200.0908">+getMeanDelays()</text><text fill="#000000" font-family="sans-serif" font-size="11" lengthAdjust="spacingAndGlyphs" textLength="102" x="484" y="213.9268">+getMeanPayments()</text><text fill="#000000" font-family="sans-serif" font-size="11" lengthAdjust="spacingAndGlyphs" textLength="150" x="484" y="227.7627">+getStandardDeviationDelays()</text><text fill="#000000" font-family="sans-serif" font-size="11" lengthAdjust="spacingAndGlyphs" textLength="164" x="484" y="241.5986">+getStandardDeviationPayments()</text><text fill="#000000" font-family="sans-serif" font-size="11" lengthAdjust="spacingAndGlyphs" textLength="132" x="484" y="255.4346">+getHistogramDataDelays()</text><text fill="#000000" font-family="sans-serif" font-size="11" lengthAdjust="spacingAndGlyphs" textLength="146" x="484" y="269.2705">+getHistogramDataPayments()</text><!--MD5=[335f4d9be48430461c68bf6d6fdba145]
class App--><rect fill="#FEFECE" filter="url(#fexi6s78hn0pi)" height="75.6719" id="App" style="stroke: #A80036; stroke-width: 1.5;" width="132" x="602.5" y="337"/><ellipse cx="653.75" cy="353" fill="#ADD1B2" rx="11" ry="11" style="stroke: #A80036; stroke-width: 1.0;"/><path d="M656.5156,348.875 Q656.6719,348.6563 656.8594,348.5469 Q657.0469,348.4375 657.2656,348.4375 Q657.6406,348.4375 657.875,348.7031 Q658.1094,348.9531 658.1094,349.5625 L658.1094,351.0156 Q658.1094,351.625 657.875,351.8906 Q657.6406,352.1563 657.2656,352.1563 Q656.9219,352.1563 656.7188,351.9531 Q656.5156,351.7656 656.4063,351.25 Q656.3594,350.8906 656.1719,350.7031 Q655.8438,350.3281 655.2344,350.1094 Q654.625,349.8906 654,349.8906 Q653.2344,349.8906 652.5938,350.2188 Q651.9688,350.5469 651.4688,351.2969 Q650.9844,352.0469 650.9844,353.0781 L650.9844,354.1719 Q650.9844,355.4063 651.875,356.2344 Q652.7656,357.0469 654.3594,357.0469 Q655.2969,357.0469 655.9531,356.7969 Q656.3438,356.6406 656.7656,356.2031 Q657.0313,355.9375 657.1719,355.8594 Q657.3281,355.7813 657.5313,355.7813 Q657.8594,355.7813 658.1094,356.0469 Q658.375,356.2969 658.375,356.6406 Q658.375,356.9844 658.0313,357.3906 Q657.5313,357.9688 656.7344,358.2969 Q655.6563,358.75 654.3594,358.75 Q652.8438,358.75 651.6406,358.125 Q650.6563,357.625 649.9688,356.5625 Q649.2813,355.4844 649.2813,354.2031 L649.2813,353.0469 Q649.2813,351.7188 649.8906,350.5781 Q650.5156,349.4219 651.6094,348.8125 Q652.7031,348.1875 653.9375,348.1875 Q654.6719,348.1875 655.3125,348.3594 Q655.9688,348.5156 656.5156,348.875 Z "/><text fill="#000000" font-family="sans-serif" font-size="12" lengthAdjust="spacingAndGlyphs" textLength="21" x="674.25" y="357.9102">App</text><line style="stroke: #A80036; stroke-width: 1.5;" x1="603.5" x2="733.5" y1="369" y2="369"/><line style="stroke: #A80036; stroke-width: 1.5;" x1="603.5" x2="733.5" y1="377" y2="377"/><text fill="#000000" font-family="sans-serif" font-size="11" lengthAdjust="spacingAndGlyphs" textLength="111" x="608.5" y="392.4189">+getRegistFreelancer()</text><text fill="#000000" font-family="sans-serif" font-size="11" lengthAdjust="spacingAndGlyphs" textLength="120" x="608.5" y="406.2549">+getRegistOrganization()</text><!--MD5=[eba5144af5135a87840971fc4358c553]
class RegistFreelancer--><rect fill="#FEFECE" filter="url(#fexi6s78hn0pi)" height="61.8359" id="RegistFreelancer" style="stroke: #A80036; stroke-width: 1.5;" width="127" x="607" y="491"/><ellipse cx="622" cy="507" fill="#ADD1B2" rx="11" ry="11" style="stroke: #A80036; stroke-width: 1.0;"/><path d="M624.7656,502.875 Q624.9219,502.6563 625.1094,502.5469 Q625.2969,502.4375 625.5156,502.4375 Q625.8906,502.4375 626.125,502.7031 Q626.3594,502.9531 626.3594,503.5625 L626.3594,505.0156 Q626.3594,505.625 626.125,505.8906 Q625.8906,506.1563 625.5156,506.1563 Q625.1719,506.1563 624.9688,505.9531 Q624.7656,505.7656 624.6563,505.25 Q624.6094,504.8906 624.4219,504.7031 Q624.0938,504.3281 623.4844,504.1094 Q622.875,503.8906 622.25,503.8906 Q621.4844,503.8906 620.8438,504.2188 Q620.2188,504.5469 619.7188,505.2969 Q619.2344,506.0469 619.2344,507.0781 L619.2344,508.1719 Q619.2344,509.4063 620.125,510.2344 Q621.0156,511.0469 622.6094,511.0469 Q623.5469,511.0469 624.2031,510.7969 Q624.5938,510.6406 625.0156,510.2031 Q625.2813,509.9375 625.4219,509.8594 Q625.5781,509.7813 625.7813,509.7813 Q626.1094,509.7813 626.3594,510.0469 Q626.625,510.2969 626.625,510.6406 Q626.625,510.9844 626.2813,511.3906 Q625.7813,511.9688 624.9844,512.2969 Q623.9063,512.75 622.6094,512.75 Q621.0938,512.75 619.8906,512.125 Q618.9063,511.625 618.2188,510.5625 Q617.5313,509.4844 617.5313,508.2031 L617.5313,507.0469 Q617.5313,505.7188 618.1406,504.5781 Q618.7656,503.4219 619.8594,502.8125 Q620.9531,502.1875 622.1875,502.1875 Q622.9219,502.1875 623.5625,502.3594 Q624.2188,502.5156 624.7656,502.875 Z "/><text fill="#000000" font-family="sans-serif" font-size="12" lengthAdjust="spacingAndGlyphs" textLength="95" x="636" y="511.9102">RegistFreelancer</text><line style="stroke: #A80036; stroke-width: 1.5;" x1="608" x2="733" y1="523" y2="523"/><line style="stroke: #A80036; stroke-width: 1.5;" x1="608" x2="733" y1="531" y2="531"/><text fill="#000000" font-family="sans-serif" font-size="11" lengthAdjust="spacingAndGlyphs" textLength="87" x="613" y="546.4189">+getFreelancers()</text><!--MD5=[e09e0019787cf83947156283bb671e06]
class RegistOrganization--><rect fill="#FEFECE" filter="url(#fexi6s78hn0pi)" height="61.8359" id="RegistOrganization" style="stroke: #A80036; stroke-width: 1.5;" width="298" x="198.5" y="491"/><ellipse cx="290.75" cy="507" fill="#ADD1B2" rx="11" ry="11" style="stroke: #A80036; stroke-width: 1.0;"/><path d="M293.5156,502.875 Q293.6719,502.6563 293.8594,502.5469 Q294.0469,502.4375 294.2656,502.4375 Q294.6406,502.4375 294.875,502.7031 Q295.1094,502.9531 295.1094,503.5625 L295.1094,505.0156 Q295.1094,505.625 294.875,505.8906 Q294.6406,506.1563 294.2656,506.1563 Q293.9219,506.1563 293.7188,505.9531 Q293.5156,505.7656 293.4063,505.25 Q293.3594,504.8906 293.1719,504.7031 Q292.8438,504.3281 292.2344,504.1094 Q291.625,503.8906 291,503.8906 Q290.2344,503.8906 289.5938,504.2188 Q288.9688,504.5469 288.4688,505.2969 Q287.9844,506.0469 287.9844,507.0781 L287.9844,508.1719 Q287.9844,509.4063 288.875,510.2344 Q289.7656,511.0469 291.3594,511.0469 Q292.2969,511.0469 292.9531,510.7969 Q293.3438,510.6406 293.7656,510.2031 Q294.0313,509.9375 294.1719,509.8594 Q294.3281,509.7813 294.5313,509.7813 Q294.8594,509.7813 295.1094,510.0469 Q295.375,510.2969 295.375,510.6406 Q295.375,510.9844 295.0313,511.3906 Q294.5313,511.9688 293.7344,512.2969 Q292.6563,512.75 291.3594,512.75 Q289.8438,512.75 288.6406,512.125 Q287.6563,511.625 286.9688,510.5625 Q286.2813,509.4844 286.2813,508.2031 L286.2813,507.0469 Q286.2813,505.7188 286.8906,504.5781 Q287.5156,503.4219 288.6094,502.8125 Q289.7031,502.1875 290.9375,502.1875 Q291.6719,502.1875 292.3125,502.3594 Q292.9688,502.5156 293.5156,502.875 Z "/><text fill="#000000" font-family="sans-serif" font-size="12" lengthAdjust="spacingAndGlyphs" textLength="105" x="311.25" y="511.9102">RegistOrganization</text><line style="stroke: #A80036; stroke-width: 1.5;" x1="199.5" x2="495.5" y1="523" y2="523"/><line style="stroke: #A80036; stroke-width: 1.5;" x1="199.5" x2="495.5" y1="531" y2="531"/><text fill="#000000" font-family="sans-serif" font-size="11" lengthAdjust="spacingAndGlyphs" textLength="286" x="204.5" y="546.4189">+getTransactionsOfFreelancers(Set&lt;Freelancer&gt; selected)</text><!--MD5=[86c7c362de55a38b660185a1328fe18d]
class Organization--><rect fill="#FEFECE" filter="url(#fexi6s78hn0pi)" height="89.5078" id="Organization" style="stroke: #A80036; stroke-width: 1.5;" width="115" x="123" y="631"/><ellipse cx="144.3" cy="647" fill="#ADD1B2" rx="11" ry="11" style="stroke: #A80036; stroke-width: 1.0;"/><path d="M147.0656,642.875 Q147.2219,642.6563 147.4094,642.5469 Q147.5969,642.4375 147.8156,642.4375 Q148.1906,642.4375 148.425,642.7031 Q148.6594,642.9531 148.6594,643.5625 L148.6594,645.0156 Q148.6594,645.625 148.425,645.8906 Q148.1906,646.1563 147.8156,646.1563 Q147.4719,646.1563 147.2688,645.9531 Q147.0656,645.7656 146.9563,645.25 Q146.9094,644.8906 146.7219,644.7031 Q146.3938,644.3281 145.7844,644.1094 Q145.175,643.8906 144.55,643.8906 Q143.7844,643.8906 143.1438,644.2188 Q142.5188,644.5469 142.0188,645.2969 Q141.5344,646.0469 141.5344,647.0781 L141.5344,648.1719 Q141.5344,649.4063 142.425,650.2344 Q143.3156,651.0469 144.9094,651.0469 Q145.8469,651.0469 146.5031,650.7969 Q146.8938,650.6406 147.3156,650.2031 Q147.5813,649.9375 147.7219,649.8594 Q147.8781,649.7813 148.0813,649.7813 Q148.4094,649.7813 148.6594,650.0469 Q148.925,650.2969 148.925,650.6406 Q148.925,650.9844 148.5813,651.3906 Q148.0813,651.9688 147.2844,652.2969 Q146.2063,652.75 144.9094,652.75 Q143.3938,652.75 142.1906,652.125 Q141.2063,651.625 140.5188,650.5625 Q139.8313,649.4844 139.8313,648.2031 L139.8313,647.0469 Q139.8313,645.7188 140.4406,644.5781 Q141.0656,643.4219 142.1594,642.8125 Q143.2531,642.1875 144.4875,642.1875 Q145.2219,642.1875 145.8625,642.3594 Q146.5188,642.5156 147.0656,642.875 Z "/><text fill="#000000" font-family="sans-serif" font-size="12" lengthAdjust="spacingAndGlyphs" textLength="69" x="159.7" y="651.9102">Organization</text><line style="stroke: #A80036; stroke-width: 1.5;" x1="124" x2="237" y1="663" y2="663"/><text fill="#000000" font-family="sans-serif" font-size="11" lengthAdjust="spacingAndGlyphs" textLength="61" x="129" y="678.4189">-String nome</text><text fill="#000000" font-family="sans-serif" font-size="11" lengthAdjust="spacingAndGlyphs" textLength="50" x="129" y="692.2549">-String NIF</text><line style="stroke: #A80036; stroke-width: 1.5;" x1="124" x2="237" y1="698.6719" y2="698.6719"/><text fill="#000000" font-family="sans-serif" font-size="11" lengthAdjust="spacingAndGlyphs" textLength="103" x="129" y="714.0908">+getListTransaction()</text><!--MD5=[031a1c1e2bc7e464975852eaac477fa5]
class ListTransaction--><rect fill="#FEFECE" filter="url(#fexi6s78hn0pi)" height="75.6719" id="ListTransaction" style="stroke: #A80036; stroke-width: 1.5;" width="298" x="198.5" y="799"/><ellipse cx="300.75" cy="815" fill="#ADD1B2" rx="11" ry="11" style="stroke: #A80036; stroke-width: 1.0;"/><path d="M303.5156,810.875 Q303.6719,810.6563 303.8594,810.5469 Q304.0469,810.4375 304.2656,810.4375 Q304.6406,810.4375 304.875,810.7031 Q305.1094,810.9531 305.1094,811.5625 L305.1094,813.0156 Q305.1094,813.625 304.875,813.8906 Q304.6406,814.1563 304.2656,814.1563 Q303.9219,814.1563 303.7188,813.9531 Q303.5156,813.7656 303.4063,813.25 Q303.3594,812.8906 303.1719,812.7031 Q302.8438,812.3281 302.2344,812.1094 Q301.625,811.8906 301,811.8906 Q300.2344,811.8906 299.5938,812.2188 Q298.9688,812.5469 298.4688,813.2969 Q297.9844,814.0469 297.9844,815.0781 L297.9844,816.1719 Q297.9844,817.4063 298.875,818.2344 Q299.7656,819.0469 301.3594,819.0469 Q302.2969,819.0469 302.9531,818.7969 Q303.3438,818.6406 303.7656,818.2031 Q304.0313,817.9375 304.1719,817.8594 Q304.3281,817.7813 304.5313,817.7813 Q304.8594,817.7813 305.1094,818.0469 Q305.375,818.2969 305.375,818.6406 Q305.375,818.9844 305.0313,819.3906 Q304.5313,819.9688 303.7344,820.2969 Q302.6563,820.75 301.3594,820.75 Q299.8438,820.75 298.6406,820.125 Q297.6563,819.625 296.9688,818.5625 Q296.2813,817.4844 296.2813,816.2031 L296.2813,815.0469 Q296.2813,813.7188 296.8906,812.5781 Q297.5156,811.4219 298.6094,810.8125 Q299.7031,810.1875 300.9375,810.1875 Q301.6719,810.1875 302.3125,810.3594 Q302.9688,810.5156 303.5156,810.875 Z "/><text fill="#000000" font-family="sans-serif" font-size="12" lengthAdjust="spacingAndGlyphs" textLength="85" x="321.25" y="819.9102">ListTransaction</text><line style="stroke: #A80036; stroke-width: 1.5;" x1="199.5" x2="495.5" y1="831" y2="831"/><line style="stroke: #A80036; stroke-width: 1.5;" x1="199.5" x2="495.5" y1="839" y2="839"/><text fill="#000000" font-family="sans-serif" font-size="11" lengthAdjust="spacingAndGlyphs" textLength="286" x="204.5" y="854.4189">+getTransactionsOfFreelancers(Set&lt;Freelancer&gt; selected)</text><text fill="#000000" font-family="sans-serif" font-size="11" lengthAdjust="spacingAndGlyphs" textLength="38" x="204.5" y="868.2549">+get(ID)</text><!--MD5=[4555bb1b0911a5adf28ce6dbe60fed2e]
class Transaction--><rect fill="#FEFECE" filter="url(#fexi6s78hn0pi)" height="89.5078" id="Transaction" style="stroke: #A80036; stroke-width: 1.5;" width="209" x="243" y="983"/><ellipse cx="310.75" cy="999" fill="#ADD1B2" rx="11" ry="11" style="stroke: #A80036; stroke-width: 1.0;"/><path d="M313.5156,994.875 Q313.6719,994.6563 313.8594,994.5469 Q314.0469,994.4375 314.2656,994.4375 Q314.6406,994.4375 314.875,994.7031 Q315.1094,994.9531 315.1094,995.5625 L315.1094,997.0156 Q315.1094,997.625 314.875,997.8906 Q314.6406,998.1563 314.2656,998.1563 Q313.9219,998.1563 313.7188,997.9531 Q313.5156,997.7656 313.4063,997.25 Q313.3594,996.8906 313.1719,996.7031 Q312.8438,996.3281 312.2344,996.1094 Q311.625,995.8906 311,995.8906 Q310.2344,995.8906 309.5938,996.2188 Q308.9688,996.5469 308.4688,997.2969 Q307.9844,998.0469 307.9844,999.0781 L307.9844,1000.1719 Q307.9844,1001.4063 308.875,1002.2344 Q309.7656,1003.0469 311.3594,1003.0469 Q312.2969,1003.0469 312.9531,1002.7969 Q313.3438,1002.6406 313.7656,1002.2031 Q314.0313,1001.9375 314.1719,1001.8594 Q314.3281,1001.7813 314.5313,1001.7813 Q314.8594,1001.7813 315.1094,1002.0469 Q315.375,1002.2969 315.375,1002.6406 Q315.375,1002.9844 315.0313,1003.3906 Q314.5313,1003.9688 313.7344,1004.2969 Q312.6563,1004.75 311.3594,1004.75 Q309.8438,1004.75 308.6406,1004.125 Q307.6563,1003.625 306.9688,1002.5625 Q306.2813,1001.4844 306.2813,1000.2031 L306.2813,999.0469 Q306.2813,997.7188 306.8906,996.5781 Q307.5156,995.4219 308.6094,994.8125 Q309.7031,994.1875 310.9375,994.1875 Q311.6719,994.1875 312.3125,994.3594 Q312.9688,994.5156 313.5156,994.875 Z "/><text fill="#000000" font-family="sans-serif" font-size="12" lengthAdjust="spacingAndGlyphs" textLength="65" x="331.25" y="1003.9102">Transaction</text><line style="stroke: #A80036; stroke-width: 1.5;" x1="244" x2="451" y1="1015" y2="1015"/><line style="stroke: #A80036; stroke-width: 1.5;" x1="244" x2="451" y1="1023" y2="1023"/><text fill="#000000" font-family="sans-serif" font-size="11" lengthAdjust="spacingAndGlyphs" textLength="197" x="249" y="1038.4189">+madeByAny(Set&lt;Freelancer&gt; selected)</text><text fill="#000000" font-family="sans-serif" font-size="11" lengthAdjust="spacingAndGlyphs" textLength="131" x="249" y="1052.2549">+getTaskExecutionDetails()</text><text fill="#000000" font-family="sans-serif" font-size="11" lengthAdjust="spacingAndGlyphs" textLength="66" x="249" y="1066.0908">+getAmount()</text><!--MD5=[b34797a66dc35cbf1d65f7e3ca75530e]
class Task--><rect fill="#FEFECE" filter="url(#fexi6s78hn0pi)" height="117.1797" id="Task" style="stroke: #A80036; stroke-width: 1.5;" width="169" x="338" y="1319"/><ellipse cx="404.75" cy="1335" fill="#ADD1B2" rx="11" ry="11" style="stroke: #A80036; stroke-width: 1.0;"/><path d="M407.5156,1330.875 Q407.6719,1330.6563 407.8594,1330.5469 Q408.0469,1330.4375 408.2656,1330.4375 Q408.6406,1330.4375 408.875,1330.7031 Q409.1094,1330.9531 409.1094,1331.5625 L409.1094,1333.0156 Q409.1094,1333.625 408.875,1333.8906 Q408.6406,1334.1563 408.2656,1334.1563 Q407.9219,1334.1563 407.7188,1333.9531 Q407.5156,1333.7656 407.4063,1333.25 Q407.3594,1332.8906 407.1719,1332.7031 Q406.8438,1332.3281 406.2344,1332.1094 Q405.625,1331.8906 405,1331.8906 Q404.2344,1331.8906 403.5938,1332.2188 Q402.9688,1332.5469 402.4688,1333.2969 Q401.9844,1334.0469 401.9844,1335.0781 L401.9844,1336.1719 Q401.9844,1337.4063 402.875,1338.2344 Q403.7656,1339.0469 405.3594,1339.0469 Q406.2969,1339.0469 406.9531,1338.7969 Q407.3438,1338.6406 407.7656,1338.2031 Q408.0313,1337.9375 408.1719,1337.8594 Q408.3281,1337.7813 408.5313,1337.7813 Q408.8594,1337.7813 409.1094,1338.0469 Q409.375,1338.2969 409.375,1338.6406 Q409.375,1338.9844 409.0313,1339.3906 Q408.5313,1339.9688 407.7344,1340.2969 Q406.6563,1340.75 405.3594,1340.75 Q403.8438,1340.75 402.6406,1340.125 Q401.6563,1339.625 400.9688,1338.5625 Q400.2813,1337.4844 400.2813,1336.2031 L400.2813,1335.0469 Q400.2813,1333.7188 400.8906,1332.5781 Q401.5156,1331.4219 402.6094,1330.8125 Q403.7031,1330.1875 404.9375,1330.1875 Q405.6719,1330.1875 406.3125,1330.3594 Q406.9688,1330.5156 407.5156,1330.875 Z "/><text fill="#000000" font-family="sans-serif" font-size="12" lengthAdjust="spacingAndGlyphs" textLength="27" x="425.25" y="1339.9102">Task</text><line style="stroke: #A80036; stroke-width: 1.5;" x1="339" x2="506" y1="1351" y2="1351"/><text fill="#000000" font-family="sans-serif" font-size="11" lengthAdjust="spacingAndGlyphs" textLength="43" x="344" y="1366.4189">-String id</text><text fill="#000000" font-family="sans-serif" font-size="11" lengthAdjust="spacingAndGlyphs" textLength="88" x="344" y="1380.2549">-String description</text><text fill="#000000" font-family="sans-serif" font-size="11" lengthAdjust="spacingAndGlyphs" textLength="116" x="344" y="1394.0908">-Integer durationInHours</text><text fill="#000000" font-family="sans-serif" font-size="11" lengthAdjust="spacingAndGlyphs" textLength="157" x="344" y="1407.9268">-Double costPerHourOfJuniorEur</text><text fill="#000000" font-family="sans-serif" font-size="11" lengthAdjust="spacingAndGlyphs" textLength="78" x="344" y="1421.7627">-String category</text><line style="stroke: #A80036; stroke-width: 1.5;" x1="339" x2="506" y1="1428.1797" y2="1428.1797"/><!--MD5=[f9fa7692a1144bec397c3ffa19589ca2]
class TaskExecutionDetails--><rect fill="#FEFECE" filter="url(#fexi6s78hn0pi)" height="89.5078" id="TaskExecutionDetails" style="stroke: #A80036; stroke-width: 1.5;" width="171" x="258" y="1151"/><ellipse cx="282" cy="1167" fill="#ADD1B2" rx="11" ry="11" style="stroke: #A80036; stroke-width: 1.0;"/><path d="M284.7656,1162.875 Q284.9219,1162.6563 285.1094,1162.5469 Q285.2969,1162.4375 285.5156,1162.4375 Q285.8906,1162.4375 286.125,1162.7031 Q286.3594,1162.9531 286.3594,1163.5625 L286.3594,1165.0156 Q286.3594,1165.625 286.125,1165.8906 Q285.8906,1166.1563 285.5156,1166.1563 Q285.1719,1166.1563 284.9688,1165.9531 Q284.7656,1165.7656 284.6563,1165.25 Q284.6094,1164.8906 284.4219,1164.7031 Q284.0938,1164.3281 283.4844,1164.1094 Q282.875,1163.8906 282.25,1163.8906 Q281.4844,1163.8906 280.8438,1164.2188 Q280.2188,1164.5469 279.7188,1165.2969 Q279.2344,1166.0469 279.2344,1167.0781 L279.2344,1168.1719 Q279.2344,1169.4063 280.125,1170.2344 Q281.0156,1171.0469 282.6094,1171.0469 Q283.5469,1171.0469 284.2031,1170.7969 Q284.5938,1170.6406 285.0156,1170.2031 Q285.2813,1169.9375 285.4219,1169.8594 Q285.5781,1169.7813 285.7813,1169.7813 Q286.1094,1169.7813 286.3594,1170.0469 Q286.625,1170.2969 286.625,1170.6406 Q286.625,1170.9844 286.2813,1171.3906 Q285.7813,1171.9688 284.9844,1172.2969 Q283.9063,1172.75 282.6094,1172.75 Q281.0938,1172.75 279.8906,1172.125 Q278.9063,1171.625 278.2188,1170.5625 Q277.5313,1169.4844 277.5313,1168.2031 L277.5313,1167.0469 Q277.5313,1165.7188 278.1406,1164.5781 Q278.7656,1163.4219 279.8594,1162.8125 Q280.9531,1162.1875 282.1875,1162.1875 Q282.9219,1162.1875 283.5625,1162.3594 Q284.2188,1162.5156 284.7656,1162.875 Z "/><text fill="#000000" font-family="sans-serif" font-size="12" lengthAdjust="spacingAndGlyphs" textLength="119" x="298" y="1171.9102">TaskExecutionDetails</text><line style="stroke: #A80036; stroke-width: 1.5;" x1="259" x2="428" y1="1183" y2="1183"/><text fill="#000000" font-family="sans-serif" font-size="11" lengthAdjust="spacingAndGlyphs" textLength="95" x="264" y="1198.4189">-LocalDate endDate</text><text fill="#000000" font-family="sans-serif" font-size="11" lengthAdjust="spacingAndGlyphs" textLength="99" x="264" y="1212.2549">-Integer delayInDays</text><text fill="#000000" font-family="sans-serif" font-size="11" lengthAdjust="spacingAndGlyphs" textLength="159" x="264" y="1226.0908">-String DescriptionQualityOfWork</text><line style="stroke: #A80036; stroke-width: 1.5;" x1="259" x2="428" y1="1232.5078" y2="1232.5078"/><!--MD5=[1f687b5315377fe49fca59b457947463]
class Freelancer--><rect fill="#FEFECE" filter="url(#fexi6s78hn0pi)" height="158.6875" id="Freelancer" style="stroke: #A80036; stroke-width: 1.5;" width="135" x="524" y="1514"/><ellipse cx="558.8" cy="1530" fill="#ADD1B2" rx="11" ry="11" style="stroke: #A80036; stroke-width: 1.0;"/><path d="M561.5656,1525.875 Q561.7219,1525.6563 561.9094,1525.5469 Q562.0969,1525.4375 562.3156,1525.4375 Q562.6906,1525.4375 562.925,1525.7031 Q563.1594,1525.9531 563.1594,1526.5625 L563.1594,1528.0156 Q563.1594,1528.625 562.925,1528.8906 Q562.6906,1529.1563 562.3156,1529.1563 Q561.9719,1529.1563 561.7688,1528.9531 Q561.5656,1528.7656 561.4563,1528.25 Q561.4094,1527.8906 561.2219,1527.7031 Q560.8938,1527.3281 560.2844,1527.1094 Q559.675,1526.8906 559.05,1526.8906 Q558.2844,1526.8906 557.6438,1527.2188 Q557.0188,1527.5469 556.5188,1528.2969 Q556.0344,1529.0469 556.0344,1530.0781 L556.0344,1531.1719 Q556.0344,1532.4063 556.925,1533.2344 Q557.8156,1534.0469 559.4094,1534.0469 Q560.3469,1534.0469 561.0031,1533.7969 Q561.3938,1533.6406 561.8156,1533.2031 Q562.0813,1532.9375 562.2219,1532.8594 Q562.3781,1532.7813 562.5813,1532.7813 Q562.9094,1532.7813 563.1594,1533.0469 Q563.425,1533.2969 563.425,1533.6406 Q563.425,1533.9844 563.0813,1534.3906 Q562.5813,1534.9688 561.7844,1535.2969 Q560.7063,1535.75 559.4094,1535.75 Q557.8938,1535.75 556.6906,1535.125 Q555.7063,1534.625 555.0188,1533.5625 Q554.3313,1532.4844 554.3313,1531.2031 L554.3313,1530.0469 Q554.3313,1528.7188 554.9406,1527.5781 Q555.5656,1526.4219 556.6594,1525.8125 Q557.7531,1525.1875 558.9875,1525.1875 Q559.7219,1525.1875 560.3625,1525.3594 Q561.0188,1525.5156 561.5656,1525.875 Z "/><text fill="#000000" font-family="sans-serif" font-size="12" lengthAdjust="spacingAndGlyphs" textLength="59" x="577.2" y="1534.9102">Freelancer</text><line style="stroke: #A80036; stroke-width: 1.5;" x1="525" x2="658" y1="1546" y2="1546"/><text fill="#000000" font-family="sans-serif" font-size="11" lengthAdjust="spacingAndGlyphs" textLength="43" x="530" y="1561.4189">-String id</text><text fill="#000000" font-family="sans-serif" font-size="11" lengthAdjust="spacingAndGlyphs" textLength="61" x="530" y="1575.2549">-String name</text><text fill="#000000" font-family="sans-serif" font-size="11" lengthAdjust="spacingAndGlyphs" textLength="114" x="530" y="1589.0908">-String levelOfExpertise</text><text fill="#000000" font-family="sans-serif" font-size="11" lengthAdjust="spacingAndGlyphs" textLength="59" x="530" y="1602.9268">-String email</text><text fill="#000000" font-family="sans-serif" font-size="11" lengthAdjust="spacingAndGlyphs" textLength="50" x="530" y="1616.7627">-String NIF</text><text fill="#000000" font-family="sans-serif" font-size="11" lengthAdjust="spacingAndGlyphs" textLength="123" x="530" y="1630.5986">-String bankAccountIBAN</text><text fill="#000000" font-family="sans-serif" font-size="11" lengthAdjust="spacingAndGlyphs" textLength="75" x="530" y="1644.4346">-String address</text><text fill="#000000" font-family="sans-serif" font-size="11" lengthAdjust="spacingAndGlyphs" textLength="72" x="530" y="1658.2705">-String country</text><line style="stroke: #A80036; stroke-width: 1.5;" x1="525" x2="658" y1="1664.6875" y2="1664.6875"/><!--MD5=[c0dc12954b7564a58826a1327fba5c89]
class PaymentDetails--><rect fill="#FEFECE" filter="url(#fexi6s78hn0pi)" height="61.8359" id="PaymentDetails" style="stroke: #A80036; stroke-width: 1.5;" width="119" x="104" y="1165"/><ellipse cx="119" cy="1181" fill="#ADD1B2" rx="11" ry="11" style="stroke: #A80036; stroke-width: 1.0;"/><path d="M121.7656,1176.875 Q121.9219,1176.6563 122.1094,1176.5469 Q122.2969,1176.4375 122.5156,1176.4375 Q122.8906,1176.4375 123.125,1176.7031 Q123.3594,1176.9531 123.3594,1177.5625 L123.3594,1179.0156 Q123.3594,1179.625 123.125,1179.8906 Q122.8906,1180.1563 122.5156,1180.1563 Q122.1719,1180.1563 121.9688,1179.9531 Q121.7656,1179.7656 121.6563,1179.25 Q121.6094,1178.8906 121.4219,1178.7031 Q121.0938,1178.3281 120.4844,1178.1094 Q119.875,1177.8906 119.25,1177.8906 Q118.4844,1177.8906 117.8438,1178.2188 Q117.2188,1178.5469 116.7188,1179.2969 Q116.2344,1180.0469 116.2344,1181.0781 L116.2344,1182.1719 Q116.2344,1183.4063 117.125,1184.2344 Q118.0156,1185.0469 119.6094,1185.0469 Q120.5469,1185.0469 121.2031,1184.7969 Q121.5938,1184.6406 122.0156,1184.2031 Q122.2813,1183.9375 122.4219,1183.8594 Q122.5781,1183.7813 122.7813,1183.7813 Q123.1094,1183.7813 123.3594,1184.0469 Q123.625,1184.2969 123.625,1184.6406 Q123.625,1184.9844 123.2813,1185.3906 Q122.7813,1185.9688 121.9844,1186.2969 Q120.9063,1186.75 119.6094,1186.75 Q118.0938,1186.75 116.8906,1186.125 Q115.9063,1185.625 115.2188,1184.5625 Q114.5313,1183.4844 114.5313,1182.2031 L114.5313,1181.0469 Q114.5313,1179.7188 115.1406,1178.5781 Q115.7656,1177.4219 116.8594,1176.8125 Q117.9531,1176.1875 119.1875,1176.1875 Q119.9219,1176.1875 120.5625,1176.3594 Q121.2188,1176.5156 121.7656,1176.875 Z "/><text fill="#000000" font-family="sans-serif" font-size="12" lengthAdjust="spacingAndGlyphs" textLength="87" x="133" y="1185.9102">PaymentDetails</text><line style="stroke: #A80036; stroke-width: 1.5;" x1="105" x2="222" y1="1197" y2="1197"/><text fill="#000000" font-family="sans-serif" font-size="11" lengthAdjust="spacingAndGlyphs" textLength="70" x="110" y="1212.4189">Boolean isPaid</text><line style="stroke: #A80036; stroke-width: 1.5;" x1="105" x2="222" y1="1218.8359" y2="1218.8359"/><!--MD5=[b06a3547c6ce1bbc9e54a161efa0ce5f]
class ListTask--><rect fill="#FEFECE" filter="url(#fexi6s78hn0pi)" height="48" id="ListTask" style="stroke: #A80036; stroke-width: 1.5;" width="79" x="6" y="905"/><ellipse cx="21" cy="921" fill="#ADD1B2" rx="11" ry="11" style="stroke: #A80036; stroke-width: 1.0;"/><path d="M23.7656,916.875 Q23.9219,916.6563 24.1094,916.5469 Q24.2969,916.4375 24.5156,916.4375 Q24.8906,916.4375 25.125,916.7031 Q25.3594,916.9531 25.3594,917.5625 L25.3594,919.0156 Q25.3594,919.625 25.125,919.8906 Q24.8906,920.1563 24.5156,920.1563 Q24.1719,920.1563 23.9688,919.9531 Q23.7656,919.7656 23.6563,919.25 Q23.6094,918.8906 23.4219,918.7031 Q23.0938,918.3281 22.4844,918.1094 Q21.875,917.8906 21.25,917.8906 Q20.4844,917.8906 19.8438,918.2188 Q19.2188,918.5469 18.7188,919.2969 Q18.2344,920.0469 18.2344,921.0781 L18.2344,922.1719 Q18.2344,923.4063 19.125,924.2344 Q20.0156,925.0469 21.6094,925.0469 Q22.5469,925.0469 23.2031,924.7969 Q23.5938,924.6406 24.0156,924.2031 Q24.2813,923.9375 24.4219,923.8594 Q24.5781,923.7813 24.7813,923.7813 Q25.1094,923.7813 25.3594,924.0469 Q25.625,924.2969 25.625,924.6406 Q25.625,924.9844 25.2813,925.3906 Q24.7813,925.9688 23.9844,926.2969 Q22.9063,926.75 21.6094,926.75 Q20.0938,926.75 18.8906,926.125 Q17.9063,925.625 17.2188,924.5625 Q16.5313,923.4844 16.5313,922.2031 L16.5313,921.0469 Q16.5313,919.7188 17.1406,918.5781 Q17.7656,917.4219 18.8594,916.8125 Q19.9531,916.1875 21.1875,916.1875 Q21.9219,916.1875 22.5625,916.3594 Q23.2188,916.5156 23.7656,916.875 Z "/><text fill="#000000" font-family="sans-serif" font-size="12" lengthAdjust="spacingAndGlyphs" textLength="47" x="35" y="925.9102">ListTask</text><line style="stroke: #A80036; stroke-width: 1.5;" x1="7" x2="84" y1="937" y2="937"/><line style="stroke: #A80036; stroke-width: 1.5;" x1="7" x2="84" y1="945" y2="945"/><!--MD5=[45250e8af606969dad2bb540de0502fa]
link AdministratorStatisticsUI to AdministratorStatisticsController--><path d="M589.5,56.28 C589.5,71.09 589.5,91.25 589.5,111.63 " fill="none" id="AdministratorStatisticsUI-&gt;AdministratorStatisticsController" style="stroke: #A80036; stroke-width: 1.0; stroke-dasharray: 7.0,7.0;"/><polygon fill="#A80036" points="589.5,116.82,593.5,107.82,589.5,111.82,585.5,107.82,589.5,116.82" style="stroke: #A80036; stroke-width: 1.0;"/><!--MD5=[b1ba317e9b7ba55fc8e37c8a9bd213d2]
link AdministratorStatisticsController to App--><path d="M624.726,276.2 C633.376,295.53 642.303,315.47 649.821,332.27 " fill="none" id="AdministratorStatisticsController-&gt;App" style="stroke: #A80036; stroke-width: 1.0; stroke-dasharray: 7.0,7.0;"/><polygon fill="#A80036" points="651.903,336.92,651.8773,327.0712,649.8604,332.3563,644.5753,330.3394,651.903,336.92" style="stroke: #A80036; stroke-width: 1.0;"/><!--MD5=[552f86670fe875a58dc0c81c962658f8]
link AdministratorStatisticsController to RegistFreelancer--><path d="M701.358,270.91 C721.686,289.85 740.052,312.03 751.5,337 C765.579,367.7 762.181,380.96 751.5,413 C742.259,440.72 722.804,467.06 705.277,486.79 " fill="none" id="AdministratorStatisticsController-&gt;RegistFreelancer" style="stroke: #A80036; stroke-width: 1.0; stroke-dasharray: 7.0,7.0;"/><polygon fill="#A80036" points="701.801,490.64,710.7956,486.6279,705.1465,486.9242,704.8503,481.2751,701.801,490.64" style="stroke: #A80036; stroke-width: 1.0;"/><!--MD5=[e55ded824974fab4ed2c656a18b3e623]
link AdministratorStatisticsController to RegistOrganization--><path d="M530.61,276.22 C480.259,343.53 410.223,437.15 373.052,486.84 " fill="none" id="AdministratorStatisticsController-&gt;RegistOrganization" style="stroke: #A80036; stroke-width: 1.0; stroke-dasharray: 7.0,7.0;"/><polygon fill="#A80036" points="369.996,490.93,378.5825,486.1059,372.9848,486.9216,372.1691,481.3239,369.996,490.93" style="stroke: #A80036; stroke-width: 1.0;"/><!--MD5=[b41977112bdfbf12614e48bc2a9887ec]
link AdministratorStatisticsController to Transaction--><path d="M563.828,276.16 C556.038,306.41 549.5,341.48 549.5,374 C549.5,374 549.5,374 549.5,838 C549.5,900.596 497.14,948.444 445.736,980.335 " fill="none" id="AdministratorStatisticsController-&gt;Transaction" style="stroke: #A80036; stroke-width: 1.0; stroke-dasharray: 7.0,7.0;"/><polygon fill="#A80036" points="441.404,982.987,451.1681,981.698,445.668,980.3758,446.9902,974.8756,441.404,982.987" style="stroke: #A80036; stroke-width: 1.0;"/><!--MD5=[8e4873cec2cb3febaaa9495c716fc885]
link Transaction to Task--><path d="M395.755,1073.198 C415.518,1094.535 436.151,1121.822 446.5,1151 C465.23,1203.806 455.718,1267.59 443.577,1313.827 " fill="none" id="Transaction-&gt;Task" style="stroke: #A80036; stroke-width: 1.0;"/><polygon fill="#A80036" points="442.24,1318.81,448.4353,1311.1538,443.5355,1313.9808,440.7085,1309.0809,442.24,1318.81" style="stroke: #A80036; stroke-width: 1.0;"/><text fill="#000000" font-family="sans-serif" font-size="13" lengthAdjust="spacingAndGlyphs" textLength="37" x="458.5" y="1201.4951">knows</text><text fill="#000000" font-family="sans-serif" font-size="13" lengthAdjust="spacingAndGlyphs" textLength="7" x="394.769" y="1093.8983">1</text><text fill="#000000" font-family="sans-serif" font-size="13" lengthAdjust="spacingAndGlyphs" textLength="7" x="437.2193" y="1308.1877">1</text><!--MD5=[542f32193441b56ea302115ed1249c3b]
link Transaction to Freelancer--><path d="M428.464,1073.248 C457.216,1093.159 486.807,1119.367 504.5,1151 C567.66,1263.924 585.511,1415.522 590.243,1508.491 " fill="none" id="Transaction-&gt;Freelancer" style="stroke: #A80036; stroke-width: 1.0;"/><polygon fill="#A80036" points="590.497,1513.7,594.0525,1504.5153,590.2527,1508.706,586.0621,1504.9062,590.497,1513.7" style="stroke: #A80036; stroke-width: 1.0;"/><text fill="#000000" font-family="sans-serif" font-size="13" lengthAdjust="spacingAndGlyphs" textLength="37" x="558.5" y="1285.4951">knows</text><text fill="#000000" font-family="sans-serif" font-size="13" lengthAdjust="spacingAndGlyphs" textLength="5" x="434.0076" y="1093.955">*</text><text fill="#000000" font-family="sans-serif" font-size="13" lengthAdjust="spacingAndGlyphs" textLength="7" x="583.0819" y="1503.1317">1</text><!--MD5=[4b35f5cbbb9f0916ba1866e97e83f62f]
link Transaction to Organization--><path d="M253.061,982.925 C210.752,957.769 165.138,921.817 141.5,875 C117.705,827.871 135.437,767.619 154.052,726.024 " fill="none" id="Transaction-&gt;Organization" style="stroke: #A80036; stroke-width: 1.0;"/><polygon fill="#A80036" points="156.206,721.3,148.833,727.8299,154.1319,725.8495,156.1123,731.1484,156.206,721.3" style="stroke: #A80036; stroke-width: 1.0;"/><text fill="#000000" font-family="sans-serif" font-size="13" lengthAdjust="spacingAndGlyphs" textLength="37" x="142.5" y="842.4951">knows</text><text fill="#000000" font-family="sans-serif" font-size="13" lengthAdjust="spacingAndGlyphs" textLength="5" x="232.6113" y="972.0285">*</text><text fill="#000000" font-family="sans-serif" font-size="13" lengthAdjust="spacingAndGlyphs" textLength="7" x="145.4712" y="742.014">1</text><!--MD5=[9aa0fa191c99edeef0ce6e9ae1d37765]
link Transaction to TaskExecutionDetails--><path d="M346.439,1073.049 C345.901,1095.374 345.246,1122.56 344.691,1145.594 " fill="none" id="Transaction-&gt;TaskExecutionDetails" style="stroke: #A80036; stroke-width: 1.0;"/><polygon fill="#A80036" points="344.566,1150.745,348.7834,1141.8448,344.6874,1145.7465,340.7857,1141.6505,344.566,1150.745" style="stroke: #A80036; stroke-width: 1.0;"/><text fill="#000000" font-family="sans-serif" font-size="13" lengthAdjust="spacingAndGlyphs" textLength="21" x="347.5" y="1117.4951">has</text><text fill="#000000" font-family="sans-serif" font-size="13" lengthAdjust="spacingAndGlyphs" textLength="7" x="338.7976" y="1094.0635">1</text><text fill="#000000" font-family="sans-serif" font-size="13" lengthAdjust="spacingAndGlyphs" textLength="7" x="337.1933" y="1140.15">1</text><!--MD5=[9155e95983ae2a088b11740d001758c9]
link TaskExecutionDetails to Task--><path d="M363.028,1241.371 C372.666,1263.27 384.457,1290.061 394.991,1313.996 " fill="none" id="TaskExecutionDetails-&gt;Task" style="stroke: #A80036; stroke-width: 1.0;"/><polygon fill="#A80036" points="397.08,1318.742,397.116,1308.8932,395.066,1314.1656,389.7937,1312.1156,397.08,1318.742" style="stroke: #A80036; stroke-width: 1.0;"/><text fill="#000000" font-family="sans-serif" font-size="13" lengthAdjust="spacingAndGlyphs" textLength="37" x="384.5" y="1285.4951">knows</text><text fill="#000000" font-family="sans-serif" font-size="13" lengthAdjust="spacingAndGlyphs" textLength="7" x="358.1818" y="1262.0945">1</text><text fill="#000000" font-family="sans-serif" font-size="13" lengthAdjust="spacingAndGlyphs" textLength="7" x="386.5554" y="1308.1115">1</text><!--MD5=[30a9d08d7dc467ac860797373cb7da8d]
link Organization to ListTask--><path d="M122.924,705.82 C105.0873,717.488 87.094,732.605 75.5,751 C46.5133,796.99 43.0994,862.477 43.8671,899.544 " fill="none" id="Organization-&gt;ListTask" style="stroke: #A80036; stroke-width: 1.0;"/><polygon fill="#A80036" points="44.0082,904.801,47.765,895.6968,43.8739,899.8028,39.7679,895.9117,44.0082,904.801" style="stroke: #A80036; stroke-width: 1.0;"/><text fill="#000000" font-family="sans-serif" font-size="13" lengthAdjust="spacingAndGlyphs" textLength="21" x="76.5" y="765.4951">has</text><text fill="#000000" font-family="sans-serif" font-size="13" lengthAdjust="spacingAndGlyphs" textLength="7" x="108.0986" y="706.1649">1</text><text fill="#000000" font-family="sans-serif" font-size="13" lengthAdjust="spacingAndGlyphs" textLength="7" x="35.7291" y="894.0902">1</text><!--MD5=[9d963be07912ebb513990051144e238a]
link ListTask to Task--><path d="M41.3366,953.234 C32.6792,1009.26 18.7807,1153.614 86.5,1241 C145.689,1317.379 254.841,1350.884 332.675,1365.467 " fill="none" id="ListTask-&gt;Task" style="stroke: #A80036; stroke-width: 1.0;"/><polygon fill="#A80036" points="337.755,1366.4,329.6269,1360.8381,332.8375,1365.4956,328.18,1368.7062,337.755,1366.4" style="stroke: #A80036; stroke-width: 1.0;"/><text fill="#000000" font-family="sans-serif" font-size="13" lengthAdjust="spacingAndGlyphs" textLength="21" x="40.5" y="1117.4951">has</text><text fill="#000000" font-family="sans-serif" font-size="13" lengthAdjust="spacingAndGlyphs" textLength="7" x="32.4686" y="974.629">1</text><text fill="#000000" font-family="sans-serif" font-size="13" lengthAdjust="spacingAndGlyphs" textLength="5" x="324.9847" y="1362.2017">*</text><!--MD5=[eddc38b6bc72bc48b6f4e6dee3f36f26]
link Organization to ListTransaction--><path d="M227.019,721.29 C251.387,744.491 281.022,772.706 304.802,795.347 " fill="none" id="Organization-&gt;ListTransaction" style="stroke: #A80036; stroke-width: 1.0;"/><polygon fill="#A80036" points="308.567,798.932,304.806,789.8296,304.9454,795.4847,299.2903,795.6241,308.567,798.932" style="stroke: #A80036; stroke-width: 1.0;"/><text fill="#000000" font-family="sans-serif" font-size="13" lengthAdjust="spacingAndGlyphs" textLength="21" x="275.5" y="765.4951">has</text><text fill="#000000" font-family="sans-serif" font-size="13" lengthAdjust="spacingAndGlyphs" textLength="7" x="225.7997" y="742.0027">1</text><text fill="#000000" font-family="sans-serif" font-size="13" lengthAdjust="spacingAndGlyphs" textLength="7" x="294.0086" y="788.2818">1</text><!--MD5=[71d2e20b7b04e36d280b22ce75f9673c]
link ListTransaction to Transaction--><path d="M347.5,875.34 C347.5,904.648 347.5,945.704 347.5,977.709 " fill="none" id="ListTransaction-&gt;Transaction" style="stroke: #A80036; stroke-width: 1.0;"/><polygon fill="#A80036" points="347.5,982.764,351.5,973.764,347.5,977.764,343.5,973.764,347.5,982.764" style="stroke: #A80036; stroke-width: 1.0;"/><text fill="#000000" font-family="sans-serif" font-size="13" lengthAdjust="spacingAndGlyphs" textLength="21" x="348.5" y="934.4951">has</text><text fill="#000000" font-family="sans-serif" font-size="13" lengthAdjust="spacingAndGlyphs" textLength="7" x="339.9422" y="896.2747">1</text><text fill="#000000" font-family="sans-serif" font-size="13" lengthAdjust="spacingAndGlyphs" textLength="5" x="342.1172" y="972.172">*</text><!--MD5=[8853e9d83a8841c20c4ef075af762602]
link Task to Freelancer--><path d="M468.011,1436.13 C485.922,1458.809 506.825,1485.278 526.286,1509.922 " fill="none" id="Task-&gt;Freelancer" style="stroke: #A80036; stroke-width: 1.0;"/><polygon fill="#A80036" points="529.397,1513.861,526.9574,1504.3191,526.2978,1509.9374,520.6795,1509.2778,529.397,1513.861" style="stroke: #A80036; stroke-width: 1.0;"/><text fill="#000000" font-family="sans-serif" font-size="13" lengthAdjust="spacingAndGlyphs" textLength="37" x="503.5" y="1480.4951">knows</text><text fill="#000000" font-family="sans-serif" font-size="13" lengthAdjust="spacingAndGlyphs" textLength="5" x="468.253" y="1457.7561">*</text><text fill="#000000" font-family="sans-serif" font-size="13" lengthAdjust="spacingAndGlyphs" textLength="22" x="500.4294" y="1503.0347">0, 1</text><!--MD5=[34f9f932fd778d30fdc72ceaaad0e98f]
link App to RegistOrganization--><path d="M602.378,405.87 C548.824,430.06 473.527,464.07 418.665,488.85 " fill="none" id="App-&gt;RegistOrganization" style="stroke: #A80036; stroke-width: 1.0;"/><polygon fill="#A80036" points="414.088,490.92,423.9367,490.8603,418.6447,488.8616,420.6433,483.5696,414.088,490.92" style="stroke: #A80036; stroke-width: 1.0;"/><text fill="#000000" font-family="sans-serif" font-size="13" lengthAdjust="spacingAndGlyphs" textLength="21" x="519.5" y="457.4951">has</text><text fill="#000000" font-family="sans-serif" font-size="13" lengthAdjust="spacingAndGlyphs" textLength="7" x="587.328" y="406.0488">1</text><text fill="#000000" font-family="sans-serif" font-size="13" lengthAdjust="spacingAndGlyphs" textLength="7" x="420.8885" y="479.9228">1</text><!--MD5=[b2767384522f615c85a28d92ddf7f4b1]
link RegistOrganization to Organization--><path d="M314.506,553.03 C291.222,574.22 259.544,603.06 232.834,627.37 " fill="none" id="RegistOrganization-&gt;Organization" style="stroke: #A80036; stroke-width: 1.0;"/><polygon fill="#A80036" points="228.931,630.92,238.2802,627.8228,232.6297,627.5555,232.897,621.905,228.931,630.92" style="stroke: #A80036; stroke-width: 1.0;"/><text fill="#000000" font-family="sans-serif" font-size="13" lengthAdjust="spacingAndGlyphs" textLength="21" x="280.5" y="597.4951">has</text><text fill="#000000" font-family="sans-serif" font-size="13" lengthAdjust="spacingAndGlyphs" textLength="7" x="300.3212" y="574.2599">1</text><text fill="#000000" font-family="sans-serif" font-size="13" lengthAdjust="spacingAndGlyphs" textLength="5" x="231.2513" y="620.0227">*</text><!--MD5=[96c7b0b2c198895e0003cefbcde5a63b]
link App to RegistFreelancer--><path d="M669.015,413.34 C669.321,435.56 669.708,463.59 670.01,485.48 " fill="none" id="App-&gt;RegistFreelancer" style="stroke: #A80036; stroke-width: 1.0;"/><polygon fill="#A80036" points="670.081,490.62,673.952,481.5638,670.0096,485.6205,665.9528,481.6781,670.081,490.62" style="stroke: #A80036; stroke-width: 1.0;"/><text fill="#000000" font-family="sans-serif" font-size="13" lengthAdjust="spacingAndGlyphs" textLength="21" x="671.5" y="457.4951">has</text><text fill="#000000" font-family="sans-serif" font-size="13" lengthAdjust="spacingAndGlyphs" textLength="7" x="661.5393" y="434.2747">1</text><text fill="#000000" font-family="sans-serif" font-size="13" lengthAdjust="spacingAndGlyphs" textLength="7" x="662.2727" y="480.0462">1</text><!--MD5=[12a648b87e57a40b1492f312537407ab]
link RegistFreelancer to Freelancer--><path d="M669.234,553.28 C668.063,583.95 666.5,632.76 666.5,675 C666.5,675 666.5,675 666.5,1378.5 C666.5,1423.329 651.661,1470.619 635.184,1509.31 " fill="none" id="RegistFreelancer-&gt;Freelancer" style="stroke: #A80036; stroke-width: 1.0;"/><polygon fill="#A80036" points="633.167,1513.985,640.4047,1507.3055,635.1475,1509.3939,633.059,1504.1367,633.167,1513.985" style="stroke: #A80036; stroke-width: 1.0;"/><text fill="#000000" font-family="sans-serif" font-size="13" lengthAdjust="spacingAndGlyphs" textLength="21" x="667.5" y="1033.4951">has</text><text fill="#000000" font-family="sans-serif" font-size="13" lengthAdjust="spacingAndGlyphs" textLength="7" x="661.3255" y="574.312">1</text><text fill="#000000" font-family="sans-serif" font-size="13" lengthAdjust="spacingAndGlyphs" textLength="5" x="631.9001" y="1503.1705">*</text><!--MD5=[592f3295148bcda02046a15209730c71]
link Transaction to PaymentDetails--><path d="M298.674,1073.049 C267.903,1100.81 228.798,1136.09 200.573,1161.553 " fill="none" id="Transaction-&gt;PaymentDetails" style="stroke: #A80036; stroke-width: 1.0;"/><polygon fill="#A80036" points="196.839,1164.922,206.2013,1161.8647,200.552,1161.5733,200.8434,1155.924,196.839,1164.922" style="stroke: #A80036; stroke-width: 1.0;"/><text fill="#000000" font-family="sans-serif" font-size="13" lengthAdjust="spacingAndGlyphs" textLength="21" x="262.5" y="1117.4951">has</text><text fill="#000000" font-family="sans-serif" font-size="13" lengthAdjust="spacingAndGlyphs" textLength="7" x="284.3157" y="1094.0635">1</text><text fill="#000000" font-family="sans-serif" font-size="13" lengthAdjust="spacingAndGlyphs" textLength="7" x="196.3663" y="1153.9252">1</text><!--MD5=[979b440826f972ff700299745358e978]
@startuml CD
skinparam classAttributeIconSize 0
top to bottom direction

class AdministratorStatisticsUI {

}

class AdministratorStatisticsController {
        + getFreelancers()
        + setFreelancers(Set<Freelancer> selected)
        + getMeanDelays()
        + getMeanPayments()
        + getStandardDeviationDelays()
        + getStandardDeviationPayments()
        + getHistogramDataDelays()
        + getHistogramDataPayments()
}

AdministratorStatisticsUI ..> AdministratorStatisticsController

class App {
        + getRegistFreelancer()
        + getRegistOrganization()
}

AdministratorStatisticsController ..> App

class RegistFreelancer {
        + getFreelancers()
}

AdministratorStatisticsController ..> RegistFreelancer

class RegistOrganization {
        + getTransactionsOfFreelancers(Set<Freelancer> selected)
}

AdministratorStatisticsController ..> RegistOrganization

class Organization {
        - String nome
        - String NIF

        + getListTransaction()
}

class ListTransaction {
        + getTransactionsOfFreelancers(Set<Freelancer> selected)
        + get(ID)
}

class Transaction {
        + madeByAny(Set<Freelancer> selected)
        + getTaskExecutionDetails()
        + getAmount()
}

AdministratorStatisticsController ..> Transaction

class Task {
        - String id
        - String description
        - Integer durationInHours
        - Double costPerHourOfJuniorEur
        - String category
}

class TaskExecutionDetails {
        - LocalDate endDate
        - Integer delayInDays
        - String DescriptionQualityOfWork
}

class Freelancer {
        - String id
        - String name
        - String levelOfExpertise
        - String email
        - String NIF
        - String bankAccountIBAN
        - String address
        - String country
}

class PaymentDetails {
        Boolean isPaid
}

Transaction                  "1" - -> "1"      Task                      : knows
Transaction                  "*" - -> "1"      Freelancer                : knows
Transaction                  "*" - -> "1"      Organization              : knows
Transaction                  "1" - -> "1"      TaskExecutionDetails      : has
TaskExecutionDetails         "1" - -> "1"      Task                      : knows
Organization                 "1" - -> "1"      ListTask                  : has
ListTask                     "1" - -> "*"      Task                      : has
Organization                 "1" - -> "1"      ListTransaction           : has
ListTransaction              "1" - -> "*"      Transaction               : has
Task                         "*" - -> "0, 1"   Freelancer                : knows
App                          "1" - -> "1"      RegistOrganization        : has
RegistOrganization           "1" - -> "*"      Organization              : has
App                          "1" - -> "1"      RegistFreelancer          : has
RegistFreelancer             "1" - -> "*"      Freelancer                : has
Transaction                  "1" - -> "1"      PaymentDetails            : has

@enduml

PlantUML version 1.2020.10(Sun May 17 10:35:57 WEST 2020)
(GPL source distribution)
Java Runtime: OpenJDK Runtime Environment
JVM: OpenJDK 64-Bit Server VM
Java Version: 14+36
Operating System: Windows 10
Default Encoding: Cp1252
Language: en
Country: US
--></g></svg>