<?xml version="1.0" encoding="UTF-8"?><svg xmlns="http://www.w3.org/2000/svg" xmlns:xlink="http://www.w3.org/1999/xlink" contentScriptType="application/ecmascript" contentStyleType="text/css" height="821px" preserveAspectRatio="none" style="width:911px;height:821px;" version="1.1" viewBox="0 0 911 821" width="911px" zoomAndPan="magnify">
    <defs>
        <filter height="300%" id="f1u4fnhf467dv8" width="300%" x="-1" y="-1">
            <feGaussianBlur result="blurOut" stdDeviation="2.0"/>
            <feColorMatrix in="blurOut" result="blurOut2" type="matrix" values="0 0 0 0 0 0 0 0 0 0 0 0 0 0 0 0 0 0 .4 0"/>
            <feOffset dx="4.0" dy="4.0" in="blurOut2" result="blurOut3"/>
            <feBlend in="SourceGraphic" in2="blurOut3" mode="normal"/>
        </filter>
    </defs>
    <g>
        <!--class LoaderUI-->
        <rect fill="#FEFECE" filter="url(#f1u4fnhf467dv8)" height="48" style="stroke: #A80036; stroke-width: 1.5;" width="83" x="50" y="148"/>
        <ellipse cx="65" cy="164" fill="#ADD1B2" rx="11" ry="11" style="stroke: #A80036; stroke-width: 1.0;"/>
        <path d="M67.7656,159.875 Q67.9219,159.6563 68.1094,159.5469 Q68.2969,159.4375 68.5156,159.4375 Q68.8906,159.4375 69.125,159.6953 Q69.3594,159.9531 69.3594,160.5625 L69.3594,162.0156 Q69.3594,162.625 69.125,162.8906 Q68.8906,163.1563 68.5156,163.1563 Q68.1719,163.1563 67.9688,162.9531 Q67.7656,162.7656 67.6563,162.25 Q67.6094,161.8906 67.4219,161.7031 Q67.0938,161.3281 66.4844,161.1094 Q65.875,160.8906 65.25,160.8906 Q64.4844,160.8906 63.8516,161.2188 Q63.2188,161.5469 62.7266,162.2969 Q62.2344,163.0469 62.2344,164.0781 L62.2344,165.1719 Q62.2344,166.4063 63.125,167.2266 Q64.0156,168.0469 65.6094,168.0469 Q66.5469,168.0469 67.2031,167.7969 Q67.5938,167.6406 68.0156,167.2031 Q68.2813,166.9375 68.4297,166.8594 Q68.5781,166.7813 68.7813,166.7813 Q69.1094,166.7813 69.3672,167.0391 Q69.625,167.2969 69.625,167.6406 Q69.625,167.9844 69.2813,168.3906 Q68.7813,168.9688 67.9844,169.2969 Q66.9063,169.75 65.6094,169.75 Q64.0938,169.75 62.8906,169.125 Q61.9063,168.625 61.2188,167.5547 Q60.5313,166.4844 60.5313,165.2031 L60.5313,164.0469 Q60.5313,162.7188 61.1484,161.5703 Q61.7656,160.4219 62.8594,159.8047 Q63.9531,159.1875 65.1875,159.1875 Q65.9219,159.1875 66.5703,159.3516 Q67.2188,159.5156 67.7656,159.875 Z "/>
        <text fill="#000000" font-family="sans-serif" font-size="12" lengthAdjust="spacingAndGlyphs" textLength="51" x="79" y="168.9102">LoaderUI</text>
        <line style="stroke: #A80036; stroke-width: 1.5;" x1="51" x2="132" y1="180" y2="180"/>
        <line style="stroke: #A80036; stroke-width: 1.5;" x1="51" x2="132" y1="188" y2="188"/>
        <!--class LoaderController-->
        <rect fill="#FEFECE" filter="url(#f1u4fnhf467dv8)" height="75.6719" style="stroke: #A80036; stroke-width: 1.5;" width="171" x="6" y="329.5"/>
        <ellipse cx="41.7" cy="345.5" fill="#ADD1B2" rx="11" ry="11" style="stroke: #A80036; stroke-width: 1.0;"/>
        <path d="M44.4656,341.375 Q44.6219,341.1563 44.8094,341.0469 Q44.9969,340.9375 45.2156,340.9375 Q45.5906,340.9375 45.825,341.1953 Q46.0594,341.4531 46.0594,342.0625 L46.0594,343.5156 Q46.0594,344.125 45.825,344.3906 Q45.5906,344.6563 45.2156,344.6563 Q44.8719,344.6563 44.6688,344.4531 Q44.4656,344.2656 44.3563,343.75 Q44.3094,343.3906 44.1219,343.2031 Q43.7938,342.8281 43.1844,342.6094 Q42.575,342.3906 41.95,342.3906 Q41.1844,342.3906 40.5516,342.7188 Q39.9188,343.0469 39.4266,343.7969 Q38.9344,344.5469 38.9344,345.5781 L38.9344,346.6719 Q38.9344,347.9063 39.825,348.7266 Q40.7156,349.5469 42.3094,349.5469 Q43.2469,349.5469 43.9031,349.2969 Q44.2938,349.1406 44.7156,348.7031 Q44.9813,348.4375 45.1297,348.3594 Q45.2781,348.2813 45.4813,348.2813 Q45.8094,348.2813 46.0672,348.5391 Q46.325,348.7969 46.325,349.1406 Q46.325,349.4844 45.9813,349.8906 Q45.4813,350.4688 44.6844,350.7969 Q43.6063,351.25 42.3094,351.25 Q40.7938,351.25 39.5906,350.625 Q38.6063,350.125 37.9188,349.0547 Q37.2313,347.9844 37.2313,346.7031 L37.2313,345.5469 Q37.2313,344.2188 37.8484,343.0703 Q38.4656,341.9219 39.5594,341.3047 Q40.6531,340.6875 41.8875,340.6875 Q42.6219,340.6875 43.2703,340.8516 Q43.9188,341.0156 44.4656,341.375 Z "/>
        <text fill="#000000" font-family="sans-serif" font-size="12" lengthAdjust="spacingAndGlyphs" textLength="93" x="60.3" y="350.4102">LoaderController</text>
        <line style="stroke: #A80036; stroke-width: 1.5;" x1="7" x2="176" y1="361.5" y2="361.5"/>
        <line style="stroke: #A80036; stroke-width: 1.5;" x1="7" x2="176" y1="369.5" y2="369.5"/>
        <text fill="#000000" font-family="sans-serif" font-size="11" lengthAdjust="spacingAndGlyphs" textLength="45" x="12" y="384.9189">+create()</text>
        <text fill="#000000" font-family="sans-serif" font-size="11" lengthAdjust="spacingAndGlyphs" textLength="159" x="12" y="398.7549">+newHistoricalTransactionsFile()</text>
        <!--class App-->
        <rect fill="#FEFECE" filter="url(#f1u4fnhf467dv8)" height="48" style="stroke: #A80036; stroke-width: 1.5;" width="53" x="673" y="8"/>
        <ellipse cx="688" cy="24" fill="#ADD1B2" rx="11" ry="11" style="stroke: #A80036; stroke-width: 1.0;"/>
        <path d="M690.7656,19.875 Q690.9219,19.6563 691.1094,19.5469 Q691.2969,19.4375 691.5156,19.4375 Q691.8906,19.4375 692.125,19.6953 Q692.3594,19.9531 692.3594,20.5625 L692.3594,22.0156 Q692.3594,22.625 692.125,22.8906 Q691.8906,23.1563 691.5156,23.1563 Q691.1719,23.1563 690.9688,22.9531 Q690.7656,22.7656 690.6563,22.25 Q690.6094,21.8906 690.4219,21.7031 Q690.0938,21.3281 689.4844,21.1094 Q688.875,20.8906 688.25,20.8906 Q687.4844,20.8906 686.8516,21.2188 Q686.2188,21.5469 685.7266,22.2969 Q685.2344,23.0469 685.2344,24.0781 L685.2344,25.1719 Q685.2344,26.4063 686.125,27.2266 Q687.0156,28.0469 688.6094,28.0469 Q689.5469,28.0469 690.2031,27.7969 Q690.5938,27.6406 691.0156,27.2031 Q691.2813,26.9375 691.4297,26.8594 Q691.5781,26.7813 691.7813,26.7813 Q692.1094,26.7813 692.3672,27.0391 Q692.625,27.2969 692.625,27.6406 Q692.625,27.9844 692.2813,28.3906 Q691.7813,28.9688 690.9844,29.2969 Q689.9063,29.75 688.6094,29.75 Q687.0938,29.75 685.8906,29.125 Q684.9063,28.625 684.2188,27.5547 Q683.5313,26.4844 683.5313,25.2031 L683.5313,24.0469 Q683.5313,22.7188 684.1484,21.5703 Q684.7656,20.4219 685.8594,19.8047 Q686.9531,19.1875 688.1875,19.1875 Q688.9219,19.1875 689.5703,19.3516 Q690.2188,19.5156 690.7656,19.875 Z "/>
        <text fill="#000000" font-family="sans-serif" font-size="12" lengthAdjust="spacingAndGlyphs" textLength="21" x="702" y="28.9102">App</text>
        <line style="stroke: #A80036; stroke-width: 1.5;" x1="674" x2="725" y1="40" y2="40"/>
        <line style="stroke: #A80036; stroke-width: 1.5;" x1="674" x2="725" y1="48" y2="48"/>
        <!--class Organization-->
        <rect fill="#FEFECE" filter="url(#f1u4fnhf467dv8)" height="75.6719" style="stroke: #A80036; stroke-width: 1.5;" width="101" x="453" y="134"/>
        <ellipse cx="468" cy="150" fill="#ADD1B2" rx="11" ry="11" style="stroke: #A80036; stroke-width: 1.0;"/>
        <path d="M470.7656,145.875 Q470.9219,145.6563 471.1094,145.5469 Q471.2969,145.4375 471.5156,145.4375 Q471.8906,145.4375 472.125,145.6953 Q472.3594,145.9531 472.3594,146.5625 L472.3594,148.0156 Q472.3594,148.625 472.125,148.8906 Q471.8906,149.1563 471.5156,149.1563 Q471.1719,149.1563 470.9688,148.9531 Q470.7656,148.7656 470.6563,148.25 Q470.6094,147.8906 470.4219,147.7031 Q470.0938,147.3281 469.4844,147.1094 Q468.875,146.8906 468.25,146.8906 Q467.4844,146.8906 466.8516,147.2188 Q466.2188,147.5469 465.7266,148.2969 Q465.2344,149.0469 465.2344,150.0781 L465.2344,151.1719 Q465.2344,152.4063 466.125,153.2266 Q467.0156,154.0469 468.6094,154.0469 Q469.5469,154.0469 470.2031,153.7969 Q470.5938,153.6406 471.0156,153.2031 Q471.2813,152.9375 471.4297,152.8594 Q471.5781,152.7813 471.7813,152.7813 Q472.1094,152.7813 472.3672,153.0391 Q472.625,153.2969 472.625,153.6406 Q472.625,153.9844 472.2813,154.3906 Q471.7813,154.9688 470.9844,155.2969 Q469.9063,155.75 468.6094,155.75 Q467.0938,155.75 465.8906,155.125 Q464.9063,154.625 464.2188,153.5547 Q463.5313,152.4844 463.5313,151.2031 L463.5313,150.0469 Q463.5313,148.7188 464.1484,147.5703 Q464.7656,146.4219 465.8594,145.8047 Q466.9531,145.1875 468.1875,145.1875 Q468.9219,145.1875 469.5703,145.3516 Q470.2188,145.5156 470.7656,145.875 Z "/>
        <text fill="#000000" font-family="sans-serif" font-size="12" lengthAdjust="spacingAndGlyphs" textLength="69" x="482" y="154.9102">Organization</text>
        <line style="stroke: #A80036; stroke-width: 1.5;" x1="454" x2="553" y1="166" y2="166"/>
        <text fill="#000000" font-family="sans-serif" font-size="11" lengthAdjust="spacingAndGlyphs" textLength="61" x="459" y="181.4189">-String name</text>
        <text fill="#000000" font-family="sans-serif" font-size="11" lengthAdjust="spacingAndGlyphs" textLength="50" x="459" y="195.2549">-String NIF</text>
        <line style="stroke: #A80036; stroke-width: 1.5;" x1="454" x2="553" y1="201.6719" y2="201.6719"/>
        <!--class Transaction-->
        <rect fill="#FEFECE" filter="url(#f1u4fnhf467dv8)" height="48" style="stroke: #A80036; stroke-width: 1.5;" width="97" x="317" y="764"/>
        <ellipse cx="332" cy="780" fill="#ADD1B2" rx="11" ry="11" style="stroke: #A80036; stroke-width: 1.0;"/>
        <path d="M334.7656,775.875 Q334.9219,775.6563 335.1094,775.5469 Q335.2969,775.4375 335.5156,775.4375 Q335.8906,775.4375 336.125,775.6953 Q336.3594,775.9531 336.3594,776.5625 L336.3594,778.0156 Q336.3594,778.625 336.125,778.8906 Q335.8906,779.1563 335.5156,779.1563 Q335.1719,779.1563 334.9688,778.9531 Q334.7656,778.7656 334.6563,778.25 Q334.6094,777.8906 334.4219,777.7031 Q334.0938,777.3281 333.4844,777.1094 Q332.875,776.8906 332.25,776.8906 Q331.4844,776.8906 330.8516,777.2188 Q330.2188,777.5469 329.7266,778.2969 Q329.2344,779.0469 329.2344,780.0781 L329.2344,781.1719 Q329.2344,782.4063 330.125,783.2266 Q331.0156,784.0469 332.6094,784.0469 Q333.5469,784.0469 334.2031,783.7969 Q334.5938,783.6406 335.0156,783.2031 Q335.2813,782.9375 335.4297,782.8594 Q335.5781,782.7813 335.7813,782.7813 Q336.1094,782.7813 336.3672,783.0391 Q336.625,783.2969 336.625,783.6406 Q336.625,783.9844 336.2813,784.3906 Q335.7813,784.9688 334.9844,785.2969 Q333.9063,785.75 332.6094,785.75 Q331.0938,785.75 329.8906,785.125 Q328.9063,784.625 328.2188,783.5547 Q327.5313,782.4844 327.5313,781.2031 L327.5313,780.0469 Q327.5313,778.7188 328.1484,777.5703 Q328.7656,776.4219 329.8594,775.8047 Q330.9531,775.1875 332.1875,775.1875 Q332.9219,775.1875 333.5703,775.3516 Q334.2188,775.5156 334.7656,775.875 Z "/>
        <text fill="#000000" font-family="sans-serif" font-size="12" lengthAdjust="spacingAndGlyphs" textLength="65" x="346" y="784.9102">Transaction</text>
        <line style="stroke: #A80036; stroke-width: 1.5;" x1="318" x2="413" y1="796" y2="796"/>
        <line style="stroke: #A80036; stroke-width: 1.5;" x1="318" x2="413" y1="804" y2="804"/>
        <!--class Task-->
        <rect fill="#FEFECE" filter="url(#f1u4fnhf467dv8)" height="117.1797" style="stroke: #A80036; stroke-width: 1.5;" width="169" x="541" y="569"/>
        <ellipse cx="607.75" cy="585" fill="#ADD1B2" rx="11" ry="11" style="stroke: #A80036; stroke-width: 1.0;"/>
        <path d="M610.5156,580.875 Q610.6719,580.6563 610.8594,580.5469 Q611.0469,580.4375 611.2656,580.4375 Q611.6406,580.4375 611.875,580.6953 Q612.1094,580.9531 612.1094,581.5625 L612.1094,583.0156 Q612.1094,583.625 611.875,583.8906 Q611.6406,584.1563 611.2656,584.1563 Q610.9219,584.1563 610.7188,583.9531 Q610.5156,583.7656 610.4063,583.25 Q610.3594,582.8906 610.1719,582.7031 Q609.8438,582.3281 609.2344,582.1094 Q608.625,581.8906 608,581.8906 Q607.2344,581.8906 606.6016,582.2188 Q605.9688,582.5469 605.4766,583.2969 Q604.9844,584.0469 604.9844,585.0781 L604.9844,586.1719 Q604.9844,587.4063 605.875,588.2266 Q606.7656,589.0469 608.3594,589.0469 Q609.2969,589.0469 609.9531,588.7969 Q610.3438,588.6406 610.7656,588.2031 Q611.0313,587.9375 611.1797,587.8594 Q611.3281,587.7813 611.5313,587.7813 Q611.8594,587.7813 612.1172,588.0391 Q612.375,588.2969 612.375,588.6406 Q612.375,588.9844 612.0313,589.3906 Q611.5313,589.9688 610.7344,590.2969 Q609.6563,590.75 608.3594,590.75 Q606.8438,590.75 605.6406,590.125 Q604.6563,589.625 603.9688,588.5547 Q603.2813,587.4844 603.2813,586.2031 L603.2813,585.0469 Q603.2813,583.7188 603.8984,582.5703 Q604.5156,581.4219 605.6094,580.8047 Q606.7031,580.1875 607.9375,580.1875 Q608.6719,580.1875 609.3203,580.3516 Q609.9688,580.5156 610.5156,580.875 Z "/>
        <text fill="#000000" font-family="sans-serif" font-size="12" lengthAdjust="spacingAndGlyphs" textLength="27" x="628.25" y="589.9102">Task</text>
        <line style="stroke: #A80036; stroke-width: 1.5;" x1="542" x2="709" y1="601" y2="601"/>
        <text fill="#000000" font-family="sans-serif" font-size="11" lengthAdjust="spacingAndGlyphs" textLength="43" x="547" y="616.4189">-String id</text>
        <text fill="#000000" font-family="sans-serif" font-size="11" lengthAdjust="spacingAndGlyphs" textLength="88" x="547" y="630.2549">-String description</text>
        <text fill="#000000" font-family="sans-serif" font-size="11" lengthAdjust="spacingAndGlyphs" textLength="116" x="547" y="644.0908">-Integer durationInHours</text>
        <text fill="#000000" font-family="sans-serif" font-size="11" lengthAdjust="spacingAndGlyphs" textLength="157" x="547" y="657.9268">-Double costPerHourOfJuniorEur</text>
        <text fill="#000000" font-family="sans-serif" font-size="11" lengthAdjust="spacingAndGlyphs" textLength="78" x="547" y="671.7627">-String category</text>
        <line style="stroke: #A80036; stroke-width: 1.5;" x1="542" x2="709" y1="678.1797" y2="678.1797"/>
        <!--class Collaborator-->
        <rect fill="#FEFECE" filter="url(#f1u4fnhf467dv8)" height="89.5078" style="stroke: #A80036; stroke-width: 1.5;" width="100" x="212.5" y="322.5"/>
        <ellipse cx="227.5" cy="338.5" fill="#ADD1B2" rx="11" ry="11" style="stroke: #A80036; stroke-width: 1.0;"/>
        <path d="M230.2656,334.375 Q230.4219,334.1563 230.6094,334.0469 Q230.7969,333.9375 231.0156,333.9375 Q231.3906,333.9375 231.625,334.1953 Q231.8594,334.4531 231.8594,335.0625 L231.8594,336.5156 Q231.8594,337.125 231.625,337.3906 Q231.3906,337.6563 231.0156,337.6563 Q230.6719,337.6563 230.4688,337.4531 Q230.2656,337.2656 230.1563,336.75 Q230.1094,336.3906 229.9219,336.2031 Q229.5938,335.8281 228.9844,335.6094 Q228.375,335.3906 227.75,335.3906 Q226.9844,335.3906 226.3516,335.7188 Q225.7188,336.0469 225.2266,336.7969 Q224.7344,337.5469 224.7344,338.5781 L224.7344,339.6719 Q224.7344,340.9063 225.625,341.7266 Q226.5156,342.5469 228.1094,342.5469 Q229.0469,342.5469 229.7031,342.2969 Q230.0938,342.1406 230.5156,341.7031 Q230.7813,341.4375 230.9297,341.3594 Q231.0781,341.2813 231.2813,341.2813 Q231.6094,341.2813 231.8672,341.5391 Q232.125,341.7969 232.125,342.1406 Q232.125,342.4844 231.7813,342.8906 Q231.2813,343.4688 230.4844,343.7969 Q229.4063,344.25 228.1094,344.25 Q226.5938,344.25 225.3906,343.625 Q224.4063,343.125 223.7188,342.0547 Q223.0313,340.9844 223.0313,339.7031 L223.0313,338.5469 Q223.0313,337.2188 223.6484,336.0703 Q224.2656,334.9219 225.3594,334.3047 Q226.4531,333.6875 227.6875,333.6875 Q228.4219,333.6875 229.0703,333.8516 Q229.7188,334.0156 230.2656,334.375 Z "/>
        <text fill="#000000" font-family="sans-serif" font-size="12" lengthAdjust="spacingAndGlyphs" textLength="68" x="241.5" y="343.4102">Collaborator</text>
        <line style="stroke: #A80036; stroke-width: 1.5;" x1="213.5" x2="311.5" y1="354.5" y2="354.5"/>
        <text fill="#000000" font-family="sans-serif" font-size="11" lengthAdjust="spacingAndGlyphs" textLength="61" x="218.5" y="369.9189">-String name</text>
        <text fill="#000000" font-family="sans-serif" font-size="11" lengthAdjust="spacingAndGlyphs" textLength="59" x="218.5" y="383.7549">-String email</text>
        <text fill="#000000" font-family="sans-serif" font-size="11" lengthAdjust="spacingAndGlyphs" textLength="85" x="218.5" y="397.5908">-String password</text>
        <line style="stroke: #A80036; stroke-width: 1.5;" x1="213.5" x2="311.5" y1="404.0078" y2="404.0078"/>
        <!--class Freelancer-->
        <rect fill="#FEFECE" filter="url(#f1u4fnhf467dv8)" height="158.6875" style="stroke: #A80036; stroke-width: 1.5;" width="135" x="767" y="288"/>
        <ellipse cx="801.8" cy="304" fill="#ADD1B2" rx="11" ry="11" style="stroke: #A80036; stroke-width: 1.0;"/>
        <path d="M804.5656,299.875 Q804.7219,299.6563 804.9094,299.5469 Q805.0969,299.4375 805.3156,299.4375 Q805.6906,299.4375 805.925,299.6953 Q806.1594,299.9531 806.1594,300.5625 L806.1594,302.0156 Q806.1594,302.625 805.925,302.8906 Q805.6906,303.1563 805.3156,303.1563 Q804.9719,303.1563 804.7688,302.9531 Q804.5656,302.7656 804.4563,302.25 Q804.4094,301.8906 804.2219,301.7031 Q803.8938,301.3281 803.2844,301.1094 Q802.675,300.8906 802.05,300.8906 Q801.2844,300.8906 800.6516,301.2188 Q800.0188,301.5469 799.5266,302.2969 Q799.0344,303.0469 799.0344,304.0781 L799.0344,305.1719 Q799.0344,306.4063 799.925,307.2266 Q800.8156,308.0469 802.4094,308.0469 Q803.3469,308.0469 804.0031,307.7969 Q804.3938,307.6406 804.8156,307.2031 Q805.0813,306.9375 805.2297,306.8594 Q805.3781,306.7813 805.5813,306.7813 Q805.9094,306.7813 806.1672,307.0391 Q806.425,307.2969 806.425,307.6406 Q806.425,307.9844 806.0813,308.3906 Q805.5813,308.9688 804.7844,309.2969 Q803.7063,309.75 802.4094,309.75 Q800.8938,309.75 799.6906,309.125 Q798.7063,308.625 798.0188,307.5547 Q797.3313,306.4844 797.3313,305.2031 L797.3313,304.0469 Q797.3313,302.7188 797.9484,301.5703 Q798.5656,300.4219 799.6594,299.8047 Q800.7531,299.1875 801.9875,299.1875 Q802.7219,299.1875 803.3703,299.3516 Q804.0188,299.5156 804.5656,299.875 Z "/>
        <text fill="#000000" font-family="sans-serif" font-size="12" lengthAdjust="spacingAndGlyphs" textLength="59" x="820.2" y="308.9102">Freelancer</text>
        <line style="stroke: #A80036; stroke-width: 1.5;" x1="768" x2="901" y1="320" y2="320"/>
        <text fill="#000000" font-family="sans-serif" font-size="11" lengthAdjust="spacingAndGlyphs" textLength="43" x="773" y="335.4189">-String id</text>
        <text fill="#000000" font-family="sans-serif" font-size="11" lengthAdjust="spacingAndGlyphs" textLength="61" x="773" y="349.2549">-String name</text>
        <text fill="#000000" font-family="sans-serif" font-size="11" lengthAdjust="spacingAndGlyphs" textLength="114" x="773" y="363.0908">-String levelOfExpertise</text>
        <text fill="#000000" font-family="sans-serif" font-size="11" lengthAdjust="spacingAndGlyphs" textLength="59" x="773" y="376.9268">-String email</text>
        <text fill="#000000" font-family="sans-serif" font-size="11" lengthAdjust="spacingAndGlyphs" textLength="50" x="773" y="390.7627">-String NIF</text>
        <text fill="#000000" font-family="sans-serif" font-size="11" lengthAdjust="spacingAndGlyphs" textLength="123" x="773" y="404.5986">-String bankAccountIBAN</text>
        <text fill="#000000" font-family="sans-serif" font-size="11" lengthAdjust="spacingAndGlyphs" textLength="75" x="773" y="418.4346">-String address</text>
        <text fill="#000000" font-family="sans-serif" font-size="11" lengthAdjust="spacingAndGlyphs" textLength="72" x="773" y="432.2705">-String country</text>
        <line style="stroke: #A80036; stroke-width: 1.5;" x1="768" x2="901" y1="438.6875" y2="438.6875"/>
        <!--class HistoricalTransactionFile-->
        <rect fill="#FEFECE" filter="url(#f1u4fnhf467dv8)" height="61.8359" style="stroke: #A80036; stroke-width: 1.5;" width="281" x="31" y="596.5"/>
        <ellipse cx="98.75" cy="612.5" fill="#ADD1B2" rx="11" ry="11" style="stroke: #A80036; stroke-width: 1.0;"/>
        <path d="M101.5156,608.375 Q101.6719,608.1563 101.8594,608.0469 Q102.0469,607.9375 102.2656,607.9375 Q102.6406,607.9375 102.875,608.1953 Q103.1094,608.4531 103.1094,609.0625 L103.1094,610.5156 Q103.1094,611.125 102.875,611.3906 Q102.6406,611.6563 102.2656,611.6563 Q101.9219,611.6563 101.7188,611.4531 Q101.5156,611.2656 101.4063,610.75 Q101.3594,610.3906 101.1719,610.2031 Q100.8438,609.8281 100.2344,609.6094 Q99.625,609.3906 99,609.3906 Q98.2344,609.3906 97.6016,609.7188 Q96.9688,610.0469 96.4766,610.7969 Q95.9844,611.5469 95.9844,612.5781 L95.9844,613.6719 Q95.9844,614.9063 96.875,615.7266 Q97.7656,616.5469 99.3594,616.5469 Q100.2969,616.5469 100.9531,616.2969 Q101.3438,616.1406 101.7656,615.7031 Q102.0313,615.4375 102.1797,615.3594 Q102.3281,615.2813 102.5313,615.2813 Q102.8594,615.2813 103.1172,615.5391 Q103.375,615.7969 103.375,616.1406 Q103.375,616.4844 103.0313,616.8906 Q102.5313,617.4688 101.7344,617.7969 Q100.6563,618.25 99.3594,618.25 Q97.8438,618.25 96.6406,617.625 Q95.6563,617.125 94.9688,616.0547 Q94.2813,614.9844 94.2813,613.7031 L94.2813,612.5469 Q94.2813,611.2188 94.8984,610.0703 Q95.5156,608.9219 96.6094,608.3047 Q97.7031,607.6875 98.9375,607.6875 Q99.6719,607.6875 100.3203,607.8516 Q100.9688,608.0156 101.5156,608.375 Z "/>
        <text fill="#000000" font-family="sans-serif" font-size="12" lengthAdjust="spacingAndGlyphs" textLength="137" x="119.25" y="617.4102">HistoricalTransactionFile</text>
        <line style="stroke: #A80036; stroke-width: 1.5;" x1="32" x2="311" y1="628.5" y2="628.5"/>
        <line style="stroke: #A80036; stroke-width: 1.5;" x1="32" x2="311" y1="636.5" y2="636.5"/>
        <text fill="#000000" font-family="sans-serif" font-size="11" lengthAdjust="spacingAndGlyphs" textLength="269" x="37" y="651.9189">+readFileTo(registFreelancer, ListTask, ListTransaction)</text>
        <!--class ListTransaction-->
        <rect fill="#FEFECE" filter="url(#f1u4fnhf467dv8)" height="61.8359" style="stroke: #A80036; stroke-width: 1.5;" width="117" x="407" y="477"/>
        <ellipse cx="422" cy="493" fill="#ADD1B2" rx="11" ry="11" style="stroke: #A80036; stroke-width: 1.0;"/>
        <path d="M424.7656,488.875 Q424.9219,488.6563 425.1094,488.5469 Q425.2969,488.4375 425.5156,488.4375 Q425.8906,488.4375 426.125,488.6953 Q426.3594,488.9531 426.3594,489.5625 L426.3594,491.0156 Q426.3594,491.625 426.125,491.8906 Q425.8906,492.1563 425.5156,492.1563 Q425.1719,492.1563 424.9688,491.9531 Q424.7656,491.7656 424.6563,491.25 Q424.6094,490.8906 424.4219,490.7031 Q424.0938,490.3281 423.4844,490.1094 Q422.875,489.8906 422.25,489.8906 Q421.4844,489.8906 420.8516,490.2188 Q420.2188,490.5469 419.7266,491.2969 Q419.2344,492.0469 419.2344,493.0781 L419.2344,494.1719 Q419.2344,495.4063 420.125,496.2266 Q421.0156,497.0469 422.6094,497.0469 Q423.5469,497.0469 424.2031,496.7969 Q424.5938,496.6406 425.0156,496.2031 Q425.2813,495.9375 425.4297,495.8594 Q425.5781,495.7813 425.7813,495.7813 Q426.1094,495.7813 426.3672,496.0391 Q426.625,496.2969 426.625,496.6406 Q426.625,496.9844 426.2813,497.3906 Q425.7813,497.9688 424.9844,498.2969 Q423.9063,498.75 422.6094,498.75 Q421.0938,498.75 419.8906,498.125 Q418.9063,497.625 418.2188,496.5547 Q417.5313,495.4844 417.5313,494.2031 L417.5313,493.0469 Q417.5313,491.7188 418.1484,490.5703 Q418.7656,489.4219 419.8594,488.8047 Q420.9531,488.1875 422.1875,488.1875 Q422.9219,488.1875 423.5703,488.3516 Q424.2188,488.5156 424.7656,488.875 Z "/>
        <text fill="#000000" font-family="sans-serif" font-size="12" lengthAdjust="spacingAndGlyphs" textLength="85" x="436" y="497.9102">ListTransaction</text>
        <line style="stroke: #A80036; stroke-width: 1.5;" x1="408" x2="523" y1="509" y2="509"/>
        <line style="stroke: #A80036; stroke-width: 1.5;" x1="408" x2="523" y1="517" y2="517"/>
        <text fill="#000000" font-family="sans-serif" font-size="11" lengthAdjust="spacingAndGlyphs" textLength="93" x="413" y="532.4189">+newTransaction()</text>
        <!--class ListTask-->
        <rect fill="#FEFECE" filter="url(#f1u4fnhf467dv8)" height="61.8359" style="stroke: #A80036; stroke-width: 1.5;" width="79" x="653" y="336.5"/>
        <ellipse cx="668" cy="352.5" fill="#ADD1B2" rx="11" ry="11" style="stroke: #A80036; stroke-width: 1.0;"/>
        <path d="M670.7656,348.375 Q670.9219,348.1563 671.1094,348.0469 Q671.2969,347.9375 671.5156,347.9375 Q671.8906,347.9375 672.125,348.1953 Q672.3594,348.4531 672.3594,349.0625 L672.3594,350.5156 Q672.3594,351.125 672.125,351.3906 Q671.8906,351.6563 671.5156,351.6563 Q671.1719,351.6563 670.9688,351.4531 Q670.7656,351.2656 670.6563,350.75 Q670.6094,350.3906 670.4219,350.2031 Q670.0938,349.8281 669.4844,349.6094 Q668.875,349.3906 668.25,349.3906 Q667.4844,349.3906 666.8516,349.7188 Q666.2188,350.0469 665.7266,350.7969 Q665.2344,351.5469 665.2344,352.5781 L665.2344,353.6719 Q665.2344,354.9063 666.125,355.7266 Q667.0156,356.5469 668.6094,356.5469 Q669.5469,356.5469 670.2031,356.2969 Q670.5938,356.1406 671.0156,355.7031 Q671.2813,355.4375 671.4297,355.3594 Q671.5781,355.2813 671.7813,355.2813 Q672.1094,355.2813 672.3672,355.5391 Q672.625,355.7969 672.625,356.1406 Q672.625,356.4844 672.2813,356.8906 Q671.7813,357.4688 670.9844,357.7969 Q669.9063,358.25 668.6094,358.25 Q667.0938,358.25 665.8906,357.625 Q664.9063,357.125 664.2188,356.0547 Q663.5313,354.9844 663.5313,353.7031 L663.5313,352.5469 Q663.5313,351.2188 664.1484,350.0703 Q664.7656,348.9219 665.8594,348.3047 Q666.9531,347.6875 668.1875,347.6875 Q668.9219,347.6875 669.5703,347.8516 Q670.2188,348.0156 670.7656,348.375 Z "/>
        <text fill="#000000" font-family="sans-serif" font-size="12" lengthAdjust="spacingAndGlyphs" textLength="47" x="682" y="357.4102">ListTask</text>
        <line style="stroke: #A80036; stroke-width: 1.5;" x1="654" x2="731" y1="368.5" y2="368.5"/>
        <line style="stroke: #A80036; stroke-width: 1.5;" x1="654" x2="731" y1="376.5" y2="376.5"/>
        <text fill="#000000" font-family="sans-serif" font-size="11" lengthAdjust="spacingAndGlyphs" textLength="59" x="659" y="391.9189">+newTask()</text>
        <!--class RegistFreelancer-->
        <rect fill="#FEFECE" filter="url(#f1u4fnhf467dv8)" height="61.8359" style="stroke: #A80036; stroke-width: 1.5;" width="127" x="771" y="141"/>
        <ellipse cx="786" cy="157" fill="#ADD1B2" rx="11" ry="11" style="stroke: #A80036; stroke-width: 1.0;"/>
        <path d="M788.7656,152.875 Q788.9219,152.6563 789.1094,152.5469 Q789.2969,152.4375 789.5156,152.4375 Q789.8906,152.4375 790.125,152.6953 Q790.3594,152.9531 790.3594,153.5625 L790.3594,155.0156 Q790.3594,155.625 790.125,155.8906 Q789.8906,156.1563 789.5156,156.1563 Q789.1719,156.1563 788.9688,155.9531 Q788.7656,155.7656 788.6563,155.25 Q788.6094,154.8906 788.4219,154.7031 Q788.0938,154.3281 787.4844,154.1094 Q786.875,153.8906 786.25,153.8906 Q785.4844,153.8906 784.8516,154.2188 Q784.2188,154.5469 783.7266,155.2969 Q783.2344,156.0469 783.2344,157.0781 L783.2344,158.1719 Q783.2344,159.4063 784.125,160.2266 Q785.0156,161.0469 786.6094,161.0469 Q787.5469,161.0469 788.2031,160.7969 Q788.5938,160.6406 789.0156,160.2031 Q789.2813,159.9375 789.4297,159.8594 Q789.5781,159.7813 789.7813,159.7813 Q790.1094,159.7813 790.3672,160.0391 Q790.625,160.2969 790.625,160.6406 Q790.625,160.9844 790.2813,161.3906 Q789.7813,161.9688 788.9844,162.2969 Q787.9063,162.75 786.6094,162.75 Q785.0938,162.75 783.8906,162.125 Q782.9063,161.625 782.2188,160.5547 Q781.5313,159.4844 781.5313,158.2031 L781.5313,157.0469 Q781.5313,155.7188 782.1484,154.5703 Q782.7656,153.4219 783.8594,152.8047 Q784.9531,152.1875 786.1875,152.1875 Q786.9219,152.1875 787.5703,152.3516 Q788.2188,152.5156 788.7656,152.875 Z "/>
        <text fill="#000000" font-family="sans-serif" font-size="12" lengthAdjust="spacingAndGlyphs" textLength="95" x="800" y="161.9102">RegistFreelancer</text>
        <line style="stroke: #A80036; stroke-width: 1.5;" x1="772" x2="897" y1="173" y2="173"/>
        <line style="stroke: #A80036; stroke-width: 1.5;" x1="772" x2="897" y1="181" y2="181"/>
        <text fill="#000000" font-family="sans-serif" font-size="11" lengthAdjust="spacingAndGlyphs" textLength="91" x="777" y="196.4189">+newFreelancer ()</text>
        <path d="M91.5,196.341 C91.5,227.99 91.5,285.064 91.5,324.323 " fill="none" style="stroke: #A80036; stroke-width: 1.0; stroke-dasharray: 7.0,7.0;"/>
        <polygon fill="#A80036" points="91.5,329.5,95.5,320.5,91.5,324.5,87.5,320.5,91.5,329.5" style="stroke: #A80036; stroke-width: 1.0;"/>
        <path d="M103.0472,405.74 C118.442,455.388 145.495,542.634 160.57,591.252 " fill="none" style="stroke: #A80036; stroke-width: 1.0; stroke-dasharray: 7.0,7.0;"/>
        <polygon fill="#A80036" points="162.08,596.122,163.2366,586.3413,160.5999,591.3461,155.5951,588.7094,162.08,596.122" style="stroke: #A80036; stroke-width: 1.0;"/>
        <path d="M452.885,177.286 C407.913,183.718 343.308,199.799 303.5,240 C281.814,261.9 271.596,295.36 266.783,322.368 " fill="none" style="stroke: #A80036; stroke-width: 1.0;"/>
        <polygon fill="#000000" points="311.5,247.6758,305.5,250.6758,311.5,253.6758,311.5,247.6758" style="stroke: #000000; stroke-width: 1.0;"/>
        <text fill="#000000" font-family="sans-serif" font-size="13" lengthAdjust="spacingAndGlyphs" textLength="21" x="317.5" y="254.4951">has</text>
        <text fill="#000000" font-family="sans-serif" font-size="13" lengthAdjust="spacingAndGlyphs" textLength="7" x="437.9369" y="174.4324">1</text>
        <text fill="#000000" font-family="sans-serif" font-size="13" lengthAdjust="spacingAndGlyphs" textLength="7" x="259.9029" y="311.7919">1</text>
        <path d="M516.677,210.314 C519.813,219.917 522.977,230.283 525.5,240 C549.052,330.694 541.707,356.369 565.5,447 C576.346,488.315 591.649,533.958 604.086,568.879 " fill="none" style="stroke: #A80036; stroke-width: 1.0;"/>
        <text fill="#000000" font-family="sans-serif" font-size="13" lengthAdjust="spacingAndGlyphs" textLength="55" x="566.5" y="372.9951">publishes</text>
        <polygon fill="#000000" points="589.5,381.8516,592.5,387.8516,595.5,381.8516,589.5,381.8516" style="stroke: #000000; stroke-width: 1.0;"/>
        <text fill="#000000" font-family="sans-serif" font-size="13" lengthAdjust="spacingAndGlyphs" textLength="7" x="511.2193" y="231.2446">1</text>
        <text fill="#000000" font-family="sans-serif" font-size="13" lengthAdjust="spacingAndGlyphs" textLength="5" x="596.1715" y="558.2652">*</text>
        <path d="M478.052,210.193 C441.947,265.453 377.567,373.835 353.5,477 C329.089,581.641 350.012,711.453 360.437,763.6562 " fill="none" style="stroke: #A80036; stroke-width: 1.0;"/>
        <text fill="#000000" font-family="sans-serif" font-size="13" lengthAdjust="spacingAndGlyphs" textLength="21" x="354.5" y="513.4951">has</text>
        <polygon fill="#000000" points="360.5,522.3516,363.5,528.3516,366.5,522.3516,360.5,522.3516" style="stroke: #000000; stroke-width: 1.0;"/>
        <text fill="#000000" font-family="sans-serif" font-size="13" lengthAdjust="spacingAndGlyphs" textLength="7" x="466.4384" y="231.1043">1</text>
        <text fill="#000000" font-family="sans-serif" font-size="13" lengthAdjust="spacingAndGlyphs" textLength="5" x="353.5935" y="753.3104">*</text>
        <path d="M672.658,51.899 C642.254,73.306 592.023,108.673 554.18,135.317 " fill="none" style="stroke: #A80036; stroke-width: 1.0;"/>
        <polygon fill="#000000" points="627.5,93.6758,621.5,96.6758,627.5,99.6758,627.5,93.6758" style="stroke: #000000; stroke-width: 1.0;"/>
        <text fill="#000000" font-family="sans-serif" font-size="13" lengthAdjust="spacingAndGlyphs" textLength="21" x="633.5" y="100.4951">has</text>
        <text fill="#000000" font-family="sans-serif" font-size="13" lengthAdjust="spacingAndGlyphs" textLength="7" x="657.8829" y="52.4883">1</text>
        <text fill="#000000" font-family="sans-serif" font-size="13" lengthAdjust="spacingAndGlyphs" textLength="5" x="561.9908" y="126.2992">*</text>
        <path d="M698.002,56.262 C696.606,90.998 697.197,157.91 717.5,210 C729.019,239.553 747.731,268.395 766.845,293.103 " fill="none" style="stroke: #A80036; stroke-width: 1.0;"/>
        <text fill="#000000" font-family="sans-serif" font-size="13" lengthAdjust="spacingAndGlyphs" textLength="21" x="718.5" y="177.4951">has</text>
        <polygon fill="#000000" points="724.5,186.3516,727.5,192.3516,730.5,186.3516,724.5,186.3516" style="stroke: #000000; stroke-width: 1.0;"/>
        <text fill="#000000" font-family="sans-serif" font-size="13" lengthAdjust="spacingAndGlyphs" textLength="7" x="689.7837" y="77.6638">1</text>
        <text fill="#000000" font-family="sans-serif" font-size="13" lengthAdjust="spacingAndGlyphs" textLength="5" x="754.1718" y="281.6223">*</text>
        <path d="M722.096,56.098 C743.773,78.257 776.759,111.975 801.398,137.163 " fill="none" style="stroke: #A80036; stroke-width: 1.0;"/>
        <polygon fill="#A80036" points="804.971,140.815,801.5378,131.5839,801.475,137.2404,795.8185,137.1775,804.971,140.815" style="stroke: #A80036; stroke-width: 1.0;"/>
        <text fill="#000000" font-family="sans-serif" font-size="13" lengthAdjust="spacingAndGlyphs" textLength="21" x="768.5" y="100.4951">has</text>
        <text fill="#000000" font-family="sans-serif" font-size="13" lengthAdjust="spacingAndGlyphs" textLength="7" x="719.7507" y="77.4599">1</text>
        <text fill="#000000" font-family="sans-serif" font-size="13" lengthAdjust="spacingAndGlyphs" textLength="7" x="791.1588" y="130.2814">1</text>
        <path d="M834.5,203.234 C834.5,224.548 834.5,254.209 834.5,282.41 " fill="none" style="stroke: #A80036; stroke-width: 1.0;"/>
        <polygon fill="#A80036" points="834.5,287.657,838.5,278.657,834.5,282.657,830.5,278.657,834.5,287.657" style="stroke: #A80036; stroke-width: 1.0;"/>
        <text fill="#000000" font-family="sans-serif" font-size="13" lengthAdjust="spacingAndGlyphs" textLength="21" x="835.5" y="254.4951">has</text>
        <text fill="#000000" font-family="sans-serif" font-size="13" lengthAdjust="spacingAndGlyphs" textLength="7" x="826.8328" y="224.2572">1</text>
        <text fill="#000000" font-family="sans-serif" font-size="13" lengthAdjust="spacingAndGlyphs" textLength="5" x="829.2695" y="277.0847">*</text>
        <path d="M246.96,412.559 C228.482,464.946 198.138,550.978 182.139,596.338 " fill="none" style="stroke: #A80036; stroke-width: 1.0;"/>
        <text fill="#000000" font-family="sans-serif" font-size="13" lengthAdjust="spacingAndGlyphs" textLength="31" x="223.5" y="513.4951">loads</text>
        <polygon fill="#000000" points="234.5,522.3516,237.5,528.3516,240.5,522.3516,234.5,522.3516" style="stroke: #000000; stroke-width: 1.0;"/>
        <text fill="#000000" font-family="sans-serif" font-size="13" lengthAdjust="spacingAndGlyphs" textLength="7" x="237.2825" y="433.5749">1</text>
        <text fill="#000000" font-family="sans-serif" font-size="13" lengthAdjust="spacingAndGlyphs" textLength="5" x="178.8177" y="585.8091">*</text>
        <path d="M199.904,658.86 C221.294,680.925 251.902,710.853 281.5,734 C295.083,744.6225 310.872,755.0334 325.07,763.777 " fill="none" style="stroke: #A80036; stroke-width: 1.0;"/>
        <text fill="#000000" font-family="sans-serif" font-size="13" lengthAdjust="spacingAndGlyphs" textLength="43" x="282.5" y="730.4951">records</text>
        <polygon fill="#000000" points="328.5,723.6758,334.5,726.6758,328.5,729.6758,328.5,723.6758" style="stroke: #000000; stroke-width: 1.0;"/>
        <text fill="#000000" font-family="sans-serif" font-size="13" lengthAdjust="spacingAndGlyphs" textLength="7" x="197.6513" y="679.9073">1</text>
        <text fill="#000000" font-family="sans-serif" font-size="13" lengthAdjust="spacingAndGlyphs" textLength="5" x="309.0692" y="753.06">*</text>
        <path d="M456.981,539.321 C444.387,582.99 419.274,665.835 391.5,734 C388.137,742.253 384.059,751.0142 380.14,758.9861 " fill="none" style="stroke: #A80036; stroke-width: 1.0;"/>
        <polygon fill="#A80036" points="377.728,763.8362,385.3178,757.5597,379.9549,759.3595,378.1551,753.9966,377.728,763.8362" style="stroke: #A80036; stroke-width: 1.0;"/>
        <text fill="#000000" font-family="sans-serif" font-size="13" lengthAdjust="spacingAndGlyphs" textLength="21" x="449.5" y="632.9951">has</text>
        <text fill="#000000" font-family="sans-serif" font-size="13" lengthAdjust="spacingAndGlyphs" textLength="7" x="447.6899" y="560.3608">1</text>
        <text fill="#000000" font-family="sans-serif" font-size="13" lengthAdjust="spacingAndGlyphs" textLength="5" x="375.2208" y="753.1344">*</text>
        <path d="M544.953,210.002 C569.075,232.039 599.713,260.908 625.5,288 C638.937,302.117 653.051,318.41 664.841,332.48 " fill="none" style="stroke: #A80036; stroke-width: 1.0;"/>
        <polygon fill="#A80036" points="668.103,336.386,665.4063,326.9135,664.8988,332.5476,659.2648,332.0402,668.103,336.386" style="stroke: #A80036; stroke-width: 1.0;"/>
        <text fill="#000000" font-family="sans-serif" font-size="13" lengthAdjust="spacingAndGlyphs" textLength="21" x="594.5" y="254.4951">has</text>
        <text fill="#000000" font-family="sans-serif" font-size="13" lengthAdjust="spacingAndGlyphs" textLength="7" x="544.239" y="231.1725">1</text>
        <text fill="#000000" font-family="sans-serif" font-size="13" lengthAdjust="spacingAndGlyphs" textLength="7" x="655.3492" y="325.867">1</text>
        <path d="M684.683,398.601 C674.216,438.906 655.39,511.403 641.776,563.826 " fill="none" style="stroke: #A80036; stroke-width: 1.0;"/>
        <polygon fill="#A80036" points="640.475,568.834,646.6091,561.1286,641.732,563.9946,638.8661,559.1175,640.475,568.834" style="stroke: #A80036; stroke-width: 1.0;"/>
        <text fill="#000000" font-family="sans-serif" font-size="13" lengthAdjust="spacingAndGlyphs" textLength="21" x="664.5" y="513.4951">has</text>
        <text fill="#000000" font-family="sans-serif" font-size="13" lengthAdjust="spacingAndGlyphs" textLength="7" x="675.455" y="419.8449">1</text>
        <text fill="#000000" font-family="sans-serif" font-size="13" lengthAdjust="spacingAndGlyphs" textLength="5" x="636.9954" y="558.2147">*</text>
        <path d="M499.288,210.02 C491.92,274.779 476.788,407.781 469.542,471.474 " fill="none" style="stroke: #A80036; stroke-width: 1.0;"/>
        <polygon fill="#A80036" points="468.95,476.678,473.9425,468.1883,469.5156,471.7101,465.9938,467.2833,468.95,476.678" style="stroke: #A80036; stroke-width: 1.0;"/>
        <text fill="#000000" font-family="sans-serif" font-size="13" lengthAdjust="spacingAndGlyphs" textLength="21" x="496.5" y="254.4951">has</text>
        <text fill="#000000" font-family="sans-serif" font-size="13" lengthAdjust="spacingAndGlyphs" textLength="7" x="491.0107" y="231.1935">1</text>
        <text fill="#000000" font-family="sans-serif" font-size="13" lengthAdjust="spacingAndGlyphs" textLength="7" x="461.9397" y="466.1161">1</text>
        <!--
@startuml CD
skinparam classAttributeIconSize 0
top to bottom direction

class LoaderUI {

}

class LoaderController {
        + create()
        + newHistoricalTransactionsFile()
}

class App {

}

class Organization {
        - String name
        - String NIF
}

class Transaction {

}

class Task {
        - String id
        - String description
        - Integer durationInHours
        - Double costPerHourOfJuniorEur
        - String category
}

class Collaborator {
        - String name
        - String email
        - String password
}

class Freelancer {
        - String id
        - String name
        - String levelOfExpertise
        - String email
        - String NIF
        - String bankAccountIBAN
        - String address
        - String country
}

class HistoricalTransactionFile {
        + readFileTo(registFreelancer, ListTask, ListTransaction)
}

class ListTransaction {
        + newTransaction()
}

class ListTask {
        + newTask()
}

class RegistFreelancer {
        + newFreelancer ()
}


LoaderUI ..> LoaderController
LoaderController ..> HistoricalTransactionFile
Organization                 "1" - - "1"      Collaborator              : has >
Organization                 "1" - - "*"      Task                      : publishes >
Organization                 "1" - - "*"      Transaction               : has >
App                          "1" - - "*"      Organization              : has >
App                          "1" - - "*"      Freelancer                : has >
App                          "1" - -> "1"     RegistFreelancer          : has
RegistFreelancer             "1" - -> "*"     Freelancer                : has
Collaborator                 "1" - - "*"      HistoricalTransactionFile : loads >
HistoricalTransactionFile    "1" - - "*"      Transaction               : records >
ListTransaction              "1" - -> "*"     Transaction               : has
Organization                 "1" - -> "1"      ListTask                  : has
ListTask                     "1" - -> "*"      Task                      : has
Organization                 "1" - -> "1"      ListTransaction           : has


@enduml

PlantUML version 2017.11(Wed Apr 19 17:18:59 BST 2017)
(GPL source distribution)
Java Runtime: Java(TM) SE Runtime Environment
JVM: Java HotSpot(TM) 64-Bit Server VM
Java Version: 1.8.0_231-b11
Operating System: Windows 10
OS Version: 10.0
Default Encoding: UTF-8
Language: pt
Country: PT
-->
    </g>
</svg>
