<?xml version="1.0" encoding="UTF-8"?><svg xmlns="http://www.w3.org/2000/svg" xmlns:xlink="http://www.w3.org/1999/xlink" contentScriptType="application/ecmascript" contentStyleType="text/css" height="348px" preserveAspectRatio="none" style="width:1088px;height:348px;" version="1.1" viewBox="0 0 1088 348" width="1088px" zoomAndPan="magnify">
    <defs>
        <filter height="300%" id="f19r0slnkpq4w4" width="300%" x="-1" y="-1">
            <feGaussianBlur result="blurOut" stdDeviation="2.0"/>
            <feColorMatrix in="blurOut" result="blurOut2" type="matrix" values="0 0 0 0 0 0 0 0 0 0 0 0 0 0 0 0 0 0 .4 0"/>
            <feOffset dx="4.0" dy="4.0" in="blurOut2" result="blurOut3"/>
            <feBlend in="SourceGraphic" in2="blurOut3" mode="normal"/>
        </filter>
    </defs>
    <g>
        <!--class App-->
        <rect fill="#FEFECE" filter="url(#f19r0slnkpq4w4)" height="40" style="stroke: #A80036; stroke-width: 1.5;" width="53" x="6" y="194.5"/>
        <ellipse cx="21" cy="210.5" fill="#ADD1B2" rx="11" ry="11" style="stroke: #A80036; stroke-width: 1.0;"/>
        <path d="M23.7656,206.375 Q23.9219,206.1563 24.1094,206.0469 Q24.2969,205.9375 24.5156,205.9375 Q24.8906,205.9375 25.125,206.1953 Q25.3594,206.4531 25.3594,207.0625 L25.3594,208.5156 Q25.3594,209.125 25.125,209.3906 Q24.8906,209.6563 24.5156,209.6563 Q24.1719,209.6563 23.9688,209.4531 Q23.7656,209.2656 23.6563,208.75 Q23.6094,208.3906 23.4219,208.2031 Q23.0938,207.8281 22.4844,207.6094 Q21.875,207.3906 21.25,207.3906 Q20.4844,207.3906 19.8516,207.7188 Q19.2188,208.0469 18.7266,208.7969 Q18.2344,209.5469 18.2344,210.5781 L18.2344,211.6719 Q18.2344,212.9063 19.125,213.7266 Q20.0156,214.5469 21.6094,214.5469 Q22.5469,214.5469 23.2031,214.2969 Q23.5938,214.1406 24.0156,213.7031 Q24.2813,213.4375 24.4297,213.3594 Q24.5781,213.2813 24.7813,213.2813 Q25.1094,213.2813 25.3672,213.5391 Q25.625,213.7969 25.625,214.1406 Q25.625,214.4844 25.2813,214.8906 Q24.7813,215.4688 23.9844,215.7969 Q22.9063,216.25 21.6094,216.25 Q20.0938,216.25 18.8906,215.625 Q17.9063,215.125 17.2188,214.0547 Q16.5313,212.9844 16.5313,211.7031 L16.5313,210.5469 Q16.5313,209.2188 17.1484,208.0703 Q17.7656,206.9219 18.8594,206.3047 Q19.9531,205.6875 21.1875,205.6875 Q21.9219,205.6875 22.5703,205.8516 Q23.2188,206.0156 23.7656,206.375 Z "/>
        <text fill="#000000" font-family="sans-serif" font-size="12" lengthAdjust="spacingAndGlyphs" textLength="21" x="35" y="215.4102">App</text>
        <line style="stroke: #A80036; stroke-width: 1.5;" x1="7" x2="58" y1="226.5" y2="226.5"/>
        <!--class Organization-->
        <rect fill="#FEFECE" filter="url(#f19r0slnkpq4w4)" height="67.6719" style="stroke: #A80036; stroke-width: 1.5;" width="101" x="172" y="85.5"/>
        <ellipse cx="187" cy="101.5" fill="#ADD1B2" rx="11" ry="11" style="stroke: #A80036; stroke-width: 1.0;"/>
        <path d="M189.7656,97.375 Q189.9219,97.1563 190.1094,97.0469 Q190.2969,96.9375 190.5156,96.9375 Q190.8906,96.9375 191.125,97.1953 Q191.3594,97.4531 191.3594,98.0625 L191.3594,99.5156 Q191.3594,100.125 191.125,100.3906 Q190.8906,100.6563 190.5156,100.6563 Q190.1719,100.6563 189.9688,100.4531 Q189.7656,100.2656 189.6563,99.75 Q189.6094,99.3906 189.4219,99.2031 Q189.0938,98.8281 188.4844,98.6094 Q187.875,98.3906 187.25,98.3906 Q186.4844,98.3906 185.8516,98.7188 Q185.2188,99.0469 184.7266,99.7969 Q184.2344,100.5469 184.2344,101.5781 L184.2344,102.6719 Q184.2344,103.9063 185.125,104.7266 Q186.0156,105.5469 187.6094,105.5469 Q188.5469,105.5469 189.2031,105.2969 Q189.5938,105.1406 190.0156,104.7031 Q190.2813,104.4375 190.4297,104.3594 Q190.5781,104.2813 190.7813,104.2813 Q191.1094,104.2813 191.3672,104.5391 Q191.625,104.7969 191.625,105.1406 Q191.625,105.4844 191.2813,105.8906 Q190.7813,106.4688 189.9844,106.7969 Q188.9063,107.25 187.6094,107.25 Q186.0938,107.25 184.8906,106.625 Q183.9063,106.125 183.2188,105.0547 Q182.5313,103.9844 182.5313,102.7031 L182.5313,101.5469 Q182.5313,100.2188 183.1484,99.0703 Q183.7656,97.9219 184.8594,97.3047 Q185.9531,96.6875 187.1875,96.6875 Q187.9219,96.6875 188.5703,96.8516 Q189.2188,97.0156 189.7656,97.375 Z "/>
        <text fill="#000000" font-family="sans-serif" font-size="12" lengthAdjust="spacingAndGlyphs" textLength="69" x="201" y="106.4102">Organization</text>
        <line style="stroke: #A80036; stroke-width: 1.5;" x1="173" x2="272" y1="117.5" y2="117.5"/>
        <text fill="#000000" font-family="sans-serif" font-size="11" lengthAdjust="spacingAndGlyphs" textLength="61" x="178" y="132.9189">-String name</text>
        <text fill="#000000" font-family="sans-serif" font-size="11" lengthAdjust="spacingAndGlyphs" textLength="50" x="178" y="146.7549">-String NIF</text>
        <!--class Transaction-->
        <rect fill="#FEFECE" filter="url(#f19r0slnkpq4w4)" height="40" style="stroke: #A80036; stroke-width: 1.5;" width="97" x="982" y="30.5"/>
        <ellipse cx="997" cy="46.5" fill="#ADD1B2" rx="11" ry="11" style="stroke: #A80036; stroke-width: 1.0;"/>
        <path d="M999.7656,42.375 Q999.9219,42.1563 1000.1094,42.0469 Q1000.2969,41.9375 1000.5156,41.9375 Q1000.8906,41.9375 1001.125,42.1953 Q1001.3594,42.4531 1001.3594,43.0625 L1001.3594,44.5156 Q1001.3594,45.125 1001.125,45.3906 Q1000.8906,45.6563 1000.5156,45.6563 Q1000.1719,45.6563 999.9688,45.4531 Q999.7656,45.2656 999.6563,44.75 Q999.6094,44.3906 999.4219,44.2031 Q999.0938,43.8281 998.4844,43.6094 Q997.875,43.3906 997.25,43.3906 Q996.4844,43.3906 995.8516,43.7188 Q995.2188,44.0469 994.7266,44.7969 Q994.2344,45.5469 994.2344,46.5781 L994.2344,47.6719 Q994.2344,48.9063 995.125,49.7266 Q996.0156,50.5469 997.6094,50.5469 Q998.5469,50.5469 999.2031,50.2969 Q999.5938,50.1406 1000.0156,49.7031 Q1000.2813,49.4375 1000.4297,49.3594 Q1000.5781,49.2813 1000.7813,49.2813 Q1001.1094,49.2813 1001.3672,49.5391 Q1001.625,49.7969 1001.625,50.1406 Q1001.625,50.4844 1001.2813,50.8906 Q1000.7813,51.4688 999.9844,51.7969 Q998.9063,52.25 997.6094,52.25 Q996.0938,52.25 994.8906,51.625 Q993.9063,51.125 993.2188,50.0547 Q992.5313,48.9844 992.5313,47.7031 L992.5313,46.5469 Q992.5313,45.2188 993.1484,44.0703 Q993.7656,42.9219 994.8594,42.3047 Q995.9531,41.6875 997.1875,41.6875 Q997.9219,41.6875 998.5703,41.8516 Q999.2188,42.0156 999.7656,42.375 Z "/>
        <text fill="#000000" font-family="sans-serif" font-size="12" lengthAdjust="spacingAndGlyphs" textLength="65" x="1011" y="51.4102">Transaction</text>
        <line style="stroke: #A80036; stroke-width: 1.5;" x1="983" x2="1078" y1="62.5" y2="62.5"/>
        <!--class Task-->
        <rect fill="#FEFECE" filter="url(#f19r0slnkpq4w4)" height="109.1797" style="stroke: #A80036; stroke-width: 1.5;" width="169" x="420" y="65"/>
        <ellipse cx="486.75" cy="81" fill="#ADD1B2" rx="11" ry="11" style="stroke: #A80036; stroke-width: 1.0;"/>
        <path d="M489.5156,76.875 Q489.6719,76.6563 489.8594,76.5469 Q490.0469,76.4375 490.2656,76.4375 Q490.6406,76.4375 490.875,76.6953 Q491.1094,76.9531 491.1094,77.5625 L491.1094,79.0156 Q491.1094,79.625 490.875,79.8906 Q490.6406,80.1563 490.2656,80.1563 Q489.9219,80.1563 489.7188,79.9531 Q489.5156,79.7656 489.4063,79.25 Q489.3594,78.8906 489.1719,78.7031 Q488.8438,78.3281 488.2344,78.1094 Q487.625,77.8906 487,77.8906 Q486.2344,77.8906 485.6016,78.2188 Q484.9688,78.5469 484.4766,79.2969 Q483.9844,80.0469 483.9844,81.0781 L483.9844,82.1719 Q483.9844,83.4063 484.875,84.2266 Q485.7656,85.0469 487.3594,85.0469 Q488.2969,85.0469 488.9531,84.7969 Q489.3438,84.6406 489.7656,84.2031 Q490.0313,83.9375 490.1797,83.8594 Q490.3281,83.7813 490.5313,83.7813 Q490.8594,83.7813 491.1172,84.0391 Q491.375,84.2969 491.375,84.6406 Q491.375,84.9844 491.0313,85.3906 Q490.5313,85.9688 489.7344,86.2969 Q488.6563,86.75 487.3594,86.75 Q485.8438,86.75 484.6406,86.125 Q483.6563,85.625 482.9688,84.5547 Q482.2813,83.4844 482.2813,82.2031 L482.2813,81.0469 Q482.2813,79.7188 482.8984,78.5703 Q483.5156,77.4219 484.6094,76.8047 Q485.7031,76.1875 486.9375,76.1875 Q487.6719,76.1875 488.3203,76.3516 Q488.9688,76.5156 489.5156,76.875 Z "/>
        <text fill="#000000" font-family="sans-serif" font-size="12" lengthAdjust="spacingAndGlyphs" textLength="27" x="507.25" y="85.9102">Task</text>
        <line style="stroke: #A80036; stroke-width: 1.5;" x1="421" x2="588" y1="97" y2="97"/>
        <text fill="#000000" font-family="sans-serif" font-size="11" lengthAdjust="spacingAndGlyphs" textLength="43" x="426" y="112.4189">-String id</text>
        <text fill="#000000" font-family="sans-serif" font-size="11" lengthAdjust="spacingAndGlyphs" textLength="88" x="426" y="126.2549">-String description</text>
        <text fill="#000000" font-family="sans-serif" font-size="11" lengthAdjust="spacingAndGlyphs" textLength="116" x="426" y="140.0908">-Integer durationInHours</text>
        <text fill="#000000" font-family="sans-serif" font-size="11" lengthAdjust="spacingAndGlyphs" textLength="157" x="426" y="153.9268">-Double costPerHourOfJuniorEur</text>
        <text fill="#000000" font-family="sans-serif" font-size="11" lengthAdjust="spacingAndGlyphs" textLength="78" x="426" y="167.7627">-String category</text>
        <!--class HistoricalTransactionFile-->
        <rect fill="#FEFECE" filter="url(#f19r0slnkpq4w4)" height="40" style="stroke: #A80036; stroke-width: 1.5;" width="169" x="695" y="105.5"/>
        <ellipse cx="710" cy="121.5" fill="#ADD1B2" rx="11" ry="11" style="stroke: #A80036; stroke-width: 1.0;"/>
        <path d="M712.7656,117.375 Q712.9219,117.1563 713.1094,117.0469 Q713.2969,116.9375 713.5156,116.9375 Q713.8906,116.9375 714.125,117.1953 Q714.3594,117.4531 714.3594,118.0625 L714.3594,119.5156 Q714.3594,120.125 714.125,120.3906 Q713.8906,120.6563 713.5156,120.6563 Q713.1719,120.6563 712.9688,120.4531 Q712.7656,120.2656 712.6563,119.75 Q712.6094,119.3906 712.4219,119.2031 Q712.0938,118.8281 711.4844,118.6094 Q710.875,118.3906 710.25,118.3906 Q709.4844,118.3906 708.8516,118.7188 Q708.2188,119.0469 707.7266,119.7969 Q707.2344,120.5469 707.2344,121.5781 L707.2344,122.6719 Q707.2344,123.9063 708.125,124.7266 Q709.0156,125.5469 710.6094,125.5469 Q711.5469,125.5469 712.2031,125.2969 Q712.5938,125.1406 713.0156,124.7031 Q713.2813,124.4375 713.4297,124.3594 Q713.5781,124.2813 713.7813,124.2813 Q714.1094,124.2813 714.3672,124.5391 Q714.625,124.7969 714.625,125.1406 Q714.625,125.4844 714.2813,125.8906 Q713.7813,126.4688 712.9844,126.7969 Q711.9063,127.25 710.6094,127.25 Q709.0938,127.25 707.8906,126.625 Q706.9063,126.125 706.2188,125.0547 Q705.5313,123.9844 705.5313,122.7031 L705.5313,121.5469 Q705.5313,120.2188 706.1484,119.0703 Q706.7656,117.9219 707.8594,117.3047 Q708.9531,116.6875 710.1875,116.6875 Q710.9219,116.6875 711.5703,116.8516 Q712.2188,117.0156 712.7656,117.375 Z "/>
        <text fill="#000000" font-family="sans-serif" font-size="12" lengthAdjust="spacingAndGlyphs" textLength="137" x="724" y="126.4102">HistoricalTransactionFile</text>
        <line style="stroke: #A80036; stroke-width: 1.5;" x1="696" x2="863" y1="137.5" y2="137.5"/>
        <!--class Collaborator-->
        <rect fill="#FEFECE" filter="url(#f19r0slnkpq4w4)" height="81.5078" style="stroke: #A80036; stroke-width: 1.5;" width="100" x="454.5" y="209.5"/>
        <ellipse cx="469.5" cy="225.5" fill="#ADD1B2" rx="11" ry="11" style="stroke: #A80036; stroke-width: 1.0;"/>
        <path d="M472.2656,221.375 Q472.4219,221.1563 472.6094,221.0469 Q472.7969,220.9375 473.0156,220.9375 Q473.3906,220.9375 473.625,221.1953 Q473.8594,221.4531 473.8594,222.0625 L473.8594,223.5156 Q473.8594,224.125 473.625,224.3906 Q473.3906,224.6563 473.0156,224.6563 Q472.6719,224.6563 472.4688,224.4531 Q472.2656,224.2656 472.1563,223.75 Q472.1094,223.3906 471.9219,223.2031 Q471.5938,222.8281 470.9844,222.6094 Q470.375,222.3906 469.75,222.3906 Q468.9844,222.3906 468.3516,222.7188 Q467.7188,223.0469 467.2266,223.7969 Q466.7344,224.5469 466.7344,225.5781 L466.7344,226.6719 Q466.7344,227.9063 467.625,228.7266 Q468.5156,229.5469 470.1094,229.5469 Q471.0469,229.5469 471.7031,229.2969 Q472.0938,229.1406 472.5156,228.7031 Q472.7813,228.4375 472.9297,228.3594 Q473.0781,228.2813 473.2813,228.2813 Q473.6094,228.2813 473.8672,228.5391 Q474.125,228.7969 474.125,229.1406 Q474.125,229.4844 473.7813,229.8906 Q473.2813,230.4688 472.4844,230.7969 Q471.4063,231.25 470.1094,231.25 Q468.5938,231.25 467.3906,230.625 Q466.4063,230.125 465.7188,229.0547 Q465.0313,227.9844 465.0313,226.7031 L465.0313,225.5469 Q465.0313,224.2188 465.6484,223.0703 Q466.2656,221.9219 467.3594,221.3047 Q468.4531,220.6875 469.6875,220.6875 Q470.4219,220.6875 471.0703,220.8516 Q471.7188,221.0156 472.2656,221.375 Z "/>
        <text fill="#000000" font-family="sans-serif" font-size="12" lengthAdjust="spacingAndGlyphs" textLength="68" x="483.5" y="230.4102">Collaborator</text>
        <line style="stroke: #A80036; stroke-width: 1.5;" x1="455.5" x2="553.5" y1="241.5" y2="241.5"/>
        <text fill="#000000" font-family="sans-serif" font-size="11" lengthAdjust="spacingAndGlyphs" textLength="61" x="460.5" y="256.9189">-String name</text>
        <text fill="#000000" font-family="sans-serif" font-size="11" lengthAdjust="spacingAndGlyphs" textLength="59" x="460.5" y="270.7549">-String email</text>
        <text fill="#000000" font-family="sans-serif" font-size="11" lengthAdjust="spacingAndGlyphs" textLength="85" x="460.5" y="284.5908">-String password</text>
        <!--class Freelancer-->
        <rect fill="#FEFECE" filter="url(#f19r0slnkpq4w4)" height="150.6875" style="stroke: #A80036; stroke-width: 1.5;" width="135" x="155" y="189"/>
        <ellipse cx="189.8" cy="205" fill="#ADD1B2" rx="11" ry="11" style="stroke: #A80036; stroke-width: 1.0;"/>
        <path d="M192.5656,200.875 Q192.7219,200.6563 192.9094,200.5469 Q193.0969,200.4375 193.3156,200.4375 Q193.6906,200.4375 193.925,200.6953 Q194.1594,200.9531 194.1594,201.5625 L194.1594,203.0156 Q194.1594,203.625 193.925,203.8906 Q193.6906,204.1563 193.3156,204.1563 Q192.9719,204.1563 192.7688,203.9531 Q192.5656,203.7656 192.4563,203.25 Q192.4094,202.8906 192.2219,202.7031 Q191.8938,202.3281 191.2844,202.1094 Q190.675,201.8906 190.05,201.8906 Q189.2844,201.8906 188.6516,202.2188 Q188.0188,202.5469 187.5266,203.2969 Q187.0344,204.0469 187.0344,205.0781 L187.0344,206.1719 Q187.0344,207.4063 187.925,208.2266 Q188.8156,209.0469 190.4094,209.0469 Q191.3469,209.0469 192.0031,208.7969 Q192.3938,208.6406 192.8156,208.2031 Q193.0813,207.9375 193.2297,207.8594 Q193.3781,207.7813 193.5813,207.7813 Q193.9094,207.7813 194.1672,208.0391 Q194.425,208.2969 194.425,208.6406 Q194.425,208.9844 194.0813,209.3906 Q193.5813,209.9688 192.7844,210.2969 Q191.7063,210.75 190.4094,210.75 Q188.8938,210.75 187.6906,210.125 Q186.7063,209.625 186.0188,208.5547 Q185.3313,207.4844 185.3313,206.2031 L185.3313,205.0469 Q185.3313,203.7188 185.9484,202.5703 Q186.5656,201.4219 187.6594,200.8047 Q188.7531,200.1875 189.9875,200.1875 Q190.7219,200.1875 191.3703,200.3516 Q192.0188,200.5156 192.5656,200.875 Z "/>
        <text fill="#000000" font-family="sans-serif" font-size="12" lengthAdjust="spacingAndGlyphs" textLength="59" x="208.2" y="209.9102">Freelancer</text>
        <line style="stroke: #A80036; stroke-width: 1.5;" x1="156" x2="289" y1="221" y2="221"/>
        <text fill="#000000" font-family="sans-serif" font-size="11" lengthAdjust="spacingAndGlyphs" textLength="43" x="161" y="236.4189">-String id</text>
        <text fill="#000000" font-family="sans-serif" font-size="11" lengthAdjust="spacingAndGlyphs" textLength="61" x="161" y="250.2549">-String name</text>
        <text fill="#000000" font-family="sans-serif" font-size="11" lengthAdjust="spacingAndGlyphs" textLength="114" x="161" y="264.0908">-String levelOfExpertise</text>
        <text fill="#000000" font-family="sans-serif" font-size="11" lengthAdjust="spacingAndGlyphs" textLength="59" x="161" y="277.9268">-String email</text>
        <text fill="#000000" font-family="sans-serif" font-size="11" lengthAdjust="spacingAndGlyphs" textLength="50" x="161" y="291.7627">-String NIF</text>
        <text fill="#000000" font-family="sans-serif" font-size="11" lengthAdjust="spacingAndGlyphs" textLength="123" x="161" y="305.5986">-String bankAccountIBAN</text>
        <text fill="#000000" font-family="sans-serif" font-size="11" lengthAdjust="spacingAndGlyphs" textLength="75" x="161" y="319.4346">-String address</text>
        <text fill="#000000" font-family="sans-serif" font-size="11" lengthAdjust="spacingAndGlyphs" textLength="72" x="161" y="333.2705">-String country</text>
        <path d="M273.236,142.769 C324.31,166.664 403.323,203.632 454.227,227.447 " fill="none" style="stroke: #A80036; stroke-width: 1.0;"/>
        <text fill="#000000" font-family="sans-serif" font-size="13" lengthAdjust="spacingAndGlyphs" textLength="21" x="338" y="161.9951">has</text>
        <polygon fill="#000000" points="362,155.1758,368,158.1758,362,161.1758,362,155.1758" style="stroke: #000000; stroke-width: 1.0;"/>
        <text fill="#000000" font-family="sans-serif" font-size="13" lengthAdjust="spacingAndGlyphs" textLength="7" x="280.8629" y="160.7091">1</text>
        <text fill="#000000" font-family="sans-serif" font-size="13" lengthAdjust="spacingAndGlyphs" textLength="7" x="439.6652" y="238.8846">1</text>
        <path d="M273.236,119.5 C313.859,119.5 372.158,119.5 419.93,119.5 " fill="none" style="stroke: #A80036; stroke-width: 1.0;"/>
        <text fill="#000000" font-family="sans-serif" font-size="13" lengthAdjust="spacingAndGlyphs" textLength="55" x="321" y="115.9951">publishes</text>
        <polygon fill="#000000" points="379,109.1758,385,112.1758,379,115.1758,379,109.1758" style="stroke: #000000; stroke-width: 1.0;"/>
        <text fill="#000000" font-family="sans-serif" font-size="13" lengthAdjust="spacingAndGlyphs" textLength="7" x="280.8629" y="134.1679">1</text>
        <text fill="#000000" font-family="sans-serif" font-size="13" lengthAdjust="spacingAndGlyphs" textLength="5" x="406.9032" y="133.7405">*</text>
        <path d="M273.036,95.821 C311.977,78.58 368.128,56.704 420,47.5 C626.556,10.849 878.72,32.763 981.978,44.515 " fill="none" style="stroke: #A80036; stroke-width: 1.0;"/>
        <text fill="#000000" font-family="sans-serif" font-size="13" lengthAdjust="spacingAndGlyphs" textLength="21" x="625" y="22.9951">has</text>
        <polygon fill="#000000" points="649,16.1758,655,19.1758,649,22.1758,649,16.1758" style="stroke: #000000; stroke-width: 1.0;"/>
        <text fill="#000000" font-family="sans-serif" font-size="13" lengthAdjust="spacingAndGlyphs" textLength="7" x="280.9725" y="107.0632">1</text>
        <text fill="#000000" font-family="sans-serif" font-size="13" lengthAdjust="spacingAndGlyphs" textLength="5" x="968.8464" y="58.3593">*</text>
        <path d="M59.2464,201.49 C88.1081,186.905 135.595,162.909 171.758,144.635 " fill="none" style="stroke: #A80036; stroke-width: 1.0;"/>
        <text fill="#000000" font-family="sans-serif" font-size="13" lengthAdjust="spacingAndGlyphs" textLength="21" x="90" y="165.9951">has</text>
        <polygon fill="#000000" points="114,159.1758,120,162.1758,114,165.1758,114,159.1758" style="stroke: #000000; stroke-width: 1.0;"/>
        <text fill="#000000" font-family="sans-serif" font-size="13" lengthAdjust="spacingAndGlyphs" textLength="7" x="66.997" y="213.7463">1</text>
        <text fill="#000000" font-family="sans-serif" font-size="13" lengthAdjust="spacingAndGlyphs" textLength="5" x="158.9381" y="163.0467">*</text>
        <path d="M59.2464,221.347 C83.7839,227.873 121.784,237.98 154.842,246.7718 " fill="none" style="stroke: #A80036; stroke-width: 1.0;"/>
        <text fill="#000000" font-family="sans-serif" font-size="13" lengthAdjust="spacingAndGlyphs" textLength="21" x="90" y="224.9951">has</text>
        <polygon fill="#000000" points="114,218.1758,120,221.1758,114,224.1758,114,218.1758" style="stroke: #000000; stroke-width: 1.0;"/>
        <text fill="#000000" font-family="sans-serif" font-size="13" lengthAdjust="spacingAndGlyphs" textLength="7" x="66.997" y="238.6917">1</text>
        <text fill="#000000" font-family="sans-serif" font-size="13" lengthAdjust="spacingAndGlyphs" textLength="5" x="142.1685" y="259.2392">*</text>
        <path d="M554.622,228.008 C605.895,204.531 685.545,168.062 734.729,145.542 " fill="none" style="stroke: #A80036; stroke-width: 1.0;"/>
        <text fill="#000000" font-family="sans-serif" font-size="13" lengthAdjust="spacingAndGlyphs" textLength="31" x="620" y="176.9951">loads</text>
        <polygon fill="#000000" points="654,170.1758,660,173.1758,654,176.1758,654,170.1758" style="stroke: #000000; stroke-width: 1.0;"/>
        <text fill="#000000" font-family="sans-serif" font-size="13" lengthAdjust="spacingAndGlyphs" textLength="7" x="562.4977" y="239.4366">1</text>
        <text fill="#000000" font-family="sans-serif" font-size="13" lengthAdjust="spacingAndGlyphs" textLength="5" x="716.434" y="166.9734">*</text>
        <path d="M846.9,105.5 C889.4,92.699 943.544,76.39 981.805,64.866 " fill="none" style="stroke: #A80036; stroke-width: 1.0;"/>
        <text fill="#000000" font-family="sans-serif" font-size="13" lengthAdjust="spacingAndGlyphs" textLength="43" x="895" y="70.9951">records</text>
        <polygon fill="#000000" points="941,64.1758,947,67.1758,941,70.1758,941,64.1758" style="stroke: #000000; stroke-width: 1.0;"/>
        <text fill="#000000" font-family="sans-serif" font-size="13" lengthAdjust="spacingAndGlyphs" textLength="7" x="859.4694" y="94.474">1</text>
        <text fill="#000000" font-family="sans-serif" font-size="13" lengthAdjust="spacingAndGlyphs" textLength="5" x="968.9658" y="81.8128">*</text>
        <!--
@startuml MD

skinparam classAttributeIconSize 0
hide methods
left to right direction

class App {

}

class Organization {
        - String name
        - String NIF
}

class Transaction {

}

class Task {
        - String id
        - String description
        - Integer durationInHours
        - Double costPerHourOfJuniorEur
        - String category
}

class HistoricalTransactionFile {

}


class Collaborator {
        - String name
        - String email
        - String password
}

class Freelancer {
        - String id
        - String name
        - String levelOfExpertise
        - String email
        - String NIF
        - String bankAccountIBAN
        - String address
        - String country
}

Organization                 "1" - - "1"      Collaborator              : has >
Organization                 "1" - - "*"      Task                      : publishes >
Organization                 "1" - - "*"      Transaction               : has >
App                          "1" - - "*"      Organization              : has >
App                          "1" - - "*"      Freelancer                : has >
Collaborator                 "1" - - "*"      HistoricalTransactionFile : loads >
HistoricalTransactionFile    "1" - - "*"      Transaction               : records >

@enduml

PlantUML version 2017.11(Wed Apr 19 17:18:59 BST 2017)
(GPL source distribution)
Java Runtime: Java(TM) SE Runtime Environment
JVM: Java HotSpot(TM) 64-Bit Server VM
Java Version: 1.8.0_231-b11
Operating System: Windows 10
OS Version: 10.0
Default Encoding: UTF-8
Language: pt
Country: PT
-->
    </g>
</svg>
