<?xml version="1.0" encoding="UTF-8"?><svg xmlns="http://www.w3.org/2000/svg" xmlns:xlink="http://www.w3.org/1999/xlink" contentScriptType="application/ecmascript" contentStyleType="text/css" height="1653px" preserveAspectRatio="none" style="width:805px;height:1653px;" version="1.1" viewBox="0 0 805 1653" width="805px" zoomAndPan="magnify">
    <defs>
        <filter height="300%" id="fgfbebe2txecc" width="300%" x="-1" y="-1">
            <feGaussianBlur result="blurOut" stdDeviation="2.0"/>
            <feColorMatrix in="blurOut" result="blurOut2" type="matrix" values="0 0 0 0 0 0 0 0 0 0 0 0 0 0 0 0 0 0 .4 0"/>
            <feOffset dx="4.0" dy="4.0" in="blurOut2" result="blurOut3"/>
            <feBlend in="SourceGraphic" in2="blurOut3" mode="normal"/>
        </filter>
    </defs>
    <g>
        <!--class ManagerCollaboratorStatisticsUI-->
        <rect fill="#FEFECE" filter="url(#fgfbebe2txecc)" height="48" style="stroke: #A80036; stroke-width: 1.5;" width="210" x="419.5" y="8"/>
        <ellipse cx="434.5" cy="24" fill="#ADD1B2" rx="11" ry="11" style="stroke: #A80036; stroke-width: 1.0;"/>
        <path d="M437.2656,19.875 Q437.4219,19.6563 437.6094,19.5469 Q437.7969,19.4375 438.0156,19.4375 Q438.3906,19.4375 438.625,19.6953 Q438.8594,19.9531 438.8594,20.5625 L438.8594,22.0156 Q438.8594,22.625 438.625,22.8906 Q438.3906,23.1563 438.0156,23.1563 Q437.6719,23.1563 437.4688,22.9531 Q437.2656,22.7656 437.1563,22.25 Q437.1094,21.8906 436.9219,21.7031 Q436.5938,21.3281 435.9844,21.1094 Q435.375,20.8906 434.75,20.8906 Q433.9844,20.8906 433.3516,21.2188 Q432.7188,21.5469 432.2266,22.2969 Q431.7344,23.0469 431.7344,24.0781 L431.7344,25.1719 Q431.7344,26.4063 432.625,27.2266 Q433.5156,28.0469 435.1094,28.0469 Q436.0469,28.0469 436.7031,27.7969 Q437.0938,27.6406 437.5156,27.2031 Q437.7813,26.9375 437.9297,26.8594 Q438.0781,26.7813 438.2813,26.7813 Q438.6094,26.7813 438.8672,27.0391 Q439.125,27.2969 439.125,27.6406 Q439.125,27.9844 438.7813,28.3906 Q438.2813,28.9688 437.4844,29.2969 Q436.4063,29.75 435.1094,29.75 Q433.5938,29.75 432.3906,29.125 Q431.4063,28.625 430.7188,27.5547 Q430.0313,26.4844 430.0313,25.2031 L430.0313,24.0469 Q430.0313,22.7188 430.6484,21.5703 Q431.2656,20.4219 432.3594,19.8047 Q433.4531,19.1875 434.6875,19.1875 Q435.4219,19.1875 436.0703,19.3516 Q436.7188,19.5156 437.2656,19.875 Z "/>
        <text fill="#000000" font-family="sans-serif" font-size="12" lengthAdjust="spacingAndGlyphs" textLength="178" x="448.5" y="28.9102">ManagerCollaboratorStatisticsUI</text>
        <line style="stroke: #A80036; stroke-width: 1.5;" x1="420.5" x2="628.5" y1="40" y2="40"/>
        <line style="stroke: #A80036; stroke-width: 1.5;" x1="420.5" x2="628.5" y1="48" y2="48"/>
        <!--class ManagerCollaboratorStatisticsController-->
        <rect fill="#FEFECE" filter="url(#fgfbebe2txecc)" height="144.8516" style="stroke: #A80036; stroke-width: 1.5;" width="252" x="398.5" y="117"/>
        <ellipse cx="413.5" cy="133" fill="#ADD1B2" rx="11" ry="11" style="stroke: #A80036; stroke-width: 1.0;"/>
        <path d="M416.2656,128.875 Q416.4219,128.6563 416.6094,128.5469 Q416.7969,128.4375 417.0156,128.4375 Q417.3906,128.4375 417.625,128.6953 Q417.8594,128.9531 417.8594,129.5625 L417.8594,131.0156 Q417.8594,131.625 417.625,131.8906 Q417.3906,132.1563 417.0156,132.1563 Q416.6719,132.1563 416.4688,131.9531 Q416.2656,131.7656 416.1563,131.25 Q416.1094,130.8906 415.9219,130.7031 Q415.5938,130.3281 414.9844,130.1094 Q414.375,129.8906 413.75,129.8906 Q412.9844,129.8906 412.3516,130.2188 Q411.7188,130.5469 411.2266,131.2969 Q410.7344,132.0469 410.7344,133.0781 L410.7344,134.1719 Q410.7344,135.4063 411.625,136.2266 Q412.5156,137.0469 414.1094,137.0469 Q415.0469,137.0469 415.7031,136.7969 Q416.0938,136.6406 416.5156,136.2031 Q416.7813,135.9375 416.9297,135.8594 Q417.0781,135.7813 417.2813,135.7813 Q417.6094,135.7813 417.8672,136.0391 Q418.125,136.2969 418.125,136.6406 Q418.125,136.9844 417.7813,137.3906 Q417.2813,137.9688 416.4844,138.2969 Q415.4063,138.75 414.1094,138.75 Q412.5938,138.75 411.3906,138.125 Q410.4063,137.625 409.7188,136.5547 Q409.0313,135.4844 409.0313,134.2031 L409.0313,133.0469 Q409.0313,131.7188 409.6484,130.5703 Q410.2656,129.4219 411.3594,128.8047 Q412.4531,128.1875 413.6875,128.1875 Q414.4219,128.1875 415.0703,128.3516 Q415.7188,128.5156 416.2656,128.875 Z "/>
        <text fill="#000000" font-family="sans-serif" font-size="12" lengthAdjust="spacingAndGlyphs" textLength="220" x="427.5" y="137.9102">ManagerCollaboratorStatisticsController</text>
        <line style="stroke: #A80036; stroke-width: 1.5;" x1="399.5" x2="649.5" y1="149" y2="149"/>
        <line style="stroke: #A80036; stroke-width: 1.5;" x1="399.5" x2="649.5" y1="157" y2="157"/>
        <text fill="#000000" font-family="sans-serif" font-size="11" lengthAdjust="spacingAndGlyphs" textLength="98" x="404.5" y="172.4189">+setSortMethod(sm)</text>
        <text fill="#000000" font-family="sans-serif" font-size="11" lengthAdjust="spacingAndGlyphs" textLength="88" x="404.5" y="186.2549">+getMeanDelays()</text>
        <text fill="#000000" font-family="sans-serif" font-size="11" lengthAdjust="spacingAndGlyphs" textLength="102" x="404.5" y="200.0908">+getMeanPayments()</text>
        <text fill="#000000" font-family="sans-serif" font-size="11" lengthAdjust="spacingAndGlyphs" textLength="150" x="404.5" y="213.9268">+getStandardDeviationDelays()</text>
        <text fill="#000000" font-family="sans-serif" font-size="11" lengthAdjust="spacingAndGlyphs" textLength="164" x="404.5" y="227.7627">+getStandardDeviationPayments()</text>
        <text fill="#000000" font-family="sans-serif" font-size="11" lengthAdjust="spacingAndGlyphs" textLength="132" x="404.5" y="241.5986">+getHistogramDataDelays()</text>
        <text fill="#000000" font-family="sans-serif" font-size="11" lengthAdjust="spacingAndGlyphs" textLength="146" x="404.5" y="255.4346">+getHistogramDataPayments()</text>
        <!--class App-->
        <rect fill="#FEFECE" filter="url(#fgfbebe2txecc)" height="61.8359" style="stroke: #A80036; stroke-width: 1.5;" width="132" x="458.5" y="323"/>
        <ellipse cx="509.75" cy="339" fill="#ADD1B2" rx="11" ry="11" style="stroke: #A80036; stroke-width: 1.0;"/>
        <path d="M512.5156,334.875 Q512.6719,334.6563 512.8594,334.5469 Q513.0469,334.4375 513.2656,334.4375 Q513.6406,334.4375 513.875,334.6953 Q514.1094,334.9531 514.1094,335.5625 L514.1094,337.0156 Q514.1094,337.625 513.875,337.8906 Q513.6406,338.1563 513.2656,338.1563 Q512.9219,338.1563 512.7188,337.9531 Q512.5156,337.7656 512.4063,337.25 Q512.3594,336.8906 512.1719,336.7031 Q511.8438,336.3281 511.2344,336.1094 Q510.625,335.8906 510,335.8906 Q509.2344,335.8906 508.6016,336.2188 Q507.9688,336.5469 507.4766,337.2969 Q506.9844,338.0469 506.9844,339.0781 L506.9844,340.1719 Q506.9844,341.4063 507.875,342.2266 Q508.7656,343.0469 510.3594,343.0469 Q511.2969,343.0469 511.9531,342.7969 Q512.3438,342.6406 512.7656,342.2031 Q513.0313,341.9375 513.1797,341.8594 Q513.3281,341.7813 513.5313,341.7813 Q513.8594,341.7813 514.1172,342.0391 Q514.375,342.2969 514.375,342.6406 Q514.375,342.9844 514.0313,343.3906 Q513.5313,343.9688 512.7344,344.2969 Q511.6563,344.75 510.3594,344.75 Q508.8438,344.75 507.6406,344.125 Q506.6563,343.625 505.9688,342.5547 Q505.2813,341.4844 505.2813,340.2031 L505.2813,339.0469 Q505.2813,337.7188 505.8984,336.5703 Q506.5156,335.4219 507.6094,334.8047 Q508.7031,334.1875 509.9375,334.1875 Q510.6719,334.1875 511.3203,334.3516 Q511.9688,334.5156 512.5156,334.875 Z "/>
        <text fill="#000000" font-family="sans-serif" font-size="12" lengthAdjust="spacingAndGlyphs" textLength="21" x="530.25" y="343.9102">App</text>
        <line style="stroke: #A80036; stroke-width: 1.5;" x1="459.5" x2="589.5" y1="355" y2="355"/>
        <line style="stroke: #A80036; stroke-width: 1.5;" x1="459.5" x2="589.5" y1="363" y2="363"/>
        <text fill="#000000" font-family="sans-serif" font-size="11" lengthAdjust="spacingAndGlyphs" textLength="120" x="464.5" y="378.4189">+getRegistOrganization()</text>
        <!--class RegistOrganization-->
        <rect fill="#FEFECE" filter="url(#fgfbebe2txecc)" height="61.8359" style="stroke: #A80036; stroke-width: 1.5;" width="137" x="337" y="463"/>
        <ellipse cx="352" cy="479" fill="#ADD1B2" rx="11" ry="11" style="stroke: #A80036; stroke-width: 1.0;"/>
        <path d="M354.7656,474.875 Q354.9219,474.6563 355.1094,474.5469 Q355.2969,474.4375 355.5156,474.4375 Q355.8906,474.4375 356.125,474.6953 Q356.3594,474.9531 356.3594,475.5625 L356.3594,477.0156 Q356.3594,477.625 356.125,477.8906 Q355.8906,478.1563 355.5156,478.1563 Q355.1719,478.1563 354.9688,477.9531 Q354.7656,477.7656 354.6563,477.25 Q354.6094,476.8906 354.4219,476.7031 Q354.0938,476.3281 353.4844,476.1094 Q352.875,475.8906 352.25,475.8906 Q351.4844,475.8906 350.8516,476.2188 Q350.2188,476.5469 349.7266,477.2969 Q349.2344,478.0469 349.2344,479.0781 L349.2344,480.1719 Q349.2344,481.4063 350.125,482.2266 Q351.0156,483.0469 352.6094,483.0469 Q353.5469,483.0469 354.2031,482.7969 Q354.5938,482.6406 355.0156,482.2031 Q355.2813,481.9375 355.4297,481.8594 Q355.5781,481.7813 355.7813,481.7813 Q356.1094,481.7813 356.3672,482.0391 Q356.625,482.2969 356.625,482.6406 Q356.625,482.9844 356.2813,483.3906 Q355.7813,483.9688 354.9844,484.2969 Q353.9063,484.75 352.6094,484.75 Q351.0938,484.75 349.8906,484.125 Q348.9063,483.625 348.2188,482.5547 Q347.5313,481.4844 347.5313,480.2031 L347.5313,479.0469 Q347.5313,477.7188 348.1484,476.5703 Q348.7656,475.4219 349.8594,474.8047 Q350.9531,474.1875 352.1875,474.1875 Q352.9219,474.1875 353.5703,474.3516 Q354.2188,474.5156 354.7656,474.875 Z "/>
        <text fill="#000000" font-family="sans-serif" font-size="12" lengthAdjust="spacingAndGlyphs" textLength="105" x="366" y="483.9102">RegistOrganization</text>
        <line style="stroke: #A80036; stroke-width: 1.5;" x1="338" x2="473" y1="495" y2="495"/>
        <line style="stroke: #A80036; stroke-width: 1.5;" x1="338" x2="473" y1="503" y2="503"/>
        <text fill="#000000" font-family="sans-serif" font-size="11" lengthAdjust="spacingAndGlyphs" textLength="109" x="343" y="518.4189">+getOrganization (org)</text>
        <!--class Organization-->
        <rect fill="#FEFECE" filter="url(#fgfbebe2txecc)" height="89.5078" style="stroke: #A80036; stroke-width: 1.5;" width="115" x="227" y="603"/>
        <ellipse cx="248.3" cy="619" fill="#ADD1B2" rx="11" ry="11" style="stroke: #A80036; stroke-width: 1.0;"/>
        <path d="M251.0656,614.875 Q251.2219,614.6563 251.4094,614.5469 Q251.5969,614.4375 251.8156,614.4375 Q252.1906,614.4375 252.425,614.6953 Q252.6594,614.9531 252.6594,615.5625 L252.6594,617.0156 Q252.6594,617.625 252.425,617.8906 Q252.1906,618.1563 251.8156,618.1563 Q251.4719,618.1563 251.2688,617.9531 Q251.0656,617.7656 250.9563,617.25 Q250.9094,616.8906 250.7219,616.7031 Q250.3938,616.3281 249.7844,616.1094 Q249.175,615.8906 248.55,615.8906 Q247.7844,615.8906 247.1516,616.2188 Q246.5188,616.5469 246.0266,617.2969 Q245.5344,618.0469 245.5344,619.0781 L245.5344,620.1719 Q245.5344,621.4063 246.425,622.2266 Q247.3156,623.0469 248.9094,623.0469 Q249.8469,623.0469 250.5031,622.7969 Q250.8938,622.6406 251.3156,622.2031 Q251.5813,621.9375 251.7297,621.8594 Q251.8781,621.7813 252.0813,621.7813 Q252.4094,621.7813 252.6672,622.0391 Q252.925,622.2969 252.925,622.6406 Q252.925,622.9844 252.5813,623.3906 Q252.0813,623.9688 251.2844,624.2969 Q250.2063,624.75 248.9094,624.75 Q247.3938,624.75 246.1906,624.125 Q245.2063,623.625 244.5188,622.5547 Q243.8313,621.4844 243.8313,620.2031 L243.8313,619.0469 Q243.8313,617.7188 244.4484,616.5703 Q245.0656,615.4219 246.1594,614.8047 Q247.2531,614.1875 248.4875,614.1875 Q249.2219,614.1875 249.8703,614.3516 Q250.5188,614.5156 251.0656,614.875 Z "/>
        <text fill="#000000" font-family="sans-serif" font-size="12" lengthAdjust="spacingAndGlyphs" textLength="69" x="263.7" y="623.9102">Organization</text>
        <line style="stroke: #A80036; stroke-width: 1.5;" x1="228" x2="341" y1="635" y2="635"/>
        <text fill="#000000" font-family="sans-serif" font-size="11" lengthAdjust="spacingAndGlyphs" textLength="61" x="233" y="650.4189">-String nome</text>
        <text fill="#000000" font-family="sans-serif" font-size="11" lengthAdjust="spacingAndGlyphs" textLength="50" x="233" y="664.2549">-String NIF</text>
        <line style="stroke: #A80036; stroke-width: 1.5;" x1="228" x2="341" y1="670.6719" y2="670.6719"/>
        <text fill="#000000" font-family="sans-serif" font-size="11" lengthAdjust="spacingAndGlyphs" textLength="103" x="233" y="686.0908">+getListTransaction()</text>
        <!--class Collaborator-->
        <rect fill="#FEFECE" filter="url(#fgfbebe2txecc)" height="89.5078" style="stroke: #A80036; stroke-width: 1.5;" width="100" x="318.5" y="771"/>
        <ellipse cx="333.5" cy="787" fill="#ADD1B2" rx="11" ry="11" style="stroke: #A80036; stroke-width: 1.0;"/>
        <path d="M336.2656,782.875 Q336.4219,782.6563 336.6094,782.5469 Q336.7969,782.4375 337.0156,782.4375 Q337.3906,782.4375 337.625,782.6953 Q337.8594,782.9531 337.8594,783.5625 L337.8594,785.0156 Q337.8594,785.625 337.625,785.8906 Q337.3906,786.1563 337.0156,786.1563 Q336.6719,786.1563 336.4688,785.9531 Q336.2656,785.7656 336.1563,785.25 Q336.1094,784.8906 335.9219,784.7031 Q335.5938,784.3281 334.9844,784.1094 Q334.375,783.8906 333.75,783.8906 Q332.9844,783.8906 332.3516,784.2188 Q331.7188,784.5469 331.2266,785.2969 Q330.7344,786.0469 330.7344,787.0781 L330.7344,788.1719 Q330.7344,789.4063 331.625,790.2266 Q332.5156,791.0469 334.1094,791.0469 Q335.0469,791.0469 335.7031,790.7969 Q336.0938,790.6406 336.5156,790.2031 Q336.7813,789.9375 336.9297,789.8594 Q337.0781,789.7813 337.2813,789.7813 Q337.6094,789.7813 337.8672,790.0391 Q338.125,790.2969 338.125,790.6406 Q338.125,790.9844 337.7813,791.3906 Q337.2813,791.9688 336.4844,792.2969 Q335.4063,792.75 334.1094,792.75 Q332.5938,792.75 331.3906,792.125 Q330.4063,791.625 329.7188,790.5547 Q329.0313,789.4844 329.0313,788.2031 L329.0313,787.0469 Q329.0313,785.7188 329.6484,784.5703 Q330.2656,783.4219 331.3594,782.8047 Q332.4531,782.1875 333.6875,782.1875 Q334.4219,782.1875 335.0703,782.3516 Q335.7188,782.5156 336.2656,782.875 Z "/>
        <text fill="#000000" font-family="sans-serif" font-size="12" lengthAdjust="spacingAndGlyphs" textLength="68" x="347.5" y="791.9102">Collaborator</text>
        <line style="stroke: #A80036; stroke-width: 1.5;" x1="319.5" x2="417.5" y1="803" y2="803"/>
        <text fill="#000000" font-family="sans-serif" font-size="11" lengthAdjust="spacingAndGlyphs" textLength="61" x="324.5" y="818.4189">-String nome</text>
        <text fill="#000000" font-family="sans-serif" font-size="11" lengthAdjust="spacingAndGlyphs" textLength="59" x="324.5" y="832.2549">-String email</text>
        <text fill="#000000" font-family="sans-serif" font-size="11" lengthAdjust="spacingAndGlyphs" textLength="85" x="324.5" y="846.0908">-String password</text>
        <line style="stroke: #A80036; stroke-width: 1.5;" x1="319.5" x2="417.5" y1="852.5078" y2="852.5078"/>
        <!--class Manager-->
        <rect fill="#FEFECE" filter="url(#fgfbebe2txecc)" height="89.5078" style="stroke: #A80036; stroke-width: 1.5;" width="97" x="6" y="771"/>
        <ellipse cx="28.65" cy="787" fill="#ADD1B2" rx="11" ry="11" style="stroke: #A80036; stroke-width: 1.0;"/>
        <path d="M31.4156,782.875 Q31.5719,782.6563 31.7594,782.5469 Q31.9469,782.4375 32.1656,782.4375 Q32.5406,782.4375 32.775,782.6953 Q33.0094,782.9531 33.0094,783.5625 L33.0094,785.0156 Q33.0094,785.625 32.775,785.8906 Q32.5406,786.1563 32.1656,786.1563 Q31.8219,786.1563 31.6188,785.9531 Q31.4156,785.7656 31.3063,785.25 Q31.2594,784.8906 31.0719,784.7031 Q30.7438,784.3281 30.1344,784.1094 Q29.525,783.8906 28.9,783.8906 Q28.1344,783.8906 27.5016,784.2188 Q26.8688,784.5469 26.3766,785.2969 Q25.8844,786.0469 25.8844,787.0781 L25.8844,788.1719 Q25.8844,789.4063 26.775,790.2266 Q27.6656,791.0469 29.2594,791.0469 Q30.1969,791.0469 30.8531,790.7969 Q31.2438,790.6406 31.6656,790.2031 Q31.9313,789.9375 32.0797,789.8594 Q32.2281,789.7813 32.4313,789.7813 Q32.7594,789.7813 33.0172,790.0391 Q33.275,790.2969 33.275,790.6406 Q33.275,790.9844 32.9313,791.3906 Q32.4313,791.9688 31.6344,792.2969 Q30.5563,792.75 29.2594,792.75 Q27.7438,792.75 26.5406,792.125 Q25.5563,791.625 24.8688,790.5547 Q24.1813,789.4844 24.1813,788.2031 L24.1813,787.0469 Q24.1813,785.7188 24.7984,784.5703 Q25.4156,783.4219 26.5094,782.8047 Q27.6031,782.1875 28.8375,782.1875 Q29.5719,782.1875 30.2203,782.3516 Q30.8688,782.5156 31.4156,782.875 Z "/>
        <text fill="#000000" font-family="sans-serif" font-size="12" lengthAdjust="spacingAndGlyphs" textLength="48" x="44.35" y="791.9102">Manager</text>
        <line style="stroke: #A80036; stroke-width: 1.5;" x1="7" x2="102" y1="803" y2="803"/>
        <text fill="#000000" font-family="sans-serif" font-size="11" lengthAdjust="spacingAndGlyphs" textLength="61" x="12" y="818.4189">-String nome</text>
        <text fill="#000000" font-family="sans-serif" font-size="11" lengthAdjust="spacingAndGlyphs" textLength="59" x="12" y="832.2549">-String email</text>
        <text fill="#000000" font-family="sans-serif" font-size="11" lengthAdjust="spacingAndGlyphs" textLength="85" x="12" y="846.0908">-String password</text>
        <line style="stroke: #A80036; stroke-width: 1.5;" x1="7" x2="102" y1="852.5078" y2="852.5078"/>
        <!--class ListTransaction-->
        <rect fill="#FEFECE" filter="url(#fgfbebe2txecc)" height="75.6719" style="stroke: #A80036; stroke-width: 1.5;" width="298" x="453.5" y="778"/>
        <ellipse cx="555.75" cy="794" fill="#ADD1B2" rx="11" ry="11" style="stroke: #A80036; stroke-width: 1.0;"/>
        <path d="M558.5156,789.875 Q558.6719,789.6563 558.8594,789.5469 Q559.0469,789.4375 559.2656,789.4375 Q559.6406,789.4375 559.875,789.6953 Q560.1094,789.9531 560.1094,790.5625 L560.1094,792.0156 Q560.1094,792.625 559.875,792.8906 Q559.6406,793.1563 559.2656,793.1563 Q558.9219,793.1563 558.7188,792.9531 Q558.5156,792.7656 558.4063,792.25 Q558.3594,791.8906 558.1719,791.7031 Q557.8438,791.3281 557.2344,791.1094 Q556.625,790.8906 556,790.8906 Q555.2344,790.8906 554.6016,791.2188 Q553.9688,791.5469 553.4766,792.2969 Q552.9844,793.0469 552.9844,794.0781 L552.9844,795.1719 Q552.9844,796.4063 553.875,797.2266 Q554.7656,798.0469 556.3594,798.0469 Q557.2969,798.0469 557.9531,797.7969 Q558.3438,797.6406 558.7656,797.2031 Q559.0313,796.9375 559.1797,796.8594 Q559.3281,796.7813 559.5313,796.7813 Q559.8594,796.7813 560.1172,797.0391 Q560.375,797.2969 560.375,797.6406 Q560.375,797.9844 560.0313,798.3906 Q559.5313,798.9688 558.7344,799.2969 Q557.6563,799.75 556.3594,799.75 Q554.8438,799.75 553.6406,799.125 Q552.6563,798.625 551.9688,797.5547 Q551.2813,796.4844 551.2813,795.2031 L551.2813,794.0469 Q551.2813,792.7188 551.8984,791.5703 Q552.5156,790.4219 553.6094,789.8047 Q554.7031,789.1875 555.9375,789.1875 Q556.6719,789.1875 557.3203,789.3516 Q557.9688,789.5156 558.5156,789.875 Z "/>
        <text fill="#000000" font-family="sans-serif" font-size="12" lengthAdjust="spacingAndGlyphs" textLength="85" x="576.25" y="798.9102">ListTransaction</text>
        <line style="stroke: #A80036; stroke-width: 1.5;" x1="454.5" x2="750.5" y1="810" y2="810"/>
        <line style="stroke: #A80036; stroke-width: 1.5;" x1="454.5" x2="750.5" y1="818" y2="818"/>
        <text fill="#000000" font-family="sans-serif" font-size="11" lengthAdjust="spacingAndGlyphs" textLength="286" x="459.5" y="833.4189">+getTransactionsOfFreelancers(Set&lt;Freelancer&gt; selected)</text>
        <text fill="#000000" font-family="sans-serif" font-size="11" lengthAdjust="spacingAndGlyphs" textLength="38" x="459.5" y="847.2549">+get(ID)</text>
        <!--class Transaction-->
        <rect fill="#FEFECE" filter="url(#fgfbebe2txecc)" height="75.6719" style="stroke: #A80036; stroke-width: 1.5;" width="143" x="519" y="969"/>
        <ellipse cx="554.7" cy="985" fill="#ADD1B2" rx="11" ry="11" style="stroke: #A80036; stroke-width: 1.0;"/>
        <path d="M557.4656,980.875 Q557.6219,980.6563 557.8094,980.5469 Q557.9969,980.4375 558.2156,980.4375 Q558.5906,980.4375 558.825,980.6953 Q559.0594,980.9531 559.0594,981.5625 L559.0594,983.0156 Q559.0594,983.625 558.825,983.8906 Q558.5906,984.1563 558.2156,984.1563 Q557.8719,984.1563 557.6688,983.9531 Q557.4656,983.7656 557.3563,983.25 Q557.3094,982.8906 557.1219,982.7031 Q556.7938,982.3281 556.1844,982.1094 Q555.575,981.8906 554.95,981.8906 Q554.1844,981.8906 553.5516,982.2188 Q552.9188,982.5469 552.4266,983.2969 Q551.9344,984.0469 551.9344,985.0781 L551.9344,986.1719 Q551.9344,987.4063 552.825,988.2266 Q553.7156,989.0469 555.3094,989.0469 Q556.2469,989.0469 556.9031,988.7969 Q557.2938,988.6406 557.7156,988.2031 Q557.9813,987.9375 558.1297,987.8594 Q558.2781,987.7813 558.4813,987.7813 Q558.8094,987.7813 559.0672,988.0391 Q559.325,988.2969 559.325,988.6406 Q559.325,988.9844 558.9813,989.3906 Q558.4813,989.9688 557.6844,990.2969 Q556.6063,990.75 555.3094,990.75 Q553.7938,990.75 552.5906,990.125 Q551.6063,989.625 550.9188,988.5547 Q550.2313,987.4844 550.2313,986.2031 L550.2313,985.0469 Q550.2313,983.7188 550.8484,982.5703 Q551.4656,981.4219 552.5594,980.8047 Q553.6531,980.1875 554.8875,980.1875 Q555.6219,980.1875 556.2703,980.3516 Q556.9188,980.5156 557.4656,980.875 Z "/>
        <text fill="#000000" font-family="sans-serif" font-size="12" lengthAdjust="spacingAndGlyphs" textLength="65" x="573.3" y="989.9102">Transaction</text>
        <line style="stroke: #A80036; stroke-width: 1.5;" x1="520" x2="661" y1="1001" y2="1001"/>
        <line style="stroke: #A80036; stroke-width: 1.5;" x1="520" x2="661" y1="1009" y2="1009"/>
        <text fill="#000000" font-family="sans-serif" font-size="11" lengthAdjust="spacingAndGlyphs" textLength="131" x="525" y="1024.4189">+getTaskExecutionDetails()</text>
        <text fill="#000000" font-family="sans-serif" font-size="11" lengthAdjust="spacingAndGlyphs" textLength="66" x="525" y="1038.2549">+getAmount()</text>
        <!--class Task-->
        <rect fill="#FEFECE" filter="url(#fgfbebe2txecc)" height="117.1797" style="stroke: #A80036; stroke-width: 1.5;" width="169" x="294" y="1291"/>
        <ellipse cx="360.75" cy="1307" fill="#ADD1B2" rx="11" ry="11" style="stroke: #A80036; stroke-width: 1.0;"/>
        <path d="M363.5156,1302.875 Q363.6719,1302.6563 363.8594,1302.5469 Q364.0469,1302.4375 364.2656,1302.4375 Q364.6406,1302.4375 364.875,1302.6953 Q365.1094,1302.9531 365.1094,1303.5625 L365.1094,1305.0156 Q365.1094,1305.625 364.875,1305.8906 Q364.6406,1306.1563 364.2656,1306.1563 Q363.9219,1306.1563 363.7188,1305.9531 Q363.5156,1305.7656 363.4063,1305.25 Q363.3594,1304.8906 363.1719,1304.7031 Q362.8438,1304.3281 362.2344,1304.1094 Q361.625,1303.8906 361,1303.8906 Q360.2344,1303.8906 359.6016,1304.2188 Q358.9688,1304.5469 358.4766,1305.2969 Q357.9844,1306.0469 357.9844,1307.0781 L357.9844,1308.1719 Q357.9844,1309.4063 358.875,1310.2266 Q359.7656,1311.0469 361.3594,1311.0469 Q362.2969,1311.0469 362.9531,1310.7969 Q363.3438,1310.6406 363.7656,1310.2031 Q364.0313,1309.9375 364.1797,1309.8594 Q364.3281,1309.7813 364.5313,1309.7813 Q364.8594,1309.7813 365.1172,1310.0391 Q365.375,1310.2969 365.375,1310.6406 Q365.375,1310.9844 365.0313,1311.3906 Q364.5313,1311.9688 363.7344,1312.2969 Q362.6563,1312.75 361.3594,1312.75 Q359.8438,1312.75 358.6406,1312.125 Q357.6563,1311.625 356.9688,1310.5547 Q356.2813,1309.4844 356.2813,1308.2031 L356.2813,1307.0469 Q356.2813,1305.7188 356.8984,1304.5703 Q357.5156,1303.4219 358.6094,1302.8047 Q359.7031,1302.1875 360.9375,1302.1875 Q361.6719,1302.1875 362.3203,1302.3516 Q362.9688,1302.5156 363.5156,1302.875 Z "/>
        <text fill="#000000" font-family="sans-serif" font-size="12" lengthAdjust="spacingAndGlyphs" textLength="27" x="381.25" y="1311.9102">Task</text>
        <line style="stroke: #A80036; stroke-width: 1.5;" x1="295" x2="462" y1="1323" y2="1323"/>
        <text fill="#000000" font-family="sans-serif" font-size="11" lengthAdjust="spacingAndGlyphs" textLength="43" x="300" y="1338.4189">-String id</text>
        <text fill="#000000" font-family="sans-serif" font-size="11" lengthAdjust="spacingAndGlyphs" textLength="88" x="300" y="1352.2549">-String description</text>
        <text fill="#000000" font-family="sans-serif" font-size="11" lengthAdjust="spacingAndGlyphs" textLength="116" x="300" y="1366.0908">-Integer durationInHours</text>
        <text fill="#000000" font-family="sans-serif" font-size="11" lengthAdjust="spacingAndGlyphs" textLength="157" x="300" y="1379.9268">-Double costPerHourOfJuniorEur</text>
        <text fill="#000000" font-family="sans-serif" font-size="11" lengthAdjust="spacingAndGlyphs" textLength="78" x="300" y="1393.7627">-String category</text>
        <line style="stroke: #A80036; stroke-width: 1.5;" x1="295" x2="462" y1="1400.1797" y2="1400.1797"/>
        <!--class TaskExecutionDetails-->
        <rect fill="#FEFECE" filter="url(#fgfbebe2txecc)" height="89.5078" style="stroke: #A80036; stroke-width: 1.5;" width="171" x="215" y="1123"/>
        <ellipse cx="239" cy="1139" fill="#ADD1B2" rx="11" ry="11" style="stroke: #A80036; stroke-width: 1.0;"/>
        <path d="M241.7656,1134.875 Q241.9219,1134.6563 242.1094,1134.5469 Q242.2969,1134.4375 242.5156,1134.4375 Q242.8906,1134.4375 243.125,1134.6953 Q243.3594,1134.9531 243.3594,1135.5625 L243.3594,1137.0156 Q243.3594,1137.625 243.125,1137.8906 Q242.8906,1138.1563 242.5156,1138.1563 Q242.1719,1138.1563 241.9688,1137.9531 Q241.7656,1137.7656 241.6563,1137.25 Q241.6094,1136.8906 241.4219,1136.7031 Q241.0938,1136.3281 240.4844,1136.1094 Q239.875,1135.8906 239.25,1135.8906 Q238.4844,1135.8906 237.8516,1136.2188 Q237.2188,1136.5469 236.7266,1137.2969 Q236.2344,1138.0469 236.2344,1139.0781 L236.2344,1140.1719 Q236.2344,1141.4063 237.125,1142.2266 Q238.0156,1143.0469 239.6094,1143.0469 Q240.5469,1143.0469 241.2031,1142.7969 Q241.5938,1142.6406 242.0156,1142.2031 Q242.2813,1141.9375 242.4297,1141.8594 Q242.5781,1141.7813 242.7813,1141.7813 Q243.1094,1141.7813 243.3672,1142.0391 Q243.625,1142.2969 243.625,1142.6406 Q243.625,1142.9844 243.2813,1143.3906 Q242.7813,1143.9688 241.9844,1144.2969 Q240.9063,1144.75 239.6094,1144.75 Q238.0938,1144.75 236.8906,1144.125 Q235.9063,1143.625 235.2188,1142.5547 Q234.5313,1141.4844 234.5313,1140.2031 L234.5313,1139.0469 Q234.5313,1137.7188 235.1484,1136.5703 Q235.7656,1135.4219 236.8594,1134.8047 Q237.9531,1134.1875 239.1875,1134.1875 Q239.9219,1134.1875 240.5703,1134.3516 Q241.2188,1134.5156 241.7656,1134.875 Z "/>
        <text fill="#000000" font-family="sans-serif" font-size="12" lengthAdjust="spacingAndGlyphs" textLength="119" x="255" y="1143.9102">TaskExecutionDetails</text>
        <line style="stroke: #A80036; stroke-width: 1.5;" x1="216" x2="385" y1="1155" y2="1155"/>
        <text fill="#000000" font-family="sans-serif" font-size="11" lengthAdjust="spacingAndGlyphs" textLength="95" x="221" y="1170.4189">-LocalDate endDate</text>
        <text fill="#000000" font-family="sans-serif" font-size="11" lengthAdjust="spacingAndGlyphs" textLength="99" x="221" y="1184.2549">-Integer delayInDays</text>
        <text fill="#000000" font-family="sans-serif" font-size="11" lengthAdjust="spacingAndGlyphs" textLength="159" x="221" y="1198.0908">-String DescriptionQualityOfWork</text>
        <line style="stroke: #A80036; stroke-width: 1.5;" x1="216" x2="385" y1="1204.5078" y2="1204.5078"/>
        <!--class Freelancer-->
        <rect fill="#FEFECE" filter="url(#fgfbebe2txecc)" height="158.6875" style="stroke: #A80036; stroke-width: 1.5;" width="135" x="539" y="1486"/>
        <ellipse cx="573.8" cy="1502" fill="#ADD1B2" rx="11" ry="11" style="stroke: #A80036; stroke-width: 1.0;"/>
        <path d="M576.5656,1497.875 Q576.7219,1497.6563 576.9094,1497.5469 Q577.0969,1497.4375 577.3156,1497.4375 Q577.6906,1497.4375 577.925,1497.6953 Q578.1594,1497.9531 578.1594,1498.5625 L578.1594,1500.0156 Q578.1594,1500.625 577.925,1500.8906 Q577.6906,1501.1563 577.3156,1501.1563 Q576.9719,1501.1563 576.7688,1500.9531 Q576.5656,1500.7656 576.4563,1500.25 Q576.4094,1499.8906 576.2219,1499.7031 Q575.8938,1499.3281 575.2844,1499.1094 Q574.675,1498.8906 574.05,1498.8906 Q573.2844,1498.8906 572.6516,1499.2188 Q572.0188,1499.5469 571.5266,1500.2969 Q571.0344,1501.0469 571.0344,1502.0781 L571.0344,1503.1719 Q571.0344,1504.4063 571.925,1505.2266 Q572.8156,1506.0469 574.4094,1506.0469 Q575.3469,1506.0469 576.0031,1505.7969 Q576.3938,1505.6406 576.8156,1505.2031 Q577.0813,1504.9375 577.2297,1504.8594 Q577.3781,1504.7813 577.5813,1504.7813 Q577.9094,1504.7813 578.1672,1505.0391 Q578.425,1505.2969 578.425,1505.6406 Q578.425,1505.9844 578.0813,1506.3906 Q577.5813,1506.9688 576.7844,1507.2969 Q575.7063,1507.75 574.4094,1507.75 Q572.8938,1507.75 571.6906,1507.125 Q570.7063,1506.625 570.0188,1505.5547 Q569.3313,1504.4844 569.3313,1503.2031 L569.3313,1502.0469 Q569.3313,1500.7188 569.9484,1499.5703 Q570.5656,1498.4219 571.6594,1497.8047 Q572.7531,1497.1875 573.9875,1497.1875 Q574.7219,1497.1875 575.3703,1497.3516 Q576.0188,1497.5156 576.5656,1497.875 Z "/>
        <text fill="#000000" font-family="sans-serif" font-size="12" lengthAdjust="spacingAndGlyphs" textLength="59" x="592.2" y="1506.9102">Freelancer</text>
        <line style="stroke: #A80036; stroke-width: 1.5;" x1="540" x2="673" y1="1518" y2="1518"/>
        <text fill="#000000" font-family="sans-serif" font-size="11" lengthAdjust="spacingAndGlyphs" textLength="43" x="545" y="1533.4189">-String id</text>
        <text fill="#000000" font-family="sans-serif" font-size="11" lengthAdjust="spacingAndGlyphs" textLength="61" x="545" y="1547.2549">-String name</text>
        <text fill="#000000" font-family="sans-serif" font-size="11" lengthAdjust="spacingAndGlyphs" textLength="114" x="545" y="1561.0908">-String levelOfExpertise</text>
        <text fill="#000000" font-family="sans-serif" font-size="11" lengthAdjust="spacingAndGlyphs" textLength="59" x="545" y="1574.9268">-String email</text>
        <text fill="#000000" font-family="sans-serif" font-size="11" lengthAdjust="spacingAndGlyphs" textLength="50" x="545" y="1588.7627">-String NIF</text>
        <text fill="#000000" font-family="sans-serif" font-size="11" lengthAdjust="spacingAndGlyphs" textLength="123" x="545" y="1602.5986">-String bankAccountIBAN</text>
        <text fill="#000000" font-family="sans-serif" font-size="11" lengthAdjust="spacingAndGlyphs" textLength="75" x="545" y="1616.4346">-String address</text>
        <text fill="#000000" font-family="sans-serif" font-size="11" lengthAdjust="spacingAndGlyphs" textLength="72" x="545" y="1630.2705">-String country</text>
        <line style="stroke: #A80036; stroke-width: 1.5;" x1="540" x2="673" y1="1636.6875" y2="1636.6875"/>
        <!--class PaymentDetails-->
        <rect fill="#FEFECE" filter="url(#fgfbebe2txecc)" height="61.8359" style="stroke: #A80036; stroke-width: 1.5;" width="119" x="531" y="1137"/>
        <ellipse cx="546" cy="1153" fill="#ADD1B2" rx="11" ry="11" style="stroke: #A80036; stroke-width: 1.0;"/>
        <path d="M548.7656,1148.875 Q548.9219,1148.6563 549.1094,1148.5469 Q549.2969,1148.4375 549.5156,1148.4375 Q549.8906,1148.4375 550.125,1148.6953 Q550.3594,1148.9531 550.3594,1149.5625 L550.3594,1151.0156 Q550.3594,1151.625 550.125,1151.8906 Q549.8906,1152.1563 549.5156,1152.1563 Q549.1719,1152.1563 548.9688,1151.9531 Q548.7656,1151.7656 548.6563,1151.25 Q548.6094,1150.8906 548.4219,1150.7031 Q548.0938,1150.3281 547.4844,1150.1094 Q546.875,1149.8906 546.25,1149.8906 Q545.4844,1149.8906 544.8516,1150.2188 Q544.2188,1150.5469 543.7266,1151.2969 Q543.2344,1152.0469 543.2344,1153.0781 L543.2344,1154.1719 Q543.2344,1155.4063 544.125,1156.2266 Q545.0156,1157.0469 546.6094,1157.0469 Q547.5469,1157.0469 548.2031,1156.7969 Q548.5938,1156.6406 549.0156,1156.2031 Q549.2813,1155.9375 549.4297,1155.8594 Q549.5781,1155.7813 549.7813,1155.7813 Q550.1094,1155.7813 550.3672,1156.0391 Q550.625,1156.2969 550.625,1156.6406 Q550.625,1156.9844 550.2813,1157.3906 Q549.7813,1157.9688 548.9844,1158.2969 Q547.9063,1158.75 546.6094,1158.75 Q545.0938,1158.75 543.8906,1158.125 Q542.9063,1157.625 542.2188,1156.5547 Q541.5313,1155.4844 541.5313,1154.2031 L541.5313,1153.0469 Q541.5313,1151.7188 542.1484,1150.5703 Q542.7656,1149.4219 543.8594,1148.8047 Q544.9531,1148.1875 546.1875,1148.1875 Q546.9219,1148.1875 547.5703,1148.3516 Q548.2188,1148.5156 548.7656,1148.875 Z "/>
        <text fill="#000000" font-family="sans-serif" font-size="12" lengthAdjust="spacingAndGlyphs" textLength="87" x="560" y="1157.9102">PaymentDetails</text>
        <line style="stroke: #A80036; stroke-width: 1.5;" x1="532" x2="649" y1="1169" y2="1169"/>
        <text fill="#000000" font-family="sans-serif" font-size="11" lengthAdjust="spacingAndGlyphs" textLength="70" x="537" y="1184.4189">Boolean isPaid</text>
        <line style="stroke: #A80036; stroke-width: 1.5;" x1="532" x2="649" y1="1190.8359" y2="1190.8359"/>
        <!--class ListTask-->
        <rect fill="#FEFECE" filter="url(#fgfbebe2txecc)" height="48" style="stroke: #A80036; stroke-width: 1.5;" width="79" x="119" y="891"/>
        <ellipse cx="134" cy="907" fill="#ADD1B2" rx="11" ry="11" style="stroke: #A80036; stroke-width: 1.0;"/>
        <path d="M136.7656,902.875 Q136.9219,902.6563 137.1094,902.5469 Q137.2969,902.4375 137.5156,902.4375 Q137.8906,902.4375 138.125,902.6953 Q138.3594,902.9531 138.3594,903.5625 L138.3594,905.0156 Q138.3594,905.625 138.125,905.8906 Q137.8906,906.1563 137.5156,906.1563 Q137.1719,906.1563 136.9688,905.9531 Q136.7656,905.7656 136.6563,905.25 Q136.6094,904.8906 136.4219,904.7031 Q136.0938,904.3281 135.4844,904.1094 Q134.875,903.8906 134.25,903.8906 Q133.4844,903.8906 132.8516,904.2188 Q132.2188,904.5469 131.7266,905.2969 Q131.2344,906.0469 131.2344,907.0781 L131.2344,908.1719 Q131.2344,909.4063 132.125,910.2266 Q133.0156,911.0469 134.6094,911.0469 Q135.5469,911.0469 136.2031,910.7969 Q136.5938,910.6406 137.0156,910.2031 Q137.2813,909.9375 137.4297,909.8594 Q137.5781,909.7813 137.7813,909.7813 Q138.1094,909.7813 138.3672,910.0391 Q138.625,910.2969 138.625,910.6406 Q138.625,910.9844 138.2813,911.3906 Q137.7813,911.9688 136.9844,912.2969 Q135.9063,912.75 134.6094,912.75 Q133.0938,912.75 131.8906,912.125 Q130.9063,911.625 130.2188,910.5547 Q129.5313,909.4844 129.5313,908.2031 L129.5313,907.0469 Q129.5313,905.7188 130.1484,904.5703 Q130.7656,903.4219 131.8594,902.8047 Q132.9531,902.1875 134.1875,902.1875 Q134.9219,902.1875 135.5703,902.3516 Q136.2188,902.5156 136.7656,902.875 Z "/>
        <text fill="#000000" font-family="sans-serif" font-size="12" lengthAdjust="spacingAndGlyphs" textLength="47" x="148" y="911.9102">ListTask</text>
        <line style="stroke: #A80036; stroke-width: 1.5;" x1="120" x2="197" y1="923" y2="923"/>
        <line style="stroke: #A80036; stroke-width: 1.5;" x1="120" x2="197" y1="931" y2="931"/>
        <path d="M524.5,262.25 C524.5,281.34 524.5,301.15 524.5,317.37 " fill="none" style="stroke: #A80036; stroke-width: 1.0; stroke-dasharray: 7.0,7.0;"/>
        <polygon fill="#A80036" points="524.5,322.73,528.5,313.73,524.5,317.73,520.5,313.73,524.5,322.73" style="stroke: #A80036; stroke-width: 1.0;"/>
        <path d="M472.431,262.23 C460.493,281.26 448.868,302.29 440.5,323 C422.476,367.6 413.321,422.69 408.982,457.84 " fill="none" style="stroke: #A80036; stroke-width: 1.0; stroke-dasharray: 7.0,7.0;"/>
        <polygon fill="#A80036" points="408.377,462.87,413.428,454.415,408.977,457.9061,405.4858,453.4551,408.377,462.87" style="stroke: #A80036; stroke-width: 1.0;"/>
        <path d="M650.575,213.52 C724.894,235.18 804.5,276.28 804.5,353 C804.5,353 804.5,353 804.5,817 C804.5,892.725 728.29,945.378 666.828,975.528 " fill="none" style="stroke: #A80036; stroke-width: 1.0; stroke-dasharray: 7.0,7.0;"/>
        <polygon fill="#A80036" points="662.056,977.839,671.8996,977.5175,666.5563,975.6603,668.4136,970.317,662.056,977.839" style="stroke: #A80036; stroke-width: 1.0;"/>
        <path d="M524.5,56.28 C524.5,71.2 524.5,91.49 524.5,111.7 " fill="none" style="stroke: #A80036; stroke-width: 1.0; stroke-dasharray: 7.0,7.0;"/>
        <polygon fill="#A80036" points="524.5,116.83,528.5257,107.8415,524.5143,111.83,520.5257,107.8186,524.5,116.83" style="stroke: #A80036; stroke-width: 1.0;"/>
        <path d="M306.79,693.049 C318.941,717.062 333.939,746.7 346.106,770.745 " fill="none" style="stroke: #A80036; stroke-width: 1.0;"/>
        <text fill="#000000" font-family="sans-serif" font-size="13" lengthAdjust="spacingAndGlyphs" textLength="21" x="330.5" y="737.4951">has</text>
        <polygon fill="#000000" points="336.5,746.3516,339.5,752.3516,342.5,746.3516,336.5,746.3516" style="stroke: #000000; stroke-width: 1.0;"/>
        <text fill="#000000" font-family="sans-serif" font-size="13" lengthAdjust="spacingAndGlyphs" textLength="7" x="302.4323" y="714.0635">1</text>
        <text fill="#000000" font-family="sans-serif" font-size="13" lengthAdjust="spacingAndGlyphs" textLength="23" x="317.916" y="760.15">1,...</text>
        <path d="M226.724,654.814 C179.972,662.585 115.813,680.721 77.5,723 C65.7814,735.932 59.8239,753.928 56.8658,770.577 " fill="none" style="stroke: #A80036; stroke-width: 1.0;"/>
        <polygon fill="#000000" points="85.5,730.6758,79.5,733.6758,85.5,736.6758,85.5,730.6758" style="stroke: #000000; stroke-width: 1.0;"/>
        <text fill="#000000" font-family="sans-serif" font-size="13" lengthAdjust="spacingAndGlyphs" textLength="21" x="91.5" y="737.4951">has</text>
        <text fill="#000000" font-family="sans-serif" font-size="13" lengthAdjust="spacingAndGlyphs" textLength="7" x="211.873" y="652.2067">1</text>
        <text fill="#000000" font-family="sans-serif" font-size="13" lengthAdjust="spacingAndGlyphs" textLength="7" x="49.6992" y="760.2876">1</text>
        <path d="M545.245,1045.239 C521.85,1066.235 494.162,1094.018 474.5,1123 C440.088,1173.722 414.007,1238.763 397.777,1285.947 " fill="none" style="stroke: #A80036; stroke-width: 1.0;"/>
        <polygon fill="#A80036" points="396.139,1290.744,402.8322,1283.5189,397.7544,1286.0121,395.2612,1280.9343,396.139,1290.744" style="stroke: #A80036; stroke-width: 1.0;"/>
        <text fill="#000000" font-family="sans-serif" font-size="13" lengthAdjust="spacingAndGlyphs" textLength="37" x="475.5" y="1173.4951">knows</text>
        <text fill="#000000" font-family="sans-serif" font-size="13" lengthAdjust="spacingAndGlyphs" textLength="7" x="530.4747" y="1066.1576">1</text>
        <text fill="#000000" font-family="sans-serif" font-size="13" lengthAdjust="spacingAndGlyphs" textLength="7" x="390.8622" y="1280.1137">1</text>
        <path d="M623.694,1045.201 C640.353,1066.396 658.803,1094.378 667.5,1123 C704.354,1244.283 669.062,1391.136 638.867,1481.168 " fill="none" style="stroke: #A80036; stroke-width: 1.0;"/>
        <polygon fill="#A80036" points="637.252,1485.946,643.9243,1478.7016,638.8537,1481.2095,636.3458,1476.1389,637.252,1485.946" style="stroke: #A80036; stroke-width: 1.0;"/>
        <text fill="#000000" font-family="sans-serif" font-size="13" lengthAdjust="spacingAndGlyphs" textLength="37" x="684.5" y="1257.4951">knows</text>
        <text fill="#000000" font-family="sans-serif" font-size="13" lengthAdjust="spacingAndGlyphs" textLength="5" x="623.5859" y="1066.1136">*</text>
        <text fill="#000000" font-family="sans-serif" font-size="13" lengthAdjust="spacingAndGlyphs" textLength="7" x="632.8495" y="1475.1278">1</text>
        <path d="M518.795,997.145 C440.362,983.207 318.267,948.055 261.5,861 C229.795,812.379 245.553,743.794 262.528,697.936 " fill="none" style="stroke: #A80036; stroke-width: 1.0;"/>
        <polygon fill="#A80036" points="264.387,693.016,257.4642,700.0214,262.6198,697.6933,264.9479,702.8489,264.387,693.016" style="stroke: #A80036; stroke-width: 1.0;"/>
        <text fill="#000000" font-family="sans-serif" font-size="13" lengthAdjust="spacingAndGlyphs" textLength="37" x="262.5" y="821.4951">knows</text>
        <text fill="#000000" font-family="sans-serif" font-size="13" lengthAdjust="spacingAndGlyphs" textLength="5" x="506.1426" y="992.8339">*</text>
        <text fill="#000000" font-family="sans-serif" font-size="13" lengthAdjust="spacingAndGlyphs" textLength="7" x="254.0664" y="714.0258">1</text>
        <path d="M518.76,1027.665 C483.858,1038.851 442.081,1054.712 407.5,1075 C386.676,1087.217 366.029,1103.661 348.508,1119.267 " fill="none" style="stroke: #A80036; stroke-width: 1.0;"/>
        <polygon fill="#A80036" points="344.587,1122.792,353.9543,1119.7499,348.3054,1119.4493,348.6059,1113.8004,344.587,1122.792" style="stroke: #A80036; stroke-width: 1.0;"/>
        <text fill="#000000" font-family="sans-serif" font-size="13" lengthAdjust="spacingAndGlyphs" textLength="21" x="408.5" y="1089.4951">has</text>
        <text fill="#000000" font-family="sans-serif" font-size="13" lengthAdjust="spacingAndGlyphs" textLength="7" x="504.0009" y="1026.5012">1</text>
        <text fill="#000000" font-family="sans-serif" font-size="13" lengthAdjust="spacingAndGlyphs" textLength="7" x="343.8019" y="1112.2042">1</text>
        <path d="M319.781,1213.371 C329.297,1235.27 340.939,1262.061 351.339,1285.996 " fill="none" style="stroke: #A80036; stroke-width: 1.0;"/>
        <polygon fill="#A80036" points="353.402,1290.742,353.4834,1280.8935,351.4092,1286.1563,346.1463,1284.082,353.402,1290.742" style="stroke: #A80036; stroke-width: 1.0;"/>
        <text fill="#000000" font-family="sans-serif" font-size="13" lengthAdjust="spacingAndGlyphs" textLength="37" x="340.5" y="1257.4951">knows</text>
        <text fill="#000000" font-family="sans-serif" font-size="13" lengthAdjust="spacingAndGlyphs" textLength="7" x="314.9016" y="1234.0945">1</text>
        <text fill="#000000" font-family="sans-serif" font-size="13" lengthAdjust="spacingAndGlyphs" textLength="7" x="342.9166" y="1280.1115">1</text>
        <path d="M226.828,687.012 C214.861,697.371 203.481,709.51 195.5,723 C164.967,774.607 158.988,846.491 158.192,885.71 " fill="none" style="stroke: #A80036; stroke-width: 1.0;"/>
        <polygon fill="#A80036" points="158.114,890.791,162.2499,881.8526,158.1897,885.7916,154.2508,881.7315,158.114,890.791" style="stroke: #A80036; stroke-width: 1.0;"/>
        <text fill="#000000" font-family="sans-serif" font-size="13" lengthAdjust="spacingAndGlyphs" textLength="21" x="196.5" y="737.4951">has</text>
        <text fill="#000000" font-family="sans-serif" font-size="13" lengthAdjust="spacingAndGlyphs" textLength="7" x="211.9903" y="688.5346">1</text>
        <text fill="#000000" font-family="sans-serif" font-size="13" lengthAdjust="spacingAndGlyphs" textLength="7" x="150.1182" y="880.0776">1</text>
        <path d="M155.78,939.135 C150.746,991.795 144.844,1123.002 197.5,1213 C219.032,1249.802 254.878,1279.769 289.015,1302.074 " fill="none" style="stroke: #A80036; stroke-width: 1.0;"/>
        <polygon fill="#A80036" points="293.602,1305.032,288.2057,1296.7931,289.3998,1302.3224,283.8704,1303.5165,293.602,1305.032" style="stroke: #A80036; stroke-width: 1.0;"/>
        <text fill="#000000" font-family="sans-serif" font-size="13" lengthAdjust="spacingAndGlyphs" textLength="21" x="159.5" y="1089.4951">has</text>
        <text fill="#000000" font-family="sans-serif" font-size="13" lengthAdjust="spacingAndGlyphs" textLength="7" x="147.2639" y="960.5059">1</text>
        <text fill="#000000" font-family="sans-serif" font-size="13" lengthAdjust="spacingAndGlyphs" textLength="5" x="281.0912" y="1298.0255">*</text>
        <path d="M342.087,679.061 C393.792,706.052 470.051,745.86 526.697,775.43 " fill="none" style="stroke: #A80036; stroke-width: 1.0;"/>
        <polygon fill="#A80036" points="531.427,777.899,525.2991,770.1887,526.9944,775.5855,521.5976,777.2808,531.427,777.899" style="stroke: #A80036; stroke-width: 1.0;"/>
        <text fill="#000000" font-family="sans-serif" font-size="13" lengthAdjust="spacingAndGlyphs" textLength="21" x="454.5" y="737.4951">has</text>
        <text fill="#000000" font-family="sans-serif" font-size="13" lengthAdjust="spacingAndGlyphs" textLength="7" x="349.9138" y="679.5649">1</text>
        <text fill="#000000" font-family="sans-serif" font-size="13" lengthAdjust="spacingAndGlyphs" textLength="7" x="511.1437" y="767.2429">1</text>
        <path d="M600.129,854.34 C598.132,885.792 595.276,930.775 593.193,963.581 " fill="none" style="stroke: #A80036; stroke-width: 1.0;"/>
        <polygon fill="#A80036" points="592.866,968.737,597.4288,960.0088,593.1831,963.7471,589.4449,959.5014,592.866,968.737" style="stroke: #A80036; stroke-width: 1.0;"/>
        <text fill="#000000" font-family="sans-serif" font-size="13" lengthAdjust="spacingAndGlyphs" textLength="21" x="599.5" y="920.4951">has</text>
        <text fill="#000000" font-family="sans-serif" font-size="13" lengthAdjust="spacingAndGlyphs" textLength="7" x="592.1933" y="875.2747">1</text>
        <text fill="#000000" font-family="sans-serif" font-size="13" lengthAdjust="spacingAndGlyphs" textLength="5" x="587.8421" y="958.0521">*</text>
        <path d="M439.9,1408.13 C469.304,1435.728 504.688,1468.94 535.27,1497.643 " fill="none" style="stroke: #A80036; stroke-width: 1.0;"/>
        <polygon fill="#A80036" points="538.975,1501.121,535.1515,1492.0446,535.3298,1497.6986,529.6758,1497.8769,538.975,1501.121" style="stroke: #A80036; stroke-width: 1.0;"/>
        <text fill="#000000" font-family="sans-serif" font-size="13" lengthAdjust="spacingAndGlyphs" textLength="37" x="487.5" y="1452.4951">knows</text>
        <text fill="#000000" font-family="sans-serif" font-size="13" lengthAdjust="spacingAndGlyphs" textLength="5" x="442.0784" y="1429.7561">*</text>
        <text fill="#000000" font-family="sans-serif" font-size="13" lengthAdjust="spacingAndGlyphs" textLength="22" x="508.8771" y="1491.1863">0, 1</text>
        <path d="M498.385,385.28 C479.629,407.04 454.329,436.37 434.87,458.94 " fill="none" style="stroke: #A80036; stroke-width: 1.0;"/>
        <polygon fill="#A80036" points="431.554,462.79,440.4552,458.5748,434.8143,458.9992,434.3899,453.3583,431.554,462.79" style="stroke: #A80036; stroke-width: 1.0;"/>
        <text fill="#000000" font-family="sans-serif" font-size="13" lengthAdjust="spacingAndGlyphs" textLength="21" x="473.5" y="429.4951">has</text>
        <text fill="#000000" font-family="sans-serif" font-size="13" lengthAdjust="spacingAndGlyphs" textLength="7" x="485.7396" y="406.312">1</text>
        <text fill="#000000" font-family="sans-serif" font-size="13" lengthAdjust="spacingAndGlyphs" textLength="7" x="429.2058" y="452.2512">1</text>
        <path d="M381.594,525.03 C364.862,546.05 342.148,574.58 322.896,598.77 " fill="none" style="stroke: #A80036; stroke-width: 1.0;"/>
        <polygon fill="#A80036" points="319.591,602.92,328.3262,598.3707,322.7054,599.0084,322.0677,593.3876,319.591,602.92" style="stroke: #A80036; stroke-width: 1.0;"/>
        <text fill="#000000" font-family="sans-serif" font-size="13" lengthAdjust="spacingAndGlyphs" textLength="21" x="357.5" y="569.4951">has</text>
        <text fill="#000000" font-family="sans-serif" font-size="13" lengthAdjust="spacingAndGlyphs" textLength="7" x="369.1984" y="546.2599">1</text>
        <text fill="#000000" font-family="sans-serif" font-size="13" lengthAdjust="spacingAndGlyphs" textLength="5" x="319.7852" y="592.0227">*</text>
        <path d="M590.5,1045.278 C590.5,1071.438 590.5,1106.19 590.5,1131.863 " fill="none" style="stroke: #A80036; stroke-width: 1.0;"/>
        <polygon fill="#A80036" points="590.5,1136.871,594.5,1127.871,590.5,1131.871,586.5,1127.871,590.5,1136.871" style="stroke: #A80036; stroke-width: 1.0;"/>
        <text fill="#000000" font-family="sans-serif" font-size="13" lengthAdjust="spacingAndGlyphs" textLength="21" x="591.5" y="1089.4951">has</text>
        <text fill="#000000" font-family="sans-serif" font-size="13" lengthAdjust="spacingAndGlyphs" textLength="7" x="582.9422" y="1066.2028">1</text>
        <text fill="#000000" font-family="sans-serif" font-size="13" lengthAdjust="spacingAndGlyphs" textLength="7" x="582.7781" y="1126.3489">1</text>
        <!--
@startuml CD
skinparam classAttributeIconSize 0
top to bottom direction

class ManagerCollaboratorStatisticsUI {

}

class ManagerCollaboratorStatisticsController {
        + setSortMethod(sm)
        + getMeanDelays()
        + getMeanPayments()
        + getStandardDeviationDelays()
        + getStandardDeviationPayments()
        + getHistogramDataDelays()
        + getHistogramDataPayments()
}


class App {
        + getRegistOrganization()
}

class RegistOrganization {
        + getOrganization (org)
}

class Organization {
        - String nome
        - String NIF
        + getListTransaction()
}

class Collaborator {
        - String nome
        - String email
        - String password
}

class Manager {
        - String nome
        - String email
        - String password
}

class ListTransaction {
        + getTransactionsOfFreelancers(Set<Freelancer> selected)
        + get(ID)
}

class Transaction {
        + getTaskExecutionDetails()
        + getAmount()
}


class Task {
        - String id
        - String description
        - Integer durationInHours
        - Double costPerHourOfJuniorEur
        - String category
}

class TaskExecutionDetails {
        - LocalDate endDate
        - Integer delayInDays
        - String DescriptionQualityOfWork
}

class Freelancer {
        - String id
        - String name
        - String levelOfExpertise
        - String email
        - String NIF
        - String bankAccountIBAN
        - String address
        - String country
}

class PaymentDetails {
        Boolean isPaid
}

ManagerCollaboratorStatisticsController ..> App
ManagerCollaboratorStatisticsController ..> RegistOrganization
ManagerCollaboratorStatisticsController ..> Transaction
ManagerCollaboratorStatisticsUI ..> ManagerCollaboratorStatisticsController
Organization                 "1" - - "1,..."   Collaborator              : has >
Organization                 "1" - - "1"       Manager                   : has >
Transaction                  "1" - -> "1"      Task                      : knows
Transaction                  "*" - -> "1"      Freelancer                : knows
Transaction                  "*" - -> "1"      Organization              : knows
Transaction                  "1" - -> "1"      TaskExecutionDetails      : has
TaskExecutionDetails         "1" - -> "1"      Task                      : knows
Organization                 "1" - -> "1"      ListTask                  : has
ListTask                     "1" - -> "*"      Task                      : has
Organization                 "1" - -> "1"      ListTransaction           : has
ListTransaction              "1" - -> "*"      Transaction               : has
Task                         "*" - -> "0, 1"   Freelancer                : knows
App                          "1" - -> "1"      RegistOrganization        : has
RegistOrganization           "1" - -> "*"      Organization              : has
Transaction                  "1" - -> "1"      PaymentDetails            : has

@enduml

PlantUML version 2017.11(Wed Apr 19 17:18:59 BST 2017)
(GPL source distribution)
Java Runtime: Java(TM) SE Runtime Environment
JVM: Java HotSpot(TM) 64-Bit Server VM
Java Version: 1.8.0_231-b11
Operating System: Windows 10
OS Version: 10.0
Default Encoding: UTF-8
Language: pt
Country: PT
-->
    </g>
</svg>
