<?xml version="1.0" encoding="UTF-8"?><svg xmlns="http://www.w3.org/2000/svg" xmlns:xlink="http://www.w3.org/1999/xlink" contentScriptType="application/ecmascript" contentStyleType="text/css" height="1695px" preserveAspectRatio="none" style="width:819px;height:1695px;" version="1.1" viewBox="0 0 819 1695" width="819px" zoomAndPan="magnify">
    <defs>
        <filter height="300%" id="fsf4nv8v80p45" width="300%" x="-1" y="-1">
            <feGaussianBlur result="blurOut" stdDeviation="2.0"/>
            <feColorMatrix in="blurOut" result="blurOut2" type="matrix" values="0 0 0 0 0 0 0 0 0 0 0 0 0 0 0 0 0 0 .4 0"/>
            <feOffset dx="4.0" dy="4.0" in="blurOut2" result="blurOut3"/>
            <feBlend in="SourceGraphic" in2="blurOut3" mode="normal"/>
        </filter>
    </defs>
    <g>
        <!--class ManColStatisticsUI-->
        <rect fill="#FEFECE" filter="url(#fsf4nv8v80p45)" height="48" style="stroke: #A80036; stroke-width: 1.5;" width="136" x="465" y="8"/>
        <ellipse cx="480" cy="24" fill="#ADD1B2" rx="11" ry="11" style="stroke: #A80036; stroke-width: 1.0;"/>
        <path d="M482.7656,19.875 Q482.9219,19.6563 483.1094,19.5469 Q483.2969,19.4375 483.5156,19.4375 Q483.8906,19.4375 484.125,19.6953 Q484.3594,19.9531 484.3594,20.5625 L484.3594,22.0156 Q484.3594,22.625 484.125,22.8906 Q483.8906,23.1563 483.5156,23.1563 Q483.1719,23.1563 482.9688,22.9531 Q482.7656,22.7656 482.6563,22.25 Q482.6094,21.8906 482.4219,21.7031 Q482.0938,21.3281 481.4844,21.1094 Q480.875,20.8906 480.25,20.8906 Q479.4844,20.8906 478.8516,21.2188 Q478.2188,21.5469 477.7266,22.2969 Q477.2344,23.0469 477.2344,24.0781 L477.2344,25.1719 Q477.2344,26.4063 478.125,27.2266 Q479.0156,28.0469 480.6094,28.0469 Q481.5469,28.0469 482.2031,27.7969 Q482.5938,27.6406 483.0156,27.2031 Q483.2813,26.9375 483.4297,26.8594 Q483.5781,26.7813 483.7813,26.7813 Q484.1094,26.7813 484.3672,27.0391 Q484.625,27.2969 484.625,27.6406 Q484.625,27.9844 484.2813,28.3906 Q483.7813,28.9688 482.9844,29.2969 Q481.9063,29.75 480.6094,29.75 Q479.0938,29.75 477.8906,29.125 Q476.9063,28.625 476.2188,27.5547 Q475.5313,26.4844 475.5313,25.2031 L475.5313,24.0469 Q475.5313,22.7188 476.1484,21.5703 Q476.7656,20.4219 477.8594,19.8047 Q478.9531,19.1875 480.1875,19.1875 Q480.9219,19.1875 481.5703,19.3516 Q482.2188,19.5156 482.7656,19.875 Z "/>
        <text fill="#000000" font-family="sans-serif" font-size="12" lengthAdjust="spacingAndGlyphs" textLength="104" x="494" y="28.9102">ManColStatisticsUI</text>
        <line style="stroke: #A80036; stroke-width: 1.5;" x1="466" x2="600" y1="40" y2="40"/>
        <line style="stroke: #A80036; stroke-width: 1.5;" x1="466" x2="600" y1="48" y2="48"/>
        <!--class ManagerCollaboratorStatisticsController-->
        <rect fill="#FEFECE" filter="url(#fsf4nv8v80p45)" height="172.5234" style="stroke: #A80036; stroke-width: 1.5;" width="252" x="407" y="117"/>
        <ellipse cx="422" cy="133" fill="#ADD1B2" rx="11" ry="11" style="stroke: #A80036; stroke-width: 1.0;"/>
        <path d="M424.7656,128.875 Q424.9219,128.6563 425.1094,128.5469 Q425.2969,128.4375 425.5156,128.4375 Q425.8906,128.4375 426.125,128.6953 Q426.3594,128.9531 426.3594,129.5625 L426.3594,131.0156 Q426.3594,131.625 426.125,131.8906 Q425.8906,132.1563 425.5156,132.1563 Q425.1719,132.1563 424.9688,131.9531 Q424.7656,131.7656 424.6563,131.25 Q424.6094,130.8906 424.4219,130.7031 Q424.0938,130.3281 423.4844,130.1094 Q422.875,129.8906 422.25,129.8906 Q421.4844,129.8906 420.8516,130.2188 Q420.2188,130.5469 419.7266,131.2969 Q419.2344,132.0469 419.2344,133.0781 L419.2344,134.1719 Q419.2344,135.4063 420.125,136.2266 Q421.0156,137.0469 422.6094,137.0469 Q423.5469,137.0469 424.2031,136.7969 Q424.5938,136.6406 425.0156,136.2031 Q425.2813,135.9375 425.4297,135.8594 Q425.5781,135.7813 425.7813,135.7813 Q426.1094,135.7813 426.3672,136.0391 Q426.625,136.2969 426.625,136.6406 Q426.625,136.9844 426.2813,137.3906 Q425.7813,137.9688 424.9844,138.2969 Q423.9063,138.75 422.6094,138.75 Q421.0938,138.75 419.8906,138.125 Q418.9063,137.625 418.2188,136.5547 Q417.5313,135.4844 417.5313,134.2031 L417.5313,133.0469 Q417.5313,131.7188 418.1484,130.5703 Q418.7656,129.4219 419.8594,128.8047 Q420.9531,128.1875 422.1875,128.1875 Q422.9219,128.1875 423.5703,128.3516 Q424.2188,128.5156 424.7656,128.875 Z "/>
        <text fill="#000000" font-family="sans-serif" font-size="12" lengthAdjust="spacingAndGlyphs" textLength="220" x="436" y="137.9102">ManagerCollaboratorStatisticsController</text>
        <line style="stroke: #A80036; stroke-width: 1.5;" x1="408" x2="658" y1="149" y2="149"/>
        <line style="stroke: #A80036; stroke-width: 1.5;" x1="408" x2="658" y1="157" y2="157"/>
        <text fill="#000000" font-family="sans-serif" font-size="11" lengthAdjust="spacingAndGlyphs" textLength="87" x="413" y="172.4189">+getFreelancers()</text>
        <text fill="#000000" font-family="sans-serif" font-size="11" lengthAdjust="spacingAndGlyphs" textLength="211" x="413" y="186.2549">+setFreelancers(Set&lt;Freelancer&gt; selected)</text>
        <text fill="#000000" font-family="sans-serif" font-size="11" lengthAdjust="spacingAndGlyphs" textLength="88" x="413" y="200.0908">+getMeanDelays()</text>
        <text fill="#000000" font-family="sans-serif" font-size="11" lengthAdjust="spacingAndGlyphs" textLength="102" x="413" y="213.9268">+getMeanPayments()</text>
        <text fill="#000000" font-family="sans-serif" font-size="11" lengthAdjust="spacingAndGlyphs" textLength="150" x="413" y="227.7627">+getStandardDeviationDelays()</text>
        <text fill="#000000" font-family="sans-serif" font-size="11" lengthAdjust="spacingAndGlyphs" textLength="164" x="413" y="241.5986">+getStandardDeviationPayments()</text>
        <text fill="#000000" font-family="sans-serif" font-size="11" lengthAdjust="spacingAndGlyphs" textLength="221" x="413" y="255.4346">+getHistogramDataDelays(Double bucketSize)</text>
        <text fill="#000000" font-family="sans-serif" font-size="11" lengthAdjust="spacingAndGlyphs" textLength="235" x="413" y="269.2705">+getHistogramDataPayments(Double bucketSize)</text>
        <text fill="#000000" font-family="sans-serif" font-size="11" lengthAdjust="spacingAndGlyphs" textLength="129" x="413" y="283.1064">+getNumberTransactions()</text>
        <!--class App-->
        <rect fill="#FEFECE" filter="url(#fsf4nv8v80p45)" height="61.8359" style="stroke: #A80036; stroke-width: 1.5;" width="132" x="546" y="351"/>
        <ellipse cx="597.25" cy="367" fill="#ADD1B2" rx="11" ry="11" style="stroke: #A80036; stroke-width: 1.0;"/>
        <path d="M600.0156,362.875 Q600.1719,362.6563 600.3594,362.5469 Q600.5469,362.4375 600.7656,362.4375 Q601.1406,362.4375 601.375,362.6953 Q601.6094,362.9531 601.6094,363.5625 L601.6094,365.0156 Q601.6094,365.625 601.375,365.8906 Q601.1406,366.1563 600.7656,366.1563 Q600.4219,366.1563 600.2188,365.9531 Q600.0156,365.7656 599.9063,365.25 Q599.8594,364.8906 599.6719,364.7031 Q599.3438,364.3281 598.7344,364.1094 Q598.125,363.8906 597.5,363.8906 Q596.7344,363.8906 596.1016,364.2188 Q595.4688,364.5469 594.9766,365.2969 Q594.4844,366.0469 594.4844,367.0781 L594.4844,368.1719 Q594.4844,369.4063 595.375,370.2266 Q596.2656,371.0469 597.8594,371.0469 Q598.7969,371.0469 599.4531,370.7969 Q599.8438,370.6406 600.2656,370.2031 Q600.5313,369.9375 600.6797,369.8594 Q600.8281,369.7813 601.0313,369.7813 Q601.3594,369.7813 601.6172,370.0391 Q601.875,370.2969 601.875,370.6406 Q601.875,370.9844 601.5313,371.3906 Q601.0313,371.9688 600.2344,372.2969 Q599.1563,372.75 597.8594,372.75 Q596.3438,372.75 595.1406,372.125 Q594.1563,371.625 593.4688,370.5547 Q592.7813,369.4844 592.7813,368.2031 L592.7813,367.0469 Q592.7813,365.7188 593.3984,364.5703 Q594.0156,363.4219 595.1094,362.8047 Q596.2031,362.1875 597.4375,362.1875 Q598.1719,362.1875 598.8203,362.3516 Q599.4688,362.5156 600.0156,362.875 Z "/>
        <text fill="#000000" font-family="sans-serif" font-size="12" lengthAdjust="spacingAndGlyphs" textLength="21" x="617.75" y="371.9102">App</text>
        <line style="stroke: #A80036; stroke-width: 1.5;" x1="547" x2="677" y1="383" y2="383"/>
        <line style="stroke: #A80036; stroke-width: 1.5;" x1="547" x2="677" y1="391" y2="391"/>
        <text fill="#000000" font-family="sans-serif" font-size="11" lengthAdjust="spacingAndGlyphs" textLength="120" x="552" y="406.4189">+getRegistOrganization()</text>
        <!--class RegistOrganization-->
        <rect fill="#FEFECE" filter="url(#fsf4nv8v80p45)" height="61.8359" style="stroke: #A80036; stroke-width: 1.5;" width="137" x="454.5" y="491"/>
        <ellipse cx="469.5" cy="507" fill="#ADD1B2" rx="11" ry="11" style="stroke: #A80036; stroke-width: 1.0;"/>
        <path d="M472.2656,502.875 Q472.4219,502.6563 472.6094,502.5469 Q472.7969,502.4375 473.0156,502.4375 Q473.3906,502.4375 473.625,502.6953 Q473.8594,502.9531 473.8594,503.5625 L473.8594,505.0156 Q473.8594,505.625 473.625,505.8906 Q473.3906,506.1563 473.0156,506.1563 Q472.6719,506.1563 472.4688,505.9531 Q472.2656,505.7656 472.1563,505.25 Q472.1094,504.8906 471.9219,504.7031 Q471.5938,504.3281 470.9844,504.1094 Q470.375,503.8906 469.75,503.8906 Q468.9844,503.8906 468.3516,504.2188 Q467.7188,504.5469 467.2266,505.2969 Q466.7344,506.0469 466.7344,507.0781 L466.7344,508.1719 Q466.7344,509.4063 467.625,510.2266 Q468.5156,511.0469 470.1094,511.0469 Q471.0469,511.0469 471.7031,510.7969 Q472.0938,510.6406 472.5156,510.2031 Q472.7813,509.9375 472.9297,509.8594 Q473.0781,509.7813 473.2813,509.7813 Q473.6094,509.7813 473.8672,510.0391 Q474.125,510.2969 474.125,510.6406 Q474.125,510.9844 473.7813,511.3906 Q473.2813,511.9688 472.4844,512.2969 Q471.4063,512.75 470.1094,512.75 Q468.5938,512.75 467.3906,512.125 Q466.4063,511.625 465.7188,510.5547 Q465.0313,509.4844 465.0313,508.2031 L465.0313,507.0469 Q465.0313,505.7188 465.6484,504.5703 Q466.2656,503.4219 467.3594,502.8047 Q468.4531,502.1875 469.6875,502.1875 Q470.4219,502.1875 471.0703,502.3516 Q471.7188,502.5156 472.2656,502.875 Z "/>
        <text fill="#000000" font-family="sans-serif" font-size="12" lengthAdjust="spacingAndGlyphs" textLength="105" x="483.5" y="511.9102">RegistOrganization</text>
        <line style="stroke: #A80036; stroke-width: 1.5;" x1="455.5" x2="590.5" y1="523" y2="523"/>
        <line style="stroke: #A80036; stroke-width: 1.5;" x1="455.5" x2="590.5" y1="531" y2="531"/>
        <text fill="#000000" font-family="sans-serif" font-size="11" lengthAdjust="spacingAndGlyphs" textLength="109" x="460.5" y="546.4189">+getOrganization (org)</text>
        <!--class Organization-->
        <rect fill="#FEFECE" filter="url(#fsf4nv8v80p45)" height="89.5078" style="stroke: #A80036; stroke-width: 1.5;" width="115" x="465.5" y="631"/>
        <ellipse cx="486.8" cy="647" fill="#ADD1B2" rx="11" ry="11" style="stroke: #A80036; stroke-width: 1.0;"/>
        <path d="M489.5656,642.875 Q489.7219,642.6563 489.9094,642.5469 Q490.0969,642.4375 490.3156,642.4375 Q490.6906,642.4375 490.925,642.6953 Q491.1594,642.9531 491.1594,643.5625 L491.1594,645.0156 Q491.1594,645.625 490.925,645.8906 Q490.6906,646.1563 490.3156,646.1563 Q489.9719,646.1563 489.7688,645.9531 Q489.5656,645.7656 489.4563,645.25 Q489.4094,644.8906 489.2219,644.7031 Q488.8938,644.3281 488.2844,644.1094 Q487.675,643.8906 487.05,643.8906 Q486.2844,643.8906 485.6516,644.2188 Q485.0188,644.5469 484.5266,645.2969 Q484.0344,646.0469 484.0344,647.0781 L484.0344,648.1719 Q484.0344,649.4063 484.925,650.2266 Q485.8156,651.0469 487.4094,651.0469 Q488.3469,651.0469 489.0031,650.7969 Q489.3938,650.6406 489.8156,650.2031 Q490.0813,649.9375 490.2297,649.8594 Q490.3781,649.7813 490.5813,649.7813 Q490.9094,649.7813 491.1672,650.0391 Q491.425,650.2969 491.425,650.6406 Q491.425,650.9844 491.0813,651.3906 Q490.5813,651.9688 489.7844,652.2969 Q488.7063,652.75 487.4094,652.75 Q485.8938,652.75 484.6906,652.125 Q483.7063,651.625 483.0188,650.5547 Q482.3313,649.4844 482.3313,648.2031 L482.3313,647.0469 Q482.3313,645.7188 482.9484,644.5703 Q483.5656,643.4219 484.6594,642.8047 Q485.7531,642.1875 486.9875,642.1875 Q487.7219,642.1875 488.3703,642.3516 Q489.0188,642.5156 489.5656,642.875 Z "/>
        <text fill="#000000" font-family="sans-serif" font-size="12" lengthAdjust="spacingAndGlyphs" textLength="69" x="502.2" y="651.9102">Organization</text>
        <line style="stroke: #A80036; stroke-width: 1.5;" x1="466.5" x2="579.5" y1="663" y2="663"/>
        <text fill="#000000" font-family="sans-serif" font-size="11" lengthAdjust="spacingAndGlyphs" textLength="61" x="471.5" y="678.4189">-String nome</text>
        <text fill="#000000" font-family="sans-serif" font-size="11" lengthAdjust="spacingAndGlyphs" textLength="50" x="471.5" y="692.2549">-String NIF</text>
        <line style="stroke: #A80036; stroke-width: 1.5;" x1="466.5" x2="579.5" y1="698.6719" y2="698.6719"/>
        <text fill="#000000" font-family="sans-serif" font-size="11" lengthAdjust="spacingAndGlyphs" textLength="103" x="471.5" y="714.0908">+getListTransaction()</text>
        <!--class Collaborator-->
        <rect fill="#FEFECE" filter="url(#fsf4nv8v80p45)" height="89.5078" style="stroke: #A80036; stroke-width: 1.5;" width="100" x="339" y="799"/>
        <ellipse cx="354" cy="815" fill="#ADD1B2" rx="11" ry="11" style="stroke: #A80036; stroke-width: 1.0;"/>
        <path d="M356.7656,810.875 Q356.9219,810.6563 357.1094,810.5469 Q357.2969,810.4375 357.5156,810.4375 Q357.8906,810.4375 358.125,810.6953 Q358.3594,810.9531 358.3594,811.5625 L358.3594,813.0156 Q358.3594,813.625 358.125,813.8906 Q357.8906,814.1563 357.5156,814.1563 Q357.1719,814.1563 356.9688,813.9531 Q356.7656,813.7656 356.6563,813.25 Q356.6094,812.8906 356.4219,812.7031 Q356.0938,812.3281 355.4844,812.1094 Q354.875,811.8906 354.25,811.8906 Q353.4844,811.8906 352.8516,812.2188 Q352.2188,812.5469 351.7266,813.2969 Q351.2344,814.0469 351.2344,815.0781 L351.2344,816.1719 Q351.2344,817.4063 352.125,818.2266 Q353.0156,819.0469 354.6094,819.0469 Q355.5469,819.0469 356.2031,818.7969 Q356.5938,818.6406 357.0156,818.2031 Q357.2813,817.9375 357.4297,817.8594 Q357.5781,817.7813 357.7813,817.7813 Q358.1094,817.7813 358.3672,818.0391 Q358.625,818.2969 358.625,818.6406 Q358.625,818.9844 358.2813,819.3906 Q357.7813,819.9688 356.9844,820.2969 Q355.9063,820.75 354.6094,820.75 Q353.0938,820.75 351.8906,820.125 Q350.9063,819.625 350.2188,818.5547 Q349.5313,817.4844 349.5313,816.2031 L349.5313,815.0469 Q349.5313,813.7188 350.1484,812.5703 Q350.7656,811.4219 351.8594,810.8047 Q352.9531,810.1875 354.1875,810.1875 Q354.9219,810.1875 355.5703,810.3516 Q356.2188,810.5156 356.7656,810.875 Z "/>
        <text fill="#000000" font-family="sans-serif" font-size="12" lengthAdjust="spacingAndGlyphs" textLength="68" x="368" y="819.9102">Collaborator</text>
        <line style="stroke: #A80036; stroke-width: 1.5;" x1="340" x2="438" y1="831" y2="831"/>
        <text fill="#000000" font-family="sans-serif" font-size="11" lengthAdjust="spacingAndGlyphs" textLength="61" x="345" y="846.4189">-String nome</text>
        <text fill="#000000" font-family="sans-serif" font-size="11" lengthAdjust="spacingAndGlyphs" textLength="59" x="345" y="860.2549">-String email</text>
        <text fill="#000000" font-family="sans-serif" font-size="11" lengthAdjust="spacingAndGlyphs" textLength="85" x="345" y="874.0908">-String password</text>
        <line style="stroke: #A80036; stroke-width: 1.5;" x1="340" x2="438" y1="880.5078" y2="880.5078"/>
        <!--class Manager-->
        <rect fill="#FEFECE" filter="url(#fsf4nv8v80p45)" height="89.5078" style="stroke: #A80036; stroke-width: 1.5;" width="97" x="474.5" y="799"/>
        <ellipse cx="497.15" cy="815" fill="#ADD1B2" rx="11" ry="11" style="stroke: #A80036; stroke-width: 1.0;"/>
        <path d="M499.9156,810.875 Q500.0719,810.6563 500.2594,810.5469 Q500.4469,810.4375 500.6656,810.4375 Q501.0406,810.4375 501.275,810.6953 Q501.5094,810.9531 501.5094,811.5625 L501.5094,813.0156 Q501.5094,813.625 501.275,813.8906 Q501.0406,814.1563 500.6656,814.1563 Q500.3219,814.1563 500.1188,813.9531 Q499.9156,813.7656 499.8063,813.25 Q499.7594,812.8906 499.5719,812.7031 Q499.2438,812.3281 498.6344,812.1094 Q498.025,811.8906 497.4,811.8906 Q496.6344,811.8906 496.0016,812.2188 Q495.3688,812.5469 494.8766,813.2969 Q494.3844,814.0469 494.3844,815.0781 L494.3844,816.1719 Q494.3844,817.4063 495.275,818.2266 Q496.1656,819.0469 497.7594,819.0469 Q498.6969,819.0469 499.3531,818.7969 Q499.7438,818.6406 500.1656,818.2031 Q500.4313,817.9375 500.5797,817.8594 Q500.7281,817.7813 500.9313,817.7813 Q501.2594,817.7813 501.5172,818.0391 Q501.775,818.2969 501.775,818.6406 Q501.775,818.9844 501.4313,819.3906 Q500.9313,819.9688 500.1344,820.2969 Q499.0563,820.75 497.7594,820.75 Q496.2438,820.75 495.0406,820.125 Q494.0563,819.625 493.3688,818.5547 Q492.6813,817.4844 492.6813,816.2031 L492.6813,815.0469 Q492.6813,813.7188 493.2984,812.5703 Q493.9156,811.4219 495.0094,810.8047 Q496.1031,810.1875 497.3375,810.1875 Q498.0719,810.1875 498.7203,810.3516 Q499.3688,810.5156 499.9156,810.875 Z "/>
        <text fill="#000000" font-family="sans-serif" font-size="12" lengthAdjust="spacingAndGlyphs" textLength="48" x="512.85" y="819.9102">Manager</text>
        <line style="stroke: #A80036; stroke-width: 1.5;" x1="475.5" x2="570.5" y1="831" y2="831"/>
        <text fill="#000000" font-family="sans-serif" font-size="11" lengthAdjust="spacingAndGlyphs" textLength="61" x="480.5" y="846.4189">-String nome</text>
        <text fill="#000000" font-family="sans-serif" font-size="11" lengthAdjust="spacingAndGlyphs" textLength="59" x="480.5" y="860.2549">-String email</text>
        <text fill="#000000" font-family="sans-serif" font-size="11" lengthAdjust="spacingAndGlyphs" textLength="85" x="480.5" y="874.0908">-String password</text>
        <line style="stroke: #A80036; stroke-width: 1.5;" x1="475.5" x2="570.5" y1="880.5078" y2="880.5078"/>
        <!--class ListTransaction-->
        <rect fill="#FEFECE" filter="url(#fsf4nv8v80p45)" height="89.5078" style="stroke: #A80036; stroke-width: 1.5;" width="298" x="6" y="799"/>
        <ellipse cx="108.25" cy="815" fill="#ADD1B2" rx="11" ry="11" style="stroke: #A80036; stroke-width: 1.0;"/>
        <path d="M111.0156,810.875 Q111.1719,810.6563 111.3594,810.5469 Q111.5469,810.4375 111.7656,810.4375 Q112.1406,810.4375 112.375,810.6953 Q112.6094,810.9531 112.6094,811.5625 L112.6094,813.0156 Q112.6094,813.625 112.375,813.8906 Q112.1406,814.1563 111.7656,814.1563 Q111.4219,814.1563 111.2188,813.9531 Q111.0156,813.7656 110.9063,813.25 Q110.8594,812.8906 110.6719,812.7031 Q110.3438,812.3281 109.7344,812.1094 Q109.125,811.8906 108.5,811.8906 Q107.7344,811.8906 107.1016,812.2188 Q106.4688,812.5469 105.9766,813.2969 Q105.4844,814.0469 105.4844,815.0781 L105.4844,816.1719 Q105.4844,817.4063 106.375,818.2266 Q107.2656,819.0469 108.8594,819.0469 Q109.7969,819.0469 110.4531,818.7969 Q110.8438,818.6406 111.2656,818.2031 Q111.5313,817.9375 111.6797,817.8594 Q111.8281,817.7813 112.0313,817.7813 Q112.3594,817.7813 112.6172,818.0391 Q112.875,818.2969 112.875,818.6406 Q112.875,818.9844 112.5313,819.3906 Q112.0313,819.9688 111.2344,820.2969 Q110.1563,820.75 108.8594,820.75 Q107.3438,820.75 106.1406,820.125 Q105.1563,819.625 104.4688,818.5547 Q103.7813,817.4844 103.7813,816.2031 L103.7813,815.0469 Q103.7813,813.7188 104.3984,812.5703 Q105.0156,811.4219 106.1094,810.8047 Q107.2031,810.1875 108.4375,810.1875 Q109.1719,810.1875 109.8203,810.3516 Q110.4688,810.5156 111.0156,810.875 Z "/>
        <text fill="#000000" font-family="sans-serif" font-size="12" lengthAdjust="spacingAndGlyphs" textLength="85" x="128.75" y="819.9102">ListTransaction</text>
        <line style="stroke: #A80036; stroke-width: 1.5;" x1="7" x2="303" y1="831" y2="831"/>
        <line style="stroke: #A80036; stroke-width: 1.5;" x1="7" x2="303" y1="839" y2="839"/>
        <text fill="#000000" font-family="sans-serif" font-size="11" lengthAdjust="spacingAndGlyphs" textLength="174" x="12" y="854.4189">+getFreelancersOfAllTransactions()</text>
        <text fill="#000000" font-family="sans-serif" font-size="11" lengthAdjust="spacingAndGlyphs" textLength="286" x="12" y="868.2549">+getTransactionsOfFreelancers(Set&lt;Freelancer&gt; selected)</text>
        <text fill="#000000" font-family="sans-serif" font-size="11" lengthAdjust="spacingAndGlyphs" textLength="38" x="12" y="882.0908">+get(ID)</text>
        <!--class Transaction-->
        <rect fill="#FEFECE" filter="url(#fsf4nv8v80p45)" height="89.5078" style="stroke: #A80036; stroke-width: 1.5;" width="208" x="487" y="997"/>
        <ellipse cx="554.25" cy="1013" fill="#ADD1B2" rx="11" ry="11" style="stroke: #A80036; stroke-width: 1.0;"/>
        <path d="M557.0156,1008.875 Q557.1719,1008.6563 557.3594,1008.5469 Q557.5469,1008.4375 557.7656,1008.4375 Q558.1406,1008.4375 558.375,1008.6953 Q558.6094,1008.9531 558.6094,1009.5625 L558.6094,1011.0156 Q558.6094,1011.625 558.375,1011.8906 Q558.1406,1012.1563 557.7656,1012.1563 Q557.4219,1012.1563 557.2188,1011.9531 Q557.0156,1011.7656 556.9063,1011.25 Q556.8594,1010.8906 556.6719,1010.7031 Q556.3438,1010.3281 555.7344,1010.1094 Q555.125,1009.8906 554.5,1009.8906 Q553.7344,1009.8906 553.1016,1010.2188 Q552.4688,1010.5469 551.9766,1011.2969 Q551.4844,1012.0469 551.4844,1013.0781 L551.4844,1014.1719 Q551.4844,1015.4063 552.375,1016.2266 Q553.2656,1017.0469 554.8594,1017.0469 Q555.7969,1017.0469 556.4531,1016.7969 Q556.8438,1016.6406 557.2656,1016.2031 Q557.5313,1015.9375 557.6797,1015.8594 Q557.8281,1015.7813 558.0313,1015.7813 Q558.3594,1015.7813 558.6172,1016.0391 Q558.875,1016.2969 558.875,1016.6406 Q558.875,1016.9844 558.5313,1017.3906 Q558.0313,1017.9688 557.2344,1018.2969 Q556.1563,1018.75 554.8594,1018.75 Q553.3438,1018.75 552.1406,1018.125 Q551.1563,1017.625 550.4688,1016.5547 Q549.7813,1015.4844 549.7813,1014.2031 L549.7813,1013.0469 Q549.7813,1011.7188 550.3984,1010.5703 Q551.0156,1009.4219 552.1094,1008.8047 Q553.2031,1008.1875 554.4375,1008.1875 Q555.1719,1008.1875 555.8203,1008.3516 Q556.4688,1008.5156 557.0156,1008.875 Z "/>
        <text fill="#000000" font-family="sans-serif" font-size="12" lengthAdjust="spacingAndGlyphs" textLength="65" x="574.75" y="1017.9102">Transaction</text>
        <line style="stroke: #A80036; stroke-width: 1.5;" x1="488" x2="694" y1="1029" y2="1029"/>
        <line style="stroke: #A80036; stroke-width: 1.5;" x1="488" x2="694" y1="1037" y2="1037"/>
        <text fill="#000000" font-family="sans-serif" font-size="11" lengthAdjust="spacingAndGlyphs" textLength="196" x="493" y="1052.4189">+madeToAny(Set&lt;Freelancer&gt; selected)</text>
        <text fill="#000000" font-family="sans-serif" font-size="11" lengthAdjust="spacingAndGlyphs" textLength="131" x="493" y="1066.2549">+getTaskExecutionDetails()</text>
        <text fill="#000000" font-family="sans-serif" font-size="11" lengthAdjust="spacingAndGlyphs" textLength="66" x="493" y="1080.0908">+getAmount()</text>
        <!--class Task-->
        <rect fill="#FEFECE" filter="url(#fsf4nv8v80p45)" height="117.1797" style="stroke: #A80036; stroke-width: 1.5;" width="169" x="623.5" y="1333"/>
        <ellipse cx="690.25" cy="1349" fill="#ADD1B2" rx="11" ry="11" style="stroke: #A80036; stroke-width: 1.0;"/>
        <path d="M693.0156,1344.875 Q693.1719,1344.6563 693.3594,1344.5469 Q693.5469,1344.4375 693.7656,1344.4375 Q694.1406,1344.4375 694.375,1344.6953 Q694.6094,1344.9531 694.6094,1345.5625 L694.6094,1347.0156 Q694.6094,1347.625 694.375,1347.8906 Q694.1406,1348.1563 693.7656,1348.1563 Q693.4219,1348.1563 693.2188,1347.9531 Q693.0156,1347.7656 692.9063,1347.25 Q692.8594,1346.8906 692.6719,1346.7031 Q692.3438,1346.3281 691.7344,1346.1094 Q691.125,1345.8906 690.5,1345.8906 Q689.7344,1345.8906 689.1016,1346.2188 Q688.4688,1346.5469 687.9766,1347.2969 Q687.4844,1348.0469 687.4844,1349.0781 L687.4844,1350.1719 Q687.4844,1351.4063 688.375,1352.2266 Q689.2656,1353.0469 690.8594,1353.0469 Q691.7969,1353.0469 692.4531,1352.7969 Q692.8438,1352.6406 693.2656,1352.2031 Q693.5313,1351.9375 693.6797,1351.8594 Q693.8281,1351.7813 694.0313,1351.7813 Q694.3594,1351.7813 694.6172,1352.0391 Q694.875,1352.2969 694.875,1352.6406 Q694.875,1352.9844 694.5313,1353.3906 Q694.0313,1353.9688 693.2344,1354.2969 Q692.1563,1354.75 690.8594,1354.75 Q689.3438,1354.75 688.1406,1354.125 Q687.1563,1353.625 686.4688,1352.5547 Q685.7813,1351.4844 685.7813,1350.2031 L685.7813,1349.0469 Q685.7813,1347.7188 686.3984,1346.5703 Q687.0156,1345.4219 688.1094,1344.8047 Q689.2031,1344.1875 690.4375,1344.1875 Q691.1719,1344.1875 691.8203,1344.3516 Q692.4688,1344.5156 693.0156,1344.875 Z "/>
        <text fill="#000000" font-family="sans-serif" font-size="12" lengthAdjust="spacingAndGlyphs" textLength="27" x="710.75" y="1353.9102">Task</text>
        <line style="stroke: #A80036; stroke-width: 1.5;" x1="624.5" x2="791.5" y1="1365" y2="1365"/>
        <text fill="#000000" font-family="sans-serif" font-size="11" lengthAdjust="spacingAndGlyphs" textLength="43" x="629.5" y="1380.4189">-String id</text>
        <text fill="#000000" font-family="sans-serif" font-size="11" lengthAdjust="spacingAndGlyphs" textLength="88" x="629.5" y="1394.2549">-String description</text>
        <text fill="#000000" font-family="sans-serif" font-size="11" lengthAdjust="spacingAndGlyphs" textLength="116" x="629.5" y="1408.0908">-Integer durationInHours</text>
        <text fill="#000000" font-family="sans-serif" font-size="11" lengthAdjust="spacingAndGlyphs" textLength="157" x="629.5" y="1421.9268">-Double costPerHourOfJuniorEur</text>
        <text fill="#000000" font-family="sans-serif" font-size="11" lengthAdjust="spacingAndGlyphs" textLength="78" x="629.5" y="1435.7627">-String category</text>
        <line style="stroke: #A80036; stroke-width: 1.5;" x1="624.5" x2="791.5" y1="1442.1797" y2="1442.1797"/>
        <!--class TaskExecutionDetails-->
        <rect fill="#FEFECE" filter="url(#fsf4nv8v80p45)" height="89.5078" style="stroke: #A80036; stroke-width: 1.5;" width="171" x="505.5" y="1165"/>
        <ellipse cx="529.5" cy="1181" fill="#ADD1B2" rx="11" ry="11" style="stroke: #A80036; stroke-width: 1.0;"/>
        <path d="M532.2656,1176.875 Q532.4219,1176.6563 532.6094,1176.5469 Q532.7969,1176.4375 533.0156,1176.4375 Q533.3906,1176.4375 533.625,1176.6953 Q533.8594,1176.9531 533.8594,1177.5625 L533.8594,1179.0156 Q533.8594,1179.625 533.625,1179.8906 Q533.3906,1180.1563 533.0156,1180.1563 Q532.6719,1180.1563 532.4688,1179.9531 Q532.2656,1179.7656 532.1563,1179.25 Q532.1094,1178.8906 531.9219,1178.7031 Q531.5938,1178.3281 530.9844,1178.1094 Q530.375,1177.8906 529.75,1177.8906 Q528.9844,1177.8906 528.3516,1178.2188 Q527.7188,1178.5469 527.2266,1179.2969 Q526.7344,1180.0469 526.7344,1181.0781 L526.7344,1182.1719 Q526.7344,1183.4063 527.625,1184.2266 Q528.5156,1185.0469 530.1094,1185.0469 Q531.0469,1185.0469 531.7031,1184.7969 Q532.0938,1184.6406 532.5156,1184.2031 Q532.7813,1183.9375 532.9297,1183.8594 Q533.0781,1183.7813 533.2813,1183.7813 Q533.6094,1183.7813 533.8672,1184.0391 Q534.125,1184.2969 534.125,1184.6406 Q534.125,1184.9844 533.7813,1185.3906 Q533.2813,1185.9688 532.4844,1186.2969 Q531.4063,1186.75 530.1094,1186.75 Q528.5938,1186.75 527.3906,1186.125 Q526.4063,1185.625 525.7188,1184.5547 Q525.0313,1183.4844 525.0313,1182.2031 L525.0313,1181.0469 Q525.0313,1179.7188 525.6484,1178.5703 Q526.2656,1177.4219 527.3594,1176.8047 Q528.4531,1176.1875 529.6875,1176.1875 Q530.4219,1176.1875 531.0703,1176.3516 Q531.7188,1176.5156 532.2656,1176.875 Z "/>
        <text fill="#000000" font-family="sans-serif" font-size="12" lengthAdjust="spacingAndGlyphs" textLength="119" x="545.5" y="1185.9102">TaskExecutionDetails</text>
        <line style="stroke: #A80036; stroke-width: 1.5;" x1="506.5" x2="675.5" y1="1197" y2="1197"/>
        <text fill="#000000" font-family="sans-serif" font-size="11" lengthAdjust="spacingAndGlyphs" textLength="95" x="511.5" y="1212.4189">-LocalDate endDate</text>
        <text fill="#000000" font-family="sans-serif" font-size="11" lengthAdjust="spacingAndGlyphs" textLength="99" x="511.5" y="1226.2549">-Integer delayInDays</text>
        <text fill="#000000" font-family="sans-serif" font-size="11" lengthAdjust="spacingAndGlyphs" textLength="159" x="511.5" y="1240.0908">-String DescriptionQualityOfWork</text>
        <line style="stroke: #A80036; stroke-width: 1.5;" x1="506.5" x2="675.5" y1="1246.5078" y2="1246.5078"/>
        <!--class Freelancer-->
        <rect fill="#FEFECE" filter="url(#fsf4nv8v80p45)" height="158.6875" style="stroke: #A80036; stroke-width: 1.5;" width="135" x="347.5" y="1528"/>
        <ellipse cx="382.3" cy="1544" fill="#ADD1B2" rx="11" ry="11" style="stroke: #A80036; stroke-width: 1.0;"/>
        <path d="M385.0656,1539.875 Q385.2219,1539.6563 385.4094,1539.5469 Q385.5969,1539.4375 385.8156,1539.4375 Q386.1906,1539.4375 386.425,1539.6953 Q386.6594,1539.9531 386.6594,1540.5625 L386.6594,1542.0156 Q386.6594,1542.625 386.425,1542.8906 Q386.1906,1543.1563 385.8156,1543.1563 Q385.4719,1543.1563 385.2688,1542.9531 Q385.0656,1542.7656 384.9563,1542.25 Q384.9094,1541.8906 384.7219,1541.7031 Q384.3938,1541.3281 383.7844,1541.1094 Q383.175,1540.8906 382.55,1540.8906 Q381.7844,1540.8906 381.1516,1541.2188 Q380.5188,1541.5469 380.0266,1542.2969 Q379.5344,1543.0469 379.5344,1544.0781 L379.5344,1545.1719 Q379.5344,1546.4063 380.425,1547.2266 Q381.3156,1548.0469 382.9094,1548.0469 Q383.8469,1548.0469 384.5031,1547.7969 Q384.8938,1547.6406 385.3156,1547.2031 Q385.5813,1546.9375 385.7297,1546.8594 Q385.8781,1546.7813 386.0813,1546.7813 Q386.4094,1546.7813 386.6672,1547.0391 Q386.925,1547.2969 386.925,1547.6406 Q386.925,1547.9844 386.5813,1548.3906 Q386.0813,1548.9688 385.2844,1549.2969 Q384.2063,1549.75 382.9094,1549.75 Q381.3938,1549.75 380.1906,1549.125 Q379.2063,1548.625 378.5188,1547.5547 Q377.8313,1546.4844 377.8313,1545.2031 L377.8313,1544.0469 Q377.8313,1542.7188 378.4484,1541.5703 Q379.0656,1540.4219 380.1594,1539.8047 Q381.2531,1539.1875 382.4875,1539.1875 Q383.2219,1539.1875 383.8703,1539.3516 Q384.5188,1539.5156 385.0656,1539.875 Z "/>
        <text fill="#000000" font-family="sans-serif" font-size="12" lengthAdjust="spacingAndGlyphs" textLength="59" x="400.7" y="1548.9102">Freelancer</text>
        <line style="stroke: #A80036; stroke-width: 1.5;" x1="348.5" x2="481.5" y1="1560" y2="1560"/>
        <text fill="#000000" font-family="sans-serif" font-size="11" lengthAdjust="spacingAndGlyphs" textLength="43" x="353.5" y="1575.4189">-String id</text>
        <text fill="#000000" font-family="sans-serif" font-size="11" lengthAdjust="spacingAndGlyphs" textLength="61" x="353.5" y="1589.2549">-String name</text>
        <text fill="#000000" font-family="sans-serif" font-size="11" lengthAdjust="spacingAndGlyphs" textLength="114" x="353.5" y="1603.0908">-String levelOfExpertise</text>
        <text fill="#000000" font-family="sans-serif" font-size="11" lengthAdjust="spacingAndGlyphs" textLength="59" x="353.5" y="1616.9268">-String email</text>
        <text fill="#000000" font-family="sans-serif" font-size="11" lengthAdjust="spacingAndGlyphs" textLength="50" x="353.5" y="1630.7627">-String NIF</text>
        <text fill="#000000" font-family="sans-serif" font-size="11" lengthAdjust="spacingAndGlyphs" textLength="123" x="353.5" y="1644.5986">-String bankAccountIBAN</text>
        <text fill="#000000" font-family="sans-serif" font-size="11" lengthAdjust="spacingAndGlyphs" textLength="75" x="353.5" y="1658.4346">-String address</text>
        <text fill="#000000" font-family="sans-serif" font-size="11" lengthAdjust="spacingAndGlyphs" textLength="72" x="353.5" y="1672.2705">-String country</text>
        <line style="stroke: #A80036; stroke-width: 1.5;" x1="348.5" x2="481.5" y1="1678.6875" y2="1678.6875"/>
        <!--class PaymentDetails-->
        <rect fill="#FEFECE" filter="url(#fsf4nv8v80p45)" height="61.8359" style="stroke: #A80036; stroke-width: 1.5;" width="119" x="351.5" y="1179"/>
        <ellipse cx="366.5" cy="1195" fill="#ADD1B2" rx="11" ry="11" style="stroke: #A80036; stroke-width: 1.0;"/>
        <path d="M369.2656,1190.875 Q369.4219,1190.6563 369.6094,1190.5469 Q369.7969,1190.4375 370.0156,1190.4375 Q370.3906,1190.4375 370.625,1190.6953 Q370.8594,1190.9531 370.8594,1191.5625 L370.8594,1193.0156 Q370.8594,1193.625 370.625,1193.8906 Q370.3906,1194.1563 370.0156,1194.1563 Q369.6719,1194.1563 369.4688,1193.9531 Q369.2656,1193.7656 369.1563,1193.25 Q369.1094,1192.8906 368.9219,1192.7031 Q368.5938,1192.3281 367.9844,1192.1094 Q367.375,1191.8906 366.75,1191.8906 Q365.9844,1191.8906 365.3516,1192.2188 Q364.7188,1192.5469 364.2266,1193.2969 Q363.7344,1194.0469 363.7344,1195.0781 L363.7344,1196.1719 Q363.7344,1197.4063 364.625,1198.2266 Q365.5156,1199.0469 367.1094,1199.0469 Q368.0469,1199.0469 368.7031,1198.7969 Q369.0938,1198.6406 369.5156,1198.2031 Q369.7813,1197.9375 369.9297,1197.8594 Q370.0781,1197.7813 370.2813,1197.7813 Q370.6094,1197.7813 370.8672,1198.0391 Q371.125,1198.2969 371.125,1198.6406 Q371.125,1198.9844 370.7813,1199.3906 Q370.2813,1199.9688 369.4844,1200.2969 Q368.4063,1200.75 367.1094,1200.75 Q365.5938,1200.75 364.3906,1200.125 Q363.4063,1199.625 362.7188,1198.5547 Q362.0313,1197.4844 362.0313,1196.2031 L362.0313,1195.0469 Q362.0313,1193.7188 362.6484,1192.5703 Q363.2656,1191.4219 364.3594,1190.8047 Q365.4531,1190.1875 366.6875,1190.1875 Q367.4219,1190.1875 368.0703,1190.3516 Q368.7188,1190.5156 369.2656,1190.875 Z "/>
        <text fill="#000000" font-family="sans-serif" font-size="12" lengthAdjust="spacingAndGlyphs" textLength="87" x="380.5" y="1199.9102">PaymentDetails</text>
        <line style="stroke: #A80036; stroke-width: 1.5;" x1="352.5" x2="469.5" y1="1211" y2="1211"/>
        <text fill="#000000" font-family="sans-serif" font-size="11" lengthAdjust="spacingAndGlyphs" textLength="70" x="357.5" y="1226.4189">Boolean isPaid</text>
        <line style="stroke: #A80036; stroke-width: 1.5;" x1="352.5" x2="469.5" y1="1232.8359" y2="1232.8359"/>
        <!--class ListTask-->
        <rect fill="#FEFECE" filter="url(#fsf4nv8v80p45)" height="48" style="stroke: #A80036; stroke-width: 1.5;" width="79" x="698.5" y="919"/>
        <ellipse cx="713.5" cy="935" fill="#ADD1B2" rx="11" ry="11" style="stroke: #A80036; stroke-width: 1.0;"/>
        <path d="M716.2656,930.875 Q716.4219,930.6563 716.6094,930.5469 Q716.7969,930.4375 717.0156,930.4375 Q717.3906,930.4375 717.625,930.6953 Q717.8594,930.9531 717.8594,931.5625 L717.8594,933.0156 Q717.8594,933.625 717.625,933.8906 Q717.3906,934.1563 717.0156,934.1563 Q716.6719,934.1563 716.4688,933.9531 Q716.2656,933.7656 716.1563,933.25 Q716.1094,932.8906 715.9219,932.7031 Q715.5938,932.3281 714.9844,932.1094 Q714.375,931.8906 713.75,931.8906 Q712.9844,931.8906 712.3516,932.2188 Q711.7188,932.5469 711.2266,933.2969 Q710.7344,934.0469 710.7344,935.0781 L710.7344,936.1719 Q710.7344,937.4063 711.625,938.2266 Q712.5156,939.0469 714.1094,939.0469 Q715.0469,939.0469 715.7031,938.7969 Q716.0938,938.6406 716.5156,938.2031 Q716.7813,937.9375 716.9297,937.8594 Q717.0781,937.7813 717.2813,937.7813 Q717.6094,937.7813 717.8672,938.0391 Q718.125,938.2969 718.125,938.6406 Q718.125,938.9844 717.7813,939.3906 Q717.2813,939.9688 716.4844,940.2969 Q715.4063,940.75 714.1094,940.75 Q712.5938,940.75 711.3906,940.125 Q710.4063,939.625 709.7188,938.5547 Q709.0313,937.4844 709.0313,936.2031 L709.0313,935.0469 Q709.0313,933.7188 709.6484,932.5703 Q710.2656,931.4219 711.3594,930.8047 Q712.4531,930.1875 713.6875,930.1875 Q714.4219,930.1875 715.0703,930.3516 Q715.7188,930.5156 716.2656,930.875 Z "/>
        <text fill="#000000" font-family="sans-serif" font-size="12" lengthAdjust="spacingAndGlyphs" textLength="47" x="727.5" y="939.9102">ListTask</text>
        <line style="stroke: #A80036; stroke-width: 1.5;" x1="699.5" x2="776.5" y1="951" y2="951"/>
        <line style="stroke: #A80036; stroke-width: 1.5;" x1="699.5" x2="776.5" y1="959" y2="959"/>
        <path d="M533,56.21 C533,70.92 533,91 533,111.57 " fill="none" style="stroke: #A80036; stroke-width: 1.0; stroke-dasharray: 7.0,7.0;"/>
        <polygon fill="#A80036" points="533,116.8,537,107.8,533,111.8,529,107.8,533,116.8" style="stroke: #A80036; stroke-width: 1.0;"/>
        <path d="M571.343,290.16 C580.178,309.9 589.091,329.82 596.311,345.95 " fill="none" style="stroke: #A80036; stroke-width: 1.0; stroke-dasharray: 7.0,7.0;"/>
        <polygon fill="#A80036" points="598.495,350.83,598.4693,340.9812,596.4524,346.2663,591.1673,344.2494,598.495,350.83" style="stroke: #A80036; stroke-width: 1.0;"/>
        <path d="M406.51,217.21 C306.632,235.06 184,277.96 184,381 C184,381 184,381 184,677 C184,716.711 175.847,760.98 168.187,793.809 " fill="none" style="stroke: #A80036; stroke-width: 1.0; stroke-dasharray: 7.0,7.0;"/>
        <polygon fill="#A80036" points="166.963,798.977,172.9302,791.1417,168.1158,794.1117,165.1457,789.2973,166.963,798.977" style="stroke: #A80036; stroke-width: 1.0;"/>
        <path d="M530.011,290.1 C529.332,310.08 528.626,331.29 528,351 C526.523,397.5 524.97,451.16 523.994,485.55 " fill="none" style="stroke: #A80036; stroke-width: 1.0; stroke-dasharray: 7.0,7.0;"/>
        <polygon fill="#A80036" points="523.842,490.9,528.0976,482.018,523.9849,485.902,520.1008,481.7894,523.842,490.9" style="stroke: #A80036; stroke-width: 1.0;"/>
        <path d="M659.047,235.01 C730.197,260.58 805,305.43 805,381 C805,381 805,381 805,845 C805,900.097 818.1,924.53 783,967 C761.938,992.485 731.011,1009.214 700.105,1020.189 " fill="none" style="stroke: #A80036; stroke-width: 1.0; stroke-dasharray: 7.0,7.0;"/>
        <polygon fill="#A80036" points="695.146,1021.901,704.9586,1022.7451,699.8723,1020.2694,702.348,1015.183,695.146,1021.901" style="stroke: #A80036; stroke-width: 1.0;"/>
        <path d="M592.469,413.28 C578.557,434.86 559.832,463.89 545.328,486.38 " fill="none" style="stroke: #A80036; stroke-width: 1.0;"/>
        <polygon fill="#A80036" points="542.486,490.79,550.7159,485.3799,545.1885,486.5833,543.9851,481.0559,542.486,490.79" style="stroke: #A80036; stroke-width: 1.0;"/>
        <text fill="#000000" font-family="sans-serif" font-size="13" lengthAdjust="spacingAndGlyphs" textLength="21" x="574" y="457.4951">has</text>
        <text fill="#000000" font-family="sans-serif" font-size="13" lengthAdjust="spacingAndGlyphs" textLength="7" x="581.0787" y="434.312">1</text>
        <text fill="#000000" font-family="sans-serif" font-size="13" lengthAdjust="spacingAndGlyphs" textLength="7" x="538.7831" y="480.2512">1</text>
        <path d="M523,553.03 C523,573.79 523,601.88 523,625.87 " fill="none" style="stroke: #A80036; stroke-width: 1.0;"/>
        <polygon fill="#A80036" points="523,630.92,527,621.92,523,625.92,519,621.92,523,630.92" style="stroke: #A80036; stroke-width: 1.0;"/>
        <text fill="#000000" font-family="sans-serif" font-size="13" lengthAdjust="spacingAndGlyphs" textLength="21" x="524" y="597.4951">has</text>
        <text fill="#000000" font-family="sans-serif" font-size="13" lengthAdjust="spacingAndGlyphs" textLength="7" x="515.3109" y="574.2599">1</text>
        <text fill="#000000" font-family="sans-serif" font-size="13" lengthAdjust="spacingAndGlyphs" textLength="5" x="517.6016" y="620.0227">*</text>
        <path d="M487.442,721.049 C468.058,745.062 444.134,774.7 424.724,798.745 " fill="none" style="stroke: #A80036; stroke-width: 1.0;"/>
        <text fill="#000000" font-family="sans-serif" font-size="13" lengthAdjust="spacingAndGlyphs" textLength="21" x="462" y="765.4951">has</text>
        <polygon fill="#000000" points="468,774.3516,471,780.3516,474,774.3516,468,774.3516" style="stroke: #000000; stroke-width: 1.0;"/>
        <text fill="#000000" font-family="sans-serif" font-size="13" lengthAdjust="spacingAndGlyphs" textLength="7" x="474.9495" y="742.0635">1</text>
        <text fill="#000000" font-family="sans-serif" font-size="13" lengthAdjust="spacingAndGlyphs" textLength="23" x="405.4333" y="788.15">1,...</text>
        <path d="M523,721.049 C523,745.062 523,774.7 523,798.745 " fill="none" style="stroke: #A80036; stroke-width: 1.0;"/>
        <text fill="#000000" font-family="sans-serif" font-size="13" lengthAdjust="spacingAndGlyphs" textLength="21" x="524" y="765.4951">has</text>
        <polygon fill="#000000" points="530,774.3516,533,780.3516,536,774.3516,530,774.3516" style="stroke: #000000; stroke-width: 1.0;"/>
        <text fill="#000000" font-family="sans-serif" font-size="13" lengthAdjust="spacingAndGlyphs" textLength="7" x="515.5078" y="742.0635">1</text>
        <text fill="#000000" font-family="sans-serif" font-size="13" lengthAdjust="spacingAndGlyphs" textLength="7" x="515.4641" y="788.15">1</text>
        <path d="M580.8,695.826 C610.036,707.775 644.258,725.802 668,751 C711.575,797.247 728.476,872.833 734.673,913.674 " fill="none" style="stroke: #A80036; stroke-width: 1.0;"/>
        <polygon fill="#A80036" points="735.445,918.959,738.1044,909.476,734.7235,914.0113,730.1882,910.6304,735.445,918.959" style="stroke: #A80036; stroke-width: 1.0;"/>
        <text fill="#000000" font-family="sans-serif" font-size="13" lengthAdjust="spacingAndGlyphs" textLength="21" x="682" y="765.4951">has</text>
        <text fill="#000000" font-family="sans-serif" font-size="13" lengthAdjust="spacingAndGlyphs" textLength="7" x="588.6541" y="694.8949">1</text>
        <text fill="#000000" font-family="sans-serif" font-size="13" lengthAdjust="spacingAndGlyphs" textLength="7" x="726.8934" y="908.2887">1</text>
        <path d="M465.095,703.12 C409.551,728.175 324.469,766.555 257.467,796.779 " fill="none" style="stroke: #A80036; stroke-width: 1.0;"/>
        <polygon fill="#A80036" points="252.675,798.94,262.5237,798.8854,257.2327,796.884,259.2341,791.593,252.675,798.94" style="stroke: #A80036; stroke-width: 1.0;"/>
        <text fill="#000000" font-family="sans-serif" font-size="13" lengthAdjust="spacingAndGlyphs" textLength="21" x="352" y="765.4951">has</text>
        <text fill="#000000" font-family="sans-serif" font-size="13" lengthAdjust="spacingAndGlyphs" textLength="7" x="450.6113" y="702.9968">1</text>
        <text fill="#000000" font-family="sans-serif" font-size="13" lengthAdjust="spacingAndGlyphs" textLength="7" x="260.6841" y="788.0459">1</text>
        <path d="M253.119,889.108 C323.149,920.59 417.133,962.839 488.199,994.787 " fill="none" style="stroke: #A80036; stroke-width: 1.0;"/>
        <polygon fill="#A80036" points="492.847,996.876,486.2785,989.5374,488.2866,994.8258,482.9982,996.834,492.847,996.876" style="stroke: #A80036; stroke-width: 1.0;"/>
        <text fill="#000000" font-family="sans-serif" font-size="13" lengthAdjust="spacingAndGlyphs" textLength="21" x="426" y="948.4951">has</text>
        <text fill="#000000" font-family="sans-serif" font-size="13" lengthAdjust="spacingAndGlyphs" textLength="7" x="259.4248" y="910.1308">1</text>
        <text fill="#000000" font-family="sans-serif" font-size="13" lengthAdjust="spacingAndGlyphs" textLength="5" x="473.6927" y="986.9599">*</text>
        <path d="M640.323,1087.179 C660.71,1108.512 682.284,1135.801 694,1165 C714.858,1216.983 716.803,1281.136 714.444,1327.708 " fill="none" style="stroke: #A80036; stroke-width: 1.0;"/>
        <polygon fill="#A80036" points="714.17,1332.728,718.6552,1323.9597,714.4428,1327.7354,710.6671,1323.5231,714.17,1332.728" style="stroke: #A80036; stroke-width: 1.0;"/>
        <text fill="#000000" font-family="sans-serif" font-size="13" lengthAdjust="spacingAndGlyphs" textLength="37" x="715" y="1215.4951">knows</text>
        <text fill="#000000" font-family="sans-serif" font-size="13" lengthAdjust="spacingAndGlyphs" textLength="7" x="639.4805" y="1107.8767">1</text>
        <text fill="#000000" font-family="sans-serif" font-size="13" lengthAdjust="spacingAndGlyphs" textLength="7" x="707.4954" y="1322.0958">1</text>
        <path d="M486.856,1064.226 C431.282,1081.423 367.586,1111.878 334,1165 C264.482,1274.955 320.068,1429.239 367.162,1523.288 " fill="none" style="stroke: #A80036; stroke-width: 1.0;"/>
        <polygon fill="#A80036" points="369.539,1527.999,369.0578,1518.1619,367.2875,1523.5346,361.9148,1521.7643,369.539,1527.999" style="stroke: #A80036; stroke-width: 1.0;"/>
        <text fill="#000000" font-family="sans-serif" font-size="13" lengthAdjust="spacingAndGlyphs" textLength="37" x="303" y="1299.4951">knows</text>
        <text fill="#000000" font-family="sans-serif" font-size="13" lengthAdjust="spacingAndGlyphs" textLength="5" x="474.0243" y="1062.7968">*</text>
        <text fill="#000000" font-family="sans-serif" font-size="13" lengthAdjust="spacingAndGlyphs" textLength="7" x="357.8724" y="1517.1858">1</text>
        <path d="M596.131,996.655 C600.539,947.64 604.062,866.669 589,799 C583.261,773.214 570.321,747.126 557.406,725.729 " fill="none" style="stroke: #A80036; stroke-width: 1.0;"/>
        <polygon fill="#A80036" points="554.653,721.236,555.9444,730.9998,557.2653,725.4993,562.7658,726.8202,554.653,721.236" style="stroke: #A80036; stroke-width: 1.0;"/>
        <text fill="#000000" font-family="sans-serif" font-size="13" lengthAdjust="spacingAndGlyphs" textLength="37" x="601" y="849.4951">knows</text>
        <text fill="#000000" font-family="sans-serif" font-size="13" lengthAdjust="spacingAndGlyphs" textLength="5" x="591.5339" y="986.0463">*</text>
        <text fill="#000000" font-family="sans-serif" font-size="13" lengthAdjust="spacingAndGlyphs" textLength="7" x="551.4361" y="741.9414">1</text>
        <path d="M591,1087.049 C591,1109.374 591,1136.56 591,1159.594 " fill="none" style="stroke: #A80036; stroke-width: 1.0;"/>
        <polygon fill="#A80036" points="591,1164.745,595,1155.745,591,1159.745,587,1155.745,591,1164.745" style="stroke: #A80036; stroke-width: 1.0;"/>
        <text fill="#000000" font-family="sans-serif" font-size="13" lengthAdjust="spacingAndGlyphs" textLength="21" x="592" y="1131.4951">has</text>
        <text fill="#000000" font-family="sans-serif" font-size="13" lengthAdjust="spacingAndGlyphs" textLength="7" x="583.5078" y="1108.0635">1</text>
        <text fill="#000000" font-family="sans-serif" font-size="13" lengthAdjust="spacingAndGlyphs" textLength="7" x="583.4641" y="1154.15">1</text>
        <path d="M543.236,1087.049 C513.256,1114.697 475.191,1149.802 447.606,1175.241 " fill="none" style="stroke: #A80036; stroke-width: 1.0;"/>
        <polygon fill="#A80036" points="443.615,1178.922,452.9427,1175.7608,447.2905,1175.5322,447.5191,1169.88,443.615,1178.922" style="stroke: #A80036; stroke-width: 1.0;"/>
        <text fill="#000000" font-family="sans-serif" font-size="13" lengthAdjust="spacingAndGlyphs" textLength="21" x="508" y="1131.4951">has</text>
        <text fill="#000000" font-family="sans-serif" font-size="13" lengthAdjust="spacingAndGlyphs" textLength="7" x="529.027" y="1108.0635">1</text>
        <text fill="#000000" font-family="sans-serif" font-size="13" lengthAdjust="spacingAndGlyphs" textLength="7" x="442.9839" y="1167.9252">1</text>
        <path d="M619.921,1255.371 C634.255,1277.361 651.804,1304.284 667.454,1328.295 " fill="none" style="stroke: #A80036; stroke-width: 1.0;"/>
        <polygon fill="#A80036" points="670.353,1332.742,668.7913,1323.0178,667.6235,1328.5528,662.0885,1327.385,670.353,1332.742" style="stroke: #A80036; stroke-width: 1.0;"/>
        <text fill="#000000" font-family="sans-serif" font-size="13" lengthAdjust="spacingAndGlyphs" textLength="37" x="651" y="1299.4951">knows</text>
        <text fill="#000000" font-family="sans-serif" font-size="13" lengthAdjust="spacingAndGlyphs" textLength="7" x="616.3369" y="1276.0945">1</text>
        <text fill="#000000" font-family="sans-serif" font-size="13" lengthAdjust="spacingAndGlyphs" textLength="7" x="658.3382" y="1322.1115">1</text>
        <path d="M743.792,967.25 C755.869,1019.278 781.019,1148.861 761,1255 C756.345,1279.68 747.311,1305.629 738.002,1328.138 " fill="none" style="stroke: #A80036; stroke-width: 1.0;"/>
        <polygon fill="#A80036" points="736.013,1332.887,743.1811,1326.1329,737.9458,1328.2757,735.803,1323.0404,736.013,1332.887" style="stroke: #A80036; stroke-width: 1.0;"/>
        <text fill="#000000" font-family="sans-serif" font-size="13" lengthAdjust="spacingAndGlyphs" textLength="21" x="769" y="1131.4951">has</text>
        <text fill="#000000" font-family="sans-serif" font-size="13" lengthAdjust="spacingAndGlyphs" textLength="7" x="737.3507" y="988.6489">1</text>
        <text fill="#000000" font-family="sans-serif" font-size="13" lengthAdjust="spacingAndGlyphs" textLength="5" x="734.1224" y="1322.2741">*</text>
        <path d="M629.096,1450.13 C584.762,1482.51 529.85,1522.616 486.738,1554.104 " fill="none" style="stroke: #A80036; stroke-width: 1.0;"/>
        <polygon fill="#A80036" points="482.604,1557.124,492.2307,1555.0438,486.6411,1554.1741,487.5108,1548.5845,482.604,1557.124" style="stroke: #A80036; stroke-width: 1.0;"/>
        <text fill="#000000" font-family="sans-serif" font-size="13" lengthAdjust="spacingAndGlyphs" textLength="37" x="589" y="1494.4951">knows</text>
        <text fill="#000000" font-family="sans-serif" font-size="13" lengthAdjust="spacingAndGlyphs" textLength="5" x="614.1749" y="1471.7561">*</text>
        <text fill="#000000" font-family="sans-serif" font-size="13" lengthAdjust="spacingAndGlyphs" textLength="22" x="490.71" y="1548.6333">0, 1</text>
        <!--
@startuml CD
skinparam classAttributeIconSize 0
top to bottom direction

class ManColStatisticsUI {

}

class ManagerCollaboratorStatisticsController {
        + getFreelancers()
        + setFreelancers(Set<Freelancer> selected)
        + getMeanDelays()
        + getMeanPayments()
        + getStandardDeviationDelays()
        + getStandardDeviationPayments()
        + getHistogramDataDelays(Double bucketSize)
        + getHistogramDataPayments(Double bucketSize)
        + getNumberTransactions()
}


class App {
        + getRegistOrganization()
}

class RegistOrganization {
        + getOrganization (org)
}

class Organization {
        - String nome
        - String NIF
        + getListTransaction()
}

class Collaborator {
        - String nome
        - String email
        - String password
}

class Manager {
        - String nome
        - String email
        - String password
}

class ListTransaction {
        + getFreelancersOfAllTransactions()
        + getTransactionsOfFreelancers(Set<Freelancer> selected)
        + get(ID)
}

class Transaction {
        + madeToAny(Set<Freelancer> selected)
        + getTaskExecutionDetails()
        + getAmount()
}


class Task {
        - String id
        - String description
        - Integer durationInHours
        - Double costPerHourOfJuniorEur
        - String category
}

class TaskExecutionDetails {
        - LocalDate endDate
        - Integer delayInDays
        - String DescriptionQualityOfWork
}

class Freelancer {
        - String id
        - String name
        - String levelOfExpertise
        - String email
        - String NIF
        - String bankAccountIBAN
        - String address
        - String country
}

class PaymentDetails {
        Boolean isPaid
}

ManColStatisticsUI ..> ManagerCollaboratorStatisticsController
ManagerCollaboratorStatisticsController ..> App
ManagerCollaboratorStatisticsController ..> ListTransaction
ManagerCollaboratorStatisticsController ..> RegistOrganization
ManagerCollaboratorStatisticsController ..> Transaction

App                          "1" - -> "1"      RegistOrganization        : has
RegistOrganization           "1" - -> "*"      Organization              : has
Organization                 "1" - - "1,..."   Collaborator              : has >
Organization                 "1" - - "1"       Manager                   : has >
Organization                 "1" - -> "1"      ListTask                  : has
Organization                 "1" - -> "1"      ListTransaction           : has
ListTransaction              "1" - -> "*"      Transaction               : has
Transaction                  "1" - -> "1"      Task                      : knows
Transaction                  "*" - -> "1"      Freelancer                : knows
Transaction                  "*" - -> "1"      Organization              : knows
Transaction                  "1" - -> "1"      TaskExecutionDetails      : has
Transaction                  "1" - -> "1"      PaymentDetails            : has
TaskExecutionDetails         "1" - -> "1"      Task                      : knows
ListTask                     "1" - -> "*"      Task                      : has
Task                         "*" - -> "0, 1"   Freelancer                : knows


@enduml

PlantUML version 2017.11(Wed Apr 19 17:18:59 BST 2017)
(GPL source distribution)
Java Runtime: Java(TM) SE Runtime Environment
JVM: Java HotSpot(TM) 64-Bit Server VM
Java Version: 1.8.0_231-b11
Operating System: Windows 10
OS Version: 10.0
Default Encoding: UTF-8
Language: pt
Country: PT
-->
    </g>
</svg>
