<?xml version="1.0" encoding="UTF-8" standalone="no"?><svg xmlns="http://www.w3.org/2000/svg" xmlns:xlink="http://www.w3.org/1999/xlink" contentScriptType="application/ecmascript" contentStyleType="text/css" height="310px" preserveAspectRatio="none" style="width:150px;height:310px;" version="1.1" viewBox="0 0 150 310" width="150px" zoomAndPan="magnify"><defs><filter height="300%" id="feaboh2rlcjfy" width="300%" x="-1" y="-1"><feGaussianBlur result="blurOut" stdDeviation="2.0"/><feColorMatrix in="blurOut" result="blurOut2" type="matrix" values="0 0 0 0 0 0 0 0 0 0 0 0 0 0 0 0 0 0 .4 0"/><feOffset dx="4.0" dy="4.0" in="blurOut2" result="blurOut3"/><feBlend in="SourceGraphic" in2="blurOut3" mode="normal"/></filter></defs><g><!--MD5=[93f5d06084f8ff1d4c6a795dd778254f]
class SerializeUI--><rect fill="#FEFECE" filter="url(#feaboh2rlcjfy)" height="48" id="SerializeUI" style="stroke: #A80036; stroke-width: 1.5;" width="91" x="27" y="8"/><ellipse cx="42" cy="24" fill="#ADD1B2" rx="11" ry="11" style="stroke: #A80036; stroke-width: 1.0;"/><path d="M44.7656,19.875 Q44.9219,19.6563 45.1094,19.5469 Q45.2969,19.4375 45.5156,19.4375 Q45.8906,19.4375 46.125,19.7031 Q46.3594,19.9531 46.3594,20.5625 L46.3594,22.0156 Q46.3594,22.625 46.125,22.8906 Q45.8906,23.1563 45.5156,23.1563 Q45.1719,23.1563 44.9688,22.9531 Q44.7656,22.7656 44.6563,22.25 Q44.6094,21.8906 44.4219,21.7031 Q44.0938,21.3281 43.4844,21.1094 Q42.875,20.8906 42.25,20.8906 Q41.4844,20.8906 40.8438,21.2188 Q40.2188,21.5469 39.7188,22.2969 Q39.2344,23.0469 39.2344,24.0781 L39.2344,25.1719 Q39.2344,26.4063 40.125,27.2344 Q41.0156,28.0469 42.6094,28.0469 Q43.5469,28.0469 44.2031,27.7969 Q44.5938,27.6406 45.0156,27.2031 Q45.2813,26.9375 45.4219,26.8594 Q45.5781,26.7813 45.7813,26.7813 Q46.1094,26.7813 46.3594,27.0469 Q46.625,27.2969 46.625,27.6406 Q46.625,27.9844 46.2813,28.3906 Q45.7813,28.9688 44.9844,29.2969 Q43.9063,29.75 42.6094,29.75 Q41.0938,29.75 39.8906,29.125 Q38.9063,28.625 38.2188,27.5625 Q37.5313,26.4844 37.5313,25.2031 L37.5313,24.0469 Q37.5313,22.7188 38.1406,21.5781 Q38.7656,20.4219 39.8594,19.8125 Q40.9531,19.1875 42.1875,19.1875 Q42.9219,19.1875 43.5625,19.3594 Q44.2188,19.5156 44.7656,19.875 Z "/><text fill="#000000" font-family="sans-serif" font-size="12" lengthAdjust="spacingAndGlyphs" textLength="59" x="56" y="28.9102">SerializeUI</text><line style="stroke: #A80036; stroke-width: 1.5;" x1="28" x2="117" y1="40" y2="40"/><line style="stroke: #A80036; stroke-width: 1.5;" x1="28" x2="117" y1="48" y2="48"/><!--MD5=[d197cb8e1da4aceec8544c6aff1bc112]
class SerializeController--><rect fill="#FEFECE" filter="url(#feaboh2rlcjfy)" height="61.8359" id="SerializeController" style="stroke: #A80036; stroke-width: 1.5;" width="133" x="6" y="116"/><ellipse cx="21" cy="132" fill="#ADD1B2" rx="11" ry="11" style="stroke: #A80036; stroke-width: 1.0;"/><path d="M23.7656,127.875 Q23.9219,127.6563 24.1094,127.5469 Q24.2969,127.4375 24.5156,127.4375 Q24.8906,127.4375 25.125,127.7031 Q25.3594,127.9531 25.3594,128.5625 L25.3594,130.0156 Q25.3594,130.625 25.125,130.8906 Q24.8906,131.1563 24.5156,131.1563 Q24.1719,131.1563 23.9688,130.9531 Q23.7656,130.7656 23.6563,130.25 Q23.6094,129.8906 23.4219,129.7031 Q23.0938,129.3281 22.4844,129.1094 Q21.875,128.8906 21.25,128.8906 Q20.4844,128.8906 19.8438,129.2188 Q19.2188,129.5469 18.7188,130.2969 Q18.2344,131.0469 18.2344,132.0781 L18.2344,133.1719 Q18.2344,134.4063 19.125,135.2344 Q20.0156,136.0469 21.6094,136.0469 Q22.5469,136.0469 23.2031,135.7969 Q23.5938,135.6406 24.0156,135.2031 Q24.2813,134.9375 24.4219,134.8594 Q24.5781,134.7813 24.7813,134.7813 Q25.1094,134.7813 25.3594,135.0469 Q25.625,135.2969 25.625,135.6406 Q25.625,135.9844 25.2813,136.3906 Q24.7813,136.9688 23.9844,137.2969 Q22.9063,137.75 21.6094,137.75 Q20.0938,137.75 18.8906,137.125 Q17.9063,136.625 17.2188,135.5625 Q16.5313,134.4844 16.5313,133.2031 L16.5313,132.0469 Q16.5313,130.7188 17.1406,129.5781 Q17.7656,128.4219 18.8594,127.8125 Q19.9531,127.1875 21.1875,127.1875 Q21.9219,127.1875 22.5625,127.3594 Q23.2188,127.5156 23.7656,127.875 Z "/><text fill="#000000" font-family="sans-serif" font-size="12" lengthAdjust="spacingAndGlyphs" textLength="101" x="35" y="136.9102">SerializeController</text><line style="stroke: #A80036; stroke-width: 1.5;" x1="7" x2="138" y1="148" y2="148"/><line style="stroke: #A80036; stroke-width: 1.5;" x1="7" x2="138" y1="156" y2="156"/><text fill="#000000" font-family="sans-serif" font-size="11" lengthAdjust="spacingAndGlyphs" textLength="54" x="12" y="171.4189">+serialize()</text><!--MD5=[335f4d9be48430461c68bf6d6fdba145]
class App--><rect fill="#FEFECE" filter="url(#feaboh2rlcjfy)" height="61.8359" id="App" style="stroke: #A80036; stroke-width: 1.5;" width="118" x="13.5" y="238"/><ellipse cx="57.75" cy="254" fill="#ADD1B2" rx="11" ry="11" style="stroke: #A80036; stroke-width: 1.0;"/><path d="M60.5156,249.875 Q60.6719,249.6563 60.8594,249.5469 Q61.0469,249.4375 61.2656,249.4375 Q61.6406,249.4375 61.875,249.7031 Q62.1094,249.9531 62.1094,250.5625 L62.1094,252.0156 Q62.1094,252.625 61.875,252.8906 Q61.6406,253.1563 61.2656,253.1563 Q60.9219,253.1563 60.7188,252.9531 Q60.5156,252.7656 60.4063,252.25 Q60.3594,251.8906 60.1719,251.7031 Q59.8438,251.3281 59.2344,251.1094 Q58.625,250.8906 58,250.8906 Q57.2344,250.8906 56.5938,251.2188 Q55.9688,251.5469 55.4688,252.2969 Q54.9844,253.0469 54.9844,254.0781 L54.9844,255.1719 Q54.9844,256.4063 55.875,257.2344 Q56.7656,258.0469 58.3594,258.0469 Q59.2969,258.0469 59.9531,257.7969 Q60.3438,257.6406 60.7656,257.2031 Q61.0313,256.9375 61.1719,256.8594 Q61.3281,256.7813 61.5313,256.7813 Q61.8594,256.7813 62.1094,257.0469 Q62.375,257.2969 62.375,257.6406 Q62.375,257.9844 62.0313,258.3906 Q61.5313,258.9688 60.7344,259.2969 Q59.6563,259.75 58.3594,259.75 Q56.8438,259.75 55.6406,259.125 Q54.6563,258.625 53.9688,257.5625 Q53.2813,256.4844 53.2813,255.2031 L53.2813,254.0469 Q53.2813,252.7188 53.8906,251.5781 Q54.5156,250.4219 55.6094,249.8125 Q56.7031,249.1875 57.9375,249.1875 Q58.6719,249.1875 59.3125,249.3594 Q59.9688,249.5156 60.5156,249.875 Z "/><text fill="#000000" font-family="sans-serif" font-size="12" lengthAdjust="spacingAndGlyphs" textLength="21" x="78.25" y="258.9102">App</text><line style="stroke: #A80036; stroke-width: 1.5;" x1="14.5" x2="130.5" y1="270" y2="270"/><line style="stroke: #A80036; stroke-width: 1.5;" x1="14.5" x2="130.5" y1="278" y2="278"/><text fill="#000000" font-family="sans-serif" font-size="11" lengthAdjust="spacingAndGlyphs" textLength="106" x="19.5" y="293.4189">+serialize(String path)</text><!--MD5=[22fc3a371d5a68b0b50fb91bd468aac6]
link SerializeUI to SerializeController--><path d="M72.5,56.14 C72.5,71.705 72.5,92.533 72.5,110.218 " fill="none" id="SerializeUI-&gt;SerializeController" style="stroke: #A80036; stroke-width: 1.0; stroke-dasharray: 7.0,7.0;"/><polygon fill="#A80036" points="72.5,115.596,76.5,106.596,72.5,110.596,68.5,106.596,72.5,115.596" style="stroke: #A80036; stroke-width: 1.0;"/><!--MD5=[3e0b110fc9df7bbb67ffba593a363fb3]
link SerializeController to App--><path d="M72.5,178.281 C72.5,194.767 72.5,215.257 72.5,232.4923 " fill="none" id="SerializeController-&gt;App" style="stroke: #A80036; stroke-width: 1.0; stroke-dasharray: 7.0,7.0;"/><polygon fill="#A80036" points="72.5,237.7286,76.5,228.7286,72.5,232.7286,68.5,228.7286,72.5,237.7286" style="stroke: #A80036; stroke-width: 1.0;"/><!--MD5=[3ba6a90303e6fc3e17acef46ae459b51]
@startuml CD
skinparam classAttributeIconSize 0
top to bottom direction

class SerializeUI {

}

class SerializeController {
        + serialize()
}

SerializeUI ..> SerializeController

class App {
        + serialize(String path)
}

SerializeController ..> App

@enduml

PlantUML version 1.2020.10(Sun May 17 10:35:57 WEST 2020)
(GPL source distribution)
Java Runtime: OpenJDK Runtime Environment
JVM: OpenJDK 64-Bit Server VM
Java Version: 14+36
Operating System: Windows 10
Default Encoding: Cp1252
Language: en
Country: US
--></g></svg>