<?xml version="1.0" encoding="UTF-8" standalone="no"?><svg xmlns="http://www.w3.org/2000/svg" xmlns:xlink="http://www.w3.org/1999/xlink" contentScriptType="application/ecmascript" contentStyleType="text/css" height="1010px" preserveAspectRatio="none" style="width:1162px;height:1010px;" version="1.1" viewBox="0 0 1162 1010" width="1162px" zoomAndPan="magnify"><defs><filter height="300%" id="f16w7r0u8evvm8" width="300%" x="-1" y="-1"><feGaussianBlur result="blurOut" stdDeviation="2.0"/><feColorMatrix in="blurOut" result="blurOut2" type="matrix" values="0 0 0 0 0 0 0 0 0 0 0 0 0 0 0 0 0 0 .4 0"/><feOffset dx="4.0" dy="4.0" in="blurOut2" result="blurOut3"/><feBlend in="SourceGraphic" in2="blurOut3" mode="normal"/></filter></defs><g><!--MD5=[335f4d9be48430461c68bf6d6fdba145]
class App--><rect fill="#FEFECE" filter="url(#f16w7r0u8evvm8)" height="40" id="App" style="stroke: #A80036; stroke-width: 1.5;" width="53" x="6" y="678"/><ellipse cx="21" cy="694" fill="#ADD1B2" rx="11" ry="11" style="stroke: #A80036; stroke-width: 1.0;"/><path d="M23.7656,689.875 Q23.9219,689.6563 24.1094,689.5469 Q24.2969,689.4375 24.5156,689.4375 Q24.8906,689.4375 25.125,689.7031 Q25.3594,689.9531 25.3594,690.5625 L25.3594,692.0156 Q25.3594,692.625 25.125,692.8906 Q24.8906,693.1563 24.5156,693.1563 Q24.1719,693.1563 23.9688,692.9531 Q23.7656,692.7656 23.6563,692.25 Q23.6094,691.8906 23.4219,691.7031 Q23.0938,691.3281 22.4844,691.1094 Q21.875,690.8906 21.25,690.8906 Q20.4844,690.8906 19.8438,691.2188 Q19.2188,691.5469 18.7188,692.2969 Q18.2344,693.0469 18.2344,694.0781 L18.2344,695.1719 Q18.2344,696.4063 19.125,697.2344 Q20.0156,698.0469 21.6094,698.0469 Q22.5469,698.0469 23.2031,697.7969 Q23.5938,697.6406 24.0156,697.2031 Q24.2813,696.9375 24.4219,696.8594 Q24.5781,696.7813 24.7813,696.7813 Q25.1094,696.7813 25.3594,697.0469 Q25.625,697.2969 25.625,697.6406 Q25.625,697.9844 25.2813,698.3906 Q24.7813,698.9688 23.9844,699.2969 Q22.9063,699.75 21.6094,699.75 Q20.0938,699.75 18.8906,699.125 Q17.9063,698.625 17.2188,697.5625 Q16.5313,696.4844 16.5313,695.2031 L16.5313,694.0469 Q16.5313,692.7188 17.1406,691.5781 Q17.7656,690.4219 18.8594,689.8125 Q19.9531,689.1875 21.1875,689.1875 Q21.9219,689.1875 22.5625,689.3594 Q23.2188,689.5156 23.7656,689.875 Z "/><text fill="#000000" font-family="sans-serif" font-size="12" lengthAdjust="spacingAndGlyphs" textLength="21" x="35" y="698.9102">App</text><line style="stroke: #A80036; stroke-width: 1.5;" x1="7" x2="58" y1="710" y2="710"/><!--MD5=[86c7c362de55a38b660185a1328fe18d]
class Organization--><rect fill="#FEFECE" filter="url(#f16w7r0u8evvm8)" height="67.6719" id="Organization" style="stroke: #A80036; stroke-width: 1.5;" width="101" x="225.5" y="327"/><ellipse cx="240.5" cy="343" fill="#ADD1B2" rx="11" ry="11" style="stroke: #A80036; stroke-width: 1.0;"/><path d="M243.2656,338.875 Q243.4219,338.6563 243.6094,338.5469 Q243.7969,338.4375 244.0156,338.4375 Q244.3906,338.4375 244.625,338.7031 Q244.8594,338.9531 244.8594,339.5625 L244.8594,341.0156 Q244.8594,341.625 244.625,341.8906 Q244.3906,342.1563 244.0156,342.1563 Q243.6719,342.1563 243.4688,341.9531 Q243.2656,341.7656 243.1563,341.25 Q243.1094,340.8906 242.9219,340.7031 Q242.5938,340.3281 241.9844,340.1094 Q241.375,339.8906 240.75,339.8906 Q239.9844,339.8906 239.3438,340.2188 Q238.7188,340.5469 238.2188,341.2969 Q237.7344,342.0469 237.7344,343.0781 L237.7344,344.1719 Q237.7344,345.4063 238.625,346.2344 Q239.5156,347.0469 241.1094,347.0469 Q242.0469,347.0469 242.7031,346.7969 Q243.0938,346.6406 243.5156,346.2031 Q243.7813,345.9375 243.9219,345.8594 Q244.0781,345.7813 244.2813,345.7813 Q244.6094,345.7813 244.8594,346.0469 Q245.125,346.2969 245.125,346.6406 Q245.125,346.9844 244.7813,347.3906 Q244.2813,347.9688 243.4844,348.2969 Q242.4063,348.75 241.1094,348.75 Q239.5938,348.75 238.3906,348.125 Q237.4063,347.625 236.7188,346.5625 Q236.0313,345.4844 236.0313,344.2031 L236.0313,343.0469 Q236.0313,341.7188 236.6406,340.5781 Q237.2656,339.4219 238.3594,338.8125 Q239.4531,338.1875 240.6875,338.1875 Q241.4219,338.1875 242.0625,338.3594 Q242.7188,338.5156 243.2656,338.875 Z "/><text fill="#000000" font-family="sans-serif" font-size="12" lengthAdjust="spacingAndGlyphs" textLength="69" x="254.5" y="347.9102">Organization</text><line style="stroke: #A80036; stroke-width: 1.5;" x1="226.5" x2="325.5" y1="359" y2="359"/><text fill="#000000" font-family="sans-serif" font-size="11" lengthAdjust="spacingAndGlyphs" textLength="61" x="231.5" y="374.4189">-String name</text><text fill="#000000" font-family="sans-serif" font-size="11" lengthAdjust="spacingAndGlyphs" textLength="50" x="231.5" y="388.2549">-String NIF</text><!--MD5=[4555bb1b0911a5adf28ce6dbe60fed2e]
class Transaction--><rect fill="#FEFECE" filter="url(#f16w7r0u8evvm8)" height="40" id="Transaction" style="stroke: #A80036; stroke-width: 1.5;" width="97" x="728" y="29"/><ellipse cx="743" cy="45" fill="#ADD1B2" rx="11" ry="11" style="stroke: #A80036; stroke-width: 1.0;"/><path d="M745.7656,40.875 Q745.9219,40.6563 746.1094,40.5469 Q746.2969,40.4375 746.5156,40.4375 Q746.8906,40.4375 747.125,40.7031 Q747.3594,40.9531 747.3594,41.5625 L747.3594,43.0156 Q747.3594,43.625 747.125,43.8906 Q746.8906,44.1563 746.5156,44.1563 Q746.1719,44.1563 745.9688,43.9531 Q745.7656,43.7656 745.6563,43.25 Q745.6094,42.8906 745.4219,42.7031 Q745.0938,42.3281 744.4844,42.1094 Q743.875,41.8906 743.25,41.8906 Q742.4844,41.8906 741.8438,42.2188 Q741.2188,42.5469 740.7188,43.2969 Q740.2344,44.0469 740.2344,45.0781 L740.2344,46.1719 Q740.2344,47.4063 741.125,48.2344 Q742.0156,49.0469 743.6094,49.0469 Q744.5469,49.0469 745.2031,48.7969 Q745.5938,48.6406 746.0156,48.2031 Q746.2813,47.9375 746.4219,47.8594 Q746.5781,47.7813 746.7813,47.7813 Q747.1094,47.7813 747.3594,48.0469 Q747.625,48.2969 747.625,48.6406 Q747.625,48.9844 747.2813,49.3906 Q746.7813,49.9688 745.9844,50.2969 Q744.9063,50.75 743.6094,50.75 Q742.0938,50.75 740.8906,50.125 Q739.9063,49.625 739.2188,48.5625 Q738.5313,47.4844 738.5313,46.2031 L738.5313,45.0469 Q738.5313,43.7188 739.1406,42.5781 Q739.7656,41.4219 740.8594,40.8125 Q741.9531,40.1875 743.1875,40.1875 Q743.9219,40.1875 744.5625,40.3594 Q745.2188,40.5156 745.7656,40.875 Z "/><text fill="#000000" font-family="sans-serif" font-size="12" lengthAdjust="spacingAndGlyphs" textLength="65" x="757" y="49.9102">Transaction</text><line style="stroke: #A80036; stroke-width: 1.5;" x1="729" x2="824" y1="61" y2="61"/><!--MD5=[b34797a66dc35cbf1d65f7e3ca75530e]
class Task--><rect fill="#FEFECE" filter="url(#f16w7r0u8evvm8)" height="109.1797" id="Task" style="stroke: #A80036; stroke-width: 1.5;" width="169" x="498" y="175.5"/><ellipse cx="564.75" cy="191.5" fill="#ADD1B2" rx="11" ry="11" style="stroke: #A80036; stroke-width: 1.0;"/><path d="M567.5156,187.375 Q567.6719,187.1563 567.8594,187.0469 Q568.0469,186.9375 568.2656,186.9375 Q568.6406,186.9375 568.875,187.2031 Q569.1094,187.4531 569.1094,188.0625 L569.1094,189.5156 Q569.1094,190.125 568.875,190.3906 Q568.6406,190.6563 568.2656,190.6563 Q567.9219,190.6563 567.7188,190.4531 Q567.5156,190.2656 567.4063,189.75 Q567.3594,189.3906 567.1719,189.2031 Q566.8438,188.8281 566.2344,188.6094 Q565.625,188.3906 565,188.3906 Q564.2344,188.3906 563.5938,188.7188 Q562.9688,189.0469 562.4688,189.7969 Q561.9844,190.5469 561.9844,191.5781 L561.9844,192.6719 Q561.9844,193.9063 562.875,194.7344 Q563.7656,195.5469 565.3594,195.5469 Q566.2969,195.5469 566.9531,195.2969 Q567.3438,195.1406 567.7656,194.7031 Q568.0313,194.4375 568.1719,194.3594 Q568.3281,194.2813 568.5313,194.2813 Q568.8594,194.2813 569.1094,194.5469 Q569.375,194.7969 569.375,195.1406 Q569.375,195.4844 569.0313,195.8906 Q568.5313,196.4688 567.7344,196.7969 Q566.6563,197.25 565.3594,197.25 Q563.8438,197.25 562.6406,196.625 Q561.6563,196.125 560.9688,195.0625 Q560.2813,193.9844 560.2813,192.7031 L560.2813,191.5469 Q560.2813,190.2188 560.8906,189.0781 Q561.5156,187.9219 562.6094,187.3125 Q563.7031,186.6875 564.9375,186.6875 Q565.6719,186.6875 566.3125,186.8594 Q566.9688,187.0156 567.5156,187.375 Z "/><text fill="#000000" font-family="sans-serif" font-size="12" lengthAdjust="spacingAndGlyphs" textLength="27" x="585.25" y="196.4102">Task</text><line style="stroke: #A80036; stroke-width: 1.5;" x1="499" x2="666" y1="207.5" y2="207.5"/><text fill="#000000" font-family="sans-serif" font-size="11" lengthAdjust="spacingAndGlyphs" textLength="43" x="504" y="222.9189">-String id</text><text fill="#000000" font-family="sans-serif" font-size="11" lengthAdjust="spacingAndGlyphs" textLength="88" x="504" y="236.7549">-String description</text><text fill="#000000" font-family="sans-serif" font-size="11" lengthAdjust="spacingAndGlyphs" textLength="116" x="504" y="250.5908">-Integer durationInHours</text><text fill="#000000" font-family="sans-serif" font-size="11" lengthAdjust="spacingAndGlyphs" textLength="157" x="504" y="264.4268">-Double costPerHourOfJuniorEur</text><text fill="#000000" font-family="sans-serif" font-size="11" lengthAdjust="spacingAndGlyphs" textLength="78" x="504" y="278.2627">-String category</text><!--MD5=[c0dc12954b7564a58826a1327fba5c89]
class PaymentDetails--><rect fill="#FEFECE" filter="url(#f16w7r0u8evvm8)" height="53.8359" id="PaymentDetails" style="stroke: #A80036; stroke-width: 1.5;" width="119" x="523" y="86"/><ellipse cx="538" cy="102" fill="#ADD1B2" rx="11" ry="11" style="stroke: #A80036; stroke-width: 1.0;"/><path d="M540.7656,97.875 Q540.9219,97.6563 541.1094,97.5469 Q541.2969,97.4375 541.5156,97.4375 Q541.8906,97.4375 542.125,97.7031 Q542.3594,97.9531 542.3594,98.5625 L542.3594,100.0156 Q542.3594,100.625 542.125,100.8906 Q541.8906,101.1563 541.5156,101.1563 Q541.1719,101.1563 540.9688,100.9531 Q540.7656,100.7656 540.6563,100.25 Q540.6094,99.8906 540.4219,99.7031 Q540.0938,99.3281 539.4844,99.1094 Q538.875,98.8906 538.25,98.8906 Q537.4844,98.8906 536.8438,99.2188 Q536.2188,99.5469 535.7188,100.2969 Q535.2344,101.0469 535.2344,102.0781 L535.2344,103.1719 Q535.2344,104.4063 536.125,105.2344 Q537.0156,106.0469 538.6094,106.0469 Q539.5469,106.0469 540.2031,105.7969 Q540.5938,105.6406 541.0156,105.2031 Q541.2813,104.9375 541.4219,104.8594 Q541.5781,104.7813 541.7813,104.7813 Q542.1094,104.7813 542.3594,105.0469 Q542.625,105.2969 542.625,105.6406 Q542.625,105.9844 542.2813,106.3906 Q541.7813,106.9688 540.9844,107.2969 Q539.9063,107.75 538.6094,107.75 Q537.0938,107.75 535.8906,107.125 Q534.9063,106.625 534.2188,105.5625 Q533.5313,104.4844 533.5313,103.2031 L533.5313,102.0469 Q533.5313,100.7188 534.1406,99.5781 Q534.7656,98.4219 535.8594,97.8125 Q536.9531,97.1875 538.1875,97.1875 Q538.9219,97.1875 539.5625,97.3594 Q540.2188,97.5156 540.7656,97.875 Z "/><text fill="#000000" font-family="sans-serif" font-size="12" lengthAdjust="spacingAndGlyphs" textLength="87" x="552" y="106.9102">PaymentDetails</text><line style="stroke: #A80036; stroke-width: 1.5;" x1="524" x2="641" y1="118" y2="118"/><text fill="#000000" font-family="sans-serif" font-size="11" lengthAdjust="spacingAndGlyphs" textLength="70" x="529" y="133.4189">Boolean isPaid</text><!--MD5=[f9fa7692a1144bec397c3ffa19589ca2]
class TaskExecutionDetails--><rect fill="#FEFECE" filter="url(#f16w7r0u8evvm8)" height="81.5078" id="TaskExecutionDetails" style="stroke: #A80036; stroke-width: 1.5;" width="171" x="980" y="8"/><ellipse cx="1004" cy="24" fill="#ADD1B2" rx="11" ry="11" style="stroke: #A80036; stroke-width: 1.0;"/><path d="M1006.7656,19.875 Q1006.9219,19.6563 1007.1094,19.5469 Q1007.2969,19.4375 1007.5156,19.4375 Q1007.8906,19.4375 1008.125,19.7031 Q1008.3594,19.9531 1008.3594,20.5625 L1008.3594,22.0156 Q1008.3594,22.625 1008.125,22.8906 Q1007.8906,23.1563 1007.5156,23.1563 Q1007.1719,23.1563 1006.9688,22.9531 Q1006.7656,22.7656 1006.6563,22.25 Q1006.6094,21.8906 1006.4219,21.7031 Q1006.0938,21.3281 1005.4844,21.1094 Q1004.875,20.8906 1004.25,20.8906 Q1003.4844,20.8906 1002.8438,21.2188 Q1002.2188,21.5469 1001.7188,22.2969 Q1001.2344,23.0469 1001.2344,24.0781 L1001.2344,25.1719 Q1001.2344,26.4063 1002.125,27.2344 Q1003.0156,28.0469 1004.6094,28.0469 Q1005.5469,28.0469 1006.2031,27.7969 Q1006.5938,27.6406 1007.0156,27.2031 Q1007.2813,26.9375 1007.4219,26.8594 Q1007.5781,26.7813 1007.7813,26.7813 Q1008.1094,26.7813 1008.3594,27.0469 Q1008.625,27.2969 1008.625,27.6406 Q1008.625,27.9844 1008.2813,28.3906 Q1007.7813,28.9688 1006.9844,29.2969 Q1005.9063,29.75 1004.6094,29.75 Q1003.0938,29.75 1001.8906,29.125 Q1000.9063,28.625 1000.2188,27.5625 Q999.5313,26.4844 999.5313,25.2031 L999.5313,24.0469 Q999.5313,22.7188 1000.1406,21.5781 Q1000.7656,20.4219 1001.8594,19.8125 Q1002.9531,19.1875 1004.1875,19.1875 Q1004.9219,19.1875 1005.5625,19.3594 Q1006.2188,19.5156 1006.7656,19.875 Z "/><text fill="#000000" font-family="sans-serif" font-size="12" lengthAdjust="spacingAndGlyphs" textLength="119" x="1020" y="28.9102">TaskExecutionDetails</text><line style="stroke: #A80036; stroke-width: 1.5;" x1="981" x2="1150" y1="40" y2="40"/><text fill="#000000" font-family="sans-serif" font-size="11" lengthAdjust="spacingAndGlyphs" textLength="95" x="986" y="55.4189">-LocalDate endDate</text><text fill="#000000" font-family="sans-serif" font-size="11" lengthAdjust="spacingAndGlyphs" textLength="99" x="986" y="69.2549">-Integer delayInDays</text><text fill="#000000" font-family="sans-serif" font-size="11" lengthAdjust="spacingAndGlyphs" textLength="159" x="986" y="83.0908">-String DescriptionQualityOfWork</text><!--MD5=[f483d6e5de34a60207b28a5563be5e8b]
class Collaborator--><rect fill="#FEFECE" filter="url(#f16w7r0u8evvm8)" height="81.5078" id="Collaborator" style="stroke: #A80036; stroke-width: 1.5;" width="100" x="532.5" y="320"/><ellipse cx="547.5" cy="336" fill="#ADD1B2" rx="11" ry="11" style="stroke: #A80036; stroke-width: 1.0;"/><path d="M550.2656,331.875 Q550.4219,331.6563 550.6094,331.5469 Q550.7969,331.4375 551.0156,331.4375 Q551.3906,331.4375 551.625,331.7031 Q551.8594,331.9531 551.8594,332.5625 L551.8594,334.0156 Q551.8594,334.625 551.625,334.8906 Q551.3906,335.1563 551.0156,335.1563 Q550.6719,335.1563 550.4688,334.9531 Q550.2656,334.7656 550.1563,334.25 Q550.1094,333.8906 549.9219,333.7031 Q549.5938,333.3281 548.9844,333.1094 Q548.375,332.8906 547.75,332.8906 Q546.9844,332.8906 546.3438,333.2188 Q545.7188,333.5469 545.2188,334.2969 Q544.7344,335.0469 544.7344,336.0781 L544.7344,337.1719 Q544.7344,338.4063 545.625,339.2344 Q546.5156,340.0469 548.1094,340.0469 Q549.0469,340.0469 549.7031,339.7969 Q550.0938,339.6406 550.5156,339.2031 Q550.7813,338.9375 550.9219,338.8594 Q551.0781,338.7813 551.2813,338.7813 Q551.6094,338.7813 551.8594,339.0469 Q552.125,339.2969 552.125,339.6406 Q552.125,339.9844 551.7813,340.3906 Q551.2813,340.9688 550.4844,341.2969 Q549.4063,341.75 548.1094,341.75 Q546.5938,341.75 545.3906,341.125 Q544.4063,340.625 543.7188,339.5625 Q543.0313,338.4844 543.0313,337.2031 L543.0313,336.0469 Q543.0313,334.7188 543.6406,333.5781 Q544.2656,332.4219 545.3594,331.8125 Q546.4531,331.1875 547.6875,331.1875 Q548.4219,331.1875 549.0625,331.3594 Q549.7188,331.5156 550.2656,331.875 Z "/><text fill="#000000" font-family="sans-serif" font-size="12" lengthAdjust="spacingAndGlyphs" textLength="68" x="561.5" y="340.9102">Collaborator</text><line style="stroke: #A80036; stroke-width: 1.5;" x1="533.5" x2="631.5" y1="352" y2="352"/><text fill="#000000" font-family="sans-serif" font-size="11" lengthAdjust="spacingAndGlyphs" textLength="61" x="538.5" y="367.4189">-String name</text><text fill="#000000" font-family="sans-serif" font-size="11" lengthAdjust="spacingAndGlyphs" textLength="59" x="538.5" y="381.2549">-String email</text><text fill="#000000" font-family="sans-serif" font-size="11" lengthAdjust="spacingAndGlyphs" textLength="85" x="538.5" y="395.0908">-String password</text><!--MD5=[b24ed8d4ae84bae9290d9aab401637c7]
class Manager--><rect fill="#FEFECE" filter="url(#f16w7r0u8evvm8)" height="81.5078" id="Manager" style="stroke: #A80036; stroke-width: 1.5;" width="97" x="534" y="437"/><ellipse cx="556.65" cy="453" fill="#ADD1B2" rx="11" ry="11" style="stroke: #A80036; stroke-width: 1.0;"/><path d="M559.4156,448.875 Q559.5719,448.6563 559.7594,448.5469 Q559.9469,448.4375 560.1656,448.4375 Q560.5406,448.4375 560.775,448.7031 Q561.0094,448.9531 561.0094,449.5625 L561.0094,451.0156 Q561.0094,451.625 560.775,451.8906 Q560.5406,452.1563 560.1656,452.1563 Q559.8219,452.1563 559.6188,451.9531 Q559.4156,451.7656 559.3063,451.25 Q559.2594,450.8906 559.0719,450.7031 Q558.7438,450.3281 558.1344,450.1094 Q557.525,449.8906 556.9,449.8906 Q556.1344,449.8906 555.4938,450.2188 Q554.8688,450.5469 554.3688,451.2969 Q553.8844,452.0469 553.8844,453.0781 L553.8844,454.1719 Q553.8844,455.4063 554.775,456.2344 Q555.6656,457.0469 557.2594,457.0469 Q558.1969,457.0469 558.8531,456.7969 Q559.2438,456.6406 559.6656,456.2031 Q559.9313,455.9375 560.0719,455.8594 Q560.2281,455.7813 560.4313,455.7813 Q560.7594,455.7813 561.0094,456.0469 Q561.275,456.2969 561.275,456.6406 Q561.275,456.9844 560.9313,457.3906 Q560.4313,457.9688 559.6344,458.2969 Q558.5563,458.75 557.2594,458.75 Q555.7438,458.75 554.5406,458.125 Q553.5563,457.625 552.8688,456.5625 Q552.1813,455.4844 552.1813,454.2031 L552.1813,453.0469 Q552.1813,451.7188 552.7906,450.5781 Q553.4156,449.4219 554.5094,448.8125 Q555.6031,448.1875 556.8375,448.1875 Q557.5719,448.1875 558.2125,448.3594 Q558.8688,448.5156 559.4156,448.875 Z "/><text fill="#000000" font-family="sans-serif" font-size="12" lengthAdjust="spacingAndGlyphs" textLength="48" x="572.35" y="457.9102">Manager</text><line style="stroke: #A80036; stroke-width: 1.5;" x1="535" x2="630" y1="469" y2="469"/><text fill="#000000" font-family="sans-serif" font-size="11" lengthAdjust="spacingAndGlyphs" textLength="61" x="540" y="484.4189">-String name</text><text fill="#000000" font-family="sans-serif" font-size="11" lengthAdjust="spacingAndGlyphs" textLength="59" x="540" y="498.2549">-String email</text><text fill="#000000" font-family="sans-serif" font-size="11" lengthAdjust="spacingAndGlyphs" textLength="85" x="540" y="512.0908">-String password</text><!--MD5=[dc84a4e894a42f8e8d7fc762e5a59f92]
class PaymentScheduler--><rect fill="#FEFECE" filter="url(#f16w7r0u8evvm8)" height="67.6719" id="PaymentScheduler" style="stroke: #A80036; stroke-width: 1.5;" width="136" x="514.5" y="554"/><ellipse cx="529.5" cy="570" fill="#ADD1B2" rx="11" ry="11" style="stroke: #A80036; stroke-width: 1.0;"/><path d="M532.2656,565.875 Q532.4219,565.6563 532.6094,565.5469 Q532.7969,565.4375 533.0156,565.4375 Q533.3906,565.4375 533.625,565.7031 Q533.8594,565.9531 533.8594,566.5625 L533.8594,568.0156 Q533.8594,568.625 533.625,568.8906 Q533.3906,569.1563 533.0156,569.1563 Q532.6719,569.1563 532.4688,568.9531 Q532.2656,568.7656 532.1563,568.25 Q532.1094,567.8906 531.9219,567.7031 Q531.5938,567.3281 530.9844,567.1094 Q530.375,566.8906 529.75,566.8906 Q528.9844,566.8906 528.3438,567.2188 Q527.7188,567.5469 527.2188,568.2969 Q526.7344,569.0469 526.7344,570.0781 L526.7344,571.1719 Q526.7344,572.4063 527.625,573.2344 Q528.5156,574.0469 530.1094,574.0469 Q531.0469,574.0469 531.7031,573.7969 Q532.0938,573.6406 532.5156,573.2031 Q532.7813,572.9375 532.9219,572.8594 Q533.0781,572.7813 533.2813,572.7813 Q533.6094,572.7813 533.8594,573.0469 Q534.125,573.2969 534.125,573.6406 Q534.125,573.9844 533.7813,574.3906 Q533.2813,574.9688 532.4844,575.2969 Q531.4063,575.75 530.1094,575.75 Q528.5938,575.75 527.3906,575.125 Q526.4063,574.625 525.7188,573.5625 Q525.0313,572.4844 525.0313,571.2031 L525.0313,570.0469 Q525.0313,568.7188 525.6406,567.5781 Q526.2656,566.4219 527.3594,565.8125 Q528.4531,565.1875 529.6875,565.1875 Q530.4219,565.1875 531.0625,565.3594 Q531.7188,565.5156 532.2656,565.875 Z "/><text fill="#000000" font-family="sans-serif" font-size="12" lengthAdjust="spacingAndGlyphs" textLength="104" x="543.5" y="574.9102">PaymentScheduler</text><line style="stroke: #A80036; stroke-width: 1.5;" x1="515.5" x2="649.5" y1="586" y2="586"/><text fill="#000000" font-family="sans-serif" font-size="11" lengthAdjust="spacingAndGlyphs" textLength="87" x="520.5" y="601.4189">-Integer dayMonth</text><text fill="#000000" font-family="sans-serif" font-size="11" lengthAdjust="spacingAndGlyphs" textLength="105" x="520.5" y="615.2549">-LocalTime timeOfDay</text><!--MD5=[da547346deef918ea16944ba046651ef]
class Administrator--><rect fill="#FEFECE" filter="url(#f16w7r0u8evvm8)" height="81.5078" id="Administrator" style="stroke: #A80036; stroke-width: 1.5;" width="105" x="223.5" y="430"/><ellipse cx="238.5" cy="446" fill="#ADD1B2" rx="11" ry="11" style="stroke: #A80036; stroke-width: 1.0;"/><path d="M241.2656,441.875 Q241.4219,441.6563 241.6094,441.5469 Q241.7969,441.4375 242.0156,441.4375 Q242.3906,441.4375 242.625,441.7031 Q242.8594,441.9531 242.8594,442.5625 L242.8594,444.0156 Q242.8594,444.625 242.625,444.8906 Q242.3906,445.1563 242.0156,445.1563 Q241.6719,445.1563 241.4688,444.9531 Q241.2656,444.7656 241.1563,444.25 Q241.1094,443.8906 240.9219,443.7031 Q240.5938,443.3281 239.9844,443.1094 Q239.375,442.8906 238.75,442.8906 Q237.9844,442.8906 237.3438,443.2188 Q236.7188,443.5469 236.2188,444.2969 Q235.7344,445.0469 235.7344,446.0781 L235.7344,447.1719 Q235.7344,448.4063 236.625,449.2344 Q237.5156,450.0469 239.1094,450.0469 Q240.0469,450.0469 240.7031,449.7969 Q241.0938,449.6406 241.5156,449.2031 Q241.7813,448.9375 241.9219,448.8594 Q242.0781,448.7813 242.2813,448.7813 Q242.6094,448.7813 242.8594,449.0469 Q243.125,449.2969 243.125,449.6406 Q243.125,449.9844 242.7813,450.3906 Q242.2813,450.9688 241.4844,451.2969 Q240.4063,451.75 239.1094,451.75 Q237.5938,451.75 236.3906,451.125 Q235.4063,450.625 234.7188,449.5625 Q234.0313,448.4844 234.0313,447.2031 L234.0313,446.0469 Q234.0313,444.7188 234.6406,443.5781 Q235.2656,442.4219 236.3594,441.8125 Q237.4531,441.1875 238.6875,441.1875 Q239.4219,441.1875 240.0625,441.3594 Q240.7188,441.5156 241.2656,441.875 Z "/><text fill="#000000" font-family="sans-serif" font-size="12" lengthAdjust="spacingAndGlyphs" textLength="73" x="252.5" y="450.9102">Administrator</text><line style="stroke: #A80036; stroke-width: 1.5;" x1="224.5" x2="327.5" y1="462" y2="462"/><text fill="#000000" font-family="sans-serif" font-size="11" lengthAdjust="spacingAndGlyphs" textLength="61" x="229.5" y="477.4189">-String name</text><text fill="#000000" font-family="sans-serif" font-size="11" lengthAdjust="spacingAndGlyphs" textLength="59" x="229.5" y="491.2549">-String email</text><text fill="#000000" font-family="sans-serif" font-size="11" lengthAdjust="spacingAndGlyphs" textLength="85" x="229.5" y="505.0908">-String password</text><!--MD5=[942000697ba2ca87a591befaf65c4861]
class EmailScheduler--><rect fill="#FEFECE" filter="url(#f16w7r0u8evvm8)" height="40" id="EmailScheduler" style="stroke: #A80036; stroke-width: 1.5;" width="120" x="216" y="547"/><ellipse cx="231" cy="563" fill="#ADD1B2" rx="11" ry="11" style="stroke: #A80036; stroke-width: 1.0;"/><path d="M233.7656,558.875 Q233.9219,558.6563 234.1094,558.5469 Q234.2969,558.4375 234.5156,558.4375 Q234.8906,558.4375 235.125,558.7031 Q235.3594,558.9531 235.3594,559.5625 L235.3594,561.0156 Q235.3594,561.625 235.125,561.8906 Q234.8906,562.1563 234.5156,562.1563 Q234.1719,562.1563 233.9688,561.9531 Q233.7656,561.7656 233.6563,561.25 Q233.6094,560.8906 233.4219,560.7031 Q233.0938,560.3281 232.4844,560.1094 Q231.875,559.8906 231.25,559.8906 Q230.4844,559.8906 229.8438,560.2188 Q229.2188,560.5469 228.7188,561.2969 Q228.2344,562.0469 228.2344,563.0781 L228.2344,564.1719 Q228.2344,565.4063 229.125,566.2344 Q230.0156,567.0469 231.6094,567.0469 Q232.5469,567.0469 233.2031,566.7969 Q233.5938,566.6406 234.0156,566.2031 Q234.2813,565.9375 234.4219,565.8594 Q234.5781,565.7813 234.7813,565.7813 Q235.1094,565.7813 235.3594,566.0469 Q235.625,566.2969 235.625,566.6406 Q235.625,566.9844 235.2813,567.3906 Q234.7813,567.9688 233.9844,568.2969 Q232.9063,568.75 231.6094,568.75 Q230.0938,568.75 228.8906,568.125 Q227.9063,567.625 227.2188,566.5625 Q226.5313,565.4844 226.5313,564.2031 L226.5313,563.0469 Q226.5313,561.7188 227.1406,560.5781 Q227.7656,559.4219 228.8594,558.8125 Q229.9531,558.1875 231.1875,558.1875 Q231.9219,558.1875 232.5625,558.3594 Q233.2188,558.5156 233.7656,558.875 Z "/><text fill="#000000" font-family="sans-serif" font-size="12" lengthAdjust="spacingAndGlyphs" textLength="88" x="245" y="567.9102">EmailScheduler</text><line style="stroke: #A80036; stroke-width: 1.5;" x1="217" x2="335" y1="579" y2="579"/><!--MD5=[1f687b5315377fe49fca59b457947463]
class Freelancer--><rect fill="#FEFECE" filter="url(#f16w7r0u8evvm8)" height="150.6875" id="Freelancer" style="stroke: #A80036; stroke-width: 1.5;" width="135" x="208.5" y="622.5"/><ellipse cx="243.3" cy="638.5" fill="#ADD1B2" rx="11" ry="11" style="stroke: #A80036; stroke-width: 1.0;"/><path d="M246.0656,634.375 Q246.2219,634.1563 246.4094,634.0469 Q246.5969,633.9375 246.8156,633.9375 Q247.1906,633.9375 247.425,634.2031 Q247.6594,634.4531 247.6594,635.0625 L247.6594,636.5156 Q247.6594,637.125 247.425,637.3906 Q247.1906,637.6563 246.8156,637.6563 Q246.4719,637.6563 246.2688,637.4531 Q246.0656,637.2656 245.9563,636.75 Q245.9094,636.3906 245.7219,636.2031 Q245.3938,635.8281 244.7844,635.6094 Q244.175,635.3906 243.55,635.3906 Q242.7844,635.3906 242.1438,635.7188 Q241.5188,636.0469 241.0188,636.7969 Q240.5344,637.5469 240.5344,638.5781 L240.5344,639.6719 Q240.5344,640.9063 241.425,641.7344 Q242.3156,642.5469 243.9094,642.5469 Q244.8469,642.5469 245.5031,642.2969 Q245.8938,642.1406 246.3156,641.7031 Q246.5813,641.4375 246.7219,641.3594 Q246.8781,641.2813 247.0813,641.2813 Q247.4094,641.2813 247.6594,641.5469 Q247.925,641.7969 247.925,642.1406 Q247.925,642.4844 247.5813,642.8906 Q247.0813,643.4688 246.2844,643.7969 Q245.2063,644.25 243.9094,644.25 Q242.3938,644.25 241.1906,643.625 Q240.2063,643.125 239.5188,642.0625 Q238.8313,640.9844 238.8313,639.7031 L238.8313,638.5469 Q238.8313,637.2188 239.4406,636.0781 Q240.0656,634.9219 241.1594,634.3125 Q242.2531,633.6875 243.4875,633.6875 Q244.2219,633.6875 244.8625,633.8594 Q245.5188,634.0156 246.0656,634.375 Z "/><text fill="#000000" font-family="sans-serif" font-size="12" lengthAdjust="spacingAndGlyphs" textLength="59" x="261.7" y="643.4102">Freelancer</text><line style="stroke: #A80036; stroke-width: 1.5;" x1="209.5" x2="342.5" y1="654.5" y2="654.5"/><text fill="#000000" font-family="sans-serif" font-size="11" lengthAdjust="spacingAndGlyphs" textLength="43" x="214.5" y="669.9189">-String id</text><text fill="#000000" font-family="sans-serif" font-size="11" lengthAdjust="spacingAndGlyphs" textLength="61" x="214.5" y="683.7549">-String name</text><text fill="#000000" font-family="sans-serif" font-size="11" lengthAdjust="spacingAndGlyphs" textLength="114" x="214.5" y="697.5908">-String levelOfExpertise</text><text fill="#000000" font-family="sans-serif" font-size="11" lengthAdjust="spacingAndGlyphs" textLength="59" x="214.5" y="711.4268">-String email</text><text fill="#000000" font-family="sans-serif" font-size="11" lengthAdjust="spacingAndGlyphs" textLength="50" x="214.5" y="725.2627">-String NIF</text><text fill="#000000" font-family="sans-serif" font-size="11" lengthAdjust="spacingAndGlyphs" textLength="123" x="214.5" y="739.0986">-String bankAccountIBAN</text><text fill="#000000" font-family="sans-serif" font-size="11" lengthAdjust="spacingAndGlyphs" textLength="75" x="214.5" y="752.9346">-String address</text><text fill="#000000" font-family="sans-serif" font-size="11" lengthAdjust="spacingAndGlyphs" textLength="72" x="214.5" y="766.7705">-String country</text><!--MD5=[b76730e11bf88a141099e30fd5a76626]
class MonetaryUnitConversionAPI--><rect fill="#FEFECE" filter="url(#f16w7r0u8evvm8)" height="40" id="MonetaryUnitConversionAPI" style="stroke: #A80036; stroke-width: 1.5;" width="184" x="184" y="809"/><ellipse cx="199" cy="825" fill="#ADD1B2" rx="11" ry="11" style="stroke: #A80036; stroke-width: 1.0;"/><path d="M201.7656,820.875 Q201.9219,820.6563 202.1094,820.5469 Q202.2969,820.4375 202.5156,820.4375 Q202.8906,820.4375 203.125,820.7031 Q203.3594,820.9531 203.3594,821.5625 L203.3594,823.0156 Q203.3594,823.625 203.125,823.8906 Q202.8906,824.1563 202.5156,824.1563 Q202.1719,824.1563 201.9688,823.9531 Q201.7656,823.7656 201.6563,823.25 Q201.6094,822.8906 201.4219,822.7031 Q201.0938,822.3281 200.4844,822.1094 Q199.875,821.8906 199.25,821.8906 Q198.4844,821.8906 197.8438,822.2188 Q197.2188,822.5469 196.7188,823.2969 Q196.2344,824.0469 196.2344,825.0781 L196.2344,826.1719 Q196.2344,827.4063 197.125,828.2344 Q198.0156,829.0469 199.6094,829.0469 Q200.5469,829.0469 201.2031,828.7969 Q201.5938,828.6406 202.0156,828.2031 Q202.2813,827.9375 202.4219,827.8594 Q202.5781,827.7813 202.7813,827.7813 Q203.1094,827.7813 203.3594,828.0469 Q203.625,828.2969 203.625,828.6406 Q203.625,828.9844 203.2813,829.3906 Q202.7813,829.9688 201.9844,830.2969 Q200.9063,830.75 199.6094,830.75 Q198.0938,830.75 196.8906,830.125 Q195.9063,829.625 195.2188,828.5625 Q194.5313,827.4844 194.5313,826.2031 L194.5313,825.0469 Q194.5313,823.7188 195.1406,822.5781 Q195.7656,821.4219 196.8594,820.8125 Q197.9531,820.1875 199.1875,820.1875 Q199.9219,820.1875 200.5625,820.3594 Q201.2188,820.5156 201.7656,820.875 Z "/><text fill="#000000" font-family="sans-serif" font-size="12" lengthAdjust="spacingAndGlyphs" textLength="152" x="213" y="829.9102">MonetaryUnitConversionAPI</text><line style="stroke: #A80036; stroke-width: 1.5;" x1="185" x2="367" y1="841" y2="841"/><!--MD5=[8806e557260fb3598decb516dc04693d]
class EmailAPI--><rect fill="#FEFECE" filter="url(#f16w7r0u8evvm8)" height="40" id="EmailAPI" style="stroke: #A80036; stroke-width: 1.5;" width="82" x="235" y="884"/><ellipse cx="250" cy="900" fill="#ADD1B2" rx="11" ry="11" style="stroke: #A80036; stroke-width: 1.0;"/><path d="M252.7656,895.875 Q252.9219,895.6563 253.1094,895.5469 Q253.2969,895.4375 253.5156,895.4375 Q253.8906,895.4375 254.125,895.7031 Q254.3594,895.9531 254.3594,896.5625 L254.3594,898.0156 Q254.3594,898.625 254.125,898.8906 Q253.8906,899.1563 253.5156,899.1563 Q253.1719,899.1563 252.9688,898.9531 Q252.7656,898.7656 252.6563,898.25 Q252.6094,897.8906 252.4219,897.7031 Q252.0938,897.3281 251.4844,897.1094 Q250.875,896.8906 250.25,896.8906 Q249.4844,896.8906 248.8438,897.2188 Q248.2188,897.5469 247.7188,898.2969 Q247.2344,899.0469 247.2344,900.0781 L247.2344,901.1719 Q247.2344,902.4063 248.125,903.2344 Q249.0156,904.0469 250.6094,904.0469 Q251.5469,904.0469 252.2031,903.7969 Q252.5938,903.6406 253.0156,903.2031 Q253.2813,902.9375 253.4219,902.8594 Q253.5781,902.7813 253.7813,902.7813 Q254.1094,902.7813 254.3594,903.0469 Q254.625,903.2969 254.625,903.6406 Q254.625,903.9844 254.2813,904.3906 Q253.7813,904.9688 252.9844,905.2969 Q251.9063,905.75 250.6094,905.75 Q249.0938,905.75 247.8906,905.125 Q246.9063,904.625 246.2188,903.5625 Q245.5313,902.4844 245.5313,901.2031 L245.5313,900.0469 Q245.5313,898.7188 246.1406,897.5781 Q246.7656,896.4219 247.8594,895.8125 Q248.9531,895.1875 250.1875,895.1875 Q250.9219,895.1875 251.5625,895.3594 Q252.2188,895.5156 252.7656,895.875 Z "/><text fill="#000000" font-family="sans-serif" font-size="12" lengthAdjust="spacingAndGlyphs" textLength="50" x="264" y="904.9102">EmailAPI</text><line style="stroke: #A80036; stroke-width: 1.5;" x1="236" x2="316" y1="916" y2="916"/><!--MD5=[b9b2b358c4596a7c3c612fa1a577c109]
class PaymentAPI--><rect fill="#FEFECE" filter="url(#f16w7r0u8evvm8)" height="40" id="PaymentAPI" style="stroke: #A80036; stroke-width: 1.5;" width="98" x="227" y="959"/><ellipse cx="242" cy="975" fill="#ADD1B2" rx="11" ry="11" style="stroke: #A80036; stroke-width: 1.0;"/><path d="M244.7656,970.875 Q244.9219,970.6563 245.1094,970.5469 Q245.2969,970.4375 245.5156,970.4375 Q245.8906,970.4375 246.125,970.7031 Q246.3594,970.9531 246.3594,971.5625 L246.3594,973.0156 Q246.3594,973.625 246.125,973.8906 Q245.8906,974.1563 245.5156,974.1563 Q245.1719,974.1563 244.9688,973.9531 Q244.7656,973.7656 244.6563,973.25 Q244.6094,972.8906 244.4219,972.7031 Q244.0938,972.3281 243.4844,972.1094 Q242.875,971.8906 242.25,971.8906 Q241.4844,971.8906 240.8438,972.2188 Q240.2188,972.5469 239.7188,973.2969 Q239.2344,974.0469 239.2344,975.0781 L239.2344,976.1719 Q239.2344,977.4063 240.125,978.2344 Q241.0156,979.0469 242.6094,979.0469 Q243.5469,979.0469 244.2031,978.7969 Q244.5938,978.6406 245.0156,978.2031 Q245.2813,977.9375 245.4219,977.8594 Q245.5781,977.7813 245.7813,977.7813 Q246.1094,977.7813 246.3594,978.0469 Q246.625,978.2969 246.625,978.6406 Q246.625,978.9844 246.2813,979.3906 Q245.7813,979.9688 244.9844,980.2969 Q243.9063,980.75 242.6094,980.75 Q241.0938,980.75 239.8906,980.125 Q238.9063,979.625 238.2188,978.5625 Q237.5313,977.4844 237.5313,976.2031 L237.5313,975.0469 Q237.5313,973.7188 238.1406,972.5781 Q238.7656,971.4219 239.8594,970.8125 Q240.9531,970.1875 242.1875,970.1875 Q242.9219,970.1875 243.5625,970.3594 Q244.2188,970.5156 244.7656,970.875 Z "/><text fill="#000000" font-family="sans-serif" font-size="12" lengthAdjust="spacingAndGlyphs" textLength="66" x="256" y="979.9102">PaymentAPI</text><line style="stroke: #A80036; stroke-width: 1.5;" x1="228" x2="324" y1="991" y2="991"/><ellipse cx="582.5" cy="49" fill="#000000" rx="2" ry="2" style="stroke: none; stroke-width: 1.0;"/><!--MD5=[9aa0fa191c99edeef0ce6e9ae1d37765]
link Transaction to TaskExecutionDetails--><path d="M825.214,49 C867.215,49 929.362,49 979.795,49 " fill="none" id="Transaction-TaskExecutionDetails" style="stroke: #A80036; stroke-width: 1.0;"/><text fill="#000000" font-family="sans-serif" font-size="13" lengthAdjust="spacingAndGlyphs" textLength="80" x="856" y="45.4951">executed with</text><polygon fill="#000000" points="939,38.6758,945,41.6758,939,44.6758,939,38.6758" style="stroke: #000000; stroke-width: 1.0;"/><text fill="#000000" font-family="sans-serif" font-size="13" lengthAdjust="spacingAndGlyphs" textLength="7" x="832.8829" y="63.6959">1</text><text fill="#000000" font-family="sans-serif" font-size="13" lengthAdjust="spacingAndGlyphs" textLength="7" x="965.1289" y="63.2189">1</text><!--MD5=[45817597bcd7048073a670d966abfd17]
link Organization to Collaborator--><path d="M326.601,361 C383.393,361 475.854,361 532.425,361 " fill="none" id="Organization-Collaborator" style="stroke: #A80036; stroke-width: 1.0;"/><text fill="#000000" font-family="sans-serif" font-size="13" lengthAdjust="spacingAndGlyphs" textLength="21" x="416" y="357.4951">has</text><polygon fill="#000000" points="440,350.6758,446,353.6758,440,356.6758,440,350.6758" style="stroke: #000000; stroke-width: 1.0;"/><text fill="#000000" font-family="sans-serif" font-size="13" lengthAdjust="spacingAndGlyphs" textLength="7" x="334.5471" y="375.72">1</text><text fill="#000000" font-family="sans-serif" font-size="13" lengthAdjust="spacingAndGlyphs" textLength="7" x="517.5562" y="375.7321">1</text><!--MD5=[bc039f41cf0b27fadee5cae63fc6e1fe]
link Organization to Manager--><path d="M326.601,380.058 C383.899,402.074 477.503,438.041 533.927,459.721 " fill="none" id="Organization-Manager" style="stroke: #A80036; stroke-width: 1.0;"/><text fill="#000000" font-family="sans-serif" font-size="13" lengthAdjust="spacingAndGlyphs" textLength="21" x="416" y="405.4951">has</text><polygon fill="#000000" points="440,398.6758,446,401.6758,440,404.6758,440,398.6758" style="stroke: #000000; stroke-width: 1.0;"/><text fill="#000000" font-family="sans-serif" font-size="13" lengthAdjust="spacingAndGlyphs" textLength="7" x="334.5471" y="397.5772">1</text><text fill="#000000" font-family="sans-serif" font-size="13" lengthAdjust="spacingAndGlyphs" textLength="7" x="518.9533" y="471.7067">1</text><!--MD5=[5f4f57afaa4ed75c0a27618a4620afc1]
link Organization to PaymentScheduler--><path d="M326.665,383.802 C340.972,391.786 355.953,401.64 368,413 C385.759,429.745 381.486,441.027 398,459 C436.137,500.505 451.651,504.924 498,537 C506.101,542.607 514.818,548.29 523.455,553.729 " fill="none" id="Organization-PaymentScheduler" style="stroke: #A80036; stroke-width: 1.0;"/><text fill="#000000" font-family="sans-serif" font-size="13" lengthAdjust="spacingAndGlyphs" textLength="28" x="412.5" y="455.4951">uses</text><polygon fill="#000000" points="443.5,448.6758,449.5,451.6758,443.5,454.6758,443.5,448.6758" style="stroke: #000000; stroke-width: 1.0;"/><text fill="#000000" font-family="sans-serif" font-size="13" lengthAdjust="spacingAndGlyphs" textLength="7" x="334.6988" y="407.2236">1</text><text fill="#000000" font-family="sans-serif" font-size="13" lengthAdjust="spacingAndGlyphs" textLength="7" x="504.5324" y="543.231">1</text><!--MD5=[4078351e3988aa35b1504a42837f2ab1]
link Organization to Task--><path d="M326.601,339.661 C372.86,319.76 442.785,289.677 497.703,266.051 " fill="none" id="Organization-Task" style="stroke: #A80036; stroke-width: 1.0;"/><text fill="#000000" font-family="sans-serif" font-size="13" lengthAdjust="spacingAndGlyphs" textLength="55" x="399" y="275.4951">publishes</text><polygon fill="#000000" points="457,268.6758,463,271.6758,457,274.6758,457,268.6758" style="stroke: #000000; stroke-width: 1.0;"/><text fill="#000000" font-family="sans-serif" font-size="13" lengthAdjust="spacingAndGlyphs" textLength="7" x="334.5471" y="351.2469">1</text><text fill="#000000" font-family="sans-serif" font-size="13" lengthAdjust="spacingAndGlyphs" textLength="5" x="484.9281" y="283.4771">*</text><!--MD5=[939acada67c666032ddf52a0068bc128]
link App to MonetaryUnitConversionAPI--><path d="M59.1432,715.585 C88.5305,735.321 138.511,767.633 184,791 C196.335,797.337 209.975,803.468 222.859,808.889 " fill="none" id="App-MonetaryUnitConversionAPI" style="stroke: #A80036; stroke-width: 1.0;"/><text fill="#000000" font-family="sans-serif" font-size="13" lengthAdjust="spacingAndGlyphs" textLength="50" x="90" y="731.4951">supports</text><polygon fill="#000000" points="143,724.6758,149,727.6758,143,730.6758,143,724.6758" style="stroke: #000000; stroke-width: 1.0;"/><text fill="#000000" font-family="sans-serif" font-size="13" lengthAdjust="spacingAndGlyphs" textLength="7" x="66.8674" y="735.6813">1</text><text fill="#000000" font-family="sans-serif" font-size="13" lengthAdjust="spacingAndGlyphs" textLength="7" x="199.2207" y="798.1781">1</text><!--MD5=[1370966fb1e3885ea6828d35f10d9d48]
link App to Organization--><path d="M36.4787,677.728 C42.3176,642.48 57.5376,568.46 89,514 C119.828,460.639 135.604,451.151 184,413 C196.575,403.087 211.258,393.845 225.113,385.983 " fill="none" id="App-Organization" style="stroke: #A80036; stroke-width: 1.0;"/><polygon fill="#000000" points="110.5,431,113.5,425,116.5,431,110.5,431" style="stroke: #000000; stroke-width: 1.0;"/><text fill="#000000" font-family="sans-serif" font-size="13" lengthAdjust="spacingAndGlyphs" textLength="21" x="104.5" y="447.4951">has</text><text fill="#000000" font-family="sans-serif" font-size="13" lengthAdjust="spacingAndGlyphs" textLength="7" x="29.6193" y="666.9699">1</text><text fill="#000000" font-family="sans-serif" font-size="13" lengthAdjust="spacingAndGlyphs" textLength="5" x="212.6055" y="404.1641">*</text><!--MD5=[1cb21011969cc62c73f846209be643c8]
link App to EmailAPI--><path d="M41.4884,718.016 C50.7083,739.436 67.4146,773.619 89,798 C129.036,843.221 193.189,873.743 234.711,890.006 " fill="none" id="App-EmailAPI" style="stroke: #A80036; stroke-width: 1.0;"/><text fill="#000000" font-family="sans-serif" font-size="13" lengthAdjust="spacingAndGlyphs" textLength="50" x="90" y="794.4951">supports</text><polygon fill="#000000" points="143,787.6758,149,790.6758,143,793.6758,143,787.6758" style="stroke: #000000; stroke-width: 1.0;"/><text fill="#000000" font-family="sans-serif" font-size="13" lengthAdjust="spacingAndGlyphs" textLength="7" x="45.0008" y="739.4401">1</text><text fill="#000000" font-family="sans-serif" font-size="13" lengthAdjust="spacingAndGlyphs" textLength="7" x="220.0129" y="902.5011">1</text><!--MD5=[c476b523f9294f20b13319074aa597a2]
link App to PaymentAPI--><path d="M35.5795,718.198 C40.0439,753.171 53.2261,825.956 89,875 C122.794,921.3295 183.851,949.6825 226.77,964.8434 " fill="none" id="App-PaymentAPI" style="stroke: #A80036; stroke-width: 1.0;"/><text fill="#000000" font-family="sans-serif" font-size="13" lengthAdjust="spacingAndGlyphs" textLength="50" x="90" y="871.4951">supports</text><polygon fill="#000000" points="110.5,880.3516,113.5,886.3516,116.5,880.3516,110.5,880.3516" style="stroke: #000000; stroke-width: 1.0;"/><text fill="#000000" font-family="sans-serif" font-size="13" lengthAdjust="spacingAndGlyphs" textLength="7" x="28.4665" y="739.3186">1</text><text fill="#000000" font-family="sans-serif" font-size="13" lengthAdjust="spacingAndGlyphs" textLength="7" x="212.0253" y="977.4601">1</text><!--MD5=[66e1bf42337190a3177776b035b1a873]
link App to Administrator--><path d="M41.3782,677.721 C50.504,656.032 67.1304,621.462 89,597 C127.214,554.256 182.871,519.056 223.338,496.829 " fill="none" id="App-Administrator" style="stroke: #A80036; stroke-width: 1.0;"/><text fill="#000000" font-family="sans-serif" font-size="13" lengthAdjust="spacingAndGlyphs" textLength="21" x="104.5" y="536.4951">has</text><polygon fill="#000000" points="128.5,529.6758,134.5,532.6758,128.5,535.6758,128.5,529.6758" style="stroke: #000000; stroke-width: 1.0;"/><text fill="#000000" font-family="sans-serif" font-size="13" lengthAdjust="spacingAndGlyphs" textLength="7" x="44.8596" y="667.3121">1</text><text fill="#000000" font-family="sans-serif" font-size="13" lengthAdjust="spacingAndGlyphs" textLength="5" x="210.5808" y="515.1406">*</text><!--MD5=[d88947b97cc296deaa09f9756953ae3a]
link App to Freelancer--><path d="M59.3447,698 C94.6321,698 159.131,698 208.43,698 " fill="none" id="App-Freelancer" style="stroke: #A80036; stroke-width: 1.0;"/><text fill="#000000" font-family="sans-serif" font-size="13" lengthAdjust="spacingAndGlyphs" textLength="21" x="104.5" y="694.4951">has</text><polygon fill="#000000" points="128.5,687.6758,134.5,690.6758,128.5,693.6758,128.5,687.6758" style="stroke: #000000; stroke-width: 1.0;"/><text fill="#000000" font-family="sans-serif" font-size="13" lengthAdjust="spacingAndGlyphs" textLength="7" x="67.1205" y="713.5902">1</text><text fill="#000000" font-family="sans-serif" font-size="13" lengthAdjust="spacingAndGlyphs" textLength="5" x="195.3282" y="712.4585">*</text><!--MD5=[63a18bfb0c55f564ea81086f541b4ad2]
link App to EmailScheduler--><path d="M59.1432,680.415 C88.5305,660.679 138.511,628.367 184,605 C196.335,598.663 209.975,592.532 222.859,587.111 " fill="none" id="App-EmailScheduler" style="stroke: #A80036; stroke-width: 1.0;"/><text fill="#000000" font-family="sans-serif" font-size="13" lengthAdjust="spacingAndGlyphs" textLength="21" x="104.5" y="619.4951">has</text><polygon fill="#000000" points="128.5,612.6758,134.5,615.6758,128.5,618.6758,128.5,612.6758" style="stroke: #000000; stroke-width: 1.0;"/><text fill="#000000" font-family="sans-serif" font-size="13" lengthAdjust="spacingAndGlyphs" textLength="7" x="66.8674" y="691.499">1</text><text fill="#000000" font-family="sans-serif" font-size="13" lengthAdjust="spacingAndGlyphs" textLength="7" x="201.3447" y="607.8546">1</text><!--MD5=[9d5c64765460282bc004056b62087d1e]
link Organization to apoint30--><path d="M292.85,326.936 C323.365,265.286 396.361,135.447 498,69 C526.946,50.076 572.005,49.026 580.199,48.995 " fill="none" id="Organization-apoint30" style="stroke: #A80036; stroke-width: 1.0;"/><text fill="#000000" font-family="sans-serif" font-size="13" lengthAdjust="spacingAndGlyphs" textLength="21" x="416" y="88.4951">has</text><polygon fill="#000000" points="440,81.6758,446,84.6758,440,87.6758,440,81.6758" style="stroke: #000000; stroke-width: 1.0;"/><text fill="#000000" font-family="sans-serif" font-size="13" lengthAdjust="spacingAndGlyphs" textLength="7" x="288.4783" y="316.2167">1</text><!--MD5=[1376dc94ecfb081d3018bf4347bdb994]
link apoint30 to Transaction--><path d="M584.726,49 C595.489,49 674.733,49 727.646,49 " fill="none" id="apoint30-Transaction" style="stroke: #A80036; stroke-width: 1.0;"/><text fill="#000000" font-family="sans-serif" font-size="13" lengthAdjust="spacingAndGlyphs" textLength="5" x="715.1034" y="63.6959">*</text><!--MD5=[04c6caee657614f84ebc968c889226bc]
link apoint30 to PaymentDetails--><path d="M582.5,51.281 C582.5,62.687 582.5,74.094 582.5,85.5 " fill="none" id="apoint30-PaymentDetails" style="stroke: #A80036; stroke-width: 1.0; stroke-dasharray: 7.0,7.0;"/><!--MD5=[f457da6cdf8f3961f268b61047e68aa1]
@startuml MD

skinparam classAttributeIconSize 0
hide methods
left to right direction

class App {

}

class Organization {
        - String name
        - String NIF
}

class Transaction {

}

class Task {
        - String id
        - String description
        - Integer durationInHours
        - Double costPerHourOfJuniorEur
        - String category
}

class PaymentDetails {
        Boolean isPaid
}

class TaskExecutionDetails {
        - LocalDate endDate
        - Integer delayInDays
        - String DescriptionQualityOfWork
}

class Collaborator {
        - String name
        - String email
        - String password
}

class Manager {
        - String name
        - String email
        - String password
}

class PaymentScheduler {
        - Integer dayMonth
        - LocalTime timeOfDay
}

class Administrator {
        - String name
        - String email
        - String password
}

class EmailScheduler {

}

class Freelancer {
        - String id
        - String name
        - String levelOfExpertise
        - String email
        - String NIF
        - String bankAccountIBAN
        - String address
        - String country
}

Transaction                  "1" - - "1"      TaskExecutionDetails      : executed with >
Organization                 "1" - - "1"      Collaborator              : has >
Organization                 "1" - - "1"      Manager                   : has >
Organization                 "1" - - "1"      PaymentScheduler          : uses >
Organization                 "1" - - "*"      Task                      : publishes >
Organization                 "1" - - "*"      Transaction               : has >
App                          "1" - - "1"      MonetaryUnitConversionAPI : supports >
App                          "1" - - "*"      Organization              : has >
App                          "1" - - "1"      EmailAPI                  : supports >
App                          "1" - - "1"      PaymentAPI                : supports >
App                          "1" - - "*"      Administrator             : has >
App                          "1" - - "*"      Freelancer                : has >
App                          "1" - - "1"      EmailScheduler            : has >
(Organization, Transaction)      ..          PaymentDetails

@enduml

PlantUML version 1.2020.10(Sun May 17 10:35:57 WEST 2020)
(GPL source distribution)
Java Runtime: OpenJDK Runtime Environment
JVM: OpenJDK 64-Bit Server VM
Java Version: 14+36
Operating System: Windows 10
Default Encoding: Cp1252
Language: en
Country: US
--></g></svg>