<?xml version="1.0" encoding="UTF-8"?><svg xmlns="http://www.w3.org/2000/svg" xmlns:xlink="http://www.w3.org/1999/xlink" contentScriptType="application/ecmascript" contentStyleType="text/css" height="1446px" preserveAspectRatio="none" style="width:812px;height:1446px;" version="1.1" viewBox="0 0 812 1446" width="812px" zoomAndPan="magnify">
    <defs>
        <filter height="300%" id="fdoi3jffydzrn" width="300%" x="-1" y="-1">
            <feGaussianBlur result="blurOut" stdDeviation="2.0"/>
            <feColorMatrix in="blurOut" result="blurOut2" type="matrix" values="0 0 0 0 0 0 0 0 0 0 0 0 0 0 0 0 0 0 .4 0"/>
            <feOffset dx="4.0" dy="4.0" in="blurOut2" result="blurOut3"/>
            <feBlend in="SourceGraphic" in2="blurOut3" mode="normal"/>
        </filter>
    </defs>
    <g>
        <!--class EmailScheduler-->
        <rect fill="#FEFECE" filter="url(#fdoi3jffydzrn)" height="131.0156" style="stroke: #A80036; stroke-width: 1.5;" width="314" x="300" y="8"/>
        <ellipse cx="408.75" cy="24" fill="#ADD1B2" rx="11" ry="11" style="stroke: #A80036; stroke-width: 1.0;"/>
        <path d="M411.5156,19.875 Q411.6719,19.6563 411.8594,19.5469 Q412.0469,19.4375 412.2656,19.4375 Q412.6406,19.4375 412.875,19.6953 Q413.1094,19.9531 413.1094,20.5625 L413.1094,22.0156 Q413.1094,22.625 412.875,22.8906 Q412.6406,23.1563 412.2656,23.1563 Q411.9219,23.1563 411.7188,22.9531 Q411.5156,22.7656 411.4063,22.25 Q411.3594,21.8906 411.1719,21.7031 Q410.8438,21.3281 410.2344,21.1094 Q409.625,20.8906 409,20.8906 Q408.2344,20.8906 407.6016,21.2188 Q406.9688,21.5469 406.4766,22.2969 Q405.9844,23.0469 405.9844,24.0781 L405.9844,25.1719 Q405.9844,26.4063 406.875,27.2266 Q407.7656,28.0469 409.3594,28.0469 Q410.2969,28.0469 410.9531,27.7969 Q411.3438,27.6406 411.7656,27.2031 Q412.0313,26.9375 412.1797,26.8594 Q412.3281,26.7813 412.5313,26.7813 Q412.8594,26.7813 413.1172,27.0391 Q413.375,27.2969 413.375,27.6406 Q413.375,27.9844 413.0313,28.3906 Q412.5313,28.9688 411.7344,29.2969 Q410.6563,29.75 409.3594,29.75 Q407.8438,29.75 406.6406,29.125 Q405.6563,28.625 404.9688,27.5547 Q404.2813,26.4844 404.2813,25.2031 L404.2813,24.0469 Q404.2813,22.7188 404.8984,21.5703 Q405.5156,20.4219 406.6094,19.8047 Q407.7031,19.1875 408.9375,19.1875 Q409.6719,19.1875 410.3203,19.3516 Q410.9688,19.5156 411.5156,19.875 Z "/>
        <text fill="#000000" font-family="sans-serif" font-size="12" lengthAdjust="spacingAndGlyphs" textLength="88" x="429.25" y="28.9102">EmailScheduler</text>
        <line style="stroke: #A80036; stroke-width: 1.5;" x1="301" x2="613" y1="40" y2="40"/>
        <text fill="#000000" font-family="sans-serif" font-size="11" lengthAdjust="spacingAndGlyphs" textLength="99" x="306" y="55.4189">-Integer dayOfMonth</text>
        <text fill="#000000" font-family="sans-serif" font-size="11" lengthAdjust="spacingAndGlyphs" textLength="105" x="306" y="69.2549">-LocalTime timeOfDay</text>
        <line style="stroke: #A80036; stroke-width: 1.5;" x1="301" x2="613" y1="75.6719" y2="75.6719"/>
        <text fill="#000000" font-family="sans-serif" font-size="11" lengthAdjust="spacingAndGlyphs" textLength="302" x="306" y="91.0908">+create (Integer dayOfMonth, LoaclTime timeOfDay, Task task)</text>
        <text fill="#000000" font-family="sans-serif" font-size="11" lengthAdjust="spacingAndGlyphs" textLength="263" x="306" y="104.9268">+resetTime(Integer dayOfMonth, LocalTime timeOfDay)</text>
        <text fill="#000000" font-family="sans-serif" font-size="11" lengthAdjust="spacingAndGlyphs" textLength="109" x="306" y="118.7627">+scheduleNestMonth()</text>
        <text fill="#000000" font-family="sans-serif" font-size="11" lengthAdjust="spacingAndGlyphs" textLength="73" x="306" y="132.5986">+getNextDate()</text>
        <!--class DelayController-->
        <rect fill="#FEFECE" filter="url(#fdoi3jffydzrn)" height="89.5078" style="stroke: #A80036; stroke-width: 1.5;" width="233" x="337.5" y="343"/>
        <ellipse cx="407.25" cy="359" fill="#ADD1B2" rx="11" ry="11" style="stroke: #A80036; stroke-width: 1.0;"/>
        <path d="M410.0156,354.875 Q410.1719,354.6563 410.3594,354.5469 Q410.5469,354.4375 410.7656,354.4375 Q411.1406,354.4375 411.375,354.6953 Q411.6094,354.9531 411.6094,355.5625 L411.6094,357.0156 Q411.6094,357.625 411.375,357.8906 Q411.1406,358.1563 410.7656,358.1563 Q410.4219,358.1563 410.2188,357.9531 Q410.0156,357.7656 409.9063,357.25 Q409.8594,356.8906 409.6719,356.7031 Q409.3438,356.3281 408.7344,356.1094 Q408.125,355.8906 407.5,355.8906 Q406.7344,355.8906 406.1016,356.2188 Q405.4688,356.5469 404.9766,357.2969 Q404.4844,358.0469 404.4844,359.0781 L404.4844,360.1719 Q404.4844,361.4063 405.375,362.2266 Q406.2656,363.0469 407.8594,363.0469 Q408.7969,363.0469 409.4531,362.7969 Q409.8438,362.6406 410.2656,362.2031 Q410.5313,361.9375 410.6797,361.8594 Q410.8281,361.7813 411.0313,361.7813 Q411.3594,361.7813 411.6172,362.0391 Q411.875,362.2969 411.875,362.6406 Q411.875,362.9844 411.5313,363.3906 Q411.0313,363.9688 410.2344,364.2969 Q409.1563,364.75 407.8594,364.75 Q406.3438,364.75 405.1406,364.125 Q404.1563,363.625 403.4688,362.5547 Q402.7813,361.4844 402.7813,360.2031 L402.7813,359.0469 Q402.7813,357.7188 403.3984,356.5703 Q404.0156,355.4219 405.1094,354.8047 Q406.2031,354.1875 407.4375,354.1875 Q408.1719,354.1875 408.8203,354.3516 Q409.4688,354.5156 410.0156,354.875 Z "/>
        <text fill="#000000" font-family="sans-serif" font-size="12" lengthAdjust="spacingAndGlyphs" textLength="85" x="427.75" y="363.9102">DelayController</text>
        <line style="stroke: #A80036; stroke-width: 1.5;" x1="338.5" x2="569.5" y1="375" y2="375"/>
        <line style="stroke: #A80036; stroke-width: 1.5;" x1="338.5" x2="569.5" y1="383" y2="383"/>
        <text fill="#000000" font-family="sans-serif" font-size="11" lengthAdjust="spacingAndGlyphs" textLength="221" x="343.5" y="398.4189">+create(Task task, EmailScheduler scheduler)</text>
        <text fill="#000000" font-family="sans-serif" font-size="11" lengthAdjust="spacingAndGlyphs" textLength="30" x="343.5" y="412.2549">+run()</text>
        <text fill="#000000" font-family="sans-serif" font-size="11" lengthAdjust="spacingAndGlyphs" textLength="60" x="343.5" y="426.0908">-sendEmail()</text>
        <!--class EmailAPI-->
        <rect fill="#FEFECE" filter="url(#fdoi3jffydzrn)" height="61.8359" style="stroke: #A80036; stroke-width: 1.5;" width="282" x="426" y="1340.5"/>
        <ellipse cx="537.75" cy="1356.5" fill="#ADD1B2" rx="11" ry="11" style="stroke: #A80036; stroke-width: 1.0;"/>
        <path d="M540.5156,1352.375 Q540.6719,1352.1563 540.8594,1352.0469 Q541.0469,1351.9375 541.2656,1351.9375 Q541.6406,1351.9375 541.875,1352.1953 Q542.1094,1352.4531 542.1094,1353.0625 L542.1094,1354.5156 Q542.1094,1355.125 541.875,1355.3906 Q541.6406,1355.6563 541.2656,1355.6563 Q540.9219,1355.6563 540.7188,1355.4531 Q540.5156,1355.2656 540.4063,1354.75 Q540.3594,1354.3906 540.1719,1354.2031 Q539.8438,1353.8281 539.2344,1353.6094 Q538.625,1353.3906 538,1353.3906 Q537.2344,1353.3906 536.6016,1353.7188 Q535.9688,1354.0469 535.4766,1354.7969 Q534.9844,1355.5469 534.9844,1356.5781 L534.9844,1357.6719 Q534.9844,1358.9063 535.875,1359.7266 Q536.7656,1360.5469 538.3594,1360.5469 Q539.2969,1360.5469 539.9531,1360.2969 Q540.3438,1360.1406 540.7656,1359.7031 Q541.0313,1359.4375 541.1797,1359.3594 Q541.3281,1359.2813 541.5313,1359.2813 Q541.8594,1359.2813 542.1172,1359.5391 Q542.375,1359.7969 542.375,1360.1406 Q542.375,1360.4844 542.0313,1360.8906 Q541.5313,1361.4688 540.7344,1361.7969 Q539.6563,1362.25 538.3594,1362.25 Q536.8438,1362.25 535.6406,1361.625 Q534.6563,1361.125 533.9688,1360.0547 Q533.2813,1358.9844 533.2813,1357.7031 L533.2813,1356.5469 Q533.2813,1355.2188 533.8984,1354.0703 Q534.5156,1352.9219 535.6094,1352.3047 Q536.7031,1351.6875 537.9375,1351.6875 Q538.6719,1351.6875 539.3203,1351.8516 Q539.9688,1352.0156 540.5156,1352.375 Z "/>
        <text fill="#000000" font-family="sans-serif" font-size="12" lengthAdjust="spacingAndGlyphs" textLength="50" x="558.25" y="1361.4102">EmailAPI</text>
        <line style="stroke: #A80036; stroke-width: 1.5;" x1="427" x2="707" y1="1372.5" y2="1372.5"/>
        <line style="stroke: #A80036; stroke-width: 1.5;" x1="427" x2="707" y1="1380.5" y2="1380.5"/>
        <text fill="#000000" font-family="sans-serif" font-size="11" lengthAdjust="spacingAndGlyphs" textLength="270" x="432" y="1395.9189">+payTo(String freelancerId,String taskId, Interger delay )</text>
        <!--class Organization-->
        <rect fill="#FEFECE" filter="url(#fdoi3jffydzrn)" height="75.6719" style="stroke: #A80036; stroke-width: 1.5;" width="101" x="482.5" y="929"/>
        <ellipse cx="497.5" cy="945" fill="#ADD1B2" rx="11" ry="11" style="stroke: #A80036; stroke-width: 1.0;"/>
        <path d="M500.2656,940.875 Q500.4219,940.6563 500.6094,940.5469 Q500.7969,940.4375 501.0156,940.4375 Q501.3906,940.4375 501.625,940.6953 Q501.8594,940.9531 501.8594,941.5625 L501.8594,943.0156 Q501.8594,943.625 501.625,943.8906 Q501.3906,944.1563 501.0156,944.1563 Q500.6719,944.1563 500.4688,943.9531 Q500.2656,943.7656 500.1563,943.25 Q500.1094,942.8906 499.9219,942.7031 Q499.5938,942.3281 498.9844,942.1094 Q498.375,941.8906 497.75,941.8906 Q496.9844,941.8906 496.3516,942.2188 Q495.7188,942.5469 495.2266,943.2969 Q494.7344,944.0469 494.7344,945.0781 L494.7344,946.1719 Q494.7344,947.4063 495.625,948.2266 Q496.5156,949.0469 498.1094,949.0469 Q499.0469,949.0469 499.7031,948.7969 Q500.0938,948.6406 500.5156,948.2031 Q500.7813,947.9375 500.9297,947.8594 Q501.0781,947.7813 501.2813,947.7813 Q501.6094,947.7813 501.8672,948.0391 Q502.125,948.2969 502.125,948.6406 Q502.125,948.9844 501.7813,949.3906 Q501.2813,949.9688 500.4844,950.2969 Q499.4063,950.75 498.1094,950.75 Q496.5938,950.75 495.3906,950.125 Q494.4063,949.625 493.7188,948.5547 Q493.0313,947.4844 493.0313,946.2031 L493.0313,945.0469 Q493.0313,943.7188 493.6484,942.5703 Q494.2656,941.4219 495.3594,940.8047 Q496.4531,940.1875 497.6875,940.1875 Q498.4219,940.1875 499.0703,940.3516 Q499.7188,940.5156 500.2656,940.875 Z "/>
        <text fill="#000000" font-family="sans-serif" font-size="12" lengthAdjust="spacingAndGlyphs" textLength="69" x="511.5" y="949.9102">Organization</text>
        <line style="stroke: #A80036; stroke-width: 1.5;" x1="483.5" x2="582.5" y1="961" y2="961"/>
        <text fill="#000000" font-family="sans-serif" font-size="11" lengthAdjust="spacingAndGlyphs" textLength="61" x="488.5" y="976.4189">-String nome</text>
        <line style="stroke: #A80036; stroke-width: 1.5;" x1="483.5" x2="582.5" y1="982.8359" y2="982.8359"/>
        <text fill="#000000" font-family="sans-serif" font-size="11" lengthAdjust="spacingAndGlyphs" textLength="69" x="488.5" y="998.2549">+getTaskList()</text>
        <!--class TaskList-->
        <rect fill="#FEFECE" filter="url(#fdoi3jffydzrn)" height="144.8516" style="stroke: #A80036; stroke-width: 1.5;" width="394" x="287" y="1083"/>
        <ellipse cx="456.25" cy="1099" fill="#ADD1B2" rx="11" ry="11" style="stroke: #A80036; stroke-width: 1.0;"/>
        <path d="M459.0156,1094.875 Q459.1719,1094.6563 459.3594,1094.5469 Q459.5469,1094.4375 459.7656,1094.4375 Q460.1406,1094.4375 460.375,1094.6953 Q460.6094,1094.9531 460.6094,1095.5625 L460.6094,1097.0156 Q460.6094,1097.625 460.375,1097.8906 Q460.1406,1098.1563 459.7656,1098.1563 Q459.4219,1098.1563 459.2188,1097.9531 Q459.0156,1097.7656 458.9063,1097.25 Q458.8594,1096.8906 458.6719,1096.7031 Q458.3438,1096.3281 457.7344,1096.1094 Q457.125,1095.8906 456.5,1095.8906 Q455.7344,1095.8906 455.1016,1096.2188 Q454.4688,1096.5469 453.9766,1097.2969 Q453.4844,1098.0469 453.4844,1099.0781 L453.4844,1100.1719 Q453.4844,1101.4063 454.375,1102.2266 Q455.2656,1103.0469 456.8594,1103.0469 Q457.7969,1103.0469 458.4531,1102.7969 Q458.8438,1102.6406 459.2656,1102.2031 Q459.5313,1101.9375 459.6797,1101.8594 Q459.8281,1101.7813 460.0313,1101.7813 Q460.3594,1101.7813 460.6172,1102.0391 Q460.875,1102.2969 460.875,1102.6406 Q460.875,1102.9844 460.5313,1103.3906 Q460.0313,1103.9688 459.2344,1104.2969 Q458.1563,1104.75 456.8594,1104.75 Q455.3438,1104.75 454.1406,1104.125 Q453.1563,1103.625 452.4688,1102.5547 Q451.7813,1101.4844 451.7813,1100.2031 L451.7813,1099.0469 Q451.7813,1097.7188 452.3984,1096.5703 Q453.0156,1095.4219 454.1094,1094.8047 Q455.2031,1094.1875 456.4375,1094.1875 Q457.1719,1094.1875 457.8203,1094.3516 Q458.4688,1094.5156 459.0156,1094.875 Z "/>
        <text fill="#000000" font-family="sans-serif" font-size="12" lengthAdjust="spacingAndGlyphs" textLength="47" x="476.75" y="1103.9102">TaskList</text>
        <line style="stroke: #A80036; stroke-width: 1.5;" x1="288" x2="680" y1="1115" y2="1115"/>
        <line style="stroke: #A80036; stroke-width: 1.5;" x1="288" x2="680" y1="1123" y2="1123"/>
        <text fill="#000000" font-family="sans-serif" font-size="11" lengthAdjust="spacingAndGlyphs" textLength="382" x="293" y="1138.4189">+novaTask(id, description, durationInHours, costPerHourOfJuniorEur, category)</text>
        <text fill="#000000" font-family="sans-serif" font-size="11" lengthAdjust="spacingAndGlyphs" textLength="90" x="293" y="1152.2549">+registaTask(task)</text>
        <text fill="#000000" font-family="sans-serif" font-size="11" lengthAdjust="spacingAndGlyphs" textLength="95" x="293" y="1166.0908">+getTransaction(ID)</text>
        <text fill="#000000" font-family="sans-serif" font-size="11" lengthAdjust="spacingAndGlyphs" textLength="93" x="293" y="1179.9268">+removeTask(task)</text>
        <text fill="#000000" font-family="sans-serif" font-size="11" lengthAdjust="spacingAndGlyphs" textLength="73" x="293" y="1193.7627">-addTask(task)</text>
        <text fill="#000000" font-family="sans-serif" font-size="11" lengthAdjust="spacingAndGlyphs" textLength="98" x="293" y="1207.5986">-validatesTask(task)</text>
        <text fill="#000000" font-family="sans-serif" font-size="11" lengthAdjust="spacingAndGlyphs" textLength="90" x="293" y="1221.4346">+emailAboutTask()</text>
        <!--class Task-->
        <rect fill="#FEFECE" filter="url(#fdoi3jffydzrn)" height="131.0156" style="stroke: #A80036; stroke-width: 1.5;" width="370" x="6" y="1306"/>
        <ellipse cx="173.25" cy="1322" fill="#ADD1B2" rx="11" ry="11" style="stroke: #A80036; stroke-width: 1.0;"/>
        <path d="M176.0156,1317.875 Q176.1719,1317.6563 176.3594,1317.5469 Q176.5469,1317.4375 176.7656,1317.4375 Q177.1406,1317.4375 177.375,1317.6953 Q177.6094,1317.9531 177.6094,1318.5625 L177.6094,1320.0156 Q177.6094,1320.625 177.375,1320.8906 Q177.1406,1321.1563 176.7656,1321.1563 Q176.4219,1321.1563 176.2188,1320.9531 Q176.0156,1320.7656 175.9063,1320.25 Q175.8594,1319.8906 175.6719,1319.7031 Q175.3438,1319.3281 174.7344,1319.1094 Q174.125,1318.8906 173.5,1318.8906 Q172.7344,1318.8906 172.1016,1319.2188 Q171.4688,1319.5469 170.9766,1320.2969 Q170.4844,1321.0469 170.4844,1322.0781 L170.4844,1323.1719 Q170.4844,1324.4063 171.375,1325.2266 Q172.2656,1326.0469 173.8594,1326.0469 Q174.7969,1326.0469 175.4531,1325.7969 Q175.8438,1325.6406 176.2656,1325.2031 Q176.5313,1324.9375 176.6797,1324.8594 Q176.8281,1324.7813 177.0313,1324.7813 Q177.3594,1324.7813 177.6172,1325.0391 Q177.875,1325.2969 177.875,1325.6406 Q177.875,1325.9844 177.5313,1326.3906 Q177.0313,1326.9688 176.2344,1327.2969 Q175.1563,1327.75 173.8594,1327.75 Q172.3438,1327.75 171.1406,1327.125 Q170.1563,1326.625 169.4688,1325.5547 Q168.7813,1324.4844 168.7813,1323.2031 L168.7813,1322.0469 Q168.7813,1320.7188 169.3984,1319.5703 Q170.0156,1318.4219 171.1094,1317.8047 Q172.2031,1317.1875 173.4375,1317.1875 Q174.1719,1317.1875 174.8203,1317.3516 Q175.4688,1317.5156 176.0156,1317.875 Z "/>
        <text fill="#000000" font-family="sans-serif" font-size="12" lengthAdjust="spacingAndGlyphs" textLength="27" x="193.75" y="1326.9102">Task</text>
        <line style="stroke: #A80036; stroke-width: 1.5;" x1="7" x2="375" y1="1338" y2="1338"/>
        <text fill="#000000" font-family="sans-serif" font-size="11" lengthAdjust="spacingAndGlyphs" textLength="43" x="12" y="1353.4189">-String id</text>
        <text fill="#000000" font-family="sans-serif" font-size="11" lengthAdjust="spacingAndGlyphs" textLength="88" x="12" y="1367.2549">-String description</text>
        <text fill="#000000" font-family="sans-serif" font-size="11" lengthAdjust="spacingAndGlyphs" textLength="116" x="12" y="1381.0908">-Integer durationInHours</text>
        <text fill="#000000" font-family="sans-serif" font-size="11" lengthAdjust="spacingAndGlyphs" textLength="157" x="12" y="1394.9268">-Double costPerHourOfJuniorEur</text>
        <text fill="#000000" font-family="sans-serif" font-size="11" lengthAdjust="spacingAndGlyphs" textLength="78" x="12" y="1408.7627">-String category</text>
        <line style="stroke: #A80036; stroke-width: 1.5;" x1="7" x2="375" y1="1415.1797" y2="1415.1797"/>
        <text fill="#000000" font-family="sans-serif" font-size="11" lengthAdjust="spacingAndGlyphs" textLength="358" x="12" y="1430.5986">+Task(id, description, durationInHours, costPerHourOfJuniorEur, category)</text>
        <!--class TaskExecutionDetails-->
        <rect fill="#FEFECE" filter="url(#fdoi3jffydzrn)" height="103.3438" style="stroke: #A80036; stroke-width: 1.5;" width="171" x="178.5" y="511"/>
        <ellipse cx="202.5" cy="527" fill="#ADD1B2" rx="11" ry="11" style="stroke: #A80036; stroke-width: 1.0;"/>
        <path d="M205.2656,522.875 Q205.4219,522.6563 205.6094,522.5469 Q205.7969,522.4375 206.0156,522.4375 Q206.3906,522.4375 206.625,522.6953 Q206.8594,522.9531 206.8594,523.5625 L206.8594,525.0156 Q206.8594,525.625 206.625,525.8906 Q206.3906,526.1563 206.0156,526.1563 Q205.6719,526.1563 205.4688,525.9531 Q205.2656,525.7656 205.1563,525.25 Q205.1094,524.8906 204.9219,524.7031 Q204.5938,524.3281 203.9844,524.1094 Q203.375,523.8906 202.75,523.8906 Q201.9844,523.8906 201.3516,524.2188 Q200.7188,524.5469 200.2266,525.2969 Q199.7344,526.0469 199.7344,527.0781 L199.7344,528.1719 Q199.7344,529.4063 200.625,530.2266 Q201.5156,531.0469 203.1094,531.0469 Q204.0469,531.0469 204.7031,530.7969 Q205.0938,530.6406 205.5156,530.2031 Q205.7813,529.9375 205.9297,529.8594 Q206.0781,529.7813 206.2813,529.7813 Q206.6094,529.7813 206.8672,530.0391 Q207.125,530.2969 207.125,530.6406 Q207.125,530.9844 206.7813,531.3906 Q206.2813,531.9688 205.4844,532.2969 Q204.4063,532.75 203.1094,532.75 Q201.5938,532.75 200.3906,532.125 Q199.4063,531.625 198.7188,530.5547 Q198.0313,529.4844 198.0313,528.2031 L198.0313,527.0469 Q198.0313,525.7188 198.6484,524.5703 Q199.2656,523.4219 200.3594,522.8047 Q201.4531,522.1875 202.6875,522.1875 Q203.4219,522.1875 204.0703,522.3516 Q204.7188,522.5156 205.2656,522.875 Z "/>
        <text fill="#000000" font-family="sans-serif" font-size="12" lengthAdjust="spacingAndGlyphs" textLength="119" x="218.5" y="531.9102">TaskExecutionDetails</text>
        <line style="stroke: #A80036; stroke-width: 1.5;" x1="179.5" x2="348.5" y1="543" y2="543"/>
        <text fill="#000000" font-family="sans-serif" font-size="11" lengthAdjust="spacingAndGlyphs" textLength="69" x="184.5" y="558.4189">-Date endDate</text>
        <text fill="#000000" font-family="sans-serif" font-size="11" lengthAdjust="spacingAndGlyphs" textLength="99" x="184.5" y="572.2549">-Integer delayInDays</text>
        <text fill="#000000" font-family="sans-serif" font-size="11" lengthAdjust="spacingAndGlyphs" textLength="159" x="184.5" y="586.0908">-String DescriptionQualityOfWork</text>
        <line style="stroke: #A80036; stroke-width: 1.5;" x1="179.5" x2="348.5" y1="592.5078" y2="592.5078"/>
        <text fill="#000000" font-family="sans-serif" font-size="11" lengthAdjust="spacingAndGlyphs" textLength="114" x="184.5" y="607.9268">+sendEmailFreelancer()</text>
        <!--class Freelancer-->
        <rect fill="#FEFECE" filter="url(#fdoi3jffydzrn)" height="158.6875" style="stroke: #A80036; stroke-width: 1.5;" width="135" x="214.5" y="692"/>
        <ellipse cx="249.3" cy="708" fill="#ADD1B2" rx="11" ry="11" style="stroke: #A80036; stroke-width: 1.0;"/>
        <path d="M252.0656,703.875 Q252.2219,703.6563 252.4094,703.5469 Q252.5969,703.4375 252.8156,703.4375 Q253.1906,703.4375 253.425,703.6953 Q253.6594,703.9531 253.6594,704.5625 L253.6594,706.0156 Q253.6594,706.625 253.425,706.8906 Q253.1906,707.1563 252.8156,707.1563 Q252.4719,707.1563 252.2688,706.9531 Q252.0656,706.7656 251.9563,706.25 Q251.9094,705.8906 251.7219,705.7031 Q251.3938,705.3281 250.7844,705.1094 Q250.175,704.8906 249.55,704.8906 Q248.7844,704.8906 248.1516,705.2188 Q247.5188,705.5469 247.0266,706.2969 Q246.5344,707.0469 246.5344,708.0781 L246.5344,709.1719 Q246.5344,710.4063 247.425,711.2266 Q248.3156,712.0469 249.9094,712.0469 Q250.8469,712.0469 251.5031,711.7969 Q251.8938,711.6406 252.3156,711.2031 Q252.5813,710.9375 252.7297,710.8594 Q252.8781,710.7813 253.0813,710.7813 Q253.4094,710.7813 253.6672,711.0391 Q253.925,711.2969 253.925,711.6406 Q253.925,711.9844 253.5813,712.3906 Q253.0813,712.9688 252.2844,713.2969 Q251.2063,713.75 249.9094,713.75 Q248.3938,713.75 247.1906,713.125 Q246.2063,712.625 245.5188,711.5547 Q244.8313,710.4844 244.8313,709.2031 L244.8313,708.0469 Q244.8313,706.7188 245.4484,705.5703 Q246.0656,704.4219 247.1594,703.8047 Q248.2531,703.1875 249.4875,703.1875 Q250.2219,703.1875 250.8703,703.3516 Q251.5188,703.5156 252.0656,703.875 Z "/>
        <text fill="#000000" font-family="sans-serif" font-size="12" lengthAdjust="spacingAndGlyphs" textLength="59" x="267.7" y="712.9102">Freelancer</text>
        <line style="stroke: #A80036; stroke-width: 1.5;" x1="215.5" x2="348.5" y1="724" y2="724"/>
        <text fill="#000000" font-family="sans-serif" font-size="11" lengthAdjust="spacingAndGlyphs" textLength="43" x="220.5" y="739.4189">-String id</text>
        <text fill="#000000" font-family="sans-serif" font-size="11" lengthAdjust="spacingAndGlyphs" textLength="61" x="220.5" y="753.2549">-String name</text>
        <text fill="#000000" font-family="sans-serif" font-size="11" lengthAdjust="spacingAndGlyphs" textLength="114" x="220.5" y="767.0908">-String levelOfExpertise</text>
        <text fill="#000000" font-family="sans-serif" font-size="11" lengthAdjust="spacingAndGlyphs" textLength="59" x="220.5" y="780.9268">-String email</text>
        <text fill="#000000" font-family="sans-serif" font-size="11" lengthAdjust="spacingAndGlyphs" textLength="50" x="220.5" y="794.7627">-String NIF</text>
        <text fill="#000000" font-family="sans-serif" font-size="11" lengthAdjust="spacingAndGlyphs" textLength="123" x="220.5" y="808.5986">-String bankAccountIBAN</text>
        <text fill="#000000" font-family="sans-serif" font-size="11" lengthAdjust="spacingAndGlyphs" textLength="75" x="220.5" y="822.4346">-String address</text>
        <text fill="#000000" font-family="sans-serif" font-size="11" lengthAdjust="spacingAndGlyphs" textLength="72" x="220.5" y="836.2705">-String country</text>
        <line style="stroke: #A80036; stroke-width: 1.5;" x1="215.5" x2="348.5" y1="842.6875" y2="842.6875"/>
        <!--class App-->
        <rect fill="#FEFECE" filter="url(#fdoi3jffydzrn)" height="48" style="stroke: #A80036; stroke-width: 1.5;" width="53" x="569.5" y="538.5"/>
        <ellipse cx="584.5" cy="554.5" fill="#ADD1B2" rx="11" ry="11" style="stroke: #A80036; stroke-width: 1.0;"/>
        <path d="M587.2656,550.375 Q587.4219,550.1563 587.6094,550.0469 Q587.7969,549.9375 588.0156,549.9375 Q588.3906,549.9375 588.625,550.1953 Q588.8594,550.4531 588.8594,551.0625 L588.8594,552.5156 Q588.8594,553.125 588.625,553.3906 Q588.3906,553.6563 588.0156,553.6563 Q587.6719,553.6563 587.4688,553.4531 Q587.2656,553.2656 587.1563,552.75 Q587.1094,552.3906 586.9219,552.2031 Q586.5938,551.8281 585.9844,551.6094 Q585.375,551.3906 584.75,551.3906 Q583.9844,551.3906 583.3516,551.7188 Q582.7188,552.0469 582.2266,552.7969 Q581.7344,553.5469 581.7344,554.5781 L581.7344,555.6719 Q581.7344,556.9063 582.625,557.7266 Q583.5156,558.5469 585.1094,558.5469 Q586.0469,558.5469 586.7031,558.2969 Q587.0938,558.1406 587.5156,557.7031 Q587.7813,557.4375 587.9297,557.3594 Q588.0781,557.2813 588.2813,557.2813 Q588.6094,557.2813 588.8672,557.5391 Q589.125,557.7969 589.125,558.1406 Q589.125,558.4844 588.7813,558.8906 Q588.2813,559.4688 587.4844,559.7969 Q586.4063,560.25 585.1094,560.25 Q583.5938,560.25 582.3906,559.625 Q581.4063,559.125 580.7188,558.0547 Q580.0313,556.9844 580.0313,555.7031 L580.0313,554.5469 Q580.0313,553.2188 580.6484,552.0703 Q581.2656,550.9219 582.3594,550.3047 Q583.4531,549.6875 584.6875,549.6875 Q585.4219,549.6875 586.0703,549.8516 Q586.7188,550.0156 587.2656,550.375 Z "/>
        <text fill="#000000" font-family="sans-serif" font-size="12" lengthAdjust="spacingAndGlyphs" textLength="21" x="598.5" y="559.4102">App</text>
        <line style="stroke: #A80036; stroke-width: 1.5;" x1="570.5" x2="621.5" y1="570.5" y2="570.5"/>
        <line style="stroke: #A80036; stroke-width: 1.5;" x1="570.5" x2="621.5" y1="578.5" y2="578.5"/>
        <!--class RegistOrganization-->
        <rect fill="#FEFECE" filter="url(#fdoi3jffydzrn)" height="48" style="stroke: #A80036; stroke-width: 1.5;" width="137" x="527.5" y="747.5"/>
        <ellipse cx="542.5" cy="763.5" fill="#ADD1B2" rx="11" ry="11" style="stroke: #A80036; stroke-width: 1.0;"/>
        <path d="M545.2656,759.375 Q545.4219,759.1563 545.6094,759.0469 Q545.7969,758.9375 546.0156,758.9375 Q546.3906,758.9375 546.625,759.1953 Q546.8594,759.4531 546.8594,760.0625 L546.8594,761.5156 Q546.8594,762.125 546.625,762.3906 Q546.3906,762.6563 546.0156,762.6563 Q545.6719,762.6563 545.4688,762.4531 Q545.2656,762.2656 545.1563,761.75 Q545.1094,761.3906 544.9219,761.2031 Q544.5938,760.8281 543.9844,760.6094 Q543.375,760.3906 542.75,760.3906 Q541.9844,760.3906 541.3516,760.7188 Q540.7188,761.0469 540.2266,761.7969 Q539.7344,762.5469 539.7344,763.5781 L539.7344,764.6719 Q539.7344,765.9063 540.625,766.7266 Q541.5156,767.5469 543.1094,767.5469 Q544.0469,767.5469 544.7031,767.2969 Q545.0938,767.1406 545.5156,766.7031 Q545.7813,766.4375 545.9297,766.3594 Q546.0781,766.2813 546.2813,766.2813 Q546.6094,766.2813 546.8672,766.5391 Q547.125,766.7969 547.125,767.1406 Q547.125,767.4844 546.7813,767.8906 Q546.2813,768.4688 545.4844,768.7969 Q544.4063,769.25 543.1094,769.25 Q541.5938,769.25 540.3906,768.625 Q539.4063,768.125 538.7188,767.0547 Q538.0313,765.9844 538.0313,764.7031 L538.0313,763.5469 Q538.0313,762.2188 538.6484,761.0703 Q539.2656,759.9219 540.3594,759.3047 Q541.4531,758.6875 542.6875,758.6875 Q543.4219,758.6875 544.0703,758.8516 Q544.7188,759.0156 545.2656,759.375 Z "/>
        <text fill="#000000" font-family="sans-serif" font-size="12" lengthAdjust="spacingAndGlyphs" textLength="105" x="556.5" y="768.4102">RegistOrganization</text>
        <line style="stroke: #A80036; stroke-width: 1.5;" x1="528.5" x2="663.5" y1="779.5" y2="779.5"/>
        <line style="stroke: #A80036; stroke-width: 1.5;" x1="528.5" x2="663.5" y1="787.5" y2="787.5"/>
        <!--class Timer-->
        <rect fill="#FEFECE" filter="url(#fdoi3jffydzrn)" height="48" style="stroke: #A80036; stroke-width: 1.5;" width="64" x="360" y="217"/>
        <ellipse cx="375" cy="233" fill="#ADD1B2" rx="11" ry="11" style="stroke: #A80036; stroke-width: 1.0;"/>
        <path d="M377.7656,228.875 Q377.9219,228.6563 378.1094,228.5469 Q378.2969,228.4375 378.5156,228.4375 Q378.8906,228.4375 379.125,228.6953 Q379.3594,228.9531 379.3594,229.5625 L379.3594,231.0156 Q379.3594,231.625 379.125,231.8906 Q378.8906,232.1563 378.5156,232.1563 Q378.1719,232.1563 377.9688,231.9531 Q377.7656,231.7656 377.6563,231.25 Q377.6094,230.8906 377.4219,230.7031 Q377.0938,230.3281 376.4844,230.1094 Q375.875,229.8906 375.25,229.8906 Q374.4844,229.8906 373.8516,230.2188 Q373.2188,230.5469 372.7266,231.2969 Q372.2344,232.0469 372.2344,233.0781 L372.2344,234.1719 Q372.2344,235.4063 373.125,236.2266 Q374.0156,237.0469 375.6094,237.0469 Q376.5469,237.0469 377.2031,236.7969 Q377.5938,236.6406 378.0156,236.2031 Q378.2813,235.9375 378.4297,235.8594 Q378.5781,235.7813 378.7813,235.7813 Q379.1094,235.7813 379.3672,236.0391 Q379.625,236.2969 379.625,236.6406 Q379.625,236.9844 379.2813,237.3906 Q378.7813,237.9688 377.9844,238.2969 Q376.9063,238.75 375.6094,238.75 Q374.0938,238.75 372.8906,238.125 Q371.9063,237.625 371.2188,236.5547 Q370.5313,235.4844 370.5313,234.2031 L370.5313,233.0469 Q370.5313,231.7188 371.1484,230.5703 Q371.7656,229.4219 372.8594,228.8047 Q373.9531,228.1875 375.1875,228.1875 Q375.9219,228.1875 376.5703,228.3516 Q377.2188,228.5156 377.7656,228.875 Z "/>
        <text fill="#000000" font-family="sans-serif" font-size="12" lengthAdjust="spacingAndGlyphs" textLength="32" x="389" y="237.9102">Timer</text>
        <line style="stroke: #A80036; stroke-width: 1.5;" x1="361" x2="423" y1="249" y2="249"/>
        <line style="stroke: #A80036; stroke-width: 1.5;" x1="361" x2="423" y1="257" y2="257"/>
        <path d="M622.836,576.412 C675.867,604.018 789,674.196 789,770.5 C789,770.5 789,770.5 789,1156.5 C789,1241.322 703.956,1303.124 639.142,1337.909 " fill="none" style="stroke: #A80036; stroke-width: 1.0;"/>
        <polygon fill="#A80036" points="634.512,1340.3668,644.3369,1339.6798,638.9283,1338.0224,640.5858,1332.6138,634.512,1340.3668" style="stroke: #A80036; stroke-width: 1.0;"/>
        <text fill="#000000" font-family="sans-serif" font-size="13" lengthAdjust="spacingAndGlyphs" textLength="21" x="790" y="972.4951">has</text>
        <text fill="#000000" font-family="sans-serif" font-size="13" lengthAdjust="spacingAndGlyphs" textLength="7" x="630.6096" y="575.4671">1</text>
        <text fill="#000000" font-family="sans-serif" font-size="13" lengthAdjust="spacingAndGlyphs" textLength="7" x="640.7145" y="1329.8441">1</text>
        <path d="M596,586.843 C596,625.07 596,700.885 596,742.144 " fill="none" style="stroke: #A80036; stroke-width: 1.0;"/>
        <polygon fill="#A80036" points="596,747.242,600,738.242,596,742.242,592,738.242,596,747.242" style="stroke: #A80036; stroke-width: 1.0;"/>
        <text fill="#000000" font-family="sans-serif" font-size="13" lengthAdjust="spacingAndGlyphs" textLength="21" x="597" y="658.4951">has</text>
        <text fill="#000000" font-family="sans-serif" font-size="13" lengthAdjust="spacingAndGlyphs" textLength="7" x="588.1906" y="607.8581">1</text>
        <text fill="#000000" font-family="sans-serif" font-size="13" lengthAdjust="spacingAndGlyphs" textLength="7" x="588.1031" y="736.516">1</text>
        <path d="M401.961,265.3 C410.337,284.89 422.593,313.55 433.106,338.14 " fill="none" style="stroke: #A80036; stroke-width: 1.0; stroke-dasharray: 7.0,7.0;"/>
        <polygon fill="#A80036" points="435.184,343,435.3142,333.152,433.2139,338.4045,427.9614,336.3042,435.184,343" style="stroke: #A80036; stroke-width: 1.0;"/>
        <path d="M268.403,614.138 C270.298,635.928 272.564,661.991 274.699,686.533 " fill="none" style="stroke: #A80036; stroke-width: 1.0;"/>
        <polygon fill="#A80036" points="275.152,691.745,278.3552,682.4316,274.7177,686.7639,270.3855,683.1264,275.152,691.745" style="stroke: #A80036; stroke-width: 1.0;"/>
        <text fill="#000000" font-family="sans-serif" font-size="13" lengthAdjust="spacingAndGlyphs" textLength="37" x="274" y="658.4951">knows</text>
        <text fill="#000000" font-family="sans-serif" font-size="13" lengthAdjust="spacingAndGlyphs" textLength="5" x="263.6706" y="636.0203">*</text>
        <text fill="#000000" font-family="sans-serif" font-size="13" lengthAdjust="spacingAndGlyphs" textLength="7" x="267.198" y="681.1808">1</text>
        <path d="M222.403,614.088 C193.817,654.022 161,712.497 161,770.5 C161,770.5 161,770.5 161,1156.5 C161,1204.988 168.647,1259.063 176.219,1300.724 " fill="none" style="stroke: #A80036; stroke-width: 1.0;"/>
        <polygon fill="#A80036" points="177.142,1305.742,179.4487,1296.1671,176.2379,1300.8244,171.5805,1297.6136,177.142,1305.742" style="stroke: #A80036; stroke-width: 1.0;"/>
        <text fill="#000000" font-family="sans-serif" font-size="13" lengthAdjust="spacingAndGlyphs" textLength="21" x="162" y="972.4951">has</text>
        <text fill="#000000" font-family="sans-serif" font-size="13" lengthAdjust="spacingAndGlyphs" textLength="7" x="209.0612" y="635.9632">1</text>
        <text fill="#000000" font-family="sans-serif" font-size="13" lengthAdjust="spacingAndGlyphs" textLength="7" x="168.2435" y="1295.1882">1</text>
        <path d="M523.202,1005.293 C517.73,1026.121 510.705,1052.859 504.117,1077.934 " fill="none" style="stroke: #A80036; stroke-width: 1.0;"/>
        <polygon fill="#A80036" points="502.805,1082.924,508.9594,1075.2348,504.0747,1078.0879,501.2216,1073.2033,502.805,1082.924" style="stroke: #A80036; stroke-width: 1.0;"/>
        <text fill="#000000" font-family="sans-serif" font-size="13" lengthAdjust="spacingAndGlyphs" textLength="21" x="516" y="1049.4951">has</text>
        <text fill="#000000" font-family="sans-serif" font-size="13" lengthAdjust="spacingAndGlyphs" textLength="7" x="514.0826" y="1026.2202">1</text>
        <text fill="#000000" font-family="sans-serif" font-size="13" lengthAdjust="spacingAndGlyphs" textLength="7" x="497.3833" y="1072.1355">1</text>
        <path d="M583.552,940.804 C638.327,909.514 718,850.581 718,772.5 C718,240 718,240 718,240 C718,182.45 672.18,144.07 618.936,118.9 " fill="none" style="stroke: #A80036; stroke-width: 1.0;"/>
        <polygon fill="#A80036" points="614.096,116.66,620.5851,124.0689,618.634,118.7592,623.9437,116.8081,614.096,116.66" style="stroke: #A80036; stroke-width: 1.0;"/>
        <text fill="#000000" font-family="sans-serif" font-size="13" lengthAdjust="spacingAndGlyphs" textLength="21" x="719" y="477.4951">has</text>
        <text fill="#000000" font-family="sans-serif" font-size="13" lengthAdjust="spacingAndGlyphs" textLength="7" x="591.4909" y="933.3265">1</text>
        <text fill="#000000" font-family="sans-serif" font-size="13" lengthAdjust="spacingAndGlyphs" textLength="7" x="621.8749" y="115.8663">1</text>
        <path d="M490.569,433.42 C516.885,465.392 551.529,507.477 573.787,534.515 " fill="none" style="stroke: #A80036; stroke-width: 1.0; stroke-dasharray: 7.0,7.0;"/>
        <polygon fill="#A80036" points="576.978,538.393,574.3485,528.9016,573.8012,534.5319,568.1709,533.9846,576.978,538.393" style="stroke: #A80036; stroke-width: 1.0;"/>
        <path d="M458.208,433.11 C466.319,515.494 485.501,698.229 510,851 C513.88,875.195 519.195,902.058 523.739,923.732 " fill="none" style="stroke: #A80036; stroke-width: 1.0; stroke-dasharray: 7.0,7.0;"/>
        <polygon fill="#A80036" points="524.815,928.841,526.8752,919.21,523.785,923.9482,519.0468,920.858,524.815,928.841" style="stroke: #A80036; stroke-width: 1.0;"/>
        <path d="M433.256,433.34 C419.137,467.571 403,516.53 403,561.5 C403,561.5 403,561.5 403,968 C403,1006.188 417.464,1045.405 434.168,1077.962 " fill="none" style="stroke: #A80036; stroke-width: 1.0; stroke-dasharray: 7.0,7.0;"/>
        <polygon fill="#A80036" points="436.648,1082.716,436.0311,1072.8865,434.3351,1078.2831,428.9385,1076.5871,436.648,1082.716" style="stroke: #A80036; stroke-width: 1.0;"/>
        <path d="M405.07,433.42 C380.233,455.973 349.852,483.555 323.654,507.34 " fill="none" style="stroke: #A80036; stroke-width: 1.0; stroke-dasharray: 7.0,7.0;"/>
        <polygon fill="#A80036" points="319.82,510.821,329.1723,507.7334,323.5221,507.4603,323.7952,501.81,319.82,510.821" style="stroke: #A80036; stroke-width: 1.0;"/>
        <path d="M454.423,342.95 C454.919,291.32 455.746,205.09 456.33,144.31 " fill="none" style="stroke: #A80036; stroke-width: 1.0;"/>
        <polygon fill="#A80036" points="456.378,139.25,452.2754,148.2037,456.3209,144.2497,460.2749,148.2951,456.378,139.25" style="stroke: #A80036; stroke-width: 1.0;"/>
        <text fill="#000000" font-family="sans-serif" font-size="13" lengthAdjust="spacingAndGlyphs" textLength="37" x="457" y="246.4951">knows</text>
        <text fill="#000000" font-family="sans-serif" font-size="13" lengthAdjust="spacingAndGlyphs" textLength="7" x="446.9326" y="332.0575">1</text>
        <text fill="#000000" font-family="sans-serif" font-size="13" lengthAdjust="spacingAndGlyphs" textLength="7" x="448.9529" y="160.3679">1</text>
        <path d="M511.753,1228.056 C525.786,1264.238 542.183,1306.515 553.448,1335.559 " fill="none" style="stroke: #A80036; stroke-width: 1.0; stroke-dasharray: 7.0,7.0;"/>
        <polygon fill="#A80036" points="555.35,1340.4629,555.8247,1330.6255,553.5419,1335.8013,548.3661,1333.5184,555.35,1340.4629" style="stroke: #A80036; stroke-width: 1.0;"/>
        <path d="M386.028,1228.056 C353.071,1252.128 316.42,1278.897 283.867,1302.672 " fill="none" style="stroke: #A80036; stroke-width: 1.0;"/>
        <polygon fill="#A80036" points="279.508,1305.856,289.1351,1303.778,283.5457,1302.907,284.4167,1297.3176,279.508,1305.856" style="stroke: #A80036; stroke-width: 1.0;"/>
        <text fill="#000000" font-family="sans-serif" font-size="13" lengthAdjust="spacingAndGlyphs" textLength="21" x="339" y="1272.4951">has</text>
        <text fill="#000000" font-family="sans-serif" font-size="13" lengthAdjust="spacingAndGlyphs" textLength="7" x="369.3565" y="1249.2529">1</text>
        <text fill="#000000" font-family="sans-serif" font-size="13" lengthAdjust="spacingAndGlyphs" textLength="5" x="283.9151" y="1295.3147">*</text>
        <path d="M431.497,139.43 C421.595,164.65 410.783,192.18 402.979,212.05 " fill="none" style="stroke: #A80036; stroke-width: 1.0;"/>
        <polygon fill="#A80036" points="401.062,216.93,408.076,210.016,402.8904,212.2763,400.6301,207.0906,401.062,216.93" style="stroke: #A80036; stroke-width: 1.0;"/>
        <text fill="#000000" font-family="sans-serif" font-size="13" lengthAdjust="spacingAndGlyphs" textLength="21" x="420" y="183.4951">has</text>
        <text fill="#000000" font-family="sans-serif" font-size="13" lengthAdjust="spacingAndGlyphs" textLength="7" x="421.5061" y="160.5665">1</text>
        <text fill="#000000" font-family="sans-serif" font-size="13" lengthAdjust="spacingAndGlyphs" textLength="7" x="395.4873" y="206.2522">1</text>
        <path d="M394.569,139.01 C375.201,162.06 355.436,189.24 342,217 C295.973,312.08 276.571,435.19 268.803,505.554 " fill="none" style="stroke: #A80036; stroke-width: 1.0;"/>
        <polygon fill="#A80036" points="268.219,510.945,273.1651,502.4282,268.7575,505.9741,265.2116,501.5665,268.219,510.945" style="stroke: #A80036; stroke-width: 1.0;"/>
        <text fill="#000000" font-family="sans-serif" font-size="13" lengthAdjust="spacingAndGlyphs" textLength="21" x="312" y="309.4951">has</text>
        <text fill="#000000" font-family="sans-serif" font-size="13" lengthAdjust="spacingAndGlyphs" textLength="7" x="380.3578" y="160.5636">1</text>
        <text fill="#000000" font-family="sans-serif" font-size="13" lengthAdjust="spacingAndGlyphs" textLength="5" x="263.4607" y="500.0657">*</text>
        <path d="M588.401,795.841 C578.096,827.49 559.514,884.564 546.732,923.823 " fill="none" style="stroke: #A80036; stroke-width: 1.0;"/>
        <polygon fill="#A80036" points="545.047,929,551.6357,921.6795,546.5942,924.2454,544.0284,919.204,545.047,929" style="stroke: #A80036; stroke-width: 1.0;"/>
        <text fill="#000000" font-family="sans-serif" font-size="13" lengthAdjust="spacingAndGlyphs" textLength="21" x="559" y="895.4951">has</text>
        <text fill="#000000" font-family="sans-serif" font-size="13" lengthAdjust="spacingAndGlyphs" textLength="7" x="578.8344" y="816.8556">1</text>
        <text fill="#000000" font-family="sans-serif" font-size="13" lengthAdjust="spacingAndGlyphs" textLength="5" x="541.8072" y="918.0765">*</text>
        <!--
@startuml CD
skinparam classAttributeIconSize 0
top to bottom direction

class EmailScheduler {
        - Integer dayOfMonth
        - LocalTime timeOfDay
        + create (Integer dayOfMonth, LoaclTime timeOfDay, Task task)
        + resetTime(Integer dayOfMonth, LocalTime timeOfDay)
        + scheduleNestMonth()
        + getNextDate()
}

class DelayController {       
	+ create(Task task, EmailScheduler scheduler)
        + run()
	- sendEmail()
}


class EmailAPI {
	+ payTo(String freelancerId,String taskId, Interger delay )
}


class Organization {
        - String nome
        + getTaskList()
}

class TaskList {
  +novaTask(id, description, durationInHours, costPerHourOfJuniorEur, category)
  +registaTask(task)
  + getTransaction(ID)
  + removeTask(task)
  -addTask(task)
  -validatesTask(task)
  + emailAboutTask()
}


class Task {
        - String id
        - String description
        - Integer durationInHours
        - Double costPerHourOfJuniorEur
        - String category
         +Task(id, description, durationInHours, costPerHourOfJuniorEur, category)
	 
}

class TaskExecutionDetails {
        - Date endDate
        - Integer delayInDays
        - String DescriptionQualityOfWork
        + sendEmailFreelancer()
}

class Freelancer {
        - String id
        - String name
        - String levelOfExpertise
        - String email
        - String NIF
        - String bankAccountIBAN
        - String address
        - String country
}


App                          "1" - -> "1"      EmailAPI                  : has
App                          "1" - -> "1"      RegistOrganization        : has
Timer                            ..>          DelayController
TaskExecutionDetails         "*" - -> "1"      Freelancer                : knows
TaskExecutionDetails         "1" - -> "1"         Task                   : has
Organization                 "1" - -> "1"      TaskList                  : has
Organization                 "1" - -> "1"      EmailScheduler            : has
DelayController                  ..>          App
DelayController                  ..>          Organization
DelayController                  ..>          TaskList
DelayController                  ..>          TaskExecutionDetails
DelayController              "1" - -> "1"      EmailScheduler            : knows
TaskList                         ..>          EmailAPI
TaskList                     "1" - -> "*"      Task             : has
EmailScheduler               "1" - -> "1"      Timer                     : has
EmailScheduler               "1" - -> "*"      TaskExecutionDetails      : has
RegistOrganization           "1" - -> "*"      Organization              : has

@enduml

PlantUML version 2017.11(Wed Apr 19 17:18:59 BST 2017)
(GPL source distribution)
Java Runtime: Java(TM) SE Runtime Environment
JVM: Java HotSpot(TM) 64-Bit Server VM
Java Version: 1.8.0_231-b11
Operating System: Windows 10
OS Version: 10.0
Default Encoding: UTF-8
Language: pt
Country: PT
-->
    </g>
</svg>
