<?xml version="1.0" encoding="UTF-8" standalone="no"?><svg xmlns="http://www.w3.org/2000/svg" xmlns:xlink="http://www.w3.org/1999/xlink" contentScriptType="application/ecmascript" contentStyleType="text/css" height="1163px" preserveAspectRatio="none" style="width:730px;height:1163px;" version="1.1" viewBox="0 0 730 1163" width="730px" zoomAndPan="magnify"><defs><filter height="300%" id="fdpedkzrvp45r" width="300%" x="-1" y="-1"><feGaussianBlur result="blurOut" stdDeviation="2.0"/><feColorMatrix in="blurOut" result="blurOut2" type="matrix" values="0 0 0 0 0 0 0 0 0 0 0 0 0 0 0 0 0 0 .4 0"/><feOffset dx="4.0" dy="4.0" in="blurOut2" result="blurOut3"/><feBlend in="SourceGraphic" in2="blurOut3" mode="normal"/></filter></defs><g><ellipse cx="434.3069" cy="584.1614" fill="#FEFECE" filter="url(#fdpedkzrvp45r)" rx="123.8069" ry="27.1614" style="stroke: #A80036; stroke-width: 1.5;"/><text fill="#000000" font-family="sans-serif" font-size="14" lengthAdjust="spacingAndGlyphs" textLength="225" x="321.8069" y="589.4661">UC1  - Create Payment Transaction</text><ellipse cx="434.669" cy="665.0338" fill="#FEFECE" filter="url(#fdpedkzrvp45r)" rx="83.169" ry="19.0338" style="stroke: #A80036; stroke-width: 1.5;"/><text fill="#000000" font-family="sans-serif" font-size="14" lengthAdjust="spacingAndGlyphs" textLength="134" x="367.669" y="670.3385">UC2  - Create a Task</text><ellipse cx="434.613" cy="741.8226" fill="#FEFECE" filter="url(#fdpedkzrvp45r)" rx="99.613" ry="22.3226" style="stroke: #A80036; stroke-width: 1.5;"/><text fill="#000000" font-family="sans-serif" font-size="14" lengthAdjust="spacingAndGlyphs" textLength="172" x="348.613" y="747.1273">UC3  - Create a Freelancer</text><ellipse cx="434.7128" cy="832.0426" fill="#FEFECE" filter="url(#fdpedkzrvp45r)" rx="150.7128" ry="32.5426" style="stroke: #A80036; stroke-width: 1.5;"/><text fill="#000000" font-family="sans-serif" font-size="14" lengthAdjust="spacingAndGlyphs" textLength="282" x="293.7128" y="837.3472">UC4  - Load Historical Transactions from File</text><ellipse cx="434.7386" cy="1103.1477" fill="#FEFECE" filter="url(#fdpedkzrvp45r)" rx="233.7386" ry="49.1477" style="stroke: #A80036; stroke-width: 1.5;"/><text fill="#000000" font-family="sans-serif" font-size="14" lengthAdjust="spacingAndGlyphs" textLength="453" x="208.2386" y="1108.4524">UC5  - Define Time and Day of the Month Unpayed Tasks Will Be Payed</text><ellipse cx="434.6055" cy="400.2211" fill="#FEFECE" filter="url(#fdpedkzrvp45r)" rx="126.6055" ry="27.7211" style="stroke: #A80036; stroke-width: 1.5;"/><text fill="#000000" font-family="sans-serif" font-size="14" lengthAdjust="spacingAndGlyphs" textLength="231" x="319.1055" y="405.5258">UC6  - Automatically Make Payments</text><ellipse cx="434.4519" cy="958.9904" fill="#FEFECE" filter="url(#fdpedkzrvp45r)" rx="285.4519" ry="59.4904" style="stroke: #A80036; stroke-width: 1.5;"/><text fill="#000000" font-family="sans-serif" font-size="14" lengthAdjust="spacingAndGlyphs" textLength="558" x="155.4519" y="964.2951">UC7  - Visualize Overall Statistics About Task Execution Times and Freelancer Payments</text><ellipse cx="434.5397" cy="215.8079" fill="#FEFECE" filter="url(#fdpedkzrvp45r)" rx="104.5397" ry="23.3079" style="stroke: #A80036; stroke-width: 1.5;"/><text fill="#000000" font-family="sans-serif" font-size="14" lengthAdjust="spacingAndGlyphs" textLength="183" x="343.0397" y="221.1126">UC8  - Add New Organization</text><ellipse cx="434.5214" cy="305.8043" fill="#FEFECE" filter="url(#fdpedkzrvp45r)" rx="144.5214" ry="31.3043" style="stroke: #A80036; stroke-width: 1.5;"/><text fill="#000000" font-family="sans-serif" font-size="14" lengthAdjust="spacingAndGlyphs" textLength="269" x="300.0214" y="311.109">UC9  - Administrator Statistics Visualization</text><ellipse cx="434.4693" cy="492.1939" fill="#FEFECE" filter="url(#fdpedkzrvp45r)" rx="136.4693" ry="29.6939" style="stroke: #A80036; stroke-width: 1.5;"/><text fill="#000000" font-family="sans-serif" font-size="14" lengthAdjust="spacingAndGlyphs" textLength="252" x="308.4693" y="497.4986">UC10 - Send E-mail to Late Freelancers</text><ellipse cx="434.3762" cy="34.9752" fill="#FEFECE" filter="url(#fdpedkzrvp45r)" rx="122.8762" ry="26.9752" style="stroke: #A80036; stroke-width: 1.5;"/><text fill="#000000" font-family="sans-serif" font-size="14" lengthAdjust="spacingAndGlyphs" textLength="223" x="322.8762" y="40.2799">UC11 - Serialize Information To File</text><ellipse cx="434.3863" cy="126.9773" fill="#FEFECE" filter="url(#fdpedkzrvp45r)" rx="137.8863" ry="29.9773" style="stroke: #A80036; stroke-width: 1.5;"/><text fill="#000000" font-family="sans-serif" font-size="14" lengthAdjust="spacingAndGlyphs" textLength="255" x="306.8863" y="132.2819">UC12 - Deserialize Information From File</text><!--MD5=[16fab723be418f7eaf2ea4bd895a8e51]
entity C--><ellipse cx="47.5" cy="710" fill="#FEFECE" filter="url(#fdpedkzrvp45r)" rx="8" ry="8" style="stroke: #A80036; stroke-width: 1.5;"/><path d="M47.5,718 L47.5,745 M34.5,726 L60.5,726 M47.5,745 L34.5,760 M47.5,745 L60.5,760 " fill="none" filter="url(#fdpedkzrvp45r)" style="stroke: #A80036; stroke-width: 1.5;"/><text fill="#000000" font-family="sans-serif" font-size="14" lengthAdjust="spacingAndGlyphs" textLength="78" x="8.5" y="780.0332">Collaborator</text><!--MD5=[c72e14692f063a08d1023b5b76acc947]
entity M--><ellipse cx="47.5" cy="999" fill="#FEFECE" filter="url(#fdpedkzrvp45r)" rx="8" ry="8" style="stroke: #A80036; stroke-width: 1.5;"/><path d="M47.5,1007 L47.5,1034 M34.5,1015 L60.5,1015 M47.5,1034 L34.5,1049 M47.5,1034 L60.5,1049 " fill="none" filter="url(#fdpedkzrvp45r)" style="stroke: #A80036; stroke-width: 1.5;"/><text fill="#000000" font-family="sans-serif" font-size="14" lengthAdjust="spacingAndGlyphs" textLength="56" x="19.5" y="1069.0332">Manager</text><!--MD5=[770389ab9df153645bc6ef28055eb2b5]
entity A--><ellipse cx="47.5" cy="229" fill="#FEFECE" filter="url(#fdpedkzrvp45r)" rx="8" ry="8" style="stroke: #A80036; stroke-width: 1.5;"/><path d="M47.5,237 L47.5,264 M34.5,245 L60.5,245 M47.5,264 L34.5,279 M47.5,264 L60.5,279 " fill="none" filter="url(#fdpedkzrvp45r)" style="stroke: #A80036; stroke-width: 1.5;"/><text fill="#000000" font-family="sans-serif" font-size="14" lengthAdjust="spacingAndGlyphs" textLength="83" x="6" y="299.0332">Administrator</text><!--MD5=[1daea32f23ea6c81361d0f13801d7efd]
entity T--><ellipse cx="47.5" cy="426" fill="#FEFECE" filter="url(#fdpedkzrvp45r)" rx="8" ry="8" style="stroke: #A80036; stroke-width: 1.5;"/><path d="M47.5,434 L47.5,461 M34.5,442 L60.5,442 M47.5,461 L34.5,476 M47.5,461 L60.5,476 " fill="none" filter="url(#fdpedkzrvp45r)" style="stroke: #A80036; stroke-width: 1.5;"/><text fill="#000000" font-family="sans-serif" font-size="14" lengthAdjust="spacingAndGlyphs" textLength="31" x="32" y="496.0332">Time</text><!--MD5=[ee0fec323975fbe97ba28321ad4c4bf3]
entity U--><ellipse cx="47.5" cy="49" fill="#FEFECE" filter="url(#fdpedkzrvp45r)" rx="8" ry="8" style="stroke: #A80036; stroke-width: 1.5;"/><path d="M47.5,57 L47.5,84 M34.5,65 L60.5,65 M47.5,84 L34.5,99 M47.5,84 L60.5,99 " fill="none" filter="url(#fdpedkzrvp45r)" style="stroke: #A80036; stroke-width: 1.5;"/><text fill="#000000" font-family="sans-serif" font-size="14" lengthAdjust="spacingAndGlyphs" textLength="29" x="33" y="119.0332">User</text><!--MD5=[9030d6887516f535981585d735d1cddc]
link C to UC1--><path d="M74.5891,700.411 C92.433,675.598 118.362,645.752 149,629 C196.191,603.196 253.948,591.132 305.062,585.816 " fill="none" id="C-&gt;UC1" style="stroke: #A80036; stroke-width: 1.0;"/><polygon fill="#A80036" points="310.304,585.292,300.9509,582.2066,305.3288,585.7891,301.7463,590.167,310.304,585.292" style="stroke: #A80036; stroke-width: 1.0;"/><!--MD5=[b5354e77eeaec3a5c0a143f734fe5382]
link C to UC2--><path d="M86.8783,724.108 C105.3039,716.201 127.915,707.475 149,702 C215.101,684.836 292.007,675.444 349.182,670.422 " fill="none" id="C-&gt;UC2" style="stroke: #A80036; stroke-width: 1.0;"/><polygon fill="#A80036" points="354.304,669.979,344.9924,666.7705,349.3226,670.4104,345.6827,674.7406,354.304,669.979" style="stroke: #A80036; stroke-width: 1.0;"/><!--MD5=[69668ce398cb2ed14520a984e825e23b]
link C to UC3--><path d="M86.8228,742 C142.935,742 249.487,742 329.72,742 " fill="none" id="C-&gt;UC3" style="stroke: #A80036; stroke-width: 1.0;"/><polygon fill="#A80036" points="334.966,742,325.966,738,329.966,742,325.966,746,334.966,742" style="stroke: #A80036; stroke-width: 1.0;"/><!--MD5=[3c364845a95ae60ed6d8ff1edef6ddd2]
link C to UC4--><path d="M86.5164,759.269 C105.0535,767.134 127.862,776.005 149,782 C197.743,795.825 252.324,806.526 300.543,814.415 " fill="none" id="C-&gt;UC4" style="stroke: #A80036; stroke-width: 1.0;"/><polygon fill="#A80036" points="305.488,815.217,297.2454,809.8262,300.5526,814.4156,295.9633,817.7228,305.488,815.217" style="stroke: #A80036; stroke-width: 1.0;"/><!--MD5=[88dd927c75ae66a5e4e0d5b9f45a0ecd]
link M to UC5--><path d="M75.5725,1036.063 C113.348,1043.127 185.064,1056.5393 254.441,1069.5136 " fill="none" id="M-&gt;UC5" style="stroke: #A80036; stroke-width: 1.0;"/><polygon fill="#A80036" points="259.431,1070.4469,251.319,1064.8615,254.5161,1069.5283,249.8493,1072.7254,259.431,1070.4469" style="stroke: #A80036; stroke-width: 1.0;"/><!--MD5=[6c8935a86a71234fa123df926ea42a25]
link T to UC6--><path d="M63.1223,455.797 C105.5606,449.404 231.658,430.407 324.989,416.347 " fill="none" id="T-&gt;UC6" style="stroke: #A80036; stroke-width: 1.0;"/><polygon fill="#A80036" points="329.967,415.597,320.4711,412.984,325.0229,416.3427,321.6642,420.8945,329.967,415.597" style="stroke: #A80036; stroke-width: 1.0;"/><!--MD5=[2483dcf5b26ef1887dedc9f3dd944c94]
link C to UC7--><path d="M68.3365,783.545 C85.4618,815.074 113.102,857.11 149,882 C169.598,896.282 192.73,907.917 216.672,917.396 " fill="none" id="C-&gt;UC7" style="stroke: #A80036; stroke-width: 1.0;"/><polygon fill="#A80036" points="221.47,919.264,214.5326,912.2731,216.8102,917.4512,211.6321,919.7288,221.47,919.264" style="stroke: #A80036; stroke-width: 1.0;"/><!--MD5=[4349d7446f150a273390541a8723ec10]
link M to UC7--><path d="M75.5725,1025.937 C106.393,1020.173 159.805,1010.185 216.107,999.655 " fill="none" id="M-&gt;UC7" style="stroke: #A80036; stroke-width: 1.0;"/><polygon fill="#A80036" points="221.212,998.701,211.6296,996.4254,216.2974,999.6211,213.1017,1004.2888,221.212,998.701" style="stroke: #A80036; stroke-width: 1.0;"/><!--MD5=[5ea53c8fc41ef74910cb7ae5db865cab]
link A to UC8--><path d="M89.3373,256.227 C147.662,249.41 256.573,236.68 336.307,227.36 " fill="none" id="A-&gt;UC8" style="stroke: #A80036; stroke-width: 1.0;"/><polygon fill="#A80036" points="341.516,226.751,332.1127,223.8221,336.5498,227.3311,333.0408,231.7681,341.516,226.751" style="stroke: #A80036; stroke-width: 1.0;"/><!--MD5=[cd0b76491e9876132105be17c6a8259a]
link A to UC9--><path d="M89.3373,265.773 C139.514,271.638 227.129,281.879 301.398,290.559 " fill="none" id="A-&gt;UC9" style="stroke: #A80036; stroke-width: 1.0;"/><polygon fill="#A80036" points="306.722,291.182,298.2468,286.1649,301.7558,290.6019,297.3187,294.1109,306.722,291.182" style="stroke: #A80036; stroke-width: 1.0;"/><!--MD5=[d8548b82ed43a2b8d21297eaf8354fc3]
link T to UC10--><path d="M63.1223,459.291 C102.2831,462.75 212.68,472.499 302.833,480.461 " fill="none" id="T-&gt;UC10" style="stroke: #A80036; stroke-width: 1.0;"/><polygon fill="#A80036" points="307.924,480.91,299.311,476.1334,302.9434,480.4699,298.6069,484.1024,307.924,480.91" style="stroke: #A80036; stroke-width: 1.0;"/><!--MD5=[313afbf16a1ca793f96f138c88264742]
link U to UC11--><path d="M62.2024,79.36 C103.1293,74.47 227.431,59.62 321.026,48.44 " fill="none" id="U-&gt;UC11" style="stroke: #A80036; stroke-width: 1.0;"/><polygon fill="#A80036" points="326.02,47.84,316.6087,44.9371,321.0554,48.4338,317.5587,52.8804,326.02,47.84" style="stroke: #A80036; stroke-width: 1.0;"/><!--MD5=[701c416f0e3dcf026eaa22695eac9a77]
link U to UC12--><path d="M62.2024,82.64 C101.248,87.3 216.18,101.03 307.936,112 " fill="none" id="U-&gt;UC12" style="stroke: #A80036; stroke-width: 1.0;"/><polygon fill="#A80036" points="313.115,112.62,304.6537,107.5796,308.1504,112.0262,303.7037,115.5229,313.115,112.62" style="stroke: #A80036; stroke-width: 1.0;"/><!--MD5=[afd6c9ca35b82813c98ccaa8a1be7c9f]
@startuml DUC

usecase UC1  as "UC1  - Create Payment Transaction"
usecase UC2  as "UC2  - Create a Task"
usecase UC3  as "UC3  - Create a Freelancer"
usecase UC4  as "UC4  - Load Historical Transactions from File"
usecase UC5  as "UC5  - Define Time and Day of the Month Unpayed Tasks Will Be Payed"
usecase UC6  as "UC6  - Automatically Make Payments"
usecase UC7  as "UC7  - Visualize Overall Statistics About Task Execution Times and Freelancer Payments"
usecase UC8  as "UC8  - Add New Organization"
usecase UC9  as "UC9  - Administrator Statistics Visualization"
usecase UC10 as "UC10 - Send E-mail to Late Freelancers"
usecase UC11 as "UC11 - Serialize Information To File"
usecase UC12 as "UC12 - Deserialize Information From File"

actor Collaborator as C
actor Manager as M
actor Administrator as A
actor Time as T
actor User as U

left to right direction

C - -> (UC1)
C - -> (UC2)
C - -> (UC3)
C - -> (UC4)

M - -> (UC5)

T - -> (UC6)

C - -> (UC7)
M - -> (UC7)

A - -> (UC8)
A - -> (UC9)

T - -> (UC10)

U - -> (UC11)
U - -> (UC12)

@enduml

PlantUML version 1.2020.10(Sun May 17 10:35:57 WEST 2020)
(GPL source distribution)
Java Runtime: OpenJDK Runtime Environment
JVM: OpenJDK 64-Bit Server VM
Java Version: 14+36
Operating System: Windows 10
Default Encoding: Cp1252
Language: en
Country: US
--></g></svg>