<?xml version="1.0" encoding="UTF-8" standalone="no"?><svg xmlns="http://www.w3.org/2000/svg" xmlns:xlink="http://www.w3.org/1999/xlink" contentScriptType="application/ecmascript" contentStyleType="text/css" height="1083px" preserveAspectRatio="none" style="width:730px;height:1083px;" version="1.1" viewBox="0 0 730 1083" width="730px" zoomAndPan="magnify"><defs><filter height="300%" id="f56lavcl392vd" width="300%" x="-1" y="-1"><feGaussianBlur result="blurOut" stdDeviation="2.0"/><feColorMatrix in="blurOut" result="blurOut2" type="matrix" values="0 0 0 0 0 0 0 0 0 0 0 0 0 0 0 0 0 0 .4 0"/><feOffset dx="4.0" dy="4.0" in="blurOut2" result="blurOut3"/><feBlend in="SourceGraphic" in2="blurOut3" mode="normal"/></filter></defs><g><ellipse cx="434.3069" cy="504.1614" fill="#FEFECE" filter="url(#f56lavcl392vd)" rx="123.8069" ry="27.1614" style="stroke: #A80036; stroke-width: 1.5;"/><text fill="#000000" font-family="sans-serif" font-size="14" lengthAdjust="spacingAndGlyphs" textLength="225" x="321.8069" y="509.4661">UC1  - Create Payment Transaction</text><ellipse cx="434.669" cy="585.0338" fill="#FEFECE" filter="url(#f56lavcl392vd)" rx="83.169" ry="19.0338" style="stroke: #A80036; stroke-width: 1.5;"/><text fill="#000000" font-family="sans-serif" font-size="14" lengthAdjust="spacingAndGlyphs" textLength="134" x="367.669" y="590.3385">UC2  - Create a Task</text><ellipse cx="434.613" cy="661.8226" fill="#FEFECE" filter="url(#f56lavcl392vd)" rx="99.613" ry="22.3226" style="stroke: #A80036; stroke-width: 1.5;"/><text fill="#000000" font-family="sans-serif" font-size="14" lengthAdjust="spacingAndGlyphs" textLength="172" x="348.613" y="667.1273">UC3  - Create a Freelancer</text><ellipse cx="434.7128" cy="752.0426" fill="#FEFECE" filter="url(#f56lavcl392vd)" rx="150.7128" ry="32.5426" style="stroke: #A80036; stroke-width: 1.5;"/><text fill="#000000" font-family="sans-serif" font-size="14" lengthAdjust="spacingAndGlyphs" textLength="282" x="293.7128" y="757.3472">UC4  - Load Historical Transactions from File</text><ellipse cx="434.7386" cy="1023.1477" fill="#FEFECE" filter="url(#f56lavcl392vd)" rx="233.7386" ry="49.1477" style="stroke: #A80036; stroke-width: 1.5;"/><text fill="#000000" font-family="sans-serif" font-size="14" lengthAdjust="spacingAndGlyphs" textLength="453" x="208.2386" y="1028.4524">UC5  - Define Time and Day of the Month Unpayed Tasks Will Be Payed</text><ellipse cx="434.6055" cy="320.2211" fill="#FEFECE" filter="url(#f56lavcl392vd)" rx="126.6055" ry="27.7211" style="stroke: #A80036; stroke-width: 1.5;"/><text fill="#000000" font-family="sans-serif" font-size="14" lengthAdjust="spacingAndGlyphs" textLength="231" x="319.1055" y="325.5258">UC6  - Automatically Make Payments</text><ellipse cx="434.4519" cy="878.9904" fill="#FEFECE" filter="url(#f56lavcl392vd)" rx="285.4519" ry="59.4904" style="stroke: #A80036; stroke-width: 1.5;"/><text fill="#000000" font-family="sans-serif" font-size="14" lengthAdjust="spacingAndGlyphs" textLength="558" x="155.4519" y="884.2951">UC7  - Visualize Overall Statistics About Task Execution Times and Freelancer Payments</text><ellipse cx="434.5397" cy="135.8079" fill="#FEFECE" filter="url(#f56lavcl392vd)" rx="104.5397" ry="23.3079" style="stroke: #A80036; stroke-width: 1.5;"/><text fill="#000000" font-family="sans-serif" font-size="14" lengthAdjust="spacingAndGlyphs" textLength="183" x="343.0397" y="141.1126">UC8  - Add New Organization</text><ellipse cx="434.5214" cy="225.8043" fill="#FEFECE" filter="url(#f56lavcl392vd)" rx="144.5214" ry="31.3043" style="stroke: #A80036; stroke-width: 1.5;"/><text fill="#000000" font-family="sans-serif" font-size="14" lengthAdjust="spacingAndGlyphs" textLength="269" x="300.0214" y="231.109">UC9  - Administrator Statistics Visualization</text><ellipse cx="434.4693" cy="412.1939" fill="#FEFECE" filter="url(#f56lavcl392vd)" rx="136.4693" ry="29.6939" style="stroke: #A80036; stroke-width: 1.5;"/><text fill="#000000" font-family="sans-serif" font-size="14" lengthAdjust="spacingAndGlyphs" textLength="252" x="308.4693" y="417.4986">UC10 - Send E-mail to Late Freelancers</text><ellipse cx="434.3762" cy="49.9752" fill="#FEFECE" filter="url(#f56lavcl392vd)" rx="122.8762" ry="26.9752" style="stroke: #A80036; stroke-width: 1.5;"/><text fill="#000000" font-family="sans-serif" font-size="14" lengthAdjust="spacingAndGlyphs" textLength="223" x="322.8762" y="55.2799">UC11 - Serialize Information To File</text><!--MD5=[16fab723be418f7eaf2ea4bd895a8e51]
entity C--><ellipse cx="47.5" cy="630" fill="#FEFECE" filter="url(#f56lavcl392vd)" rx="8" ry="8" style="stroke: #A80036; stroke-width: 1.5;"/><path d="M47.5,638 L47.5,665 M34.5,646 L60.5,646 M47.5,665 L34.5,680 M47.5,665 L60.5,680 " fill="none" filter="url(#f56lavcl392vd)" style="stroke: #A80036; stroke-width: 1.5;"/><text fill="#000000" font-family="sans-serif" font-size="14" lengthAdjust="spacingAndGlyphs" textLength="78" x="8.5" y="700.0332">Collaborator</text><!--MD5=[c72e14692f063a08d1023b5b76acc947]
entity M--><ellipse cx="47.5" cy="919" fill="#FEFECE" filter="url(#f56lavcl392vd)" rx="8" ry="8" style="stroke: #A80036; stroke-width: 1.5;"/><path d="M47.5,927 L47.5,954 M34.5,935 L60.5,935 M47.5,954 L34.5,969 M47.5,954 L60.5,969 " fill="none" filter="url(#f56lavcl392vd)" style="stroke: #A80036; stroke-width: 1.5;"/><text fill="#000000" font-family="sans-serif" font-size="14" lengthAdjust="spacingAndGlyphs" textLength="56" x="19.5" y="989.0332">Manager</text><!--MD5=[770389ab9df153645bc6ef28055eb2b5]
entity A--><ellipse cx="47.5" cy="165" fill="#FEFECE" filter="url(#f56lavcl392vd)" rx="8" ry="8" style="stroke: #A80036; stroke-width: 1.5;"/><path d="M47.5,173 L47.5,200 M34.5,181 L60.5,181 M47.5,200 L34.5,215 M47.5,200 L60.5,215 " fill="none" filter="url(#f56lavcl392vd)" style="stroke: #A80036; stroke-width: 1.5;"/><text fill="#000000" font-family="sans-serif" font-size="14" lengthAdjust="spacingAndGlyphs" textLength="83" x="6" y="235.0332">Administrator</text><!--MD5=[1daea32f23ea6c81361d0f13801d7efd]
entity T--><ellipse cx="47.5" cy="346" fill="#FEFECE" filter="url(#f56lavcl392vd)" rx="8" ry="8" style="stroke: #A80036; stroke-width: 1.5;"/><path d="M47.5,354 L47.5,381 M34.5,362 L60.5,362 M47.5,381 L34.5,396 M47.5,381 L60.5,396 " fill="none" filter="url(#f56lavcl392vd)" style="stroke: #A80036; stroke-width: 1.5;"/><text fill="#000000" font-family="sans-serif" font-size="14" lengthAdjust="spacingAndGlyphs" textLength="31" x="32" y="416.0332">Time</text><!--MD5=[ee0fec323975fbe97ba28321ad4c4bf3]
entity U--><ellipse cx="47.5" cy="18" fill="#FEFECE" filter="url(#f56lavcl392vd)" rx="8" ry="8" style="stroke: #A80036; stroke-width: 1.5;"/><path d="M47.5,26 L47.5,53 M34.5,34 L60.5,34 M47.5,53 L34.5,68 M47.5,53 L60.5,68 " fill="none" filter="url(#f56lavcl392vd)" style="stroke: #A80036; stroke-width: 1.5;"/><text fill="#000000" font-family="sans-serif" font-size="14" lengthAdjust="spacingAndGlyphs" textLength="29" x="33" y="88.0332">User</text><!--MD5=[9030d6887516f535981585d735d1cddc]
link C to UC1--><path d="M74.5891,620.411 C92.433,595.598 118.362,565.752 149,549 C196.191,523.196 253.948,511.132 305.062,505.816 " fill="none" id="C-&gt;UC1" style="stroke: #A80036; stroke-width: 1.0;"/><polygon fill="#A80036" points="310.304,505.292,300.9509,502.2066,305.3288,505.7891,301.7463,510.167,310.304,505.292" style="stroke: #A80036; stroke-width: 1.0;"/><!--MD5=[b5354e77eeaec3a5c0a143f734fe5382]
link C to UC2--><path d="M86.8783,644.108 C105.3039,636.201 127.915,627.475 149,622 C215.101,604.836 292.007,595.444 349.182,590.422 " fill="none" id="C-&gt;UC2" style="stroke: #A80036; stroke-width: 1.0;"/><polygon fill="#A80036" points="354.304,589.979,344.9924,586.7705,349.3226,590.4104,345.6827,594.7406,354.304,589.979" style="stroke: #A80036; stroke-width: 1.0;"/><!--MD5=[69668ce398cb2ed14520a984e825e23b]
link C to UC3--><path d="M86.8228,662 C142.935,662 249.487,662 329.72,662 " fill="none" id="C-&gt;UC3" style="stroke: #A80036; stroke-width: 1.0;"/><polygon fill="#A80036" points="334.966,662,325.966,658,329.966,662,325.966,666,334.966,662" style="stroke: #A80036; stroke-width: 1.0;"/><!--MD5=[3c364845a95ae60ed6d8ff1edef6ddd2]
link C to UC4--><path d="M86.5164,679.269 C105.0535,687.134 127.862,696.005 149,702 C197.743,715.825 252.324,726.526 300.543,734.415 " fill="none" id="C-&gt;UC4" style="stroke: #A80036; stroke-width: 1.0;"/><polygon fill="#A80036" points="305.488,735.217,297.2454,729.8262,300.5526,734.4156,295.9633,737.7228,305.488,735.217" style="stroke: #A80036; stroke-width: 1.0;"/><!--MD5=[88dd927c75ae66a5e4e0d5b9f45a0ecd]
link M to UC5--><path d="M75.5725,956.063 C113.348,963.127 185.064,976.5393 254.441,989.5136 " fill="none" id="M-&gt;UC5" style="stroke: #A80036; stroke-width: 1.0;"/><polygon fill="#A80036" points="259.431,990.4469,251.319,984.8615,254.5161,989.5283,249.8493,992.7254,259.431,990.4469" style="stroke: #A80036; stroke-width: 1.0;"/><!--MD5=[6c8935a86a71234fa123df926ea42a25]
link T to UC6--><path d="M63.1223,375.797 C105.5606,369.404 231.658,350.407 324.989,336.347 " fill="none" id="T-&gt;UC6" style="stroke: #A80036; stroke-width: 1.0;"/><polygon fill="#A80036" points="329.967,335.597,320.4711,332.984,325.0229,336.3427,321.6642,340.8945,329.967,335.597" style="stroke: #A80036; stroke-width: 1.0;"/><!--MD5=[2483dcf5b26ef1887dedc9f3dd944c94]
link C to UC7--><path d="M68.3365,703.545 C85.4618,735.074 113.102,777.11 149,802 C169.598,816.282 192.73,827.917 216.672,837.396 " fill="none" id="C-&gt;UC7" style="stroke: #A80036; stroke-width: 1.0;"/><polygon fill="#A80036" points="221.47,839.264,214.5326,832.2731,216.8102,837.4512,211.6321,839.7288,221.47,839.264" style="stroke: #A80036; stroke-width: 1.0;"/><!--MD5=[4349d7446f150a273390541a8723ec10]
link M to UC7--><path d="M75.5725,945.937 C106.393,940.173 159.805,930.185 216.107,919.655 " fill="none" id="M-&gt;UC7" style="stroke: #A80036; stroke-width: 1.0;"/><polygon fill="#A80036" points="221.212,918.701,211.6296,916.4254,216.2974,919.6211,213.1017,924.2888,221.212,918.701" style="stroke: #A80036; stroke-width: 1.0;"/><!--MD5=[5ea53c8fc41ef74910cb7ae5db865cab]
link A to UC8--><path d="M89.4817,188.33 C107.671,184.616 129.362,180.367 149,177 C212.022,166.196 283.23,155.936 338.64,148.382 " fill="none" id="A-&gt;UC8" style="stroke: #A80036; stroke-width: 1.0;"/><polygon fill="#A80036" points="343.613,147.705,334.1558,144.9553,338.6587,148.3793,335.2346,152.8822,343.613,147.705" style="stroke: #A80036; stroke-width: 1.0;"/><!--MD5=[cd0b76491e9876132105be17c6a8259a]
link A to UC9--><path d="M89.3373,200.076 C137.529,203.706 220.258,209.938 292.527,215.381 " fill="none" id="A-&gt;UC9" style="stroke: #A80036; stroke-width: 1.0;"/><polygon fill="#A80036" points="297.712,215.772,289.038,211.107,292.7261,215.3963,288.4369,219.0844,297.712,215.772" style="stroke: #A80036; stroke-width: 1.0;"/><!--MD5=[d8548b82ed43a2b8d21297eaf8354fc3]
link T to UC10--><path d="M63.1223,379.291 C102.2831,382.75 212.68,392.499 302.833,400.461 " fill="none" id="T-&gt;UC10" style="stroke: #A80036; stroke-width: 1.0;"/><polygon fill="#A80036" points="307.924,400.91,299.311,396.1334,302.9434,400.4699,298.6069,404.1024,307.924,400.91" style="stroke: #A80036; stroke-width: 1.0;"/><!--MD5=[313afbf16a1ca793f96f138c88264742]
link U to UC11--><path d="M62.2024,50 C100.9851,50 214.635,50 306.08,50 " fill="none" id="U-&gt;UC11" style="stroke: #A80036; stroke-width: 1.0;"/><polygon fill="#A80036" points="311.241,50,302.241,46,306.241,50,302.241,54,311.241,50" style="stroke: #A80036; stroke-width: 1.0;"/><!--MD5=[77019fc5d1d31998e6762984d8deb572]
@startuml DUC

usecase UC1  as "UC1  - Create Payment Transaction"
usecase UC2  as "UC2  - Create a Task"
usecase UC3  as "UC3  - Create a Freelancer"
usecase UC4  as "UC4  - Load Historical Transactions from File"
usecase UC5  as "UC5  - Define Time and Day of the Month Unpayed Tasks Will Be Payed"
usecase UC6  as "UC6  - Automatically Make Payments"
usecase UC7  as "UC7  - Visualize Overall Statistics About Task Execution Times and Freelancer Payments"
usecase UC8  as "UC8  - Add New Organization"
usecase UC9  as "UC9  - Administrator Statistics Visualization"
usecase UC10 as "UC10 - Send E-mail to Late Freelancers"
usecase UC11 as "UC11 - Serialize Information To File"

actor Collaborator as C
actor Manager as M
actor Administrator as A
actor Time as T
actor User as U

left to right direction

C - -> (UC1)
C - -> (UC2)
C - -> (UC3)
C - -> (UC4)

M - -> (UC5)

T - -> (UC6)

C - -> (UC7)
M - -> (UC7)

A - -> (UC8)
A - -> (UC9)

T - -> (UC10)

U - -> (UC11)

@enduml

PlantUML version 1.2020.10(Sun May 17 10:35:57 WEST 2020)
(GPL source distribution)
Java Runtime: OpenJDK Runtime Environment
JVM: OpenJDK 64-Bit Server VM
Java Version: 14+36
Operating System: Windows 10
Default Encoding: Cp1252
Language: en
Country: US
--></g></svg>