<?xml version="1.0" encoding="UTF-8" standalone="no"?><svg xmlns="http://www.w3.org/2000/svg" xmlns:xlink="http://www.w3.org/1999/xlink" contentScriptType="application/ecmascript" contentStyleType="text/css" height="1269px" preserveAspectRatio="none" style="width:730px;height:1269px;" version="1.1" viewBox="0 0 730 1269" width="730px" zoomAndPan="magnify"><defs><filter height="300%" id="f427z2p0jmyhg" width="300%" x="-1" y="-1"><feGaussianBlur result="blurOut" stdDeviation="2.0"/><feColorMatrix in="blurOut" result="blurOut2" type="matrix" values="0 0 0 0 0 0 0 0 0 0 0 0 0 0 0 0 0 0 .4 0"/><feOffset dx="4.0" dy="4.0" in="blurOut2" result="blurOut3"/><feBlend in="SourceGraphic" in2="blurOut3" mode="normal"/></filter></defs><g><ellipse cx="434.3069" cy="690.1614" fill="#FEFECE" filter="url(#f427z2p0jmyhg)" rx="123.8069" ry="27.1614" style="stroke: #A80036; stroke-width: 1.5;"/><text fill="#000000" font-family="sans-serif" font-size="14" lengthAdjust="spacingAndGlyphs" textLength="225" x="321.8069" y="695.4661">UC1  - Create Payment Transaction</text><ellipse cx="434.669" cy="771.0338" fill="#FEFECE" filter="url(#f427z2p0jmyhg)" rx="83.169" ry="19.0338" style="stroke: #A80036; stroke-width: 1.5;"/><text fill="#000000" font-family="sans-serif" font-size="14" lengthAdjust="spacingAndGlyphs" textLength="134" x="367.669" y="776.3385">UC2  - Create a Task</text><ellipse cx="434.613" cy="847.8226" fill="#FEFECE" filter="url(#f427z2p0jmyhg)" rx="99.613" ry="22.3226" style="stroke: #A80036; stroke-width: 1.5;"/><text fill="#000000" font-family="sans-serif" font-size="14" lengthAdjust="spacingAndGlyphs" textLength="172" x="348.613" y="853.1273">UC3  - Create a Freelancer</text><ellipse cx="434.7128" cy="938.0426" fill="#FEFECE" filter="url(#f427z2p0jmyhg)" rx="150.7128" ry="32.5426" style="stroke: #A80036; stroke-width: 1.5;"/><text fill="#000000" font-family="sans-serif" font-size="14" lengthAdjust="spacingAndGlyphs" textLength="282" x="293.7128" y="943.3472">UC4  - Load Historical Transactions from File</text><ellipse cx="434.7386" cy="1209.1477" fill="#FEFECE" filter="url(#f427z2p0jmyhg)" rx="233.7386" ry="49.1477" style="stroke: #A80036; stroke-width: 1.5;"/><text fill="#000000" font-family="sans-serif" font-size="14" lengthAdjust="spacingAndGlyphs" textLength="453" x="208.2386" y="1214.4524">UC5  - Define Time and Day of the Month Unpaid Tasks Will Be Paid</text><ellipse cx="434.6055" cy="506.2211" fill="#FEFECE" filter="url(#f427z2p0jmyhg)" rx="126.6055" ry="27.7211" style="stroke: #A80036; stroke-width: 1.5;"/><text fill="#000000" font-family="sans-serif" font-size="14" lengthAdjust="spacingAndGlyphs" textLength="231" x="319.1055" y="511.5258">UC6  - Automatically Make Payments</text><ellipse cx="434.4519" cy="1064.9904" fill="#FEFECE" filter="url(#f427z2p0jmyhg)" rx="285.4519" ry="59.4904" style="stroke: #A80036; stroke-width: 1.5;"/><text fill="#000000" font-family="sans-serif" font-size="14" lengthAdjust="spacingAndGlyphs" textLength="558" x="155.4519" y="1070.2951">UC7  - Visualize Overall Statistics About Task Execution Times and Freelancer Payments</text><ellipse cx="434.5397" cy="215.8079" fill="#FEFECE" filter="url(#f427z2p0jmyhg)" rx="104.5397" ry="23.3079" style="stroke: #A80036; stroke-width: 1.5;"/><text fill="#000000" font-family="sans-serif" font-size="14" lengthAdjust="spacingAndGlyphs" textLength="183" x="343.0397" y="221.1126">UC8  - Add New Organization</text><ellipse cx="434.5214" cy="305.8043" fill="#FEFECE" filter="url(#f427z2p0jmyhg)" rx="144.5214" ry="31.3043" style="stroke: #A80036; stroke-width: 1.5;"/><text fill="#000000" font-family="sans-serif" font-size="14" lengthAdjust="spacingAndGlyphs" textLength="269" x="300.0214" y="311.109">UC9  - Administrator Statistics Visualization</text><ellipse cx="434.4693" cy="598.1939" fill="#FEFECE" filter="url(#f427z2p0jmyhg)" rx="136.4693" ry="29.6939" style="stroke: #A80036; stroke-width: 1.5;"/><text fill="#000000" font-family="sans-serif" font-size="14" lengthAdjust="spacingAndGlyphs" textLength="252" x="308.4693" y="603.4986">UC10 - Send E-mail to Late Freelancers</text><ellipse cx="434.3762" cy="34.9752" fill="#FEFECE" filter="url(#f427z2p0jmyhg)" rx="122.8762" ry="26.9752" style="stroke: #A80036; stroke-width: 1.5;"/><text fill="#000000" font-family="sans-serif" font-size="14" lengthAdjust="spacingAndGlyphs" textLength="223" x="322.8762" y="40.2799">UC11 - Serialize Information To File</text><ellipse cx="434.3863" cy="126.9773" fill="#FEFECE" filter="url(#f427z2p0jmyhg)" rx="137.8863" ry="29.9773" style="stroke: #A80036; stroke-width: 1.5;"/><text fill="#000000" font-family="sans-serif" font-size="14" lengthAdjust="spacingAndGlyphs" textLength="255" x="306.8863" y="132.2819">UC12 - Deserialize Information From File</text><ellipse cx="434.5928" cy="407.9186" fill="#FEFECE" filter="url(#f427z2p0jmyhg)" rx="165.0928" ry="35.4186" style="stroke: #A80036; stroke-width: 1.5;"/><text fill="#000000" font-family="sans-serif" font-size="14" lengthAdjust="spacingAndGlyphs" textLength="312" x="278.5928" y="413.2232">UC13 - Manually Send E-mail to Late Freelancers</text><!--MD5=[16fab723be418f7eaf2ea4bd895a8e51]
entity C--><ellipse cx="47.5" cy="816" fill="#FEFECE" filter="url(#f427z2p0jmyhg)" rx="8" ry="8" style="stroke: #A80036; stroke-width: 1.5;"/><path d="M47.5,824 L47.5,851 M34.5,832 L60.5,832 M47.5,851 L34.5,866 M47.5,851 L60.5,866 " fill="none" filter="url(#f427z2p0jmyhg)" style="stroke: #A80036; stroke-width: 1.5;"/><text fill="#000000" font-family="sans-serif" font-size="14" lengthAdjust="spacingAndGlyphs" textLength="78" x="8.5" y="886.0332">Collaborator</text><!--MD5=[c72e14692f063a08d1023b5b76acc947]
entity M--><ellipse cx="47.5" cy="1105" fill="#FEFECE" filter="url(#f427z2p0jmyhg)" rx="8" ry="8" style="stroke: #A80036; stroke-width: 1.5;"/><path d="M47.5,1113 L47.5,1140 M34.5,1121 L60.5,1121 M47.5,1140 L34.5,1155 M47.5,1140 L60.5,1155 " fill="none" filter="url(#f427z2p0jmyhg)" style="stroke: #A80036; stroke-width: 1.5;"/><text fill="#000000" font-family="sans-serif" font-size="14" lengthAdjust="spacingAndGlyphs" textLength="56" x="19.5" y="1175.0332">Manager</text><!--MD5=[770389ab9df153645bc6ef28055eb2b5]
entity A--><ellipse cx="47.5" cy="274" fill="#FEFECE" filter="url(#f427z2p0jmyhg)" rx="8" ry="8" style="stroke: #A80036; stroke-width: 1.5;"/><path d="M47.5,282 L47.5,309 M34.5,290 L60.5,290 M47.5,309 L34.5,324 M47.5,309 L60.5,324 " fill="none" filter="url(#f427z2p0jmyhg)" style="stroke: #A80036; stroke-width: 1.5;"/><text fill="#000000" font-family="sans-serif" font-size="14" lengthAdjust="spacingAndGlyphs" textLength="83" x="6" y="344.0332">Administrator</text><!--MD5=[1daea32f23ea6c81361d0f13801d7efd]
entity T--><ellipse cx="47.5" cy="520" fill="#FEFECE" filter="url(#f427z2p0jmyhg)" rx="8" ry="8" style="stroke: #A80036; stroke-width: 1.5;"/><path d="M47.5,528 L47.5,555 M34.5,536 L60.5,536 M47.5,555 L34.5,570 M47.5,555 L60.5,570 " fill="none" filter="url(#f427z2p0jmyhg)" style="stroke: #A80036; stroke-width: 1.5;"/><text fill="#000000" font-family="sans-serif" font-size="14" lengthAdjust="spacingAndGlyphs" textLength="31" x="32" y="590.0332">Time</text><!--MD5=[ee0fec323975fbe97ba28321ad4c4bf3]
entity U--><ellipse cx="47.5" cy="49" fill="#FEFECE" filter="url(#f427z2p0jmyhg)" rx="8" ry="8" style="stroke: #A80036; stroke-width: 1.5;"/><path d="M47.5,57 L47.5,84 M34.5,65 L60.5,65 M47.5,84 L34.5,99 M47.5,84 L60.5,99 " fill="none" filter="url(#f427z2p0jmyhg)" style="stroke: #A80036; stroke-width: 1.5;"/><text fill="#000000" font-family="sans-serif" font-size="14" lengthAdjust="spacingAndGlyphs" textLength="29" x="33" y="119.0332">User</text><!--MD5=[9030d6887516f535981585d735d1cddc]
link C to UC1--><path d="M74.5891,806.411 C92.433,781.598 118.362,751.752 149,735 C196.191,709.196 253.948,697.132 305.062,691.816 " fill="none" id="C-&gt;UC1" style="stroke: #A80036; stroke-width: 1.0;"/><polygon fill="#A80036" points="310.304,691.292,300.9509,688.2066,305.3288,691.7891,301.7463,696.167,310.304,691.292" style="stroke: #A80036; stroke-width: 1.0;"/><!--MD5=[b5354e77eeaec3a5c0a143f734fe5382]
link C to UC2--><path d="M86.8783,830.108 C105.3039,822.201 127.915,813.475 149,808 C215.101,790.836 292.007,781.444 349.182,776.422 " fill="none" id="C-&gt;UC2" style="stroke: #A80036; stroke-width: 1.0;"/><polygon fill="#A80036" points="354.304,775.979,344.9924,772.7705,349.3226,776.4104,345.6827,780.7406,354.304,775.979" style="stroke: #A80036; stroke-width: 1.0;"/><!--MD5=[69668ce398cb2ed14520a984e825e23b]
link C to UC3--><path d="M86.8228,848 C142.935,848 249.487,848 329.72,848 " fill="none" id="C-&gt;UC3" style="stroke: #A80036; stroke-width: 1.0;"/><polygon fill="#A80036" points="334.966,848,325.966,844,329.966,848,325.966,852,334.966,848" style="stroke: #A80036; stroke-width: 1.0;"/><!--MD5=[3c364845a95ae60ed6d8ff1edef6ddd2]
link C to UC4--><path d="M86.5164,865.269 C105.0535,873.134 127.862,882.005 149,888 C197.743,901.825 252.324,912.526 300.543,920.415 " fill="none" id="C-&gt;UC4" style="stroke: #A80036; stroke-width: 1.0;"/><polygon fill="#A80036" points="305.488,921.217,297.2454,915.8262,300.5526,920.4156,295.9633,923.7228,305.488,921.217" style="stroke: #A80036; stroke-width: 1.0;"/><!--MD5=[88dd927c75ae66a5e4e0d5b9f45a0ecd]
link M to UC5--><path d="M75.5725,1142.063 C113.348,1149.127 185.064,1162.5393 254.441,1175.5136 " fill="none" id="M-&gt;UC5" style="stroke: #A80036; stroke-width: 1.0;"/><polygon fill="#A80036" points="259.431,1176.4469,251.319,1170.8615,254.5161,1175.5283,249.8493,1178.7254,259.431,1176.4469" style="stroke: #A80036; stroke-width: 1.0;"/><!--MD5=[6c8935a86a71234fa123df926ea42a25]
link T to UC6--><path d="M63.1223,550.253 C104.5074,545.308 225.45,530.858 317.982,519.802 " fill="none" id="T-&gt;UC6" style="stroke: #A80036; stroke-width: 1.0;"/><polygon fill="#A80036" points="323.199,519.179,313.7874,516.2768,318.2344,519.7731,314.7381,524.2201,323.199,519.179" style="stroke: #A80036; stroke-width: 1.0;"/><!--MD5=[2483dcf5b26ef1887dedc9f3dd944c94]
link C to UC7--><path d="M68.3365,889.545 C85.4618,921.074 113.102,963.11 149,988 C169.598,1002.282 192.73,1013.917 216.672,1023.396 " fill="none" id="C-&gt;UC7" style="stroke: #A80036; stroke-width: 1.0;"/><polygon fill="#A80036" points="221.47,1025.264,214.5326,1018.2731,216.8102,1023.4512,211.6321,1025.7288,221.47,1025.264" style="stroke: #A80036; stroke-width: 1.0;"/><!--MD5=[4349d7446f150a273390541a8723ec10]
link M to UC7--><path d="M75.5725,1131.937 C106.393,1126.173 159.805,1116.185 216.107,1105.655 " fill="none" id="M-&gt;UC7" style="stroke: #A80036; stroke-width: 1.0;"/><polygon fill="#A80036" points="221.212,1104.701,211.6296,1102.4254,216.2974,1105.6211,213.1017,1110.2888,221.212,1104.701" style="stroke: #A80036; stroke-width: 1.0;"/><!--MD5=[5ea53c8fc41ef74910cb7ae5db865cab]
link A to UC8--><path d="M89.3654,282.491 C107.166,273.207 128.591,263.277 149,257 C207.105,239.13 274.334,228.98 328.845,223.25 " fill="none" id="A-&gt;UC8" style="stroke: #A80036; stroke-width: 1.0;"/><polygon fill="#A80036" points="334.08,222.71,324.7162,219.6573,329.1065,223.2245,325.5394,227.6149,334.08,222.71" style="stroke: #A80036; stroke-width: 1.0;"/><!--MD5=[cd0b76491e9876132105be17c6a8259a]
link A to UC9--><path d="M89.3373,306 C135.828,306 214.461,306 284.838,306 " fill="none" id="A-&gt;UC9" style="stroke: #A80036; stroke-width: 1.0;"/><polygon fill="#A80036" points="289.89,306,280.89,302,284.89,306,280.89,310,289.89,306" style="stroke: #A80036; stroke-width: 1.0;"/><!--MD5=[d596e5afd8d8059daac37841b5625e08]
link A to UC13--><path d="M89.0101,328.85 C106.928,338.135 128.54,348.244 149,355 C193.305,369.629 242.905,380.619 288.127,388.685 " fill="none" id="A-&gt;UC13" style="stroke: #A80036; stroke-width: 1.0;"/><polygon fill="#A80036" points="293.053,389.555,284.8865,384.0498,288.1293,388.6849,283.4942,391.9277,293.053,389.555" style="stroke: #A80036; stroke-width: 1.0;"/><!--MD5=[d8548b82ed43a2b8d21297eaf8354fc3]
link T to UC10--><path d="M63.1223,553.747 C103.2267,558.539 218.041,572.257 309.313,583.162 " fill="none" id="T-&gt;UC10" style="stroke: #A80036; stroke-width: 1.0;"/><polygon fill="#A80036" points="314.464,583.778,306.0018,578.739,309.4993,583.1851,305.0532,586.6825,314.464,583.778" style="stroke: #A80036; stroke-width: 1.0;"/><!--MD5=[313afbf16a1ca793f96f138c88264742]
link U to UC11--><path d="M62.2024,79.36 C103.1293,74.47 227.431,59.62 321.026,48.44 " fill="none" id="U-&gt;UC11" style="stroke: #A80036; stroke-width: 1.0;"/><polygon fill="#A80036" points="326.02,47.84,316.6087,44.9371,321.0554,48.4338,317.5587,52.8804,326.02,47.84" style="stroke: #A80036; stroke-width: 1.0;"/><!--MD5=[701c416f0e3dcf026eaa22695eac9a77]
link U to UC12--><path d="M62.2024,82.64 C101.248,87.3 216.18,101.03 307.936,112 " fill="none" id="U-&gt;UC12" style="stroke: #A80036; stroke-width: 1.0;"/><polygon fill="#A80036" points="313.115,112.62,304.6537,107.5796,308.1504,112.0262,303.7037,115.5229,313.115,112.62" style="stroke: #A80036; stroke-width: 1.0;"/><!--MD5=[1c519b7660898ff4107ae2c1fd9eb49b]
@startuml DUC

usecase UC1  as "UC1  - Create Payment Transaction"
usecase UC2  as "UC2  - Create a Task"
usecase UC3  as "UC3  - Create a Freelancer"
usecase UC4  as "UC4  - Load Historical Transactions from File"
usecase UC5  as "UC5  - Define Time and Day of the Month Unpaid Tasks Will Be Paid"
usecase UC6  as "UC6  - Automatically Make Payments"
usecase UC7  as "UC7  - Visualize Overall Statistics About Task Execution Times and Freelancer Payments"
usecase UC8  as "UC8  - Add New Organization"
usecase UC9  as "UC9  - Administrator Statistics Visualization"
usecase UC10 as "UC10 - Send E-mail to Late Freelancers"
usecase UC11 as "UC11 - Serialize Information To File"
usecase UC12 as "UC12 - Deserialize Information From File"
usecase UC13 as "UC13 - Manually Send E-mail to Late Freelancers"

actor Collaborator as C
actor Manager as M
actor Administrator as A
actor Time as T
actor User as U

left to right direction

C - -> (UC1)
C - -> (UC2)
C - -> (UC3)
C - -> (UC4)

M - -> (UC5)

T - -> (UC6)

C - -> (UC7)
M - -> (UC7)

A - -> (UC8)
A - -> (UC9)
A - -> (UC13)

T - -> (UC10)

U - -> (UC11)
U - -> (UC12)

@enduml

PlantUML version 1.2020.10(Sun May 17 10:35:57 WEST 2020)
(GPL source distribution)
Java Runtime: OpenJDK Runtime Environment
JVM: OpenJDK 64-Bit Server VM
Java Version: 14+36
Operating System: Windows 10
Default Encoding: Cp1252
Language: en
Country: US
--></g></svg>