<?xml version="1.0" encoding="UTF-8" standalone="no"?><svg xmlns="http://www.w3.org/2000/svg" xmlns:xlink="http://www.w3.org/1999/xlink" contentScriptType="application/ecmascript" contentStyleType="text/css" height="1114px" preserveAspectRatio="none" style="width:766px;height:1114px;" version="1.1" viewBox="0 0 766 1114" width="766px" zoomAndPan="magnify"><defs><filter height="300%" id="f9ylejxp4k63i" width="300%" x="-1" y="-1"><feGaussianBlur result="blurOut" stdDeviation="2.0"/><feColorMatrix in="blurOut" result="blurOut2" type="matrix" values="0 0 0 0 0 0 0 0 0 0 0 0 0 0 0 0 0 0 .4 0"/><feOffset dx="4.0" dy="4.0" in="blurOut2" result="blurOut3"/><feBlend in="SourceGraphic" in2="blurOut3" mode="normal"/></filter></defs><g><ellipse cx="470.3069" cy="535.1614" fill="#FEFECE" filter="url(#f9ylejxp4k63i)" rx="123.8069" ry="27.1614" style="stroke: #A80036; stroke-width: 1.5;"/><text fill="#000000" font-family="sans-serif" font-size="14" lengthAdjust="spacingAndGlyphs" textLength="225" x="357.8069" y="540.4661">UC1  - Create Payment Transaction</text><ellipse cx="470.669" cy="616.0338" fill="#FEFECE" filter="url(#f9ylejxp4k63i)" rx="83.169" ry="19.0338" style="stroke: #A80036; stroke-width: 1.5;"/><text fill="#000000" font-family="sans-serif" font-size="14" lengthAdjust="spacingAndGlyphs" textLength="134" x="403.669" y="621.3385">UC2  - Create a Task</text><ellipse cx="470.613" cy="692.8226" fill="#FEFECE" filter="url(#f9ylejxp4k63i)" rx="99.613" ry="22.3226" style="stroke: #A80036; stroke-width: 1.5;"/><text fill="#000000" font-family="sans-serif" font-size="14" lengthAdjust="spacingAndGlyphs" textLength="172" x="384.613" y="698.1273">UC3  - Create a Freelancer</text><ellipse cx="470.7128" cy="783.0426" fill="#FEFECE" filter="url(#f9ylejxp4k63i)" rx="150.7128" ry="32.5426" style="stroke: #A80036; stroke-width: 1.5;"/><text fill="#000000" font-family="sans-serif" font-size="14" lengthAdjust="spacingAndGlyphs" textLength="282" x="329.7128" y="788.3472">UC4  - Load Historical Transactions from File</text><ellipse cx="470.7386" cy="1054.1477" fill="#FEFECE" filter="url(#f9ylejxp4k63i)" rx="233.7386" ry="49.1477" style="stroke: #A80036; stroke-width: 1.5;"/><text fill="#000000" font-family="sans-serif" font-size="14" lengthAdjust="spacingAndGlyphs" textLength="453" x="244.2386" y="1059.4524">UC5  - Define Time and Day of the Month Unpayed Tasks Will Be Payed</text><ellipse cx="470.6055" cy="445.2211" fill="#FEFECE" filter="url(#f9ylejxp4k63i)" rx="126.6055" ry="27.7211" style="stroke: #A80036; stroke-width: 1.5;"/><text fill="#000000" font-family="sans-serif" font-size="14" lengthAdjust="spacingAndGlyphs" textLength="231" x="355.1055" y="450.5258">UC6  - Automatically Make Payments</text><ellipse cx="470.4519" cy="909.9904" fill="#FEFECE" filter="url(#f9ylejxp4k63i)" rx="285.4519" ry="59.4904" style="stroke: #A80036; stroke-width: 1.5;"/><text fill="#000000" font-family="sans-serif" font-size="14" lengthAdjust="spacingAndGlyphs" textLength="558" x="191.4519" y="915.2951">UC7  - Visualize Overall Statistics About Task Execution Times and Freelancer Payments</text><ellipse cx="470.5397" cy="255.8079" fill="#FEFECE" filter="url(#f9ylejxp4k63i)" rx="104.5397" ry="23.3079" style="stroke: #A80036; stroke-width: 1.5;"/><text fill="#000000" font-family="sans-serif" font-size="14" lengthAdjust="spacingAndGlyphs" textLength="183" x="379.0397" y="261.1126">UC8  - Add New Organization</text><ellipse cx="470.5397" cy="337.8079" fill="#FEFECE" filter="url(#f9ylejxp4k63i)" rx="104.5397" ry="23.3079" style="stroke: #A80036; stroke-width: 1.5;"/><text fill="#000000" font-family="sans-serif" font-size="14" lengthAdjust="spacingAndGlyphs" textLength="183" x="379.0397" y="343.1126">UC9  - T4J Data Visualization</text><ellipse cx="470.4693" cy="168.1939" fill="#FEFECE" filter="url(#f9ylejxp4k63i)" rx="136.4693" ry="29.6939" style="stroke: #A80036; stroke-width: 1.5;"/><text fill="#000000" font-family="sans-serif" font-size="14" lengthAdjust="spacingAndGlyphs" textLength="252" x="344.4693" y="173.4986">UC10 - Send E-mail to Late Freelancers</text><ellipse cx="470.3762" cy="49.9752" fill="#FEFECE" filter="url(#f9ylejxp4k63i)" rx="122.8762" ry="26.9752" style="stroke: #A80036; stroke-width: 1.5;"/><text fill="#000000" font-family="sans-serif" font-size="14" lengthAdjust="spacingAndGlyphs" textLength="223" x="358.8762" y="55.2799">UC11 - Serialize Information To File</text><!--MD5=[16fab723be418f7eaf2ea4bd895a8e51]
entity C--><ellipse cx="65.5" cy="661" fill="#FEFECE" filter="url(#f9ylejxp4k63i)" rx="8" ry="8" style="stroke: #A80036; stroke-width: 1.5;"/><path d="M65.5,669 L65.5,696 M52.5,677 L78.5,677 M65.5,696 L52.5,711 M65.5,696 L78.5,711 " fill="none" filter="url(#f9ylejxp4k63i)" style="stroke: #A80036; stroke-width: 1.5;"/><text fill="#000000" font-family="sans-serif" font-size="14" lengthAdjust="spacingAndGlyphs" textLength="75" x="28" y="731.0332">Colaborator</text><!--MD5=[c72e14692f063a08d1023b5b76acc947]
entity M--><ellipse cx="65.5" cy="950" fill="#FEFECE" filter="url(#f9ylejxp4k63i)" rx="8" ry="8" style="stroke: #A80036; stroke-width: 1.5;"/><path d="M65.5,958 L65.5,985 M52.5,966 L78.5,966 M65.5,985 L52.5,1000 M65.5,985 L78.5,1000 " fill="none" filter="url(#f9ylejxp4k63i)" style="stroke: #A80036; stroke-width: 1.5;"/><text fill="#000000" font-family="sans-serif" font-size="14" lengthAdjust="spacingAndGlyphs" textLength="56" x="37.5" y="1020.0332">Manager</text><!--MD5=[770389ab9df153645bc6ef28055eb2b5]
entity A--><ellipse cx="65.5" cy="285" fill="#FEFECE" filter="url(#f9ylejxp4k63i)" rx="8" ry="8" style="stroke: #A80036; stroke-width: 1.5;"/><path d="M65.5,293 L65.5,320 M52.5,301 L78.5,301 M65.5,320 L52.5,335 M65.5,320 L78.5,335 " fill="none" filter="url(#f9ylejxp4k63i)" style="stroke: #A80036; stroke-width: 1.5;"/><text fill="#000000" font-family="sans-serif" font-size="14" lengthAdjust="spacingAndGlyphs" textLength="83" x="24" y="355.0332">Administrator</text><!--MD5=[8ad42e69c823d91e931492f14bc2a1bb]
entity S--><ellipse cx="65.5" cy="413" fill="#FEFECE" filter="url(#f9ylejxp4k63i)" rx="8" ry="8" style="stroke: #A80036; stroke-width: 1.5;"/><path d="M65.5,421 L65.5,448 M52.5,429 L78.5,429 M65.5,448 L52.5,463 M65.5,448 L78.5,463 " fill="none" filter="url(#f9ylejxp4k63i)" style="stroke: #A80036; stroke-width: 1.5;"/><text fill="#000000" font-family="sans-serif" font-size="14" lengthAdjust="spacingAndGlyphs" textLength="119" x="6" y="483.0332">PaymentScheduler</text><!--MD5=[68f82070d0aec4ff4b64d9b1102926da]
entity E--><ellipse cx="65.5" cy="136" fill="#FEFECE" filter="url(#f9ylejxp4k63i)" rx="8" ry="8" style="stroke: #A80036; stroke-width: 1.5;"/><path d="M65.5,144 L65.5,171 M52.5,152 L78.5,152 M65.5,171 L52.5,186 M65.5,171 L78.5,186 " fill="none" filter="url(#f9ylejxp4k63i)" style="stroke: #A80036; stroke-width: 1.5;"/><text fill="#000000" font-family="sans-serif" font-size="14" lengthAdjust="spacingAndGlyphs" textLength="98" x="16.5" y="206.0332">EmailScheduler</text><!--MD5=[ee0fec323975fbe97ba28321ad4c4bf3]
entity U--><ellipse cx="65.5" cy="18" fill="#FEFECE" filter="url(#f9ylejxp4k63i)" rx="8" ry="8" style="stroke: #A80036; stroke-width: 1.5;"/><path d="M65.5,26 L65.5,53 M52.5,34 L78.5,34 M65.5,53 L52.5,68 M65.5,53 L78.5,68 " fill="none" filter="url(#f9ylejxp4k63i)" style="stroke: #A80036; stroke-width: 1.5;"/><text fill="#000000" font-family="sans-serif" font-size="14" lengthAdjust="spacingAndGlyphs" textLength="29" x="51" y="88.0332">User</text><!--MD5=[9030d6887516f535981585d735d1cddc]
link C to UC1--><path d="M98.8091,651.416 C120.448,626.605 151.109,596.76 185,580 C233.212,556.158 291.132,544.407 342.092,538.795 " fill="none" id="C-&gt;UC1" style="stroke: #A80036; stroke-width: 1.0;"/><polygon fill="#A80036" points="347.317,538.238,337.9445,535.212,342.345,538.7666,338.7903,543.1671,347.317,538.238" style="stroke: #A80036; stroke-width: 1.0;"/><!--MD5=[b5354e77eeaec3a5c0a143f734fe5382]
link C to UC2--><path d="M103.0569,678.583 C126.211,669.975 156.971,659.487 185,653 C251.888,637.52 329.226,627.983 386.37,622.477 " fill="none" id="C-&gt;UC2" style="stroke: #A80036; stroke-width: 1.0;"/><polygon fill="#A80036" points="391.488,621.99,382.1491,618.8618,386.5105,622.4643,382.908,626.8257,391.488,621.99" style="stroke: #A80036; stroke-width: 1.0;"/><!--MD5=[69668ce398cb2ed14520a984e825e23b]
link C to UC3--><path d="M103.3319,693 C162.2,693 279.611,693 365.67,693 " fill="none" id="C-&gt;UC3" style="stroke: #A80036; stroke-width: 1.0;"/><polygon fill="#A80036" points="370.775,693,361.775,689,365.775,693,361.775,697,370.775,693" style="stroke: #A80036; stroke-width: 1.0;"/><!--MD5=[3c364845a95ae60ed6d8ff1edef6ddd2]
link C to UC4--><path d="M103.1629,706.981 C126.358,715.423 157.122,725.889 185,733 C234.916,745.733 290.581,756.298 339.343,764.384 " fill="none" id="C-&gt;UC4" style="stroke: #A80036; stroke-width: 1.0;"/><polygon fill="#A80036" points="344.342,765.209,336.1134,759.797,339.4087,764.3949,334.8108,767.6902,344.342,765.209" style="stroke: #A80036; stroke-width: 1.0;"/><!--MD5=[88dd927c75ae66a5e4e0d5b9f45a0ecd]
link M to UC5--><path d="M93.5677,986.836 C133.631,993.994 212.074,1008.0082 286.985,1021.3918 " fill="none" id="M-&gt;UC5" style="stroke: #A80036; stroke-width: 1.0;"/><polygon fill="#A80036" points="291.914,1022.2724,283.7569,1016.7532,286.9918,1021.3938,282.3512,1024.6287,291.914,1022.2724" style="stroke: #A80036; stroke-width: 1.0;"/><!--MD5=[89c7b2959a800ddce4a6f5641c3b2321]
link S to UC6--><path d="M125.1,445 C180.848,445 266.662,445 338.682,445 " fill="none" id="S-&gt;UC6" style="stroke: #A80036; stroke-width: 1.0;"/><polygon fill="#A80036" points="343.843,445,334.843,441,338.843,445,334.843,449,343.843,445" style="stroke: #A80036; stroke-width: 1.0;"/><!--MD5=[2483dcf5b26ef1887dedc9f3dd944c94]
link C to UC7--><path d="M91.6037,734.515 C112.742,766.027 145.767,808.055 185,833 C206.951,846.957 231.403,858.407 256.497,867.796 " fill="none" id="C-&gt;UC7" style="stroke: #A80036; stroke-width: 1.0;"/><polygon fill="#A80036" points="261.189,869.525,254.1288,862.6582,256.4978,867.7951,251.3609,870.1641,261.189,869.525" style="stroke: #A80036; stroke-width: 1.0;"/><!--MD5=[4349d7446f150a273390541a8723ec10]
link M to UC7--><path d="M93.5677,977.164 C126.697,971.245 186.069,960.638 247.987,949.576 " fill="none" id="M-&gt;UC7" style="stroke: #A80036; stroke-width: 1.0;"/><polygon fill="#A80036" points="253.214,948.642,243.6506,946.2881,248.292,949.5218,245.0583,954.1633,253.214,948.642" style="stroke: #A80036; stroke-width: 1.0;"/><!--MD5=[5ea53c8fc41ef74910cb7ae5db865cab]
link A to UC8--><path d="M107.046,309.909 C129.915,305.971 159.027,301.063 185,297 C248.652,287.043 320.46,276.702 376.009,268.896 " fill="none" id="A-&gt;UC8" style="stroke: #A80036; stroke-width: 1.0;"/><polygon fill="#A80036" points="380.993,268.196,371.5247,265.4845,376.0414,268.8903,372.6356,273.407,380.993,268.196" style="stroke: #A80036; stroke-width: 1.0;"/><!--MD5=[cd0b76491e9876132105be17c6a8259a]
link A to UC9--><path d="M107.36,319.129 C166.846,322.229 279.338,328.091 363.23,332.462 " fill="none" id="A-&gt;UC9" style="stroke: #A80036; stroke-width: 1.0;"/><polygon fill="#A80036" points="368.461,332.735,359.6812,328.2724,363.4678,332.475,359.2652,336.2616,368.461,332.735" style="stroke: #A80036; stroke-width: 1.0;"/><!--MD5=[dd0e82e56945ed4c2b826275bfa79e4a]
link E to UC10--><path d="M114.711,168 C167.35,168 254.097,168 328.637,168 " fill="none" id="E-&gt;UC10" style="stroke: #A80036; stroke-width: 1.0;"/><polygon fill="#A80036" points="333.982,168,324.982,164,328.982,168,324.982,172,333.982,168" style="stroke: #A80036; stroke-width: 1.0;"/><!--MD5=[313afbf16a1ca793f96f138c88264742]
link U to UC11--><path d="M80.3722,50 C121.368,50 245.164,50 342.237,50 " fill="none" id="U-&gt;UC11" style="stroke: #A80036; stroke-width: 1.0;"/><polygon fill="#A80036" points="347.421,50,338.421,46,342.421,50,338.421,54,347.421,50" style="stroke: #A80036; stroke-width: 1.0;"/><!--MD5=[a872e28def07fadfa08af9223884914f]
@startuml DUC

usecase UC1  as "UC1  - Create Payment Transaction"
usecase UC2  as "UC2  - Create a Task"
usecase UC3  as "UC3  - Create a Freelancer"
usecase UC4  as "UC4  - Load Historical Transactions from File"
usecase UC5  as "UC5  - Define Time and Day of the Month Unpayed Tasks Will Be Payed"
usecase UC6  as "UC6  - Automatically Make Payments"
usecase UC7  as "UC7  - Visualize Overall Statistics About Task Execution Times and Freelancer Payments"
usecase UC8  as "UC8  - Add New Organization"
usecase UC9  as "UC9  - T4J Data Visualization"
usecase UC10 as "UC10 - Send E-mail to Late Freelancers"
usecase UC11 as "UC11 - Serialize Information To File"

actor Colaborator as C
actor Manager as M
actor Administrator as A
actor PaymentScheduler as S
actor EmailScheduler as E
actor User as U

left to right direction

C - -> (UC1)
C - -> (UC2)
C - -> (UC3)
C - -> (UC4)

M - -> (UC5)

S - -> (UC6)

C - -> (UC7)
M - -> (UC7)

A - -> (UC8)
A - -> (UC9)

E - -> (UC10)

U - -> (UC11)

@enduml

PlantUML version 1.2020.10(Sun May 17 10:35:57 WEST 2020)
(GPL source distribution)
Java Runtime: OpenJDK Runtime Environment
JVM: OpenJDK 64-Bit Server VM
Java Version: 14+36
Operating System: Windows 10
Default Encoding: Cp1252
Language: en
Country: US
--></g></svg>