<?xml version="1.0" encoding="UTF-8" standalone="no"?><svg xmlns="http://www.w3.org/2000/svg" xmlns:xlink="http://www.w3.org/1999/xlink" contentScriptType="application/ecmascript" contentStyleType="text/css" height="1067px" preserveAspectRatio="none" style="width:730px;height:1067px;" version="1.1" viewBox="0 0 730 1067" width="730px" zoomAndPan="magnify"><defs><filter height="300%" id="fa1ajdvdt976v" width="300%" x="-1" y="-1"><feGaussianBlur result="blurOut" stdDeviation="2.0"/><feColorMatrix in="blurOut" result="blurOut2" type="matrix" values="0 0 0 0 0 0 0 0 0 0 0 0 0 0 0 0 0 0 .4 0"/><feOffset dx="4.0" dy="4.0" in="blurOut2" result="blurOut3"/><feBlend in="SourceGraphic" in2="blurOut3" mode="normal"/></filter></defs><g><ellipse cx="434.3069" cy="488.1614" fill="#FEFECE" filter="url(#fa1ajdvdt976v)" rx="123.8069" ry="27.1614" style="stroke: #A80036; stroke-width: 1.5;"/><text fill="#000000" font-family="sans-serif" font-size="14" lengthAdjust="spacingAndGlyphs" textLength="225" x="321.8069" y="493.4661">UC1  - Create Payment Transaction</text><ellipse cx="434.669" cy="569.0338" fill="#FEFECE" filter="url(#fa1ajdvdt976v)" rx="83.169" ry="19.0338" style="stroke: #A80036; stroke-width: 1.5;"/><text fill="#000000" font-family="sans-serif" font-size="14" lengthAdjust="spacingAndGlyphs" textLength="134" x="367.669" y="574.3385">UC2  - Create a Task</text><ellipse cx="434.613" cy="645.8226" fill="#FEFECE" filter="url(#fa1ajdvdt976v)" rx="99.613" ry="22.3226" style="stroke: #A80036; stroke-width: 1.5;"/><text fill="#000000" font-family="sans-serif" font-size="14" lengthAdjust="spacingAndGlyphs" textLength="172" x="348.613" y="651.1273">UC3  - Create a Freelancer</text><ellipse cx="434.7128" cy="736.0426" fill="#FEFECE" filter="url(#fa1ajdvdt976v)" rx="150.7128" ry="32.5426" style="stroke: #A80036; stroke-width: 1.5;"/><text fill="#000000" font-family="sans-serif" font-size="14" lengthAdjust="spacingAndGlyphs" textLength="282" x="293.7128" y="741.3472">UC4  - Load Historical Transactions from File</text><ellipse cx="434.7386" cy="1007.1477" fill="#FEFECE" filter="url(#fa1ajdvdt976v)" rx="233.7386" ry="49.1477" style="stroke: #A80036; stroke-width: 1.5;"/><text fill="#000000" font-family="sans-serif" font-size="14" lengthAdjust="spacingAndGlyphs" textLength="453" x="208.2386" y="1012.4524">UC5  - Define Time and Day of the Month Unpayed Tasks Will Be Payed</text><ellipse cx="434.6055" cy="304.2211" fill="#FEFECE" filter="url(#fa1ajdvdt976v)" rx="126.6055" ry="27.7211" style="stroke: #A80036; stroke-width: 1.5;"/><text fill="#000000" font-family="sans-serif" font-size="14" lengthAdjust="spacingAndGlyphs" textLength="231" x="319.1055" y="309.5258">UC6  - Automatically Make Payments</text><ellipse cx="434.4519" cy="862.9904" fill="#FEFECE" filter="url(#fa1ajdvdt976v)" rx="285.4519" ry="59.4904" style="stroke: #A80036; stroke-width: 1.5;"/><text fill="#000000" font-family="sans-serif" font-size="14" lengthAdjust="spacingAndGlyphs" textLength="558" x="155.4519" y="868.2951">UC7  - Visualize Overall Statistics About Task Execution Times and Freelancer Payments</text><ellipse cx="434.5397" cy="135.8079" fill="#FEFECE" filter="url(#fa1ajdvdt976v)" rx="104.5397" ry="23.3079" style="stroke: #A80036; stroke-width: 1.5;"/><text fill="#000000" font-family="sans-serif" font-size="14" lengthAdjust="spacingAndGlyphs" textLength="183" x="343.0397" y="141.1126">UC8  - Add New Organization</text><ellipse cx="434.5397" cy="217.8079" fill="#FEFECE" filter="url(#fa1ajdvdt976v)" rx="104.5397" ry="23.3079" style="stroke: #A80036; stroke-width: 1.5;"/><text fill="#000000" font-family="sans-serif" font-size="14" lengthAdjust="spacingAndGlyphs" textLength="183" x="343.0397" y="223.1126">UC9  - T4J Data Visualization</text><ellipse cx="434.4693" cy="396.1939" fill="#FEFECE" filter="url(#fa1ajdvdt976v)" rx="136.4693" ry="29.6939" style="stroke: #A80036; stroke-width: 1.5;"/><text fill="#000000" font-family="sans-serif" font-size="14" lengthAdjust="spacingAndGlyphs" textLength="252" x="308.4693" y="401.4986">UC10 - Send E-mail to Late Freelancers</text><ellipse cx="434.3762" cy="49.9752" fill="#FEFECE" filter="url(#fa1ajdvdt976v)" rx="122.8762" ry="26.9752" style="stroke: #A80036; stroke-width: 1.5;"/><text fill="#000000" font-family="sans-serif" font-size="14" lengthAdjust="spacingAndGlyphs" textLength="223" x="322.8762" y="55.2799">UC11 - Serialize Information To File</text><!--MD5=[16fab723be418f7eaf2ea4bd895a8e51]
entity C--><ellipse cx="47.5" cy="614" fill="#FEFECE" filter="url(#fa1ajdvdt976v)" rx="8" ry="8" style="stroke: #A80036; stroke-width: 1.5;"/><path d="M47.5,622 L47.5,649 M34.5,630 L60.5,630 M47.5,649 L34.5,664 M47.5,649 L60.5,664 " fill="none" filter="url(#fa1ajdvdt976v)" style="stroke: #A80036; stroke-width: 1.5;"/><text fill="#000000" font-family="sans-serif" font-size="14" lengthAdjust="spacingAndGlyphs" textLength="75" x="10" y="684.0332">Colaborator</text><!--MD5=[c72e14692f063a08d1023b5b76acc947]
entity M--><ellipse cx="47.5" cy="903" fill="#FEFECE" filter="url(#fa1ajdvdt976v)" rx="8" ry="8" style="stroke: #A80036; stroke-width: 1.5;"/><path d="M47.5,911 L47.5,938 M34.5,919 L60.5,919 M47.5,938 L34.5,953 M47.5,938 L60.5,953 " fill="none" filter="url(#fa1ajdvdt976v)" style="stroke: #A80036; stroke-width: 1.5;"/><text fill="#000000" font-family="sans-serif" font-size="14" lengthAdjust="spacingAndGlyphs" textLength="56" x="19.5" y="973.0332">Manager</text><!--MD5=[770389ab9df153645bc6ef28055eb2b5]
entity A--><ellipse cx="47.5" cy="161" fill="#FEFECE" filter="url(#fa1ajdvdt976v)" rx="8" ry="8" style="stroke: #A80036; stroke-width: 1.5;"/><path d="M47.5,169 L47.5,196 M34.5,177 L60.5,177 M47.5,196 L34.5,211 M47.5,196 L60.5,211 " fill="none" filter="url(#fa1ajdvdt976v)" style="stroke: #A80036; stroke-width: 1.5;"/><text fill="#000000" font-family="sans-serif" font-size="14" lengthAdjust="spacingAndGlyphs" textLength="83" x="6" y="231.0332">Administrator</text><!--MD5=[1daea32f23ea6c81361d0f13801d7efd]
entity T--><ellipse cx="47.5" cy="334" fill="#FEFECE" filter="url(#fa1ajdvdt976v)" rx="8" ry="8" style="stroke: #A80036; stroke-width: 1.5;"/><path d="M47.5,342 L47.5,369 M34.5,350 L60.5,350 M47.5,369 L34.5,384 M47.5,369 L60.5,384 " fill="none" filter="url(#fa1ajdvdt976v)" style="stroke: #A80036; stroke-width: 1.5;"/><text fill="#000000" font-family="sans-serif" font-size="14" lengthAdjust="spacingAndGlyphs" textLength="31" x="32" y="404.0332">Time</text><!--MD5=[ee0fec323975fbe97ba28321ad4c4bf3]
entity U--><ellipse cx="47.5" cy="18" fill="#FEFECE" filter="url(#fa1ajdvdt976v)" rx="8" ry="8" style="stroke: #A80036; stroke-width: 1.5;"/><path d="M47.5,26 L47.5,53 M34.5,34 L60.5,34 M47.5,53 L34.5,68 M47.5,53 L60.5,68 " fill="none" filter="url(#fa1ajdvdt976v)" style="stroke: #A80036; stroke-width: 1.5;"/><text fill="#000000" font-family="sans-serif" font-size="14" lengthAdjust="spacingAndGlyphs" textLength="29" x="33" y="88.0332">User</text><!--MD5=[9030d6887516f535981585d735d1cddc]
link C to UC1--><path d="M74.5891,604.411 C92.433,579.598 118.362,549.752 149,533 C196.191,507.196 253.948,495.132 305.062,489.816 " fill="none" id="C-&gt;UC1" style="stroke: #A80036; stroke-width: 1.0;"/><polygon fill="#A80036" points="310.304,489.292,300.9509,486.2066,305.3288,489.7891,301.7463,494.167,310.304,489.292" style="stroke: #A80036; stroke-width: 1.0;"/><!--MD5=[b5354e77eeaec3a5c0a143f734fe5382]
link C to UC2--><path d="M85.4572,628.72 C104.1333,620.655 127.37,611.617 149,606 C215.101,588.836 292.007,579.444 349.182,574.422 " fill="none" id="C-&gt;UC2" style="stroke: #A80036; stroke-width: 1.0;"/><polygon fill="#A80036" points="354.304,573.979,344.9924,570.7705,349.3226,574.4104,345.6827,578.7406,354.304,573.979" style="stroke: #A80036; stroke-width: 1.0;"/><!--MD5=[69668ce398cb2ed14520a984e825e23b]
link C to UC3--><path d="M85.067,646 C140.626,646 248.402,646 329.449,646 " fill="none" id="C-&gt;UC3" style="stroke: #A80036; stroke-width: 1.0;"/><polygon fill="#A80036" points="334.748,646,325.748,642,329.748,646,325.748,650,334.748,646" style="stroke: #A80036; stroke-width: 1.0;"/><!--MD5=[3c364845a95ae60ed6d8ff1edef6ddd2]
link C to UC4--><path d="M85.099,662.666 C103.8828,670.677 127.32,679.851 149,686 C197.743,699.825 252.324,710.526 300.543,718.415 " fill="none" id="C-&gt;UC4" style="stroke: #A80036; stroke-width: 1.0;"/><polygon fill="#A80036" points="305.488,719.217,297.2454,713.8262,300.5526,718.4156,295.9633,721.7228,305.488,719.217" style="stroke: #A80036; stroke-width: 1.0;"/><!--MD5=[88dd927c75ae66a5e4e0d5b9f45a0ecd]
link M to UC5--><path d="M75.5725,940.063 C113.348,947.127 185.064,960.5393 254.441,973.5136 " fill="none" id="M-&gt;UC5" style="stroke: #A80036; stroke-width: 1.0;"/><polygon fill="#A80036" points="259.431,974.4469,251.319,968.8615,254.5161,973.5283,249.8493,976.7254,259.431,974.4469" style="stroke: #A80036; stroke-width: 1.0;"/><!--MD5=[6c8935a86a71234fa123df926ea42a25]
link T to UC6--><path d="M63.1384,363.473 C82.6969,360.109 118.439,354.002 149,349 C207.445,339.435 272.702,329.089 325.96,320.732 " fill="none" id="T-&gt;UC6" style="stroke: #A80036; stroke-width: 1.0;"/><polygon fill="#A80036" points="331.075,319.93,321.5641,317.3723,326.1353,320.7045,322.8032,325.2757,331.075,319.93" style="stroke: #A80036; stroke-width: 1.0;"/><!--MD5=[2483dcf5b26ef1887dedc9f3dd944c94]
link C to UC7--><path d="M68.3365,687.545 C85.4618,719.074 113.102,761.11 149,786 C169.598,800.282 192.73,811.917 216.672,821.396 " fill="none" id="C-&gt;UC7" style="stroke: #A80036; stroke-width: 1.0;"/><polygon fill="#A80036" points="221.47,823.264,214.5326,816.2731,216.8102,821.4512,211.6321,823.7288,221.47,823.264" style="stroke: #A80036; stroke-width: 1.0;"/><!--MD5=[4349d7446f150a273390541a8723ec10]
link M to UC7--><path d="M75.5725,929.937 C106.393,924.173 159.805,914.185 216.107,903.655 " fill="none" id="M-&gt;UC7" style="stroke: #A80036; stroke-width: 1.0;"/><polygon fill="#A80036" points="221.212,902.701,211.6296,900.4254,216.2974,903.6211,213.1017,908.2888,221.212,902.701" style="stroke: #A80036; stroke-width: 1.0;"/><!--MD5=[5ea53c8fc41ef74910cb7ae5db865cab]
link A to UC8--><path d="M89.0655,186.402 C107.367,183.462 129.261,179.993 149,177 C212.817,167.322 284.775,156.957 340.356,149.07 " fill="none" id="A-&gt;UC8" style="stroke: #A80036; stroke-width: 1.0;"/><polygon fill="#A80036" points="345.343,148.363,335.8702,145.6676,340.3926,149.0657,336.9945,153.5882,345.343,148.363" style="stroke: #A80036; stroke-width: 1.0;"/><!--MD5=[cd0b76491e9876132105be17c6a8259a]
link A to UC9--><path d="M89.3373,195.652 C145.863,199.322 249.903,206.078 328.848,211.204 " fill="none" id="A-&gt;UC9" style="stroke: #A80036; stroke-width: 1.0;"/><polygon fill="#A80036" points="334.011,211.54,325.2893,206.9648,329.0215,211.2157,324.7705,214.9479,334.011,211.54" style="stroke: #A80036; stroke-width: 1.0;"/><!--MD5=[d8548b82ed43a2b8d21297eaf8354fc3]
link T to UC10--><path d="M63.1223,367.139 C101.9461,370.165 210.785,378.646 300.501,385.636 " fill="none" id="T-&gt;UC10" style="stroke: #A80036; stroke-width: 1.0;"/><polygon fill="#A80036" points="305.568,386.031,296.9061,381.3436,300.5831,385.6424,296.2843,389.3194,305.568,386.031" style="stroke: #A80036; stroke-width: 1.0;"/><!--MD5=[313afbf16a1ca793f96f138c88264742]
link U to UC11--><path d="M62.2024,50 C100.9851,50 214.635,50 306.08,50 " fill="none" id="U-&gt;UC11" style="stroke: #A80036; stroke-width: 1.0;"/><polygon fill="#A80036" points="311.241,50,302.241,46,306.241,50,302.241,54,311.241,50" style="stroke: #A80036; stroke-width: 1.0;"/><!--MD5=[161733411ca827c3ba562a4797f0d199]
@startuml DUC

usecase UC1  as "UC1  - Create Payment Transaction"
usecase UC2  as "UC2  - Create a Task"
usecase UC3  as "UC3  - Create a Freelancer"
usecase UC4  as "UC4  - Load Historical Transactions from File"
usecase UC5  as "UC5  - Define Time and Day of the Month Unpayed Tasks Will Be Payed"
usecase UC6  as "UC6  - Automatically Make Payments"
usecase UC7  as "UC7  - Visualize Overall Statistics About Task Execution Times and Freelancer Payments"
usecase UC8  as "UC8  - Add New Organization"
usecase UC9  as "UC9  - T4J Data Visualization"
usecase UC10 as "UC10 - Send E-mail to Late Freelancers"
usecase UC11 as "UC11 - Serialize Information To File"

actor Colaborator as C
actor Manager as M
actor Administrator as A
actor Time as T
actor User as U

left to right direction

C - -> (UC1)
C - -> (UC2)
C - -> (UC3)
C - -> (UC4)

M - -> (UC5)

T - -> (UC6)

C - -> (UC7)
M - -> (UC7)

A - -> (UC8)
A - -> (UC9)

T - -> (UC10)

U - -> (UC11)

@enduml

PlantUML version 1.2020.10(Sun May 17 10:35:57 WEST 2020)
(GPL source distribution)
Java Runtime: OpenJDK Runtime Environment
JVM: OpenJDK 64-Bit Server VM
Java Version: 14+36
Operating System: Windows 10
Default Encoding: Cp1252
Language: en
Country: US
--></g></svg>