<?xml version="1.0" encoding="UTF-8" standalone="no"?><svg xmlns="http://www.w3.org/2000/svg" xmlns:xlink="http://www.w3.org/1999/xlink" contentScriptType="application/ecmascript" contentStyleType="text/css" height="1133px" preserveAspectRatio="none" style="width:2610px;height:1133px;" version="1.1" viewBox="0 0 2610 1133" width="2610px" zoomAndPan="magnify"><defs><filter height="300%" id="fi4u85egdbwb9" width="300%" x="-1" y="-1"><feGaussianBlur result="blurOut" stdDeviation="2.0"/><feColorMatrix in="blurOut" result="blurOut2" type="matrix" values="0 0 0 0 0 0 0 0 0 0 0 0 0 0 0 0 0 0 .4 0"/><feOffset dx="4.0" dy="4.0" in="blurOut2" result="blurOut3"/><feBlend in="SourceGraphic" in2="blurOut3" mode="normal"/></filter></defs><g><!--MD5=[65f9b271fae1a3d56975d9ea4f8e38de]
class Colaborator--><rect fill="#FEFECE" filter="url(#fi4u85egdbwb9)" height="81.5078" id="Colaborator" style="stroke: #A80036; stroke-width: 1.5;" width="97" x="916.5" y="359"/><ellipse cx="931.5" cy="375" fill="#ADD1B2" rx="11" ry="11" style="stroke: #A80036; stroke-width: 1.0;"/><path d="M934.2656,370.875 Q934.4219,370.6563 934.6094,370.5469 Q934.7969,370.4375 935.0156,370.4375 Q935.3906,370.4375 935.625,370.7031 Q935.8594,370.9531 935.8594,371.5625 L935.8594,373.0156 Q935.8594,373.625 935.625,373.8906 Q935.3906,374.1563 935.0156,374.1563 Q934.6719,374.1563 934.4688,373.9531 Q934.2656,373.7656 934.1563,373.25 Q934.1094,372.8906 933.9219,372.7031 Q933.5938,372.3281 932.9844,372.1094 Q932.375,371.8906 931.75,371.8906 Q930.9844,371.8906 930.3438,372.2188 Q929.7188,372.5469 929.2188,373.2969 Q928.7344,374.0469 928.7344,375.0781 L928.7344,376.1719 Q928.7344,377.4063 929.625,378.2344 Q930.5156,379.0469 932.1094,379.0469 Q933.0469,379.0469 933.7031,378.7969 Q934.0938,378.6406 934.5156,378.2031 Q934.7813,377.9375 934.9219,377.8594 Q935.0781,377.7813 935.2813,377.7813 Q935.6094,377.7813 935.8594,378.0469 Q936.125,378.2969 936.125,378.6406 Q936.125,378.9844 935.7813,379.3906 Q935.2813,379.9688 934.4844,380.2969 Q933.4063,380.75 932.1094,380.75 Q930.5938,380.75 929.3906,380.125 Q928.4063,379.625 927.7188,378.5625 Q927.0313,377.4844 927.0313,376.2031 L927.0313,375.0469 Q927.0313,373.7188 927.6406,372.5781 Q928.2656,371.4219 929.3594,370.8125 Q930.4531,370.1875 931.6875,370.1875 Q932.4219,370.1875 933.0625,370.3594 Q933.7188,370.5156 934.2656,370.875 Z "/><text fill="#000000" font-family="sans-serif" font-size="12" lengthAdjust="spacingAndGlyphs" textLength="65" x="945.5" y="379.9102">Colaborator</text><line style="stroke: #A80036; stroke-width: 1.5;" x1="917.5" x2="1012.5" y1="391" y2="391"/><text fill="#000000" font-family="sans-serif" font-size="11" lengthAdjust="spacingAndGlyphs" textLength="61" x="922.5" y="406.4189">-String nome</text><text fill="#000000" font-family="sans-serif" font-size="11" lengthAdjust="spacingAndGlyphs" textLength="59" x="922.5" y="420.2549">-String email</text><text fill="#000000" font-family="sans-serif" font-size="11" lengthAdjust="spacingAndGlyphs" textLength="85" x="922.5" y="434.0908">-String password</text><!--MD5=[b24ed8d4ae84bae9290d9aab401637c7]
class Manager--><rect fill="#FEFECE" filter="url(#fi4u85egdbwb9)" height="81.5078" id="Manager" style="stroke: #A80036; stroke-width: 1.5;" width="97" x="637" y="475"/><ellipse cx="659.65" cy="491" fill="#ADD1B2" rx="11" ry="11" style="stroke: #A80036; stroke-width: 1.0;"/><path d="M662.4156,486.875 Q662.5719,486.6563 662.7594,486.5469 Q662.9469,486.4375 663.1656,486.4375 Q663.5406,486.4375 663.775,486.7031 Q664.0094,486.9531 664.0094,487.5625 L664.0094,489.0156 Q664.0094,489.625 663.775,489.8906 Q663.5406,490.1563 663.1656,490.1563 Q662.8219,490.1563 662.6188,489.9531 Q662.4156,489.7656 662.3063,489.25 Q662.2594,488.8906 662.0719,488.7031 Q661.7438,488.3281 661.1344,488.1094 Q660.525,487.8906 659.9,487.8906 Q659.1344,487.8906 658.4938,488.2188 Q657.8688,488.5469 657.3688,489.2969 Q656.8844,490.0469 656.8844,491.0781 L656.8844,492.1719 Q656.8844,493.4063 657.775,494.2344 Q658.6656,495.0469 660.2594,495.0469 Q661.1969,495.0469 661.8531,494.7969 Q662.2438,494.6406 662.6656,494.2031 Q662.9313,493.9375 663.0719,493.8594 Q663.2281,493.7813 663.4313,493.7813 Q663.7594,493.7813 664.0094,494.0469 Q664.275,494.2969 664.275,494.6406 Q664.275,494.9844 663.9313,495.3906 Q663.4313,495.9688 662.6344,496.2969 Q661.5563,496.75 660.2594,496.75 Q658.7438,496.75 657.5406,496.125 Q656.5563,495.625 655.8688,494.5625 Q655.1813,493.4844 655.1813,492.2031 L655.1813,491.0469 Q655.1813,489.7188 655.7906,488.5781 Q656.4156,487.4219 657.5094,486.8125 Q658.6031,486.1875 659.8375,486.1875 Q660.5719,486.1875 661.2125,486.3594 Q661.8688,486.5156 662.4156,486.875 Z "/><text fill="#000000" font-family="sans-serif" font-size="12" lengthAdjust="spacingAndGlyphs" textLength="48" x="675.35" y="495.9102">Manager</text><line style="stroke: #A80036; stroke-width: 1.5;" x1="638" x2="733" y1="507" y2="507"/><text fill="#000000" font-family="sans-serif" font-size="11" lengthAdjust="spacingAndGlyphs" textLength="61" x="643" y="522.4189">-String nome</text><text fill="#000000" font-family="sans-serif" font-size="11" lengthAdjust="spacingAndGlyphs" textLength="59" x="643" y="536.2549">-String email</text><text fill="#000000" font-family="sans-serif" font-size="11" lengthAdjust="spacingAndGlyphs" textLength="85" x="643" y="550.0908">-String password</text><!--MD5=[4555bb1b0911a5adf28ce6dbe60fed2e]
class Transaction--><rect fill="#FEFECE" filter="url(#fi4u85egdbwb9)" height="40" id="Transaction" style="stroke: #A80036; stroke-width: 1.5;" width="97" x="1565.5" y="570"/><ellipse cx="1580.5" cy="586" fill="#ADD1B2" rx="11" ry="11" style="stroke: #A80036; stroke-width: 1.0;"/><path d="M1583.2656,581.875 Q1583.4219,581.6563 1583.6094,581.5469 Q1583.7969,581.4375 1584.0156,581.4375 Q1584.3906,581.4375 1584.625,581.7031 Q1584.8594,581.9531 1584.8594,582.5625 L1584.8594,584.0156 Q1584.8594,584.625 1584.625,584.8906 Q1584.3906,585.1563 1584.0156,585.1563 Q1583.6719,585.1563 1583.4688,584.9531 Q1583.2656,584.7656 1583.1563,584.25 Q1583.1094,583.8906 1582.9219,583.7031 Q1582.5938,583.3281 1581.9844,583.1094 Q1581.375,582.8906 1580.75,582.8906 Q1579.9844,582.8906 1579.3438,583.2188 Q1578.7188,583.5469 1578.2188,584.2969 Q1577.7344,585.0469 1577.7344,586.0781 L1577.7344,587.1719 Q1577.7344,588.4063 1578.625,589.2344 Q1579.5156,590.0469 1581.1094,590.0469 Q1582.0469,590.0469 1582.7031,589.7969 Q1583.0938,589.6406 1583.5156,589.2031 Q1583.7813,588.9375 1583.9219,588.8594 Q1584.0781,588.7813 1584.2813,588.7813 Q1584.6094,588.7813 1584.8594,589.0469 Q1585.125,589.2969 1585.125,589.6406 Q1585.125,589.9844 1584.7813,590.3906 Q1584.2813,590.9688 1583.4844,591.2969 Q1582.4063,591.75 1581.1094,591.75 Q1579.5938,591.75 1578.3906,591.125 Q1577.4063,590.625 1576.7188,589.5625 Q1576.0313,588.4844 1576.0313,587.2031 L1576.0313,586.0469 Q1576.0313,584.7188 1576.6406,583.5781 Q1577.2656,582.4219 1578.3594,581.8125 Q1579.4531,581.1875 1580.6875,581.1875 Q1581.4219,581.1875 1582.0625,581.3594 Q1582.7188,581.5156 1583.2656,581.875 Z "/><text fill="#000000" font-family="sans-serif" font-size="12" lengthAdjust="spacingAndGlyphs" textLength="65" x="1594.5" y="590.9102">Transaction</text><line style="stroke: #A80036; stroke-width: 1.5;" x1="1566.5" x2="1661.5" y1="602" y2="602"/><!--MD5=[f9fa7692a1144bec397c3ffa19589ca2]
class TaskExecutionDetails--><rect fill="#FEFECE" filter="url(#fi4u85egdbwb9)" height="81.5078" id="TaskExecutionDetails" style="stroke: #A80036; stroke-width: 1.5;" width="171" x="1861" y="645"/><ellipse cx="1885" cy="661" fill="#ADD1B2" rx="11" ry="11" style="stroke: #A80036; stroke-width: 1.0;"/><path d="M1887.7656,656.875 Q1887.9219,656.6563 1888.1094,656.5469 Q1888.2969,656.4375 1888.5156,656.4375 Q1888.8906,656.4375 1889.125,656.7031 Q1889.3594,656.9531 1889.3594,657.5625 L1889.3594,659.0156 Q1889.3594,659.625 1889.125,659.8906 Q1888.8906,660.1563 1888.5156,660.1563 Q1888.1719,660.1563 1887.9688,659.9531 Q1887.7656,659.7656 1887.6563,659.25 Q1887.6094,658.8906 1887.4219,658.7031 Q1887.0938,658.3281 1886.4844,658.1094 Q1885.875,657.8906 1885.25,657.8906 Q1884.4844,657.8906 1883.8438,658.2188 Q1883.2188,658.5469 1882.7188,659.2969 Q1882.2344,660.0469 1882.2344,661.0781 L1882.2344,662.1719 Q1882.2344,663.4063 1883.125,664.2344 Q1884.0156,665.0469 1885.6094,665.0469 Q1886.5469,665.0469 1887.2031,664.7969 Q1887.5938,664.6406 1888.0156,664.2031 Q1888.2813,663.9375 1888.4219,663.8594 Q1888.5781,663.7813 1888.7813,663.7813 Q1889.1094,663.7813 1889.3594,664.0469 Q1889.625,664.2969 1889.625,664.6406 Q1889.625,664.9844 1889.2813,665.3906 Q1888.7813,665.9688 1887.9844,666.2969 Q1886.9063,666.75 1885.6094,666.75 Q1884.0938,666.75 1882.8906,666.125 Q1881.9063,665.625 1881.2188,664.5625 Q1880.5313,663.4844 1880.5313,662.2031 L1880.5313,661.0469 Q1880.5313,659.7188 1881.1406,658.5781 Q1881.7656,657.4219 1882.8594,656.8125 Q1883.9531,656.1875 1885.1875,656.1875 Q1885.9219,656.1875 1886.5625,656.3594 Q1887.2188,656.5156 1887.7656,656.875 Z "/><text fill="#000000" font-family="sans-serif" font-size="12" lengthAdjust="spacingAndGlyphs" textLength="119" x="1901" y="665.9102">TaskExecutionDetails</text><line style="stroke: #A80036; stroke-width: 1.5;" x1="1862" x2="2031" y1="677" y2="677"/><text fill="#000000" font-family="sans-serif" font-size="11" lengthAdjust="spacingAndGlyphs" textLength="69" x="1867" y="692.4189">-Date endDate</text><text fill="#000000" font-family="sans-serif" font-size="11" lengthAdjust="spacingAndGlyphs" textLength="99" x="1867" y="706.2549">-Integer delayInDays</text><text fill="#000000" font-family="sans-serif" font-size="11" lengthAdjust="spacingAndGlyphs" textLength="159" x="1867" y="720.0908">-String DescriptionQualityOfWork</text><!--MD5=[6e5bbc712ea226b699d2ce44e283e8b8]
class HistoricalTransactionFile--><rect fill="#FEFECE" filter="url(#fi4u85egdbwb9)" height="40" id="HistoricalTransactionFile" style="stroke: #A80036; stroke-width: 1.5;" width="169" x="1228" y="451"/><ellipse cx="1243" cy="467" fill="#ADD1B2" rx="11" ry="11" style="stroke: #A80036; stroke-width: 1.0;"/><path d="M1245.7656,462.875 Q1245.9219,462.6563 1246.1094,462.5469 Q1246.2969,462.4375 1246.5156,462.4375 Q1246.8906,462.4375 1247.125,462.7031 Q1247.3594,462.9531 1247.3594,463.5625 L1247.3594,465.0156 Q1247.3594,465.625 1247.125,465.8906 Q1246.8906,466.1563 1246.5156,466.1563 Q1246.1719,466.1563 1245.9688,465.9531 Q1245.7656,465.7656 1245.6563,465.25 Q1245.6094,464.8906 1245.4219,464.7031 Q1245.0938,464.3281 1244.4844,464.1094 Q1243.875,463.8906 1243.25,463.8906 Q1242.4844,463.8906 1241.8438,464.2188 Q1241.2188,464.5469 1240.7188,465.2969 Q1240.2344,466.0469 1240.2344,467.0781 L1240.2344,468.1719 Q1240.2344,469.4063 1241.125,470.2344 Q1242.0156,471.0469 1243.6094,471.0469 Q1244.5469,471.0469 1245.2031,470.7969 Q1245.5938,470.6406 1246.0156,470.2031 Q1246.2813,469.9375 1246.4219,469.8594 Q1246.5781,469.7813 1246.7813,469.7813 Q1247.1094,469.7813 1247.3594,470.0469 Q1247.625,470.2969 1247.625,470.6406 Q1247.625,470.9844 1247.2813,471.3906 Q1246.7813,471.9688 1245.9844,472.2969 Q1244.9063,472.75 1243.6094,472.75 Q1242.0938,472.75 1240.8906,472.125 Q1239.9063,471.625 1239.2188,470.5625 Q1238.5313,469.4844 1238.5313,468.2031 L1238.5313,467.0469 Q1238.5313,465.7188 1239.1406,464.5781 Q1239.7656,463.4219 1240.8594,462.8125 Q1241.9531,462.1875 1243.1875,462.1875 Q1243.9219,462.1875 1244.5625,462.3594 Q1245.2188,462.5156 1245.7656,462.875 Z "/><text fill="#000000" font-family="sans-serif" font-size="12" lengthAdjust="spacingAndGlyphs" textLength="137" x="1257" y="471.9102">HistoricalTransactionFile</text><line style="stroke: #A80036; stroke-width: 1.5;" x1="1229" x2="1396" y1="483" y2="483"/><!--MD5=[dc84a4e894a42f8e8d7fc762e5a59f92]
class PaymentScheduler--><rect fill="#FEFECE" filter="url(#fi4u85egdbwb9)" height="67.6719" id="PaymentScheduler" style="stroke: #A80036; stroke-width: 1.5;" width="136" x="897" y="577"/><ellipse cx="912" cy="593" fill="#ADD1B2" rx="11" ry="11" style="stroke: #A80036; stroke-width: 1.0;"/><path d="M914.7656,588.875 Q914.9219,588.6563 915.1094,588.5469 Q915.2969,588.4375 915.5156,588.4375 Q915.8906,588.4375 916.125,588.7031 Q916.3594,588.9531 916.3594,589.5625 L916.3594,591.0156 Q916.3594,591.625 916.125,591.8906 Q915.8906,592.1563 915.5156,592.1563 Q915.1719,592.1563 914.9688,591.9531 Q914.7656,591.7656 914.6563,591.25 Q914.6094,590.8906 914.4219,590.7031 Q914.0938,590.3281 913.4844,590.1094 Q912.875,589.8906 912.25,589.8906 Q911.4844,589.8906 910.8438,590.2188 Q910.2188,590.5469 909.7188,591.2969 Q909.2344,592.0469 909.2344,593.0781 L909.2344,594.1719 Q909.2344,595.4063 910.125,596.2344 Q911.0156,597.0469 912.6094,597.0469 Q913.5469,597.0469 914.2031,596.7969 Q914.5938,596.6406 915.0156,596.2031 Q915.2813,595.9375 915.4219,595.8594 Q915.5781,595.7813 915.7813,595.7813 Q916.1094,595.7813 916.3594,596.0469 Q916.625,596.2969 916.625,596.6406 Q916.625,596.9844 916.2813,597.3906 Q915.7813,597.9688 914.9844,598.2969 Q913.9063,598.75 912.6094,598.75 Q911.0938,598.75 909.8906,598.125 Q908.9063,597.625 908.2188,596.5625 Q907.5313,595.4844 907.5313,594.2031 L907.5313,593.0469 Q907.5313,591.7188 908.1406,590.5781 Q908.7656,589.4219 909.8594,588.8125 Q910.9531,588.1875 912.1875,588.1875 Q912.9219,588.1875 913.5625,588.3594 Q914.2188,588.5156 914.7656,588.875 Z "/><text fill="#000000" font-family="sans-serif" font-size="12" lengthAdjust="spacingAndGlyphs" textLength="104" x="926" y="597.9102">PaymentScheduler</text><line style="stroke: #A80036; stroke-width: 1.5;" x1="898" x2="1032" y1="609" y2="609"/><text fill="#000000" font-family="sans-serif" font-size="11" lengthAdjust="spacingAndGlyphs" textLength="87" x="903" y="624.4189">-Integer dayMonth</text><text fill="#000000" font-family="sans-serif" font-size="11" lengthAdjust="spacingAndGlyphs" textLength="105" x="903" y="638.2549">-LocalTime timeOfDay</text><!--MD5=[86c7c362de55a38b660185a1328fe18d]
class Organization--><rect fill="#FEFECE" filter="url(#fi4u85egdbwb9)" height="53.8359" id="Organization" style="stroke: #A80036; stroke-width: 1.5;" width="101" x="440" y="580"/><ellipse cx="455" cy="596" fill="#ADD1B2" rx="11" ry="11" style="stroke: #A80036; stroke-width: 1.0;"/><path d="M457.7656,591.875 Q457.9219,591.6563 458.1094,591.5469 Q458.2969,591.4375 458.5156,591.4375 Q458.8906,591.4375 459.125,591.7031 Q459.3594,591.9531 459.3594,592.5625 L459.3594,594.0156 Q459.3594,594.625 459.125,594.8906 Q458.8906,595.1563 458.5156,595.1563 Q458.1719,595.1563 457.9688,594.9531 Q457.7656,594.7656 457.6563,594.25 Q457.6094,593.8906 457.4219,593.7031 Q457.0938,593.3281 456.4844,593.1094 Q455.875,592.8906 455.25,592.8906 Q454.4844,592.8906 453.8438,593.2188 Q453.2188,593.5469 452.7188,594.2969 Q452.2344,595.0469 452.2344,596.0781 L452.2344,597.1719 Q452.2344,598.4063 453.125,599.2344 Q454.0156,600.0469 455.6094,600.0469 Q456.5469,600.0469 457.2031,599.7969 Q457.5938,599.6406 458.0156,599.2031 Q458.2813,598.9375 458.4219,598.8594 Q458.5781,598.7813 458.7813,598.7813 Q459.1094,598.7813 459.3594,599.0469 Q459.625,599.2969 459.625,599.6406 Q459.625,599.9844 459.2813,600.3906 Q458.7813,600.9688 457.9844,601.2969 Q456.9063,601.75 455.6094,601.75 Q454.0938,601.75 452.8906,601.125 Q451.9063,600.625 451.2188,599.5625 Q450.5313,598.4844 450.5313,597.2031 L450.5313,596.0469 Q450.5313,594.7188 451.1406,593.5781 Q451.7656,592.4219 452.8594,591.8125 Q453.9531,591.1875 455.1875,591.1875 Q455.9219,591.1875 456.5625,591.3594 Q457.2188,591.5156 457.7656,591.875 Z "/><text fill="#000000" font-family="sans-serif" font-size="12" lengthAdjust="spacingAndGlyphs" textLength="69" x="469" y="600.9102">Organization</text><line style="stroke: #A80036; stroke-width: 1.5;" x1="441" x2="540" y1="612" y2="612"/><text fill="#000000" font-family="sans-serif" font-size="11" lengthAdjust="spacingAndGlyphs" textLength="61" x="446" y="627.4189">-String nome</text><!--MD5=[b34797a66dc35cbf1d65f7e3ca75530e]
class Task--><rect fill="#FEFECE" filter="url(#fi4u85egdbwb9)" height="109.1797" id="Task" style="stroke: #A80036; stroke-width: 1.5;" width="169" x="2149" y="557.5"/><ellipse cx="2215.75" cy="573.5" fill="#ADD1B2" rx="11" ry="11" style="stroke: #A80036; stroke-width: 1.0;"/><path d="M2218.5156,569.375 Q2218.6719,569.1563 2218.8594,569.0469 Q2219.0469,568.9375 2219.2656,568.9375 Q2219.6406,568.9375 2219.875,569.2031 Q2220.1094,569.4531 2220.1094,570.0625 L2220.1094,571.5156 Q2220.1094,572.125 2219.875,572.3906 Q2219.6406,572.6563 2219.2656,572.6563 Q2218.9219,572.6563 2218.7188,572.4531 Q2218.5156,572.2656 2218.4063,571.75 Q2218.3594,571.3906 2218.1719,571.2031 Q2217.8438,570.8281 2217.2344,570.6094 Q2216.625,570.3906 2216,570.3906 Q2215.2344,570.3906 2214.5938,570.7188 Q2213.9688,571.0469 2213.4688,571.7969 Q2212.9844,572.5469 2212.9844,573.5781 L2212.9844,574.6719 Q2212.9844,575.9063 2213.875,576.7344 Q2214.7656,577.5469 2216.3594,577.5469 Q2217.2969,577.5469 2217.9531,577.2969 Q2218.3438,577.1406 2218.7656,576.7031 Q2219.0313,576.4375 2219.1719,576.3594 Q2219.3281,576.2813 2219.5313,576.2813 Q2219.8594,576.2813 2220.1094,576.5469 Q2220.375,576.7969 2220.375,577.1406 Q2220.375,577.4844 2220.0313,577.8906 Q2219.5313,578.4688 2218.7344,578.7969 Q2217.6563,579.25 2216.3594,579.25 Q2214.8438,579.25 2213.6406,578.625 Q2212.6563,578.125 2211.9688,577.0625 Q2211.2813,575.9844 2211.2813,574.7031 L2211.2813,573.5469 Q2211.2813,572.2188 2211.8906,571.0781 Q2212.5156,569.9219 2213.6094,569.3125 Q2214.7031,568.6875 2215.9375,568.6875 Q2216.6719,568.6875 2217.3125,568.8594 Q2217.9688,569.0156 2218.5156,569.375 Z "/><text fill="#000000" font-family="sans-serif" font-size="12" lengthAdjust="spacingAndGlyphs" textLength="27" x="2236.25" y="578.4102">Task</text><line style="stroke: #A80036; stroke-width: 1.5;" x1="2150" x2="2317" y1="589.5" y2="589.5"/><text fill="#000000" font-family="sans-serif" font-size="11" lengthAdjust="spacingAndGlyphs" textLength="43" x="2155" y="604.9189">-String id</text><text fill="#000000" font-family="sans-serif" font-size="11" lengthAdjust="spacingAndGlyphs" textLength="88" x="2155" y="618.7549">-String description</text><text fill="#000000" font-family="sans-serif" font-size="11" lengthAdjust="spacingAndGlyphs" textLength="116" x="2155" y="632.5908">-Integer durationInHours</text><text fill="#000000" font-family="sans-serif" font-size="11" lengthAdjust="spacingAndGlyphs" textLength="157" x="2155" y="646.4268">-Double costPerHourOfJuniorEur</text><text fill="#000000" font-family="sans-serif" font-size="11" lengthAdjust="spacingAndGlyphs" textLength="78" x="2155" y="660.2627">-String category</text><!--MD5=[335f4d9be48430461c68bf6d6fdba145]
class App--><rect fill="#FEFECE" filter="url(#fi4u85egdbwb9)" height="40" id="App" style="stroke: #A80036; stroke-width: 1.5;" width="53" x="6" y="752"/><ellipse cx="21" cy="768" fill="#ADD1B2" rx="11" ry="11" style="stroke: #A80036; stroke-width: 1.0;"/><path d="M23.7656,763.875 Q23.9219,763.6563 24.1094,763.5469 Q24.2969,763.4375 24.5156,763.4375 Q24.8906,763.4375 25.125,763.7031 Q25.3594,763.9531 25.3594,764.5625 L25.3594,766.0156 Q25.3594,766.625 25.125,766.8906 Q24.8906,767.1563 24.5156,767.1563 Q24.1719,767.1563 23.9688,766.9531 Q23.7656,766.7656 23.6563,766.25 Q23.6094,765.8906 23.4219,765.7031 Q23.0938,765.3281 22.4844,765.1094 Q21.875,764.8906 21.25,764.8906 Q20.4844,764.8906 19.8438,765.2188 Q19.2188,765.5469 18.7188,766.2969 Q18.2344,767.0469 18.2344,768.0781 L18.2344,769.1719 Q18.2344,770.4063 19.125,771.2344 Q20.0156,772.0469 21.6094,772.0469 Q22.5469,772.0469 23.2031,771.7969 Q23.5938,771.6406 24.0156,771.2031 Q24.2813,770.9375 24.4219,770.8594 Q24.5781,770.7813 24.7813,770.7813 Q25.1094,770.7813 25.3594,771.0469 Q25.625,771.2969 25.625,771.6406 Q25.625,771.9844 25.2813,772.3906 Q24.7813,772.9688 23.9844,773.2969 Q22.9063,773.75 21.6094,773.75 Q20.0938,773.75 18.8906,773.125 Q17.9063,772.625 17.2188,771.5625 Q16.5313,770.4844 16.5313,769.2031 L16.5313,768.0469 Q16.5313,766.7188 17.1406,765.5781 Q17.7656,764.4219 18.8594,763.8125 Q19.9531,763.1875 21.1875,763.1875 Q21.9219,763.1875 22.5625,763.3594 Q23.2188,763.5156 23.7656,763.875 Z "/><text fill="#000000" font-family="sans-serif" font-size="12" lengthAdjust="spacingAndGlyphs" textLength="21" x="35" y="772.9102">App</text><line style="stroke: #A80036; stroke-width: 1.5;" x1="7" x2="58" y1="784" y2="784"/><!--MD5=[da547346deef918ea16944ba046651ef]
class Administrator--><rect fill="#FEFECE" filter="url(#fi4u85egdbwb9)" height="81.5078" id="Administrator" style="stroke: #A80036; stroke-width: 1.5;" width="105" x="155" y="566"/><ellipse cx="170" cy="582" fill="#ADD1B2" rx="11" ry="11" style="stroke: #A80036; stroke-width: 1.0;"/><path d="M172.7656,577.875 Q172.9219,577.6563 173.1094,577.5469 Q173.2969,577.4375 173.5156,577.4375 Q173.8906,577.4375 174.125,577.7031 Q174.3594,577.9531 174.3594,578.5625 L174.3594,580.0156 Q174.3594,580.625 174.125,580.8906 Q173.8906,581.1563 173.5156,581.1563 Q173.1719,581.1563 172.9688,580.9531 Q172.7656,580.7656 172.6563,580.25 Q172.6094,579.8906 172.4219,579.7031 Q172.0938,579.3281 171.4844,579.1094 Q170.875,578.8906 170.25,578.8906 Q169.4844,578.8906 168.8438,579.2188 Q168.2188,579.5469 167.7188,580.2969 Q167.2344,581.0469 167.2344,582.0781 L167.2344,583.1719 Q167.2344,584.4063 168.125,585.2344 Q169.0156,586.0469 170.6094,586.0469 Q171.5469,586.0469 172.2031,585.7969 Q172.5938,585.6406 173.0156,585.2031 Q173.2813,584.9375 173.4219,584.8594 Q173.5781,584.7813 173.7813,584.7813 Q174.1094,584.7813 174.3594,585.0469 Q174.625,585.2969 174.625,585.6406 Q174.625,585.9844 174.2813,586.3906 Q173.7813,586.9688 172.9844,587.2969 Q171.9063,587.75 170.6094,587.75 Q169.0938,587.75 167.8906,587.125 Q166.9063,586.625 166.2188,585.5625 Q165.5313,584.4844 165.5313,583.2031 L165.5313,582.0469 Q165.5313,580.7188 166.1406,579.5781 Q166.7656,578.4219 167.8594,577.8125 Q168.9531,577.1875 170.1875,577.1875 Q170.9219,577.1875 171.5625,577.3594 Q172.2188,577.5156 172.7656,577.875 Z "/><text fill="#000000" font-family="sans-serif" font-size="12" lengthAdjust="spacingAndGlyphs" textLength="73" x="184" y="586.9102">Administrator</text><line style="stroke: #A80036; stroke-width: 1.5;" x1="156" x2="259" y1="598" y2="598"/><text fill="#000000" font-family="sans-serif" font-size="11" lengthAdjust="spacingAndGlyphs" textLength="61" x="161" y="613.4189">-String nome</text><text fill="#000000" font-family="sans-serif" font-size="11" lengthAdjust="spacingAndGlyphs" textLength="59" x="161" y="627.2549">-String email</text><text fill="#000000" font-family="sans-serif" font-size="11" lengthAdjust="spacingAndGlyphs" textLength="85" x="161" y="641.0908">-String password</text><!--MD5=[942000697ba2ca87a591befaf65c4861]
class EmailScheduler--><rect fill="#FEFECE" filter="url(#fi4u85egdbwb9)" height="40" id="EmailScheduler" style="stroke: #A80036; stroke-width: 1.5;" width="120" x="290" y="108"/><ellipse cx="305" cy="124" fill="#ADD1B2" rx="11" ry="11" style="stroke: #A80036; stroke-width: 1.0;"/><path d="M307.7656,119.875 Q307.9219,119.6563 308.1094,119.5469 Q308.2969,119.4375 308.5156,119.4375 Q308.8906,119.4375 309.125,119.7031 Q309.3594,119.9531 309.3594,120.5625 L309.3594,122.0156 Q309.3594,122.625 309.125,122.8906 Q308.8906,123.1563 308.5156,123.1563 Q308.1719,123.1563 307.9688,122.9531 Q307.7656,122.7656 307.6563,122.25 Q307.6094,121.8906 307.4219,121.7031 Q307.0938,121.3281 306.4844,121.1094 Q305.875,120.8906 305.25,120.8906 Q304.4844,120.8906 303.8438,121.2188 Q303.2188,121.5469 302.7188,122.2969 Q302.2344,123.0469 302.2344,124.0781 L302.2344,125.1719 Q302.2344,126.4063 303.125,127.2344 Q304.0156,128.0469 305.6094,128.0469 Q306.5469,128.0469 307.2031,127.7969 Q307.5938,127.6406 308.0156,127.2031 Q308.2813,126.9375 308.4219,126.8594 Q308.5781,126.7813 308.7813,126.7813 Q309.1094,126.7813 309.3594,127.0469 Q309.625,127.2969 309.625,127.6406 Q309.625,127.9844 309.2813,128.3906 Q308.7813,128.9688 307.9844,129.2969 Q306.9063,129.75 305.6094,129.75 Q304.0938,129.75 302.8906,129.125 Q301.9063,128.625 301.2188,127.5625 Q300.5313,126.4844 300.5313,125.2031 L300.5313,124.0469 Q300.5313,122.7188 301.1406,121.5781 Q301.7656,120.4219 302.8594,119.8125 Q303.9531,119.1875 305.1875,119.1875 Q305.9219,119.1875 306.5625,119.3594 Q307.2188,119.5156 307.7656,119.875 Z "/><text fill="#000000" font-family="sans-serif" font-size="12" lengthAdjust="spacingAndGlyphs" textLength="88" x="319" y="128.9102">EmailScheduler</text><line style="stroke: #A80036; stroke-width: 1.5;" x1="291" x2="409" y1="140" y2="140"/><!--MD5=[3fd616f346a44cd59a91eb10b19e157c]
class User--><rect fill="#FEFECE" filter="url(#fi4u85egdbwb9)" height="81.5078" id="User" style="stroke: #A80036; stroke-width: 1.5;" width="97" x="1898" y="168"/><ellipse cx="1930.1" cy="184" fill="#ADD1B2" rx="11" ry="11" style="stroke: #A80036; stroke-width: 1.0;"/><path d="M1932.8656,179.875 Q1933.0219,179.6563 1933.2094,179.5469 Q1933.3969,179.4375 1933.6156,179.4375 Q1933.9906,179.4375 1934.225,179.7031 Q1934.4594,179.9531 1934.4594,180.5625 L1934.4594,182.0156 Q1934.4594,182.625 1934.225,182.8906 Q1933.9906,183.1563 1933.6156,183.1563 Q1933.2719,183.1563 1933.0688,182.9531 Q1932.8656,182.7656 1932.7563,182.25 Q1932.7094,181.8906 1932.5219,181.7031 Q1932.1938,181.3281 1931.5844,181.1094 Q1930.975,180.8906 1930.35,180.8906 Q1929.5844,180.8906 1928.9438,181.2188 Q1928.3188,181.5469 1927.8188,182.2969 Q1927.3344,183.0469 1927.3344,184.0781 L1927.3344,185.1719 Q1927.3344,186.4063 1928.225,187.2344 Q1929.1156,188.0469 1930.7094,188.0469 Q1931.6469,188.0469 1932.3031,187.7969 Q1932.6938,187.6406 1933.1156,187.2031 Q1933.3813,186.9375 1933.5219,186.8594 Q1933.6781,186.7813 1933.8813,186.7813 Q1934.2094,186.7813 1934.4594,187.0469 Q1934.725,187.2969 1934.725,187.6406 Q1934.725,187.9844 1934.3813,188.3906 Q1933.8813,188.9688 1933.0844,189.2969 Q1932.0063,189.75 1930.7094,189.75 Q1929.1938,189.75 1927.9906,189.125 Q1927.0063,188.625 1926.3188,187.5625 Q1925.6313,186.4844 1925.6313,185.2031 L1925.6313,184.0469 Q1925.6313,182.7188 1926.2406,181.5781 Q1926.8656,180.4219 1927.9594,179.8125 Q1929.0531,179.1875 1930.2875,179.1875 Q1931.0219,179.1875 1931.6625,179.3594 Q1932.3188,179.5156 1932.8656,179.875 Z "/><text fill="#000000" font-family="sans-serif" font-size="12" lengthAdjust="spacingAndGlyphs" textLength="27" x="1947.9" y="188.9102">User</text><line style="stroke: #A80036; stroke-width: 1.5;" x1="1899" x2="1994" y1="200" y2="200"/><text fill="#000000" font-family="sans-serif" font-size="11" lengthAdjust="spacingAndGlyphs" textLength="61" x="1904" y="215.4189">-String nome</text><text fill="#000000" font-family="sans-serif" font-size="11" lengthAdjust="spacingAndGlyphs" textLength="59" x="1904" y="229.2549">-String email</text><text fill="#000000" font-family="sans-serif" font-size="11" lengthAdjust="spacingAndGlyphs" textLength="85" x="1904" y="243.0908">-String password</text><!--MD5=[1f687b5315377fe49fca59b457947463]
class Freelancer--><rect fill="#FEFECE" filter="url(#fi4u85egdbwb9)" height="150.6875" id="Freelancer" style="stroke: #A80036; stroke-width: 1.5;" width="135" x="2464" y="428.5"/><ellipse cx="2498.8" cy="444.5" fill="#ADD1B2" rx="11" ry="11" style="stroke: #A80036; stroke-width: 1.0;"/><path d="M2501.5656,440.375 Q2501.7219,440.1563 2501.9094,440.0469 Q2502.0969,439.9375 2502.3156,439.9375 Q2502.6906,439.9375 2502.925,440.2031 Q2503.1594,440.4531 2503.1594,441.0625 L2503.1594,442.5156 Q2503.1594,443.125 2502.925,443.3906 Q2502.6906,443.6563 2502.3156,443.6563 Q2501.9719,443.6563 2501.7688,443.4531 Q2501.5656,443.2656 2501.4563,442.75 Q2501.4094,442.3906 2501.2219,442.2031 Q2500.8938,441.8281 2500.2844,441.6094 Q2499.675,441.3906 2499.05,441.3906 Q2498.2844,441.3906 2497.6438,441.7188 Q2497.0188,442.0469 2496.5188,442.7969 Q2496.0344,443.5469 2496.0344,444.5781 L2496.0344,445.6719 Q2496.0344,446.9063 2496.925,447.7344 Q2497.8156,448.5469 2499.4094,448.5469 Q2500.3469,448.5469 2501.0031,448.2969 Q2501.3938,448.1406 2501.8156,447.7031 Q2502.0813,447.4375 2502.2219,447.3594 Q2502.3781,447.2813 2502.5813,447.2813 Q2502.9094,447.2813 2503.1594,447.5469 Q2503.425,447.7969 2503.425,448.1406 Q2503.425,448.4844 2503.0813,448.8906 Q2502.5813,449.4688 2501.7844,449.7969 Q2500.7063,450.25 2499.4094,450.25 Q2497.8938,450.25 2496.6906,449.625 Q2495.7063,449.125 2495.0188,448.0625 Q2494.3313,446.9844 2494.3313,445.7031 L2494.3313,444.5469 Q2494.3313,443.2188 2494.9406,442.0781 Q2495.5656,440.9219 2496.6594,440.3125 Q2497.7531,439.6875 2498.9875,439.6875 Q2499.7219,439.6875 2500.3625,439.8594 Q2501.0188,440.0156 2501.5656,440.375 Z "/><text fill="#000000" font-family="sans-serif" font-size="12" lengthAdjust="spacingAndGlyphs" textLength="59" x="2517.2" y="449.4102">Freelancer</text><line style="stroke: #A80036; stroke-width: 1.5;" x1="2465" x2="2598" y1="460.5" y2="460.5"/><text fill="#000000" font-family="sans-serif" font-size="11" lengthAdjust="spacingAndGlyphs" textLength="43" x="2470" y="475.9189">-String id</text><text fill="#000000" font-family="sans-serif" font-size="11" lengthAdjust="spacingAndGlyphs" textLength="61" x="2470" y="489.7549">-String name</text><text fill="#000000" font-family="sans-serif" font-size="11" lengthAdjust="spacingAndGlyphs" textLength="114" x="2470" y="503.5908">-String levelOfExpertise</text><text fill="#000000" font-family="sans-serif" font-size="11" lengthAdjust="spacingAndGlyphs" textLength="59" x="2470" y="517.4268">-String email</text><text fill="#000000" font-family="sans-serif" font-size="11" lengthAdjust="spacingAndGlyphs" textLength="50" x="2470" y="531.2627">-String NIF</text><text fill="#000000" font-family="sans-serif" font-size="11" lengthAdjust="spacingAndGlyphs" textLength="123" x="2470" y="545.0986">-String bankAccountIBAN</text><text fill="#000000" font-family="sans-serif" font-size="11" lengthAdjust="spacingAndGlyphs" textLength="75" x="2470" y="558.9346">-String address</text><text fill="#000000" font-family="sans-serif" font-size="11" lengthAdjust="spacingAndGlyphs" textLength="72" x="2470" y="572.7705">-String country</text><!--MD5=[764fca796ce7f635542948d8fc39db5e]
class Payment--><rect fill="#FEFECE" filter="url(#fi4u85egdbwb9)" height="40" id="Payment" style="stroke: #A80036; stroke-width: 1.5;" width="80" x="1272.5" y="614"/><ellipse cx="1287.5" cy="630" fill="#ADD1B2" rx="11" ry="11" style="stroke: #A80036; stroke-width: 1.0;"/><path d="M1290.2656,625.875 Q1290.4219,625.6563 1290.6094,625.5469 Q1290.7969,625.4375 1291.0156,625.4375 Q1291.3906,625.4375 1291.625,625.7031 Q1291.8594,625.9531 1291.8594,626.5625 L1291.8594,628.0156 Q1291.8594,628.625 1291.625,628.8906 Q1291.3906,629.1563 1291.0156,629.1563 Q1290.6719,629.1563 1290.4688,628.9531 Q1290.2656,628.7656 1290.1563,628.25 Q1290.1094,627.8906 1289.9219,627.7031 Q1289.5938,627.3281 1288.9844,627.1094 Q1288.375,626.8906 1287.75,626.8906 Q1286.9844,626.8906 1286.3438,627.2188 Q1285.7188,627.5469 1285.2188,628.2969 Q1284.7344,629.0469 1284.7344,630.0781 L1284.7344,631.1719 Q1284.7344,632.4063 1285.625,633.2344 Q1286.5156,634.0469 1288.1094,634.0469 Q1289.0469,634.0469 1289.7031,633.7969 Q1290.0938,633.6406 1290.5156,633.2031 Q1290.7813,632.9375 1290.9219,632.8594 Q1291.0781,632.7813 1291.2813,632.7813 Q1291.6094,632.7813 1291.8594,633.0469 Q1292.125,633.2969 1292.125,633.6406 Q1292.125,633.9844 1291.7813,634.3906 Q1291.2813,634.9688 1290.4844,635.2969 Q1289.4063,635.75 1288.1094,635.75 Q1286.5938,635.75 1285.3906,635.125 Q1284.4063,634.625 1283.7188,633.5625 Q1283.0313,632.4844 1283.0313,631.2031 L1283.0313,630.0469 Q1283.0313,628.7188 1283.6406,627.5781 Q1284.2656,626.4219 1285.3594,625.8125 Q1286.4531,625.1875 1287.6875,625.1875 Q1288.4219,625.1875 1289.0625,625.3594 Q1289.7188,625.5156 1290.2656,625.875 Z "/><text fill="#000000" font-family="sans-serif" font-size="12" lengthAdjust="spacingAndGlyphs" textLength="48" x="1301.5" y="634.9102">Payment</text><line style="stroke: #A80036; stroke-width: 1.5;" x1="1273.5" x2="1351.5" y1="646" y2="646"/><!--MD5=[8806e557260fb3598decb516dc04693d]
class EmailAPI--><rect fill="#FEFECE" filter="url(#fi4u85egdbwb9)" height="40" id="EmailAPI" style="stroke: #A80036; stroke-width: 1.5;" width="82" x="1573" y="92"/><ellipse cx="1588" cy="108" fill="#ADD1B2" rx="11" ry="11" style="stroke: #A80036; stroke-width: 1.0;"/><path d="M1590.7656,103.875 Q1590.9219,103.6563 1591.1094,103.5469 Q1591.2969,103.4375 1591.5156,103.4375 Q1591.8906,103.4375 1592.125,103.7031 Q1592.3594,103.9531 1592.3594,104.5625 L1592.3594,106.0156 Q1592.3594,106.625 1592.125,106.8906 Q1591.8906,107.1563 1591.5156,107.1563 Q1591.1719,107.1563 1590.9688,106.9531 Q1590.7656,106.7656 1590.6563,106.25 Q1590.6094,105.8906 1590.4219,105.7031 Q1590.0938,105.3281 1589.4844,105.1094 Q1588.875,104.8906 1588.25,104.8906 Q1587.4844,104.8906 1586.8438,105.2188 Q1586.2188,105.5469 1585.7188,106.2969 Q1585.2344,107.0469 1585.2344,108.0781 L1585.2344,109.1719 Q1585.2344,110.4063 1586.125,111.2344 Q1587.0156,112.0469 1588.6094,112.0469 Q1589.5469,112.0469 1590.2031,111.7969 Q1590.5938,111.6406 1591.0156,111.2031 Q1591.2813,110.9375 1591.4219,110.8594 Q1591.5781,110.7813 1591.7813,110.7813 Q1592.1094,110.7813 1592.3594,111.0469 Q1592.625,111.2969 1592.625,111.6406 Q1592.625,111.9844 1592.2813,112.3906 Q1591.7813,112.9688 1590.9844,113.2969 Q1589.9063,113.75 1588.6094,113.75 Q1587.0938,113.75 1585.8906,113.125 Q1584.9063,112.625 1584.2188,111.5625 Q1583.5313,110.4844 1583.5313,109.2031 L1583.5313,108.0469 Q1583.5313,106.7188 1584.1406,105.5781 Q1584.7656,104.4219 1585.8594,103.8125 Q1586.9531,103.1875 1588.1875,103.1875 Q1588.9219,103.1875 1589.5625,103.3594 Q1590.2188,103.5156 1590.7656,103.875 Z "/><text fill="#000000" font-family="sans-serif" font-size="12" lengthAdjust="spacingAndGlyphs" textLength="50" x="1602" y="112.9102">EmailAPI</text><line style="stroke: #A80036; stroke-width: 1.5;" x1="1574" x2="1654" y1="124" y2="124"/><!--MD5=[b9b2b358c4596a7c3c612fa1a577c109]
class PaymentAPI--><rect fill="#FEFECE" filter="url(#fi4u85egdbwb9)" height="40" id="PaymentAPI" style="stroke: #A80036; stroke-width: 1.5;" width="98" x="1565" y="665"/><ellipse cx="1580" cy="681" fill="#ADD1B2" rx="11" ry="11" style="stroke: #A80036; stroke-width: 1.0;"/><path d="M1582.7656,676.875 Q1582.9219,676.6563 1583.1094,676.5469 Q1583.2969,676.4375 1583.5156,676.4375 Q1583.8906,676.4375 1584.125,676.7031 Q1584.3594,676.9531 1584.3594,677.5625 L1584.3594,679.0156 Q1584.3594,679.625 1584.125,679.8906 Q1583.8906,680.1563 1583.5156,680.1563 Q1583.1719,680.1563 1582.9688,679.9531 Q1582.7656,679.7656 1582.6563,679.25 Q1582.6094,678.8906 1582.4219,678.7031 Q1582.0938,678.3281 1581.4844,678.1094 Q1580.875,677.8906 1580.25,677.8906 Q1579.4844,677.8906 1578.8438,678.2188 Q1578.2188,678.5469 1577.7188,679.2969 Q1577.2344,680.0469 1577.2344,681.0781 L1577.2344,682.1719 Q1577.2344,683.4063 1578.125,684.2344 Q1579.0156,685.0469 1580.6094,685.0469 Q1581.5469,685.0469 1582.2031,684.7969 Q1582.5938,684.6406 1583.0156,684.2031 Q1583.2813,683.9375 1583.4219,683.8594 Q1583.5781,683.7813 1583.7813,683.7813 Q1584.1094,683.7813 1584.3594,684.0469 Q1584.625,684.2969 1584.625,684.6406 Q1584.625,684.9844 1584.2813,685.3906 Q1583.7813,685.9688 1582.9844,686.2969 Q1581.9063,686.75 1580.6094,686.75 Q1579.0938,686.75 1577.8906,686.125 Q1576.9063,685.625 1576.2188,684.5625 Q1575.5313,683.4844 1575.5313,682.2031 L1575.5313,681.0469 Q1575.5313,679.7188 1576.1406,678.5781 Q1576.7656,677.4219 1577.8594,676.8125 Q1578.9531,676.1875 1580.1875,676.1875 Q1580.9219,676.1875 1581.5625,676.3594 Q1582.2188,676.5156 1582.7656,676.875 Z "/><text fill="#000000" font-family="sans-serif" font-size="12" lengthAdjust="spacingAndGlyphs" textLength="66" x="1594" y="685.9102">PaymentAPI</text><line style="stroke: #A80036; stroke-width: 1.5;" x1="1566" x2="1662" y1="697" y2="697"/><!--MD5=[b76730e11bf88a141099e30fd5a76626]
class MonetaryUnitConversionAPI--><rect fill="#FEFECE" filter="url(#fi4u85egdbwb9)" height="40" id="MonetaryUnitConversionAPI" style="stroke: #A80036; stroke-width: 1.5;" width="184" x="1522" y="919"/><ellipse cx="1537" cy="935" fill="#ADD1B2" rx="11" ry="11" style="stroke: #A80036; stroke-width: 1.0;"/><path d="M1539.7656,930.875 Q1539.9219,930.6563 1540.1094,930.5469 Q1540.2969,930.4375 1540.5156,930.4375 Q1540.8906,930.4375 1541.125,930.7031 Q1541.3594,930.9531 1541.3594,931.5625 L1541.3594,933.0156 Q1541.3594,933.625 1541.125,933.8906 Q1540.8906,934.1563 1540.5156,934.1563 Q1540.1719,934.1563 1539.9688,933.9531 Q1539.7656,933.7656 1539.6563,933.25 Q1539.6094,932.8906 1539.4219,932.7031 Q1539.0938,932.3281 1538.4844,932.1094 Q1537.875,931.8906 1537.25,931.8906 Q1536.4844,931.8906 1535.8438,932.2188 Q1535.2188,932.5469 1534.7188,933.2969 Q1534.2344,934.0469 1534.2344,935.0781 L1534.2344,936.1719 Q1534.2344,937.4063 1535.125,938.2344 Q1536.0156,939.0469 1537.6094,939.0469 Q1538.5469,939.0469 1539.2031,938.7969 Q1539.5938,938.6406 1540.0156,938.2031 Q1540.2813,937.9375 1540.4219,937.8594 Q1540.5781,937.7813 1540.7813,937.7813 Q1541.1094,937.7813 1541.3594,938.0469 Q1541.625,938.2969 1541.625,938.6406 Q1541.625,938.9844 1541.2813,939.3906 Q1540.7813,939.9688 1539.9844,940.2969 Q1538.9063,940.75 1537.6094,940.75 Q1536.0938,940.75 1534.8906,940.125 Q1533.9063,939.625 1533.2188,938.5625 Q1532.5313,937.4844 1532.5313,936.2031 L1532.5313,935.0469 Q1532.5313,933.7188 1533.1406,932.5781 Q1533.7656,931.4219 1534.8594,930.8125 Q1535.9531,930.1875 1537.1875,930.1875 Q1537.9219,930.1875 1538.5625,930.3594 Q1539.2188,930.5156 1539.7656,930.875 Z "/><text fill="#000000" font-family="sans-serif" font-size="12" lengthAdjust="spacingAndGlyphs" textLength="152" x="1551" y="939.9102">MonetaryUnitConversionAPI</text><line style="stroke: #A80036; stroke-width: 1.5;" x1="1523" x2="1705" y1="951" y2="951"/><!--MD5=[d29e613367f81ad7dde1107857724e46]
link Colaborator to Payment--><path d="M1012.33,441.354 C1028.04,454.788 1045.95,469.455 1063,482 C1133.02,533.509 1153.43,542.332 1228,587 C1243.13,596.061 1260.04,605.677 1274.67,613.834 " fill="none" id="Colaborator-Payment" style="stroke: #A80036; stroke-width: 1.0;"/><text fill="#000000" font-family="sans-serif" font-size="13" lengthAdjust="spacingAndGlyphs" textLength="43" x="1102.5" y="478.4951">creates</text><polygon fill="#000000" points="1148.5,471.6758,1154.5,474.6758,1148.5,477.6758,1148.5,471.6758" style="stroke: #000000; stroke-width: 1.0;"/><text fill="#000000" font-family="sans-serif" font-size="13" lengthAdjust="spacingAndGlyphs" textLength="7" x="1011.489" y="461.8488">1</text><text fill="#000000" font-family="sans-serif" font-size="13" lengthAdjust="spacingAndGlyphs" textLength="5" x="1259.3354" y="604.1566">*</text><!--MD5=[43bc7443460eb6e15759d9c6a71318a8]
link Colaborator to Task--><path d="M1013.54,399.679 C1101.41,399.113 1295.19,398 1458.5,398 C1458.5,398 1458.5,398 1947.5,398 C2053.62,398 2145.46,494.042 2194.53,557.445 " fill="none" id="Colaborator-Task" style="stroke: #A80036; stroke-width: 1.0;"/><text fill="#000000" font-family="sans-serif" font-size="13" lengthAdjust="spacingAndGlyphs" textLength="43" x="1586" y="394.4951">creates</text><polygon fill="#000000" points="1632,387.6758,1638,390.6758,1632,393.6758,1632,387.6758" style="stroke: #000000; stroke-width: 1.0;"/><text fill="#000000" font-family="sans-serif" font-size="13" lengthAdjust="spacingAndGlyphs" textLength="7" x="1021.5086" y="414.4146">1</text><text fill="#000000" font-family="sans-serif" font-size="13" lengthAdjust="spacingAndGlyphs" textLength="5" x="2183.9575" y="546.5458">*</text><!--MD5=[7be2b93dc6b99f50a07263979bce1c9c]
link Colaborator to Freelancer--><path d="M1013.68,383.344 C1079.71,361.799 1203.14,327 1311.5,327 C1311.5,327 1311.5,327 2234.5,327 C2322.97,327 2407.91,385.959 2463.94,435.82 " fill="none" id="Colaborator-Freelancer" style="stroke: #A80036; stroke-width: 1.0;"/><text fill="#000000" font-family="sans-serif" font-size="13" lengthAdjust="spacingAndGlyphs" textLength="43" x="1755.5" y="323.4951">creates</text><polygon fill="#000000" points="1801.5,316.6758,1807.5,319.6758,1801.5,322.6758,1801.5,316.6758" style="stroke: #000000; stroke-width: 1.0;"/><text fill="#000000" font-family="sans-serif" font-size="13" lengthAdjust="spacingAndGlyphs" textLength="7" x="1021.3439" y="395.6297">1</text><text fill="#000000" font-family="sans-serif" font-size="13" lengthAdjust="spacingAndGlyphs" textLength="5" x="2450.8393" y="442.3952">*</text><!--MD5=[dfec053834ca4b8aaedc22769d2f526b]
link Colaborator to HistoricalTransactionFile--><path d="M1013.95,416.892 C1029.46,421.934 1046.84,427.139 1063,431 C1117.3,443.969 1179.29,453.955 1227.77,460.706 " fill="none" id="Colaborator-HistoricalTransactionFile" style="stroke: #A80036; stroke-width: 1.0;"/><text fill="#000000" font-family="sans-serif" font-size="13" lengthAdjust="spacingAndGlyphs" textLength="31" x="1108.5" y="427.4951">loads</text><polygon fill="#000000" points="1142.5,420.6758,1148.5,423.6758,1142.5,426.6758,1142.5,420.6758" style="stroke: #000000; stroke-width: 1.0;"/><text fill="#000000" font-family="sans-serif" font-size="13" lengthAdjust="spacingAndGlyphs" textLength="7" x="1021.6536" y="434.1051">1</text><text fill="#000000" font-family="sans-serif" font-size="13" lengthAdjust="spacingAndGlyphs" textLength="5" x="1215.0011" y="474.0125">*</text><!--MD5=[02dd8e0703276896f1e42edb558b3819]
link Colaborator to User--><path d="M995.133,358.779 C1012.34,337.795 1036.02,314.024 1063,301 C1138.6,264.503 1725.4,223.45 1897.94,212.067 " fill="none" id="Colaborator-User" style="stroke: #A80036; stroke-width: 1.0;"/><text fill="#000000" font-family="sans-serif" font-size="13" lengthAdjust="spacingAndGlyphs" textLength="43" x="1431.5" y="239.4951">acts as</text><polygon fill="#000000" points="1477.5,232.6758,1483.5,235.6758,1477.5,238.6758,1477.5,232.6758" style="stroke: #000000; stroke-width: 1.0;"/><text fill="#000000" font-family="sans-serif" font-size="13" lengthAdjust="spacingAndGlyphs" textLength="18" x="980.6332" y="348.1918">0,1</text><text fill="#000000" font-family="sans-serif" font-size="13" lengthAdjust="spacingAndGlyphs" textLength="7" x="1882.9683" y="227.3214">1</text><!--MD5=[7243fd82d00bd95e91d7be6a6f325055]
link Manager to PaymentScheduler--><path d="M734.017,544.038 C743.737,549.117 754.043,554.048 764,558 C807.069,575.095 857.517,588.419 896.971,597.432 " fill="none" id="Manager-PaymentScheduler" style="stroke: #A80036; stroke-width: 1.0;"/><text fill="#000000" font-family="sans-serif" font-size="13" lengthAdjust="spacingAndGlyphs" textLength="41" x="788.5" y="554.4951">defines</text><polygon fill="#000000" points="832.5,547.6758,838.5,550.6758,832.5,553.6758,832.5,547.6758" style="stroke: #000000; stroke-width: 1.0;"/><text fill="#000000" font-family="sans-serif" font-size="13" lengthAdjust="spacingAndGlyphs" textLength="7" x="741.9821" y="563.116">1</text><text fill="#000000" font-family="sans-serif" font-size="13" lengthAdjust="spacingAndGlyphs" textLength="18" x="871.0274" y="592.738">0,1</text><!--MD5=[6eb6e197a729f6ec2412743e0bdbca1d]
link Manager to User--><path d="M734.192,521.669 C848.981,534.245 1149.48,560.802 1397,527 C1538.24,507.712 1574.37,495.724 1706,441 C1765,416.473 1783.59,412.825 1831,370 C1869.56,335.17 1902.58,285.179 1923.12,250.169 " fill="none" id="Manager-User" style="stroke: #A80036; stroke-width: 1.0;"/><text fill="#000000" font-family="sans-serif" font-size="13" lengthAdjust="spacingAndGlyphs" textLength="43" x="1284.5" y="523.4951">acts as</text><polygon fill="#000000" points="1330.5,516.6758,1336.5,519.6758,1330.5,522.6758,1330.5,516.6758" style="stroke: #000000; stroke-width: 1.0;"/><text fill="#000000" font-family="sans-serif" font-size="13" lengthAdjust="spacingAndGlyphs" textLength="18" x="741.9444" y="537.0576">0,1</text><text fill="#000000" font-family="sans-serif" font-size="13" lengthAdjust="spacingAndGlyphs" textLength="7" x="1912.172" y="270.9478">1</text><!--MD5=[c4629210b2ba88e64afbee18491f07dd]
link Payment to Transaction--><path d="M1352.53,628.724 C1388.71,623.788 1444.02,616.126 1492,609 C1516.19,605.407 1543.06,601.208 1565.33,597.673 " fill="none" id="Payment-Transaction" style="stroke: #A80036; stroke-width: 1.0;"/><text fill="#000000" font-family="sans-serif" font-size="13" lengthAdjust="spacingAndGlyphs" textLength="50" x="1428" y="605.4951">registers</text><polygon fill="#000000" points="1481,598.6758,1487,601.6758,1481,604.6758,1481,598.6758" style="stroke: #000000; stroke-width: 1.0;"/><text fill="#000000" font-family="sans-serif" font-size="13" lengthAdjust="spacingAndGlyphs" textLength="5" x="1360.3715" y="633.2788">*</text><text fill="#000000" font-family="sans-serif" font-size="13" lengthAdjust="spacingAndGlyphs" textLength="23" x="1534.6207" y="595.1487">1,...</text><!--MD5=[ac4dd7fdeb0fa08e65a2b7971307989b]
link Payment to EmailAPI--><path d="M1352.66,617.414 C1402.4,596.001 1482.92,560.057 1492,548 C1539.73,484.607 1502.16,448.829 1522,372 C1545.62,280.549 1586.96,175.455 1604.62,132.199 " fill="none" id="Payment-EmailAPI" style="stroke: #A80036; stroke-width: 1.0;"/><polygon fill="#000000" points="1448.5,541,1451.5,535,1454.5,541,1448.5,541" style="stroke: #000000; stroke-width: 1.0;"/><text fill="#000000" font-family="sans-serif" font-size="13" lengthAdjust="spacingAndGlyphs" textLength="28" x="1439" y="557.4951">uses</text><text fill="#000000" font-family="sans-serif" font-size="13" lengthAdjust="spacingAndGlyphs" textLength="5" x="1360.5254" y="610.4085">*</text><text fill="#000000" font-family="sans-serif" font-size="13" lengthAdjust="spacingAndGlyphs" textLength="7" x="1594.1585" y="153.3198">1</text><!--MD5=[4e8d4ca70e30f9b9e34071c7768f0551]
link Payment to PaymentAPI--><path d="M1352.65,640.667 C1407.2,649.955 1505.97,666.775 1564.92,676.813 " fill="none" id="Payment-PaymentAPI" style="stroke: #A80036; stroke-width: 1.0;"/><text fill="#000000" font-family="sans-serif" font-size="13" lengthAdjust="spacingAndGlyphs" textLength="28" x="1439" y="649.4951">uses</text><polygon fill="#000000" points="1470,642.6758,1476,645.6758,1470,648.6758,1470,642.6758" style="stroke: #000000; stroke-width: 1.0;"/><text fill="#000000" font-family="sans-serif" font-size="13" lengthAdjust="spacingAndGlyphs" textLength="5" x="1360.5136" y="656.8988">*</text><text fill="#000000" font-family="sans-serif" font-size="13" lengthAdjust="spacingAndGlyphs" textLength="7" x="1549.8687" y="690.3064">1</text><!--MD5=[a5bfdb67ecdee50c8f593adbd3c04571]
link Payment to MonetaryUnitConversionAPI--><path d="M1333.15,654.012 C1387.42,709.276 1538.92,863.562 1593.28,918.914 " fill="none" id="Payment-MonetaryUnitConversionAPI" style="stroke: #A80036; stroke-width: 1.0;"/><text fill="#000000" font-family="sans-serif" font-size="13" lengthAdjust="spacingAndGlyphs" textLength="28" x="1439" y="746.4951">uses</text><polygon fill="#000000" points="1448.5,755.3516,1451.5,761.3516,1454.5,755.3516,1448.5,755.3516" style="stroke: #000000; stroke-width: 1.0;"/><text fill="#000000" font-family="sans-serif" font-size="13" lengthAdjust="spacingAndGlyphs" textLength="5" x="1333.2547" y="675.4349">*</text><text fill="#000000" font-family="sans-serif" font-size="13" lengthAdjust="spacingAndGlyphs" textLength="7" x="1579.1654" y="908.2105">1</text><!--MD5=[8e4873cec2cb3febaaa9495c716fc885]
link Transaction to Task--><path d="M1662.68,591.699 C1767.21,595.423 2017.64,604.345 2148.94,609.023 " fill="none" id="Transaction-Task" style="stroke: #A80036; stroke-width: 1.0;"/><text fill="#000000" font-family="sans-serif" font-size="13" lengthAdjust="spacingAndGlyphs" textLength="55" x="1912.5" y="594.4951">relative to</text><polygon fill="#000000" points="1970.5,587.6758,1976.5,590.6758,1970.5,593.6758,1970.5,587.6758" style="stroke: #000000; stroke-width: 1.0;"/><text fill="#000000" font-family="sans-serif" font-size="13" lengthAdjust="spacingAndGlyphs" textLength="7" x="1670.3439" y="588.2945">1</text><text fill="#000000" font-family="sans-serif" font-size="13" lengthAdjust="spacingAndGlyphs" textLength="7" x="2134.0972" y="622.9731">1</text><!--MD5=[9aa0fa191c99edeef0ce6e9ae1d37765]
link Transaction to TaskExecutionDetails--><path d="M1662.7,603.857 C1714.37,618.863 1797.81,643.1 1860.69,661.366 " fill="none" id="Transaction-TaskExecutionDetails" style="stroke: #A80036; stroke-width: 1.0;"/><text fill="#000000" font-family="sans-serif" font-size="13" lengthAdjust="spacingAndGlyphs" textLength="80" x="1737" y="622.4951">executed with</text><polygon fill="#000000" points="1820,615.6758,1826,618.6758,1820,621.6758,1820,615.6758" style="stroke: #000000; stroke-width: 1.0;"/><text fill="#000000" font-family="sans-serif" font-size="13" lengthAdjust="spacingAndGlyphs" textLength="7" x="1670.3669" y="620.5882">1</text><text fill="#000000" font-family="sans-serif" font-size="13" lengthAdjust="spacingAndGlyphs" textLength="7" x="1846.0149" y="673.4679">1</text><!--MD5=[542f32193441b56ea302115ed1249c3b]
link Transaction to Freelancer--><path d="M1662.55,580.726 C1684.79,576.652 1711.68,572.099 1736,569 C2004.74,534.758 2327.03,514.877 2463.85,507.416 " fill="none" id="Transaction-Freelancer" style="stroke: #A80036; stroke-width: 1.0;"/><text fill="#000000" font-family="sans-serif" font-size="13" lengthAdjust="spacingAndGlyphs" textLength="11" x="2078.5" y="527.4951">to</text><polygon fill="#000000" points="2092.5,520.6758,2098.5,523.6758,2092.5,526.6758,2092.5,520.6758" style="stroke: #000000; stroke-width: 1.0;"/><text fill="#000000" font-family="sans-serif" font-size="13" lengthAdjust="spacingAndGlyphs" textLength="5" x="1670.367" y="575.603">*</text><text fill="#000000" font-family="sans-serif" font-size="13" lengthAdjust="spacingAndGlyphs" textLength="7" x="2449.068" y="522.1961">1</text><!--MD5=[9155e95983ae2a088b11740d001758c9]
link TaskExecutionDetails to Task--><path d="M2032.24,663.998 C2068.99,654.455 2111.92,643.309 2148.58,633.79 " fill="none" id="TaskExecutionDetails-Task" style="stroke: #A80036; stroke-width: 1.0;"/><text fill="#000000" font-family="sans-serif" font-size="13" lengthAdjust="spacingAndGlyphs" textLength="40" x="2064" y="638.4951">refer to</text><polygon fill="#000000" points="2107,631.6758,2113,634.6758,2107,637.6758,2107,631.6758" style="stroke: #000000; stroke-width: 1.0;"/><text fill="#000000" font-family="sans-serif" font-size="13" lengthAdjust="spacingAndGlyphs" textLength="7" x="2039.9091" y="676.3261">1</text><text fill="#000000" font-family="sans-serif" font-size="13" lengthAdjust="spacingAndGlyphs" textLength="7" x="2133.9814" y="649.8526">1</text><!--MD5=[80bfe53c9a81718400b24a13b8f52143]
link HistoricalTransactionFile to Transaction--><path d="M1397.08,490.546 C1427.5,498.783 1461.81,509.407 1492,522 C1523.91,535.311 1558.07,555.066 1581.93,569.857 " fill="none" id="HistoricalTransactionFile-Transaction" style="stroke: #A80036; stroke-width: 1.0;"/><text fill="#000000" font-family="sans-serif" font-size="13" lengthAdjust="spacingAndGlyphs" textLength="43" x="1431.5" y="495.4951">records</text><polygon fill="#000000" points="1477.5,488.6758,1483.5,491.6758,1477.5,494.6758,1477.5,488.6758" style="stroke: #000000; stroke-width: 1.0;"/><text fill="#000000" font-family="sans-serif" font-size="13" lengthAdjust="spacingAndGlyphs" textLength="7" x="1404.9246" y="506.5101">1</text><text fill="#000000" font-family="sans-serif" font-size="13" lengthAdjust="spacingAndGlyphs" textLength="5" x="1566.7751" y="559.1367">*</text><!--MD5=[f8679721e8e5159e33912074b64b525d]
link PaymentScheduler to Payment--><path d="M1033.03,615.462 C1104.06,620.191 1213.86,627.5 1272.09,631.377 " fill="none" id="PaymentScheduler-Payment" style="stroke: #A80036; stroke-width: 1.0;"/><text fill="#000000" font-family="sans-serif" font-size="13" lengthAdjust="spacingAndGlyphs" textLength="120" x="1064" y="613.4951">makes automatically</text><polygon fill="#000000" points="1187,606.6758,1193,609.6758,1187,612.6758,1187,606.6758" style="stroke: #000000; stroke-width: 1.0;"/><text fill="#000000" font-family="sans-serif" font-size="13" lengthAdjust="spacingAndGlyphs" textLength="7" x="1040.8536" y="630.3573">1</text><text fill="#000000" font-family="sans-serif" font-size="13" lengthAdjust="spacingAndGlyphs" textLength="5" x="1259.4467" y="645.8612">*</text><!--MD5=[656d67bb8fa389b55c147beff5b13611]
link Organization to Colaborator--><path d="M509.603,579.983 C534.155,545.674 581.386,487.408 637,458 C727.598,410.092 850.033,400.751 916.416,399.516 " fill="none" id="Organization-Colaborator" style="stroke: #A80036; stroke-width: 1.0;"/><text fill="#000000" font-family="sans-serif" font-size="13" lengthAdjust="spacingAndGlyphs" textLength="21" x="668.5" y="418.4951">has</text><polygon fill="#000000" points="692.5,411.6758,698.5,414.6758,692.5,417.6758,692.5,411.6758" style="stroke: #000000; stroke-width: 1.0;"/><text fill="#000000" font-family="sans-serif" font-size="13" lengthAdjust="spacingAndGlyphs" textLength="7" x="506.4062" y="569.0056">1</text><text fill="#000000" font-family="sans-serif" font-size="13" lengthAdjust="spacingAndGlyphs" textLength="23" x="885.3422" y="414.0778">1,...</text><!--MD5=[bc039f41cf0b27fadee5cae63fc6e1fe]
link Organization to Manager--><path d="M541.202,583.565 C570.688,569.663 607.865,552.134 636.962,538.414 " fill="none" id="Organization-Manager" style="stroke: #A80036; stroke-width: 1.0;"/><text fill="#000000" font-family="sans-serif" font-size="13" lengthAdjust="spacingAndGlyphs" textLength="21" x="572" y="549.4951">has</text><polygon fill="#000000" points="596,542.6758,602,545.6758,596,548.6758,596,542.6758" style="stroke: #000000; stroke-width: 1.0;"/><text fill="#000000" font-family="sans-serif" font-size="13" lengthAdjust="spacingAndGlyphs" textLength="7" x="549.1629" y="594.831">1</text><text fill="#000000" font-family="sans-serif" font-size="13" lengthAdjust="spacingAndGlyphs" textLength="7" x="621.9937" y="556.6309">1</text><!--MD5=[5f4f57afaa4ed75c0a27618a4620afc1]
link Organization to PaymentScheduler--><path d="M541.173,607.421 C626.471,608.143 800.858,609.619 896.882,610.432 " fill="none" id="Organization-PaymentScheduler" style="stroke: #A80036; stroke-width: 1.0;"/><text fill="#000000" font-family="sans-serif" font-size="13" lengthAdjust="spacingAndGlyphs" textLength="28" x="665" y="604.4951">uses</text><polygon fill="#000000" points="696,597.6758,702,600.6758,696,603.6758,696,597.6758" style="stroke: #000000; stroke-width: 1.0;"/><text fill="#000000" font-family="sans-serif" font-size="13" lengthAdjust="spacingAndGlyphs" textLength="7" x="549.1297" y="613.0158">1</text><text fill="#000000" font-family="sans-serif" font-size="13" lengthAdjust="spacingAndGlyphs" textLength="7" x="882.0488" y="624.7772">1</text><!--MD5=[d7637ac3eb48d4f2830e10106a654da0]
link Organization to Payment--><path d="M541.213,616.109 C617.447,629.569 767.962,654.132 897,663 C957.302,667.144 972.637,666.134 1033,663 C1118.68,658.551 1218.6,646.452 1272.4,639.366 " fill="none" id="Organization-Payment" style="stroke: #A80036; stroke-width: 1.0;"/><text fill="#000000" font-family="sans-serif" font-size="13" lengthAdjust="spacingAndGlyphs" textLength="88" x="765" y="646.4951">responsable by</text><polygon fill="#000000" points="856,639.6758,862,642.6758,856,645.6758,856,639.6758" style="stroke: #000000; stroke-width: 1.0;"/><text fill="#000000" font-family="sans-serif" font-size="13" lengthAdjust="spacingAndGlyphs" textLength="7" x="548.8367" y="632.0463">1</text><text fill="#000000" font-family="sans-serif" font-size="13" lengthAdjust="spacingAndGlyphs" textLength="5" x="1259.5456" y="655.3579">*</text><!--MD5=[8853e9d83a8841c20c4ef075af762602]
link Task to Freelancer--><path d="M2318.25,587.532 C2354.22,576.408 2396.51,562.501 2434,548 C2443.79,544.213 2454,539.932 2463.97,535.563 " fill="none" id="Task-Freelancer" style="stroke: #A80036; stroke-width: 1.0;"/><text fill="#000000" font-family="sans-serif" font-size="13" lengthAdjust="spacingAndGlyphs" textLength="71" x="2349" y="544.4951">executed by</text><polygon fill="#000000" points="2423,537.6758,2429,540.6758,2423,543.6758,2423,537.6758" style="stroke: #000000; stroke-width: 1.0;"/><text fill="#000000" font-family="sans-serif" font-size="13" lengthAdjust="spacingAndGlyphs" textLength="5" x="2326.0207" y="599.5681">*</text><text fill="#000000" font-family="sans-serif" font-size="13" lengthAdjust="spacingAndGlyphs" textLength="7" x="2449.2011" y="553.4216">1</text><!--MD5=[939acada67c666032ddf52a0068bc128]
link App to MonetaryUnitConversionAPI--><path d="M36.7813,792.047 C48.0388,853.163 90.9792,1033 206.5,1033 C206.5,1033 206.5,1033 1313.5,1033 C1411.32,1033 1519.21,986.786 1574.96,959.165 " fill="none" id="App-MonetaryUnitConversionAPI" style="stroke: #A80036; stroke-width: 1.0;"/><text fill="#000000" font-family="sans-serif" font-size="13" lengthAdjust="spacingAndGlyphs" textLength="50" x="654" y="1029.4951">supports</text><polygon fill="#000000" points="707,1022.6758,713,1025.6758,707,1028.6758,707,1022.6758" style="stroke: #000000; stroke-width: 1.0;"/><text fill="#000000" font-family="sans-serif" font-size="13" lengthAdjust="spacingAndGlyphs" textLength="7" x="30.001" y="813.4798">1</text><text fill="#000000" font-family="sans-serif" font-size="13" lengthAdjust="spacingAndGlyphs" textLength="7" x="1555.9956" y="980.631">1</text><!--MD5=[1370966fb1e3885ea6828d35f10d9d48]
link App to Organization--><path d="M59.3231,762.656 C132.613,736.137 342.854,660.063 439.638,625.042 " fill="none" id="App-Organization" style="stroke: #A80036; stroke-width: 1.0;"/><text fill="#000000" font-family="sans-serif" font-size="13" lengthAdjust="spacingAndGlyphs" textLength="21" x="190.5" y="688.4951">has</text><polygon fill="#000000" points="214.5,681.6758,220.5,684.6758,214.5,687.6758,214.5,681.6758" style="stroke: #000000; stroke-width: 1.0;"/><text fill="#000000" font-family="sans-serif" font-size="13" lengthAdjust="spacingAndGlyphs" textLength="7" x="67.0934" y="755.7518">1</text><text fill="#000000" font-family="sans-serif" font-size="13" lengthAdjust="spacingAndGlyphs" textLength="5" x="427.134" y="642.2355">*</text><!--MD5=[1cb21011969cc62c73f846209be643c8]
link App to EmailAPI--><path d="M33.7403,751.659 C35.685,632.097 53.1079,26 206.5,26 C206.5,26 206.5,26 1313.5,26 C1409.52,26 1516.37,67.34 1572.87,92.7 " fill="none" id="App-EmailAPI" style="stroke: #A80036; stroke-width: 1.0;"/><text fill="#000000" font-family="sans-serif" font-size="13" lengthAdjust="spacingAndGlyphs" textLength="50" x="654" y="22.4951">supports</text><polygon fill="#000000" points="707,15.6758,713,18.6758,707,21.6758,707,15.6758" style="stroke: #000000; stroke-width: 1.0;"/><text fill="#000000" font-family="sans-serif" font-size="13" lengthAdjust="spacingAndGlyphs" textLength="7" x="26.1048" y="741.2326">1</text><text fill="#000000" font-family="sans-serif" font-size="13" lengthAdjust="spacingAndGlyphs" textLength="7" x="1557.9203" y="104.2136">1</text><!--MD5=[c476b523f9294f20b13319074aa597a2]
link App to PaymentAPI--><path d="M38.9109,792.067 C46.4854,816.862 62.3928,859.064 89,886 C130.066,927.573 148.064,945 206.5,945 C206.5,945 206.5,945 1313.5,945 C1397.48,945 1426.61,935.695 1492,883 C1553.01,833.836 1591.16,745.084 1605.97,705.279 " fill="none" id="App-PaymentAPI" style="stroke: #A80036; stroke-width: 1.0;"/><text fill="#000000" font-family="sans-serif" font-size="13" lengthAdjust="spacingAndGlyphs" textLength="50" x="654" y="941.4951">supports</text><polygon fill="#000000" points="707,934.6758,713,937.6758,707,940.6758,707,934.6758" style="stroke: #000000; stroke-width: 1.0;"/><text fill="#000000" font-family="sans-serif" font-size="13" lengthAdjust="spacingAndGlyphs" textLength="7" x="41.6983" y="813.5054">1</text><text fill="#000000" font-family="sans-serif" font-size="13" lengthAdjust="spacingAndGlyphs" textLength="7" x="1595.8713" y="726.4213">1</text><!--MD5=[0c31ff43dd418db704d40fd811a34a31]
link App to Transaction--><path d="M59.009,776.814 C156.601,794.795 515.804,857 814.5,857 C814.5,857 814.5,857 1313.5,857 C1394.43,857 1435.56,879.003 1492,821 C1546.42,765.072 1478.74,712.951 1522,648 C1532.7,631.939 1549.52,619.413 1565.8,610.177 " fill="none" id="App-Transaction" style="stroke: #A80036; stroke-width: 1.0;"/><text fill="#000000" font-family="sans-serif" font-size="13" lengthAdjust="spacingAndGlyphs" textLength="50" x="654" y="847.4951">registers</text><polygon fill="#000000" points="707,840.6758,713,843.6758,707,846.6758,707,840.6758" style="stroke: #000000; stroke-width: 1.0;"/><text fill="#000000" font-family="sans-serif" font-size="13" lengthAdjust="spacingAndGlyphs" textLength="7" x="67.0739" y="793.8001">1</text><text fill="#000000" font-family="sans-serif" font-size="13" lengthAdjust="spacingAndGlyphs" textLength="5" x="1552.4028" y="628.368">*</text><!--MD5=[66e1bf42337190a3177776b035b1a873]
link App to Administrator--><path d="M41.32,751.772 C50.2921,730.612 66.6928,697.417 89,675 C107.703,656.205 132.659,640.797 154.761,629.428 " fill="none" id="App-Administrator" style="stroke: #A80036; stroke-width: 1.0;"/><polygon fill="#000000" points="96,640,99,634,102,640,96,640" style="stroke: #000000; stroke-width: 1.0;"/><text fill="#000000" font-family="sans-serif" font-size="13" lengthAdjust="spacingAndGlyphs" textLength="21" x="90" y="656.4951">has</text><text fill="#000000" font-family="sans-serif" font-size="13" lengthAdjust="spacingAndGlyphs" textLength="7" x="35.8828" y="741.0268">1</text><text fill="#000000" font-family="sans-serif" font-size="13" lengthAdjust="spacingAndGlyphs" textLength="5" x="141.993" y="647.2614">*</text><!--MD5=[d88947b97cc296deaa09f9756953ae3a]
link App to Freelancer--><path d="M34.0263,792.017 C37.1324,866.175 58.5683,1121 206.5,1121 C206.5,1121 206.5,1121 2234.5,1121 C2472.11,1121 2519.12,744.413 2528.32,579.656 " fill="none" id="App-Freelancer" style="stroke: #A80036; stroke-width: 1.0;"/><text fill="#000000" font-family="sans-serif" font-size="13" lengthAdjust="spacingAndGlyphs" textLength="21" x="1113.5" y="1117.4951">has</text><polygon fill="#000000" points="1137.5,1110.6758,1143.5,1113.6758,1137.5,1116.6758,1137.5,1110.6758" style="stroke: #000000; stroke-width: 1.0;"/><text fill="#000000" font-family="sans-serif" font-size="13" lengthAdjust="spacingAndGlyphs" textLength="7" x="26.4712" y="813.4413">1</text><text fill="#000000" font-family="sans-serif" font-size="13" lengthAdjust="spacingAndGlyphs" textLength="5" x="2522.8141" y="600.6313">*</text><!--MD5=[e77f677497f0db25ffeeb4459769db8d]
link App to Task--><path d="M49.7089,751.866 C59.7368,741.071 73.6118,728.821 89,723 C160.084,696.111 184.009,721.861 260,723 C653.764,728.903 1656.35,863.214 2032,745 C2082.8,729.013 2132.73,695.96 2170.06,666.805 " fill="none" id="App-Task" style="stroke: #A80036; stroke-width: 1.0;"/><text fill="#000000" font-family="sans-serif" font-size="13" lengthAdjust="spacingAndGlyphs" textLength="21" x="948" y="760.4951">has</text><polygon fill="#000000" points="972,753.6758,978,756.6758,972,759.6758,972,753.6758" style="stroke: #000000; stroke-width: 1.0;"/><text fill="#000000" font-family="sans-serif" font-size="13" lengthAdjust="spacingAndGlyphs" textLength="7" x="46.7359" y="741.1484">1</text><text fill="#000000" font-family="sans-serif" font-size="13" lengthAdjust="spacingAndGlyphs" textLength="5" x="2156.6114" y="688.358">*</text><!--MD5=[63a18bfb0c55f564ea81086f541b4ad2]
link App to EmailScheduler--><path d="M40.4934,751.83 C50.6742,722.74 70.3959,667.404 89,621 C172.327,413.157 137.579,323.043 290,159 C293.781,154.931 298.218,151.298 302.932,148.081 " fill="none" id="App-EmailScheduler" style="stroke: #A80036; stroke-width: 1.0;"/><polygon fill="#000000" points="96,516,99,510,102,516,96,516" style="stroke: #000000; stroke-width: 1.0;"/><text fill="#000000" font-family="sans-serif" font-size="13" lengthAdjust="spacingAndGlyphs" textLength="21" x="90" y="532.4951">has</text><text fill="#000000" font-family="sans-serif" font-size="13" lengthAdjust="spacingAndGlyphs" textLength="7" x="34.8133" y="741.1018">1</text><text fill="#000000" font-family="sans-serif" font-size="13" lengthAdjust="spacingAndGlyphs" textLength="7" x="281.7098" y="169.5233">1</text><!--MD5=[62b22ab9dd7e0fc0219b5bb8924f5993]
link EmailScheduler to EmailAPI--><path d="M410.356,122.547 C458.259,118.62 527.41,114 588,114 C588,114 588,114 1313.5,114 C1406.32,114 1515.31,113.03 1572.79,112.44 " fill="none" id="EmailScheduler-EmailAPI" style="stroke: #A80036; stroke-width: 1.0;"/><text fill="#000000" font-family="sans-serif" font-size="13" lengthAdjust="spacingAndGlyphs" textLength="28" x="795" y="110.4951">uses</text><polygon fill="#000000" points="826,103.6758,832,106.6758,826,109.6758,826,103.6758" style="stroke: #000000; stroke-width: 1.0;"/><text fill="#000000" font-family="sans-serif" font-size="13" lengthAdjust="spacingAndGlyphs" textLength="7" x="418.1385" y="136.374">1</text><text fill="#000000" font-family="sans-serif" font-size="13" lengthAdjust="spacingAndGlyphs" textLength="7" x="1558.1055" y="127.416">1</text><!--MD5=[2a41c1af413c0662bf55a6b8913ea24f]
link Administrator to Organization--><path d="M260.04,607 C311.217,607 389.144,607 439.703,607 " fill="none" id="Administrator-Organization" style="stroke: #A80036; stroke-width: 1.0;"/><text fill="#000000" font-family="sans-serif" font-size="13" lengthAdjust="spacingAndGlyphs" textLength="28" x="329.5" y="603.4951">adds</text><polygon fill="#000000" points="360.5,596.6758,366.5,599.6758,360.5,602.6758,360.5,596.6758" style="stroke: #000000; stroke-width: 1.0;"/><text fill="#000000" font-family="sans-serif" font-size="13" lengthAdjust="spacingAndGlyphs" textLength="7" x="267.9206" y="621.6794">1</text><text fill="#000000" font-family="sans-serif" font-size="13" lengthAdjust="spacingAndGlyphs" textLength="5" x="426.875" y="621.708">*</text><!--MD5=[edc107c0a572352bcd12c9afaba4390b]
link Administrator to User--><path d="M225.762,565.769 C271.517,459.582 398.619,185 489.5,185 C489.5,185 489.5,185 1615,185 C1715.96,185 1833.82,196.279 1897.96,203.373 " fill="none" id="Administrator-User" style="stroke: #A80036; stroke-width: 1.0;"/><text fill="#000000" font-family="sans-serif" font-size="13" lengthAdjust="spacingAndGlyphs" textLength="43" x="937" y="181.4951">acts as</text><polygon fill="#000000" points="983,174.6758,989,177.6758,983,180.6758,983,174.6758" style="stroke: #000000; stroke-width: 1.0;"/><text fill="#000000" font-family="sans-serif" font-size="13" lengthAdjust="spacingAndGlyphs" textLength="18" x="209.296" y="555.1801">0,1</text><text fill="#000000" font-family="sans-serif" font-size="13" lengthAdjust="spacingAndGlyphs" textLength="7" x="1882.9914" y="198.8461">1</text><!--MD5=[d633b45690d51141bd211d849cad7ced]
link EmailAPI to User--><path d="M1655.19,120.6 C1698.85,130.281 1770.48,147.138 1831,166 C1853.2,172.918 1877.36,181.785 1897.73,189.668 " fill="none" id="EmailAPI-User" style="stroke: #A80036; stroke-width: 1.0;"/><text fill="#000000" font-family="sans-serif" font-size="13" lengthAdjust="spacingAndGlyphs" textLength="42" x="1756" y="135.4951">e-mails</text><polygon fill="#000000" points="1801,128.6758,1807,131.6758,1801,134.6758,1801,128.6758" style="stroke: #000000; stroke-width: 1.0;"/><text fill="#000000" font-family="sans-serif" font-size="13" lengthAdjust="spacingAndGlyphs" textLength="7" x="1662.8711" y="136.9785">1</text><text fill="#000000" font-family="sans-serif" font-size="13" lengthAdjust="spacingAndGlyphs" textLength="5" x="1884.8793" y="183.0425">*</text><!--MD5=[cbdd6193c065fcdcc21acc530d8838bb]
link EmailAPI to Freelancer--><path d="M1655.31,108.55 C1786.17,99.68 2203.83,89.95 2434,301 C2470.96,334.889 2495.13,385.904 2510.04,428.313 " fill="none" id="EmailAPI-Freelancer" style="stroke: #A80036; stroke-width: 1.0;"/><text fill="#000000" font-family="sans-serif" font-size="13" lengthAdjust="spacingAndGlyphs" textLength="42" x="2063" y="129.4951">e-mails</text><polygon fill="#000000" points="2108,122.6758,2114,125.6758,2108,128.6758,2108,122.6758" style="stroke: #000000; stroke-width: 1.0;"/><text fill="#000000" font-family="sans-serif" font-size="13" lengthAdjust="spacingAndGlyphs" textLength="7" x="1663.0117" y="104.1074">1</text><text fill="#000000" font-family="sans-serif" font-size="13" lengthAdjust="spacingAndGlyphs" textLength="5" x="2502.6814" y="417.6029">*</text><!--MD5=[edf86272048488066b08626d59a6b93c]
@startuml MD

skinparam classAttributeIconSize 0
hide methods
left to right direction

class Colaborator {
        - String nome
        - String email
        - String password
}

class Manager {
        - String nome
        - String email
        - String password
}

class Transaction {

}

class TaskExecutionDetails {
        - Date endDate
        - Integer delayInDays
        - String DescriptionQualityOfWork
}

class HistoricalTransactionFile {

}

class PaymentScheduler {
        - Integer dayMonth
        - LocalTime timeOfDay
}

class Organization {
        - String nome
}

class Task {
        - String id
        - String description
        - Integer durationInHours
        - Double costPerHourOfJuniorEur
        - String category
}

class App {

}

class Administrator {
        - String nome
        - String email
        - String password
}

class EmailScheduler {

}

class User {
        - String nome
        - String email
        - String password
}

class Freelancer {
        - String id
        - String name
        - String levelOfExpertise
        - String email
        - String NIF
        - String bankAccountIBAN
        - String address
        - String country
}

Colaborator                  "1" - - "*"      Payment                   : creates >
Colaborator                  "1" - - "*"      Task                      : creates >
Colaborator                  "1" - - "*"      Freelancer                : creates >
Colaborator                  "1" - - "*"      HistoricalTransactionFile : loads >
Colaborator                "0,1" - - "1"      User                      : acts as >
Manager                      "1" - - "0,1"    PaymentScheduler          : defines >
Manager                    "0,1" - - "1"      User                      : acts as >
Payment                      "*" - - "1,..."  Transaction               : registers >
Payment                      "*" - - "1"      EmailAPI                  : uses >
Payment                      "*" - - "1"      PaymentAPI                : uses >
Payment                      "*" - - "1"      MonetaryUnitConversionAPI : uses >
Transaction                  "1" - - "1"      Task                      : relative to >
Transaction                  "1" - - "1"      TaskExecutionDetails      : executed with >
Transaction                  "*" - - "1"      Freelancer                : to >
TaskExecutionDetails         "1" - - "1"      Task                      : refer to >
HistoricalTransactionFile    "1" - - "*"      Transaction               : records >
PaymentScheduler             "1" - - "*"      Payment                   : makes automatically >
Organization                 "1" - - "1,..."  Colaborator               : has >
Organization                 "1" - - "1"      Manager                   : has >
Organization                 "1" - - "1"      PaymentScheduler          : uses >
Organization                 "1" - - "*"      Payment                   : responsable by >
Task                         "*" - - "1"      Freelancer                : executed by >
App                          "1" - - "1"      MonetaryUnitConversionAPI : supports >
App                          "1" - - "*"      Organization              : has >
App                          "1" - - "1"      EmailAPI                  : supports >
App                          "1" - - "1"      PaymentAPI                : supports >
App                          "1" - - "*"      Transaction               : registers >
App                          "1" - - "*"      Administrator             : has >
App                          "1" - - "*"      Freelancer                : has >
App                          "1" - - "*"      Task                      : has >
App                          "1" - - "1"      EmailScheduler            : has >
EmailScheduler               "1" - - "1"      EmailAPI                  : uses >
Administrator                "1" - - "*"      Organization              : adds >
Administrator              "0,1" - - "1"      User                      : acts as >
EmailAPI                     "1" - - "*"      User                      : e-mails >
EmailAPI                     "1" - - "*"      Freelancer                : e-mails >

@enduml

PlantUML version 1.2020.10(Sun May 17 10:35:57 WEST 2020)
(GPL source distribution)
Java Runtime: OpenJDK Runtime Environment
JVM: OpenJDK 64-Bit Server VM
Java Version: 14+36
Operating System: Windows 10
Default Encoding: Cp1252
Language: en
Country: US
--></g></svg>