<?xml version="1.0" encoding="UTF-8" standalone="no"?><svg xmlns="http://www.w3.org/2000/svg" xmlns:xlink="http://www.w3.org/1999/xlink" contentScriptType="application/ecmascript" contentStyleType="text/css" height="1140px" preserveAspectRatio="none" style="width:1622px;height:1140px;" version="1.1" viewBox="0 0 1622 1140" width="1622px" zoomAndPan="magnify"><defs><filter height="300%" id="f1vk6i3v1vktwu" width="300%" x="-1" y="-1"><feGaussianBlur result="blurOut" stdDeviation="2.0"/><feColorMatrix in="blurOut" result="blurOut2" type="matrix" values="0 0 0 0 0 0 0 0 0 0 0 0 0 0 0 0 0 0 .4 0"/><feOffset dx="4.0" dy="4.0" in="blurOut2" result="blurOut3"/><feBlend in="SourceGraphic" in2="blurOut3" mode="normal"/></filter></defs><g><!--MD5=[335f4d9be48430461c68bf6d6fdba145]
class App--><rect fill="#FEFECE" filter="url(#f1vk6i3v1vktwu)" height="40" id="App" style="stroke: #A80036; stroke-width: 1.5;" width="53" x="39" y="853.759"/><ellipse cx="54" cy="869.759" fill="#ADD1B2" rx="11" ry="11" style="stroke: #A80036; stroke-width: 1.0;"/><path d="M56.7656,865.634 Q56.9219,865.4153 57.1094,865.3059 Q57.2969,865.1965 57.5156,865.1965 Q57.8906,865.1965 58.125,865.4621 Q58.3594,865.7121 58.3594,866.3215 L58.3594,867.7746 Q58.3594,868.384 58.125,868.6496 Q57.8906,868.9153 57.5156,868.9153 Q57.1719,868.9153 56.9688,868.7121 Q56.7656,868.5246 56.6563,868.009 Q56.6094,867.6496 56.4219,867.4621 Q56.0938,867.0871 55.4844,866.8684 Q54.875,866.6496 54.25,866.6496 Q53.4844,866.6496 52.8438,866.9778 Q52.2188,867.3059 51.7188,868.0559 Q51.2344,868.8059 51.2344,869.8371 L51.2344,870.9309 Q51.2344,872.1653 52.125,872.9934 Q53.0156,873.8059 54.6094,873.8059 Q55.5469,873.8059 56.2031,873.5559 Q56.5938,873.3996 57.0156,872.9621 Q57.2813,872.6965 57.4219,872.6184 Q57.5781,872.5403 57.7813,872.5403 Q58.1094,872.5403 58.3594,872.8059 Q58.625,873.0559 58.625,873.3996 Q58.625,873.7434 58.2813,874.1496 Q57.7813,874.7278 56.9844,875.0559 Q55.9063,875.509 54.6094,875.509 Q53.0938,875.509 51.8906,874.884 Q50.9063,874.384 50.2188,873.3215 Q49.5313,872.2434 49.5313,870.9621 L49.5313,869.8059 Q49.5313,868.4778 50.1406,867.3371 Q50.7656,866.1809 51.8594,865.5715 Q52.9531,864.9465 54.1875,864.9465 Q54.9219,864.9465 55.5625,865.1184 Q56.2188,865.2746 56.7656,865.634 Z "/><text fill="#000000" font-family="sans-serif" font-size="12" lengthAdjust="spacingAndGlyphs" textLength="21" x="68" y="874.6692">App</text><line style="stroke: #A80036; stroke-width: 1.5;" x1="40" x2="91" y1="885.759" y2="885.759"/><!--MD5=[86c7c362de55a38b660185a1328fe18d]
class Organization--><rect fill="#FEFECE" filter="url(#f1vk6i3v1vktwu)" height="53.8359" id="Organization" style="stroke: #A80036; stroke-width: 1.5;" width="101" x="614" y="596.759"/><ellipse cx="629" cy="612.759" fill="#ADD1B2" rx="11" ry="11" style="stroke: #A80036; stroke-width: 1.0;"/><path d="M631.7656,608.634 Q631.9219,608.4153 632.1094,608.3059 Q632.2969,608.1965 632.5156,608.1965 Q632.8906,608.1965 633.125,608.4621 Q633.3594,608.7121 633.3594,609.3215 L633.3594,610.7746 Q633.3594,611.384 633.125,611.6496 Q632.8906,611.9153 632.5156,611.9153 Q632.1719,611.9153 631.9688,611.7121 Q631.7656,611.5246 631.6563,611.009 Q631.6094,610.6496 631.4219,610.4621 Q631.0938,610.0871 630.4844,609.8684 Q629.875,609.6496 629.25,609.6496 Q628.4844,609.6496 627.8438,609.9778 Q627.2188,610.3059 626.7188,611.0559 Q626.2344,611.8059 626.2344,612.8371 L626.2344,613.9309 Q626.2344,615.1653 627.125,615.9934 Q628.0156,616.8059 629.6094,616.8059 Q630.5469,616.8059 631.2031,616.5559 Q631.5938,616.3996 632.0156,615.9621 Q632.2813,615.6965 632.4219,615.6184 Q632.5781,615.5403 632.7813,615.5403 Q633.1094,615.5403 633.3594,615.8059 Q633.625,616.0559 633.625,616.3996 Q633.625,616.7434 633.2813,617.1496 Q632.7813,617.7278 631.9844,618.0559 Q630.9063,618.509 629.6094,618.509 Q628.0938,618.509 626.8906,617.884 Q625.9063,617.384 625.2188,616.3215 Q624.5313,615.2434 624.5313,613.9621 L624.5313,612.8059 Q624.5313,611.4778 625.1406,610.3371 Q625.7656,609.1809 626.8594,608.5715 Q627.9531,607.9465 629.1875,607.9465 Q629.9219,607.9465 630.5625,608.1184 Q631.2188,608.2746 631.7656,608.634 Z "/><text fill="#000000" font-family="sans-serif" font-size="12" lengthAdjust="spacingAndGlyphs" textLength="69" x="643" y="617.6692">Organization</text><line style="stroke: #A80036; stroke-width: 1.5;" x1="615" x2="714" y1="628.759" y2="628.759"/><text fill="#000000" font-family="sans-serif" font-size="11" lengthAdjust="spacingAndGlyphs" textLength="61" x="620" y="644.1779">-String nome</text><!--MD5=[4555bb1b0911a5adf28ce6dbe60fed2e]
class Transaction--><rect fill="#FEFECE" filter="url(#f1vk6i3v1vktwu)" height="40" id="Transaction" style="stroke: #A80036; stroke-width: 1.5;" width="97" x="293.5" y="360.759"/><ellipse cx="308.5" cy="376.759" fill="#ADD1B2" rx="11" ry="11" style="stroke: #A80036; stroke-width: 1.0;"/><path d="M311.2656,372.634 Q311.4219,372.4153 311.6094,372.3059 Q311.7969,372.1965 312.0156,372.1965 Q312.3906,372.1965 312.625,372.4621 Q312.8594,372.7121 312.8594,373.3215 L312.8594,374.7746 Q312.8594,375.384 312.625,375.6496 Q312.3906,375.9153 312.0156,375.9153 Q311.6719,375.9153 311.4688,375.7121 Q311.2656,375.5246 311.1563,375.009 Q311.1094,374.6496 310.9219,374.4621 Q310.5938,374.0871 309.9844,373.8684 Q309.375,373.6496 308.75,373.6496 Q307.9844,373.6496 307.3438,373.9778 Q306.7188,374.3059 306.2188,375.0559 Q305.7344,375.8059 305.7344,376.8371 L305.7344,377.9309 Q305.7344,379.1653 306.625,379.9934 Q307.5156,380.8059 309.1094,380.8059 Q310.0469,380.8059 310.7031,380.5559 Q311.0938,380.3996 311.5156,379.9621 Q311.7813,379.6965 311.9219,379.6184 Q312.0781,379.5403 312.2813,379.5403 Q312.6094,379.5403 312.8594,379.8059 Q313.125,380.0559 313.125,380.3996 Q313.125,380.7434 312.7813,381.1496 Q312.2813,381.7278 311.4844,382.0559 Q310.4063,382.509 309.1094,382.509 Q307.5938,382.509 306.3906,381.884 Q305.4063,381.384 304.7188,380.3215 Q304.0313,379.2434 304.0313,377.9621 L304.0313,376.8059 Q304.0313,375.4778 304.6406,374.3371 Q305.2656,373.1809 306.3594,372.5715 Q307.4531,371.9465 308.6875,371.9465 Q309.4219,371.9465 310.0625,372.1184 Q310.7188,372.2746 311.2656,372.634 Z "/><text fill="#000000" font-family="sans-serif" font-size="12" lengthAdjust="spacingAndGlyphs" textLength="65" x="322.5" y="381.6692">Transaction</text><line style="stroke: #A80036; stroke-width: 1.5;" x1="294.5" x2="389.5" y1="392.759" y2="392.759"/><!--MD5=[b34797a66dc35cbf1d65f7e3ca75530e]
class Task--><rect fill="#FEFECE" filter="url(#f1vk6i3v1vktwu)" height="109.1797" id="Task" style="stroke: #A80036; stroke-width: 1.5;" width="169" x="1161" y="238.259"/><ellipse cx="1227.75" cy="254.259" fill="#ADD1B2" rx="11" ry="11" style="stroke: #A80036; stroke-width: 1.0;"/><path d="M1230.5156,250.134 Q1230.6719,249.9153 1230.8594,249.8059 Q1231.0469,249.6965 1231.2656,249.6965 Q1231.6406,249.6965 1231.875,249.9621 Q1232.1094,250.2121 1232.1094,250.8215 L1232.1094,252.2746 Q1232.1094,252.884 1231.875,253.1496 Q1231.6406,253.4153 1231.2656,253.4153 Q1230.9219,253.4153 1230.7188,253.2121 Q1230.5156,253.0246 1230.4063,252.509 Q1230.3594,252.1496 1230.1719,251.9621 Q1229.8438,251.5871 1229.2344,251.3684 Q1228.625,251.1496 1228,251.1496 Q1227.2344,251.1496 1226.5938,251.4778 Q1225.9688,251.8059 1225.4688,252.5559 Q1224.9844,253.3059 1224.9844,254.3371 L1224.9844,255.4309 Q1224.9844,256.6653 1225.875,257.4934 Q1226.7656,258.3059 1228.3594,258.3059 Q1229.2969,258.3059 1229.9531,258.0559 Q1230.3438,257.8996 1230.7656,257.4621 Q1231.0313,257.1965 1231.1719,257.1184 Q1231.3281,257.0403 1231.5313,257.0403 Q1231.8594,257.0403 1232.1094,257.3059 Q1232.375,257.5559 1232.375,257.8996 Q1232.375,258.2434 1232.0313,258.6496 Q1231.5313,259.2278 1230.7344,259.5559 Q1229.6563,260.009 1228.3594,260.009 Q1226.8438,260.009 1225.6406,259.384 Q1224.6563,258.884 1223.9688,257.8215 Q1223.2813,256.7434 1223.2813,255.4621 L1223.2813,254.3059 Q1223.2813,252.9778 1223.8906,251.8371 Q1224.5156,250.6809 1225.6094,250.0715 Q1226.7031,249.4465 1227.9375,249.4465 Q1228.6719,249.4465 1229.3125,249.6184 Q1229.9688,249.7746 1230.5156,250.134 Z "/><text fill="#000000" font-family="sans-serif" font-size="12" lengthAdjust="spacingAndGlyphs" textLength="27" x="1248.25" y="259.1692">Task</text><line style="stroke: #A80036; stroke-width: 1.5;" x1="1162" x2="1329" y1="270.259" y2="270.259"/><text fill="#000000" font-family="sans-serif" font-size="11" lengthAdjust="spacingAndGlyphs" textLength="43" x="1167" y="285.6779">-String id</text><text fill="#000000" font-family="sans-serif" font-size="11" lengthAdjust="spacingAndGlyphs" textLength="88" x="1167" y="299.5139">-String description</text><text fill="#000000" font-family="sans-serif" font-size="11" lengthAdjust="spacingAndGlyphs" textLength="116" x="1167" y="313.3498">-Integer durationInHours</text><text fill="#000000" font-family="sans-serif" font-size="11" lengthAdjust="spacingAndGlyphs" textLength="157" x="1167" y="327.1858">-Double costPerHourOfJuniorEur</text><text fill="#000000" font-family="sans-serif" font-size="11" lengthAdjust="spacingAndGlyphs" textLength="78" x="1167" y="341.0217">-String category</text><!--MD5=[c0dc12954b7564a58826a1327fba5c89]
class PaymentDetails--><rect fill="#FEFECE" filter="url(#f1vk6i3v1vktwu)" height="53.8359" id="PaymentDetails" style="stroke: #A80036; stroke-width: 1.5;" width="119" x="6" y="490.759"/><ellipse cx="21" cy="506.759" fill="#ADD1B2" rx="11" ry="11" style="stroke: #A80036; stroke-width: 1.0;"/><path d="M23.7656,502.634 Q23.9219,502.4153 24.1094,502.3059 Q24.2969,502.1965 24.5156,502.1965 Q24.8906,502.1965 25.125,502.4621 Q25.3594,502.7121 25.3594,503.3215 L25.3594,504.7746 Q25.3594,505.384 25.125,505.6496 Q24.8906,505.9153 24.5156,505.9153 Q24.1719,505.9153 23.9688,505.7121 Q23.7656,505.5246 23.6563,505.009 Q23.6094,504.6496 23.4219,504.4621 Q23.0938,504.0871 22.4844,503.8684 Q21.875,503.6496 21.25,503.6496 Q20.4844,503.6496 19.8438,503.9778 Q19.2188,504.3059 18.7188,505.0559 Q18.2344,505.8059 18.2344,506.8371 L18.2344,507.9309 Q18.2344,509.1653 19.125,509.9934 Q20.0156,510.8059 21.6094,510.8059 Q22.5469,510.8059 23.2031,510.5559 Q23.5938,510.3996 24.0156,509.9621 Q24.2813,509.6965 24.4219,509.6184 Q24.5781,509.5403 24.7813,509.5403 Q25.1094,509.5403 25.3594,509.8059 Q25.625,510.0559 25.625,510.3996 Q25.625,510.7434 25.2813,511.1496 Q24.7813,511.7278 23.9844,512.0559 Q22.9063,512.509 21.6094,512.509 Q20.0938,512.509 18.8906,511.884 Q17.9063,511.384 17.2188,510.3215 Q16.5313,509.2434 16.5313,507.9621 L16.5313,506.8059 Q16.5313,505.4778 17.1406,504.3371 Q17.7656,503.1809 18.8594,502.5715 Q19.9531,501.9465 21.1875,501.9465 Q21.9219,501.9465 22.5625,502.1184 Q23.2188,502.2746 23.7656,502.634 Z "/><text fill="#000000" font-family="sans-serif" font-size="12" lengthAdjust="spacingAndGlyphs" textLength="87" x="35" y="511.6692">PaymentDetails</text><line style="stroke: #A80036; stroke-width: 1.5;" x1="7" x2="124" y1="522.759" y2="522.759"/><text fill="#000000" font-family="sans-serif" font-size="11" lengthAdjust="spacingAndGlyphs" textLength="70" x="12" y="538.1779">Boolean isPaid</text><!--MD5=[f9fa7692a1144bec397c3ffa19589ca2]
class TaskExecutionDetails--><rect fill="#FEFECE" filter="url(#f1vk6i3v1vktwu)" height="81.5078" id="TaskExecutionDetails" style="stroke: #A80036; stroke-width: 1.5;" width="171" x="745" y="156.759"/><ellipse cx="769" cy="172.759" fill="#ADD1B2" rx="11" ry="11" style="stroke: #A80036; stroke-width: 1.0;"/><path d="M771.7656,168.634 Q771.9219,168.4153 772.1094,168.3059 Q772.2969,168.1965 772.5156,168.1965 Q772.8906,168.1965 773.125,168.4621 Q773.3594,168.7121 773.3594,169.3215 L773.3594,170.7746 Q773.3594,171.384 773.125,171.6496 Q772.8906,171.9153 772.5156,171.9153 Q772.1719,171.9153 771.9688,171.7121 Q771.7656,171.5246 771.6563,171.009 Q771.6094,170.6496 771.4219,170.4621 Q771.0938,170.0871 770.4844,169.8684 Q769.875,169.6496 769.25,169.6496 Q768.4844,169.6496 767.8438,169.9778 Q767.2188,170.3059 766.7188,171.0559 Q766.2344,171.8059 766.2344,172.8371 L766.2344,173.9309 Q766.2344,175.1653 767.125,175.9934 Q768.0156,176.8059 769.6094,176.8059 Q770.5469,176.8059 771.2031,176.5559 Q771.5938,176.3996 772.0156,175.9621 Q772.2813,175.6965 772.4219,175.6184 Q772.5781,175.5403 772.7813,175.5403 Q773.1094,175.5403 773.3594,175.8059 Q773.625,176.0559 773.625,176.3996 Q773.625,176.7434 773.2813,177.1496 Q772.7813,177.7278 771.9844,178.0559 Q770.9063,178.509 769.6094,178.509 Q768.0938,178.509 766.8906,177.884 Q765.9063,177.384 765.2188,176.3215 Q764.5313,175.2434 764.5313,173.9621 L764.5313,172.8059 Q764.5313,171.4778 765.1406,170.3371 Q765.7656,169.1809 766.8594,168.5715 Q767.9531,167.9465 769.1875,167.9465 Q769.9219,167.9465 770.5625,168.1184 Q771.2188,168.2746 771.7656,168.634 Z "/><text fill="#000000" font-family="sans-serif" font-size="12" lengthAdjust="spacingAndGlyphs" textLength="119" x="785" y="177.6692">TaskExecutionDetails</text><line style="stroke: #A80036; stroke-width: 1.5;" x1="746" x2="915" y1="188.759" y2="188.759"/><text fill="#000000" font-family="sans-serif" font-size="11" lengthAdjust="spacingAndGlyphs" textLength="69" x="751" y="204.1779">-Date endDate</text><text fill="#000000" font-family="sans-serif" font-size="11" lengthAdjust="spacingAndGlyphs" textLength="99" x="751" y="218.0139">-Integer delayInDays</text><text fill="#000000" font-family="sans-serif" font-size="11" lengthAdjust="spacingAndGlyphs" textLength="159" x="751" y="231.8498">-String DescriptionQualityOfWork</text><!--MD5=[65f9b271fae1a3d56975d9ea4f8e38de]
class Colaborator--><rect fill="#FEFECE" filter="url(#f1vk6i3v1vktwu)" height="81.5078" id="Colaborator" style="stroke: #A80036; stroke-width: 1.5;" width="97" x="946" y="413.759"/><ellipse cx="961" cy="429.759" fill="#ADD1B2" rx="11" ry="11" style="stroke: #A80036; stroke-width: 1.0;"/><path d="M963.7656,425.634 Q963.9219,425.4153 964.1094,425.3059 Q964.2969,425.1965 964.5156,425.1965 Q964.8906,425.1965 965.125,425.4621 Q965.3594,425.7121 965.3594,426.3215 L965.3594,427.7746 Q965.3594,428.384 965.125,428.6496 Q964.8906,428.9153 964.5156,428.9153 Q964.1719,428.9153 963.9688,428.7121 Q963.7656,428.5246 963.6563,428.009 Q963.6094,427.6496 963.4219,427.4621 Q963.0938,427.0871 962.4844,426.8684 Q961.875,426.6496 961.25,426.6496 Q960.4844,426.6496 959.8438,426.9778 Q959.2188,427.3059 958.7188,428.0559 Q958.2344,428.8059 958.2344,429.8371 L958.2344,430.9309 Q958.2344,432.1653 959.125,432.9934 Q960.0156,433.8059 961.6094,433.8059 Q962.5469,433.8059 963.2031,433.5559 Q963.5938,433.3996 964.0156,432.9621 Q964.2813,432.6965 964.4219,432.6184 Q964.5781,432.5403 964.7813,432.5403 Q965.1094,432.5403 965.3594,432.8059 Q965.625,433.0559 965.625,433.3996 Q965.625,433.7434 965.2813,434.1496 Q964.7813,434.7278 963.9844,435.0559 Q962.9063,435.509 961.6094,435.509 Q960.0938,435.509 958.8906,434.884 Q957.9063,434.384 957.2188,433.3215 Q956.5313,432.2434 956.5313,430.9621 L956.5313,429.8059 Q956.5313,428.4778 957.1406,427.3371 Q957.7656,426.1809 958.8594,425.5715 Q959.9531,424.9465 961.1875,424.9465 Q961.9219,424.9465 962.5625,425.1184 Q963.2188,425.2746 963.7656,425.634 Z "/><text fill="#000000" font-family="sans-serif" font-size="12" lengthAdjust="spacingAndGlyphs" textLength="65" x="975" y="434.6692">Colaborator</text><line style="stroke: #A80036; stroke-width: 1.5;" x1="947" x2="1042" y1="445.759" y2="445.759"/><text fill="#000000" font-family="sans-serif" font-size="11" lengthAdjust="spacingAndGlyphs" textLength="61" x="952" y="461.1779">-String nome</text><text fill="#000000" font-family="sans-serif" font-size="11" lengthAdjust="spacingAndGlyphs" textLength="59" x="952" y="475.0139">-String email</text><text fill="#000000" font-family="sans-serif" font-size="11" lengthAdjust="spacingAndGlyphs" textLength="85" x="952" y="488.8498">-String password</text><!--MD5=[b24ed8d4ae84bae9290d9aab401637c7]
class Manager--><rect fill="#FEFECE" filter="url(#f1vk6i3v1vktwu)" height="81.5078" id="Manager" style="stroke: #A80036; stroke-width: 1.5;" width="97" x="946" y="689.759"/><ellipse cx="968.65" cy="705.759" fill="#ADD1B2" rx="11" ry="11" style="stroke: #A80036; stroke-width: 1.0;"/><path d="M971.4156,701.634 Q971.5719,701.4153 971.7594,701.3059 Q971.9469,701.1965 972.1656,701.1965 Q972.5406,701.1965 972.775,701.4621 Q973.0094,701.7121 973.0094,702.3215 L973.0094,703.7746 Q973.0094,704.384 972.775,704.6496 Q972.5406,704.9153 972.1656,704.9153 Q971.8219,704.9153 971.6188,704.7121 Q971.4156,704.5246 971.3063,704.009 Q971.2594,703.6496 971.0719,703.4621 Q970.7438,703.0871 970.1344,702.8684 Q969.525,702.6496 968.9,702.6496 Q968.1344,702.6496 967.4938,702.9778 Q966.8688,703.3059 966.3688,704.0559 Q965.8844,704.8059 965.8844,705.8371 L965.8844,706.9309 Q965.8844,708.1653 966.775,708.9934 Q967.6656,709.8059 969.2594,709.8059 Q970.1969,709.8059 970.8531,709.5559 Q971.2438,709.3996 971.6656,708.9621 Q971.9313,708.6965 972.0719,708.6184 Q972.2281,708.5403 972.4313,708.5403 Q972.7594,708.5403 973.0094,708.8059 Q973.275,709.0559 973.275,709.3996 Q973.275,709.7434 972.9313,710.1496 Q972.4313,710.7278 971.6344,711.0559 Q970.5563,711.509 969.2594,711.509 Q967.7438,711.509 966.5406,710.884 Q965.5563,710.384 964.8688,709.3215 Q964.1813,708.2434 964.1813,706.9621 L964.1813,705.8059 Q964.1813,704.4778 964.7906,703.3371 Q965.4156,702.1809 966.5094,701.5715 Q967.6031,700.9465 968.8375,700.9465 Q969.5719,700.9465 970.2125,701.1184 Q970.8688,701.2746 971.4156,701.634 Z "/><text fill="#000000" font-family="sans-serif" font-size="12" lengthAdjust="spacingAndGlyphs" textLength="48" x="984.35" y="710.6692">Manager</text><line style="stroke: #A80036; stroke-width: 1.5;" x1="947" x2="1042" y1="721.759" y2="721.759"/><text fill="#000000" font-family="sans-serif" font-size="11" lengthAdjust="spacingAndGlyphs" textLength="61" x="952" y="737.1779">-String nome</text><text fill="#000000" font-family="sans-serif" font-size="11" lengthAdjust="spacingAndGlyphs" textLength="59" x="952" y="751.0139">-String email</text><text fill="#000000" font-family="sans-serif" font-size="11" lengthAdjust="spacingAndGlyphs" textLength="85" x="952" y="764.8498">-String password</text><!--MD5=[6e5bbc712ea226b699d2ce44e283e8b8]
class HistoricalTransactionFile--><rect fill="#FEFECE" filter="url(#f1vk6i3v1vktwu)" height="40" id="HistoricalTransactionFile" style="stroke: #A80036; stroke-width: 1.5;" width="169" x="1161" y="382.759"/><ellipse cx="1176" cy="398.759" fill="#ADD1B2" rx="11" ry="11" style="stroke: #A80036; stroke-width: 1.0;"/><path d="M1178.7656,394.634 Q1178.9219,394.4153 1179.1094,394.3059 Q1179.2969,394.1965 1179.5156,394.1965 Q1179.8906,394.1965 1180.125,394.4621 Q1180.3594,394.7121 1180.3594,395.3215 L1180.3594,396.7746 Q1180.3594,397.384 1180.125,397.6496 Q1179.8906,397.9153 1179.5156,397.9153 Q1179.1719,397.9153 1178.9688,397.7121 Q1178.7656,397.5246 1178.6563,397.009 Q1178.6094,396.6496 1178.4219,396.4621 Q1178.0938,396.0871 1177.4844,395.8684 Q1176.875,395.6496 1176.25,395.6496 Q1175.4844,395.6496 1174.8438,395.9778 Q1174.2188,396.3059 1173.7188,397.0559 Q1173.2344,397.8059 1173.2344,398.8371 L1173.2344,399.9309 Q1173.2344,401.1653 1174.125,401.9934 Q1175.0156,402.8059 1176.6094,402.8059 Q1177.5469,402.8059 1178.2031,402.5559 Q1178.5938,402.3996 1179.0156,401.9621 Q1179.2813,401.6965 1179.4219,401.6184 Q1179.5781,401.5403 1179.7813,401.5403 Q1180.1094,401.5403 1180.3594,401.8059 Q1180.625,402.0559 1180.625,402.3996 Q1180.625,402.7434 1180.2813,403.1496 Q1179.7813,403.7278 1178.9844,404.0559 Q1177.9063,404.509 1176.6094,404.509 Q1175.0938,404.509 1173.8906,403.884 Q1172.9063,403.384 1172.2188,402.3215 Q1171.5313,401.2434 1171.5313,399.9621 L1171.5313,398.8059 Q1171.5313,397.4778 1172.1406,396.3371 Q1172.7656,395.1809 1173.8594,394.5715 Q1174.9531,393.9465 1176.1875,393.9465 Q1176.9219,393.9465 1177.5625,394.1184 Q1178.2188,394.2746 1178.7656,394.634 Z "/><text fill="#000000" font-family="sans-serif" font-size="12" lengthAdjust="spacingAndGlyphs" textLength="137" x="1190" y="403.6692">HistoricalTransactionFile</text><line style="stroke: #A80036; stroke-width: 1.5;" x1="1162" x2="1329" y1="414.759" y2="414.759"/><!--MD5=[dc84a4e894a42f8e8d7fc762e5a59f92]
class PaymentScheduler--><rect fill="#FEFECE" filter="url(#f1vk6i3v1vktwu)" height="67.6719" id="PaymentScheduler" style="stroke: #A80036; stroke-width: 1.5;" width="136" x="1177.5" y="585.759"/><ellipse cx="1192.5" cy="601.759" fill="#ADD1B2" rx="11" ry="11" style="stroke: #A80036; stroke-width: 1.0;"/><path d="M1195.2656,597.634 Q1195.4219,597.4153 1195.6094,597.3059 Q1195.7969,597.1965 1196.0156,597.1965 Q1196.3906,597.1965 1196.625,597.4621 Q1196.8594,597.7121 1196.8594,598.3215 L1196.8594,599.7746 Q1196.8594,600.384 1196.625,600.6496 Q1196.3906,600.9153 1196.0156,600.9153 Q1195.6719,600.9153 1195.4688,600.7121 Q1195.2656,600.5246 1195.1563,600.009 Q1195.1094,599.6496 1194.9219,599.4621 Q1194.5938,599.0871 1193.9844,598.8684 Q1193.375,598.6496 1192.75,598.6496 Q1191.9844,598.6496 1191.3438,598.9778 Q1190.7188,599.3059 1190.2188,600.0559 Q1189.7344,600.8059 1189.7344,601.8371 L1189.7344,602.9309 Q1189.7344,604.1653 1190.625,604.9934 Q1191.5156,605.8059 1193.1094,605.8059 Q1194.0469,605.8059 1194.7031,605.5559 Q1195.0938,605.3996 1195.5156,604.9621 Q1195.7813,604.6965 1195.9219,604.6184 Q1196.0781,604.5403 1196.2813,604.5403 Q1196.6094,604.5403 1196.8594,604.8059 Q1197.125,605.0559 1197.125,605.3996 Q1197.125,605.7434 1196.7813,606.1496 Q1196.2813,606.7278 1195.4844,607.0559 Q1194.4063,607.509 1193.1094,607.509 Q1191.5938,607.509 1190.3906,606.884 Q1189.4063,606.384 1188.7188,605.3215 Q1188.0313,604.2434 1188.0313,602.9621 L1188.0313,601.8059 Q1188.0313,600.4778 1188.6406,599.3371 Q1189.2656,598.1809 1190.3594,597.5715 Q1191.4531,596.9465 1192.6875,596.9465 Q1193.4219,596.9465 1194.0625,597.1184 Q1194.7188,597.2746 1195.2656,597.634 Z "/><text fill="#000000" font-family="sans-serif" font-size="12" lengthAdjust="spacingAndGlyphs" textLength="104" x="1206.5" y="606.6692">PaymentScheduler</text><line style="stroke: #A80036; stroke-width: 1.5;" x1="1178.5" x2="1312.5" y1="617.759" y2="617.759"/><text fill="#000000" font-family="sans-serif" font-size="11" lengthAdjust="spacingAndGlyphs" textLength="87" x="1183.5" y="633.1779">-Integer dayMonth</text><text fill="#000000" font-family="sans-serif" font-size="11" lengthAdjust="spacingAndGlyphs" textLength="105" x="1183.5" y="647.0139">-LocalTime timeOfDay</text><!--MD5=[da547346deef918ea16944ba046651ef]
class Administrator--><rect fill="#FEFECE" filter="url(#f1vk6i3v1vktwu)" height="81.5078" id="Administrator" style="stroke: #A80036; stroke-width: 1.5;" width="105" x="289.5" y="736.759"/><ellipse cx="304.5" cy="752.759" fill="#ADD1B2" rx="11" ry="11" style="stroke: #A80036; stroke-width: 1.0;"/><path d="M307.2656,748.634 Q307.4219,748.4153 307.6094,748.3059 Q307.7969,748.1965 308.0156,748.1965 Q308.3906,748.1965 308.625,748.4621 Q308.8594,748.7121 308.8594,749.3215 L308.8594,750.7746 Q308.8594,751.384 308.625,751.6496 Q308.3906,751.9153 308.0156,751.9153 Q307.6719,751.9153 307.4688,751.7121 Q307.2656,751.5246 307.1563,751.009 Q307.1094,750.6496 306.9219,750.4621 Q306.5938,750.0871 305.9844,749.8684 Q305.375,749.6496 304.75,749.6496 Q303.9844,749.6496 303.3438,749.9778 Q302.7188,750.3059 302.2188,751.0559 Q301.7344,751.8059 301.7344,752.8371 L301.7344,753.9309 Q301.7344,755.1653 302.625,755.9934 Q303.5156,756.8059 305.1094,756.8059 Q306.0469,756.8059 306.7031,756.5559 Q307.0938,756.3996 307.5156,755.9621 Q307.7813,755.6965 307.9219,755.6184 Q308.0781,755.5403 308.2813,755.5403 Q308.6094,755.5403 308.8594,755.8059 Q309.125,756.0559 309.125,756.3996 Q309.125,756.7434 308.7813,757.1496 Q308.2813,757.7278 307.4844,758.0559 Q306.4063,758.509 305.1094,758.509 Q303.5938,758.509 302.3906,757.884 Q301.4063,757.384 300.7188,756.3215 Q300.0313,755.2434 300.0313,753.9621 L300.0313,752.8059 Q300.0313,751.4778 300.6406,750.3371 Q301.2656,749.1809 302.3594,748.5715 Q303.4531,747.9465 304.6875,747.9465 Q305.4219,747.9465 306.0625,748.1184 Q306.7188,748.2746 307.2656,748.634 Z "/><text fill="#000000" font-family="sans-serif" font-size="12" lengthAdjust="spacingAndGlyphs" textLength="73" x="318.5" y="757.6692">Administrator</text><line style="stroke: #A80036; stroke-width: 1.5;" x1="290.5" x2="393.5" y1="768.759" y2="768.759"/><text fill="#000000" font-family="sans-serif" font-size="11" lengthAdjust="spacingAndGlyphs" textLength="61" x="295.5" y="784.1779">-String nome</text><text fill="#000000" font-family="sans-serif" font-size="11" lengthAdjust="spacingAndGlyphs" textLength="59" x="295.5" y="798.0139">-String email</text><text fill="#000000" font-family="sans-serif" font-size="11" lengthAdjust="spacingAndGlyphs" textLength="85" x="295.5" y="811.8498">-String password</text><!--MD5=[942000697ba2ca87a591befaf65c4861]
class EmailScheduler--><rect fill="#FEFECE" filter="url(#f1vk6i3v1vktwu)" height="40" id="EmailScheduler" style="stroke: #A80036; stroke-width: 1.5;" width="120" x="464" y="1080.7586"/><ellipse cx="479" cy="1096.7586" fill="#ADD1B2" rx="11" ry="11" style="stroke: #A80036; stroke-width: 1.0;"/><path d="M481.7656,1092.6336 Q481.9219,1092.4149 482.1094,1092.3055 Q482.2969,1092.1961 482.5156,1092.1961 Q482.8906,1092.1961 483.125,1092.4617 Q483.3594,1092.7117 483.3594,1093.3211 L483.3594,1094.7742 Q483.3594,1095.3836 483.125,1095.6492 Q482.8906,1095.9149 482.5156,1095.9149 Q482.1719,1095.9149 481.9688,1095.7117 Q481.7656,1095.5242 481.6563,1095.0086 Q481.6094,1094.6492 481.4219,1094.4617 Q481.0938,1094.0867 480.4844,1093.868 Q479.875,1093.6492 479.25,1093.6492 Q478.4844,1093.6492 477.8438,1093.9774 Q477.2188,1094.3055 476.7188,1095.0555 Q476.2344,1095.8055 476.2344,1096.8367 L476.2344,1097.9305 Q476.2344,1099.1649 477.125,1099.993 Q478.0156,1100.8055 479.6094,1100.8055 Q480.5469,1100.8055 481.2031,1100.5555 Q481.5938,1100.3992 482.0156,1099.9617 Q482.2813,1099.6961 482.4219,1099.618 Q482.5781,1099.5399 482.7813,1099.5399 Q483.1094,1099.5399 483.3594,1099.8055 Q483.625,1100.0555 483.625,1100.3992 Q483.625,1100.743 483.2813,1101.1492 Q482.7813,1101.7274 481.9844,1102.0555 Q480.9063,1102.5086 479.6094,1102.5086 Q478.0938,1102.5086 476.8906,1101.8836 Q475.9063,1101.3836 475.2188,1100.3211 Q474.5313,1099.243 474.5313,1097.9617 L474.5313,1096.8055 Q474.5313,1095.4774 475.1406,1094.3367 Q475.7656,1093.1805 476.8594,1092.5711 Q477.9531,1091.9461 479.1875,1091.9461 Q479.9219,1091.9461 480.5625,1092.118 Q481.2188,1092.2742 481.7656,1092.6336 Z "/><text fill="#000000" font-family="sans-serif" font-size="12" lengthAdjust="spacingAndGlyphs" textLength="88" x="493" y="1101.6688">EmailScheduler</text><line style="stroke: #A80036; stroke-width: 1.5;" x1="465" x2="583" y1="1112.7586" y2="1112.7586"/><!--MD5=[3fd616f346a44cd59a91eb10b19e157c]
class User--><rect fill="#FEFECE" filter="url(#f1vk6i3v1vktwu)" height="81.5078" id="User" style="stroke: #A80036; stroke-width: 1.5;" width="97" x="1197" y="754.759"/><ellipse cx="1229.1" cy="770.759" fill="#ADD1B2" rx="11" ry="11" style="stroke: #A80036; stroke-width: 1.0;"/><path d="M1231.8656,766.634 Q1232.0219,766.4153 1232.2094,766.3059 Q1232.3969,766.1965 1232.6156,766.1965 Q1232.9906,766.1965 1233.225,766.4621 Q1233.4594,766.7121 1233.4594,767.3215 L1233.4594,768.7746 Q1233.4594,769.384 1233.225,769.6496 Q1232.9906,769.9153 1232.6156,769.9153 Q1232.2719,769.9153 1232.0688,769.7121 Q1231.8656,769.5246 1231.7563,769.009 Q1231.7094,768.6496 1231.5219,768.4621 Q1231.1938,768.0871 1230.5844,767.8684 Q1229.975,767.6496 1229.35,767.6496 Q1228.5844,767.6496 1227.9438,767.9778 Q1227.3188,768.3059 1226.8188,769.0559 Q1226.3344,769.8059 1226.3344,770.8371 L1226.3344,771.9309 Q1226.3344,773.1653 1227.225,773.9934 Q1228.1156,774.8059 1229.7094,774.8059 Q1230.6469,774.8059 1231.3031,774.5559 Q1231.6938,774.3996 1232.1156,773.9621 Q1232.3813,773.6965 1232.5219,773.6184 Q1232.6781,773.5403 1232.8813,773.5403 Q1233.2094,773.5403 1233.4594,773.8059 Q1233.725,774.0559 1233.725,774.3996 Q1233.725,774.7434 1233.3813,775.1496 Q1232.8813,775.7278 1232.0844,776.0559 Q1231.0063,776.509 1229.7094,776.509 Q1228.1938,776.509 1226.9906,775.884 Q1226.0063,775.384 1225.3188,774.3215 Q1224.6313,773.2434 1224.6313,771.9621 L1224.6313,770.8059 Q1224.6313,769.4778 1225.2406,768.3371 Q1225.8656,767.1809 1226.9594,766.5715 Q1228.0531,765.9465 1229.2875,765.9465 Q1230.0219,765.9465 1230.6625,766.1184 Q1231.3188,766.2746 1231.8656,766.634 Z "/><text fill="#000000" font-family="sans-serif" font-size="12" lengthAdjust="spacingAndGlyphs" textLength="27" x="1246.9" y="775.6692">User</text><line style="stroke: #A80036; stroke-width: 1.5;" x1="1198" x2="1293" y1="786.759" y2="786.759"/><text fill="#000000" font-family="sans-serif" font-size="11" lengthAdjust="spacingAndGlyphs" textLength="61" x="1203" y="802.1779">-String nome</text><text fill="#000000" font-family="sans-serif" font-size="11" lengthAdjust="spacingAndGlyphs" textLength="59" x="1203" y="816.0139">-String email</text><text fill="#000000" font-family="sans-serif" font-size="11" lengthAdjust="spacingAndGlyphs" textLength="85" x="1203" y="829.8498">-String password</text><!--MD5=[1f687b5315377fe49fca59b457947463]
class Freelancer--><rect fill="#FEFECE" filter="url(#f1vk6i3v1vktwu)" height="150.6875" id="Freelancer" style="stroke: #A80036; stroke-width: 1.5;" width="135" x="1476" y="400.259"/><ellipse cx="1510.8" cy="416.259" fill="#ADD1B2" rx="11" ry="11" style="stroke: #A80036; stroke-width: 1.0;"/><path d="M1513.5656,412.134 Q1513.7219,411.9153 1513.9094,411.8059 Q1514.0969,411.6965 1514.3156,411.6965 Q1514.6906,411.6965 1514.925,411.9621 Q1515.1594,412.2121 1515.1594,412.8215 L1515.1594,414.2746 Q1515.1594,414.884 1514.925,415.1496 Q1514.6906,415.4153 1514.3156,415.4153 Q1513.9719,415.4153 1513.7688,415.2121 Q1513.5656,415.0246 1513.4563,414.509 Q1513.4094,414.1496 1513.2219,413.9621 Q1512.8938,413.5871 1512.2844,413.3684 Q1511.675,413.1496 1511.05,413.1496 Q1510.2844,413.1496 1509.6438,413.4778 Q1509.0188,413.8059 1508.5188,414.5559 Q1508.0344,415.3059 1508.0344,416.3371 L1508.0344,417.4309 Q1508.0344,418.6653 1508.925,419.4934 Q1509.8156,420.3059 1511.4094,420.3059 Q1512.3469,420.3059 1513.0031,420.0559 Q1513.3938,419.8996 1513.8156,419.4621 Q1514.0813,419.1965 1514.2219,419.1184 Q1514.3781,419.0403 1514.5813,419.0403 Q1514.9094,419.0403 1515.1594,419.3059 Q1515.425,419.5559 1515.425,419.8996 Q1515.425,420.2434 1515.0813,420.6496 Q1514.5813,421.2278 1513.7844,421.5559 Q1512.7063,422.009 1511.4094,422.009 Q1509.8938,422.009 1508.6906,421.384 Q1507.7063,420.884 1507.0188,419.8215 Q1506.3313,418.7434 1506.3313,417.4621 L1506.3313,416.3059 Q1506.3313,414.9778 1506.9406,413.8371 Q1507.5656,412.6809 1508.6594,412.0715 Q1509.7531,411.4465 1510.9875,411.4465 Q1511.7219,411.4465 1512.3625,411.6184 Q1513.0188,411.7746 1513.5656,412.134 Z "/><text fill="#000000" font-family="sans-serif" font-size="12" lengthAdjust="spacingAndGlyphs" textLength="59" x="1529.2" y="421.1692">Freelancer</text><line style="stroke: #A80036; stroke-width: 1.5;" x1="1477" x2="1610" y1="432.259" y2="432.259"/><text fill="#000000" font-family="sans-serif" font-size="11" lengthAdjust="spacingAndGlyphs" textLength="43" x="1482" y="447.6779">-String id</text><text fill="#000000" font-family="sans-serif" font-size="11" lengthAdjust="spacingAndGlyphs" textLength="61" x="1482" y="461.5139">-String name</text><text fill="#000000" font-family="sans-serif" font-size="11" lengthAdjust="spacingAndGlyphs" textLength="114" x="1482" y="475.3498">-String levelOfExpertise</text><text fill="#000000" font-family="sans-serif" font-size="11" lengthAdjust="spacingAndGlyphs" textLength="59" x="1482" y="489.1858">-String email</text><text fill="#000000" font-family="sans-serif" font-size="11" lengthAdjust="spacingAndGlyphs" textLength="50" x="1482" y="503.0217">-String NIF</text><text fill="#000000" font-family="sans-serif" font-size="11" lengthAdjust="spacingAndGlyphs" textLength="123" x="1482" y="516.8576">-String bankAccountIBAN</text><text fill="#000000" font-family="sans-serif" font-size="11" lengthAdjust="spacingAndGlyphs" textLength="75" x="1482" y="530.6936">-String address</text><text fill="#000000" font-family="sans-serif" font-size="11" lengthAdjust="spacingAndGlyphs" textLength="72" x="1482" y="544.5295">-String country</text><!--MD5=[b9b2b358c4596a7c3c612fa1a577c109]
class PaymentAPI--><rect fill="#FEFECE" filter="url(#f1vk6i3v1vktwu)" height="40" id="PaymentAPI" style="stroke: #A80036; stroke-width: 1.5;" width="98" x="615.5" y="521.759"/><ellipse cx="630.5" cy="537.759" fill="#ADD1B2" rx="11" ry="11" style="stroke: #A80036; stroke-width: 1.0;"/><path d="M633.2656,533.634 Q633.4219,533.4153 633.6094,533.3059 Q633.7969,533.1965 634.0156,533.1965 Q634.3906,533.1965 634.625,533.4621 Q634.8594,533.7121 634.8594,534.3215 L634.8594,535.7746 Q634.8594,536.384 634.625,536.6496 Q634.3906,536.9153 634.0156,536.9153 Q633.6719,536.9153 633.4688,536.7121 Q633.2656,536.5246 633.1563,536.009 Q633.1094,535.6496 632.9219,535.4621 Q632.5938,535.0871 631.9844,534.8684 Q631.375,534.6496 630.75,534.6496 Q629.9844,534.6496 629.3438,534.9778 Q628.7188,535.3059 628.2188,536.0559 Q627.7344,536.8059 627.7344,537.8371 L627.7344,538.9309 Q627.7344,540.1653 628.625,540.9934 Q629.5156,541.8059 631.1094,541.8059 Q632.0469,541.8059 632.7031,541.5559 Q633.0938,541.3996 633.5156,540.9621 Q633.7813,540.6965 633.9219,540.6184 Q634.0781,540.5403 634.2813,540.5403 Q634.6094,540.5403 634.8594,540.8059 Q635.125,541.0559 635.125,541.3996 Q635.125,541.7434 634.7813,542.1496 Q634.2813,542.7278 633.4844,543.0559 Q632.4063,543.509 631.1094,543.509 Q629.5938,543.509 628.3906,542.884 Q627.4063,542.384 626.7188,541.3215 Q626.0313,540.2434 626.0313,538.9621 L626.0313,537.8059 Q626.0313,536.4778 626.6406,535.3371 Q627.2656,534.1809 628.3594,533.5715 Q629.4531,532.9465 630.6875,532.9465 Q631.4219,532.9465 632.0625,533.1184 Q632.7188,533.2746 633.2656,533.634 Z "/><text fill="#000000" font-family="sans-serif" font-size="12" lengthAdjust="spacingAndGlyphs" textLength="66" x="644.5" y="542.6692">PaymentAPI</text><line style="stroke: #A80036; stroke-width: 1.5;" x1="616.5" x2="712.5" y1="553.759" y2="553.759"/><!--MD5=[b76730e11bf88a141099e30fd5a76626]
class MonetaryUnitConversionAPI--><rect fill="#FEFECE" filter="url(#f1vk6i3v1vktwu)" height="40" id="MonetaryUnitConversionAPI" style="stroke: #A80036; stroke-width: 1.5;" width="184" x="250" y="853.759"/><ellipse cx="265" cy="869.759" fill="#ADD1B2" rx="11" ry="11" style="stroke: #A80036; stroke-width: 1.0;"/><path d="M267.7656,865.634 Q267.9219,865.4153 268.1094,865.3059 Q268.2969,865.1965 268.5156,865.1965 Q268.8906,865.1965 269.125,865.4621 Q269.3594,865.7121 269.3594,866.3215 L269.3594,867.7746 Q269.3594,868.384 269.125,868.6496 Q268.8906,868.9153 268.5156,868.9153 Q268.1719,868.9153 267.9688,868.7121 Q267.7656,868.5246 267.6563,868.009 Q267.6094,867.6496 267.4219,867.4621 Q267.0938,867.0871 266.4844,866.8684 Q265.875,866.6496 265.25,866.6496 Q264.4844,866.6496 263.8438,866.9778 Q263.2188,867.3059 262.7188,868.0559 Q262.2344,868.8059 262.2344,869.8371 L262.2344,870.9309 Q262.2344,872.1653 263.125,872.9934 Q264.0156,873.8059 265.6094,873.8059 Q266.5469,873.8059 267.2031,873.5559 Q267.5938,873.3996 268.0156,872.9621 Q268.2813,872.6965 268.4219,872.6184 Q268.5781,872.5403 268.7813,872.5403 Q269.1094,872.5403 269.3594,872.8059 Q269.625,873.0559 269.625,873.3996 Q269.625,873.7434 269.2813,874.1496 Q268.7813,874.7278 267.9844,875.0559 Q266.9063,875.509 265.6094,875.509 Q264.0938,875.509 262.8906,874.884 Q261.9063,874.384 261.2188,873.3215 Q260.5313,872.2434 260.5313,870.9621 L260.5313,869.8059 Q260.5313,868.4778 261.1406,867.3371 Q261.7656,866.1809 262.8594,865.5715 Q263.9531,864.9465 265.1875,864.9465 Q265.9219,864.9465 266.5625,865.1184 Q267.2188,865.2746 267.7656,865.634 Z "/><text fill="#000000" font-family="sans-serif" font-size="12" lengthAdjust="spacingAndGlyphs" textLength="152" x="279" y="874.6692">MonetaryUnitConversionAPI</text><line style="stroke: #A80036; stroke-width: 1.5;" x1="251" x2="433" y1="885.759" y2="885.759"/><!--MD5=[8806e557260fb3598decb516dc04693d]
class EmailAPI--><rect fill="#FEFECE" filter="url(#f1vk6i3v1vktwu)" height="40" id="EmailAPI" style="stroke: #A80036; stroke-width: 1.5;" width="82" x="789.5" y="1035.7586"/><ellipse cx="804.5" cy="1051.7586" fill="#ADD1B2" rx="11" ry="11" style="stroke: #A80036; stroke-width: 1.0;"/><path d="M807.2656,1047.6336 Q807.4219,1047.4149 807.6094,1047.3055 Q807.7969,1047.1961 808.0156,1047.1961 Q808.3906,1047.1961 808.625,1047.4617 Q808.8594,1047.7117 808.8594,1048.3211 L808.8594,1049.7742 Q808.8594,1050.3836 808.625,1050.6492 Q808.3906,1050.9149 808.0156,1050.9149 Q807.6719,1050.9149 807.4688,1050.7117 Q807.2656,1050.5242 807.1563,1050.0086 Q807.1094,1049.6492 806.9219,1049.4617 Q806.5938,1049.0867 805.9844,1048.868 Q805.375,1048.6492 804.75,1048.6492 Q803.9844,1048.6492 803.3438,1048.9774 Q802.7188,1049.3055 802.2188,1050.0555 Q801.7344,1050.8055 801.7344,1051.8367 L801.7344,1052.9305 Q801.7344,1054.1649 802.625,1054.993 Q803.5156,1055.8055 805.1094,1055.8055 Q806.0469,1055.8055 806.7031,1055.5555 Q807.0938,1055.3992 807.5156,1054.9617 Q807.7813,1054.6961 807.9219,1054.618 Q808.0781,1054.5399 808.2813,1054.5399 Q808.6094,1054.5399 808.8594,1054.8055 Q809.125,1055.0555 809.125,1055.3992 Q809.125,1055.743 808.7813,1056.1492 Q808.2813,1056.7274 807.4844,1057.0555 Q806.4063,1057.5086 805.1094,1057.5086 Q803.5938,1057.5086 802.3906,1056.8836 Q801.4063,1056.3836 800.7188,1055.3211 Q800.0313,1054.243 800.0313,1052.9617 L800.0313,1051.8055 Q800.0313,1050.4774 800.6406,1049.3367 Q801.2656,1048.1805 802.3594,1047.5711 Q803.4531,1046.9461 804.6875,1046.9461 Q805.4219,1046.9461 806.0625,1047.118 Q806.7188,1047.2742 807.2656,1047.6336 Z "/><text fill="#000000" font-family="sans-serif" font-size="12" lengthAdjust="spacingAndGlyphs" textLength="50" x="818.5" y="1056.6688">EmailAPI</text><line style="stroke: #A80036; stroke-width: 1.5;" x1="790.5" x2="870.5" y1="1067.7586" y2="1067.7586"/><ellipse cx="65.5" cy="453.759" fill="#000000" rx="2" ry="2" style="stroke: none; stroke-width: 1.0;"/><!--MD5=[17fb0793c1413726511ab9de8d766c0c]
link Colaborator to Transaction--><path d="M945.962,448.169 C869.703,437.723 715.263,417.08 584,402.759 C516.965,395.445 439.256,388.654 390.606,384.606 " fill="none" id="Colaborator-Transaction" style="stroke: #A80036; stroke-width: 1.0;"/><polygon fill="#000000" points="643.5,395.4348,637.5,398.4348,643.5,401.4348,643.5,395.4348" style="stroke: #000000; stroke-width: 1.0;"/><text fill="#000000" font-family="sans-serif" font-size="13" lengthAdjust="spacingAndGlyphs" textLength="43" x="649.5" y="402.2541">creates</text><text fill="#000000" font-family="sans-serif" font-size="13" lengthAdjust="spacingAndGlyphs" textLength="7" x="930.9937" y="461.9446">1</text><text fill="#000000" font-family="sans-serif" font-size="13" lengthAdjust="spacingAndGlyphs" textLength="5" x="398.4316" y="381.4921">*</text><!--MD5=[43bc7443460eb6e15759d9c6a71318a8]
link Colaborator to Task--><path d="M1043.22,420.993 C1053.01,414.209 1063.29,407.191 1073,400.759 C1101.3,382.001 1132.64,362.039 1160.7,344.445 " fill="none" id="Colaborator-Task" style="stroke: #A80036; stroke-width: 1.0;"/><text fill="#000000" font-family="sans-serif" font-size="13" lengthAdjust="spacingAndGlyphs" textLength="43" x="1074" y="360.2541">creates</text><polygon fill="#000000" points="1120,353.4348,1126,356.4348,1120,359.4348,1120,353.4348" style="stroke: #000000; stroke-width: 1.0;"/><text fill="#000000" font-family="sans-serif" font-size="13" lengthAdjust="spacingAndGlyphs" textLength="7" x="1050.8898" y="430.7657">1</text><text fill="#000000" font-family="sans-serif" font-size="13" lengthAdjust="spacingAndGlyphs" textLength="5" x="1147.9248" y="363.2636">*</text><!--MD5=[7be2b93dc6b99f50a07263979bce1c9c]
link Colaborator to Freelancer--><path d="M1043.09,456.585 C1140.69,460.333 1363.75,468.896 1475.75,473.196 " fill="none" id="Colaborator-Freelancer" style="stroke: #A80036; stroke-width: 1.0;"/><text fill="#000000" font-family="sans-serif" font-size="13" lengthAdjust="spacingAndGlyphs" textLength="43" x="1217.5" y="457.2541">creates</text><polygon fill="#000000" points="1263.5,450.4348,1269.5,453.4348,1263.5,456.4348,1263.5,450.4348" style="stroke: #000000; stroke-width: 1.0;"/><text fill="#000000" font-family="sans-serif" font-size="13" lengthAdjust="spacingAndGlyphs" textLength="7" x="1051.0663" y="471.6493">1</text><text fill="#000000" font-family="sans-serif" font-size="13" lengthAdjust="spacingAndGlyphs" textLength="5" x="1463.0664" y="487.3221">*</text><!--MD5=[dfec053834ca4b8aaedc22769d2f526b]
link Colaborator to HistoricalTransactionFile--><path d="M1043.22,444.794 C1076.4,437.864 1121.53,428.44 1160.64,420.271 " fill="none" id="Colaborator-HistoricalTransactionFile" style="stroke: #A80036; stroke-width: 1.0;"/><text fill="#000000" font-family="sans-serif" font-size="13" lengthAdjust="spacingAndGlyphs" textLength="31" x="1080" y="423.2541">loads</text><polygon fill="#000000" points="1114,416.4348,1120,419.4348,1114,422.4348,1114,416.4348" style="stroke: #000000; stroke-width: 1.0;"/><text fill="#000000" font-family="sans-serif" font-size="13" lengthAdjust="spacingAndGlyphs" textLength="7" x="1050.8898" y="458.0625">1</text><text fill="#000000" font-family="sans-serif" font-size="13" lengthAdjust="spacingAndGlyphs" textLength="5" x="1148.1325" y="435.9737">*</text><!--MD5=[02dd8e0703276896f1e42edb558b3819]
link Colaborator to User--><path d="M1025.54,495.891 C1073.46,561.521 1166.68,689.191 1214.55,754.746 " fill="none" id="Colaborator-User" style="stroke: #A80036; stroke-width: 1.0;"/><text fill="#000000" font-family="sans-serif" font-size="13" lengthAdjust="spacingAndGlyphs" textLength="43" x="1074" y="561.2541">acts as</text><polygon fill="#000000" points="1091,570.1106,1094,576.1106,1097,570.1106,1091,570.1106" style="stroke: #000000; stroke-width: 1.0;"/><text fill="#000000" font-family="sans-serif" font-size="13" lengthAdjust="spacingAndGlyphs" textLength="18" x="1010.7771" y="516.6643">0,1</text><text fill="#000000" font-family="sans-serif" font-size="13" lengthAdjust="spacingAndGlyphs" textLength="7" x="1201.6289" y="743.8895">1</text><!--MD5=[7243fd82d00bd95e91d7be6a6f325055]
link Manager to PaymentScheduler--><path d="M1043.22,709.488 C1081.2,692.554 1134.83,668.646 1177.19,649.766 " fill="none" id="Manager-PaymentScheduler" style="stroke: #A80036; stroke-width: 1.0;"/><text fill="#000000" font-family="sans-serif" font-size="13" lengthAdjust="spacingAndGlyphs" textLength="41" x="1075" y="668.2541">defines</text><polygon fill="#000000" points="1119,661.4348,1125,664.4348,1119,667.4348,1119,661.4348" style="stroke: #000000; stroke-width: 1.0;"/><text fill="#000000" font-family="sans-serif" font-size="13" lengthAdjust="spacingAndGlyphs" textLength="7" x="1050.8898" y="721.0959">1</text><text fill="#000000" font-family="sans-serif" font-size="13" lengthAdjust="spacingAndGlyphs" textLength="18" x="1151.5798" y="667.0359">0,1</text><!--MD5=[6eb6e197a729f6ec2412743e0bdbca1d]
link Manager to User--><path d="M1043.22,743.214 C1087.41,754.752 1152.8,771.82 1196.95,783.345 " fill="none" id="Manager-User" style="stroke: #A80036; stroke-width: 1.0;"/><text fill="#000000" font-family="sans-serif" font-size="13" lengthAdjust="spacingAndGlyphs" textLength="43" x="1074" y="748.2541">acts as</text><polygon fill="#000000" points="1120,741.4348,1126,744.4348,1120,747.4348,1120,741.4348" style="stroke: #000000; stroke-width: 1.0;"/><text fill="#000000" font-family="sans-serif" font-size="13" lengthAdjust="spacingAndGlyphs" textLength="18" x="1050.9761" y="759.5144">0,1</text><text fill="#000000" font-family="sans-serif" font-size="13" lengthAdjust="spacingAndGlyphs" textLength="7" x="1181.9798" y="777.7788">1</text><!--MD5=[8e4873cec2cb3febaaa9495c716fc885]
link Transaction to Task--><path d="M348.546,360.585 C361.184,318.863 396.393,223.429 464,180.759 C681.617,43.41 795.605,112.92 1043,183.759 C1082.59,195.094 1094.21,194.25 1131,212.759 C1145.43,220.018 1160.08,228.958 1173.85,238.2 " fill="none" id="Transaction-Task" style="stroke: #A80036; stroke-width: 1.0;"/><text fill="#000000" font-family="sans-serif" font-size="13" lengthAdjust="spacingAndGlyphs" textLength="55" x="796.5" y="100.2551">relative to</text><polygon fill="#000000" points="854.5,93.4358,860.5,96.4358,854.5,99.4358,854.5,93.4358" style="stroke: #000000; stroke-width: 1.0;"/><text fill="#000000" font-family="sans-serif" font-size="13" lengthAdjust="spacingAndGlyphs" textLength="7" x="342.4408" y="349.8556">1</text><text fill="#000000" font-family="sans-serif" font-size="13" lengthAdjust="spacingAndGlyphs" textLength="7" x="1156.7517" y="227.3003">1</text><!--MD5=[542f32193441b56ea302115ed1249c3b]
link Transaction to Freelancer--><path d="M347.727,360.603 C359.631,313.789 394.939,196.328 464,125.76 C533.371,54.87 564.318,25.76 663.5,25.76 C663.5,25.76 663.5,25.76 1246.5,25.76 C1423.59,25.76 1500.65,272.01 1528.77,400.185 " fill="none" id="Transaction-Freelancer" style="stroke: #A80036; stroke-width: 1.0;"/><text fill="#000000" font-family="sans-serif" font-size="13" lengthAdjust="spacingAndGlyphs" textLength="11" x="982.5" y="22.2551">to</text><polygon fill="#000000" points="996.5,15.4358,1002.5,18.4358,996.5,21.4358,996.5,15.4358" style="stroke: #000000; stroke-width: 1.0;"/><text fill="#000000" font-family="sans-serif" font-size="13" lengthAdjust="spacingAndGlyphs" textLength="5" x="350.1437" y="349.8789">*</text><text fill="#000000" font-family="sans-serif" font-size="13" lengthAdjust="spacingAndGlyphs" textLength="7" x="1519.9755" y="389.486">1</text><!--MD5=[c4d304e021406f0669e27c527a415194]
link Transaction to PaymentAPI--><path d="M366.578,400.803 C389.971,419.819 427.51,448.045 464,465.759 C514.092,490.075 532.266,481.167 584,501.759 C598.355,507.472 613.626,514.826 626.907,521.666 " fill="none" id="Transaction-PaymentAPI" style="stroke: #A80036; stroke-width: 1.0;"/><text fill="#000000" font-family="sans-serif" font-size="13" lengthAdjust="spacingAndGlyphs" textLength="28" x="503.5" y="462.2541">uses</text><polygon fill="#000000" points="534.5,455.4348,540.5,458.4348,534.5,461.4348,534.5,455.4348" style="stroke: #000000; stroke-width: 1.0;"/><text fill="#000000" font-family="sans-serif" font-size="13" lengthAdjust="spacingAndGlyphs" textLength="5" x="367.7874" y="422.2349">*</text><text fill="#000000" font-family="sans-serif" font-size="13" lengthAdjust="spacingAndGlyphs" textLength="7" x="607.8359" y="510.9604">1</text><!--MD5=[4b35f5cbbb9f0916ba1866e97e83f62f]
link Transaction to Organization--><path d="M369.88,400.94 C389.507,416.695 415.765,440.004 434,464.759 C452.393,489.728 442.116,505.785 464,527.759 C486.309,550.159 562.322,583.41 613.81,604.318 " fill="none" id="Transaction-Organization" style="stroke: #A80036; stroke-width: 1.0;"/><text fill="#000000" font-family="sans-serif" font-size="13" lengthAdjust="spacingAndGlyphs" textLength="102" x="466.5" y="524.2541">made on behalf of</text><polygon fill="#000000" points="571.5,517.4348,577.5,520.4348,571.5,523.4348,571.5,517.4348" style="stroke: #000000; stroke-width: 1.0;"/><text fill="#000000" font-family="sans-serif" font-size="13" lengthAdjust="spacingAndGlyphs" textLength="5" x="372.0181" y="422.4105">*</text><text fill="#000000" font-family="sans-serif" font-size="13" lengthAdjust="spacingAndGlyphs" textLength="7" x="598.8508" y="597.8206">1</text><!--MD5=[9aa0fa191c99edeef0ce6e9ae1d37765]
link Transaction to TaskExecutionDetails--><path d="M354.834,360.306 C373.662,329.857 413.526,273.345 464,246.759 C551.8,200.512 667.269,192.304 744.715,193.026 " fill="none" id="Transaction-TaskExecutionDetails" style="stroke: #A80036; stroke-width: 1.0;"/><text fill="#000000" font-family="sans-serif" font-size="13" lengthAdjust="spacingAndGlyphs" textLength="80" x="477.5" y="203.2541">executed with</text><polygon fill="#000000" points="560.5,196.4348,566.5,199.4348,560.5,202.4348,560.5,196.4348" style="stroke: #000000; stroke-width: 1.0;"/><text fill="#000000" font-family="sans-serif" font-size="13" lengthAdjust="spacingAndGlyphs" textLength="7" x="359.4279" y="349.8481">1</text><text fill="#000000" font-family="sans-serif" font-size="13" lengthAdjust="spacingAndGlyphs" textLength="7" x="730.0421" y="206.8381">1</text><!--MD5=[9155e95983ae2a088b11740d001758c9]
link TaskExecutionDetails to Task--><path d="M916.184,206.506 C976.771,213.995 1059.85,226.791 1131,246.759 C1140.83,249.516 1150.96,252.857 1160.93,256.465 " fill="none" id="TaskExecutionDetails-Task" style="stroke: #A80036; stroke-width: 1.0;"/><text fill="#000000" font-family="sans-serif" font-size="13" lengthAdjust="spacingAndGlyphs" textLength="47" x="964.5" y="206.2541">refers to</text><polygon fill="#000000" points="1014.5,199.4348,1020.5,202.4348,1014.5,205.4348,1014.5,199.4348" style="stroke: #000000; stroke-width: 1.0;"/><text fill="#000000" font-family="sans-serif" font-size="13" lengthAdjust="spacingAndGlyphs" textLength="7" x="924.127" y="221.5302">1</text><text fill="#000000" font-family="sans-serif" font-size="13" lengthAdjust="spacingAndGlyphs" textLength="7" x="1146.0863" y="267.4478">1</text><!--MD5=[80bfe53c9a81718400b24a13b8f52143]
link HistoricalTransactionFile to Transaction--><path d="M1193.73,382.655 C1182.6,377.435 1171.13,371.392 1161,364.759 C1145.99,354.929 1145.87,347.793 1131,337.759 C1094.92,313.407 1085.41,304.566 1043,294.759 C801.729,238.964 504.772,325.007 390.709,363.598 " fill="none" id="HistoricalTransactionFile-Transaction" style="stroke: #A80036; stroke-width: 1.0;"/><polygon fill="#000000" points="809.5,265.4348,803.5,268.4348,809.5,271.4348,809.5,265.4348" style="stroke: #000000; stroke-width: 1.0;"/><text fill="#000000" font-family="sans-serif" font-size="13" lengthAdjust="spacingAndGlyphs" textLength="43" x="815.5" y="272.2541">records</text><text fill="#000000" font-family="sans-serif" font-size="13" lengthAdjust="spacingAndGlyphs" textLength="7" x="1170.4944" y="371.9462">1</text><text fill="#000000" font-family="sans-serif" font-size="13" lengthAdjust="spacingAndGlyphs" textLength="5" x="398.5504" y="357.2673">*</text><!--MD5=[1a3e78b286cde87cb772b4879f31cc6e]
link PaymentScheduler to Transaction--><path d="M1177.28,597.148 C1111.17,575.275 1007.2,541.845 916,516.759 C722.781,463.609 489.546,412.124 390.832,390.91 " fill="none" id="PaymentScheduler-Transaction" style="stroke: #A80036; stroke-width: 1.0;"/><text fill="#000000" font-family="sans-serif" font-size="13" lengthAdjust="spacingAndGlyphs" textLength="128" x="766.5" y="469.2541">schedules payments&gt;</text><text fill="#000000" font-family="sans-serif" font-size="13" lengthAdjust="spacingAndGlyphs" textLength="7" x="1162.4356" y="609.0822">1</text><text fill="#000000" font-family="sans-serif" font-size="13" lengthAdjust="spacingAndGlyphs" textLength="5" x="398.3714" y="407.0969">*</text><!--MD5=[656d67bb8fa389b55c147beff5b13611]
link Organization to Colaborator--><path d="M715.404,604.495 C725.185,600.841 735.39,597.115 745,593.759 C820.37,567.435 848.719,581.733 916,538.759 C933.725,527.437 950.059,511.089 963.115,495.819 " fill="none" id="Organization-Colaborator" style="stroke: #A80036; stroke-width: 1.0;"/><text fill="#000000" font-family="sans-serif" font-size="13" lengthAdjust="spacingAndGlyphs" textLength="21" x="813.5" y="535.2541">has</text><polygon fill="#000000" points="837.5,528.4348,843.5,531.4348,837.5,534.4348,837.5,528.4348" style="stroke: #000000; stroke-width: 1.0;"/><text fill="#000000" font-family="sans-serif" font-size="13" lengthAdjust="spacingAndGlyphs" textLength="7" x="723.0546" y="616.4424">1</text><text fill="#000000" font-family="sans-serif" font-size="13" lengthAdjust="spacingAndGlyphs" textLength="7" x="950.7732" y="516.891">1</text><!--MD5=[bc039f41cf0b27fadee5cae63fc6e1fe]
link Organization to Manager--><path d="M715.272,650.727 C724.975,655.432 735.185,660.011 745,663.759 C813.042,689.74 895.181,709.798 945.881,720.943 " fill="none" id="Organization-Manager" style="stroke: #A80036; stroke-width: 1.0;"/><text fill="#000000" font-family="sans-serif" font-size="13" lengthAdjust="spacingAndGlyphs" textLength="21" x="813.5" y="660.2541">has</text><polygon fill="#000000" points="837.5,653.4348,843.5,656.4348,837.5,659.4348,837.5,653.4348" style="stroke: #000000; stroke-width: 1.0;"/><text fill="#000000" font-family="sans-serif" font-size="13" lengthAdjust="spacingAndGlyphs" textLength="7" x="722.904" y="669.1757">1</text><text fill="#000000" font-family="sans-serif" font-size="13" lengthAdjust="spacingAndGlyphs" textLength="7" x="930.9003" y="734.2246">1</text><!--MD5=[5f4f57afaa4ed75c0a27618a4620afc1]
link Organization to PaymentScheduler--><path d="M715.116,623.416 C819.057,622.698 1059.75,621.035 1177.37,620.222 " fill="none" id="Organization-PaymentScheduler" style="stroke: #A80036; stroke-width: 1.0;"/><text fill="#000000" font-family="sans-serif" font-size="13" lengthAdjust="spacingAndGlyphs" textLength="28" x="974" y="617.2541">uses</text><polygon fill="#000000" points="1005,610.4348,1011,613.4348,1005,616.4348,1005,610.4348" style="stroke: #000000; stroke-width: 1.0;"/><text fill="#000000" font-family="sans-serif" font-size="13" lengthAdjust="spacingAndGlyphs" textLength="7" x="723.0643" y="638.0736">1</text><text fill="#000000" font-family="sans-serif" font-size="13" lengthAdjust="spacingAndGlyphs" textLength="7" x="1162.5355" y="634.6799">1</text><!--MD5=[4078351e3988aa35b1504a42837f2ab1]
link Organization to Task--><path d="M701.66,596.552 C706.722,591.437 711.411,585.785 715,579.759 C744.9,529.558 705.716,495.012 745,451.759 C852.84,333.023 1048.95,302.415 1160.67,294.867 " fill="none" id="Organization-Task" style="stroke: #A80036; stroke-width: 1.0;"/><text fill="#000000" font-family="sans-serif" font-size="13" lengthAdjust="spacingAndGlyphs" textLength="55" x="960.5" y="306.2541">publishes</text><polygon fill="#000000" points="1018.5,299.4348,1024.5,302.4348,1018.5,305.4348,1018.5,299.4348" style="stroke: #000000; stroke-width: 1.0;"/><text fill="#000000" font-family="sans-serif" font-size="13" lengthAdjust="spacingAndGlyphs" textLength="7" x="702.4439" y="585.9651">1</text><text fill="#000000" font-family="sans-serif" font-size="13" lengthAdjust="spacingAndGlyphs" textLength="5" x="1147.8922" y="309.27">*</text><!--MD5=[8853e9d83a8841c20c4ef075af762602]
link Task to Freelancer--><path d="M1330.13,344.465 C1376.29,373.003 1432.83,407.953 1475.96,434.618 " fill="none" id="Task-Freelancer" style="stroke: #A80036; stroke-width: 1.0;"/><text fill="#000000" font-family="sans-serif" font-size="13" lengthAdjust="spacingAndGlyphs" textLength="71" x="1361" y="364.2541">executed by</text><polygon fill="#000000" points="1435,357.4348,1441,360.4348,1435,363.4348,1435,357.4348" style="stroke: #000000; stroke-width: 1.0;"/><text fill="#000000" font-family="sans-serif" font-size="13" lengthAdjust="spacingAndGlyphs" textLength="5" x="1337.89" y="363.2853">*</text><text fill="#000000" font-family="sans-serif" font-size="13" lengthAdjust="spacingAndGlyphs" textLength="22" x="1445.8606" y="444.7297">0, 1</text><!--MD5=[939acada67c666032ddf52a0068bc128]
link App to MonetaryUnitConversionAPI--><path d="M92.3243,873.759 C128.092,873.759 194.55,873.759 249.768,873.759 " fill="none" id="App-MonetaryUnitConversionAPI" style="stroke: #A80036; stroke-width: 1.0;"/><text fill="#000000" font-family="sans-serif" font-size="13" lengthAdjust="spacingAndGlyphs" textLength="50" x="156" y="870.2541">supports</text><polygon fill="#000000" points="209,863.4348,215,866.4348,209,869.4348,209,863.4348" style="stroke: #000000; stroke-width: 1.0;"/><text fill="#000000" font-family="sans-serif" font-size="13" lengthAdjust="spacingAndGlyphs" textLength="7" x="100.0949" y="869.2492">1</text><text fill="#000000" font-family="sans-serif" font-size="13" lengthAdjust="spacingAndGlyphs" textLength="7" x="235.1394" y="887.9056">1</text><!--MD5=[1370966fb1e3885ea6828d35f10d9d48]
link App to Organization--><path d="M84.0778,853.67 C114.421,820.341 180.126,753.911 250,719.759 C314.225,688.367 518.574,649.422 613.788,632.4 " fill="none" id="App-Organization" style="stroke: #A80036; stroke-width: 1.0;"/><text fill="#000000" font-family="sans-serif" font-size="13" lengthAdjust="spacingAndGlyphs" textLength="21" x="325" y="664.2541">has</text><polygon fill="#000000" points="349,657.4348,355,660.4348,349,663.4348,349,657.4348" style="stroke: #000000; stroke-width: 1.0;"/><text fill="#000000" font-family="sans-serif" font-size="13" lengthAdjust="spacingAndGlyphs" textLength="7" x="81.5069" y="842.9656">1</text><text fill="#000000" font-family="sans-serif" font-size="13" lengthAdjust="spacingAndGlyphs" textLength="5" x="600.9725" y="648.3771">*</text><!--MD5=[1cb21011969cc62c73f846209be643c8]
link App to EmailAPI--><path d="M78.7294,894.057 C93.7035,917.024 121.28,953.706 155,972.759 C210.47,1004.1 652.52,1041.6416 789.307,1052.6082 " fill="none" id="App-EmailAPI" style="stroke: #A80036; stroke-width: 1.0;"/><text fill="#000000" font-family="sans-serif" font-size="13" lengthAdjust="spacingAndGlyphs" textLength="50" x="310.5" y="991.2541">supports</text><polygon fill="#000000" points="363.5,984.4348,369.5,987.4348,363.5,990.4348,363.5,984.4348" style="stroke: #000000; stroke-width: 1.0;"/><text fill="#000000" font-family="sans-serif" font-size="13" lengthAdjust="spacingAndGlyphs" textLength="7" x="74.3442" y="915.2044">1</text><text fill="#000000" font-family="sans-serif" font-size="13" lengthAdjust="spacingAndGlyphs" textLength="7" x="774.6254" y="1048.2171">1</text><!--MD5=[c476b523f9294f20b13319074aa597a2]
link App to PaymentAPI--><path d="M75.5841,853.477 C97.7192,806.743 159.355,691.67 250,641.759 C282.107,624.08 513.032,573.694 615.148,551.952 " fill="none" id="App-PaymentAPI" style="stroke: #A80036; stroke-width: 1.0;"/><text fill="#000000" font-family="sans-serif" font-size="13" lengthAdjust="spacingAndGlyphs" textLength="50" x="310.5" y="588.2541">supports</text><polygon fill="#000000" points="363.5,581.4348,369.5,584.4348,363.5,587.4348,363.5,581.4348" style="stroke: #000000; stroke-width: 1.0;"/><text fill="#000000" font-family="sans-serif" font-size="13" lengthAdjust="spacingAndGlyphs" textLength="7" x="70.4359" y="843.0672">1</text><text fill="#000000" font-family="sans-serif" font-size="13" lengthAdjust="spacingAndGlyphs" textLength="7" x="600.3854" y="568.145">1</text><!--MD5=[66e1bf42337190a3177776b035b1a873]
link App to Administrator--><path d="M92.3243,864.727 C137.301,848.998 230.804,816.297 289.468,795.781 " fill="none" id="App-Administrator" style="stroke: #A80036; stroke-width: 1.0;"/><text fill="#000000" font-family="sans-serif" font-size="13" lengthAdjust="spacingAndGlyphs" textLength="21" x="170.5" y="819.2541">has</text><polygon fill="#000000" points="194.5,812.4348,200.5,815.4348,194.5,818.4348,194.5,812.4348" style="stroke: #000000; stroke-width: 1.0;"/><text fill="#000000" font-family="sans-serif" font-size="13" lengthAdjust="spacingAndGlyphs" textLength="7" x="100.0949" y="878.0027">1</text><text fill="#000000" font-family="sans-serif" font-size="13" lengthAdjust="spacingAndGlyphs" textLength="5" x="276.3852" y="813.1601">*</text><!--MD5=[d88947b97cc296deaa09f9756953ae3a]
link App to Freelancer--><path d="M92.0113,885.326 C139.811,905.91 246.566,946.759 341,946.759 C341,946.759 341,946.759 1246.5,946.759 C1430.96,946.759 1504.94,684.574 1530.62,551.433 " fill="none" id="App-Freelancer" style="stroke: #A80036; stroke-width: 1.0;"/><text fill="#000000" font-family="sans-serif" font-size="13" lengthAdjust="spacingAndGlyphs" textLength="21" x="813.5" y="943.2541">has</text><polygon fill="#000000" points="837.5,936.4348,843.5,939.4348,837.5,942.4348,837.5,936.4348" style="stroke: #000000; stroke-width: 1.0;"/><text fill="#000000" font-family="sans-serif" font-size="13" lengthAdjust="spacingAndGlyphs" textLength="7" x="100.0768" y="904.127">1</text><text fill="#000000" font-family="sans-serif" font-size="13" lengthAdjust="spacingAndGlyphs" textLength="5" x="1524.2502" y="572.4099">*</text><!--MD5=[63a18bfb0c55f564ea81086f541b4ad2]
link App to EmailScheduler--><path d="M69.4689,894.055 C76.4413,933.698 97.8213,1021.093 155,1061.7586 C246.885,1127.1072 385.737,1121.1858 463.977,1111 " fill="none" id="App-EmailScheduler" style="stroke: #A80036; stroke-width: 1.0;"/><text fill="#000000" font-family="sans-serif" font-size="13" lengthAdjust="spacingAndGlyphs" textLength="21" x="170.5" y="1058.2537">has</text><polygon fill="#000000" points="194.5,1051.4344,200.5,1054.4344,194.5,1057.4344,194.5,1051.4344" style="stroke: #000000; stroke-width: 1.0;"/><text fill="#000000" font-family="sans-serif" font-size="13" lengthAdjust="spacingAndGlyphs" textLength="7" x="62.5949" y="915.2019">1</text><text fill="#000000" font-family="sans-serif" font-size="13" lengthAdjust="spacingAndGlyphs" textLength="7" x="448.8381" y="1126.8548">1</text><!--MD5=[62b22ab9dd7e0fc0219b5bb8924f5993]
link EmailScheduler to EmailAPI--><path d="M584.072,1092.0288 C644.431,1083.1087 736.538,1069.4968 789.067,1061.734 " fill="none" id="EmailScheduler-EmailAPI" style="stroke: #A80036; stroke-width: 1.0;"/><text fill="#000000" font-family="sans-serif" font-size="13" lengthAdjust="spacingAndGlyphs" textLength="28" x="644" y="1069.2537">uses</text><polygon fill="#000000" points="675,1062.4344,681,1065.4344,675,1068.4344,675,1062.4344" style="stroke: #000000; stroke-width: 1.0;"/><text fill="#000000" font-family="sans-serif" font-size="13" lengthAdjust="spacingAndGlyphs" textLength="7" x="591.8198" y="1105.4564">1</text><text fill="#000000" font-family="sans-serif" font-size="13" lengthAdjust="spacingAndGlyphs" textLength="7" x="774.625" y="1077.5729">1</text><!--MD5=[2a41c1af413c0662bf55a6b8913ea24f]
link Administrator to Organization--><path d="M394.756,771.828 C445.949,764.097 524.977,747.01 584,710.759 C608.757,695.553 630.51,670.448 644.974,651.104 " fill="none" id="Administrator-Organization" style="stroke: #A80036; stroke-width: 1.0;"/><text fill="#000000" font-family="sans-serif" font-size="13" lengthAdjust="spacingAndGlyphs" textLength="28" x="503.5" y="707.2541">adds</text><polygon fill="#000000" points="534.5,700.4348,540.5,703.4348,534.5,706.4348,534.5,700.4348" style="stroke: #000000; stroke-width: 1.0;"/><text fill="#000000" font-family="sans-serif" font-size="13" lengthAdjust="spacingAndGlyphs" textLength="7" x="402.667" y="785.6734">1</text><text fill="#000000" font-family="sans-serif" font-size="13" lengthAdjust="spacingAndGlyphs" textLength="5" x="635.4311" y="671.9422">*</text><!--MD5=[edc107c0a572352bcd12c9afaba4390b]
link Administrator to User--><path d="M394.706,778.791 C555.023,781.992 1042.21,791.72 1196.86,794.807 " fill="none" id="Administrator-User" style="stroke: #A80036; stroke-width: 1.0;"/><text fill="#000000" font-family="sans-serif" font-size="13" lengthAdjust="spacingAndGlyphs" textLength="43" x="802.5" y="782.2541">acts as</text><polygon fill="#000000" points="848.5,775.4348,854.5,778.4348,848.5,781.4348,848.5,775.4348" style="stroke: #000000; stroke-width: 1.0;"/><text fill="#000000" font-family="sans-serif" font-size="13" lengthAdjust="spacingAndGlyphs" textLength="18" x="402.6121" y="775.4474">0,1</text><text fill="#000000" font-family="sans-serif" font-size="13" lengthAdjust="spacingAndGlyphs" textLength="7" x="1181.8761" y="809.4459">1</text><!--MD5=[d633b45690d51141bd211d849cad7ced]
link EmailAPI to User--><path d="M863.564,1035.5732 C935.867,990.055 1111.92,879.225 1196.96,825.684 " fill="none" id="EmailAPI-User" style="stroke: #A80036; stroke-width: 1.0;"/><text fill="#000000" font-family="sans-serif" font-size="13" lengthAdjust="spacingAndGlyphs" textLength="42" x="967" y="922.2541">e-mails</text><polygon fill="#000000" points="1012,915.4348,1018,918.4348,1012,921.4348,1012,915.4348" style="stroke: #000000; stroke-width: 1.0;"/><text fill="#000000" font-family="sans-serif" font-size="13" lengthAdjust="spacingAndGlyphs" textLength="7" x="865.2484" y="1024.8402">1</text><text fill="#000000" font-family="sans-serif" font-size="13" lengthAdjust="spacingAndGlyphs" textLength="5" x="1184.1445" y="845.051">*</text><!--MD5=[cbdd6193c065fcdcc21acc530d8838bb]
link EmailAPI to Freelancer--><path d="M871.821,1064.462 C980.736,1085.3921 1283.57,1126.1042 1446,972.759 C1505.92,916.191 1529.83,675.874 1538.34,551.318 " fill="none" id="EmailAPI-Freelancer" style="stroke: #A80036; stroke-width: 1.0;"/><text fill="#000000" font-family="sans-serif" font-size="13" lengthAdjust="spacingAndGlyphs" textLength="42" x="1074.5" y="1080.2537">e-mails</text><polygon fill="#000000" points="1119.5,1073.4344,1125.5,1076.4344,1119.5,1079.4344,1119.5,1073.4344" style="stroke: #000000; stroke-width: 1.0;"/><text fill="#000000" font-family="sans-serif" font-size="13" lengthAdjust="spacingAndGlyphs" textLength="7" x="879.5246" y="1080.8582">1</text><text fill="#000000" font-family="sans-serif" font-size="13" lengthAdjust="spacingAndGlyphs" textLength="5" x="1532.6338" y="572.5468">*</text><!--MD5=[223a71f1fe5f86b942b67ea14ba64f83]
link Organization to apoint52--><path d="M613.8,628.25 C570.966,629.699 509.089,625.788 464,597.759 C443.586,585.068 453.522,566.783 434,552.759 C301.986,457.92 84.3366,453.933 67.5342,453.766 " fill="none" id="Organization-apoint52" style="stroke: #A80036; stroke-width: 1.0;"/><polygon fill="#000000" points="332,465.4348,326,468.4348,332,471.4348,332,465.4348" style="stroke: #000000; stroke-width: 1.0;"/><text fill="#000000" font-family="sans-serif" font-size="13" lengthAdjust="spacingAndGlyphs" textLength="21" x="338" y="472.2541">has</text><text fill="#000000" font-family="sans-serif" font-size="13" lengthAdjust="spacingAndGlyphs" textLength="7" x="598.8394" y="625.2676">1</text><!--MD5=[7a849b6c291feb48f4c80670ee3f1587]
link apoint52 to Transaction--><path d="M67.494,453.494 C80.531,450.027 218.643,413.298 293.461,393.401 " fill="none" id="apoint52-Transaction" style="stroke: #A80036; stroke-width: 1.0;"/><text fill="#000000" font-family="sans-serif" font-size="13" lengthAdjust="spacingAndGlyphs" textLength="5" x="280.6457" y="410.0838">*</text><!--MD5=[9097a9641b2000f1080a49d1492e7900]
link apoint52 to PaymentDetails--><path d="M65.5,455.768 C65.5,467.348 65.5,478.929 65.5,490.509 " fill="none" id="apoint52-PaymentDetails" style="stroke: #A80036; stroke-width: 1.0; stroke-dasharray: 7.0,7.0;"/><!--MD5=[3d4fdd70c6ab433e0f85a2aa8dfd6f5e]
@startuml MD

skinparam classAttributeIconSize 0
hide methods
left to right direction

class App {

}

class Organization {
        - String nome
}

class Transaction {

}

class Task {
        - String id
        - String description
        - Integer durationInHours
        - Double costPerHourOfJuniorEur
        - String category
}

class PaymentDetails {
        Boolean isPaid
}

class TaskExecutionDetails {
        - Date endDate
        - Integer delayInDays
        - String DescriptionQualityOfWork
}

class Colaborator {
        - String nome
        - String email
        - String password
}

class Manager {
        - String nome
        - String email
        - String password
}

class HistoricalTransactionFile {

}

class PaymentScheduler {
        - Integer dayMonth
        - LocalTime timeOfDay
}

class Administrator {
        - String nome
        - String email
        - String password
}

class EmailScheduler {

}

class User {
        - String nome
        - String email
        - String password
}

class Freelancer {
        - String id
        - String name
        - String levelOfExpertise
        - String email
        - String NIF
        - String bankAccountIBAN
        - String address
        - String country
}

Colaborator                  "1" - - "*"      Transaction               : creates >
Colaborator                  "1" - - "*"      Task                      : creates >
Colaborator                  "1" - - "*"      Freelancer                : creates >
Colaborator                  "1" - - "*"      HistoricalTransactionFile : loads >
Colaborator                "0,1" - - "1"      User                      : acts as >
Manager                      "1" - - "0,1"    PaymentScheduler          : defines >
Manager                    "0,1" - - "1"      User                      : acts as >
Transaction                  "1" - - "1"      Task                      : relative to >
Transaction                  "*" - - "1"      Freelancer                : to >
Transaction                  "*" - - "1"      PaymentAPI                : uses >
Transaction                  "*" - - "1"      Organization              : made on behalf of >
Transaction                  "1" - - "1"      TaskExecutionDetails      : executed with >
TaskExecutionDetails         "1" - - "1"      Task                      : refers to >
HistoricalTransactionFile    "1" - - "*"      Transaction               : records >
PaymentScheduler             "1" - - "*"      Transaction               : schedules payments>
Organization                 "1" - - "1"      Colaborator               : has >
Organization                 "1" - - "1"      Manager                   : has >
Organization                 "1" - - "1"      PaymentScheduler          : uses >
Organization                 "1" - - "*"      Task                      : publishes >
Organization                 "1" - - "*"      Transaction               : has >
Task                         "*" - - "0, 1"   Freelancer                : executed by >
App                          "1" - - "1"      MonetaryUnitConversionAPI : supports >
App                          "1" - - "*"      Organization              : has >
App                          "1" - - "1"      EmailAPI                  : supports >
App                          "1" - - "1"      PaymentAPI                : supports >
App                          "1" - - "*"      Administrator             : has >
App                          "1" - - "*"      Freelancer                : has >
App                          "1" - - "1"      EmailScheduler            : has >
EmailScheduler               "1" - - "1"      EmailAPI                  : uses >
Administrator                "1" - - "*"      Organization              : adds >
Administrator              "0,1" - - "1"      User                      : acts as >
EmailAPI                     "1" - - "*"      User                      : e-mails >
EmailAPI                     "1" - - "*"      Freelancer                : e-mails >
(Organization, Transaction)      ..          PaymentDetails

@enduml

PlantUML version 1.2020.10(Sun May 17 10:35:57 WEST 2020)
(GPL source distribution)
Java Runtime: OpenJDK Runtime Environment
JVM: OpenJDK 64-Bit Server VM
Java Version: 14+36
Operating System: Windows 10
Default Encoding: Cp1252
Language: en
Country: US
--></g></svg>