<?xml version="1.0" encoding="UTF-8" standalone="no"?><svg xmlns="http://www.w3.org/2000/svg" xmlns:xlink="http://www.w3.org/1999/xlink" contentScriptType="application/ecmascript" contentStyleType="text/css" height="1130px" preserveAspectRatio="none" style="width:1625px;height:1130px;" version="1.1" viewBox="0 0 1625 1130" width="1625px" zoomAndPan="magnify"><defs><filter height="300%" id="f1xkuezetua5ls" width="300%" x="-1" y="-1"><feGaussianBlur result="blurOut" stdDeviation="2.0"/><feColorMatrix in="blurOut" result="blurOut2" type="matrix" values="0 0 0 0 0 0 0 0 0 0 0 0 0 0 0 0 0 0 .4 0"/><feOffset dx="4.0" dy="4.0" in="blurOut2" result="blurOut3"/><feBlend in="SourceGraphic" in2="blurOut3" mode="normal"/></filter></defs><g><!--MD5=[335f4d9be48430461c68bf6d6fdba145]
class App--><rect fill="#FEFECE" filter="url(#f1xkuezetua5ls)" height="40" id="App" style="stroke: #A80036; stroke-width: 1.5;" width="53" x="39" y="842.951"/><ellipse cx="54" cy="858.951" fill="#ADD1B2" rx="11" ry="11" style="stroke: #A80036; stroke-width: 1.0;"/><path d="M56.7656,854.826 Q56.9219,854.6073 57.1094,854.4979 Q57.2969,854.3885 57.5156,854.3885 Q57.8906,854.3885 58.125,854.6541 Q58.3594,854.9041 58.3594,855.5135 L58.3594,856.9666 Q58.3594,857.576 58.125,857.8416 Q57.8906,858.1073 57.5156,858.1073 Q57.1719,858.1073 56.9688,857.9041 Q56.7656,857.7166 56.6563,857.201 Q56.6094,856.8416 56.4219,856.6541 Q56.0938,856.2791 55.4844,856.0604 Q54.875,855.8416 54.25,855.8416 Q53.4844,855.8416 52.8438,856.1698 Q52.2188,856.4979 51.7188,857.2479 Q51.2344,857.9979 51.2344,859.0291 L51.2344,860.1229 Q51.2344,861.3573 52.125,862.1854 Q53.0156,862.9979 54.6094,862.9979 Q55.5469,862.9979 56.2031,862.7479 Q56.5938,862.5916 57.0156,862.1541 Q57.2813,861.8885 57.4219,861.8104 Q57.5781,861.7323 57.7813,861.7323 Q58.1094,861.7323 58.3594,861.9979 Q58.625,862.2479 58.625,862.5916 Q58.625,862.9354 58.2813,863.3416 Q57.7813,863.9198 56.9844,864.2479 Q55.9063,864.701 54.6094,864.701 Q53.0938,864.701 51.8906,864.076 Q50.9063,863.576 50.2188,862.5135 Q49.5313,861.4354 49.5313,860.1541 L49.5313,858.9979 Q49.5313,857.6698 50.1406,856.5291 Q50.7656,855.3729 51.8594,854.7635 Q52.9531,854.1385 54.1875,854.1385 Q54.9219,854.1385 55.5625,854.3104 Q56.2188,854.4666 56.7656,854.826 Z "/><text fill="#000000" font-family="sans-serif" font-size="12" lengthAdjust="spacingAndGlyphs" textLength="21" x="68" y="863.8612">App</text><line style="stroke: #A80036; stroke-width: 1.5;" x1="40" x2="91" y1="874.951" y2="874.951"/><!--MD5=[86c7c362de55a38b660185a1328fe18d]
class Organization--><rect fill="#FEFECE" filter="url(#f1xkuezetua5ls)" height="67.6719" id="Organization" style="stroke: #A80036; stroke-width: 1.5;" width="101" x="614" y="585.951"/><ellipse cx="629" cy="601.951" fill="#ADD1B2" rx="11" ry="11" style="stroke: #A80036; stroke-width: 1.0;"/><path d="M631.7656,597.826 Q631.9219,597.6073 632.1094,597.4979 Q632.2969,597.3885 632.5156,597.3885 Q632.8906,597.3885 633.125,597.6541 Q633.3594,597.9041 633.3594,598.5135 L633.3594,599.9666 Q633.3594,600.576 633.125,600.8416 Q632.8906,601.1073 632.5156,601.1073 Q632.1719,601.1073 631.9688,600.9041 Q631.7656,600.7166 631.6563,600.201 Q631.6094,599.8416 631.4219,599.6541 Q631.0938,599.2791 630.4844,599.0604 Q629.875,598.8416 629.25,598.8416 Q628.4844,598.8416 627.8438,599.1698 Q627.2188,599.4979 626.7188,600.2479 Q626.2344,600.9979 626.2344,602.0291 L626.2344,603.1229 Q626.2344,604.3573 627.125,605.1854 Q628.0156,605.9979 629.6094,605.9979 Q630.5469,605.9979 631.2031,605.7479 Q631.5938,605.5916 632.0156,605.1541 Q632.2813,604.8885 632.4219,604.8104 Q632.5781,604.7323 632.7813,604.7323 Q633.1094,604.7323 633.3594,604.9979 Q633.625,605.2479 633.625,605.5916 Q633.625,605.9354 633.2813,606.3416 Q632.7813,606.9198 631.9844,607.2479 Q630.9063,607.701 629.6094,607.701 Q628.0938,607.701 626.8906,607.076 Q625.9063,606.576 625.2188,605.5135 Q624.5313,604.4354 624.5313,603.1541 L624.5313,601.9979 Q624.5313,600.6698 625.1406,599.5291 Q625.7656,598.3729 626.8594,597.7635 Q627.9531,597.1385 629.1875,597.1385 Q629.9219,597.1385 630.5625,597.3104 Q631.2188,597.4666 631.7656,597.826 Z "/><text fill="#000000" font-family="sans-serif" font-size="12" lengthAdjust="spacingAndGlyphs" textLength="69" x="643" y="606.8612">Organization</text><line style="stroke: #A80036; stroke-width: 1.5;" x1="615" x2="714" y1="617.951" y2="617.951"/><text fill="#000000" font-family="sans-serif" font-size="11" lengthAdjust="spacingAndGlyphs" textLength="61" x="620" y="633.3699">-String nome</text><text fill="#000000" font-family="sans-serif" font-size="11" lengthAdjust="spacingAndGlyphs" textLength="50" x="620" y="647.2059">-String NIF</text><!--MD5=[4555bb1b0911a5adf28ce6dbe60fed2e]
class Transaction--><rect fill="#FEFECE" filter="url(#f1xkuezetua5ls)" height="40" id="Transaction" style="stroke: #A80036; stroke-width: 1.5;" width="97" x="293.5" y="349.951"/><ellipse cx="308.5" cy="365.951" fill="#ADD1B2" rx="11" ry="11" style="stroke: #A80036; stroke-width: 1.0;"/><path d="M311.2656,361.826 Q311.4219,361.6073 311.6094,361.4979 Q311.7969,361.3885 312.0156,361.3885 Q312.3906,361.3885 312.625,361.6541 Q312.8594,361.9041 312.8594,362.5135 L312.8594,363.9666 Q312.8594,364.576 312.625,364.8416 Q312.3906,365.1073 312.0156,365.1073 Q311.6719,365.1073 311.4688,364.9041 Q311.2656,364.7166 311.1563,364.201 Q311.1094,363.8416 310.9219,363.6541 Q310.5938,363.2791 309.9844,363.0604 Q309.375,362.8416 308.75,362.8416 Q307.9844,362.8416 307.3438,363.1698 Q306.7188,363.4979 306.2188,364.2479 Q305.7344,364.9979 305.7344,366.0291 L305.7344,367.1229 Q305.7344,368.3573 306.625,369.1854 Q307.5156,369.9979 309.1094,369.9979 Q310.0469,369.9979 310.7031,369.7479 Q311.0938,369.5916 311.5156,369.1541 Q311.7813,368.8885 311.9219,368.8104 Q312.0781,368.7323 312.2813,368.7323 Q312.6094,368.7323 312.8594,368.9979 Q313.125,369.2479 313.125,369.5916 Q313.125,369.9354 312.7813,370.3416 Q312.2813,370.9198 311.4844,371.2479 Q310.4063,371.701 309.1094,371.701 Q307.5938,371.701 306.3906,371.076 Q305.4063,370.576 304.7188,369.5135 Q304.0313,368.4354 304.0313,367.1541 L304.0313,365.9979 Q304.0313,364.6698 304.6406,363.5291 Q305.2656,362.3729 306.3594,361.7635 Q307.4531,361.1385 308.6875,361.1385 Q309.4219,361.1385 310.0625,361.3104 Q310.7188,361.4666 311.2656,361.826 Z "/><text fill="#000000" font-family="sans-serif" font-size="12" lengthAdjust="spacingAndGlyphs" textLength="65" x="322.5" y="370.8612">Transaction</text><line style="stroke: #A80036; stroke-width: 1.5;" x1="294.5" x2="389.5" y1="381.951" y2="381.951"/><!--MD5=[b34797a66dc35cbf1d65f7e3ca75530e]
class Task--><rect fill="#FEFECE" filter="url(#f1xkuezetua5ls)" height="109.1797" id="Task" style="stroke: #A80036; stroke-width: 1.5;" width="169" x="1164" y="238.451"/><ellipse cx="1230.75" cy="254.451" fill="#ADD1B2" rx="11" ry="11" style="stroke: #A80036; stroke-width: 1.0;"/><path d="M1233.5156,250.326 Q1233.6719,250.1073 1233.8594,249.9979 Q1234.0469,249.8885 1234.2656,249.8885 Q1234.6406,249.8885 1234.875,250.1541 Q1235.1094,250.4041 1235.1094,251.0135 L1235.1094,252.4666 Q1235.1094,253.076 1234.875,253.3416 Q1234.6406,253.6073 1234.2656,253.6073 Q1233.9219,253.6073 1233.7188,253.4041 Q1233.5156,253.2166 1233.4063,252.701 Q1233.3594,252.3416 1233.1719,252.1541 Q1232.8438,251.7791 1232.2344,251.5604 Q1231.625,251.3416 1231,251.3416 Q1230.2344,251.3416 1229.5938,251.6698 Q1228.9688,251.9979 1228.4688,252.7479 Q1227.9844,253.4979 1227.9844,254.5291 L1227.9844,255.6229 Q1227.9844,256.8573 1228.875,257.6854 Q1229.7656,258.4979 1231.3594,258.4979 Q1232.2969,258.4979 1232.9531,258.2479 Q1233.3438,258.0916 1233.7656,257.6541 Q1234.0313,257.3885 1234.1719,257.3104 Q1234.3281,257.2323 1234.5313,257.2323 Q1234.8594,257.2323 1235.1094,257.4979 Q1235.375,257.7479 1235.375,258.0916 Q1235.375,258.4354 1235.0313,258.8416 Q1234.5313,259.4198 1233.7344,259.7479 Q1232.6563,260.201 1231.3594,260.201 Q1229.8438,260.201 1228.6406,259.576 Q1227.6563,259.076 1226.9688,258.0135 Q1226.2813,256.9354 1226.2813,255.6541 L1226.2813,254.4979 Q1226.2813,253.1698 1226.8906,252.0291 Q1227.5156,250.8729 1228.6094,250.2635 Q1229.7031,249.6385 1230.9375,249.6385 Q1231.6719,249.6385 1232.3125,249.8104 Q1232.9688,249.9666 1233.5156,250.326 Z "/><text fill="#000000" font-family="sans-serif" font-size="12" lengthAdjust="spacingAndGlyphs" textLength="27" x="1251.25" y="259.3612">Task</text><line style="stroke: #A80036; stroke-width: 1.5;" x1="1165" x2="1332" y1="270.451" y2="270.451"/><text fill="#000000" font-family="sans-serif" font-size="11" lengthAdjust="spacingAndGlyphs" textLength="43" x="1170" y="285.8699">-String id</text><text fill="#000000" font-family="sans-serif" font-size="11" lengthAdjust="spacingAndGlyphs" textLength="88" x="1170" y="299.7059">-String description</text><text fill="#000000" font-family="sans-serif" font-size="11" lengthAdjust="spacingAndGlyphs" textLength="116" x="1170" y="313.5418">-Integer durationInHours</text><text fill="#000000" font-family="sans-serif" font-size="11" lengthAdjust="spacingAndGlyphs" textLength="157" x="1170" y="327.3778">-Double costPerHourOfJuniorEur</text><text fill="#000000" font-family="sans-serif" font-size="11" lengthAdjust="spacingAndGlyphs" textLength="78" x="1170" y="341.2137">-String category</text><!--MD5=[c0dc12954b7564a58826a1327fba5c89]
class PaymentDetails--><rect fill="#FEFECE" filter="url(#f1xkuezetua5ls)" height="53.8359" id="PaymentDetails" style="stroke: #A80036; stroke-width: 1.5;" width="119" x="6" y="479.951"/><ellipse cx="21" cy="495.951" fill="#ADD1B2" rx="11" ry="11" style="stroke: #A80036; stroke-width: 1.0;"/><path d="M23.7656,491.826 Q23.9219,491.6073 24.1094,491.4979 Q24.2969,491.3885 24.5156,491.3885 Q24.8906,491.3885 25.125,491.6541 Q25.3594,491.9041 25.3594,492.5135 L25.3594,493.9666 Q25.3594,494.576 25.125,494.8416 Q24.8906,495.1073 24.5156,495.1073 Q24.1719,495.1073 23.9688,494.9041 Q23.7656,494.7166 23.6563,494.201 Q23.6094,493.8416 23.4219,493.6541 Q23.0938,493.2791 22.4844,493.0604 Q21.875,492.8416 21.25,492.8416 Q20.4844,492.8416 19.8438,493.1698 Q19.2188,493.4979 18.7188,494.2479 Q18.2344,494.9979 18.2344,496.0291 L18.2344,497.1229 Q18.2344,498.3573 19.125,499.1854 Q20.0156,499.9979 21.6094,499.9979 Q22.5469,499.9979 23.2031,499.7479 Q23.5938,499.5916 24.0156,499.1541 Q24.2813,498.8885 24.4219,498.8104 Q24.5781,498.7323 24.7813,498.7323 Q25.1094,498.7323 25.3594,498.9979 Q25.625,499.2479 25.625,499.5916 Q25.625,499.9354 25.2813,500.3416 Q24.7813,500.9198 23.9844,501.2479 Q22.9063,501.701 21.6094,501.701 Q20.0938,501.701 18.8906,501.076 Q17.9063,500.576 17.2188,499.5135 Q16.5313,498.4354 16.5313,497.1541 L16.5313,495.9979 Q16.5313,494.6698 17.1406,493.5291 Q17.7656,492.3729 18.8594,491.7635 Q19.9531,491.1385 21.1875,491.1385 Q21.9219,491.1385 22.5625,491.3104 Q23.2188,491.4666 23.7656,491.826 Z "/><text fill="#000000" font-family="sans-serif" font-size="12" lengthAdjust="spacingAndGlyphs" textLength="87" x="35" y="500.8612">PaymentDetails</text><line style="stroke: #A80036; stroke-width: 1.5;" x1="7" x2="124" y1="511.951" y2="511.951"/><text fill="#000000" font-family="sans-serif" font-size="11" lengthAdjust="spacingAndGlyphs" textLength="70" x="12" y="527.3699">Boolean isPaid</text><!--MD5=[f9fa7692a1144bec397c3ffa19589ca2]
class TaskExecutionDetails--><rect fill="#FEFECE" filter="url(#f1xkuezetua5ls)" height="81.5078" id="TaskExecutionDetails" style="stroke: #A80036; stroke-width: 1.5;" width="171" x="745" y="156.951"/><ellipse cx="769" cy="172.951" fill="#ADD1B2" rx="11" ry="11" style="stroke: #A80036; stroke-width: 1.0;"/><path d="M771.7656,168.826 Q771.9219,168.6073 772.1094,168.4979 Q772.2969,168.3885 772.5156,168.3885 Q772.8906,168.3885 773.125,168.6541 Q773.3594,168.9041 773.3594,169.5135 L773.3594,170.9666 Q773.3594,171.576 773.125,171.8416 Q772.8906,172.1073 772.5156,172.1073 Q772.1719,172.1073 771.9688,171.9041 Q771.7656,171.7166 771.6563,171.201 Q771.6094,170.8416 771.4219,170.6541 Q771.0938,170.2791 770.4844,170.0604 Q769.875,169.8416 769.25,169.8416 Q768.4844,169.8416 767.8438,170.1698 Q767.2188,170.4979 766.7188,171.2479 Q766.2344,171.9979 766.2344,173.0291 L766.2344,174.1229 Q766.2344,175.3573 767.125,176.1854 Q768.0156,176.9979 769.6094,176.9979 Q770.5469,176.9979 771.2031,176.7479 Q771.5938,176.5916 772.0156,176.1541 Q772.2813,175.8885 772.4219,175.8104 Q772.5781,175.7323 772.7813,175.7323 Q773.1094,175.7323 773.3594,175.9979 Q773.625,176.2479 773.625,176.5916 Q773.625,176.9354 773.2813,177.3416 Q772.7813,177.9198 771.9844,178.2479 Q770.9063,178.701 769.6094,178.701 Q768.0938,178.701 766.8906,178.076 Q765.9063,177.576 765.2188,176.5135 Q764.5313,175.4354 764.5313,174.1541 L764.5313,172.9979 Q764.5313,171.6698 765.1406,170.5291 Q765.7656,169.3729 766.8594,168.7635 Q767.9531,168.1385 769.1875,168.1385 Q769.9219,168.1385 770.5625,168.3104 Q771.2188,168.4666 771.7656,168.826 Z "/><text fill="#000000" font-family="sans-serif" font-size="12" lengthAdjust="spacingAndGlyphs" textLength="119" x="785" y="177.8612">TaskExecutionDetails</text><line style="stroke: #A80036; stroke-width: 1.5;" x1="746" x2="915" y1="188.951" y2="188.951"/><text fill="#000000" font-family="sans-serif" font-size="11" lengthAdjust="spacingAndGlyphs" textLength="69" x="751" y="204.3699">-Date endDate</text><text fill="#000000" font-family="sans-serif" font-size="11" lengthAdjust="spacingAndGlyphs" textLength="99" x="751" y="218.2059">-Integer delayInDays</text><text fill="#000000" font-family="sans-serif" font-size="11" lengthAdjust="spacingAndGlyphs" textLength="159" x="751" y="232.0418">-String DescriptionQualityOfWork</text><!--MD5=[f483d6e5de34a60207b28a5563be5e8b]
class Collaborator--><rect fill="#FEFECE" filter="url(#f1xkuezetua5ls)" height="81.5078" id="Collaborator" style="stroke: #A80036; stroke-width: 1.5;" width="100" x="946" y="413.951"/><ellipse cx="961" cy="429.951" fill="#ADD1B2" rx="11" ry="11" style="stroke: #A80036; stroke-width: 1.0;"/><path d="M963.7656,425.826 Q963.9219,425.6073 964.1094,425.4979 Q964.2969,425.3885 964.5156,425.3885 Q964.8906,425.3885 965.125,425.6541 Q965.3594,425.9041 965.3594,426.5135 L965.3594,427.9666 Q965.3594,428.576 965.125,428.8416 Q964.8906,429.1073 964.5156,429.1073 Q964.1719,429.1073 963.9688,428.9041 Q963.7656,428.7166 963.6563,428.201 Q963.6094,427.8416 963.4219,427.6541 Q963.0938,427.2791 962.4844,427.0604 Q961.875,426.8416 961.25,426.8416 Q960.4844,426.8416 959.8438,427.1698 Q959.2188,427.4979 958.7188,428.2479 Q958.2344,428.9979 958.2344,430.0291 L958.2344,431.1229 Q958.2344,432.3573 959.125,433.1854 Q960.0156,433.9979 961.6094,433.9979 Q962.5469,433.9979 963.2031,433.7479 Q963.5938,433.5916 964.0156,433.1541 Q964.2813,432.8885 964.4219,432.8104 Q964.5781,432.7323 964.7813,432.7323 Q965.1094,432.7323 965.3594,432.9979 Q965.625,433.2479 965.625,433.5916 Q965.625,433.9354 965.2813,434.3416 Q964.7813,434.9198 963.9844,435.2479 Q962.9063,435.701 961.6094,435.701 Q960.0938,435.701 958.8906,435.076 Q957.9063,434.576 957.2188,433.5135 Q956.5313,432.4354 956.5313,431.1541 L956.5313,429.9979 Q956.5313,428.6698 957.1406,427.5291 Q957.7656,426.3729 958.8594,425.7635 Q959.9531,425.1385 961.1875,425.1385 Q961.9219,425.1385 962.5625,425.3104 Q963.2188,425.4666 963.7656,425.826 Z "/><text fill="#000000" font-family="sans-serif" font-size="12" lengthAdjust="spacingAndGlyphs" textLength="68" x="975" y="434.8612">Collaborator</text><line style="stroke: #A80036; stroke-width: 1.5;" x1="947" x2="1045" y1="445.951" y2="445.951"/><text fill="#000000" font-family="sans-serif" font-size="11" lengthAdjust="spacingAndGlyphs" textLength="61" x="952" y="461.3699">-String nome</text><text fill="#000000" font-family="sans-serif" font-size="11" lengthAdjust="spacingAndGlyphs" textLength="59" x="952" y="475.2059">-String email</text><text fill="#000000" font-family="sans-serif" font-size="11" lengthAdjust="spacingAndGlyphs" textLength="85" x="952" y="489.0418">-String password</text><!--MD5=[b24ed8d4ae84bae9290d9aab401637c7]
class Manager--><rect fill="#FEFECE" filter="url(#f1xkuezetua5ls)" height="81.5078" id="Manager" style="stroke: #A80036; stroke-width: 1.5;" width="97" x="947.5" y="689.951"/><ellipse cx="970.15" cy="705.951" fill="#ADD1B2" rx="11" ry="11" style="stroke: #A80036; stroke-width: 1.0;"/><path d="M972.9156,701.826 Q973.0719,701.6073 973.2594,701.4979 Q973.4469,701.3885 973.6656,701.3885 Q974.0406,701.3885 974.275,701.6541 Q974.5094,701.9041 974.5094,702.5135 L974.5094,703.9666 Q974.5094,704.576 974.275,704.8416 Q974.0406,705.1073 973.6656,705.1073 Q973.3219,705.1073 973.1188,704.9041 Q972.9156,704.7166 972.8063,704.201 Q972.7594,703.8416 972.5719,703.6541 Q972.2438,703.2791 971.6344,703.0604 Q971.025,702.8416 970.4,702.8416 Q969.6344,702.8416 968.9938,703.1698 Q968.3688,703.4979 967.8688,704.2479 Q967.3844,704.9979 967.3844,706.0291 L967.3844,707.1229 Q967.3844,708.3573 968.275,709.1854 Q969.1656,709.9979 970.7594,709.9979 Q971.6969,709.9979 972.3531,709.7479 Q972.7438,709.5916 973.1656,709.1541 Q973.4313,708.8885 973.5719,708.8104 Q973.7281,708.7323 973.9313,708.7323 Q974.2594,708.7323 974.5094,708.9979 Q974.775,709.2479 974.775,709.5916 Q974.775,709.9354 974.4313,710.3416 Q973.9313,710.9198 973.1344,711.2479 Q972.0563,711.701 970.7594,711.701 Q969.2438,711.701 968.0406,711.076 Q967.0563,710.576 966.3688,709.5135 Q965.6813,708.4354 965.6813,707.1541 L965.6813,705.9979 Q965.6813,704.6698 966.2906,703.5291 Q966.9156,702.3729 968.0094,701.7635 Q969.1031,701.1385 970.3375,701.1385 Q971.0719,701.1385 971.7125,701.3104 Q972.3688,701.4666 972.9156,701.826 Z "/><text fill="#000000" font-family="sans-serif" font-size="12" lengthAdjust="spacingAndGlyphs" textLength="48" x="985.85" y="710.8612">Manager</text><line style="stroke: #A80036; stroke-width: 1.5;" x1="948.5" x2="1043.5" y1="721.951" y2="721.951"/><text fill="#000000" font-family="sans-serif" font-size="11" lengthAdjust="spacingAndGlyphs" textLength="61" x="953.5" y="737.3699">-String nome</text><text fill="#000000" font-family="sans-serif" font-size="11" lengthAdjust="spacingAndGlyphs" textLength="59" x="953.5" y="751.2059">-String email</text><text fill="#000000" font-family="sans-serif" font-size="11" lengthAdjust="spacingAndGlyphs" textLength="85" x="953.5" y="765.0418">-String password</text><!--MD5=[6e5bbc712ea226b699d2ce44e283e8b8]
class HistoricalTransactionFile--><rect fill="#FEFECE" filter="url(#f1xkuezetua5ls)" height="40" id="HistoricalTransactionFile" style="stroke: #A80036; stroke-width: 1.5;" width="169" x="1164" y="382.951"/><ellipse cx="1179" cy="398.951" fill="#ADD1B2" rx="11" ry="11" style="stroke: #A80036; stroke-width: 1.0;"/><path d="M1181.7656,394.826 Q1181.9219,394.6073 1182.1094,394.4979 Q1182.2969,394.3885 1182.5156,394.3885 Q1182.8906,394.3885 1183.125,394.6541 Q1183.3594,394.9041 1183.3594,395.5135 L1183.3594,396.9666 Q1183.3594,397.576 1183.125,397.8416 Q1182.8906,398.1073 1182.5156,398.1073 Q1182.1719,398.1073 1181.9688,397.9041 Q1181.7656,397.7166 1181.6563,397.201 Q1181.6094,396.8416 1181.4219,396.6541 Q1181.0938,396.2791 1180.4844,396.0604 Q1179.875,395.8416 1179.25,395.8416 Q1178.4844,395.8416 1177.8438,396.1698 Q1177.2188,396.4979 1176.7188,397.2479 Q1176.2344,397.9979 1176.2344,399.0291 L1176.2344,400.1229 Q1176.2344,401.3573 1177.125,402.1854 Q1178.0156,402.9979 1179.6094,402.9979 Q1180.5469,402.9979 1181.2031,402.7479 Q1181.5938,402.5916 1182.0156,402.1541 Q1182.2813,401.8885 1182.4219,401.8104 Q1182.5781,401.7323 1182.7813,401.7323 Q1183.1094,401.7323 1183.3594,401.9979 Q1183.625,402.2479 1183.625,402.5916 Q1183.625,402.9354 1183.2813,403.3416 Q1182.7813,403.9198 1181.9844,404.2479 Q1180.9063,404.701 1179.6094,404.701 Q1178.0938,404.701 1176.8906,404.076 Q1175.9063,403.576 1175.2188,402.5135 Q1174.5313,401.4354 1174.5313,400.1541 L1174.5313,398.9979 Q1174.5313,397.6698 1175.1406,396.5291 Q1175.7656,395.3729 1176.8594,394.7635 Q1177.9531,394.1385 1179.1875,394.1385 Q1179.9219,394.1385 1180.5625,394.3104 Q1181.2188,394.4666 1181.7656,394.826 Z "/><text fill="#000000" font-family="sans-serif" font-size="12" lengthAdjust="spacingAndGlyphs" textLength="137" x="1193" y="403.8612">HistoricalTransactionFile</text><line style="stroke: #A80036; stroke-width: 1.5;" x1="1165" x2="1332" y1="414.951" y2="414.951"/><!--MD5=[dc84a4e894a42f8e8d7fc762e5a59f92]
class PaymentScheduler--><rect fill="#FEFECE" filter="url(#f1xkuezetua5ls)" height="67.6719" id="PaymentScheduler" style="stroke: #A80036; stroke-width: 1.5;" width="136" x="1180.5" y="585.951"/><ellipse cx="1195.5" cy="601.951" fill="#ADD1B2" rx="11" ry="11" style="stroke: #A80036; stroke-width: 1.0;"/><path d="M1198.2656,597.826 Q1198.4219,597.6073 1198.6094,597.4979 Q1198.7969,597.3885 1199.0156,597.3885 Q1199.3906,597.3885 1199.625,597.6541 Q1199.8594,597.9041 1199.8594,598.5135 L1199.8594,599.9666 Q1199.8594,600.576 1199.625,600.8416 Q1199.3906,601.1073 1199.0156,601.1073 Q1198.6719,601.1073 1198.4688,600.9041 Q1198.2656,600.7166 1198.1563,600.201 Q1198.1094,599.8416 1197.9219,599.6541 Q1197.5938,599.2791 1196.9844,599.0604 Q1196.375,598.8416 1195.75,598.8416 Q1194.9844,598.8416 1194.3438,599.1698 Q1193.7188,599.4979 1193.2188,600.2479 Q1192.7344,600.9979 1192.7344,602.0291 L1192.7344,603.1229 Q1192.7344,604.3573 1193.625,605.1854 Q1194.5156,605.9979 1196.1094,605.9979 Q1197.0469,605.9979 1197.7031,605.7479 Q1198.0938,605.5916 1198.5156,605.1541 Q1198.7813,604.8885 1198.9219,604.8104 Q1199.0781,604.7323 1199.2813,604.7323 Q1199.6094,604.7323 1199.8594,604.9979 Q1200.125,605.2479 1200.125,605.5916 Q1200.125,605.9354 1199.7813,606.3416 Q1199.2813,606.9198 1198.4844,607.2479 Q1197.4063,607.701 1196.1094,607.701 Q1194.5938,607.701 1193.3906,607.076 Q1192.4063,606.576 1191.7188,605.5135 Q1191.0313,604.4354 1191.0313,603.1541 L1191.0313,601.9979 Q1191.0313,600.6698 1191.6406,599.5291 Q1192.2656,598.3729 1193.3594,597.7635 Q1194.4531,597.1385 1195.6875,597.1385 Q1196.4219,597.1385 1197.0625,597.3104 Q1197.7188,597.4666 1198.2656,597.826 Z "/><text fill="#000000" font-family="sans-serif" font-size="12" lengthAdjust="spacingAndGlyphs" textLength="104" x="1209.5" y="606.8612">PaymentScheduler</text><line style="stroke: #A80036; stroke-width: 1.5;" x1="1181.5" x2="1315.5" y1="617.951" y2="617.951"/><text fill="#000000" font-family="sans-serif" font-size="11" lengthAdjust="spacingAndGlyphs" textLength="87" x="1186.5" y="633.3699">-Integer dayMonth</text><text fill="#000000" font-family="sans-serif" font-size="11" lengthAdjust="spacingAndGlyphs" textLength="105" x="1186.5" y="647.2059">-LocalTime timeOfDay</text><!--MD5=[da547346deef918ea16944ba046651ef]
class Administrator--><rect fill="#FEFECE" filter="url(#f1xkuezetua5ls)" height="81.5078" id="Administrator" style="stroke: #A80036; stroke-width: 1.5;" width="105" x="289.5" y="725.951"/><ellipse cx="304.5" cy="741.951" fill="#ADD1B2" rx="11" ry="11" style="stroke: #A80036; stroke-width: 1.0;"/><path d="M307.2656,737.826 Q307.4219,737.6073 307.6094,737.4979 Q307.7969,737.3885 308.0156,737.3885 Q308.3906,737.3885 308.625,737.6541 Q308.8594,737.9041 308.8594,738.5135 L308.8594,739.9666 Q308.8594,740.576 308.625,740.8416 Q308.3906,741.1073 308.0156,741.1073 Q307.6719,741.1073 307.4688,740.9041 Q307.2656,740.7166 307.1563,740.201 Q307.1094,739.8416 306.9219,739.6541 Q306.5938,739.2791 305.9844,739.0604 Q305.375,738.8416 304.75,738.8416 Q303.9844,738.8416 303.3438,739.1698 Q302.7188,739.4979 302.2188,740.2479 Q301.7344,740.9979 301.7344,742.0291 L301.7344,743.1229 Q301.7344,744.3573 302.625,745.1854 Q303.5156,745.9979 305.1094,745.9979 Q306.0469,745.9979 306.7031,745.7479 Q307.0938,745.5916 307.5156,745.1541 Q307.7813,744.8885 307.9219,744.8104 Q308.0781,744.7323 308.2813,744.7323 Q308.6094,744.7323 308.8594,744.9979 Q309.125,745.2479 309.125,745.5916 Q309.125,745.9354 308.7813,746.3416 Q308.2813,746.9198 307.4844,747.2479 Q306.4063,747.701 305.1094,747.701 Q303.5938,747.701 302.3906,747.076 Q301.4063,746.576 300.7188,745.5135 Q300.0313,744.4354 300.0313,743.1541 L300.0313,741.9979 Q300.0313,740.6698 300.6406,739.5291 Q301.2656,738.3729 302.3594,737.7635 Q303.4531,737.1385 304.6875,737.1385 Q305.4219,737.1385 306.0625,737.3104 Q306.7188,737.4666 307.2656,737.826 Z "/><text fill="#000000" font-family="sans-serif" font-size="12" lengthAdjust="spacingAndGlyphs" textLength="73" x="318.5" y="746.8612">Administrator</text><line style="stroke: #A80036; stroke-width: 1.5;" x1="290.5" x2="393.5" y1="757.951" y2="757.951"/><text fill="#000000" font-family="sans-serif" font-size="11" lengthAdjust="spacingAndGlyphs" textLength="61" x="295.5" y="773.3699">-String nome</text><text fill="#000000" font-family="sans-serif" font-size="11" lengthAdjust="spacingAndGlyphs" textLength="59" x="295.5" y="787.2059">-String email</text><text fill="#000000" font-family="sans-serif" font-size="11" lengthAdjust="spacingAndGlyphs" textLength="85" x="295.5" y="801.0418">-String password</text><!--MD5=[942000697ba2ca87a591befaf65c4861]
class EmailScheduler--><rect fill="#FEFECE" filter="url(#f1xkuezetua5ls)" height="40" id="EmailScheduler" style="stroke: #A80036; stroke-width: 1.5;" width="120" x="464" y="1070.9509"/><ellipse cx="479" cy="1086.9509" fill="#ADD1B2" rx="11" ry="11" style="stroke: #A80036; stroke-width: 1.0;"/><path d="M481.7656,1082.8259 Q481.9219,1082.6072 482.1094,1082.4978 Q482.2969,1082.3884 482.5156,1082.3884 Q482.8906,1082.3884 483.125,1082.654 Q483.3594,1082.904 483.3594,1083.5134 L483.3594,1084.9665 Q483.3594,1085.5759 483.125,1085.8415 Q482.8906,1086.1072 482.5156,1086.1072 Q482.1719,1086.1072 481.9688,1085.904 Q481.7656,1085.7165 481.6563,1085.2009 Q481.6094,1084.8415 481.4219,1084.654 Q481.0938,1084.279 480.4844,1084.0603 Q479.875,1083.8415 479.25,1083.8415 Q478.4844,1083.8415 477.8438,1084.1697 Q477.2188,1084.4978 476.7188,1085.2478 Q476.2344,1085.9978 476.2344,1087.029 L476.2344,1088.1228 Q476.2344,1089.3572 477.125,1090.1853 Q478.0156,1090.9978 479.6094,1090.9978 Q480.5469,1090.9978 481.2031,1090.7478 Q481.5938,1090.5915 482.0156,1090.154 Q482.2813,1089.8884 482.4219,1089.8103 Q482.5781,1089.7322 482.7813,1089.7322 Q483.1094,1089.7322 483.3594,1089.9978 Q483.625,1090.2478 483.625,1090.5915 Q483.625,1090.9353 483.2813,1091.3415 Q482.7813,1091.9197 481.9844,1092.2478 Q480.9063,1092.7009 479.6094,1092.7009 Q478.0938,1092.7009 476.8906,1092.0759 Q475.9063,1091.5759 475.2188,1090.5134 Q474.5313,1089.4353 474.5313,1088.154 L474.5313,1086.9978 Q474.5313,1085.6697 475.1406,1084.529 Q475.7656,1083.3728 476.8594,1082.7634 Q477.9531,1082.1384 479.1875,1082.1384 Q479.9219,1082.1384 480.5625,1082.3103 Q481.2188,1082.4665 481.7656,1082.8259 Z "/><text fill="#000000" font-family="sans-serif" font-size="12" lengthAdjust="spacingAndGlyphs" textLength="88" x="493" y="1091.8611">EmailScheduler</text><line style="stroke: #A80036; stroke-width: 1.5;" x1="465" x2="583" y1="1102.9509" y2="1102.9509"/><!--MD5=[3fd616f346a44cd59a91eb10b19e157c]
class User--><rect fill="#FEFECE" filter="url(#f1xkuezetua5ls)" height="81.5078" id="User" style="stroke: #A80036; stroke-width: 1.5;" width="97" x="1200" y="754.951"/><ellipse cx="1232.1" cy="770.951" fill="#ADD1B2" rx="11" ry="11" style="stroke: #A80036; stroke-width: 1.0;"/><path d="M1234.8656,766.826 Q1235.0219,766.6073 1235.2094,766.4979 Q1235.3969,766.3885 1235.6156,766.3885 Q1235.9906,766.3885 1236.225,766.6541 Q1236.4594,766.9041 1236.4594,767.5135 L1236.4594,768.9666 Q1236.4594,769.576 1236.225,769.8416 Q1235.9906,770.1073 1235.6156,770.1073 Q1235.2719,770.1073 1235.0688,769.9041 Q1234.8656,769.7166 1234.7563,769.201 Q1234.7094,768.8416 1234.5219,768.6541 Q1234.1938,768.2791 1233.5844,768.0604 Q1232.975,767.8416 1232.35,767.8416 Q1231.5844,767.8416 1230.9438,768.1698 Q1230.3188,768.4979 1229.8188,769.2479 Q1229.3344,769.9979 1229.3344,771.0291 L1229.3344,772.1229 Q1229.3344,773.3573 1230.225,774.1854 Q1231.1156,774.9979 1232.7094,774.9979 Q1233.6469,774.9979 1234.3031,774.7479 Q1234.6938,774.5916 1235.1156,774.1541 Q1235.3813,773.8885 1235.5219,773.8104 Q1235.6781,773.7323 1235.8813,773.7323 Q1236.2094,773.7323 1236.4594,773.9979 Q1236.725,774.2479 1236.725,774.5916 Q1236.725,774.9354 1236.3813,775.3416 Q1235.8813,775.9198 1235.0844,776.2479 Q1234.0063,776.701 1232.7094,776.701 Q1231.1938,776.701 1229.9906,776.076 Q1229.0063,775.576 1228.3188,774.5135 Q1227.6313,773.4354 1227.6313,772.1541 L1227.6313,770.9979 Q1227.6313,769.6698 1228.2406,768.5291 Q1228.8656,767.3729 1229.9594,766.7635 Q1231.0531,766.1385 1232.2875,766.1385 Q1233.0219,766.1385 1233.6625,766.3104 Q1234.3188,766.4666 1234.8656,766.826 Z "/><text fill="#000000" font-family="sans-serif" font-size="12" lengthAdjust="spacingAndGlyphs" textLength="27" x="1249.9" y="775.8612">User</text><line style="stroke: #A80036; stroke-width: 1.5;" x1="1201" x2="1296" y1="786.951" y2="786.951"/><text fill="#000000" font-family="sans-serif" font-size="11" lengthAdjust="spacingAndGlyphs" textLength="61" x="1206" y="802.3699">-String nome</text><text fill="#000000" font-family="sans-serif" font-size="11" lengthAdjust="spacingAndGlyphs" textLength="59" x="1206" y="816.2059">-String email</text><text fill="#000000" font-family="sans-serif" font-size="11" lengthAdjust="spacingAndGlyphs" textLength="85" x="1206" y="830.0418">-String password</text><!--MD5=[1f687b5315377fe49fca59b457947463]
class Freelancer--><rect fill="#FEFECE" filter="url(#f1xkuezetua5ls)" height="150.6875" id="Freelancer" style="stroke: #A80036; stroke-width: 1.5;" width="135" x="1479" y="400.451"/><ellipse cx="1513.8" cy="416.451" fill="#ADD1B2" rx="11" ry="11" style="stroke: #A80036; stroke-width: 1.0;"/><path d="M1516.5656,412.326 Q1516.7219,412.1073 1516.9094,411.9979 Q1517.0969,411.8885 1517.3156,411.8885 Q1517.6906,411.8885 1517.925,412.1541 Q1518.1594,412.4041 1518.1594,413.0135 L1518.1594,414.4666 Q1518.1594,415.076 1517.925,415.3416 Q1517.6906,415.6073 1517.3156,415.6073 Q1516.9719,415.6073 1516.7688,415.4041 Q1516.5656,415.2166 1516.4563,414.701 Q1516.4094,414.3416 1516.2219,414.1541 Q1515.8938,413.7791 1515.2844,413.5604 Q1514.675,413.3416 1514.05,413.3416 Q1513.2844,413.3416 1512.6438,413.6698 Q1512.0188,413.9979 1511.5188,414.7479 Q1511.0344,415.4979 1511.0344,416.5291 L1511.0344,417.6229 Q1511.0344,418.8573 1511.925,419.6854 Q1512.8156,420.4979 1514.4094,420.4979 Q1515.3469,420.4979 1516.0031,420.2479 Q1516.3938,420.0916 1516.8156,419.6541 Q1517.0813,419.3885 1517.2219,419.3104 Q1517.3781,419.2323 1517.5813,419.2323 Q1517.9094,419.2323 1518.1594,419.4979 Q1518.425,419.7479 1518.425,420.0916 Q1518.425,420.4354 1518.0813,420.8416 Q1517.5813,421.4198 1516.7844,421.7479 Q1515.7063,422.201 1514.4094,422.201 Q1512.8938,422.201 1511.6906,421.576 Q1510.7063,421.076 1510.0188,420.0135 Q1509.3313,418.9354 1509.3313,417.6541 L1509.3313,416.4979 Q1509.3313,415.1698 1509.9406,414.0291 Q1510.5656,412.8729 1511.6594,412.2635 Q1512.7531,411.6385 1513.9875,411.6385 Q1514.7219,411.6385 1515.3625,411.8104 Q1516.0188,411.9666 1516.5656,412.326 Z "/><text fill="#000000" font-family="sans-serif" font-size="12" lengthAdjust="spacingAndGlyphs" textLength="59" x="1532.2" y="421.3612">Freelancer</text><line style="stroke: #A80036; stroke-width: 1.5;" x1="1480" x2="1613" y1="432.451" y2="432.451"/><text fill="#000000" font-family="sans-serif" font-size="11" lengthAdjust="spacingAndGlyphs" textLength="43" x="1485" y="447.8699">-String id</text><text fill="#000000" font-family="sans-serif" font-size="11" lengthAdjust="spacingAndGlyphs" textLength="61" x="1485" y="461.7059">-String name</text><text fill="#000000" font-family="sans-serif" font-size="11" lengthAdjust="spacingAndGlyphs" textLength="114" x="1485" y="475.5418">-String levelOfExpertise</text><text fill="#000000" font-family="sans-serif" font-size="11" lengthAdjust="spacingAndGlyphs" textLength="59" x="1485" y="489.3778">-String email</text><text fill="#000000" font-family="sans-serif" font-size="11" lengthAdjust="spacingAndGlyphs" textLength="50" x="1485" y="503.2137">-String NIF</text><text fill="#000000" font-family="sans-serif" font-size="11" lengthAdjust="spacingAndGlyphs" textLength="123" x="1485" y="517.0496">-String bankAccountIBAN</text><text fill="#000000" font-family="sans-serif" font-size="11" lengthAdjust="spacingAndGlyphs" textLength="75" x="1485" y="530.8856">-String address</text><text fill="#000000" font-family="sans-serif" font-size="11" lengthAdjust="spacingAndGlyphs" textLength="72" x="1485" y="544.7215">-String country</text><!--MD5=[b9b2b358c4596a7c3c612fa1a577c109]
class PaymentAPI--><rect fill="#FEFECE" filter="url(#f1xkuezetua5ls)" height="40" id="PaymentAPI" style="stroke: #A80036; stroke-width: 1.5;" width="98" x="615.5" y="510.951"/><ellipse cx="630.5" cy="526.951" fill="#ADD1B2" rx="11" ry="11" style="stroke: #A80036; stroke-width: 1.0;"/><path d="M633.2656,522.826 Q633.4219,522.6073 633.6094,522.4979 Q633.7969,522.3885 634.0156,522.3885 Q634.3906,522.3885 634.625,522.6541 Q634.8594,522.9041 634.8594,523.5135 L634.8594,524.9666 Q634.8594,525.576 634.625,525.8416 Q634.3906,526.1073 634.0156,526.1073 Q633.6719,526.1073 633.4688,525.9041 Q633.2656,525.7166 633.1563,525.201 Q633.1094,524.8416 632.9219,524.6541 Q632.5938,524.2791 631.9844,524.0604 Q631.375,523.8416 630.75,523.8416 Q629.9844,523.8416 629.3438,524.1698 Q628.7188,524.4979 628.2188,525.2479 Q627.7344,525.9979 627.7344,527.0291 L627.7344,528.1229 Q627.7344,529.3573 628.625,530.1854 Q629.5156,530.9979 631.1094,530.9979 Q632.0469,530.9979 632.7031,530.7479 Q633.0938,530.5916 633.5156,530.1541 Q633.7813,529.8885 633.9219,529.8104 Q634.0781,529.7323 634.2813,529.7323 Q634.6094,529.7323 634.8594,529.9979 Q635.125,530.2479 635.125,530.5916 Q635.125,530.9354 634.7813,531.3416 Q634.2813,531.9198 633.4844,532.2479 Q632.4063,532.701 631.1094,532.701 Q629.5938,532.701 628.3906,532.076 Q627.4063,531.576 626.7188,530.5135 Q626.0313,529.4354 626.0313,528.1541 L626.0313,526.9979 Q626.0313,525.6698 626.6406,524.5291 Q627.2656,523.3729 628.3594,522.7635 Q629.4531,522.1385 630.6875,522.1385 Q631.4219,522.1385 632.0625,522.3104 Q632.7188,522.4666 633.2656,522.826 Z "/><text fill="#000000" font-family="sans-serif" font-size="12" lengthAdjust="spacingAndGlyphs" textLength="66" x="644.5" y="531.8612">PaymentAPI</text><line style="stroke: #A80036; stroke-width: 1.5;" x1="616.5" x2="712.5" y1="542.951" y2="542.951"/><!--MD5=[b76730e11bf88a141099e30fd5a76626]
class MonetaryUnitConversionAPI--><rect fill="#FEFECE" filter="url(#f1xkuezetua5ls)" height="40" id="MonetaryUnitConversionAPI" style="stroke: #A80036; stroke-width: 1.5;" width="184" x="250" y="842.951"/><ellipse cx="265" cy="858.951" fill="#ADD1B2" rx="11" ry="11" style="stroke: #A80036; stroke-width: 1.0;"/><path d="M267.7656,854.826 Q267.9219,854.6073 268.1094,854.4979 Q268.2969,854.3885 268.5156,854.3885 Q268.8906,854.3885 269.125,854.6541 Q269.3594,854.9041 269.3594,855.5135 L269.3594,856.9666 Q269.3594,857.576 269.125,857.8416 Q268.8906,858.1073 268.5156,858.1073 Q268.1719,858.1073 267.9688,857.9041 Q267.7656,857.7166 267.6563,857.201 Q267.6094,856.8416 267.4219,856.6541 Q267.0938,856.2791 266.4844,856.0604 Q265.875,855.8416 265.25,855.8416 Q264.4844,855.8416 263.8438,856.1698 Q263.2188,856.4979 262.7188,857.2479 Q262.2344,857.9979 262.2344,859.0291 L262.2344,860.1229 Q262.2344,861.3573 263.125,862.1854 Q264.0156,862.9979 265.6094,862.9979 Q266.5469,862.9979 267.2031,862.7479 Q267.5938,862.5916 268.0156,862.1541 Q268.2813,861.8885 268.4219,861.8104 Q268.5781,861.7323 268.7813,861.7323 Q269.1094,861.7323 269.3594,861.9979 Q269.625,862.2479 269.625,862.5916 Q269.625,862.9354 269.2813,863.3416 Q268.7813,863.9198 267.9844,864.2479 Q266.9063,864.701 265.6094,864.701 Q264.0938,864.701 262.8906,864.076 Q261.9063,863.576 261.2188,862.5135 Q260.5313,861.4354 260.5313,860.1541 L260.5313,858.9979 Q260.5313,857.6698 261.1406,856.5291 Q261.7656,855.3729 262.8594,854.7635 Q263.9531,854.1385 265.1875,854.1385 Q265.9219,854.1385 266.5625,854.3104 Q267.2188,854.4666 267.7656,854.826 Z "/><text fill="#000000" font-family="sans-serif" font-size="12" lengthAdjust="spacingAndGlyphs" textLength="152" x="279" y="863.8612">MonetaryUnitConversionAPI</text><line style="stroke: #A80036; stroke-width: 1.5;" x1="251" x2="433" y1="874.951" y2="874.951"/><!--MD5=[8806e557260fb3598decb516dc04693d]
class EmailAPI--><rect fill="#FEFECE" filter="url(#f1xkuezetua5ls)" height="40" id="EmailAPI" style="stroke: #A80036; stroke-width: 1.5;" width="82" x="789.5" y="1022.9509"/><ellipse cx="804.5" cy="1038.9509" fill="#ADD1B2" rx="11" ry="11" style="stroke: #A80036; stroke-width: 1.0;"/><path d="M807.2656,1034.8259 Q807.4219,1034.6072 807.6094,1034.4978 Q807.7969,1034.3884 808.0156,1034.3884 Q808.3906,1034.3884 808.625,1034.654 Q808.8594,1034.904 808.8594,1035.5134 L808.8594,1036.9665 Q808.8594,1037.5759 808.625,1037.8415 Q808.3906,1038.1072 808.0156,1038.1072 Q807.6719,1038.1072 807.4688,1037.904 Q807.2656,1037.7165 807.1563,1037.2009 Q807.1094,1036.8415 806.9219,1036.654 Q806.5938,1036.279 805.9844,1036.0603 Q805.375,1035.8415 804.75,1035.8415 Q803.9844,1035.8415 803.3438,1036.1697 Q802.7188,1036.4978 802.2188,1037.2478 Q801.7344,1037.9978 801.7344,1039.029 L801.7344,1040.1228 Q801.7344,1041.3572 802.625,1042.1853 Q803.5156,1042.9978 805.1094,1042.9978 Q806.0469,1042.9978 806.7031,1042.7478 Q807.0938,1042.5915 807.5156,1042.154 Q807.7813,1041.8884 807.9219,1041.8103 Q808.0781,1041.7322 808.2813,1041.7322 Q808.6094,1041.7322 808.8594,1041.9978 Q809.125,1042.2478 809.125,1042.5915 Q809.125,1042.9353 808.7813,1043.3415 Q808.2813,1043.9197 807.4844,1044.2478 Q806.4063,1044.7009 805.1094,1044.7009 Q803.5938,1044.7009 802.3906,1044.0759 Q801.4063,1043.5759 800.7188,1042.5134 Q800.0313,1041.4353 800.0313,1040.154 L800.0313,1038.9978 Q800.0313,1037.6697 800.6406,1036.529 Q801.2656,1035.3728 802.3594,1034.7634 Q803.4531,1034.1384 804.6875,1034.1384 Q805.4219,1034.1384 806.0625,1034.3103 Q806.7188,1034.4665 807.2656,1034.8259 Z "/><text fill="#000000" font-family="sans-serif" font-size="12" lengthAdjust="spacingAndGlyphs" textLength="50" x="818.5" y="1043.8611">EmailAPI</text><line style="stroke: #A80036; stroke-width: 1.5;" x1="790.5" x2="870.5" y1="1054.9509" y2="1054.9509"/><ellipse cx="65.5" cy="442.951" fill="#000000" rx="2" ry="2" style="stroke: none; stroke-width: 1.0;"/><!--MD5=[8b5db564ea9bd1758097b07ca3fd81a4]
link Collaborator to Transaction--><path d="M945.787,446.412 C868.806,433.28 715.128,407.971 584,391.951 C517.065,383.773 439.33,377.202 390.648,373.437 " fill="none" id="Collaborator-Transaction" style="stroke: #A80036; stroke-width: 1.0;"/><polygon fill="#000000" points="643.5,384.6268,637.5,387.6268,643.5,390.6268,643.5,384.6268" style="stroke: #000000; stroke-width: 1.0;"/><text fill="#000000" font-family="sans-serif" font-size="13" lengthAdjust="spacingAndGlyphs" textLength="43" x="649.5" y="391.4461">creates</text><text fill="#000000" font-family="sans-serif" font-size="13" lengthAdjust="spacingAndGlyphs" textLength="7" x="930.8979" y="459.8899">1</text><text fill="#000000" font-family="sans-serif" font-size="13" lengthAdjust="spacingAndGlyphs" textLength="5" x="398.48" y="370.2678">*</text><!--MD5=[f919d21ae7a75ef5ececc535e09d5009]
link Collaborator to Task--><path d="M1046.11,420.961 C1055.97,414.261 1066.28,407.332 1076,400.951 C1104.39,382.32 1135.74,362.389 1163.79,344.786 " fill="none" id="Collaborator-Task" style="stroke: #A80036; stroke-width: 1.0;"/><text fill="#000000" font-family="sans-serif" font-size="13" lengthAdjust="spacingAndGlyphs" textLength="43" x="1077" y="360.4461">creates</text><polygon fill="#000000" points="1123,353.6268,1129,356.6268,1123,359.6268,1123,353.6268" style="stroke: #000000; stroke-width: 1.0;"/><text fill="#000000" font-family="sans-serif" font-size="13" lengthAdjust="spacingAndGlyphs" textLength="7" x="1053.984" y="430.7008">1</text><text fill="#000000" font-family="sans-serif" font-size="13" lengthAdjust="spacingAndGlyphs" textLength="5" x="1151.0229" y="363.6178">*</text><!--MD5=[d2c3650dbd07e79cdad2ffd4a879dec6]
link Collaborator to Freelancer--><path d="M1046.16,456.833 C1144.76,460.608 1366.8,469.109 1478.56,473.388 " fill="none" id="Collaborator-Freelancer" style="stroke: #A80036; stroke-width: 1.0;"/><text fill="#000000" font-family="sans-serif" font-size="13" lengthAdjust="spacingAndGlyphs" textLength="43" x="1220.5" y="457.4461">creates</text><polygon fill="#000000" points="1266.5,450.6268,1272.5,453.6268,1266.5,456.6268,1266.5,450.6268" style="stroke: #000000; stroke-width: 1.0;"/><text fill="#000000" font-family="sans-serif" font-size="13" lengthAdjust="spacingAndGlyphs" textLength="7" x="1054.0413" y="471.8415">1</text><text fill="#000000" font-family="sans-serif" font-size="13" lengthAdjust="spacingAndGlyphs" textLength="5" x="1465.8556" y="487.5141">*</text><!--MD5=[283bfb0345396a3619b4812849bd123f]
link Collaborator to HistoricalTransactionFile--><path d="M1046.19,444.739 C1079.68,437.789 1124.83,428.415 1163.89,420.307 " fill="none" id="Collaborator-HistoricalTransactionFile" style="stroke: #A80036; stroke-width: 1.0;"/><text fill="#000000" font-family="sans-serif" font-size="13" lengthAdjust="spacingAndGlyphs" textLength="31" x="1083" y="423.4461">loads</text><polygon fill="#000000" points="1117,416.6268,1123,419.6268,1117,422.6268,1117,416.6268" style="stroke: #000000; stroke-width: 1.0;"/><text fill="#000000" font-family="sans-serif" font-size="13" lengthAdjust="spacingAndGlyphs" textLength="7" x="1054.0757" y="457.9712">1</text><text fill="#000000" font-family="sans-serif" font-size="13" lengthAdjust="spacingAndGlyphs" textLength="5" x="1151.1318" y="436.076">*</text><!--MD5=[04ce0ecdab38a3951889ff50c232570f]
link Collaborator to User--><path d="M1027.22,496.083 C1075.43,561.714 1169.22,689.383 1217.37,754.938 " fill="none" id="Collaborator-User" style="stroke: #A80036; stroke-width: 1.0;"/><text fill="#000000" font-family="sans-serif" font-size="13" lengthAdjust="spacingAndGlyphs" textLength="43" x="1077" y="561.4461">acts as</text><polygon fill="#000000" points="1094,570.3026,1097,576.3026,1100,570.3026,1094,570.3026" style="stroke: #000000; stroke-width: 1.0;"/><text fill="#000000" font-family="sans-serif" font-size="13" lengthAdjust="spacingAndGlyphs" textLength="18" x="1012.4836" y="516.8563">0,1</text><text fill="#000000" font-family="sans-serif" font-size="13" lengthAdjust="spacingAndGlyphs" textLength="7" x="1204.418" y="744.0815">1</text><!--MD5=[7243fd82d00bd95e91d7be6a6f325055]
link Manager to PaymentScheduler--><path d="M1044.71,709.811 C1083.03,692.828 1137.33,668.767 1180.1,649.817 " fill="none" id="Manager-PaymentScheduler" style="stroke: #A80036; stroke-width: 1.0;"/><text fill="#000000" font-family="sans-serif" font-size="13" lengthAdjust="spacingAndGlyphs" textLength="41" x="1078" y="668.4461">defines</text><polygon fill="#000000" points="1122,661.6268,1128,664.6268,1122,667.6268,1122,661.6268" style="stroke: #000000; stroke-width: 1.0;"/><text fill="#000000" font-family="sans-serif" font-size="13" lengthAdjust="spacingAndGlyphs" textLength="7" x="1052.3783" y="721.4381">1</text><text fill="#000000" font-family="sans-serif" font-size="13" lengthAdjust="spacingAndGlyphs" textLength="18" x="1154.4809" y="667.073">0,1</text><!--MD5=[6eb6e197a729f6ec2412743e0bdbca1d]
link Manager to User--><path d="M1044.71,743.33 C1089.28,754.896 1155.45,772.067 1199.97,783.618 " fill="none" id="Manager-User" style="stroke: #A80036; stroke-width: 1.0;"/><text fill="#000000" font-family="sans-serif" font-size="13" lengthAdjust="spacingAndGlyphs" textLength="43" x="1077" y="748.4461">acts as</text><polygon fill="#000000" points="1123,741.6268,1129,744.6268,1123,747.6268,1123,741.6268" style="stroke: #000000; stroke-width: 1.0;"/><text fill="#000000" font-family="sans-serif" font-size="13" lengthAdjust="spacingAndGlyphs" textLength="18" x="1052.4648" y="759.6202">0,1</text><text fill="#000000" font-family="sans-serif" font-size="13" lengthAdjust="spacingAndGlyphs" textLength="7" x="1185.0029" y="796.5142">1</text><!--MD5=[8e4873cec2cb3febaaa9495c716fc885]
link Transaction to Task--><path d="M349.396,349.887 C363.185,310.278 399.772,222.455 464,182.951 C570.982,117.15 619.579,159.627 745,152.951 C919.754,143.649 977.84,134.959 1134,213.951 C1147.93,220.995 1162.1,229.555 1175.49,238.407 " fill="none" id="Transaction-Task" style="stroke: #A80036; stroke-width: 1.0;"/><text fill="#000000" font-family="sans-serif" font-size="13" lengthAdjust="spacingAndGlyphs" textLength="55" x="796.5" y="143.4461">relative to</text><polygon fill="#000000" points="854.5,136.6268,860.5,139.6268,854.5,142.6268,854.5,136.6268" style="stroke: #000000; stroke-width: 1.0;"/><text fill="#000000" font-family="sans-serif" font-size="13" lengthAdjust="spacingAndGlyphs" textLength="7" x="343.5405" y="339.19">1</text><text fill="#000000" font-family="sans-serif" font-size="13" lengthAdjust="spacingAndGlyphs" textLength="7" x="1158.209" y="227.5093">1</text><!--MD5=[542f32193441b56ea302115ed1249c3b]
link Transaction to Freelancer--><path d="M349.071,349.894 C363.053,306.517 401.229,202.687 464,137.951 C534.785,64.95 561.816,25.95 663.5,25.95 C663.5,25.95 663.5,25.95 1249.5,25.95 C1426.59,25.95 1503.65,272.202 1531.77,400.377 " fill="none" id="Transaction-Freelancer" style="stroke: #A80036; stroke-width: 1.0;"/><text fill="#000000" font-family="sans-serif" font-size="13" lengthAdjust="spacingAndGlyphs" textLength="11" x="984" y="22.4451">to</text><polygon fill="#000000" points="998,15.6258,1004,18.6258,998,21.6258,998,15.6258" style="stroke: #000000; stroke-width: 1.0;"/><text fill="#000000" font-family="sans-serif" font-size="13" lengthAdjust="spacingAndGlyphs" textLength="5" x="353.4416" y="339.0326">*</text><text fill="#000000" font-family="sans-serif" font-size="13" lengthAdjust="spacingAndGlyphs" textLength="7" x="1522.9755" y="389.678">1</text><!--MD5=[c4d304e021406f0669e27c527a415194]
link Transaction to PaymentAPI--><path d="M366.578,389.996 C389.971,409.011 427.51,437.238 464,454.951 C514.092,479.267 532.266,470.359 584,490.951 C598.355,496.665 613.626,504.018 626.907,510.858 " fill="none" id="Transaction-PaymentAPI" style="stroke: #A80036; stroke-width: 1.0;"/><text fill="#000000" font-family="sans-serif" font-size="13" lengthAdjust="spacingAndGlyphs" textLength="28" x="503.5" y="451.4461">uses</text><polygon fill="#000000" points="534.5,444.6268,540.5,447.6268,534.5,450.6268,534.5,444.6268" style="stroke: #000000; stroke-width: 1.0;"/><text fill="#000000" font-family="sans-serif" font-size="13" lengthAdjust="spacingAndGlyphs" textLength="5" x="367.7874" y="411.4282">*</text><text fill="#000000" font-family="sans-serif" font-size="13" lengthAdjust="spacingAndGlyphs" textLength="7" x="607.8359" y="500.1524">1</text><!--MD5=[4b35f5cbbb9f0916ba1866e97e83f62f]
link Transaction to Organization--><path d="M369.88,390.133 C389.507,405.887 415.765,429.197 434,453.951 C452.393,478.92 442.426,494.672 464,516.951 C475.422,528.747 558.238,569.637 613.516,596.212 " fill="none" id="Transaction-Organization" style="stroke: #A80036; stroke-width: 1.0;"/><text fill="#000000" font-family="sans-serif" font-size="13" lengthAdjust="spacingAndGlyphs" textLength="102" x="466.5" y="513.4461">made on behalf of</text><polygon fill="#000000" points="571.5,506.6268,577.5,509.6268,571.5,512.6268,571.5,506.6268" style="stroke: #000000; stroke-width: 1.0;"/><text fill="#000000" font-family="sans-serif" font-size="13" lengthAdjust="spacingAndGlyphs" textLength="5" x="372.0181" y="411.6037">*</text><text fill="#000000" font-family="sans-serif" font-size="13" lengthAdjust="spacingAndGlyphs" textLength="7" x="598.8542" y="589.2916">1</text><!--MD5=[9aa0fa191c99edeef0ce6e9ae1d37765]
link Transaction to TaskExecutionDetails--><path d="M356.237,349.767 C375.989,321.505 416.036,270.92 464,246.951 C552.625,202.662 667.661,194.013 744.794,194.099 " fill="none" id="Transaction-TaskExecutionDetails" style="stroke: #A80036; stroke-width: 1.0;"/><text fill="#000000" font-family="sans-serif" font-size="13" lengthAdjust="spacingAndGlyphs" textLength="80" x="477.5" y="205.4461">executed with</text><polygon fill="#000000" points="560.5,198.6268,566.5,201.6268,560.5,204.6268,560.5,198.6268" style="stroke: #000000; stroke-width: 1.0;"/><text fill="#000000" font-family="sans-serif" font-size="13" lengthAdjust="spacingAndGlyphs" textLength="7" x="352.391" y="339.0347">1</text><text fill="#000000" font-family="sans-serif" font-size="13" lengthAdjust="spacingAndGlyphs" textLength="7" x="730.1279" y="207.9868">1</text><!--MD5=[9155e95983ae2a088b11740d001758c9]
link TaskExecutionDetails to Task--><path d="M916.054,206.495 C977.33,213.926 1061.76,226.738 1134,246.951 C1143.83,249.701 1153.96,253.037 1163.94,256.642 " fill="none" id="TaskExecutionDetails-Task" style="stroke: #A80036; stroke-width: 1.0;"/><text fill="#000000" font-family="sans-serif" font-size="13" lengthAdjust="spacingAndGlyphs" textLength="47" x="966" y="206.4461">refers to</text><polygon fill="#000000" points="1016,199.6268,1022,202.6268,1016,205.6268,1016,199.6268" style="stroke: #000000; stroke-width: 1.0;"/><text fill="#000000" font-family="sans-serif" font-size="13" lengthAdjust="spacingAndGlyphs" textLength="7" x="923.9854" y="221.5011">1</text><text fill="#000000" font-family="sans-serif" font-size="13" lengthAdjust="spacingAndGlyphs" textLength="7" x="1149.0972" y="267.6235">1</text><!--MD5=[80bfe53c9a81718400b24a13b8f52143]
link HistoricalTransactionFile to Transaction--><path d="M1196.73,382.848 C1185.6,377.628 1174.13,371.584 1164,364.951 C1148.99,355.121 1148.87,347.986 1134,337.951 C1097.92,313.6 1088.41,304.759 1046,294.951 C803.84,238.951 504.913,318.472 390.548,354.156 " fill="none" id="HistoricalTransactionFile-Transaction" style="stroke: #A80036; stroke-width: 1.0;"/><polygon fill="#000000" points="809.5,264.6268,803.5,267.6268,809.5,270.6268,809.5,264.6268" style="stroke: #000000; stroke-width: 1.0;"/><text fill="#000000" font-family="sans-serif" font-size="13" lengthAdjust="spacingAndGlyphs" textLength="43" x="815.5" y="271.4461">records</text><text fill="#000000" font-family="sans-serif" font-size="13" lengthAdjust="spacingAndGlyphs" textLength="7" x="1173.4944" y="372.1395">1</text><text fill="#000000" font-family="sans-serif" font-size="13" lengthAdjust="spacingAndGlyphs" textLength="5" x="398.3647" y="348.0344">*</text><!--MD5=[1a3e78b286cde87cb772b4879f31cc6e]
link PaymentScheduler to Transaction--><path d="M1180.41,595.615 C1113.82,571.904 1008.58,535.628 916,508.951 C864.913,494.23 519.382,411.861 390.948,381.334 " fill="none" id="PaymentScheduler-Transaction" style="stroke: #A80036; stroke-width: 1.0;"/><text fill="#000000" font-family="sans-serif" font-size="13" lengthAdjust="spacingAndGlyphs" textLength="128" x="766.5" y="462.4461">schedules payments&gt;</text><text fill="#000000" font-family="sans-serif" font-size="13" lengthAdjust="spacingAndGlyphs" textLength="7" x="1165.5798" y="607.3605">1</text><text fill="#000000" font-family="sans-serif" font-size="13" lengthAdjust="spacingAndGlyphs" textLength="5" x="398.5044" y="397.7018">*</text><!--MD5=[45817597bcd7048073a670d966abfd17]
link Organization to Collaborator--><path d="M715.087,603.587 C782.961,580.997 898.433,541.811 916,530.951 C931.378,521.444 946.222,508.526 958.811,496.039 " fill="none" id="Organization-Collaborator" style="stroke: #A80036; stroke-width: 1.0;"/><text fill="#000000" font-family="sans-serif" font-size="13" lengthAdjust="spacingAndGlyphs" textLength="21" x="813.5" y="527.4461">has</text><polygon fill="#000000" points="837.5,520.6268,843.5,523.6268,837.5,526.6268,837.5,520.6268" style="stroke: #000000; stroke-width: 1.0;"/><text fill="#000000" font-family="sans-serif" font-size="13" lengthAdjust="spacingAndGlyphs" textLength="7" x="723.031" y="615.9036">1</text><text fill="#000000" font-family="sans-serif" font-size="13" lengthAdjust="spacingAndGlyphs" textLength="7" x="945.8348" y="516.8059">1</text><!--MD5=[bc039f41cf0b27fadee5cae63fc6e1fe]
link Organization to Manager--><path d="M715.059,649.79 C724.781,654.949 735.053,659.935 745,663.951 C813.126,691.452 896.207,711.154 947.352,721.801 " fill="none" id="Organization-Manager" style="stroke: #A80036; stroke-width: 1.0;"/><text fill="#000000" font-family="sans-serif" font-size="13" lengthAdjust="spacingAndGlyphs" textLength="21" x="813.5" y="660.4461">has</text><polygon fill="#000000" points="837.5,653.6268,843.5,656.6268,837.5,659.6268,837.5,653.6268" style="stroke: #000000; stroke-width: 1.0;"/><text fill="#000000" font-family="sans-serif" font-size="13" lengthAdjust="spacingAndGlyphs" textLength="7" x="722.9989" y="668.8926">1</text><text fill="#000000" font-family="sans-serif" font-size="13" lengthAdjust="spacingAndGlyphs" textLength="7" x="932.3668" y="735.1846">1</text><!--MD5=[5f4f57afaa4ed75c0a27618a4620afc1]
link Organization to PaymentScheduler--><path d="M715.121,619.951 C819.579,619.951 1062.24,619.951 1180.42,619.951 " fill="none" id="Organization-PaymentScheduler" style="stroke: #A80036; stroke-width: 1.0;"/><text fill="#000000" font-family="sans-serif" font-size="13" lengthAdjust="spacingAndGlyphs" textLength="28" x="975.5" y="616.4461">uses</text><polygon fill="#000000" points="1006.5,609.6268,1012.5,612.6268,1006.5,615.6268,1006.5,609.6268" style="stroke: #000000; stroke-width: 1.0;"/><text fill="#000000" font-family="sans-serif" font-size="13" lengthAdjust="spacingAndGlyphs" textLength="7" x="723.07" y="634.671">1</text><text fill="#000000" font-family="sans-serif" font-size="13" lengthAdjust="spacingAndGlyphs" textLength="7" x="1165.5909" y="634.3583">1</text><!--MD5=[4078351e3988aa35b1504a42837f2ab1]
link Organization to Task--><path d="M703.322,585.705 C707.729,580.433 711.788,574.789 715,568.951 C742.542,518.894 705.959,485.664 745,443.951 C854.712,326.732 1051.54,299.344 1163.53,293.656 " fill="none" id="Organization-Task" style="stroke: #A80036; stroke-width: 1.0;"/><text fill="#000000" font-family="sans-serif" font-size="13" lengthAdjust="spacingAndGlyphs" textLength="55" x="962" y="302.4461">publishes</text><polygon fill="#000000" points="1020,295.6268,1026,298.6268,1020,301.6268,1020,295.6268" style="stroke: #000000; stroke-width: 1.0;"/><text fill="#000000" font-family="sans-serif" font-size="13" lengthAdjust="spacingAndGlyphs" textLength="7" x="703.0553" y="575.2118">1</text><text fill="#000000" font-family="sans-serif" font-size="13" lengthAdjust="spacingAndGlyphs" textLength="5" x="1151.013" y="307.9066">*</text><!--MD5=[8853e9d83a8841c20c4ef075af762602]
link Task to Freelancer--><path d="M1333.13,344.658 C1379.29,373.195 1435.83,408.146 1478.96,434.81 " fill="none" id="Task-Freelancer" style="stroke: #A80036; stroke-width: 1.0;"/><text fill="#000000" font-family="sans-serif" font-size="13" lengthAdjust="spacingAndGlyphs" textLength="71" x="1364" y="364.4461">executed by</text><polygon fill="#000000" points="1438,357.6268,1444,360.6268,1438,363.6268,1438,357.6268" style="stroke: #000000; stroke-width: 1.0;"/><text fill="#000000" font-family="sans-serif" font-size="13" lengthAdjust="spacingAndGlyphs" textLength="5" x="1340.89" y="363.4784">*</text><text fill="#000000" font-family="sans-serif" font-size="13" lengthAdjust="spacingAndGlyphs" textLength="22" x="1448.8606" y="444.9217">0, 1</text><!--MD5=[939acada67c666032ddf52a0068bc128]
link App to MonetaryUnitConversionAPI--><path d="M92.3243,862.951 C128.092,862.951 194.55,862.951 249.768,862.951 " fill="none" id="App-MonetaryUnitConversionAPI" style="stroke: #A80036; stroke-width: 1.0;"/><text fill="#000000" font-family="sans-serif" font-size="13" lengthAdjust="spacingAndGlyphs" textLength="50" x="156" y="859.4461">supports</text><polygon fill="#000000" points="209,852.6268,215,855.6268,209,858.6268,209,852.6268" style="stroke: #000000; stroke-width: 1.0;"/><text fill="#000000" font-family="sans-serif" font-size="13" lengthAdjust="spacingAndGlyphs" textLength="7" x="100.0949" y="858.4412">1</text><text fill="#000000" font-family="sans-serif" font-size="13" lengthAdjust="spacingAndGlyphs" textLength="7" x="235.1394" y="877.0976">1</text><!--MD5=[1370966fb1e3885ea6828d35f10d9d48]
link App to Organization--><path d="M84.0183,842.739 C114.274,809.229 179.853,742.539 250,708.951 C314.244,678.189 518.583,642.94 613.791,627.67 " fill="none" id="App-Organization" style="stroke: #A80036; stroke-width: 1.0;"/><text fill="#000000" font-family="sans-serif" font-size="13" lengthAdjust="spacingAndGlyphs" textLength="21" x="325" y="656.4461">has</text><polygon fill="#000000" points="349,649.6268,355,652.6268,349,655.6268,349,649.6268" style="stroke: #000000; stroke-width: 1.0;"/><text fill="#000000" font-family="sans-serif" font-size="13" lengthAdjust="spacingAndGlyphs" textLength="7" x="81.4299" y="831.9985">1</text><text fill="#000000" font-family="sans-serif" font-size="13" lengthAdjust="spacingAndGlyphs" textLength="5" x="600.9759" y="643.5238">*</text><!--MD5=[1cb21011969cc62c73f846209be643c8]
link App to EmailAPI--><path d="M78.7294,883.249 C93.7035,906.217 121.28,942.898 155,961.951 C210.45,993.281 652.514,1029.4065 789.305,1039.9309 " fill="none" id="App-EmailAPI" style="stroke: #A80036; stroke-width: 1.0;"/><text fill="#000000" font-family="sans-serif" font-size="13" lengthAdjust="spacingAndGlyphs" textLength="50" x="310.5" y="980.4461">supports</text><polygon fill="#000000" points="363.5,973.6268,369.5,976.6268,363.5,979.6268,363.5,973.6268" style="stroke: #000000; stroke-width: 1.0;"/><text fill="#000000" font-family="sans-serif" font-size="13" lengthAdjust="spacingAndGlyphs" textLength="7" x="74.3442" y="904.3964">1</text><text fill="#000000" font-family="sans-serif" font-size="13" lengthAdjust="spacingAndGlyphs" textLength="7" x="774.623" y="1035.5622">1</text><!--MD5=[c476b523f9294f20b13319074aa597a2]
link App to PaymentAPI--><path d="M75.6494,842.906 C97.9235,796.722 159.835,683.029 250,633.951 C282.246,616.399 513.094,564.14 615.169,541.549 " fill="none" id="App-PaymentAPI" style="stroke: #A80036; stroke-width: 1.0;"/><text fill="#000000" font-family="sans-serif" font-size="13" lengthAdjust="spacingAndGlyphs" textLength="50" x="310.5" y="579.4461">supports</text><polygon fill="#000000" points="363.5,572.6268,369.5,575.6268,363.5,578.6268,363.5,572.6268" style="stroke: #000000; stroke-width: 1.0;"/><text fill="#000000" font-family="sans-serif" font-size="13" lengthAdjust="spacingAndGlyphs" textLength="7" x="70.6027" y="832.2145">1</text><text fill="#000000" font-family="sans-serif" font-size="13" lengthAdjust="spacingAndGlyphs" textLength="7" x="600.4094" y="557.8015">1</text><!--MD5=[66e1bf42337190a3177776b035b1a873]
link App to Administrator--><path d="M92.3243,853.919 C137.301,838.19 230.804,805.489 289.468,784.973 " fill="none" id="App-Administrator" style="stroke: #A80036; stroke-width: 1.0;"/><text fill="#000000" font-family="sans-serif" font-size="13" lengthAdjust="spacingAndGlyphs" textLength="21" x="170.5" y="808.4461">has</text><polygon fill="#000000" points="194.5,801.6268,200.5,804.6268,194.5,807.6268,194.5,801.6268" style="stroke: #000000; stroke-width: 1.0;"/><text fill="#000000" font-family="sans-serif" font-size="13" lengthAdjust="spacingAndGlyphs" textLength="7" x="100.0949" y="867.1947">1</text><text fill="#000000" font-family="sans-serif" font-size="13" lengthAdjust="spacingAndGlyphs" textLength="5" x="276.3852" y="802.3521">*</text><!--MD5=[d88947b97cc296deaa09f9756953ae3a]
link App to Freelancer--><path d="M92.0113,874.518 C139.811,895.102 246.566,935.951 341,935.951 C341,935.951 341,935.951 1249.5,935.951 C1430.05,935.951 1505.69,682.23 1532.65,551.653 " fill="none" id="App-Freelancer" style="stroke: #A80036; stroke-width: 1.0;"/><text fill="#000000" font-family="sans-serif" font-size="13" lengthAdjust="spacingAndGlyphs" textLength="21" x="813.5" y="932.4461">has</text><polygon fill="#000000" points="837.5,925.6268,843.5,928.6268,837.5,931.6268,837.5,925.6268" style="stroke: #000000; stroke-width: 1.0;"/><text fill="#000000" font-family="sans-serif" font-size="13" lengthAdjust="spacingAndGlyphs" textLength="7" x="100.0768" y="893.319">1</text><text fill="#000000" font-family="sans-serif" font-size="13" lengthAdjust="spacingAndGlyphs" textLength="5" x="1526.1938" y="572.6324">*</text><!--MD5=[63a18bfb0c55f564ea81086f541b4ad2]
link App to EmailScheduler--><path d="M69.4783,883.234 C76.4676,922.854 97.8759,1010.208 155,1050.9509 C246.823,1116.4417 385.699,1110.9374 463.959,1101 " fill="none" id="App-EmailScheduler" style="stroke: #A80036; stroke-width: 1.0;"/><text fill="#000000" font-family="sans-serif" font-size="13" lengthAdjust="spacingAndGlyphs" textLength="21" x="170.5" y="1047.446">has</text><polygon fill="#000000" points="194.5,1040.6267,200.5,1043.6267,194.5,1046.6267,194.5,1040.6267" style="stroke: #000000; stroke-width: 1.0;"/><text fill="#000000" font-family="sans-serif" font-size="13" lengthAdjust="spacingAndGlyphs" textLength="7" x="62.6068" y="904.3774">1</text><text fill="#000000" font-family="sans-serif" font-size="13" lengthAdjust="spacingAndGlyphs" textLength="7" x="448.8178" y="1116.8302">1</text><!--MD5=[62b22ab9dd7e0fc0219b5bb8924f5993]
link EmailScheduler to EmailAPI--><path d="M584.072,1081.6391 C644.431,1072.1243 736.538,1057.605 789.067,1049.3246 " fill="none" id="EmailScheduler-EmailAPI" style="stroke: #A80036; stroke-width: 1.0;"/><text fill="#000000" font-family="sans-serif" font-size="13" lengthAdjust="spacingAndGlyphs" textLength="28" x="644" y="1057.446">uses</text><polygon fill="#000000" points="675,1050.6267,681,1053.6267,675,1056.6267,675,1050.6267" style="stroke: #000000; stroke-width: 1.0;"/><text fill="#000000" font-family="sans-serif" font-size="13" lengthAdjust="spacingAndGlyphs" textLength="7" x="591.8198" y="1094.9958">1</text><text fill="#000000" font-family="sans-serif" font-size="13" lengthAdjust="spacingAndGlyphs" textLength="7" x="774.625" y="1065.2295">1</text><!--MD5=[2a41c1af413c0662bf55a6b8913ea24f]
link Administrator to Organization--><path d="M394.918,760.414 C445.881,752.242 524.419,734.848 584,699.951 C604.106,688.175 622.698,670.06 636.839,654.045 " fill="none" id="Administrator-Organization" style="stroke: #A80036; stroke-width: 1.0;"/><text fill="#000000" font-family="sans-serif" font-size="13" lengthAdjust="spacingAndGlyphs" textLength="28" x="503.5" y="696.4461">adds</text><polygon fill="#000000" points="534.5,689.6268,540.5,692.6268,534.5,695.6268,534.5,689.6268" style="stroke: #000000; stroke-width: 1.0;"/><text fill="#000000" font-family="sans-serif" font-size="13" lengthAdjust="spacingAndGlyphs" textLength="7" x="402.4992" y="774.1624">1</text><text fill="#000000" font-family="sans-serif" font-size="13" lengthAdjust="spacingAndGlyphs" textLength="5" x="626.4666" y="675.0986">*</text><!--MD5=[edc107c0a572352bcd12c9afaba4390b]
link Administrator to User--><path d="M394.612,769.237 C498.815,773.782 741.797,784.025 946,789.951 C1035.75,792.555 1140.56,794.363 1199.97,795.273 " fill="none" id="Administrator-User" style="stroke: #A80036; stroke-width: 1.0;"/><text fill="#000000" font-family="sans-serif" font-size="13" lengthAdjust="spacingAndGlyphs" textLength="43" x="802.5" y="779.4461">acts as</text><polygon fill="#000000" points="848.5,772.6268,854.5,775.6268,848.5,778.6268,848.5,772.6268" style="stroke: #000000; stroke-width: 1.0;"/><text fill="#000000" font-family="sans-serif" font-size="13" lengthAdjust="spacingAndGlyphs" textLength="18" x="402.506" y="784.1041">0,1</text><text fill="#000000" font-family="sans-serif" font-size="13" lengthAdjust="spacingAndGlyphs" textLength="7" x="1185.0029" y="809.9539">1</text><!--MD5=[d633b45690d51141bd211d849cad7ced]
link EmailAPI to User--><path d="M865.191,1022.9471 C938.887,979.19 1114.6,874.858 1199.7,824.333 " fill="none" id="EmailAPI-User" style="stroke: #A80036; stroke-width: 1.0;"/><text fill="#000000" font-family="sans-serif" font-size="13" lengthAdjust="spacingAndGlyphs" textLength="42" x="968.5" y="915.4461">e-mails</text><polygon fill="#000000" points="1013.5,908.6268,1019.5,911.6268,1013.5,914.6268,1013.5,908.6268" style="stroke: #000000; stroke-width: 1.0;"/><text fill="#000000" font-family="sans-serif" font-size="13" lengthAdjust="spacingAndGlyphs" textLength="7" x="867.3534" y="1012.2676">1</text><text fill="#000000" font-family="sans-serif" font-size="13" lengthAdjust="spacingAndGlyphs" textLength="5" x="1186.8447" y="843.4637">*</text><!--MD5=[cbdd6193c065fcdcc21acc530d8838bb]
link EmailAPI to Freelancer--><path d="M871.566,1051.7663 C980.529,1073.1732 1285.04,1115.4928 1449,961.951 C1507.55,907.12 1532.01,674.242 1540.97,551.838 " fill="none" id="EmailAPI-Freelancer" style="stroke: #A80036; stroke-width: 1.0;"/><text fill="#000000" font-family="sans-serif" font-size="13" lengthAdjust="spacingAndGlyphs" textLength="42" x="1077.5" y="1068.446">e-mails</text><polygon fill="#000000" points="1122.5,1061.6267,1128.5,1064.6267,1122.5,1067.6267,1122.5,1061.6267" style="stroke: #000000; stroke-width: 1.0;"/><text fill="#000000" font-family="sans-serif" font-size="13" lengthAdjust="spacingAndGlyphs" textLength="7" x="879.5043" y="1068.288">1</text><text fill="#000000" font-family="sans-serif" font-size="13" lengthAdjust="spacingAndGlyphs" textLength="5" x="1535.2799" y="572.5707">*</text><!--MD5=[223a71f1fe5f86b942b67ea14ba64f83]
link Organization to apoint52--><path d="M613.671,622.369 C570.754,622.104 508.828,615.897 464,586.951 C443.807,573.912 453.522,555.975 434,541.951 C301.986,447.112 84.3366,443.125 67.5342,442.958 " fill="none" id="Organization-apoint52" style="stroke: #A80036; stroke-width: 1.0;"/><polygon fill="#000000" points="332,454.6268,326,457.6268,332,460.6268,332,454.6268" style="stroke: #000000; stroke-width: 1.0;"/><text fill="#000000" font-family="sans-serif" font-size="13" lengthAdjust="spacingAndGlyphs" textLength="21" x="338" y="461.4461">has</text><text fill="#000000" font-family="sans-serif" font-size="13" lengthAdjust="spacingAndGlyphs" textLength="7" x="599.031" y="619.1269">1</text><!--MD5=[7a849b6c291feb48f4c80670ee3f1587]
link apoint52 to Transaction--><path d="M67.494,442.687 C80.531,439.22 218.643,402.49 293.461,382.593 " fill="none" id="apoint52-Transaction" style="stroke: #A80036; stroke-width: 1.0;"/><text fill="#000000" font-family="sans-serif" font-size="13" lengthAdjust="spacingAndGlyphs" textLength="5" x="280.6457" y="399.2758">*</text><!--MD5=[9097a9641b2000f1080a49d1492e7900]
link apoint52 to PaymentDetails--><path d="M65.5,444.961 C65.5,456.541 65.5,468.121 65.5,479.701 " fill="none" id="apoint52-PaymentDetails" style="stroke: #A80036; stroke-width: 1.0; stroke-dasharray: 7.0,7.0;"/><!--MD5=[1bd8c301d504647d94420269ff0031db]
@startuml MD

skinparam classAttributeIconSize 0
hide methods
left to right direction

class App {

}

class Organization {
        - String nome
        - String NIF
}

class Transaction {

}

class Task {
        - String id
        - String description
        - Integer durationInHours
        - Double costPerHourOfJuniorEur
        - String category
}

class PaymentDetails {
        Boolean isPaid
}

class TaskExecutionDetails {
        - Date endDate
        - Integer delayInDays
        - String DescriptionQualityOfWork
}

class Collaborator {
        - String nome
        - String email
        - String password
}

class Manager {
        - String nome
        - String email
        - String password
}

class HistoricalTransactionFile {

}

class PaymentScheduler {
        - Integer dayMonth
        - LocalTime timeOfDay
}

class Administrator {
        - String nome
        - String email
        - String password
}

class EmailScheduler {

}

class User {
        - String nome
        - String email
        - String password
}

class Freelancer {
        - String id
        - String name
        - String levelOfExpertise
        - String email
        - String NIF
        - String bankAccountIBAN
        - String address
        - String country
}

Collaborator                 "1" - - "*"      Transaction               : creates >
Collaborator                 "1" - - "*"      Task                      : creates >
Collaborator                 "1" - - "*"      Freelancer                : creates >
Collaborator                 "1" - - "*"      HistoricalTransactionFile : loads >
Collaborator               "0,1" - - "1"      User                      : acts as >
Manager                      "1" - - "0,1"    PaymentScheduler          : defines >
Manager                    "0,1" - - "1"      User                      : acts as >
Transaction                  "1" - - "1"      Task                      : relative to >
Transaction                  "*" - - "1"      Freelancer                : to >
Transaction                  "*" - - "1"      PaymentAPI                : uses >
Transaction                  "*" - - "1"      Organization              : made on behalf of >
Transaction                  "1" - - "1"      TaskExecutionDetails      : executed with >
TaskExecutionDetails         "1" - - "1"      Task                      : refers to >
HistoricalTransactionFile    "1" - - "*"      Transaction               : records >
PaymentScheduler             "1" - - "*"      Transaction               : schedules payments>
Organization                 "1" - - "1"      Collaborator              : has >
Organization                 "1" - - "1"      Manager                   : has >
Organization                 "1" - - "1"      PaymentScheduler          : uses >
Organization                 "1" - - "*"      Task                      : publishes >
Organization                 "1" - - "*"      Transaction               : has >
Task                         "*" - - "0, 1"   Freelancer                : executed by >
App                          "1" - - "1"      MonetaryUnitConversionAPI : supports >
App                          "1" - - "*"      Organization              : has >
App                          "1" - - "1"      EmailAPI                  : supports >
App                          "1" - - "1"      PaymentAPI                : supports >
App                          "1" - - "*"      Administrator             : has >
App                          "1" - - "*"      Freelancer                : has >
App                          "1" - - "1"      EmailScheduler            : has >
EmailScheduler               "1" - - "1"      EmailAPI                  : uses >
Administrator                "1" - - "*"      Organization              : adds >
Administrator              "0,1" - - "1"      User                      : acts as >
EmailAPI                     "1" - - "*"      User                      : e-mails >
EmailAPI                     "1" - - "*"      Freelancer                : e-mails >
(Organization, Transaction)      ..          PaymentDetails

@enduml

PlantUML version 1.2020.10(Sun May 17 10:35:57 WEST 2020)
(GPL source distribution)
Java Runtime: OpenJDK Runtime Environment
JVM: OpenJDK 64-Bit Server VM
Java Version: 14+36
Operating System: Windows 10
Default Encoding: Cp1252
Language: en
Country: US
--></g></svg>