<?xml version="1.0" encoding="UTF-8" standalone="no"?><svg xmlns="http://www.w3.org/2000/svg" xmlns:xlink="http://www.w3.org/1999/xlink" contentScriptType="application/ecmascript" contentStyleType="text/css" height="1063px" preserveAspectRatio="none" style="width:2639px;height:1063px;" version="1.1" viewBox="0 0 2639 1063" width="2639px" zoomAndPan="magnify"><defs><filter height="300%" id="f1wdar0j52qfel" width="300%" x="-1" y="-1"><feGaussianBlur result="blurOut" stdDeviation="2.0"/><feColorMatrix in="blurOut" result="blurOut2" type="matrix" values="0 0 0 0 0 0 0 0 0 0 0 0 0 0 0 0 0 0 .4 0"/><feOffset dx="4.0" dy="4.0" in="blurOut2" result="blurOut3"/><feBlend in="SourceGraphic" in2="blurOut3" mode="normal"/></filter></defs><g><!--MD5=[65f9b271fae1a3d56975d9ea4f8e38de]
class Colaborator--><rect fill="#FEFECE" filter="url(#f1wdar0j52qfel)" height="81.5078" id="Colaborator" style="stroke: #A80036; stroke-width: 1.5;" width="97" x="945.5" y="271"/><ellipse cx="960.5" cy="287" fill="#ADD1B2" rx="11" ry="11" style="stroke: #A80036; stroke-width: 1.0;"/><path d="M963.2656,282.875 Q963.4219,282.6563 963.6094,282.5469 Q963.7969,282.4375 964.0156,282.4375 Q964.3906,282.4375 964.625,282.7031 Q964.8594,282.9531 964.8594,283.5625 L964.8594,285.0156 Q964.8594,285.625 964.625,285.8906 Q964.3906,286.1563 964.0156,286.1563 Q963.6719,286.1563 963.4688,285.9531 Q963.2656,285.7656 963.1563,285.25 Q963.1094,284.8906 962.9219,284.7031 Q962.5938,284.3281 961.9844,284.1094 Q961.375,283.8906 960.75,283.8906 Q959.9844,283.8906 959.3438,284.2188 Q958.7188,284.5469 958.2188,285.2969 Q957.7344,286.0469 957.7344,287.0781 L957.7344,288.1719 Q957.7344,289.4063 958.625,290.2344 Q959.5156,291.0469 961.1094,291.0469 Q962.0469,291.0469 962.7031,290.7969 Q963.0938,290.6406 963.5156,290.2031 Q963.7813,289.9375 963.9219,289.8594 Q964.0781,289.7813 964.2813,289.7813 Q964.6094,289.7813 964.8594,290.0469 Q965.125,290.2969 965.125,290.6406 Q965.125,290.9844 964.7813,291.3906 Q964.2813,291.9688 963.4844,292.2969 Q962.4063,292.75 961.1094,292.75 Q959.5938,292.75 958.3906,292.125 Q957.4063,291.625 956.7188,290.5625 Q956.0313,289.4844 956.0313,288.2031 L956.0313,287.0469 Q956.0313,285.7188 956.6406,284.5781 Q957.2656,283.4219 958.3594,282.8125 Q959.4531,282.1875 960.6875,282.1875 Q961.4219,282.1875 962.0625,282.3594 Q962.7188,282.5156 963.2656,282.875 Z "/><text fill="#000000" font-family="sans-serif" font-size="12" lengthAdjust="spacingAndGlyphs" textLength="65" x="974.5" y="291.9102">Colaborator</text><line style="stroke: #A80036; stroke-width: 1.5;" x1="946.5" x2="1041.5" y1="303" y2="303"/><text fill="#000000" font-family="sans-serif" font-size="11" lengthAdjust="spacingAndGlyphs" textLength="61" x="951.5" y="318.4189">-String nome</text><text fill="#000000" font-family="sans-serif" font-size="11" lengthAdjust="spacingAndGlyphs" textLength="59" x="951.5" y="332.2549">-String email</text><text fill="#000000" font-family="sans-serif" font-size="11" lengthAdjust="spacingAndGlyphs" textLength="85" x="951.5" y="346.0908">-String password</text><!--MD5=[b24ed8d4ae84bae9290d9aab401637c7]
class Manager--><rect fill="#FEFECE" filter="url(#f1wdar0j52qfel)" height="81.5078" id="Manager" style="stroke: #A80036; stroke-width: 1.5;" width="97" x="666" y="506"/><ellipse cx="688.65" cy="522" fill="#ADD1B2" rx="11" ry="11" style="stroke: #A80036; stroke-width: 1.0;"/><path d="M691.4156,517.875 Q691.5719,517.6563 691.7594,517.5469 Q691.9469,517.4375 692.1656,517.4375 Q692.5406,517.4375 692.775,517.7031 Q693.0094,517.9531 693.0094,518.5625 L693.0094,520.0156 Q693.0094,520.625 692.775,520.8906 Q692.5406,521.1563 692.1656,521.1563 Q691.8219,521.1563 691.6188,520.9531 Q691.4156,520.7656 691.3063,520.25 Q691.2594,519.8906 691.0719,519.7031 Q690.7438,519.3281 690.1344,519.1094 Q689.525,518.8906 688.9,518.8906 Q688.1344,518.8906 687.4938,519.2188 Q686.8688,519.5469 686.3688,520.2969 Q685.8844,521.0469 685.8844,522.0781 L685.8844,523.1719 Q685.8844,524.4063 686.775,525.2344 Q687.6656,526.0469 689.2594,526.0469 Q690.1969,526.0469 690.8531,525.7969 Q691.2438,525.6406 691.6656,525.2031 Q691.9313,524.9375 692.0719,524.8594 Q692.2281,524.7813 692.4313,524.7813 Q692.7594,524.7813 693.0094,525.0469 Q693.275,525.2969 693.275,525.6406 Q693.275,525.9844 692.9313,526.3906 Q692.4313,526.9688 691.6344,527.2969 Q690.5563,527.75 689.2594,527.75 Q687.7438,527.75 686.5406,527.125 Q685.5563,526.625 684.8688,525.5625 Q684.1813,524.4844 684.1813,523.2031 L684.1813,522.0469 Q684.1813,520.7188 684.7906,519.5781 Q685.4156,518.4219 686.5094,517.8125 Q687.6031,517.1875 688.8375,517.1875 Q689.5719,517.1875 690.2125,517.3594 Q690.8688,517.5156 691.4156,517.875 Z "/><text fill="#000000" font-family="sans-serif" font-size="12" lengthAdjust="spacingAndGlyphs" textLength="48" x="704.35" y="526.9102">Manager</text><line style="stroke: #A80036; stroke-width: 1.5;" x1="667" x2="762" y1="538" y2="538"/><text fill="#000000" font-family="sans-serif" font-size="11" lengthAdjust="spacingAndGlyphs" textLength="61" x="672" y="553.4189">-String nome</text><text fill="#000000" font-family="sans-serif" font-size="11" lengthAdjust="spacingAndGlyphs" textLength="59" x="672" y="567.2549">-String email</text><text fill="#000000" font-family="sans-serif" font-size="11" lengthAdjust="spacingAndGlyphs" textLength="85" x="672" y="581.0908">-String password</text><!--MD5=[4555bb1b0911a5adf28ce6dbe60fed2e]
class Transaction--><rect fill="#FEFECE" filter="url(#f1wdar0j52qfel)" height="40" id="Transaction" style="stroke: #A80036; stroke-width: 1.5;" width="97" x="1594.5" y="439"/><ellipse cx="1609.5" cy="455" fill="#ADD1B2" rx="11" ry="11" style="stroke: #A80036; stroke-width: 1.0;"/><path d="M1612.2656,450.875 Q1612.4219,450.6563 1612.6094,450.5469 Q1612.7969,450.4375 1613.0156,450.4375 Q1613.3906,450.4375 1613.625,450.7031 Q1613.8594,450.9531 1613.8594,451.5625 L1613.8594,453.0156 Q1613.8594,453.625 1613.625,453.8906 Q1613.3906,454.1563 1613.0156,454.1563 Q1612.6719,454.1563 1612.4688,453.9531 Q1612.2656,453.7656 1612.1563,453.25 Q1612.1094,452.8906 1611.9219,452.7031 Q1611.5938,452.3281 1610.9844,452.1094 Q1610.375,451.8906 1609.75,451.8906 Q1608.9844,451.8906 1608.3438,452.2188 Q1607.7188,452.5469 1607.2188,453.2969 Q1606.7344,454.0469 1606.7344,455.0781 L1606.7344,456.1719 Q1606.7344,457.4063 1607.625,458.2344 Q1608.5156,459.0469 1610.1094,459.0469 Q1611.0469,459.0469 1611.7031,458.7969 Q1612.0938,458.6406 1612.5156,458.2031 Q1612.7813,457.9375 1612.9219,457.8594 Q1613.0781,457.7813 1613.2813,457.7813 Q1613.6094,457.7813 1613.8594,458.0469 Q1614.125,458.2969 1614.125,458.6406 Q1614.125,458.9844 1613.7813,459.3906 Q1613.2813,459.9688 1612.4844,460.2969 Q1611.4063,460.75 1610.1094,460.75 Q1608.5938,460.75 1607.3906,460.125 Q1606.4063,459.625 1605.7188,458.5625 Q1605.0313,457.4844 1605.0313,456.2031 L1605.0313,455.0469 Q1605.0313,453.7188 1605.6406,452.5781 Q1606.2656,451.4219 1607.3594,450.8125 Q1608.4531,450.1875 1609.6875,450.1875 Q1610.4219,450.1875 1611.0625,450.3594 Q1611.7188,450.5156 1612.2656,450.875 Z "/><text fill="#000000" font-family="sans-serif" font-size="12" lengthAdjust="spacingAndGlyphs" textLength="65" x="1623.5" y="459.9102">Transaction</text><line style="stroke: #A80036; stroke-width: 1.5;" x1="1595.5" x2="1690.5" y1="471" y2="471"/><!--MD5=[f9fa7692a1144bec397c3ffa19589ca2]
class TaskExecutionDetails--><rect fill="#FEFECE" filter="url(#f1wdar0j52qfel)" height="81.5078" id="TaskExecutionDetails" style="stroke: #A80036; stroke-width: 1.5;" width="171" x="1890" y="324"/><ellipse cx="1914" cy="340" fill="#ADD1B2" rx="11" ry="11" style="stroke: #A80036; stroke-width: 1.0;"/><path d="M1916.7656,335.875 Q1916.9219,335.6563 1917.1094,335.5469 Q1917.2969,335.4375 1917.5156,335.4375 Q1917.8906,335.4375 1918.125,335.7031 Q1918.3594,335.9531 1918.3594,336.5625 L1918.3594,338.0156 Q1918.3594,338.625 1918.125,338.8906 Q1917.8906,339.1563 1917.5156,339.1563 Q1917.1719,339.1563 1916.9688,338.9531 Q1916.7656,338.7656 1916.6563,338.25 Q1916.6094,337.8906 1916.4219,337.7031 Q1916.0938,337.3281 1915.4844,337.1094 Q1914.875,336.8906 1914.25,336.8906 Q1913.4844,336.8906 1912.8438,337.2188 Q1912.2188,337.5469 1911.7188,338.2969 Q1911.2344,339.0469 1911.2344,340.0781 L1911.2344,341.1719 Q1911.2344,342.4063 1912.125,343.2344 Q1913.0156,344.0469 1914.6094,344.0469 Q1915.5469,344.0469 1916.2031,343.7969 Q1916.5938,343.6406 1917.0156,343.2031 Q1917.2813,342.9375 1917.4219,342.8594 Q1917.5781,342.7813 1917.7813,342.7813 Q1918.1094,342.7813 1918.3594,343.0469 Q1918.625,343.2969 1918.625,343.6406 Q1918.625,343.9844 1918.2813,344.3906 Q1917.7813,344.9688 1916.9844,345.2969 Q1915.9063,345.75 1914.6094,345.75 Q1913.0938,345.75 1911.8906,345.125 Q1910.9063,344.625 1910.2188,343.5625 Q1909.5313,342.4844 1909.5313,341.2031 L1909.5313,340.0469 Q1909.5313,338.7188 1910.1406,337.5781 Q1910.7656,336.4219 1911.8594,335.8125 Q1912.9531,335.1875 1914.1875,335.1875 Q1914.9219,335.1875 1915.5625,335.3594 Q1916.2188,335.5156 1916.7656,335.875 Z "/><text fill="#000000" font-family="sans-serif" font-size="12" lengthAdjust="spacingAndGlyphs" textLength="119" x="1930" y="344.9102">TaskExecutionDetails</text><line style="stroke: #A80036; stroke-width: 1.5;" x1="1891" x2="2060" y1="356" y2="356"/><text fill="#000000" font-family="sans-serif" font-size="11" lengthAdjust="spacingAndGlyphs" textLength="69" x="1896" y="371.4189">-Date endDate</text><text fill="#000000" font-family="sans-serif" font-size="11" lengthAdjust="spacingAndGlyphs" textLength="99" x="1896" y="385.2549">-Integer delayInDays</text><text fill="#000000" font-family="sans-serif" font-size="11" lengthAdjust="spacingAndGlyphs" textLength="159" x="1896" y="399.0908">-String DescriptionQualityOfWork</text><!--MD5=[6e5bbc712ea226b699d2ce44e283e8b8]
class HistoricalTransactionFile--><rect fill="#FEFECE" filter="url(#f1wdar0j52qfel)" height="40" id="HistoricalTransactionFile" style="stroke: #A80036; stroke-width: 1.5;" width="169" x="1257" y="327"/><ellipse cx="1272" cy="343" fill="#ADD1B2" rx="11" ry="11" style="stroke: #A80036; stroke-width: 1.0;"/><path d="M1274.7656,338.875 Q1274.9219,338.6563 1275.1094,338.5469 Q1275.2969,338.4375 1275.5156,338.4375 Q1275.8906,338.4375 1276.125,338.7031 Q1276.3594,338.9531 1276.3594,339.5625 L1276.3594,341.0156 Q1276.3594,341.625 1276.125,341.8906 Q1275.8906,342.1563 1275.5156,342.1563 Q1275.1719,342.1563 1274.9688,341.9531 Q1274.7656,341.7656 1274.6563,341.25 Q1274.6094,340.8906 1274.4219,340.7031 Q1274.0938,340.3281 1273.4844,340.1094 Q1272.875,339.8906 1272.25,339.8906 Q1271.4844,339.8906 1270.8438,340.2188 Q1270.2188,340.5469 1269.7188,341.2969 Q1269.2344,342.0469 1269.2344,343.0781 L1269.2344,344.1719 Q1269.2344,345.4063 1270.125,346.2344 Q1271.0156,347.0469 1272.6094,347.0469 Q1273.5469,347.0469 1274.2031,346.7969 Q1274.5938,346.6406 1275.0156,346.2031 Q1275.2813,345.9375 1275.4219,345.8594 Q1275.5781,345.7813 1275.7813,345.7813 Q1276.1094,345.7813 1276.3594,346.0469 Q1276.625,346.2969 1276.625,346.6406 Q1276.625,346.9844 1276.2813,347.3906 Q1275.7813,347.9688 1274.9844,348.2969 Q1273.9063,348.75 1272.6094,348.75 Q1271.0938,348.75 1269.8906,348.125 Q1268.9063,347.625 1268.2188,346.5625 Q1267.5313,345.4844 1267.5313,344.2031 L1267.5313,343.0469 Q1267.5313,341.7188 1268.1406,340.5781 Q1268.7656,339.4219 1269.8594,338.8125 Q1270.9531,338.1875 1272.1875,338.1875 Q1272.9219,338.1875 1273.5625,338.3594 Q1274.2188,338.5156 1274.7656,338.875 Z "/><text fill="#000000" font-family="sans-serif" font-size="12" lengthAdjust="spacingAndGlyphs" textLength="137" x="1286" y="347.9102">HistoricalTransactionFile</text><line style="stroke: #A80036; stroke-width: 1.5;" x1="1258" x2="1425" y1="359" y2="359"/><!--MD5=[dc84a4e894a42f8e8d7fc762e5a59f92]
class PaymentScheduler--><rect fill="#FEFECE" filter="url(#f1wdar0j52qfel)" height="67.6719" id="PaymentScheduler" style="stroke: #A80036; stroke-width: 1.5;" width="136" x="926" y="530"/><ellipse cx="941" cy="546" fill="#ADD1B2" rx="11" ry="11" style="stroke: #A80036; stroke-width: 1.0;"/><path d="M943.7656,541.875 Q943.9219,541.6563 944.1094,541.5469 Q944.2969,541.4375 944.5156,541.4375 Q944.8906,541.4375 945.125,541.7031 Q945.3594,541.9531 945.3594,542.5625 L945.3594,544.0156 Q945.3594,544.625 945.125,544.8906 Q944.8906,545.1563 944.5156,545.1563 Q944.1719,545.1563 943.9688,544.9531 Q943.7656,544.7656 943.6563,544.25 Q943.6094,543.8906 943.4219,543.7031 Q943.0938,543.3281 942.4844,543.1094 Q941.875,542.8906 941.25,542.8906 Q940.4844,542.8906 939.8438,543.2188 Q939.2188,543.5469 938.7188,544.2969 Q938.2344,545.0469 938.2344,546.0781 L938.2344,547.1719 Q938.2344,548.4063 939.125,549.2344 Q940.0156,550.0469 941.6094,550.0469 Q942.5469,550.0469 943.2031,549.7969 Q943.5938,549.6406 944.0156,549.2031 Q944.2813,548.9375 944.4219,548.8594 Q944.5781,548.7813 944.7813,548.7813 Q945.1094,548.7813 945.3594,549.0469 Q945.625,549.2969 945.625,549.6406 Q945.625,549.9844 945.2813,550.3906 Q944.7813,550.9688 943.9844,551.2969 Q942.9063,551.75 941.6094,551.75 Q940.0938,551.75 938.8906,551.125 Q937.9063,550.625 937.2188,549.5625 Q936.5313,548.4844 936.5313,547.2031 L936.5313,546.0469 Q936.5313,544.7188 937.1406,543.5781 Q937.7656,542.4219 938.8594,541.8125 Q939.9531,541.1875 941.1875,541.1875 Q941.9219,541.1875 942.5625,541.3594 Q943.2188,541.5156 943.7656,541.875 Z "/><text fill="#000000" font-family="sans-serif" font-size="12" lengthAdjust="spacingAndGlyphs" textLength="104" x="955" y="550.9102">PaymentScheduler</text><line style="stroke: #A80036; stroke-width: 1.5;" x1="927" x2="1061" y1="562" y2="562"/><text fill="#000000" font-family="sans-serif" font-size="11" lengthAdjust="spacingAndGlyphs" textLength="87" x="932" y="577.4189">-Integer dayMonth</text><text fill="#000000" font-family="sans-serif" font-size="11" lengthAdjust="spacingAndGlyphs" textLength="105" x="932" y="591.2549">-LocalTime timeOfDay</text><!--MD5=[86c7c362de55a38b660185a1328fe18d]
class Organization--><rect fill="#FEFECE" filter="url(#f1wdar0j52qfel)" height="53.8359" id="Organization" style="stroke: #A80036; stroke-width: 1.5;" width="101" x="440" y="546"/><ellipse cx="455" cy="562" fill="#ADD1B2" rx="11" ry="11" style="stroke: #A80036; stroke-width: 1.0;"/><path d="M457.7656,557.875 Q457.9219,557.6563 458.1094,557.5469 Q458.2969,557.4375 458.5156,557.4375 Q458.8906,557.4375 459.125,557.7031 Q459.3594,557.9531 459.3594,558.5625 L459.3594,560.0156 Q459.3594,560.625 459.125,560.8906 Q458.8906,561.1563 458.5156,561.1563 Q458.1719,561.1563 457.9688,560.9531 Q457.7656,560.7656 457.6563,560.25 Q457.6094,559.8906 457.4219,559.7031 Q457.0938,559.3281 456.4844,559.1094 Q455.875,558.8906 455.25,558.8906 Q454.4844,558.8906 453.8438,559.2188 Q453.2188,559.5469 452.7188,560.2969 Q452.2344,561.0469 452.2344,562.0781 L452.2344,563.1719 Q452.2344,564.4063 453.125,565.2344 Q454.0156,566.0469 455.6094,566.0469 Q456.5469,566.0469 457.2031,565.7969 Q457.5938,565.6406 458.0156,565.2031 Q458.2813,564.9375 458.4219,564.8594 Q458.5781,564.7813 458.7813,564.7813 Q459.1094,564.7813 459.3594,565.0469 Q459.625,565.2969 459.625,565.6406 Q459.625,565.9844 459.2813,566.3906 Q458.7813,566.9688 457.9844,567.2969 Q456.9063,567.75 455.6094,567.75 Q454.0938,567.75 452.8906,567.125 Q451.9063,566.625 451.2188,565.5625 Q450.5313,564.4844 450.5313,563.2031 L450.5313,562.0469 Q450.5313,560.7188 451.1406,559.5781 Q451.7656,558.4219 452.8594,557.8125 Q453.9531,557.1875 455.1875,557.1875 Q455.9219,557.1875 456.5625,557.3594 Q457.2188,557.5156 457.7656,557.875 Z "/><text fill="#000000" font-family="sans-serif" font-size="12" lengthAdjust="spacingAndGlyphs" textLength="69" x="469" y="566.9102">Organization</text><line style="stroke: #A80036; stroke-width: 1.5;" x1="441" x2="540" y1="578" y2="578"/><text fill="#000000" font-family="sans-serif" font-size="11" lengthAdjust="spacingAndGlyphs" textLength="61" x="446" y="593.4189">-String nome</text><!--MD5=[b34797a66dc35cbf1d65f7e3ca75530e]
class Task--><rect fill="#FEFECE" filter="url(#f1wdar0j52qfel)" height="109.1797" id="Task" style="stroke: #A80036; stroke-width: 1.5;" width="169" x="2178" y="310.5"/><ellipse cx="2244.75" cy="326.5" fill="#ADD1B2" rx="11" ry="11" style="stroke: #A80036; stroke-width: 1.0;"/><path d="M2247.5156,322.375 Q2247.6719,322.1563 2247.8594,322.0469 Q2248.0469,321.9375 2248.2656,321.9375 Q2248.6406,321.9375 2248.875,322.2031 Q2249.1094,322.4531 2249.1094,323.0625 L2249.1094,324.5156 Q2249.1094,325.125 2248.875,325.3906 Q2248.6406,325.6563 2248.2656,325.6563 Q2247.9219,325.6563 2247.7188,325.4531 Q2247.5156,325.2656 2247.4063,324.75 Q2247.3594,324.3906 2247.1719,324.2031 Q2246.8438,323.8281 2246.2344,323.6094 Q2245.625,323.3906 2245,323.3906 Q2244.2344,323.3906 2243.5938,323.7188 Q2242.9688,324.0469 2242.4688,324.7969 Q2241.9844,325.5469 2241.9844,326.5781 L2241.9844,327.6719 Q2241.9844,328.9063 2242.875,329.7344 Q2243.7656,330.5469 2245.3594,330.5469 Q2246.2969,330.5469 2246.9531,330.2969 Q2247.3438,330.1406 2247.7656,329.7031 Q2248.0313,329.4375 2248.1719,329.3594 Q2248.3281,329.2813 2248.5313,329.2813 Q2248.8594,329.2813 2249.1094,329.5469 Q2249.375,329.7969 2249.375,330.1406 Q2249.375,330.4844 2249.0313,330.8906 Q2248.5313,331.4688 2247.7344,331.7969 Q2246.6563,332.25 2245.3594,332.25 Q2243.8438,332.25 2242.6406,331.625 Q2241.6563,331.125 2240.9688,330.0625 Q2240.2813,328.9844 2240.2813,327.7031 L2240.2813,326.5469 Q2240.2813,325.2188 2240.8906,324.0781 Q2241.5156,322.9219 2242.6094,322.3125 Q2243.7031,321.6875 2244.9375,321.6875 Q2245.6719,321.6875 2246.3125,321.8594 Q2246.9688,322.0156 2247.5156,322.375 Z "/><text fill="#000000" font-family="sans-serif" font-size="12" lengthAdjust="spacingAndGlyphs" textLength="27" x="2265.25" y="331.4102">Task</text><line style="stroke: #A80036; stroke-width: 1.5;" x1="2179" x2="2346" y1="342.5" y2="342.5"/><text fill="#000000" font-family="sans-serif" font-size="11" lengthAdjust="spacingAndGlyphs" textLength="43" x="2184" y="357.9189">-String id</text><text fill="#000000" font-family="sans-serif" font-size="11" lengthAdjust="spacingAndGlyphs" textLength="88" x="2184" y="371.7549">-String description</text><text fill="#000000" font-family="sans-serif" font-size="11" lengthAdjust="spacingAndGlyphs" textLength="116" x="2184" y="385.5908">-Integer durationInHours</text><text fill="#000000" font-family="sans-serif" font-size="11" lengthAdjust="spacingAndGlyphs" textLength="157" x="2184" y="399.4268">-Double costPerHourOfJuniorEur</text><text fill="#000000" font-family="sans-serif" font-size="11" lengthAdjust="spacingAndGlyphs" textLength="78" x="2184" y="413.2627">-String category</text><!--MD5=[335f4d9be48430461c68bf6d6fdba145]
class App--><rect fill="#FEFECE" filter="url(#f1wdar0j52qfel)" height="40" id="App" style="stroke: #A80036; stroke-width: 1.5;" width="53" x="6" y="650"/><ellipse cx="21" cy="666" fill="#ADD1B2" rx="11" ry="11" style="stroke: #A80036; stroke-width: 1.0;"/><path d="M23.7656,661.875 Q23.9219,661.6563 24.1094,661.5469 Q24.2969,661.4375 24.5156,661.4375 Q24.8906,661.4375 25.125,661.7031 Q25.3594,661.9531 25.3594,662.5625 L25.3594,664.0156 Q25.3594,664.625 25.125,664.8906 Q24.8906,665.1563 24.5156,665.1563 Q24.1719,665.1563 23.9688,664.9531 Q23.7656,664.7656 23.6563,664.25 Q23.6094,663.8906 23.4219,663.7031 Q23.0938,663.3281 22.4844,663.1094 Q21.875,662.8906 21.25,662.8906 Q20.4844,662.8906 19.8438,663.2188 Q19.2188,663.5469 18.7188,664.2969 Q18.2344,665.0469 18.2344,666.0781 L18.2344,667.1719 Q18.2344,668.4063 19.125,669.2344 Q20.0156,670.0469 21.6094,670.0469 Q22.5469,670.0469 23.2031,669.7969 Q23.5938,669.6406 24.0156,669.2031 Q24.2813,668.9375 24.4219,668.8594 Q24.5781,668.7813 24.7813,668.7813 Q25.1094,668.7813 25.3594,669.0469 Q25.625,669.2969 25.625,669.6406 Q25.625,669.9844 25.2813,670.3906 Q24.7813,670.9688 23.9844,671.2969 Q22.9063,671.75 21.6094,671.75 Q20.0938,671.75 18.8906,671.125 Q17.9063,670.625 17.2188,669.5625 Q16.5313,668.4844 16.5313,667.2031 L16.5313,666.0469 Q16.5313,664.7188 17.1406,663.5781 Q17.7656,662.4219 18.8594,661.8125 Q19.9531,661.1875 21.1875,661.1875 Q21.9219,661.1875 22.5625,661.3594 Q23.2188,661.5156 23.7656,661.875 Z "/><text fill="#000000" font-family="sans-serif" font-size="12" lengthAdjust="spacingAndGlyphs" textLength="21" x="35" y="670.9102">App</text><line style="stroke: #A80036; stroke-width: 1.5;" x1="7" x2="58" y1="682" y2="682"/><!--MD5=[da547346deef918ea16944ba046651ef]
class Administrator--><rect fill="#FEFECE" filter="url(#f1wdar0j52qfel)" height="81.5078" id="Administrator" style="stroke: #A80036; stroke-width: 1.5;" width="105" x="155" y="723"/><ellipse cx="170" cy="739" fill="#ADD1B2" rx="11" ry="11" style="stroke: #A80036; stroke-width: 1.0;"/><path d="M172.7656,734.875 Q172.9219,734.6563 173.1094,734.5469 Q173.2969,734.4375 173.5156,734.4375 Q173.8906,734.4375 174.125,734.7031 Q174.3594,734.9531 174.3594,735.5625 L174.3594,737.0156 Q174.3594,737.625 174.125,737.8906 Q173.8906,738.1563 173.5156,738.1563 Q173.1719,738.1563 172.9688,737.9531 Q172.7656,737.7656 172.6563,737.25 Q172.6094,736.8906 172.4219,736.7031 Q172.0938,736.3281 171.4844,736.1094 Q170.875,735.8906 170.25,735.8906 Q169.4844,735.8906 168.8438,736.2188 Q168.2188,736.5469 167.7188,737.2969 Q167.2344,738.0469 167.2344,739.0781 L167.2344,740.1719 Q167.2344,741.4063 168.125,742.2344 Q169.0156,743.0469 170.6094,743.0469 Q171.5469,743.0469 172.2031,742.7969 Q172.5938,742.6406 173.0156,742.2031 Q173.2813,741.9375 173.4219,741.8594 Q173.5781,741.7813 173.7813,741.7813 Q174.1094,741.7813 174.3594,742.0469 Q174.625,742.2969 174.625,742.6406 Q174.625,742.9844 174.2813,743.3906 Q173.7813,743.9688 172.9844,744.2969 Q171.9063,744.75 170.6094,744.75 Q169.0938,744.75 167.8906,744.125 Q166.9063,743.625 166.2188,742.5625 Q165.5313,741.4844 165.5313,740.2031 L165.5313,739.0469 Q165.5313,737.7188 166.1406,736.5781 Q166.7656,735.4219 167.8594,734.8125 Q168.9531,734.1875 170.1875,734.1875 Q170.9219,734.1875 171.5625,734.3594 Q172.2188,734.5156 172.7656,734.875 Z "/><text fill="#000000" font-family="sans-serif" font-size="12" lengthAdjust="spacingAndGlyphs" textLength="73" x="184" y="743.9102">Administrator</text><line style="stroke: #A80036; stroke-width: 1.5;" x1="156" x2="259" y1="755" y2="755"/><text fill="#000000" font-family="sans-serif" font-size="11" lengthAdjust="spacingAndGlyphs" textLength="61" x="161" y="770.4189">-String nome</text><text fill="#000000" font-family="sans-serif" font-size="11" lengthAdjust="spacingAndGlyphs" textLength="59" x="161" y="784.2549">-String email</text><text fill="#000000" font-family="sans-serif" font-size="11" lengthAdjust="spacingAndGlyphs" textLength="85" x="161" y="798.0908">-String password</text><!--MD5=[942000697ba2ca87a591befaf65c4861]
class EmailScheduler--><rect fill="#FEFECE" filter="url(#f1wdar0j52qfel)" height="40" id="EmailScheduler" style="stroke: #A80036; stroke-width: 1.5;" width="120" x="290" y="702"/><ellipse cx="305" cy="718" fill="#ADD1B2" rx="11" ry="11" style="stroke: #A80036; stroke-width: 1.0;"/><path d="M307.7656,713.875 Q307.9219,713.6563 308.1094,713.5469 Q308.2969,713.4375 308.5156,713.4375 Q308.8906,713.4375 309.125,713.7031 Q309.3594,713.9531 309.3594,714.5625 L309.3594,716.0156 Q309.3594,716.625 309.125,716.8906 Q308.8906,717.1563 308.5156,717.1563 Q308.1719,717.1563 307.9688,716.9531 Q307.7656,716.7656 307.6563,716.25 Q307.6094,715.8906 307.4219,715.7031 Q307.0938,715.3281 306.4844,715.1094 Q305.875,714.8906 305.25,714.8906 Q304.4844,714.8906 303.8438,715.2188 Q303.2188,715.5469 302.7188,716.2969 Q302.2344,717.0469 302.2344,718.0781 L302.2344,719.1719 Q302.2344,720.4063 303.125,721.2344 Q304.0156,722.0469 305.6094,722.0469 Q306.5469,722.0469 307.2031,721.7969 Q307.5938,721.6406 308.0156,721.2031 Q308.2813,720.9375 308.4219,720.8594 Q308.5781,720.7813 308.7813,720.7813 Q309.1094,720.7813 309.3594,721.0469 Q309.625,721.2969 309.625,721.6406 Q309.625,721.9844 309.2813,722.3906 Q308.7813,722.9688 307.9844,723.2969 Q306.9063,723.75 305.6094,723.75 Q304.0938,723.75 302.8906,723.125 Q301.9063,722.625 301.2188,721.5625 Q300.5313,720.4844 300.5313,719.2031 L300.5313,718.0469 Q300.5313,716.7188 301.1406,715.5781 Q301.7656,714.4219 302.8594,713.8125 Q303.9531,713.1875 305.1875,713.1875 Q305.9219,713.1875 306.5625,713.3594 Q307.2188,713.5156 307.7656,713.875 Z "/><text fill="#000000" font-family="sans-serif" font-size="12" lengthAdjust="spacingAndGlyphs" textLength="88" x="319" y="722.9102">EmailScheduler</text><line style="stroke: #A80036; stroke-width: 1.5;" x1="291" x2="409" y1="734" y2="734"/><!--MD5=[3fd616f346a44cd59a91eb10b19e157c]
class User--><rect fill="#FEFECE" filter="url(#f1wdar0j52qfel)" height="81.5078" id="User" style="stroke: #A80036; stroke-width: 1.5;" width="97" x="1927" y="644"/><ellipse cx="1959.1" cy="660" fill="#ADD1B2" rx="11" ry="11" style="stroke: #A80036; stroke-width: 1.0;"/><path d="M1961.8656,655.875 Q1962.0219,655.6563 1962.2094,655.5469 Q1962.3969,655.4375 1962.6156,655.4375 Q1962.9906,655.4375 1963.225,655.7031 Q1963.4594,655.9531 1963.4594,656.5625 L1963.4594,658.0156 Q1963.4594,658.625 1963.225,658.8906 Q1962.9906,659.1563 1962.6156,659.1563 Q1962.2719,659.1563 1962.0688,658.9531 Q1961.8656,658.7656 1961.7563,658.25 Q1961.7094,657.8906 1961.5219,657.7031 Q1961.1938,657.3281 1960.5844,657.1094 Q1959.975,656.8906 1959.35,656.8906 Q1958.5844,656.8906 1957.9438,657.2188 Q1957.3188,657.5469 1956.8188,658.2969 Q1956.3344,659.0469 1956.3344,660.0781 L1956.3344,661.1719 Q1956.3344,662.4063 1957.225,663.2344 Q1958.1156,664.0469 1959.7094,664.0469 Q1960.6469,664.0469 1961.3031,663.7969 Q1961.6938,663.6406 1962.1156,663.2031 Q1962.3813,662.9375 1962.5219,662.8594 Q1962.6781,662.7813 1962.8813,662.7813 Q1963.2094,662.7813 1963.4594,663.0469 Q1963.725,663.2969 1963.725,663.6406 Q1963.725,663.9844 1963.3813,664.3906 Q1962.8813,664.9688 1962.0844,665.2969 Q1961.0063,665.75 1959.7094,665.75 Q1958.1938,665.75 1956.9906,665.125 Q1956.0063,664.625 1955.3188,663.5625 Q1954.6313,662.4844 1954.6313,661.2031 L1954.6313,660.0469 Q1954.6313,658.7188 1955.2406,657.5781 Q1955.8656,656.4219 1956.9594,655.8125 Q1958.0531,655.1875 1959.2875,655.1875 Q1960.0219,655.1875 1960.6625,655.3594 Q1961.3188,655.5156 1961.8656,655.875 Z "/><text fill="#000000" font-family="sans-serif" font-size="12" lengthAdjust="spacingAndGlyphs" textLength="27" x="1976.9" y="664.9102">User</text><line style="stroke: #A80036; stroke-width: 1.5;" x1="1928" x2="2023" y1="676" y2="676"/><text fill="#000000" font-family="sans-serif" font-size="11" lengthAdjust="spacingAndGlyphs" textLength="61" x="1933" y="691.4189">-String nome</text><text fill="#000000" font-family="sans-serif" font-size="11" lengthAdjust="spacingAndGlyphs" textLength="59" x="1933" y="705.2549">-String email</text><text fill="#000000" font-family="sans-serif" font-size="11" lengthAdjust="spacingAndGlyphs" textLength="85" x="1933" y="719.0908">-String password</text><!--MD5=[1f687b5315377fe49fca59b457947463]
class Freelancer--><rect fill="#FEFECE" filter="url(#f1wdar0j52qfel)" height="150.6875" id="Freelancer" style="stroke: #A80036; stroke-width: 1.5;" width="135" x="2493" y="471.5"/><ellipse cx="2527.8" cy="487.5" fill="#ADD1B2" rx="11" ry="11" style="stroke: #A80036; stroke-width: 1.0;"/><path d="M2530.5656,483.375 Q2530.7219,483.1563 2530.9094,483.0469 Q2531.0969,482.9375 2531.3156,482.9375 Q2531.6906,482.9375 2531.925,483.2031 Q2532.1594,483.4531 2532.1594,484.0625 L2532.1594,485.5156 Q2532.1594,486.125 2531.925,486.3906 Q2531.6906,486.6563 2531.3156,486.6563 Q2530.9719,486.6563 2530.7688,486.4531 Q2530.5656,486.2656 2530.4563,485.75 Q2530.4094,485.3906 2530.2219,485.2031 Q2529.8938,484.8281 2529.2844,484.6094 Q2528.675,484.3906 2528.05,484.3906 Q2527.2844,484.3906 2526.6438,484.7188 Q2526.0188,485.0469 2525.5188,485.7969 Q2525.0344,486.5469 2525.0344,487.5781 L2525.0344,488.6719 Q2525.0344,489.9063 2525.925,490.7344 Q2526.8156,491.5469 2528.4094,491.5469 Q2529.3469,491.5469 2530.0031,491.2969 Q2530.3938,491.1406 2530.8156,490.7031 Q2531.0813,490.4375 2531.2219,490.3594 Q2531.3781,490.2813 2531.5813,490.2813 Q2531.9094,490.2813 2532.1594,490.5469 Q2532.425,490.7969 2532.425,491.1406 Q2532.425,491.4844 2532.0813,491.8906 Q2531.5813,492.4688 2530.7844,492.7969 Q2529.7063,493.25 2528.4094,493.25 Q2526.8938,493.25 2525.6906,492.625 Q2524.7063,492.125 2524.0188,491.0625 Q2523.3313,489.9844 2523.3313,488.7031 L2523.3313,487.5469 Q2523.3313,486.2188 2523.9406,485.0781 Q2524.5656,483.9219 2525.6594,483.3125 Q2526.7531,482.6875 2527.9875,482.6875 Q2528.7219,482.6875 2529.3625,482.8594 Q2530.0188,483.0156 2530.5656,483.375 Z "/><text fill="#000000" font-family="sans-serif" font-size="12" lengthAdjust="spacingAndGlyphs" textLength="59" x="2546.2" y="492.4102">Freelancer</text><line style="stroke: #A80036; stroke-width: 1.5;" x1="2494" x2="2627" y1="503.5" y2="503.5"/><text fill="#000000" font-family="sans-serif" font-size="11" lengthAdjust="spacingAndGlyphs" textLength="43" x="2499" y="518.9189">-String id</text><text fill="#000000" font-family="sans-serif" font-size="11" lengthAdjust="spacingAndGlyphs" textLength="61" x="2499" y="532.7549">-String name</text><text fill="#000000" font-family="sans-serif" font-size="11" lengthAdjust="spacingAndGlyphs" textLength="114" x="2499" y="546.5908">-String levelOfExpertise</text><text fill="#000000" font-family="sans-serif" font-size="11" lengthAdjust="spacingAndGlyphs" textLength="59" x="2499" y="560.4268">-String email</text><text fill="#000000" font-family="sans-serif" font-size="11" lengthAdjust="spacingAndGlyphs" textLength="50" x="2499" y="574.2627">-String NIF</text><text fill="#000000" font-family="sans-serif" font-size="11" lengthAdjust="spacingAndGlyphs" textLength="123" x="2499" y="588.0986">-String bankAccountIBAN</text><text fill="#000000" font-family="sans-serif" font-size="11" lengthAdjust="spacingAndGlyphs" textLength="75" x="2499" y="601.9346">-String address</text><text fill="#000000" font-family="sans-serif" font-size="11" lengthAdjust="spacingAndGlyphs" textLength="72" x="2499" y="615.7705">-String country</text><!--MD5=[764fca796ce7f635542948d8fc39db5e]
class Payment--><rect fill="#FEFECE" filter="url(#f1wdar0j52qfel)" height="40" id="Payment" style="stroke: #A80036; stroke-width: 1.5;" width="80" x="1301.5" y="480"/><ellipse cx="1316.5" cy="496" fill="#ADD1B2" rx="11" ry="11" style="stroke: #A80036; stroke-width: 1.0;"/><path d="M1319.2656,491.875 Q1319.4219,491.6563 1319.6094,491.5469 Q1319.7969,491.4375 1320.0156,491.4375 Q1320.3906,491.4375 1320.625,491.7031 Q1320.8594,491.9531 1320.8594,492.5625 L1320.8594,494.0156 Q1320.8594,494.625 1320.625,494.8906 Q1320.3906,495.1563 1320.0156,495.1563 Q1319.6719,495.1563 1319.4688,494.9531 Q1319.2656,494.7656 1319.1563,494.25 Q1319.1094,493.8906 1318.9219,493.7031 Q1318.5938,493.3281 1317.9844,493.1094 Q1317.375,492.8906 1316.75,492.8906 Q1315.9844,492.8906 1315.3438,493.2188 Q1314.7188,493.5469 1314.2188,494.2969 Q1313.7344,495.0469 1313.7344,496.0781 L1313.7344,497.1719 Q1313.7344,498.4063 1314.625,499.2344 Q1315.5156,500.0469 1317.1094,500.0469 Q1318.0469,500.0469 1318.7031,499.7969 Q1319.0938,499.6406 1319.5156,499.2031 Q1319.7813,498.9375 1319.9219,498.8594 Q1320.0781,498.7813 1320.2813,498.7813 Q1320.6094,498.7813 1320.8594,499.0469 Q1321.125,499.2969 1321.125,499.6406 Q1321.125,499.9844 1320.7813,500.3906 Q1320.2813,500.9688 1319.4844,501.2969 Q1318.4063,501.75 1317.1094,501.75 Q1315.5938,501.75 1314.3906,501.125 Q1313.4063,500.625 1312.7188,499.5625 Q1312.0313,498.4844 1312.0313,497.2031 L1312.0313,496.0469 Q1312.0313,494.7188 1312.6406,493.5781 Q1313.2656,492.4219 1314.3594,491.8125 Q1315.4531,491.1875 1316.6875,491.1875 Q1317.4219,491.1875 1318.0625,491.3594 Q1318.7188,491.5156 1319.2656,491.875 Z "/><text fill="#000000" font-family="sans-serif" font-size="12" lengthAdjust="spacingAndGlyphs" textLength="48" x="1330.5" y="500.9102">Payment</text><line style="stroke: #A80036; stroke-width: 1.5;" x1="1302.5" x2="1380.5" y1="512" y2="512"/><!--MD5=[8806e557260fb3598decb516dc04693d]
class EmailAPI--><rect fill="#FEFECE" filter="url(#f1wdar0j52qfel)" height="40" id="EmailAPI" style="stroke: #A80036; stroke-width: 1.5;" width="82" x="1602" y="709"/><ellipse cx="1617" cy="725" fill="#ADD1B2" rx="11" ry="11" style="stroke: #A80036; stroke-width: 1.0;"/><path d="M1619.7656,720.875 Q1619.9219,720.6563 1620.1094,720.5469 Q1620.2969,720.4375 1620.5156,720.4375 Q1620.8906,720.4375 1621.125,720.7031 Q1621.3594,720.9531 1621.3594,721.5625 L1621.3594,723.0156 Q1621.3594,723.625 1621.125,723.8906 Q1620.8906,724.1563 1620.5156,724.1563 Q1620.1719,724.1563 1619.9688,723.9531 Q1619.7656,723.7656 1619.6563,723.25 Q1619.6094,722.8906 1619.4219,722.7031 Q1619.0938,722.3281 1618.4844,722.1094 Q1617.875,721.8906 1617.25,721.8906 Q1616.4844,721.8906 1615.8438,722.2188 Q1615.2188,722.5469 1614.7188,723.2969 Q1614.2344,724.0469 1614.2344,725.0781 L1614.2344,726.1719 Q1614.2344,727.4063 1615.125,728.2344 Q1616.0156,729.0469 1617.6094,729.0469 Q1618.5469,729.0469 1619.2031,728.7969 Q1619.5938,728.6406 1620.0156,728.2031 Q1620.2813,727.9375 1620.4219,727.8594 Q1620.5781,727.7813 1620.7813,727.7813 Q1621.1094,727.7813 1621.3594,728.0469 Q1621.625,728.2969 1621.625,728.6406 Q1621.625,728.9844 1621.2813,729.3906 Q1620.7813,729.9688 1619.9844,730.2969 Q1618.9063,730.75 1617.6094,730.75 Q1616.0938,730.75 1614.8906,730.125 Q1613.9063,729.625 1613.2188,728.5625 Q1612.5313,727.4844 1612.5313,726.2031 L1612.5313,725.0469 Q1612.5313,723.7188 1613.1406,722.5781 Q1613.7656,721.4219 1614.8594,720.8125 Q1615.9531,720.1875 1617.1875,720.1875 Q1617.9219,720.1875 1618.5625,720.3594 Q1619.2188,720.5156 1619.7656,720.875 Z "/><text fill="#000000" font-family="sans-serif" font-size="12" lengthAdjust="spacingAndGlyphs" textLength="50" x="1631" y="729.9102">EmailAPI</text><line style="stroke: #A80036; stroke-width: 1.5;" x1="1603" x2="1683" y1="741" y2="741"/><!--MD5=[b9b2b358c4596a7c3c612fa1a577c109]
class PaymentAPI--><rect fill="#FEFECE" filter="url(#f1wdar0j52qfel)" height="40" id="PaymentAPI" style="stroke: #A80036; stroke-width: 1.5;" width="98" x="1594" y="79"/><ellipse cx="1609" cy="95" fill="#ADD1B2" rx="11" ry="11" style="stroke: #A80036; stroke-width: 1.0;"/><path d="M1611.7656,90.875 Q1611.9219,90.6563 1612.1094,90.5469 Q1612.2969,90.4375 1612.5156,90.4375 Q1612.8906,90.4375 1613.125,90.7031 Q1613.3594,90.9531 1613.3594,91.5625 L1613.3594,93.0156 Q1613.3594,93.625 1613.125,93.8906 Q1612.8906,94.1563 1612.5156,94.1563 Q1612.1719,94.1563 1611.9688,93.9531 Q1611.7656,93.7656 1611.6563,93.25 Q1611.6094,92.8906 1611.4219,92.7031 Q1611.0938,92.3281 1610.4844,92.1094 Q1609.875,91.8906 1609.25,91.8906 Q1608.4844,91.8906 1607.8438,92.2188 Q1607.2188,92.5469 1606.7188,93.2969 Q1606.2344,94.0469 1606.2344,95.0781 L1606.2344,96.1719 Q1606.2344,97.4063 1607.125,98.2344 Q1608.0156,99.0469 1609.6094,99.0469 Q1610.5469,99.0469 1611.2031,98.7969 Q1611.5938,98.6406 1612.0156,98.2031 Q1612.2813,97.9375 1612.4219,97.8594 Q1612.5781,97.7813 1612.7813,97.7813 Q1613.1094,97.7813 1613.3594,98.0469 Q1613.625,98.2969 1613.625,98.6406 Q1613.625,98.9844 1613.2813,99.3906 Q1612.7813,99.9688 1611.9844,100.2969 Q1610.9063,100.75 1609.6094,100.75 Q1608.0938,100.75 1606.8906,100.125 Q1605.9063,99.625 1605.2188,98.5625 Q1604.5313,97.4844 1604.5313,96.2031 L1604.5313,95.0469 Q1604.5313,93.7188 1605.1406,92.5781 Q1605.7656,91.4219 1606.8594,90.8125 Q1607.9531,90.1875 1609.1875,90.1875 Q1609.9219,90.1875 1610.5625,90.3594 Q1611.2188,90.5156 1611.7656,90.875 Z "/><text fill="#000000" font-family="sans-serif" font-size="12" lengthAdjust="spacingAndGlyphs" textLength="66" x="1623" y="99.9102">PaymentAPI</text><line style="stroke: #A80036; stroke-width: 1.5;" x1="1595" x2="1691" y1="111" y2="111"/><!--MD5=[b76730e11bf88a141099e30fd5a76626]
class MonetaryUnitConversionAPI--><rect fill="#FEFECE" filter="url(#f1wdar0j52qfel)" height="40" id="MonetaryUnitConversionAPI" style="stroke: #A80036; stroke-width: 1.5;" width="184" x="1551" y="789"/><ellipse cx="1566" cy="805" fill="#ADD1B2" rx="11" ry="11" style="stroke: #A80036; stroke-width: 1.0;"/><path d="M1568.7656,800.875 Q1568.9219,800.6563 1569.1094,800.5469 Q1569.2969,800.4375 1569.5156,800.4375 Q1569.8906,800.4375 1570.125,800.7031 Q1570.3594,800.9531 1570.3594,801.5625 L1570.3594,803.0156 Q1570.3594,803.625 1570.125,803.8906 Q1569.8906,804.1563 1569.5156,804.1563 Q1569.1719,804.1563 1568.9688,803.9531 Q1568.7656,803.7656 1568.6563,803.25 Q1568.6094,802.8906 1568.4219,802.7031 Q1568.0938,802.3281 1567.4844,802.1094 Q1566.875,801.8906 1566.25,801.8906 Q1565.4844,801.8906 1564.8438,802.2188 Q1564.2188,802.5469 1563.7188,803.2969 Q1563.2344,804.0469 1563.2344,805.0781 L1563.2344,806.1719 Q1563.2344,807.4063 1564.125,808.2344 Q1565.0156,809.0469 1566.6094,809.0469 Q1567.5469,809.0469 1568.2031,808.7969 Q1568.5938,808.6406 1569.0156,808.2031 Q1569.2813,807.9375 1569.4219,807.8594 Q1569.5781,807.7813 1569.7813,807.7813 Q1570.1094,807.7813 1570.3594,808.0469 Q1570.625,808.2969 1570.625,808.6406 Q1570.625,808.9844 1570.2813,809.3906 Q1569.7813,809.9688 1568.9844,810.2969 Q1567.9063,810.75 1566.6094,810.75 Q1565.0938,810.75 1563.8906,810.125 Q1562.9063,809.625 1562.2188,808.5625 Q1561.5313,807.4844 1561.5313,806.2031 L1561.5313,805.0469 Q1561.5313,803.7188 1562.1406,802.5781 Q1562.7656,801.4219 1563.8594,800.8125 Q1564.9531,800.1875 1566.1875,800.1875 Q1566.9219,800.1875 1567.5625,800.3594 Q1568.2188,800.5156 1568.7656,800.875 Z "/><text fill="#000000" font-family="sans-serif" font-size="12" lengthAdjust="spacingAndGlyphs" textLength="152" x="1580" y="809.9102">MonetaryUnitConversionAPI</text><line style="stroke: #A80036; stroke-width: 1.5;" x1="1552" x2="1734" y1="821" y2="821"/><!--MD5=[d29e613367f81ad7dde1107857724e46]
link Colaborator to Payment--><path d="M1036.11,353.001 C1044.76,361.82 1053.75,371.152 1062,380 C1075.74,394.739 1074.86,403.394 1092,414 C1144.8,446.68 1168.41,429.422 1227,450 C1252.29,458.884 1279.83,470.952 1301.44,481.007 " fill="none" id="Colaborator-Payment" style="stroke: #A80036; stroke-width: 1.0;"/><text fill="#000000" font-family="sans-serif" font-size="13" lengthAdjust="spacingAndGlyphs" textLength="43" x="1131.5" y="410.4951">creates</text><polygon fill="#000000" points="1177.5,403.6758,1183.5,406.6758,1177.5,409.6758,1177.5,403.6758" style="stroke: #000000; stroke-width: 1.0;"/><text fill="#000000" font-family="sans-serif" font-size="13" lengthAdjust="spacingAndGlyphs" textLength="7" x="1035.0222" y="374.064">1</text><text fill="#000000" font-family="sans-serif" font-size="13" lengthAdjust="spacingAndGlyphs" textLength="5" x="1288.593" y="473.5577">*</text><!--MD5=[43bc7443460eb6e15759d9c6a71318a8]
link Colaborator to Task--><path d="M1042.57,302.748 C1109,290.655 1233.43,271 1340.5,271 C1340.5,271 1340.5,271 1976.5,271 C2046.84,271 2122.25,297.141 2177.82,321.852 " fill="none" id="Colaborator-Task" style="stroke: #A80036; stroke-width: 1.0;"/><text fill="#000000" font-family="sans-serif" font-size="13" lengthAdjust="spacingAndGlyphs" textLength="43" x="1615" y="267.4951">creates</text><polygon fill="#000000" points="1661,260.6758,1667,263.6758,1661,266.6758,1661,260.6758" style="stroke: #000000; stroke-width: 1.0;"/><text fill="#000000" font-family="sans-serif" font-size="13" lengthAdjust="spacingAndGlyphs" textLength="7" x="1050.5432" y="297.666">1</text><text fill="#000000" font-family="sans-serif" font-size="13" lengthAdjust="spacingAndGlyphs" textLength="5" x="2165.0555" y="332.2244">*</text><!--MD5=[7be2b93dc6b99f50a07263979bce1c9c]
link Colaborator to Freelancer--><path d="M1042.85,281.627 C1058.06,273.142 1075.29,264.695 1092,259 C1326.25,179.162 1394.52,172 1642,172 C1642,172 1642,172 2263.5,172 C2414.45,172 2500.38,361.537 2537.44,471.113 " fill="none" id="Colaborator-Freelancer" style="stroke: #A80036; stroke-width: 1.0;"/><text fill="#000000" font-family="sans-serif" font-size="13" lengthAdjust="spacingAndGlyphs" textLength="43" x="1784.5" y="168.4951">creates</text><polygon fill="#000000" points="1830.5,161.6758,1836.5,164.6758,1830.5,167.6758,1830.5,161.6758" style="stroke: #000000; stroke-width: 1.0;"/><text fill="#000000" font-family="sans-serif" font-size="13" lengthAdjust="spacingAndGlyphs" textLength="7" x="1050.5389" y="273.548">1</text><text fill="#000000" font-family="sans-serif" font-size="13" lengthAdjust="spacingAndGlyphs" textLength="5" x="2530.0038" y="460.6443">*</text><!--MD5=[dfec053834ca4b8aaedc22769d2f526b]
link Colaborator to HistoricalTransactionFile--><path d="M1042.68,316.83 C1097.84,322.418 1189.68,331.722 1256.82,338.523 " fill="none" id="Colaborator-HistoricalTransactionFile" style="stroke: #A80036; stroke-width: 1.0;"/><text fill="#000000" font-family="sans-serif" font-size="13" lengthAdjust="spacingAndGlyphs" textLength="31" x="1137.5" y="318.4951">loads</text><polygon fill="#000000" points="1171.5,311.6758,1177.5,314.6758,1171.5,317.6758,1171.5,311.6758" style="stroke: #000000; stroke-width: 1.0;"/><text fill="#000000" font-family="sans-serif" font-size="13" lengthAdjust="spacingAndGlyphs" textLength="7" x="1050.3439" y="332.2715">1</text><text fill="#000000" font-family="sans-serif" font-size="13" lengthAdjust="spacingAndGlyphs" textLength="5" x="1244.0555" y="351.9913">*</text><!--MD5=[02dd8e0703276896f1e42edb558b3819]
link Colaborator to User--><path d="M1042.59,328.246 C1089.53,344.306 1163.28,369.647 1227,392 C1315.61,423.084 1352.55,404.488 1426,463 C1445.38,478.441 1435.77,495.689 1456,510 C1606.5,616.461 1691.83,528.467 1860,604 C1883.54,614.575 1907.22,630.28 1926.89,645.054 " fill="none" id="Colaborator-User" style="stroke: #A80036; stroke-width: 1.0;"/><text fill="#000000" font-family="sans-serif" font-size="13" lengthAdjust="spacingAndGlyphs" textLength="43" x="1460.5" y="506.4951">acts as</text><polygon fill="#000000" points="1506.5,499.6758,1512.5,502.6758,1506.5,505.6758,1506.5,499.6758" style="stroke: #000000; stroke-width: 1.0;"/><text fill="#000000" font-family="sans-serif" font-size="13" lengthAdjust="spacingAndGlyphs" textLength="18" x="1050.3287" y="345.0559">0,1</text><text fill="#000000" font-family="sans-serif" font-size="13" lengthAdjust="spacingAndGlyphs" textLength="7" x="1911.9107" y="653.722">1</text><!--MD5=[7243fd82d00bd95e91d7be6a6f325055]
link Manager to PaymentScheduler--><path d="M763.204,549.922 C808.066,552.671 875.664,556.812 925.943,559.892 " fill="none" id="Manager-PaymentScheduler" style="stroke: #A80036; stroke-width: 1.0;"/><text fill="#000000" font-family="sans-serif" font-size="13" lengthAdjust="spacingAndGlyphs" textLength="41" x="817.5" y="548.4951">defines</text><polygon fill="#000000" points="861.5,541.6758,867.5,544.6758,861.5,547.6758,861.5,541.6758" style="stroke: #000000; stroke-width: 1.0;"/><text fill="#000000" font-family="sans-serif" font-size="13" lengthAdjust="spacingAndGlyphs" textLength="7" x="770.8715" y="565.0832">1</text><text fill="#000000" font-family="sans-serif" font-size="13" lengthAdjust="spacingAndGlyphs" textLength="18" x="899.9965" y="573.8235">0,1</text><!--MD5=[6eb6e197a729f6ec2412743e0bdbca1d]
link Manager to User--><path d="M763.066,566.484 C805.137,582.77 868.58,605.041 926,616 C1186.23,665.668 1256.59,635.422 1521,652 C1671.69,661.448 1709.5,661.89 1860,674 C1882,675.77 1906.34,678.061 1926.9,680.094 " fill="none" id="Manager-User" style="stroke: #A80036; stroke-width: 1.0;"/><text fill="#000000" font-family="sans-serif" font-size="13" lengthAdjust="spacingAndGlyphs" textLength="43" x="1313.5" y="642.4951">acts as</text><polygon fill="#000000" points="1359.5,635.6758,1365.5,638.6758,1359.5,641.6758,1359.5,635.6758" style="stroke: #000000; stroke-width: 1.0;"/><text fill="#000000" font-family="sans-serif" font-size="13" lengthAdjust="spacingAndGlyphs" textLength="18" x="771.1612" y="583.9034">0,1</text><text fill="#000000" font-family="sans-serif" font-size="13" lengthAdjust="spacingAndGlyphs" textLength="7" x="1911.9222" y="675.6775">1</text><!--MD5=[c4629210b2ba88e64afbee18491f07dd]
link Payment to Transaction--><path d="M1381.65,494.64 C1436.36,487.151 1535.55,473.573 1594.43,465.511 " fill="none" id="Payment-Transaction" style="stroke: #A80036; stroke-width: 1.0;"/><text fill="#000000" font-family="sans-serif" font-size="13" lengthAdjust="spacingAndGlyphs" textLength="50" x="1457" y="471.4951">registers</text><polygon fill="#000000" points="1510,464.6758,1516,467.6758,1510,470.6758,1510,464.6758" style="stroke: #000000; stroke-width: 1.0;"/><text fill="#000000" font-family="sans-serif" font-size="13" lengthAdjust="spacingAndGlyphs" textLength="5" x="1389.5136" y="508.6543">*</text><text fill="#000000" font-family="sans-serif" font-size="13" lengthAdjust="spacingAndGlyphs" textLength="23" x="1563.3581" y="480.9797">1,...</text><!--MD5=[ac4dd7fdeb0fa08e65a2b7971307989b]
link Payment to EmailAPI--><path d="M1364.09,520.068 C1386.5,540.597 1422.84,573.069 1456,599 C1508.76,640.256 1573.47,684.046 1610.99,708.812 " fill="none" id="Payment-EmailAPI" style="stroke: #A80036; stroke-width: 1.0;"/><text fill="#000000" font-family="sans-serif" font-size="13" lengthAdjust="spacingAndGlyphs" textLength="28" x="1468" y="595.4951">uses</text><polygon fill="#000000" points="1499,588.6758,1505,591.6758,1499,594.6758,1499,588.6758" style="stroke: #000000; stroke-width: 1.0;"/><text fill="#000000" font-family="sans-serif" font-size="13" lengthAdjust="spacingAndGlyphs" textLength="5" x="1371.1466" y="541.5067">*</text><text fill="#000000" font-family="sans-serif" font-size="13" lengthAdjust="spacingAndGlyphs" textLength="7" x="1593.5589" y="698.0785">1</text><!--MD5=[4e8d4ca70e30f9b9e34071c7768f0551]
link Payment to PaymentAPI--><path d="M1357.56,479.84 C1408.68,411.388 1575.3,188.31 1626.73,119.44 " fill="none" id="Payment-PaymentAPI" style="stroke: #A80036; stroke-width: 1.0;"/><polygon fill="#000000" points="1477.5,256,1480.5,250,1483.5,256,1477.5,256" style="stroke: #000000; stroke-width: 1.0;"/><text fill="#000000" font-family="sans-serif" font-size="13" lengthAdjust="spacingAndGlyphs" textLength="28" x="1468" y="272.4951">uses</text><text fill="#000000" font-family="sans-serif" font-size="13" lengthAdjust="spacingAndGlyphs" textLength="5" x="1356.5433" y="469.1148">*</text><text fill="#000000" font-family="sans-serif" font-size="13" lengthAdjust="spacingAndGlyphs" textLength="7" x="1614.4168" y="140.6256">1</text><!--MD5=[a5bfdb67ecdee50c8f593adbd3c04571]
link Payment to MonetaryUnitConversionAPI--><path d="M1359.66,520.289 C1377.41,541.781 1405.37,577.088 1426,610 C1441.62,634.926 1438.9,645.06 1456,669 C1491.25,718.366 1501.51,731.918 1551,767 C1562.78,775.352 1576.49,782.704 1589.64,788.825 " fill="none" id="Payment-MonetaryUnitConversionAPI" style="stroke: #A80036; stroke-width: 1.0;"/><text fill="#000000" font-family="sans-serif" font-size="13" lengthAdjust="spacingAndGlyphs" textLength="28" x="1468" y="665.4951">uses</text><polygon fill="#000000" points="1477.5,674.3516,1480.5,680.3516,1483.5,674.3516,1477.5,674.3516" style="stroke: #000000; stroke-width: 1.0;"/><text fill="#000000" font-family="sans-serif" font-size="13" lengthAdjust="spacingAndGlyphs" textLength="5" x="1358.8686" y="541.434">*</text><text fill="#000000" font-family="sans-serif" font-size="13" lengthAdjust="spacingAndGlyphs" textLength="7" x="1565.9374" y="778.0953">1</text><!--MD5=[8e4873cec2cb3febaaa9495c716fc885]
link Transaction to Task--><path d="M1691.51,462.029 C1769.55,465.902 1929.37,469.191 2061,442 C2100.62,433.815 2142.67,418.737 2177.98,404.079 " fill="none" id="Transaction-Task" style="stroke: #A80036; stroke-width: 1.0;"/><text fill="#000000" font-family="sans-serif" font-size="13" lengthAdjust="spacingAndGlyphs" textLength="55" x="1941.5" y="438.4951">relative to</text><polygon fill="#000000" points="1999.5,431.6758,2005.5,434.6758,1999.5,437.6758,1999.5,431.6758" style="stroke: #000000; stroke-width: 1.0;"/><text fill="#000000" font-family="sans-serif" font-size="13" lengthAdjust="spacingAndGlyphs" textLength="7" x="1699.474" y="477.2398">1</text><text fill="#000000" font-family="sans-serif" font-size="13" lengthAdjust="spacingAndGlyphs" textLength="7" x="2162.8657" y="421.9221">1</text><!--MD5=[9aa0fa191c99edeef0ce6e9ae1d37765]
link Transaction to TaskExecutionDetails--><path d="M1691.7,445.432 C1743.37,430.738 1826.81,407.006 1889.69,389.121 " fill="none" id="Transaction-TaskExecutionDetails" style="stroke: #A80036; stroke-width: 1.0;"/><text fill="#000000" font-family="sans-serif" font-size="13" lengthAdjust="spacingAndGlyphs" textLength="80" x="1766" y="394.4951">executed with</text><polygon fill="#000000" points="1849,387.6758,1855,390.6758,1849,393.6758,1849,387.6758" style="stroke: #000000; stroke-width: 1.0;"/><text fill="#000000" font-family="sans-serif" font-size="13" lengthAdjust="spacingAndGlyphs" textLength="7" x="1699.3669" y="458.1351">1</text><text fill="#000000" font-family="sans-serif" font-size="13" lengthAdjust="spacingAndGlyphs" textLength="7" x="1875.0149" y="405.4128">1</text><!--MD5=[542f32193441b56ea302115ed1249c3b]
link Transaction to Freelancer--><path d="M1691.68,464.267 C1713.95,466.689 1740.83,469.56 1765,472 C2034.66,499.213 2356.14,528.631 2492.77,540.994 " fill="none" id="Transaction-Freelancer" style="stroke: #A80036; stroke-width: 1.0;"/><text fill="#000000" font-family="sans-serif" font-size="13" lengthAdjust="spacingAndGlyphs" textLength="11" x="2107.5" y="499.4951">to</text><polygon fill="#000000" points="2121.5,492.6758,2127.5,495.6758,2121.5,498.6758,2121.5,492.6758" style="stroke: #000000; stroke-width: 1.0;"/><text fill="#000000" font-family="sans-serif" font-size="13" lengthAdjust="spacingAndGlyphs" textLength="5" x="1699.5169" y="479.8205">*</text><text fill="#000000" font-family="sans-serif" font-size="13" lengthAdjust="spacingAndGlyphs" textLength="7" x="2477.9792" y="554.7435">1</text><!--MD5=[9155e95983ae2a088b11740d001758c9]
link TaskExecutionDetails to Task--><path d="M2061.24,365 C2097.99,365 2140.92,365 2177.58,365 " fill="none" id="TaskExecutionDetails-Task" style="stroke: #A80036; stroke-width: 1.0;"/><text fill="#000000" font-family="sans-serif" font-size="13" lengthAdjust="spacingAndGlyphs" textLength="40" x="2093" y="361.4951">refer to</text><polygon fill="#000000" points="2136,354.6758,2142,357.6758,2136,360.6758,2136,354.6758" style="stroke: #000000; stroke-width: 1.0;"/><text fill="#000000" font-family="sans-serif" font-size="13" lengthAdjust="spacingAndGlyphs" textLength="7" x="2068.9091" y="379.2189">1</text><text fill="#000000" font-family="sans-serif" font-size="13" lengthAdjust="spacingAndGlyphs" textLength="7" x="2162.9814" y="379.19">1</text><!--MD5=[80bfe53c9a81718400b24a13b8f52143]
link HistoricalTransactionFile to Transaction--><path d="M1396.04,367.023 C1452.41,388.102 1540.31,420.973 1594.35,441.181 " fill="none" id="HistoricalTransactionFile-Transaction" style="stroke: #A80036; stroke-width: 1.0;"/><text fill="#000000" font-family="sans-serif" font-size="13" lengthAdjust="spacingAndGlyphs" textLength="43" x="1460.5" y="385.4951">records</text><polygon fill="#000000" points="1506.5,378.6758,1512.5,381.6758,1506.5,384.6758,1506.5,378.6758" style="stroke: #000000; stroke-width: 1.0;"/><text fill="#000000" font-family="sans-serif" font-size="13" lengthAdjust="spacingAndGlyphs" textLength="7" x="1403.395" y="388.449">1</text><text fill="#000000" font-family="sans-serif" font-size="13" lengthAdjust="spacingAndGlyphs" textLength="5" x="1581.5177" y="453.1995">*</text><!--MD5=[f8679721e8e5159e33912074b64b525d]
link PaymentScheduler to Payment--><path d="M1062,568.112 C1108.89,569.302 1172.62,567.515 1227,554 C1255.59,546.895 1285.59,532.267 1307.56,520.026 " fill="none" id="PaymentScheduler-Payment" style="stroke: #A80036; stroke-width: 1.0;"/><text fill="#000000" font-family="sans-serif" font-size="13" lengthAdjust="spacingAndGlyphs" textLength="120" x="1093" y="550.4951">makes automatically</text><polygon fill="#000000" points="1216,543.6758,1222,546.6758,1216,549.6758,1216,543.6758" style="stroke: #000000; stroke-width: 1.0;"/><text fill="#000000" font-family="sans-serif" font-size="13" lengthAdjust="spacingAndGlyphs" textLength="7" x="1069.8203" y="582.969">1</text><text fill="#000000" font-family="sans-serif" font-size="13" lengthAdjust="spacingAndGlyphs" textLength="5" x="1292.3113" y="541.4529">*</text><!--MD5=[656d67bb8fa389b55c147beff5b13611]
link Organization to Colaborator--><path d="M499.077,545.816 C509.691,512.793 532.176,457.703 571,427 C683.87,337.742 860.873,317.614 945.215,313.179 " fill="none" id="Organization-Colaborator" style="stroke: #A80036; stroke-width: 1.0;"/><text fill="#000000" font-family="sans-serif" font-size="13" lengthAdjust="spacingAndGlyphs" textLength="21" x="697.5" y="336.4951">has</text><polygon fill="#000000" points="721.5,329.6758,727.5,332.6758,721.5,335.6758,721.5,329.6758" style="stroke: #000000; stroke-width: 1.0;"/><text fill="#000000" font-family="sans-serif" font-size="13" lengthAdjust="spacingAndGlyphs" textLength="7" x="493.2511" y="535.2344">1</text><text fill="#000000" font-family="sans-serif" font-size="13" lengthAdjust="spacingAndGlyphs" textLength="23" x="914.491" y="327.9042">1,...</text><!--MD5=[bc039f41cf0b27fadee5cae63fc6e1fe]
link Organization to Manager--><path d="M541.045,567.197 C578.232,562.842 628.856,556.913 665.631,552.606 " fill="none" id="Organization-Manager" style="stroke: #A80036; stroke-width: 1.0;"/><text fill="#000000" font-family="sans-serif" font-size="13" lengthAdjust="spacingAndGlyphs" textLength="21" x="586.5" y="552.4951">has</text><polygon fill="#000000" points="610.5,545.6758,616.5,548.6758,610.5,551.6758,610.5,545.6758" style="stroke: #000000; stroke-width: 1.0;"/><text fill="#000000" font-family="sans-serif" font-size="13" lengthAdjust="spacingAndGlyphs" textLength="7" x="548.9829" y="581.0527">1</text><text fill="#000000" font-family="sans-serif" font-size="13" lengthAdjust="spacingAndGlyphs" textLength="7" x="650.9393" y="568.1615">1</text><!--MD5=[5f4f57afaa4ed75c0a27618a4620afc1]
link Organization to PaymentScheduler--><path d="M541.064,591.584 C575.544,603.491 622.883,617.828 666,624 C756.418,636.942 860.005,610.956 925.929,589.224 " fill="none" id="Organization-PaymentScheduler" style="stroke: #A80036; stroke-width: 1.0;"/><text fill="#000000" font-family="sans-serif" font-size="13" lengthAdjust="spacingAndGlyphs" textLength="28" x="694" y="620.4951">uses</text><polygon fill="#000000" points="725,613.6758,731,616.6758,725,619.6758,725,613.6758" style="stroke: #000000; stroke-width: 1.0;"/><text fill="#000000" font-family="sans-serif" font-size="13" lengthAdjust="spacingAndGlyphs" textLength="7" x="549.0047" y="609.0215">1</text><text fill="#000000" font-family="sans-serif" font-size="13" lengthAdjust="spacingAndGlyphs" textLength="7" x="911.1009" y="606.3902">1</text><!--MD5=[d7637ac3eb48d4f2830e10106a654da0]
link Organization to Payment--><path d="M532.794,545.93 C566.902,525.39 617.432,499.033 666,489 C728.007,476.191 1166.55,492.871 1301.25,498.36 " fill="none" id="Organization-Payment" style="stroke: #A80036; stroke-width: 1.0;"/><text fill="#000000" font-family="sans-serif" font-size="13" lengthAdjust="spacingAndGlyphs" textLength="88" x="794" y="480.4951">responsable by</text><polygon fill="#000000" points="885,473.6758,891,476.6758,885,479.6758,885,473.6758" style="stroke: #000000; stroke-width: 1.0;"/><text fill="#000000" font-family="sans-serif" font-size="13" lengthAdjust="spacingAndGlyphs" textLength="7" x="535.25" y="534.9396">1</text><text fill="#000000" font-family="sans-serif" font-size="13" lengthAdjust="spacingAndGlyphs" textLength="5" x="1288.368" y="513.0602">*</text><!--MD5=[8853e9d83a8841c20c4ef075af762602]
link Task to Freelancer--><path d="M2347.13,416.424 C2393.29,444.805 2449.83,479.565 2492.96,506.084 " fill="none" id="Task-Freelancer" style="stroke: #A80036; stroke-width: 1.0;"/><text fill="#000000" font-family="sans-serif" font-size="13" lengthAdjust="spacingAndGlyphs" textLength="71" x="2378" y="435.4951">executed by</text><polygon fill="#000000" points="2452,428.6758,2458,431.6758,2452,434.6758,2452,428.6758" style="stroke: #000000; stroke-width: 1.0;"/><text fill="#000000" font-family="sans-serif" font-size="13" lengthAdjust="spacingAndGlyphs" textLength="5" x="2354.89" y="435.2192">*</text><text fill="#000000" font-family="sans-serif" font-size="13" lengthAdjust="spacingAndGlyphs" textLength="7" x="2478.19" y="516.0152">1</text><!--MD5=[939acada67c666032ddf52a0068bc128]
link App to MonetaryUnitConversionAPI--><path d="M35.6178,690.139 C43.7946,756.336 79.4926,963 206.5,963 C206.5,963 206.5,963 1342.5,963 C1458.27,963 1574.12,870.876 1620.67,829.133 " fill="none" id="App-MonetaryUnitConversionAPI" style="stroke: #A80036; stroke-width: 1.0;"/><text fill="#000000" font-family="sans-serif" font-size="13" lengthAdjust="spacingAndGlyphs" textLength="50" x="683" y="959.4951">supports</text><polygon fill="#000000" points="736,952.6758,742,955.6758,736,958.6758,736,952.6758" style="stroke: #000000; stroke-width: 1.0;"/><text fill="#000000" font-family="sans-serif" font-size="13" lengthAdjust="spacingAndGlyphs" textLength="7" x="37.4791" y="711.5976">1</text><text fill="#000000" font-family="sans-serif" font-size="13" lengthAdjust="spacingAndGlyphs" textLength="7" x="1606.4053" y="850.59">1</text><!--MD5=[1370966fb1e3885ea6828d35f10d9d48]
link App to Organization--><path d="M59.0972,661.341 C68.4664,658.266 79.1773,654.861 89,652 C177.594,626.199 199.454,617.775 290,600 C340.588,590.07 399.11,582.619 439.629,578.087 " fill="none" id="App-Organization" style="stroke: #A80036; stroke-width: 1.0;"/><text fill="#000000" font-family="sans-serif" font-size="13" lengthAdjust="spacingAndGlyphs" textLength="21" x="190.5" y="602.4951">has</text><polygon fill="#000000" points="214.5,595.6758,220.5,598.6758,214.5,601.6758,214.5,595.6758" style="stroke: #000000; stroke-width: 1.0;"/><text fill="#000000" font-family="sans-serif" font-size="13" lengthAdjust="spacingAndGlyphs" textLength="7" x="67.1858" y="674.7063">1</text><text fill="#000000" font-family="sans-serif" font-size="13" lengthAdjust="spacingAndGlyphs" textLength="5" x="427.1237" y="593.4587">*</text><!--MD5=[1cb21011969cc62c73f846209be643c8]
link App to EmailAPI--><path d="M39.6166,690.03 C56.7448,741.613 110.333,875 206.5,875 C206.5,875 206.5,875 604.5,875 C808.33,875 859.942,869.818 1062,843 C1266.73,815.827 1508.01,760.925 1601.85,738.684 " fill="none" id="App-EmailAPI" style="stroke: #A80036; stroke-width: 1.0;"/><text fill="#000000" font-family="sans-serif" font-size="13" lengthAdjust="spacingAndGlyphs" textLength="50" x="683" y="868.4951">supports</text><polygon fill="#000000" points="736,861.6758,742,864.6758,736,867.6758,736,861.6758" style="stroke: #000000; stroke-width: 1.0;"/><text fill="#000000" font-family="sans-serif" font-size="13" lengthAdjust="spacingAndGlyphs" textLength="7" x="33.6338" y="711.458">1</text><text fill="#000000" font-family="sans-serif" font-size="13" lengthAdjust="spacingAndGlyphs" textLength="7" x="1586.8967" y="755.3604">1</text><!--MD5=[c476b523f9294f20b13319074aa597a2]
link App to PaymentAPI--><path d="M35.2706,649.883 C44.5837,550.204 91.8864,114 206.5,114 C206.5,114 206.5,114 845.5,114 C1129.37,114 1470.05,104.358 1593.97,100.535 " fill="none" id="App-PaymentAPI" style="stroke: #A80036; stroke-width: 1.0;"/><text fill="#000000" font-family="sans-serif" font-size="13" lengthAdjust="spacingAndGlyphs" textLength="50" x="683" y="110.4951">supports</text><polygon fill="#000000" points="736,103.6758,742,106.6758,736,109.6758,736,103.6758" style="stroke: #000000; stroke-width: 1.0;"/><text fill="#000000" font-family="sans-serif" font-size="13" lengthAdjust="spacingAndGlyphs" textLength="7" x="37.1126" y="639.1704">1</text><text fill="#000000" font-family="sans-serif" font-size="13" lengthAdjust="spacingAndGlyphs" textLength="7" x="1578.9263" y="115.5171">1</text><!--MD5=[96d7ba993ba442b366771602ebe86063]
link App to Payment--><path d="M33.4228,649.785 C34.2743,571.686 48.417,294 206.5,294 C206.5,294 206.5,294 604.5,294 C831.587,294 874.692,381.078 1092,447 C1164.61,469.026 1251.82,485.379 1301.24,493.74 " fill="none" id="App-Payment" style="stroke: #A80036; stroke-width: 1.0;"/><text fill="#000000" font-family="sans-serif" font-size="13" lengthAdjust="spacingAndGlyphs" textLength="50" x="572" y="290.4951">registers</text><polygon fill="#000000" points="625,283.6758,631,286.6758,625,289.6758,625,283.6758" style="stroke: #000000; stroke-width: 1.0;"/><text fill="#000000" font-family="sans-serif" font-size="13" lengthAdjust="spacingAndGlyphs" textLength="7" x="34.722" y="639.0436">1</text><text fill="#000000" font-family="sans-serif" font-size="13" lengthAdjust="spacingAndGlyphs" textLength="5" x="1288.6234" y="488.7264">*</text><!--MD5=[66e1bf42337190a3177776b035b1a873]
link App to Administrator--><path d="M47.0707,690.026 C57.1596,703.459 72.0667,720.544 89,731 C108.831,743.246 133.314,751.061 154.79,755.991 " fill="none" id="App-Administrator" style="stroke: #A80036; stroke-width: 1.0;"/><text fill="#000000" font-family="sans-serif" font-size="13" lengthAdjust="spacingAndGlyphs" textLength="21" x="90" y="727.4951">has</text><polygon fill="#000000" points="114,720.6758,120,723.6758,114,726.6758,114,720.6758" style="stroke: #000000; stroke-width: 1.0;"/><text fill="#000000" font-family="sans-serif" font-size="13" lengthAdjust="spacingAndGlyphs" textLength="7" x="43.1843" y="711.4529">1</text><text fill="#000000" font-family="sans-serif" font-size="13" lengthAdjust="spacingAndGlyphs" textLength="5" x="142.0261" y="769.5442">*</text><!--MD5=[d88947b97cc296deaa09f9756953ae3a]
link App to Freelancer--><path d="M33.3182,690.215 C33.7566,768.982 46.4985,1051 206.5,1051 C206.5,1051 206.5,1051 2263.5,1051 C2459.73,1051 2528.4,763.425 2550.25,622.727 " fill="none" id="App-Freelancer" style="stroke: #A80036; stroke-width: 1.0;"/><text fill="#000000" font-family="sans-serif" font-size="13" lengthAdjust="spacingAndGlyphs" textLength="21" x="1142.5" y="1047.4951">has</text><polygon fill="#000000" points="1166.5,1040.6758,1172.5,1043.6758,1166.5,1046.6758,1166.5,1040.6758" style="stroke: #000000; stroke-width: 1.0;"/><text fill="#000000" font-family="sans-serif" font-size="13" lengthAdjust="spacingAndGlyphs" textLength="7" x="25.5975" y="711.3401">1</text><text fill="#000000" font-family="sans-serif" font-size="13" lengthAdjust="spacingAndGlyphs" textLength="5" x="2544.1145" y="643.7086">*</text><!--MD5=[e77f677497f0db25ffeeb4459769db8d]
link App to Task--><path d="M34.4624,649.663 C40.1808,540.195 74.0887,26 206.5,26 C206.5,26 206.5,26 1489.5,26 C1802.08,26 1885.98,102.553 2148,273 C2165.12,284.134 2182.69,297.363 2198.74,310.269 " fill="none" id="App-Task" style="stroke: #A80036; stroke-width: 1.0;"/><text fill="#000000" font-family="sans-serif" font-size="13" lengthAdjust="spacingAndGlyphs" textLength="21" x="977" y="22.4951">has</text><polygon fill="#000000" points="1001,15.6758,1007,18.6758,1001,21.6758,1001,15.6758" style="stroke: #000000; stroke-width: 1.0;"/><text fill="#000000" font-family="sans-serif" font-size="13" lengthAdjust="spacingAndGlyphs" textLength="7" x="27.03" y="639.2378">1</text><text fill="#000000" font-family="sans-serif" font-size="13" lengthAdjust="spacingAndGlyphs" textLength="5" x="2185.2504" y="299.7377">*</text><!--MD5=[63a18bfb0c55f564ea81086f541b4ad2]
link App to EmailScheduler--><path d="M59.0034,673.881 C100.9647,680.306 187.177,693.668 260,706 C269.597,707.625 279.765,709.402 289.666,711.161 " fill="none" id="App-EmailScheduler" style="stroke: #A80036; stroke-width: 1.0;"/><text fill="#000000" font-family="sans-serif" font-size="13" lengthAdjust="spacingAndGlyphs" textLength="21" x="90" y="674.4951">has</text><polygon fill="#000000" points="114,667.6758,120,670.6758,114,673.6758,114,667.6758" style="stroke: #000000; stroke-width: 1.0;"/><text fill="#000000" font-family="sans-serif" font-size="13" lengthAdjust="spacingAndGlyphs" textLength="7" x="67.0668" y="690.6164">1</text><text fill="#000000" font-family="sans-serif" font-size="13" lengthAdjust="spacingAndGlyphs" textLength="7" x="274.8862" y="724.3315">1</text><!--MD5=[62b22ab9dd7e0fc0219b5bb8924f5993]
link EmailScheduler to EmailAPI--><path d="M410.187,724.577 C461.144,726.573 536.652,729 602.5,729 C602.5,729 602.5,729 1342.5,729 C1435.31,729 1544.31,729 1601.79,729 " fill="none" id="EmailScheduler-EmailAPI" style="stroke: #A80036; stroke-width: 1.0;"/><text fill="#000000" font-family="sans-serif" font-size="13" lengthAdjust="spacingAndGlyphs" textLength="28" x="824" y="725.4951">uses</text><polygon fill="#000000" points="855,718.6758,861,721.6758,855,724.6758,855,718.6758" style="stroke: #000000; stroke-width: 1.0;"/><text fill="#000000" font-family="sans-serif" font-size="13" lengthAdjust="spacingAndGlyphs" textLength="7" x="417.9489" y="739.3826">1</text><text fill="#000000" font-family="sans-serif" font-size="13" lengthAdjust="spacingAndGlyphs" textLength="7" x="1587.1055" y="725.1503">1</text><!--MD5=[2a41c1af413c0662bf55a6b8913ea24f]
link Administrator to Organization--><path d="M246.256,722.996 C259.385,709.976 274.677,696.094 290,685 C338.792,649.676 357.663,651.821 410,622 C421.974,615.178 434.761,607.484 446.501,600.249 " fill="none" id="Administrator-Organization" style="stroke: #A80036; stroke-width: 1.0;"/><text fill="#000000" font-family="sans-serif" font-size="13" lengthAdjust="spacingAndGlyphs" textLength="28" x="329.5" y="618.4951">adds</text><polygon fill="#000000" points="360.5,611.6758,366.5,614.6758,360.5,617.6758,360.5,611.6758" style="stroke: #000000; stroke-width: 1.0;"/><text fill="#000000" font-family="sans-serif" font-size="13" lengthAdjust="spacingAndGlyphs" textLength="7" x="245.3156" y="712.1411">1</text><text fill="#000000" font-family="sans-serif" font-size="13" lengthAdjust="spacingAndGlyphs" textLength="5" x="431.3293" y="621.5112">*</text><!--MD5=[edc107c0a572352bcd12c9afaba4390b]
link Administrator to User--><path d="M260.037,774.606 C316.203,785.226 408.839,800 489.5,800 C489.5,800 489.5,800 845.5,800 C1241.38,800 1356.49,962.9926 1735,847 C1811.79,823.467 1886.15,766.069 1931.12,726.33 " fill="none" id="Administrator-User" style="stroke: #A80036; stroke-width: 1.0;"/><text fill="#000000" font-family="sans-serif" font-size="13" lengthAdjust="spacingAndGlyphs" textLength="43" x="966" y="798.4951">acts as</text><polygon fill="#000000" points="1012,791.6758,1018,794.6758,1012,797.6758,1012,791.6758" style="stroke: #000000; stroke-width: 1.0;"/><text fill="#000000" font-family="sans-serif" font-size="13" lengthAdjust="spacingAndGlyphs" textLength="18" x="267.9214" y="790.5391">0,1</text><text fill="#000000" font-family="sans-serif" font-size="13" lengthAdjust="spacingAndGlyphs" textLength="7" x="1917.0876" y="747.1324">1</text><!--MD5=[d633b45690d51141bd211d849cad7ced]
link EmailAPI to User--><path d="M1684.2,723.649 C1745.35,715.507 1861.54,700.039 1926.85,691.343 " fill="none" id="EmailAPI-User" style="stroke: #A80036; stroke-width: 1.0;"/><text fill="#000000" font-family="sans-serif" font-size="13" lengthAdjust="spacingAndGlyphs" textLength="42" x="1785" y="696.4951">e-mails</text><polygon fill="#000000" points="1830,689.6758,1836,692.6758,1830,695.6758,1830,689.6758" style="stroke: #000000; stroke-width: 1.0;"/><text fill="#000000" font-family="sans-serif" font-size="13" lengthAdjust="spacingAndGlyphs" textLength="7" x="1691.8828" y="737.6296">1</text><text fill="#000000" font-family="sans-serif" font-size="13" lengthAdjust="spacingAndGlyphs" textLength="5" x="1914.0177" y="707.099">*</text><!--MD5=[cbdd6193c065fcdcc21acc530d8838bb]
link EmailAPI to Freelancer--><path d="M1684.02,732.191 C1732.67,735.897 1817.29,741.785 1890,744 C1965.96,746.314 1986.34,758.217 2061,744 C2222.81,713.188 2399.17,630.809 2492.61,582.9 " fill="none" id="EmailAPI-Freelancer" style="stroke: #A80036; stroke-width: 1.0;"/><text fill="#000000" font-family="sans-serif" font-size="13" lengthAdjust="spacingAndGlyphs" textLength="42" x="2092" y="720.4951">e-mails</text><polygon fill="#000000" points="2137,713.6758,2143,716.6758,2137,719.6758,2137,713.6758" style="stroke: #000000; stroke-width: 1.0;"/><text fill="#000000" font-family="sans-serif" font-size="13" lengthAdjust="spacingAndGlyphs" textLength="7" x="1691.9501" y="747.7108">1</text><text fill="#000000" font-family="sans-serif" font-size="13" lengthAdjust="spacingAndGlyphs" textLength="5" x="2479.9111" y="601.233">*</text><!--MD5=[a41c62cecea35649f88d7bd29fbc0062]
@startuml MD

skinparam classAttributeIconSize 0
hide methods
left to right direction

class Colaborator {
        - String nome
        - String email
        - String password
}

class Manager {
        - String nome
        - String email
        - String password
}

class Transaction {

}

class TaskExecutionDetails {
        - Date endDate
        - Integer delayInDays
        - String DescriptionQualityOfWork
}

class HistoricalTransactionFile {

}

class PaymentScheduler {
        - Integer dayMonth
        - LocalTime timeOfDay
}

class Organization {
        - String nome
}

class Task {
        - String id
        - String description
        - Integer durationInHours
        - Double costPerHourOfJuniorEur
        - String category
}

class App {

}

class Administrator {
        - String nome
        - String email
        - String password
}

class EmailScheduler {

}

class User {
        - String nome
        - String email
        - String password
}

class Freelancer {
        - String id
        - String name
        - String levelOfExpertise
        - String email
        - String NIF
        - String bankAccountIBAN
        - String address
        - String country
}

Colaborator                  "1" - - "*"      Payment                   : creates >
Colaborator                  "1" - - "*"      Task                      : creates >
Colaborator                  "1" - - "*"      Freelancer                : creates >
Colaborator                  "1" - - "*"      HistoricalTransactionFile : loads >
Colaborator                "0,1" - - "1"      User                      : acts as >
Manager                      "1" - - "0,1"    PaymentScheduler          : defines >
Manager                    "0,1" - - "1"      User                      : acts as >
Payment                      "*" - - "1,..."  Transaction               : registers >
Payment                      "*" - - "1"      EmailAPI                  : uses >
Payment                      "*" - - "1"      PaymentAPI                : uses >
Payment                      "*" - - "1"      MonetaryUnitConversionAPI : uses >
Transaction                  "1" - - "1"      Task                      : relative to >
Transaction                  "1" - - "1"      TaskExecutionDetails      : executed with >
Transaction                  "*" - - "1"      Freelancer                : to >
TaskExecutionDetails         "1" - - "1"      Task                      : refer to >
HistoricalTransactionFile    "1" - - "*"      Transaction               : records >
PaymentScheduler             "1" - - "*"      Payment                   : makes automatically >
Organization                 "1" - - "1,..."  Colaborator               : has >
Organization                 "1" - - "1"      Manager                   : has >
Organization                 "1" - - "1"      PaymentScheduler          : uses >
Organization                 "1" - - "*"      Payment                   : responsable by >
Task                         "*" - - "1"      Freelancer                : executed by >
App                          "1" - - "1"      MonetaryUnitConversionAPI : supports >
App                          "1" - - "*"      Organization              : has >
App                          "1" - - "1"      EmailAPI                  : supports >
App                          "1" - - "1"      PaymentAPI                : supports >
App                          "1" - - "*"      Payment                   : registers >
App                          "1" - - "*"      Administrator             : has >
App                          "1" - - "*"      Freelancer                : has >
App                          "1" - - "*"      Task                      : has >
App                          "1" - - "1"      EmailScheduler            : has >
EmailScheduler               "1" - - "1"      EmailAPI                  : uses >
Administrator                "1" - - "*"      Organization              : adds >
Administrator              "0,1" - - "1"      User                      : acts as >
EmailAPI                     "1" - - "*"      User                      : e-mails >
EmailAPI                     "1" - - "*"      Freelancer                : e-mails >

@enduml

PlantUML version 1.2020.10(Sun May 17 10:35:57 WEST 2020)
(GPL source distribution)
Java Runtime: OpenJDK Runtime Environment
JVM: OpenJDK 64-Bit Server VM
Java Version: 14+36
Operating System: Windows 10
Default Encoding: Cp1252
Language: en
Country: US
--></g></svg>