<?xml version="1.0" encoding="UTF-8" standalone="no"?><svg xmlns="http://www.w3.org/2000/svg" xmlns:xlink="http://www.w3.org/1999/xlink" contentScriptType="application/ecmascript" contentStyleType="text/css" height="1348px" preserveAspectRatio="none" style="width:2639px;height:1348px;" version="1.1" viewBox="0 0 2639 1348" width="2639px" zoomAndPan="magnify"><defs><filter height="300%" id="f1fayxgcjmjuy1" width="300%" x="-1" y="-1"><feGaussianBlur result="blurOut" stdDeviation="2.0"/><feColorMatrix in="blurOut" result="blurOut2" type="matrix" values="0 0 0 0 0 0 0 0 0 0 0 0 0 0 0 0 0 0 .4 0"/><feOffset dx="4.0" dy="4.0" in="blurOut2" result="blurOut3"/><feBlend in="SourceGraphic" in2="blurOut3" mode="normal"/></filter></defs><g><!--MD5=[65f9b271fae1a3d56975d9ea4f8e38de]
class Colaborator--><rect fill="#FEFECE" filter="url(#f1fayxgcjmjuy1)" height="81.5078" id="Colaborator" style="stroke: #A80036; stroke-width: 1.5;" width="97" x="945.5" y="279"/><ellipse cx="960.5" cy="295" fill="#ADD1B2" rx="11" ry="11" style="stroke: #A80036; stroke-width: 1.0;"/><path d="M963.2656,290.875 Q963.4219,290.6563 963.6094,290.5469 Q963.7969,290.4375 964.0156,290.4375 Q964.3906,290.4375 964.625,290.7031 Q964.8594,290.9531 964.8594,291.5625 L964.8594,293.0156 Q964.8594,293.625 964.625,293.8906 Q964.3906,294.1563 964.0156,294.1563 Q963.6719,294.1563 963.4688,293.9531 Q963.2656,293.7656 963.1563,293.25 Q963.1094,292.8906 962.9219,292.7031 Q962.5938,292.3281 961.9844,292.1094 Q961.375,291.8906 960.75,291.8906 Q959.9844,291.8906 959.3438,292.2188 Q958.7188,292.5469 958.2188,293.2969 Q957.7344,294.0469 957.7344,295.0781 L957.7344,296.1719 Q957.7344,297.4063 958.625,298.2344 Q959.5156,299.0469 961.1094,299.0469 Q962.0469,299.0469 962.7031,298.7969 Q963.0938,298.6406 963.5156,298.2031 Q963.7813,297.9375 963.9219,297.8594 Q964.0781,297.7813 964.2813,297.7813 Q964.6094,297.7813 964.8594,298.0469 Q965.125,298.2969 965.125,298.6406 Q965.125,298.9844 964.7813,299.3906 Q964.2813,299.9688 963.4844,300.2969 Q962.4063,300.75 961.1094,300.75 Q959.5938,300.75 958.3906,300.125 Q957.4063,299.625 956.7188,298.5625 Q956.0313,297.4844 956.0313,296.2031 L956.0313,295.0469 Q956.0313,293.7188 956.6406,292.5781 Q957.2656,291.4219 958.3594,290.8125 Q959.4531,290.1875 960.6875,290.1875 Q961.4219,290.1875 962.0625,290.3594 Q962.7188,290.5156 963.2656,290.875 Z "/><text fill="#000000" font-family="sans-serif" font-size="12" lengthAdjust="spacingAndGlyphs" textLength="65" x="974.5" y="299.9102">Colaborator</text><line style="stroke: #A80036; stroke-width: 1.5;" x1="946.5" x2="1041.5" y1="311" y2="311"/><text fill="#000000" font-family="sans-serif" font-size="11" lengthAdjust="spacingAndGlyphs" textLength="61" x="951.5" y="326.4189">-String nome</text><text fill="#000000" font-family="sans-serif" font-size="11" lengthAdjust="spacingAndGlyphs" textLength="59" x="951.5" y="340.2549">-String email</text><text fill="#000000" font-family="sans-serif" font-size="11" lengthAdjust="spacingAndGlyphs" textLength="85" x="951.5" y="354.0908">-String password</text><!--MD5=[b24ed8d4ae84bae9290d9aab401637c7]
class Manager--><rect fill="#FEFECE" filter="url(#f1fayxgcjmjuy1)" height="81.5078" id="Manager" style="stroke: #A80036; stroke-width: 1.5;" width="97" x="666" y="636"/><ellipse cx="688.65" cy="652" fill="#ADD1B2" rx="11" ry="11" style="stroke: #A80036; stroke-width: 1.0;"/><path d="M691.4156,647.875 Q691.5719,647.6563 691.7594,647.5469 Q691.9469,647.4375 692.1656,647.4375 Q692.5406,647.4375 692.775,647.7031 Q693.0094,647.9531 693.0094,648.5625 L693.0094,650.0156 Q693.0094,650.625 692.775,650.8906 Q692.5406,651.1563 692.1656,651.1563 Q691.8219,651.1563 691.6188,650.9531 Q691.4156,650.7656 691.3063,650.25 Q691.2594,649.8906 691.0719,649.7031 Q690.7438,649.3281 690.1344,649.1094 Q689.525,648.8906 688.9,648.8906 Q688.1344,648.8906 687.4938,649.2188 Q686.8688,649.5469 686.3688,650.2969 Q685.8844,651.0469 685.8844,652.0781 L685.8844,653.1719 Q685.8844,654.4063 686.775,655.2344 Q687.6656,656.0469 689.2594,656.0469 Q690.1969,656.0469 690.8531,655.7969 Q691.2438,655.6406 691.6656,655.2031 Q691.9313,654.9375 692.0719,654.8594 Q692.2281,654.7813 692.4313,654.7813 Q692.7594,654.7813 693.0094,655.0469 Q693.275,655.2969 693.275,655.6406 Q693.275,655.9844 692.9313,656.3906 Q692.4313,656.9688 691.6344,657.2969 Q690.5563,657.75 689.2594,657.75 Q687.7438,657.75 686.5406,657.125 Q685.5563,656.625 684.8688,655.5625 Q684.1813,654.4844 684.1813,653.2031 L684.1813,652.0469 Q684.1813,650.7188 684.7906,649.5781 Q685.4156,648.4219 686.5094,647.8125 Q687.6031,647.1875 688.8375,647.1875 Q689.5719,647.1875 690.2125,647.3594 Q690.8688,647.5156 691.4156,647.875 Z "/><text fill="#000000" font-family="sans-serif" font-size="12" lengthAdjust="spacingAndGlyphs" textLength="48" x="704.35" y="656.9102">Manager</text><line style="stroke: #A80036; stroke-width: 1.5;" x1="667" x2="762" y1="668" y2="668"/><text fill="#000000" font-family="sans-serif" font-size="11" lengthAdjust="spacingAndGlyphs" textLength="61" x="672" y="683.4189">-String nome</text><text fill="#000000" font-family="sans-serif" font-size="11" lengthAdjust="spacingAndGlyphs" textLength="59" x="672" y="697.2549">-String email</text><text fill="#000000" font-family="sans-serif" font-size="11" lengthAdjust="spacingAndGlyphs" textLength="85" x="672" y="711.0908">-String password</text><!--MD5=[4555bb1b0911a5adf28ce6dbe60fed2e]
class Transaction--><rect fill="#FEFECE" filter="url(#f1fayxgcjmjuy1)" height="40" id="Transaction" style="stroke: #A80036; stroke-width: 1.5;" width="97" x="1594.5" y="173"/><ellipse cx="1609.5" cy="189" fill="#ADD1B2" rx="11" ry="11" style="stroke: #A80036; stroke-width: 1.0;"/><path d="M1612.2656,184.875 Q1612.4219,184.6563 1612.6094,184.5469 Q1612.7969,184.4375 1613.0156,184.4375 Q1613.3906,184.4375 1613.625,184.7031 Q1613.8594,184.9531 1613.8594,185.5625 L1613.8594,187.0156 Q1613.8594,187.625 1613.625,187.8906 Q1613.3906,188.1563 1613.0156,188.1563 Q1612.6719,188.1563 1612.4688,187.9531 Q1612.2656,187.7656 1612.1563,187.25 Q1612.1094,186.8906 1611.9219,186.7031 Q1611.5938,186.3281 1610.9844,186.1094 Q1610.375,185.8906 1609.75,185.8906 Q1608.9844,185.8906 1608.3438,186.2188 Q1607.7188,186.5469 1607.2188,187.2969 Q1606.7344,188.0469 1606.7344,189.0781 L1606.7344,190.1719 Q1606.7344,191.4063 1607.625,192.2344 Q1608.5156,193.0469 1610.1094,193.0469 Q1611.0469,193.0469 1611.7031,192.7969 Q1612.0938,192.6406 1612.5156,192.2031 Q1612.7813,191.9375 1612.9219,191.8594 Q1613.0781,191.7813 1613.2813,191.7813 Q1613.6094,191.7813 1613.8594,192.0469 Q1614.125,192.2969 1614.125,192.6406 Q1614.125,192.9844 1613.7813,193.3906 Q1613.2813,193.9688 1612.4844,194.2969 Q1611.4063,194.75 1610.1094,194.75 Q1608.5938,194.75 1607.3906,194.125 Q1606.4063,193.625 1605.7188,192.5625 Q1605.0313,191.4844 1605.0313,190.2031 L1605.0313,189.0469 Q1605.0313,187.7188 1605.6406,186.5781 Q1606.2656,185.4219 1607.3594,184.8125 Q1608.4531,184.1875 1609.6875,184.1875 Q1610.4219,184.1875 1611.0625,184.3594 Q1611.7188,184.5156 1612.2656,184.875 Z "/><text fill="#000000" font-family="sans-serif" font-size="12" lengthAdjust="spacingAndGlyphs" textLength="65" x="1623.5" y="193.9102">Transaction</text><line style="stroke: #A80036; stroke-width: 1.5;" x1="1595.5" x2="1690.5" y1="205" y2="205"/><!--MD5=[f9fa7692a1144bec397c3ffa19589ca2]
class TaskExecutionDetails--><rect fill="#FEFECE" filter="url(#f1fayxgcjmjuy1)" height="81.5078" id="TaskExecutionDetails" style="stroke: #A80036; stroke-width: 1.5;" width="171" x="1890" y="150"/><ellipse cx="1914" cy="166" fill="#ADD1B2" rx="11" ry="11" style="stroke: #A80036; stroke-width: 1.0;"/><path d="M1916.7656,161.875 Q1916.9219,161.6563 1917.1094,161.5469 Q1917.2969,161.4375 1917.5156,161.4375 Q1917.8906,161.4375 1918.125,161.7031 Q1918.3594,161.9531 1918.3594,162.5625 L1918.3594,164.0156 Q1918.3594,164.625 1918.125,164.8906 Q1917.8906,165.1563 1917.5156,165.1563 Q1917.1719,165.1563 1916.9688,164.9531 Q1916.7656,164.7656 1916.6563,164.25 Q1916.6094,163.8906 1916.4219,163.7031 Q1916.0938,163.3281 1915.4844,163.1094 Q1914.875,162.8906 1914.25,162.8906 Q1913.4844,162.8906 1912.8438,163.2188 Q1912.2188,163.5469 1911.7188,164.2969 Q1911.2344,165.0469 1911.2344,166.0781 L1911.2344,167.1719 Q1911.2344,168.4063 1912.125,169.2344 Q1913.0156,170.0469 1914.6094,170.0469 Q1915.5469,170.0469 1916.2031,169.7969 Q1916.5938,169.6406 1917.0156,169.2031 Q1917.2813,168.9375 1917.4219,168.8594 Q1917.5781,168.7813 1917.7813,168.7813 Q1918.1094,168.7813 1918.3594,169.0469 Q1918.625,169.2969 1918.625,169.6406 Q1918.625,169.9844 1918.2813,170.3906 Q1917.7813,170.9688 1916.9844,171.2969 Q1915.9063,171.75 1914.6094,171.75 Q1913.0938,171.75 1911.8906,171.125 Q1910.9063,170.625 1910.2188,169.5625 Q1909.5313,168.4844 1909.5313,167.2031 L1909.5313,166.0469 Q1909.5313,164.7188 1910.1406,163.5781 Q1910.7656,162.4219 1911.8594,161.8125 Q1912.9531,161.1875 1914.1875,161.1875 Q1914.9219,161.1875 1915.5625,161.3594 Q1916.2188,161.5156 1916.7656,161.875 Z "/><text fill="#000000" font-family="sans-serif" font-size="12" lengthAdjust="spacingAndGlyphs" textLength="119" x="1930" y="170.9102">TaskExecutionDetails</text><line style="stroke: #A80036; stroke-width: 1.5;" x1="1891" x2="2060" y1="182" y2="182"/><text fill="#000000" font-family="sans-serif" font-size="11" lengthAdjust="spacingAndGlyphs" textLength="69" x="1896" y="197.4189">-Date endDate</text><text fill="#000000" font-family="sans-serif" font-size="11" lengthAdjust="spacingAndGlyphs" textLength="99" x="1896" y="211.2549">-Integer delayInDays</text><text fill="#000000" font-family="sans-serif" font-size="11" lengthAdjust="spacingAndGlyphs" textLength="159" x="1896" y="225.0908">-String DescriptionQualityOfWork</text><!--MD5=[6e5bbc712ea226b699d2ce44e283e8b8]
class HistoricalTransactionFile--><rect fill="#FEFECE" filter="url(#f1fayxgcjmjuy1)" height="40" id="HistoricalTransactionFile" style="stroke: #A80036; stroke-width: 1.5;" width="169" x="1257" y="263"/><ellipse cx="1272" cy="279" fill="#ADD1B2" rx="11" ry="11" style="stroke: #A80036; stroke-width: 1.0;"/><path d="M1274.7656,274.875 Q1274.9219,274.6563 1275.1094,274.5469 Q1275.2969,274.4375 1275.5156,274.4375 Q1275.8906,274.4375 1276.125,274.7031 Q1276.3594,274.9531 1276.3594,275.5625 L1276.3594,277.0156 Q1276.3594,277.625 1276.125,277.8906 Q1275.8906,278.1563 1275.5156,278.1563 Q1275.1719,278.1563 1274.9688,277.9531 Q1274.7656,277.7656 1274.6563,277.25 Q1274.6094,276.8906 1274.4219,276.7031 Q1274.0938,276.3281 1273.4844,276.1094 Q1272.875,275.8906 1272.25,275.8906 Q1271.4844,275.8906 1270.8438,276.2188 Q1270.2188,276.5469 1269.7188,277.2969 Q1269.2344,278.0469 1269.2344,279.0781 L1269.2344,280.1719 Q1269.2344,281.4063 1270.125,282.2344 Q1271.0156,283.0469 1272.6094,283.0469 Q1273.5469,283.0469 1274.2031,282.7969 Q1274.5938,282.6406 1275.0156,282.2031 Q1275.2813,281.9375 1275.4219,281.8594 Q1275.5781,281.7813 1275.7813,281.7813 Q1276.1094,281.7813 1276.3594,282.0469 Q1276.625,282.2969 1276.625,282.6406 Q1276.625,282.9844 1276.2813,283.3906 Q1275.7813,283.9688 1274.9844,284.2969 Q1273.9063,284.75 1272.6094,284.75 Q1271.0938,284.75 1269.8906,284.125 Q1268.9063,283.625 1268.2188,282.5625 Q1267.5313,281.4844 1267.5313,280.2031 L1267.5313,279.0469 Q1267.5313,277.7188 1268.1406,276.5781 Q1268.7656,275.4219 1269.8594,274.8125 Q1270.9531,274.1875 1272.1875,274.1875 Q1272.9219,274.1875 1273.5625,274.3594 Q1274.2188,274.5156 1274.7656,274.875 Z "/><text fill="#000000" font-family="sans-serif" font-size="12" lengthAdjust="spacingAndGlyphs" textLength="137" x="1286" y="283.9102">HistoricalTransactionFile</text><line style="stroke: #A80036; stroke-width: 1.5;" x1="1258" x2="1425" y1="295" y2="295"/><!--MD5=[dc84a4e894a42f8e8d7fc762e5a59f92]
class PaymentScheduler--><rect fill="#FEFECE" filter="url(#f1fayxgcjmjuy1)" height="67.6719" id="PaymentScheduler" style="stroke: #A80036; stroke-width: 1.5;" width="136" x="926" y="809"/><ellipse cx="941" cy="825" fill="#ADD1B2" rx="11" ry="11" style="stroke: #A80036; stroke-width: 1.0;"/><path d="M943.7656,820.875 Q943.9219,820.6563 944.1094,820.5469 Q944.2969,820.4375 944.5156,820.4375 Q944.8906,820.4375 945.125,820.7031 Q945.3594,820.9531 945.3594,821.5625 L945.3594,823.0156 Q945.3594,823.625 945.125,823.8906 Q944.8906,824.1563 944.5156,824.1563 Q944.1719,824.1563 943.9688,823.9531 Q943.7656,823.7656 943.6563,823.25 Q943.6094,822.8906 943.4219,822.7031 Q943.0938,822.3281 942.4844,822.1094 Q941.875,821.8906 941.25,821.8906 Q940.4844,821.8906 939.8438,822.2188 Q939.2188,822.5469 938.7188,823.2969 Q938.2344,824.0469 938.2344,825.0781 L938.2344,826.1719 Q938.2344,827.4063 939.125,828.2344 Q940.0156,829.0469 941.6094,829.0469 Q942.5469,829.0469 943.2031,828.7969 Q943.5938,828.6406 944.0156,828.2031 Q944.2813,827.9375 944.4219,827.8594 Q944.5781,827.7813 944.7813,827.7813 Q945.1094,827.7813 945.3594,828.0469 Q945.625,828.2969 945.625,828.6406 Q945.625,828.9844 945.2813,829.3906 Q944.7813,829.9688 943.9844,830.2969 Q942.9063,830.75 941.6094,830.75 Q940.0938,830.75 938.8906,830.125 Q937.9063,829.625 937.2188,828.5625 Q936.5313,827.4844 936.5313,826.2031 L936.5313,825.0469 Q936.5313,823.7188 937.1406,822.5781 Q937.7656,821.4219 938.8594,820.8125 Q939.9531,820.1875 941.1875,820.1875 Q941.9219,820.1875 942.5625,820.3594 Q943.2188,820.5156 943.7656,820.875 Z "/><text fill="#000000" font-family="sans-serif" font-size="12" lengthAdjust="spacingAndGlyphs" textLength="104" x="955" y="829.9102">PaymentScheduler</text><line style="stroke: #A80036; stroke-width: 1.5;" x1="927" x2="1061" y1="841" y2="841"/><text fill="#000000" font-family="sans-serif" font-size="11" lengthAdjust="spacingAndGlyphs" textLength="87" x="932" y="856.4189">-Integer dayMonth</text><text fill="#000000" font-family="sans-serif" font-size="11" lengthAdjust="spacingAndGlyphs" textLength="105" x="932" y="870.2549">-LocalTime timeOfDay</text><!--MD5=[86c7c362de55a38b660185a1328fe18d]
class Organization--><rect fill="#FEFECE" filter="url(#f1fayxgcjmjuy1)" height="53.8359" id="Organization" style="stroke: #A80036; stroke-width: 1.5;" width="101" x="440" y="473"/><ellipse cx="455" cy="489" fill="#ADD1B2" rx="11" ry="11" style="stroke: #A80036; stroke-width: 1.0;"/><path d="M457.7656,484.875 Q457.9219,484.6563 458.1094,484.5469 Q458.2969,484.4375 458.5156,484.4375 Q458.8906,484.4375 459.125,484.7031 Q459.3594,484.9531 459.3594,485.5625 L459.3594,487.0156 Q459.3594,487.625 459.125,487.8906 Q458.8906,488.1563 458.5156,488.1563 Q458.1719,488.1563 457.9688,487.9531 Q457.7656,487.7656 457.6563,487.25 Q457.6094,486.8906 457.4219,486.7031 Q457.0938,486.3281 456.4844,486.1094 Q455.875,485.8906 455.25,485.8906 Q454.4844,485.8906 453.8438,486.2188 Q453.2188,486.5469 452.7188,487.2969 Q452.2344,488.0469 452.2344,489.0781 L452.2344,490.1719 Q452.2344,491.4063 453.125,492.2344 Q454.0156,493.0469 455.6094,493.0469 Q456.5469,493.0469 457.2031,492.7969 Q457.5938,492.6406 458.0156,492.2031 Q458.2813,491.9375 458.4219,491.8594 Q458.5781,491.7813 458.7813,491.7813 Q459.1094,491.7813 459.3594,492.0469 Q459.625,492.2969 459.625,492.6406 Q459.625,492.9844 459.2813,493.3906 Q458.7813,493.9688 457.9844,494.2969 Q456.9063,494.75 455.6094,494.75 Q454.0938,494.75 452.8906,494.125 Q451.9063,493.625 451.2188,492.5625 Q450.5313,491.4844 450.5313,490.2031 L450.5313,489.0469 Q450.5313,487.7188 451.1406,486.5781 Q451.7656,485.4219 452.8594,484.8125 Q453.9531,484.1875 455.1875,484.1875 Q455.9219,484.1875 456.5625,484.3594 Q457.2188,484.5156 457.7656,484.875 Z "/><text fill="#000000" font-family="sans-serif" font-size="12" lengthAdjust="spacingAndGlyphs" textLength="69" x="469" y="493.9102">Organization</text><line style="stroke: #A80036; stroke-width: 1.5;" x1="441" x2="540" y1="505" y2="505"/><text fill="#000000" font-family="sans-serif" font-size="11" lengthAdjust="spacingAndGlyphs" textLength="61" x="446" y="520.4189">-String nome</text><!--MD5=[b34797a66dc35cbf1d65f7e3ca75530e]
class Task--><rect fill="#FEFECE" filter="url(#f1fayxgcjmjuy1)" height="109.1797" id="Task" style="stroke: #A80036; stroke-width: 1.5;" width="169" x="2178" y="274.5"/><ellipse cx="2244.75" cy="290.5" fill="#ADD1B2" rx="11" ry="11" style="stroke: #A80036; stroke-width: 1.0;"/><path d="M2247.5156,286.375 Q2247.6719,286.1563 2247.8594,286.0469 Q2248.0469,285.9375 2248.2656,285.9375 Q2248.6406,285.9375 2248.875,286.2031 Q2249.1094,286.4531 2249.1094,287.0625 L2249.1094,288.5156 Q2249.1094,289.125 2248.875,289.3906 Q2248.6406,289.6563 2248.2656,289.6563 Q2247.9219,289.6563 2247.7188,289.4531 Q2247.5156,289.2656 2247.4063,288.75 Q2247.3594,288.3906 2247.1719,288.2031 Q2246.8438,287.8281 2246.2344,287.6094 Q2245.625,287.3906 2245,287.3906 Q2244.2344,287.3906 2243.5938,287.7188 Q2242.9688,288.0469 2242.4688,288.7969 Q2241.9844,289.5469 2241.9844,290.5781 L2241.9844,291.6719 Q2241.9844,292.9063 2242.875,293.7344 Q2243.7656,294.5469 2245.3594,294.5469 Q2246.2969,294.5469 2246.9531,294.2969 Q2247.3438,294.1406 2247.7656,293.7031 Q2248.0313,293.4375 2248.1719,293.3594 Q2248.3281,293.2813 2248.5313,293.2813 Q2248.8594,293.2813 2249.1094,293.5469 Q2249.375,293.7969 2249.375,294.1406 Q2249.375,294.4844 2249.0313,294.8906 Q2248.5313,295.4688 2247.7344,295.7969 Q2246.6563,296.25 2245.3594,296.25 Q2243.8438,296.25 2242.6406,295.625 Q2241.6563,295.125 2240.9688,294.0625 Q2240.2813,292.9844 2240.2813,291.7031 L2240.2813,290.5469 Q2240.2813,289.2188 2240.8906,288.0781 Q2241.5156,286.9219 2242.6094,286.3125 Q2243.7031,285.6875 2244.9375,285.6875 Q2245.6719,285.6875 2246.3125,285.8594 Q2246.9688,286.0156 2247.5156,286.375 Z "/><text fill="#000000" font-family="sans-serif" font-size="12" lengthAdjust="spacingAndGlyphs" textLength="27" x="2265.25" y="295.4102">Task</text><line style="stroke: #A80036; stroke-width: 1.5;" x1="2179" x2="2346" y1="306.5" y2="306.5"/><text fill="#000000" font-family="sans-serif" font-size="11" lengthAdjust="spacingAndGlyphs" textLength="43" x="2184" y="321.9189">-String id</text><text fill="#000000" font-family="sans-serif" font-size="11" lengthAdjust="spacingAndGlyphs" textLength="88" x="2184" y="335.7549">-String description</text><text fill="#000000" font-family="sans-serif" font-size="11" lengthAdjust="spacingAndGlyphs" textLength="116" x="2184" y="349.5908">-Integer durationInHours</text><text fill="#000000" font-family="sans-serif" font-size="11" lengthAdjust="spacingAndGlyphs" textLength="157" x="2184" y="363.4268">-Double costPerHourOfJuniorEur</text><text fill="#000000" font-family="sans-serif" font-size="11" lengthAdjust="spacingAndGlyphs" textLength="78" x="2184" y="377.2627">-String category</text><!--MD5=[335f4d9be48430461c68bf6d6fdba145]
class App--><rect fill="#FEFECE" filter="url(#f1fayxgcjmjuy1)" height="40" id="App" style="stroke: #A80036; stroke-width: 1.5;" width="53" x="6" y="1034"/><ellipse cx="21" cy="1050" fill="#ADD1B2" rx="11" ry="11" style="stroke: #A80036; stroke-width: 1.0;"/><path d="M23.7656,1045.875 Q23.9219,1045.6563 24.1094,1045.5469 Q24.2969,1045.4375 24.5156,1045.4375 Q24.8906,1045.4375 25.125,1045.7031 Q25.3594,1045.9531 25.3594,1046.5625 L25.3594,1048.0156 Q25.3594,1048.625 25.125,1048.8906 Q24.8906,1049.1563 24.5156,1049.1563 Q24.1719,1049.1563 23.9688,1048.9531 Q23.7656,1048.7656 23.6563,1048.25 Q23.6094,1047.8906 23.4219,1047.7031 Q23.0938,1047.3281 22.4844,1047.1094 Q21.875,1046.8906 21.25,1046.8906 Q20.4844,1046.8906 19.8438,1047.2188 Q19.2188,1047.5469 18.7188,1048.2969 Q18.2344,1049.0469 18.2344,1050.0781 L18.2344,1051.1719 Q18.2344,1052.4063 19.125,1053.2344 Q20.0156,1054.0469 21.6094,1054.0469 Q22.5469,1054.0469 23.2031,1053.7969 Q23.5938,1053.6406 24.0156,1053.2031 Q24.2813,1052.9375 24.4219,1052.8594 Q24.5781,1052.7813 24.7813,1052.7813 Q25.1094,1052.7813 25.3594,1053.0469 Q25.625,1053.2969 25.625,1053.6406 Q25.625,1053.9844 25.2813,1054.3906 Q24.7813,1054.9688 23.9844,1055.2969 Q22.9063,1055.75 21.6094,1055.75 Q20.0938,1055.75 18.8906,1055.125 Q17.9063,1054.625 17.2188,1053.5625 Q16.5313,1052.4844 16.5313,1051.2031 L16.5313,1050.0469 Q16.5313,1048.7188 17.1406,1047.5781 Q17.7656,1046.4219 18.8594,1045.8125 Q19.9531,1045.1875 21.1875,1045.1875 Q21.9219,1045.1875 22.5625,1045.3594 Q23.2188,1045.5156 23.7656,1045.875 Z "/><text fill="#000000" font-family="sans-serif" font-size="12" lengthAdjust="spacingAndGlyphs" textLength="21" x="35" y="1054.9102">App</text><line style="stroke: #A80036; stroke-width: 1.5;" x1="7" x2="58" y1="1066" y2="1066"/><!--MD5=[da547346deef918ea16944ba046651ef]
class Administrator--><rect fill="#FEFECE" filter="url(#f1fayxgcjmjuy1)" height="81.5078" id="Administrator" style="stroke: #A80036; stroke-width: 1.5;" width="105" x="155" y="554"/><ellipse cx="170" cy="570" fill="#ADD1B2" rx="11" ry="11" style="stroke: #A80036; stroke-width: 1.0;"/><path d="M172.7656,565.875 Q172.9219,565.6563 173.1094,565.5469 Q173.2969,565.4375 173.5156,565.4375 Q173.8906,565.4375 174.125,565.7031 Q174.3594,565.9531 174.3594,566.5625 L174.3594,568.0156 Q174.3594,568.625 174.125,568.8906 Q173.8906,569.1563 173.5156,569.1563 Q173.1719,569.1563 172.9688,568.9531 Q172.7656,568.7656 172.6563,568.25 Q172.6094,567.8906 172.4219,567.7031 Q172.0938,567.3281 171.4844,567.1094 Q170.875,566.8906 170.25,566.8906 Q169.4844,566.8906 168.8438,567.2188 Q168.2188,567.5469 167.7188,568.2969 Q167.2344,569.0469 167.2344,570.0781 L167.2344,571.1719 Q167.2344,572.4063 168.125,573.2344 Q169.0156,574.0469 170.6094,574.0469 Q171.5469,574.0469 172.2031,573.7969 Q172.5938,573.6406 173.0156,573.2031 Q173.2813,572.9375 173.4219,572.8594 Q173.5781,572.7813 173.7813,572.7813 Q174.1094,572.7813 174.3594,573.0469 Q174.625,573.2969 174.625,573.6406 Q174.625,573.9844 174.2813,574.3906 Q173.7813,574.9688 172.9844,575.2969 Q171.9063,575.75 170.6094,575.75 Q169.0938,575.75 167.8906,575.125 Q166.9063,574.625 166.2188,573.5625 Q165.5313,572.4844 165.5313,571.2031 L165.5313,570.0469 Q165.5313,568.7188 166.1406,567.5781 Q166.7656,566.4219 167.8594,565.8125 Q168.9531,565.1875 170.1875,565.1875 Q170.9219,565.1875 171.5625,565.3594 Q172.2188,565.5156 172.7656,565.875 Z "/><text fill="#000000" font-family="sans-serif" font-size="12" lengthAdjust="spacingAndGlyphs" textLength="73" x="184" y="574.9102">Administrator</text><line style="stroke: #A80036; stroke-width: 1.5;" x1="156" x2="259" y1="586" y2="586"/><text fill="#000000" font-family="sans-serif" font-size="11" lengthAdjust="spacingAndGlyphs" textLength="61" x="161" y="601.4189">-String nome</text><text fill="#000000" font-family="sans-serif" font-size="11" lengthAdjust="spacingAndGlyphs" textLength="59" x="161" y="615.2549">-String email</text><text fill="#000000" font-family="sans-serif" font-size="11" lengthAdjust="spacingAndGlyphs" textLength="85" x="161" y="629.0908">-String password</text><!--MD5=[942000697ba2ca87a591befaf65c4861]
class EmailScheduler--><rect fill="#FEFECE" filter="url(#f1fayxgcjmjuy1)" height="40" id="EmailScheduler" style="stroke: #A80036; stroke-width: 1.5;" width="120" x="290" y="1153"/><ellipse cx="305" cy="1169" fill="#ADD1B2" rx="11" ry="11" style="stroke: #A80036; stroke-width: 1.0;"/><path d="M307.7656,1164.875 Q307.9219,1164.6563 308.1094,1164.5469 Q308.2969,1164.4375 308.5156,1164.4375 Q308.8906,1164.4375 309.125,1164.7031 Q309.3594,1164.9531 309.3594,1165.5625 L309.3594,1167.0156 Q309.3594,1167.625 309.125,1167.8906 Q308.8906,1168.1563 308.5156,1168.1563 Q308.1719,1168.1563 307.9688,1167.9531 Q307.7656,1167.7656 307.6563,1167.25 Q307.6094,1166.8906 307.4219,1166.7031 Q307.0938,1166.3281 306.4844,1166.1094 Q305.875,1165.8906 305.25,1165.8906 Q304.4844,1165.8906 303.8438,1166.2188 Q303.2188,1166.5469 302.7188,1167.2969 Q302.2344,1168.0469 302.2344,1169.0781 L302.2344,1170.1719 Q302.2344,1171.4063 303.125,1172.2344 Q304.0156,1173.0469 305.6094,1173.0469 Q306.5469,1173.0469 307.2031,1172.7969 Q307.5938,1172.6406 308.0156,1172.2031 Q308.2813,1171.9375 308.4219,1171.8594 Q308.5781,1171.7813 308.7813,1171.7813 Q309.1094,1171.7813 309.3594,1172.0469 Q309.625,1172.2969 309.625,1172.6406 Q309.625,1172.9844 309.2813,1173.3906 Q308.7813,1173.9688 307.9844,1174.2969 Q306.9063,1174.75 305.6094,1174.75 Q304.0938,1174.75 302.8906,1174.125 Q301.9063,1173.625 301.2188,1172.5625 Q300.5313,1171.4844 300.5313,1170.2031 L300.5313,1169.0469 Q300.5313,1167.7188 301.1406,1166.5781 Q301.7656,1165.4219 302.8594,1164.8125 Q303.9531,1164.1875 305.1875,1164.1875 Q305.9219,1164.1875 306.5625,1164.3594 Q307.2188,1164.5156 307.7656,1164.875 Z "/><text fill="#000000" font-family="sans-serif" font-size="12" lengthAdjust="spacingAndGlyphs" textLength="88" x="319" y="1173.9102">EmailScheduler</text><line style="stroke: #A80036; stroke-width: 1.5;" x1="291" x2="409" y1="1185" y2="1185"/><!--MD5=[3fd616f346a44cd59a91eb10b19e157c]
class User--><rect fill="#FEFECE" filter="url(#f1fayxgcjmjuy1)" height="81.5078" id="User" style="stroke: #A80036; stroke-width: 1.5;" width="97" x="1927" y="595"/><ellipse cx="1959.1" cy="611" fill="#ADD1B2" rx="11" ry="11" style="stroke: #A80036; stroke-width: 1.0;"/><path d="M1961.8656,606.875 Q1962.0219,606.6563 1962.2094,606.5469 Q1962.3969,606.4375 1962.6156,606.4375 Q1962.9906,606.4375 1963.225,606.7031 Q1963.4594,606.9531 1963.4594,607.5625 L1963.4594,609.0156 Q1963.4594,609.625 1963.225,609.8906 Q1962.9906,610.1563 1962.6156,610.1563 Q1962.2719,610.1563 1962.0688,609.9531 Q1961.8656,609.7656 1961.7563,609.25 Q1961.7094,608.8906 1961.5219,608.7031 Q1961.1938,608.3281 1960.5844,608.1094 Q1959.975,607.8906 1959.35,607.8906 Q1958.5844,607.8906 1957.9438,608.2188 Q1957.3188,608.5469 1956.8188,609.2969 Q1956.3344,610.0469 1956.3344,611.0781 L1956.3344,612.1719 Q1956.3344,613.4063 1957.225,614.2344 Q1958.1156,615.0469 1959.7094,615.0469 Q1960.6469,615.0469 1961.3031,614.7969 Q1961.6938,614.6406 1962.1156,614.2031 Q1962.3813,613.9375 1962.5219,613.8594 Q1962.6781,613.7813 1962.8813,613.7813 Q1963.2094,613.7813 1963.4594,614.0469 Q1963.725,614.2969 1963.725,614.6406 Q1963.725,614.9844 1963.3813,615.3906 Q1962.8813,615.9688 1962.0844,616.2969 Q1961.0063,616.75 1959.7094,616.75 Q1958.1938,616.75 1956.9906,616.125 Q1956.0063,615.625 1955.3188,614.5625 Q1954.6313,613.4844 1954.6313,612.2031 L1954.6313,611.0469 Q1954.6313,609.7188 1955.2406,608.5781 Q1955.8656,607.4219 1956.9594,606.8125 Q1958.0531,606.1875 1959.2875,606.1875 Q1960.0219,606.1875 1960.6625,606.3594 Q1961.3188,606.5156 1961.8656,606.875 Z "/><text fill="#000000" font-family="sans-serif" font-size="12" lengthAdjust="spacingAndGlyphs" textLength="27" x="1976.9" y="615.9102">User</text><line style="stroke: #A80036; stroke-width: 1.5;" x1="1928" x2="2023" y1="627" y2="627"/><text fill="#000000" font-family="sans-serif" font-size="11" lengthAdjust="spacingAndGlyphs" textLength="61" x="1933" y="642.4189">-String nome</text><text fill="#000000" font-family="sans-serif" font-size="11" lengthAdjust="spacingAndGlyphs" textLength="59" x="1933" y="656.2549">-String email</text><text fill="#000000" font-family="sans-serif" font-size="11" lengthAdjust="spacingAndGlyphs" textLength="85" x="1933" y="670.0908">-String password</text><!--MD5=[1f687b5315377fe49fca59b457947463]
class Freelancer--><rect fill="#FEFECE" filter="url(#f1fayxgcjmjuy1)" height="150.6875" id="Freelancer" style="stroke: #A80036; stroke-width: 1.5;" width="135" x="2493" y="253.5"/><ellipse cx="2527.8" cy="269.5" fill="#ADD1B2" rx="11" ry="11" style="stroke: #A80036; stroke-width: 1.0;"/><path d="M2530.5656,265.375 Q2530.7219,265.1563 2530.9094,265.0469 Q2531.0969,264.9375 2531.3156,264.9375 Q2531.6906,264.9375 2531.925,265.2031 Q2532.1594,265.4531 2532.1594,266.0625 L2532.1594,267.5156 Q2532.1594,268.125 2531.925,268.3906 Q2531.6906,268.6563 2531.3156,268.6563 Q2530.9719,268.6563 2530.7688,268.4531 Q2530.5656,268.2656 2530.4563,267.75 Q2530.4094,267.3906 2530.2219,267.2031 Q2529.8938,266.8281 2529.2844,266.6094 Q2528.675,266.3906 2528.05,266.3906 Q2527.2844,266.3906 2526.6438,266.7188 Q2526.0188,267.0469 2525.5188,267.7969 Q2525.0344,268.5469 2525.0344,269.5781 L2525.0344,270.6719 Q2525.0344,271.9063 2525.925,272.7344 Q2526.8156,273.5469 2528.4094,273.5469 Q2529.3469,273.5469 2530.0031,273.2969 Q2530.3938,273.1406 2530.8156,272.7031 Q2531.0813,272.4375 2531.2219,272.3594 Q2531.3781,272.2813 2531.5813,272.2813 Q2531.9094,272.2813 2532.1594,272.5469 Q2532.425,272.7969 2532.425,273.1406 Q2532.425,273.4844 2532.0813,273.8906 Q2531.5813,274.4688 2530.7844,274.7969 Q2529.7063,275.25 2528.4094,275.25 Q2526.8938,275.25 2525.6906,274.625 Q2524.7063,274.125 2524.0188,273.0625 Q2523.3313,271.9844 2523.3313,270.7031 L2523.3313,269.5469 Q2523.3313,268.2188 2523.9406,267.0781 Q2524.5656,265.9219 2525.6594,265.3125 Q2526.7531,264.6875 2527.9875,264.6875 Q2528.7219,264.6875 2529.3625,264.8594 Q2530.0188,265.0156 2530.5656,265.375 Z "/><text fill="#000000" font-family="sans-serif" font-size="12" lengthAdjust="spacingAndGlyphs" textLength="59" x="2546.2" y="274.4102">Freelancer</text><line style="stroke: #A80036; stroke-width: 1.5;" x1="2494" x2="2627" y1="285.5" y2="285.5"/><text fill="#000000" font-family="sans-serif" font-size="11" lengthAdjust="spacingAndGlyphs" textLength="43" x="2499" y="300.9189">-String id</text><text fill="#000000" font-family="sans-serif" font-size="11" lengthAdjust="spacingAndGlyphs" textLength="61" x="2499" y="314.7549">-String name</text><text fill="#000000" font-family="sans-serif" font-size="11" lengthAdjust="spacingAndGlyphs" textLength="114" x="2499" y="328.5908">-String levelOfExpertise</text><text fill="#000000" font-family="sans-serif" font-size="11" lengthAdjust="spacingAndGlyphs" textLength="59" x="2499" y="342.4268">-String email</text><text fill="#000000" font-family="sans-serif" font-size="11" lengthAdjust="spacingAndGlyphs" textLength="50" x="2499" y="356.2627">-String NIF</text><text fill="#000000" font-family="sans-serif" font-size="11" lengthAdjust="spacingAndGlyphs" textLength="123" x="2499" y="370.0986">-String bankAccountIBAN</text><text fill="#000000" font-family="sans-serif" font-size="11" lengthAdjust="spacingAndGlyphs" textLength="75" x="2499" y="383.9346">-String address</text><text fill="#000000" font-family="sans-serif" font-size="11" lengthAdjust="spacingAndGlyphs" textLength="72" x="2499" y="397.7705">-String country</text><!--MD5=[764fca796ce7f635542948d8fc39db5e]
class Payment--><rect fill="#FEFECE" filter="url(#f1fayxgcjmjuy1)" height="40" id="Payment" style="stroke: #A80036; stroke-width: 1.5;" width="80" x="1301.5" y="885"/><ellipse cx="1316.5" cy="901" fill="#ADD1B2" rx="11" ry="11" style="stroke: #A80036; stroke-width: 1.0;"/><path d="M1319.2656,896.875 Q1319.4219,896.6563 1319.6094,896.5469 Q1319.7969,896.4375 1320.0156,896.4375 Q1320.3906,896.4375 1320.625,896.7031 Q1320.8594,896.9531 1320.8594,897.5625 L1320.8594,899.0156 Q1320.8594,899.625 1320.625,899.8906 Q1320.3906,900.1563 1320.0156,900.1563 Q1319.6719,900.1563 1319.4688,899.9531 Q1319.2656,899.7656 1319.1563,899.25 Q1319.1094,898.8906 1318.9219,898.7031 Q1318.5938,898.3281 1317.9844,898.1094 Q1317.375,897.8906 1316.75,897.8906 Q1315.9844,897.8906 1315.3438,898.2188 Q1314.7188,898.5469 1314.2188,899.2969 Q1313.7344,900.0469 1313.7344,901.0781 L1313.7344,902.1719 Q1313.7344,903.4063 1314.625,904.2344 Q1315.5156,905.0469 1317.1094,905.0469 Q1318.0469,905.0469 1318.7031,904.7969 Q1319.0938,904.6406 1319.5156,904.2031 Q1319.7813,903.9375 1319.9219,903.8594 Q1320.0781,903.7813 1320.2813,903.7813 Q1320.6094,903.7813 1320.8594,904.0469 Q1321.125,904.2969 1321.125,904.6406 Q1321.125,904.9844 1320.7813,905.3906 Q1320.2813,905.9688 1319.4844,906.2969 Q1318.4063,906.75 1317.1094,906.75 Q1315.5938,906.75 1314.3906,906.125 Q1313.4063,905.625 1312.7188,904.5625 Q1312.0313,903.4844 1312.0313,902.2031 L1312.0313,901.0469 Q1312.0313,899.7188 1312.6406,898.5781 Q1313.2656,897.4219 1314.3594,896.8125 Q1315.4531,896.1875 1316.6875,896.1875 Q1317.4219,896.1875 1318.0625,896.3594 Q1318.7188,896.5156 1319.2656,896.875 Z "/><text fill="#000000" font-family="sans-serif" font-size="12" lengthAdjust="spacingAndGlyphs" textLength="48" x="1330.5" y="905.9102">Payment</text><line style="stroke: #A80036; stroke-width: 1.5;" x1="1302.5" x2="1380.5" y1="917" y2="917"/><!--MD5=[8806e557260fb3598decb516dc04693d]
class EmailAPI--><rect fill="#FEFECE" filter="url(#f1fayxgcjmjuy1)" height="40" id="EmailAPI" style="stroke: #A80036; stroke-width: 1.5;" width="82" x="1602" y="902"/><ellipse cx="1617" cy="918" fill="#ADD1B2" rx="11" ry="11" style="stroke: #A80036; stroke-width: 1.0;"/><path d="M1619.7656,913.875 Q1619.9219,913.6563 1620.1094,913.5469 Q1620.2969,913.4375 1620.5156,913.4375 Q1620.8906,913.4375 1621.125,913.7031 Q1621.3594,913.9531 1621.3594,914.5625 L1621.3594,916.0156 Q1621.3594,916.625 1621.125,916.8906 Q1620.8906,917.1563 1620.5156,917.1563 Q1620.1719,917.1563 1619.9688,916.9531 Q1619.7656,916.7656 1619.6563,916.25 Q1619.6094,915.8906 1619.4219,915.7031 Q1619.0938,915.3281 1618.4844,915.1094 Q1617.875,914.8906 1617.25,914.8906 Q1616.4844,914.8906 1615.8438,915.2188 Q1615.2188,915.5469 1614.7188,916.2969 Q1614.2344,917.0469 1614.2344,918.0781 L1614.2344,919.1719 Q1614.2344,920.4063 1615.125,921.2344 Q1616.0156,922.0469 1617.6094,922.0469 Q1618.5469,922.0469 1619.2031,921.7969 Q1619.5938,921.6406 1620.0156,921.2031 Q1620.2813,920.9375 1620.4219,920.8594 Q1620.5781,920.7813 1620.7813,920.7813 Q1621.1094,920.7813 1621.3594,921.0469 Q1621.625,921.2969 1621.625,921.6406 Q1621.625,921.9844 1621.2813,922.3906 Q1620.7813,922.9688 1619.9844,923.2969 Q1618.9063,923.75 1617.6094,923.75 Q1616.0938,923.75 1614.8906,923.125 Q1613.9063,922.625 1613.2188,921.5625 Q1612.5313,920.4844 1612.5313,919.2031 L1612.5313,918.0469 Q1612.5313,916.7188 1613.1406,915.5781 Q1613.7656,914.4219 1614.8594,913.8125 Q1615.9531,913.1875 1617.1875,913.1875 Q1617.9219,913.1875 1618.5625,913.3594 Q1619.2188,913.5156 1619.7656,913.875 Z "/><text fill="#000000" font-family="sans-serif" font-size="12" lengthAdjust="spacingAndGlyphs" textLength="50" x="1631" y="922.9102">EmailAPI</text><line style="stroke: #A80036; stroke-width: 1.5;" x1="1603" x2="1683" y1="934" y2="934"/><!--MD5=[b9b2b358c4596a7c3c612fa1a577c109]
class PaymentAPI--><rect fill="#FEFECE" filter="url(#f1fayxgcjmjuy1)" height="40" id="PaymentAPI" style="stroke: #A80036; stroke-width: 1.5;" width="98" x="1594" y="1102"/><ellipse cx="1609" cy="1118" fill="#ADD1B2" rx="11" ry="11" style="stroke: #A80036; stroke-width: 1.0;"/><path d="M1611.7656,1113.875 Q1611.9219,1113.6563 1612.1094,1113.5469 Q1612.2969,1113.4375 1612.5156,1113.4375 Q1612.8906,1113.4375 1613.125,1113.7031 Q1613.3594,1113.9531 1613.3594,1114.5625 L1613.3594,1116.0156 Q1613.3594,1116.625 1613.125,1116.8906 Q1612.8906,1117.1563 1612.5156,1117.1563 Q1612.1719,1117.1563 1611.9688,1116.9531 Q1611.7656,1116.7656 1611.6563,1116.25 Q1611.6094,1115.8906 1611.4219,1115.7031 Q1611.0938,1115.3281 1610.4844,1115.1094 Q1609.875,1114.8906 1609.25,1114.8906 Q1608.4844,1114.8906 1607.8438,1115.2188 Q1607.2188,1115.5469 1606.7188,1116.2969 Q1606.2344,1117.0469 1606.2344,1118.0781 L1606.2344,1119.1719 Q1606.2344,1120.4063 1607.125,1121.2344 Q1608.0156,1122.0469 1609.6094,1122.0469 Q1610.5469,1122.0469 1611.2031,1121.7969 Q1611.5938,1121.6406 1612.0156,1121.2031 Q1612.2813,1120.9375 1612.4219,1120.8594 Q1612.5781,1120.7813 1612.7813,1120.7813 Q1613.1094,1120.7813 1613.3594,1121.0469 Q1613.625,1121.2969 1613.625,1121.6406 Q1613.625,1121.9844 1613.2813,1122.3906 Q1612.7813,1122.9688 1611.9844,1123.2969 Q1610.9063,1123.75 1609.6094,1123.75 Q1608.0938,1123.75 1606.8906,1123.125 Q1605.9063,1122.625 1605.2188,1121.5625 Q1604.5313,1120.4844 1604.5313,1119.2031 L1604.5313,1118.0469 Q1604.5313,1116.7188 1605.1406,1115.5781 Q1605.7656,1114.4219 1606.8594,1113.8125 Q1607.9531,1113.1875 1609.1875,1113.1875 Q1609.9219,1113.1875 1610.5625,1113.3594 Q1611.2188,1113.5156 1611.7656,1113.875 Z "/><text fill="#000000" font-family="sans-serif" font-size="12" lengthAdjust="spacingAndGlyphs" textLength="66" x="1623" y="1122.9102">PaymentAPI</text><line style="stroke: #A80036; stroke-width: 1.5;" x1="1595" x2="1691" y1="1134" y2="1134"/><!--MD5=[b76730e11bf88a141099e30fd5a76626]
class MonetaryUnitConversionAPI--><rect fill="#FEFECE" filter="url(#f1fayxgcjmjuy1)" height="40" id="MonetaryUnitConversionAPI" style="stroke: #A80036; stroke-width: 1.5;" width="184" x="1551" y="815"/><ellipse cx="1566" cy="831" fill="#ADD1B2" rx="11" ry="11" style="stroke: #A80036; stroke-width: 1.0;"/><path d="M1568.7656,826.875 Q1568.9219,826.6563 1569.1094,826.5469 Q1569.2969,826.4375 1569.5156,826.4375 Q1569.8906,826.4375 1570.125,826.7031 Q1570.3594,826.9531 1570.3594,827.5625 L1570.3594,829.0156 Q1570.3594,829.625 1570.125,829.8906 Q1569.8906,830.1563 1569.5156,830.1563 Q1569.1719,830.1563 1568.9688,829.9531 Q1568.7656,829.7656 1568.6563,829.25 Q1568.6094,828.8906 1568.4219,828.7031 Q1568.0938,828.3281 1567.4844,828.1094 Q1566.875,827.8906 1566.25,827.8906 Q1565.4844,827.8906 1564.8438,828.2188 Q1564.2188,828.5469 1563.7188,829.2969 Q1563.2344,830.0469 1563.2344,831.0781 L1563.2344,832.1719 Q1563.2344,833.4063 1564.125,834.2344 Q1565.0156,835.0469 1566.6094,835.0469 Q1567.5469,835.0469 1568.2031,834.7969 Q1568.5938,834.6406 1569.0156,834.2031 Q1569.2813,833.9375 1569.4219,833.8594 Q1569.5781,833.7813 1569.7813,833.7813 Q1570.1094,833.7813 1570.3594,834.0469 Q1570.625,834.2969 1570.625,834.6406 Q1570.625,834.9844 1570.2813,835.3906 Q1569.7813,835.9688 1568.9844,836.2969 Q1567.9063,836.75 1566.6094,836.75 Q1565.0938,836.75 1563.8906,836.125 Q1562.9063,835.625 1562.2188,834.5625 Q1561.5313,833.4844 1561.5313,832.2031 L1561.5313,831.0469 Q1561.5313,829.7188 1562.1406,828.5781 Q1562.7656,827.4219 1563.8594,826.8125 Q1564.9531,826.1875 1566.1875,826.1875 Q1566.9219,826.1875 1567.5625,826.3594 Q1568.2188,826.5156 1568.7656,826.875 Z "/><text fill="#000000" font-family="sans-serif" font-size="12" lengthAdjust="spacingAndGlyphs" textLength="152" x="1580" y="835.9102">MonetaryUnitConversionAPI</text><line style="stroke: #A80036; stroke-width: 1.5;" x1="1552" x2="1734" y1="847" y2="847"/><!--MD5=[17fb0793c1413726511ab9de8d766c0c]
link Colaborator to Transaction--><path d="M1042.51,291.6 C1057.85,283.51 1075.24,275.42 1092,270 C1271.34,211.97 1497.52,197.66 1594.41,194.15 " fill="none" id="Colaborator-Transaction" style="stroke: #A80036; stroke-width: 1.0;"/><text fill="#000000" font-family="sans-serif" font-size="13" lengthAdjust="spacingAndGlyphs" textLength="43" x="1313.5" y="201.4951">creates</text><polygon fill="#000000" points="1359.5,194.6758,1365.5,197.6758,1359.5,200.6758,1359.5,194.6758" style="stroke: #000000; stroke-width: 1.0;"/><text fill="#000000" font-family="sans-serif" font-size="13" lengthAdjust="spacingAndGlyphs" textLength="7" x="1050.474" y="302.036">1</text><text fill="#000000" font-family="sans-serif" font-size="13" lengthAdjust="spacingAndGlyphs" textLength="5" x="1581.5868" y="209.0731">*</text><!--MD5=[43bc7443460eb6e15759d9c6a71318a8]
link Colaborator to Task--><path d="M1042.72,320.34 C1232.36,321.69 1934.17,326.67 2177.66,328.4 " fill="none" id="Colaborator-Task" style="stroke: #A80036; stroke-width: 1.0;"/><text fill="#000000" font-family="sans-serif" font-size="13" lengthAdjust="spacingAndGlyphs" textLength="43" x="1615" y="320.4951">creates</text><polygon fill="#000000" points="1661,313.6758,1667,316.6758,1661,319.6758,1661,313.6758" style="stroke: #000000; stroke-width: 1.0;"/><text fill="#000000" font-family="sans-serif" font-size="13" lengthAdjust="spacingAndGlyphs" textLength="7" x="1050.3898" y="316.772">1</text><text fill="#000000" font-family="sans-serif" font-size="13" lengthAdjust="spacingAndGlyphs" textLength="5" x="2164.8813" y="342.5618">*</text><!--MD5=[7be2b93dc6b99f50a07263979bce1c9c]
link Colaborator to Freelancer--><path d="M1017.78,278.81 C1065.92,197.9 1186.33,26 1340.5,26 C1340.5,26 1340.5,26 2263.5,26 C2390.36,26 2480.65,163.58 2526.06,253.32 " fill="none" id="Colaborator-Freelancer" style="stroke: #A80036; stroke-width: 1.0;"/><text fill="#000000" font-family="sans-serif" font-size="13" lengthAdjust="spacingAndGlyphs" textLength="43" x="1784.5" y="22.4951">creates</text><polygon fill="#000000" points="1830.5,15.6758,1836.5,18.6758,1830.5,21.6758,1830.5,15.6758" style="stroke: #000000; stroke-width: 1.0;"/><text fill="#000000" font-family="sans-serif" font-size="13" lengthAdjust="spacingAndGlyphs" textLength="7" x="1014.1389" y="268.2279">1</text><text fill="#000000" font-family="sans-serif" font-size="13" lengthAdjust="spacingAndGlyphs" textLength="5" x="2517.4237" y="242.6106">*</text><!--MD5=[dfec053834ca4b8aaedc22769d2f526b]
link Colaborator to HistoricalTransactionFile--><path d="M1042.68,314.89 C1097.84,308.99 1189.68,299.15 1256.82,291.96 " fill="none" id="Colaborator-HistoricalTransactionFile" style="stroke: #A80036; stroke-width: 1.0;"/><text fill="#000000" font-family="sans-serif" font-size="13" lengthAdjust="spacingAndGlyphs" textLength="31" x="1137.5" y="292.4951">loads</text><polygon fill="#000000" points="1171.5,285.6758,1177.5,288.6758,1171.5,291.6758,1171.5,285.6758" style="stroke: #000000; stroke-width: 1.0;"/><text fill="#000000" font-family="sans-serif" font-size="13" lengthAdjust="spacingAndGlyphs" textLength="7" x="1050.3439" y="328.8715">1</text><text fill="#000000" font-family="sans-serif" font-size="13" lengthAdjust="spacingAndGlyphs" textLength="5" x="1244.0555" y="306.9813">*</text><!--MD5=[02dd8e0703276896f1e42edb558b3819]
link Colaborator to User--><path d="M1042.55,354.954 C1057.76,364.857 1075.05,374.869 1092,382 C1414.96,517.876 1538.22,421.342 1860,560 C1883.34,570.055 1907.07,584.898 1926.84,598.804 " fill="none" id="Colaborator-User" style="stroke: #A80036; stroke-width: 1.0;"/><text fill="#000000" font-family="sans-serif" font-size="13" lengthAdjust="spacingAndGlyphs" textLength="43" x="1460.5" y="464.4951">acts as</text><polygon fill="#000000" points="1506.5,457.6758,1512.5,460.6758,1506.5,463.6758,1506.5,457.6758" style="stroke: #000000; stroke-width: 1.0;"/><text fill="#000000" font-family="sans-serif" font-size="13" lengthAdjust="spacingAndGlyphs" textLength="18" x="1050.643" y="374.5488">0,1</text><text fill="#000000" font-family="sans-serif" font-size="13" lengthAdjust="spacingAndGlyphs" textLength="7" x="1911.853" y="607.8931">1</text><!--MD5=[7243fd82d00bd95e91d7be6a6f325055]
link Manager to PaymentScheduler--><path d="M726.974,718.054 C738.272,750.407 758.887,793.8 793,817 C831.652,843.287 884.381,849.228 925.993,848.895 " fill="none" id="Manager-PaymentScheduler" style="stroke: #A80036; stroke-width: 1.0;"/><text fill="#000000" font-family="sans-serif" font-size="13" lengthAdjust="spacingAndGlyphs" textLength="41" x="817.5" y="813.4951">defines</text><polygon fill="#000000" points="861.5,806.6758,867.5,809.6758,861.5,812.6758,861.5,806.6758" style="stroke: #000000; stroke-width: 1.0;"/><text fill="#000000" font-family="sans-serif" font-size="13" lengthAdjust="spacingAndGlyphs" textLength="7" x="721.3481" y="739.1251">1</text><text fill="#000000" font-family="sans-serif" font-size="13" lengthAdjust="spacingAndGlyphs" textLength="18" x="900.0517" y="846.2081">0,1</text><!--MD5=[6eb6e197a729f6ec2412743e0bdbca1d]
link Manager to User--><path d="M763.118,679.207 C818.384,681.575 912.27,685 993,685 C993,685 993,685 1644,685 C1745.65,685 1863.01,662.037 1926.94,647.55 " fill="none" id="Manager-User" style="stroke: #A80036; stroke-width: 1.0;"/><text fill="#000000" font-family="sans-serif" font-size="13" lengthAdjust="spacingAndGlyphs" textLength="43" x="1313.5" y="681.4951">acts as</text><polygon fill="#000000" points="1359.5,674.6758,1365.5,677.6758,1359.5,680.6758,1359.5,674.6758" style="stroke: #000000; stroke-width: 1.0;"/><text fill="#000000" font-family="sans-serif" font-size="13" lengthAdjust="spacingAndGlyphs" textLength="18" x="770.8604" y="694.1304">0,1</text><text fill="#000000" font-family="sans-serif" font-size="13" lengthAdjust="spacingAndGlyphs" textLength="7" x="1911.9683" y="664.1033">1</text><!--MD5=[c4629210b2ba88e64afbee18491f07dd]
link Payment to Transaction--><path d="M1356.56,884.875 C1391.11,834.315 1480.28,696.779 1521,568 C1553.14,466.346 1513.86,429.935 1551,330 C1568.01,284.23 1602.9,238.48 1624.19,213.14 " fill="none" id="Payment-Transaction" style="stroke: #A80036; stroke-width: 1.0;"/><polygon fill="#000000" points="1477.5,561,1480.5,555,1483.5,561,1477.5,561" style="stroke: #000000; stroke-width: 1.0;"/><text fill="#000000" font-family="sans-serif" font-size="13" lengthAdjust="spacingAndGlyphs" textLength="50" x="1457" y="577.4951">registers</text><text fill="#000000" font-family="sans-serif" font-size="13" lengthAdjust="spacingAndGlyphs" textLength="7" x="1352.9557" y="874.16">1</text><text fill="#000000" font-family="sans-serif" font-size="13" lengthAdjust="spacingAndGlyphs" textLength="23" x="1592.6653" y="234.5989">1,...</text><!--MD5=[ac4dd7fdeb0fa08e65a2b7971307989b]
link Payment to EmailAPI--><path d="M1381.67,913.64 C1403.44,918.002 1431.08,922.822 1456,925 C1506.03,929.374 1563.91,927.328 1601.64,925.046 " fill="none" id="Payment-EmailAPI" style="stroke: #A80036; stroke-width: 1.0;"/><text fill="#000000" font-family="sans-serif" font-size="13" lengthAdjust="spacingAndGlyphs" textLength="28" x="1468" y="921.4951">uses</text><polygon fill="#000000" points="1499,914.6758,1505,917.6758,1499,920.6758,1499,914.6758" style="stroke: #000000; stroke-width: 1.0;"/><text fill="#000000" font-family="sans-serif" font-size="13" lengthAdjust="spacingAndGlyphs" textLength="5" x="1389.5373" y="930.2355">*</text><text fill="#000000" font-family="sans-serif" font-size="13" lengthAdjust="spacingAndGlyphs" textLength="7" x="1586.9297" y="940.4699">1</text><!--MD5=[4e8d4ca70e30f9b9e34071c7768f0551]
link Payment to PaymentAPI--><path d="M1370.14,925.026 C1427.05,966.26 1556.77,1060.246 1613.99,1101.707 " fill="none" id="Payment-PaymentAPI" style="stroke: #A80036; stroke-width: 1.0;"/><text fill="#000000" font-family="sans-serif" font-size="13" lengthAdjust="spacingAndGlyphs" textLength="28" x="1468" y="983.4951">uses</text><polygon fill="#000000" points="1499,976.6758,1505,979.6758,1499,982.6758,1499,976.6758" style="stroke: #000000; stroke-width: 1.0;"/><text fill="#000000" font-family="sans-serif" font-size="13" lengthAdjust="spacingAndGlyphs" textLength="5" x="1372.4919" y="946.4529">*</text><text fill="#000000" font-family="sans-serif" font-size="13" lengthAdjust="spacingAndGlyphs" textLength="7" x="1597.8466" y="1091.2941">1</text><!--MD5=[a5bfdb67ecdee50c8f593adbd3c04571]
link Payment to MonetaryUnitConversionAPI--><path d="M1381.62,897.243 C1417.87,889.921 1473.23,878.394 1521,867 C1536.43,863.32 1552.9,859.136 1568.56,855.036 " fill="none" id="Payment-MonetaryUnitConversionAPI" style="stroke: #A80036; stroke-width: 1.0;"/><text fill="#000000" font-family="sans-serif" font-size="13" lengthAdjust="spacingAndGlyphs" textLength="28" x="1468" y="863.4951">uses</text><polygon fill="#000000" points="1499,856.6758,1505,859.6758,1499,862.6758,1499,856.6758" style="stroke: #000000; stroke-width: 1.0;"/><text fill="#000000" font-family="sans-serif" font-size="13" lengthAdjust="spacingAndGlyphs" textLength="5" x="1389.4781" y="910.8153">*</text><text fill="#000000" font-family="sans-serif" font-size="13" lengthAdjust="spacingAndGlyphs" textLength="7" x="1539.6394" y="876.4657">1</text><!--MD5=[8e4873cec2cb3febaaa9495c716fc885]
link Transaction to Task--><path d="M1691.57,209.57 C1740.75,226.21 1820,251.66 1890,268 C1987.86,290.84 2102.17,308.25 2177.88,318.51 " fill="none" id="Transaction-Task" style="stroke: #A80036; stroke-width: 1.0;"/><text fill="#000000" font-family="sans-serif" font-size="13" lengthAdjust="spacingAndGlyphs" textLength="55" x="1941.5" y="264.4951">relative to</text><polygon fill="#000000" points="1999.5,257.6758,2005.5,260.6758,1999.5,263.6758,1999.5,257.6758" style="stroke: #000000; stroke-width: 1.0;"/><text fill="#000000" font-family="sans-serif" font-size="13" lengthAdjust="spacingAndGlyphs" textLength="7" x="1699.5432" y="226.8543">1</text><text fill="#000000" font-family="sans-serif" font-size="13" lengthAdjust="spacingAndGlyphs" textLength="7" x="2163.0318" y="314.366">1</text><!--MD5=[9aa0fa191c99edeef0ce6e9ae1d37765]
link Transaction to TaskExecutionDetails--><path d="M1691.7,192.71 C1743.37,192.4 1826.81,191.89 1889.69,191.51 " fill="none" id="Transaction-TaskExecutionDetails" style="stroke: #A80036; stroke-width: 1.0;"/><text fill="#000000" font-family="sans-serif" font-size="13" lengthAdjust="spacingAndGlyphs" textLength="80" x="1766" y="187.4951">executed with</text><polygon fill="#000000" points="1849,180.6758,1855,183.6758,1849,186.6758,1849,180.6758" style="stroke: #000000; stroke-width: 1.0;"/><text fill="#000000" font-family="sans-serif" font-size="13" lengthAdjust="spacingAndGlyphs" textLength="7" x="1699.3669" y="207.3633">1</text><text fill="#000000" font-family="sans-serif" font-size="13" lengthAdjust="spacingAndGlyphs" textLength="7" x="1875.0149" y="205.7727">1</text><!--MD5=[542f32193441b56ea302115ed1249c3b]
link Transaction to Freelancer--><path d="M1691.76,175.9 C1769.49,150.36 1928.06,107.8 2061,133 C2222.95,163.69 2399.61,245.85 2492.98,293.48 " fill="none" id="Transaction-Freelancer" style="stroke: #A80036; stroke-width: 1.0;"/><text fill="#000000" font-family="sans-serif" font-size="13" lengthAdjust="spacingAndGlyphs" textLength="11" x="2107.5" y="135.4951">to</text><polygon fill="#000000" points="2121.5,128.6758,2127.5,131.6758,2121.5,134.6758,2121.5,128.6758" style="stroke: #000000; stroke-width: 1.0;"/><text fill="#000000" font-family="sans-serif" font-size="13" lengthAdjust="spacingAndGlyphs" textLength="5" x="1699.6092" y="188.0286">*</text><text fill="#000000" font-family="sans-serif" font-size="13" lengthAdjust="spacingAndGlyphs" textLength="7" x="2478.2122" y="304.0014">1</text><!--MD5=[9155e95983ae2a088b11740d001758c9]
link TaskExecutionDetails to Task--><path d="M2061.09,221.15 C2089.21,232.06 2120.37,245.14 2148,259 C2157.83,263.93 2167.92,269.44 2177.83,275.15 " fill="none" id="TaskExecutionDetails-Task" style="stroke: #A80036; stroke-width: 1.0;"/><text fill="#000000" font-family="sans-serif" font-size="13" lengthAdjust="spacingAndGlyphs" textLength="40" x="2093" y="229.4951">refer to</text><polygon fill="#000000" points="2136,222.6758,2142,225.6758,2136,228.6758,2136,222.6758" style="stroke: #000000; stroke-width: 1.0;"/><text fill="#000000" font-family="sans-serif" font-size="13" lengthAdjust="spacingAndGlyphs" textLength="7" x="2069.0246" y="238.0804">1</text><text fill="#000000" font-family="sans-serif" font-size="13" lengthAdjust="spacingAndGlyphs" textLength="7" x="2162.9774" y="284.5693">1</text><!--MD5=[80bfe53c9a81718400b24a13b8f52143]
link HistoricalTransactionFile to Transaction--><path d="M1426.07,263.24 C1456.17,255.65 1490.28,246.52 1521,237 C1545.45,229.42 1572.23,219.82 1594.37,211.52 " fill="none" id="HistoricalTransactionFile-Transaction" style="stroke: #A80036; stroke-width: 1.0;"/><text fill="#000000" font-family="sans-serif" font-size="13" lengthAdjust="spacingAndGlyphs" textLength="43" x="1460.5" y="233.4951">records</text><polygon fill="#000000" points="1506.5,226.6758,1512.5,229.6758,1506.5,232.6758,1506.5,226.6758" style="stroke: #000000; stroke-width: 1.0;"/><text fill="#000000" font-family="sans-serif" font-size="13" lengthAdjust="spacingAndGlyphs" textLength="7" x="1433.9137" y="275.7034">1</text><text fill="#000000" font-family="sans-serif" font-size="13" lengthAdjust="spacingAndGlyphs" textLength="5" x="1581.5407" y="229.1029">*</text><!--MD5=[f8679721e8e5159e33912074b64b525d]
link PaymentScheduler to Payment--><path d="M1034.24,877.013 C1050.9,889.299 1071.25,901.69 1092,908 C1163.21,929.652 1251.28,920.762 1301.16,912.66 " fill="none" id="PaymentScheduler-Payment" style="stroke: #A80036; stroke-width: 1.0;"/><text fill="#000000" font-family="sans-serif" font-size="13" lengthAdjust="spacingAndGlyphs" textLength="120" x="1093" y="904.4951">makes automatically</text><polygon fill="#000000" points="1216,897.6758,1222,900.6758,1216,903.6758,1216,897.6758" style="stroke: #000000; stroke-width: 1.0;"/><text fill="#000000" font-family="sans-serif" font-size="13" lengthAdjust="spacingAndGlyphs" textLength="7" x="1033.7843" y="898.0522">1</text><text fill="#000000" font-family="sans-serif" font-size="13" lengthAdjust="spacingAndGlyphs" textLength="5" x="1288.5291" y="928.9759">*</text><!--MD5=[656d67bb8fa389b55c147beff5b13611]
link Organization to Colaborator--><path d="M541.419,482.083 C638.29,447.314 850.565,371.123 945.488,337.053 " fill="none" id="Organization-Colaborator" style="stroke: #A80036; stroke-width: 1.0;"/><text fill="#000000" font-family="sans-serif" font-size="13" lengthAdjust="spacingAndGlyphs" textLength="21" x="697.5" y="400.4951">has</text><polygon fill="#000000" points="721.5,393.6758,727.5,396.6758,721.5,399.6758,721.5,393.6758" style="stroke: #000000; stroke-width: 1.0;"/><text fill="#000000" font-family="sans-serif" font-size="13" lengthAdjust="spacingAndGlyphs" textLength="7" x="549.0717" y="494.2198">1</text><text fill="#000000" font-family="sans-serif" font-size="13" lengthAdjust="spacingAndGlyphs" textLength="23" x="914.4239" y="353.9713">1,...</text><!--MD5=[bc039f41cf0b27fadee5cae63fc6e1fe]
link Organization to Manager--><path d="M525.701,527.268 C563.162,557.136 623.513,605.254 665.658,638.856 " fill="none" id="Organization-Manager" style="stroke: #A80036; stroke-width: 1.0;"/><text fill="#000000" font-family="sans-serif" font-size="13" lengthAdjust="spacingAndGlyphs" textLength="21" x="586.5" y="563.4951">has</text><polygon fill="#000000" points="610.5,556.6758,616.5,559.6758,610.5,562.6758,610.5,556.6758" style="stroke: #000000; stroke-width: 1.0;"/><text fill="#000000" font-family="sans-serif" font-size="13" lengthAdjust="spacingAndGlyphs" textLength="7" x="525.6356" y="548.5344">1</text><text fill="#000000" font-family="sans-serif" font-size="13" lengthAdjust="spacingAndGlyphs" textLength="7" x="650.9703" y="647.9857">1</text><!--MD5=[5f4f57afaa4ed75c0a27618a4620afc1]
link Organization to PaymentScheduler--><path d="M495.178,527.084 C504.665,592.976 531.981,759.028 571,797 C665.144,888.619 832.779,874.953 925.92,858.201 " fill="none" id="Organization-PaymentScheduler" style="stroke: #A80036; stroke-width: 1.0;"/><text fill="#000000" font-family="sans-serif" font-size="13" lengthAdjust="spacingAndGlyphs" textLength="28" x="694" y="848.4951">uses</text><polygon fill="#000000" points="725,841.6758,731,844.6758,725,847.6758,725,841.6758" style="stroke: #000000; stroke-width: 1.0;"/><text fill="#000000" font-family="sans-serif" font-size="13" lengthAdjust="spacingAndGlyphs" textLength="7" x="488.4357" y="548.3101">1</text><text fill="#000000" font-family="sans-serif" font-size="13" lengthAdjust="spacingAndGlyphs" textLength="7" x="911.0909" y="874.2709">1</text><!--MD5=[d7637ac3eb48d4f2830e10106a654da0]
link Organization to Payment--><path d="M502.394,527.148 C524.533,578.307 580.087,688.139 666,736 C821.281,822.506 890.359,745.794 1062,792 C1150.43,815.804 1248.5,860.078 1301.44,885.568 " fill="none" id="Organization-Payment" style="stroke: #A80036; stroke-width: 1.0;"/><text fill="#000000" font-family="sans-serif" font-size="13" lengthAdjust="spacingAndGlyphs" textLength="88" x="794" y="773.4951">responsable by</text><polygon fill="#000000" points="885,766.6758,891,769.6758,885,772.6758,885,766.6758" style="stroke: #000000; stroke-width: 1.0;"/><text fill="#000000" font-family="sans-serif" font-size="13" lengthAdjust="spacingAndGlyphs" textLength="7" x="497.2302" y="548.3881">1</text><text fill="#000000" font-family="sans-serif" font-size="13" lengthAdjust="spacingAndGlyphs" textLength="5" x="1288.593" y="896.9878">*</text><!--MD5=[4078351e3988aa35b1504a42837f2ab1]
link Organization to Task--><path d="M541.315,499.295 C586.307,498.719 654.336,498 713.5,498 C713.5,498 713.5,498 1160.5,498 C1360.65,498 1956.98,387.504 2177.93,345.204 " fill="none" id="Organization-Task" style="stroke: #A80036; stroke-width: 1.0;"/><text fill="#000000" font-family="sans-serif" font-size="13" lengthAdjust="spacingAndGlyphs" textLength="55" x="1307.5" y="469.4951">publishes</text><polygon fill="#000000" points="1365.5,462.6758,1371.5,465.6758,1365.5,468.6758,1365.5,462.6758" style="stroke: #000000; stroke-width: 1.0;"/><text fill="#000000" font-family="sans-serif" font-size="13" lengthAdjust="spacingAndGlyphs" textLength="7" x="548.953" y="513.8522">1</text><text fill="#000000" font-family="sans-serif" font-size="13" lengthAdjust="spacingAndGlyphs" textLength="5" x="2164.9032" y="360.9383">*</text><!--MD5=[42a7202f7cf6325e6697bc6383dceeb9]
link Organization to Transaction--><path d="M494.314,472.815 C504.928,386.143 550.633,122 713.5,122 C713.5,122 713.5,122 1342.5,122 C1433.48,122 1535.91,153.4 1594.32,174.44 " fill="none" id="Organization-Transaction" style="stroke: #A80036; stroke-width: 1.0;"/><text fill="#000000" font-family="sans-serif" font-size="13" lengthAdjust="spacingAndGlyphs" textLength="63" x="956" y="118.4951">has unpaid</text><polygon fill="#000000" points="1022,111.6758,1028,114.6758,1022,117.6758,1022,111.6758" style="stroke: #000000; stroke-width: 1.0;"/><text fill="#000000" font-family="sans-serif" font-size="13" lengthAdjust="spacingAndGlyphs" textLength="7" x="487.3866" y="462.2332">1</text><text fill="#000000" font-family="sans-serif" font-size="13" lengthAdjust="spacingAndGlyphs" textLength="5" x="1581.4831" y="186.345">*</text><!--MD5=[8853e9d83a8841c20c4ef075af762602]
link Task to Freelancer--><path d="M2347.13,329 C2393.29,329 2449.83,329 2492.96,329 " fill="none" id="Task-Freelancer" style="stroke: #A80036; stroke-width: 1.0;"/><text fill="#000000" font-family="sans-serif" font-size="13" lengthAdjust="spacingAndGlyphs" textLength="71" x="2378" y="325.4951">executed by</text><polygon fill="#000000" points="2452,318.6758,2458,321.6758,2452,324.6758,2452,318.6758" style="stroke: #000000; stroke-width: 1.0;"/><text fill="#000000" font-family="sans-serif" font-size="13" lengthAdjust="spacingAndGlyphs" textLength="5" x="2354.89" y="343.2153">*</text><text fill="#000000" font-family="sans-serif" font-size="13" lengthAdjust="spacingAndGlyphs" textLength="22" x="2462.8606" y="343.3544">0, 1</text><!--MD5=[939acada67c666032ddf52a0068bc128]
link App to MonetaryUnitConversionAPI--><path d="M47.8553,1033.801 C74.6793,998.664 136.104,930 206.5,930 C206.5,930 206.5,930 845.5,930 C942.971,930 968.449,922.367 1062,895 C1075.95,890.92 1077.94,885.667 1092,882 C1249.35,840.966 1293.88,857.591 1456,845 C1486.79,842.609 1520.49,840.61 1550.65,839.044 " fill="none" id="App-MonetaryUnitConversionAPI" style="stroke: #A80036; stroke-width: 1.0;"/><text fill="#000000" font-family="sans-serif" font-size="13" lengthAdjust="spacingAndGlyphs" textLength="50" x="683" y="926.4951">supports</text><polygon fill="#000000" points="736,919.6758,742,922.6758,736,925.6758,736,919.6758" style="stroke: #000000; stroke-width: 1.0;"/><text fill="#000000" font-family="sans-serif" font-size="13" lengthAdjust="spacingAndGlyphs" textLength="7" x="53.394" y="1023.0643">1</text><text fill="#000000" font-family="sans-serif" font-size="13" lengthAdjust="spacingAndGlyphs" textLength="7" x="1536.012" y="853.5129">1</text><!--MD5=[1370966fb1e3885ea6828d35f10d9d48]
link App to Organization--><path d="M35.3772,1033.71 C43.8187,946.948 81.1136,608.317 155,537 C231.09,463.556 366.798,475.47 439.784,488.755 " fill="none" id="App-Organization" style="stroke: #A80036; stroke-width: 1.0;"/><polygon fill="#000000" points="196.5,478,199.5,472,202.5,478,196.5,478" style="stroke: #000000; stroke-width: 1.0;"/><text fill="#000000" font-family="sans-serif" font-size="13" lengthAdjust="spacingAndGlyphs" textLength="21" x="190.5" y="494.4951">has</text><text fill="#000000" font-family="sans-serif" font-size="13" lengthAdjust="spacingAndGlyphs" textLength="7" x="28.202" y="1023.298">1</text><text fill="#000000" font-family="sans-serif" font-size="13" lengthAdjust="spacingAndGlyphs" textLength="5" x="426.9679" y="501.8114">*</text><!--MD5=[1cb21011969cc62c73f846209be643c8]
link App to EmailAPI--><path d="M59.2559,1062.562 C92.7698,1072.924 153.334,1089 206.5,1089 C206.5,1089 206.5,1089 1342.5,1089 C1424.77,1089 1449.62,1080.904 1521,1040 C1565.55,1014.469 1605.74,968.702 1626.71,942.296 " fill="none" id="App-EmailAPI" style="stroke: #A80036; stroke-width: 1.0;"/><text fill="#000000" font-family="sans-serif" font-size="13" lengthAdjust="spacingAndGlyphs" textLength="50" x="683" y="1085.4951">supports</text><polygon fill="#000000" points="736,1078.6758,742,1081.6758,736,1084.6758,736,1078.6758" style="stroke: #000000; stroke-width: 1.0;"/><text fill="#000000" font-family="sans-serif" font-size="13" lengthAdjust="spacingAndGlyphs" textLength="7" x="67.009" y="1080.3462">1</text><text fill="#000000" font-family="sans-serif" font-size="13" lengthAdjust="spacingAndGlyphs" textLength="7" x="1614.3914" y="963.4429">1</text><!--MD5=[c476b523f9294f20b13319074aa597a2]
link App to PaymentAPI--><path d="M40.3477,1074.031 C58.7039,1123.597 113.989,1248 206.5,1248 C206.5,1248 206.5,1248 1342.5,1248 C1450.24,1248 1563.93,1177.861 1614.72,1142.244 " fill="none" id="App-PaymentAPI" style="stroke: #A80036; stroke-width: 1.0;"/><text fill="#000000" font-family="sans-serif" font-size="13" lengthAdjust="spacingAndGlyphs" textLength="50" x="683" y="1244.4951">supports</text><polygon fill="#000000" points="736,1237.6758,742,1240.6758,736,1243.6758,736,1237.6758" style="stroke: #000000; stroke-width: 1.0;"/><text fill="#000000" font-family="sans-serif" font-size="13" lengthAdjust="spacingAndGlyphs" textLength="7" x="34.5705" y="1095.4593">1</text><text fill="#000000" font-family="sans-serif" font-size="13" lengthAdjust="spacingAndGlyphs" textLength="7" x="1599.1791" y="1163.3769">1</text><!--MD5=[96d7ba993ba442b366771602ebe86063]
link App to Payment--><path d="M59.237,1045.193 C92.7308,1034.536 153.273,1018 206.5,1018 C206.5,1018 206.5,1018 995,1018 C1113.01,1018 1242.97,957.705 1304.45,925.202 " fill="none" id="App-Payment" style="stroke: #A80036; stroke-width: 1.0;"/><text fill="#000000" font-family="sans-serif" font-size="13" lengthAdjust="spacingAndGlyphs" textLength="50" x="572" y="1014.4951">registers</text><polygon fill="#000000" points="625,1007.6758,631,1010.6758,625,1013.6758,625,1007.6758" style="stroke: #000000; stroke-width: 1.0;"/><text fill="#000000" font-family="sans-serif" font-size="13" lengthAdjust="spacingAndGlyphs" textLength="7" x="66.9852" y="1058.5264">1</text><text fill="#000000" font-family="sans-serif" font-size="13" lengthAdjust="spacingAndGlyphs" textLength="5" x="1295.1647" y="946.3236">*</text><!--MD5=[66e1bf42337190a3177776b035b1a873]
link App to Administrator--><path d="M40.9826,1033.598 C51.5897,1004.719 71.6407,950.277 89,904 C124.982,808.079 167.912,695.694 190.607,636.439 " fill="none" id="App-Administrator" style="stroke: #A80036; stroke-width: 1.0;"/><polygon fill="#000000" points="96,803,99,797,102,803,96,803" style="stroke: #000000; stroke-width: 1.0;"/><text fill="#000000" font-family="sans-serif" font-size="13" lengthAdjust="spacingAndGlyphs" textLength="21" x="90" y="819.4951">has</text><text fill="#000000" font-family="sans-serif" font-size="13" lengthAdjust="spacingAndGlyphs" textLength="7" x="44.3527" y="1023.1545">1</text><text fill="#000000" font-family="sans-serif" font-size="13" lengthAdjust="spacingAndGlyphs" textLength="5" x="182.8799" y="656.9458">*</text><!--MD5=[d88947b97cc296deaa09f9756953ae3a]
link App to Freelancer--><path d="M36.0164,1074.281 C45.2776,1138.941 83.5849,1336 206.5,1336 C206.5,1336 206.5,1336 2263.5,1336 C2457.57,1336 2533.61,638.878 2553.68,404.689 " fill="none" id="App-Freelancer" style="stroke: #A80036; stroke-width: 1.0;"/><text fill="#000000" font-family="sans-serif" font-size="13" lengthAdjust="spacingAndGlyphs" textLength="21" x="1142.5" y="1332.4951">has</text><polygon fill="#000000" points="1166.5,1325.6758,1172.5,1328.6758,1166.5,1331.6758,1166.5,1325.6758" style="stroke: #000000; stroke-width: 1.0;"/><text fill="#000000" font-family="sans-serif" font-size="13" lengthAdjust="spacingAndGlyphs" textLength="7" x="29.0208" y="1095.4239">1</text><text fill="#000000" font-family="sans-serif" font-size="13" lengthAdjust="spacingAndGlyphs" textLength="5" x="2547.8499" y="425.6672">*</text><!--MD5=[63a18bfb0c55f564ea81086f541b4ad2]
link App to EmailScheduler--><path d="M41.9494,1074.079 C50.8327,1092.553 66.6414,1119.122 89,1133 C149.92,1170.814 233.907,1177.291 289.756,1176.646 " fill="none" id="App-EmailScheduler" style="stroke: #A80036; stroke-width: 1.0;"/><text fill="#000000" font-family="sans-serif" font-size="13" lengthAdjust="spacingAndGlyphs" textLength="21" x="90" y="1129.4951">has</text><polygon fill="#000000" points="114,1122.6758,120,1125.6758,114,1128.6758,114,1122.6758" style="stroke: #000000; stroke-width: 1.0;"/><text fill="#000000" font-family="sans-serif" font-size="13" lengthAdjust="spacingAndGlyphs" textLength="7" x="45.5914" y="1095.5208">1</text><text fill="#000000" font-family="sans-serif" font-size="13" lengthAdjust="spacingAndGlyphs" textLength="7" x="274.9872" y="1191.5819">1</text><!--MD5=[62b22ab9dd7e0fc0219b5bb8924f5993]
link EmailScheduler to EmailAPI--><path d="M410.196,1174.472 C461.158,1175.613 536.669,1177 602.5,1177 C602.5,1177 602.5,1177 1342.5,1177 C1426.48,1177 1455.31,1167.32 1521,1115 C1551.94,1090.363 1608.39,986.423 1631.6,942.129 " fill="none" id="EmailScheduler-EmailAPI" style="stroke: #A80036; stroke-width: 1.0;"/><text fill="#000000" font-family="sans-serif" font-size="13" lengthAdjust="spacingAndGlyphs" textLength="28" x="824" y="1173.4951">uses</text><polygon fill="#000000" points="855,1166.6758,861,1169.6758,855,1172.6758,855,1166.6758" style="stroke: #000000; stroke-width: 1.0;"/><text fill="#000000" font-family="sans-serif" font-size="13" lengthAdjust="spacingAndGlyphs" textLength="7" x="417.959" y="1189.1429">1</text><text fill="#000000" font-family="sans-serif" font-size="13" lengthAdjust="spacingAndGlyphs" textLength="7" x="1629.3781" y="963.5848">1</text><!--MD5=[2a41c1af413c0662bf55a6b8913ea24f]
link Administrator to Organization--><path d="M260.034,574.757 C269.934,571.05 280.253,567.311 290,564 C342.723,546.09 357.059,545.254 410,528 C419.6,524.871 429.8,521.395 439.58,517.986 " fill="none" id="Administrator-Organization" style="stroke: #A80036; stroke-width: 1.0;"/><text fill="#000000" font-family="sans-serif" font-size="13" lengthAdjust="spacingAndGlyphs" textLength="28" x="329.5" y="524.4951">adds</text><polygon fill="#000000" points="360.5,517.6758,366.5,520.6758,360.5,523.6758,360.5,517.6758" style="stroke: #000000; stroke-width: 1.0;"/><text fill="#000000" font-family="sans-serif" font-size="13" lengthAdjust="spacingAndGlyphs" textLength="7" x="267.9138" y="586.5898">1</text><text fill="#000000" font-family="sans-serif" font-size="13" lengthAdjust="spacingAndGlyphs" textLength="5" x="427.0678" y="535.1717">*</text><!--MD5=[edc107c0a572352bcd12c9afaba4390b]
link Administrator to User--><path d="M260.113,594.552 C436.345,593.226 1030.53,590.441 1521,608 C1669.2,613.306 1844.31,625.919 1926.88,632.246 " fill="none" id="Administrator-User" style="stroke: #A80036; stroke-width: 1.0;"/><text fill="#000000" font-family="sans-serif" font-size="13" lengthAdjust="spacingAndGlyphs" textLength="43" x="966" y="591.4951">acts as</text><polygon fill="#000000" points="1012,584.6758,1018,587.6758,1012,590.6758,1012,584.6758" style="stroke: #000000; stroke-width: 1.0;"/><text fill="#000000" font-family="sans-serif" font-size="13" lengthAdjust="spacingAndGlyphs" textLength="18" x="268.0072" y="609.0688">0,1</text><text fill="#000000" font-family="sans-serif" font-size="13" lengthAdjust="spacingAndGlyphs" textLength="7" x="1911.8991" y="628.0059">1</text><!--MD5=[d633b45690d51141bd211d849cad7ced]
link EmailAPI to User--><path d="M1684,903.593 C1700.45,895.244 1719.28,884.634 1735,873 C1815.41,813.5 1895.26,727.743 1939.42,677.355 " fill="none" id="EmailAPI-User" style="stroke: #A80036; stroke-width: 1.0;"/><text fill="#000000" font-family="sans-serif" font-size="13" lengthAdjust="spacingAndGlyphs" textLength="42" x="1785" y="759.4951">e-mails</text><polygon fill="#000000" points="1830,752.6758,1836,755.6758,1830,758.6758,1830,752.6758" style="stroke: #000000; stroke-width: 1.0;"/><text fill="#000000" font-family="sans-serif" font-size="13" lengthAdjust="spacingAndGlyphs" textLength="7" x="1691.9266" y="896.4157">1</text><text fill="#000000" font-family="sans-serif" font-size="13" lengthAdjust="spacingAndGlyphs" textLength="5" x="1928.9947" y="697.85">*</text><!--MD5=[cbdd6193c065fcdcc21acc530d8838bb]
link EmailAPI to Freelancer--><path d="M1684.18,913.186 C1728.76,902.462 1802.06,881.994 1860,852 C2114.17,720.42 2373.8,498.557 2492.67,391.072 " fill="none" id="EmailAPI-Freelancer" style="stroke: #A80036; stroke-width: 1.0;"/><text fill="#000000" font-family="sans-serif" font-size="13" lengthAdjust="spacingAndGlyphs" textLength="42" x="2092" y="672.4951">e-mails</text><polygon fill="#000000" points="2137,665.6758,2143,668.6758,2137,671.6758,2137,665.6758" style="stroke: #000000; stroke-width: 1.0;"/><text fill="#000000" font-family="sans-serif" font-size="13" lengthAdjust="spacingAndGlyphs" textLength="7" x="1692.1386" y="926.5674">1</text><text fill="#000000" font-family="sans-serif" font-size="13" lengthAdjust="spacingAndGlyphs" textLength="5" x="2479.9777" y="412.2676">*</text><!--MD5=[abb139d5aee76aa7db8e503a30ab324d]
@startuml MD

skinparam classAttributeIconSize 0
hide methods
left to right direction

class Colaborator {
        - String nome
        - String email
        - String password
}

class Manager {
        - String nome
        - String email
        - String password
}

class Transaction {

}

class TaskExecutionDetails {
        - Date endDate
        - Integer delayInDays
        - String DescriptionQualityOfWork
}

class HistoricalTransactionFile {

}

class PaymentScheduler {
        - Integer dayMonth
        - LocalTime timeOfDay
}

class Organization {
        - String nome
}

class Task {
        - String id
        - String description
        - Integer durationInHours
        - Double costPerHourOfJuniorEur
        - String category
}

class App {

}

class Administrator {
        - String nome
        - String email
        - String password
}

class EmailScheduler {

}

class User {
        - String nome
        - String email
        - String password
}

class Freelancer {
        - String id
        - String name
        - String levelOfExpertise
        - String email
        - String NIF
        - String bankAccountIBAN
        - String address
        - String country
}

Colaborator                  "1" - - "*"      Transaction               : creates >
Colaborator                  "1" - - "*"      Task                      : creates >
Colaborator                  "1" - - "*"      Freelancer                : creates >
Colaborator                  "1" - - "*"      HistoricalTransactionFile : loads >
Colaborator                "0,1" - - "1"      User                      : acts as >
Manager                      "1" - - "0,1"    PaymentScheduler          : defines >
Manager                    "0,1" - - "1"      User                      : acts as >
Payment                      "1" - - "1,..."  Transaction               : registers >
Payment                      "*" - - "1"      EmailAPI                  : uses >
Payment                      "*" - - "1"      PaymentAPI                : uses >
Payment                      "*" - - "1"      MonetaryUnitConversionAPI : uses >
Transaction                  "1" - - "1"      Task                      : relative to >
Transaction                  "1" - - "1"      TaskExecutionDetails      : executed with >
Transaction                  "*" - - "1"      Freelancer                : to >
TaskExecutionDetails         "1" - - "1"      Task                      : refer to >
HistoricalTransactionFile    "1" - - "*"      Transaction               : records >
PaymentScheduler             "1" - - "*"      Payment                   : makes automatically >
Organization                 "1" - - "1,..."  Colaborator               : has >
Organization                 "1" - - "1"      Manager                   : has >
Organization                 "1" - - "1"      PaymentScheduler          : uses >
Organization                 "1" - - "*"      Payment                   : responsable by >
Organization                 "1" - - "*"      Task                      : publishes >
Organization                 "1" - - "*"      Transaction               : has unpaid >
Task                         "*" - - "0, 1"   Freelancer                : executed by >
App                          "1" - - "1"      MonetaryUnitConversionAPI : supports >
App                          "1" - - "*"      Organization              : has >
App                          "1" - - "1"      EmailAPI                  : supports >
App                          "1" - - "1"      PaymentAPI                : supports >
App                          "1" - - "*"      Payment                   : registers >
App                          "1" - - "*"      Administrator             : has >
App                          "1" - - "*"      Freelancer                : has >
App                          "1" - - "1"      EmailScheduler            : has >
EmailScheduler               "1" - - "1"      EmailAPI                  : uses >
Administrator                "1" - - "*"      Organization              : adds >
Administrator              "0,1" - - "1"      User                      : acts as >
EmailAPI                     "1" - - "*"      User                      : e-mails >
EmailAPI                     "1" - - "*"      Freelancer                : e-mails >

@enduml

PlantUML version 1.2020.10(Sun May 17 10:35:57 WEST 2020)
(GPL source distribution)
Java Runtime: OpenJDK Runtime Environment
JVM: OpenJDK 64-Bit Server VM
Java Version: 14+36
Operating System: Windows 10
Default Encoding: Cp1252
Language: en
Country: US
--></g></svg>