<?xml version="1.0" encoding="UTF-8" standalone="no"?><svg xmlns="http://www.w3.org/2000/svg" xmlns:xlink="http://www.w3.org/1999/xlink" contentScriptType="application/ecmascript" contentStyleType="text/css" height="1141px" preserveAspectRatio="none" style="width:2639px;height:1141px;" version="1.1" viewBox="0 0 2639 1141" width="2639px" zoomAndPan="magnify"><defs><filter height="300%" id="f1wzzcferwnr5t" width="300%" x="-1" y="-1"><feGaussianBlur result="blurOut" stdDeviation="2.0"/><feColorMatrix in="blurOut" result="blurOut2" type="matrix" values="0 0 0 0 0 0 0 0 0 0 0 0 0 0 0 0 0 0 .4 0"/><feOffset dx="4.0" dy="4.0" in="blurOut2" result="blurOut3"/><feBlend in="SourceGraphic" in2="blurOut3" mode="normal"/></filter></defs><g><!--MD5=[65f9b271fae1a3d56975d9ea4f8e38de]
class Colaborator--><rect fill="#FEFECE" filter="url(#f1wzzcferwnr5t)" height="81.5078" id="Colaborator" style="stroke: #A80036; stroke-width: 1.5;" width="97" x="945.5" y="304"/><ellipse cx="960.5" cy="320" fill="#ADD1B2" rx="11" ry="11" style="stroke: #A80036; stroke-width: 1.0;"/><path d="M963.2656,315.875 Q963.4219,315.6563 963.6094,315.5469 Q963.7969,315.4375 964.0156,315.4375 Q964.3906,315.4375 964.625,315.7031 Q964.8594,315.9531 964.8594,316.5625 L964.8594,318.0156 Q964.8594,318.625 964.625,318.8906 Q964.3906,319.1563 964.0156,319.1563 Q963.6719,319.1563 963.4688,318.9531 Q963.2656,318.7656 963.1563,318.25 Q963.1094,317.8906 962.9219,317.7031 Q962.5938,317.3281 961.9844,317.1094 Q961.375,316.8906 960.75,316.8906 Q959.9844,316.8906 959.3438,317.2188 Q958.7188,317.5469 958.2188,318.2969 Q957.7344,319.0469 957.7344,320.0781 L957.7344,321.1719 Q957.7344,322.4063 958.625,323.2344 Q959.5156,324.0469 961.1094,324.0469 Q962.0469,324.0469 962.7031,323.7969 Q963.0938,323.6406 963.5156,323.2031 Q963.7813,322.9375 963.9219,322.8594 Q964.0781,322.7813 964.2813,322.7813 Q964.6094,322.7813 964.8594,323.0469 Q965.125,323.2969 965.125,323.6406 Q965.125,323.9844 964.7813,324.3906 Q964.2813,324.9688 963.4844,325.2969 Q962.4063,325.75 961.1094,325.75 Q959.5938,325.75 958.3906,325.125 Q957.4063,324.625 956.7188,323.5625 Q956.0313,322.4844 956.0313,321.2031 L956.0313,320.0469 Q956.0313,318.7188 956.6406,317.5781 Q957.2656,316.4219 958.3594,315.8125 Q959.4531,315.1875 960.6875,315.1875 Q961.4219,315.1875 962.0625,315.3594 Q962.7188,315.5156 963.2656,315.875 Z "/><text fill="#000000" font-family="sans-serif" font-size="12" lengthAdjust="spacingAndGlyphs" textLength="65" x="974.5" y="324.9102">Colaborator</text><line style="stroke: #A80036; stroke-width: 1.5;" x1="946.5" x2="1041.5" y1="336" y2="336"/><text fill="#000000" font-family="sans-serif" font-size="11" lengthAdjust="spacingAndGlyphs" textLength="61" x="951.5" y="351.4189">-String nome</text><text fill="#000000" font-family="sans-serif" font-size="11" lengthAdjust="spacingAndGlyphs" textLength="59" x="951.5" y="365.2549">-String email</text><text fill="#000000" font-family="sans-serif" font-size="11" lengthAdjust="spacingAndGlyphs" textLength="85" x="951.5" y="379.0908">-String password</text><!--MD5=[b24ed8d4ae84bae9290d9aab401637c7]
class Manager--><rect fill="#FEFECE" filter="url(#f1wzzcferwnr5t)" height="81.5078" id="Manager" style="stroke: #A80036; stroke-width: 1.5;" width="97" x="666" y="446"/><ellipse cx="688.65" cy="462" fill="#ADD1B2" rx="11" ry="11" style="stroke: #A80036; stroke-width: 1.0;"/><path d="M691.4156,457.875 Q691.5719,457.6563 691.7594,457.5469 Q691.9469,457.4375 692.1656,457.4375 Q692.5406,457.4375 692.775,457.7031 Q693.0094,457.9531 693.0094,458.5625 L693.0094,460.0156 Q693.0094,460.625 692.775,460.8906 Q692.5406,461.1563 692.1656,461.1563 Q691.8219,461.1563 691.6188,460.9531 Q691.4156,460.7656 691.3063,460.25 Q691.2594,459.8906 691.0719,459.7031 Q690.7438,459.3281 690.1344,459.1094 Q689.525,458.8906 688.9,458.8906 Q688.1344,458.8906 687.4938,459.2188 Q686.8688,459.5469 686.3688,460.2969 Q685.8844,461.0469 685.8844,462.0781 L685.8844,463.1719 Q685.8844,464.4063 686.775,465.2344 Q687.6656,466.0469 689.2594,466.0469 Q690.1969,466.0469 690.8531,465.7969 Q691.2438,465.6406 691.6656,465.2031 Q691.9313,464.9375 692.0719,464.8594 Q692.2281,464.7813 692.4313,464.7813 Q692.7594,464.7813 693.0094,465.0469 Q693.275,465.2969 693.275,465.6406 Q693.275,465.9844 692.9313,466.3906 Q692.4313,466.9688 691.6344,467.2969 Q690.5563,467.75 689.2594,467.75 Q687.7438,467.75 686.5406,467.125 Q685.5563,466.625 684.8688,465.5625 Q684.1813,464.4844 684.1813,463.2031 L684.1813,462.0469 Q684.1813,460.7188 684.7906,459.5781 Q685.4156,458.4219 686.5094,457.8125 Q687.6031,457.1875 688.8375,457.1875 Q689.5719,457.1875 690.2125,457.3594 Q690.8688,457.5156 691.4156,457.875 Z "/><text fill="#000000" font-family="sans-serif" font-size="12" lengthAdjust="spacingAndGlyphs" textLength="48" x="704.35" y="466.9102">Manager</text><line style="stroke: #A80036; stroke-width: 1.5;" x1="667" x2="762" y1="478" y2="478"/><text fill="#000000" font-family="sans-serif" font-size="11" lengthAdjust="spacingAndGlyphs" textLength="61" x="672" y="493.4189">-String nome</text><text fill="#000000" font-family="sans-serif" font-size="11" lengthAdjust="spacingAndGlyphs" textLength="59" x="672" y="507.2549">-String email</text><text fill="#000000" font-family="sans-serif" font-size="11" lengthAdjust="spacingAndGlyphs" textLength="85" x="672" y="521.0908">-String password</text><!--MD5=[4555bb1b0911a5adf28ce6dbe60fed2e]
class Transaction--><rect fill="#FEFECE" filter="url(#f1wzzcferwnr5t)" height="40" id="Transaction" style="stroke: #A80036; stroke-width: 1.5;" width="97" x="1594.5" y="216"/><ellipse cx="1609.5" cy="232" fill="#ADD1B2" rx="11" ry="11" style="stroke: #A80036; stroke-width: 1.0;"/><path d="M1612.2656,227.875 Q1612.4219,227.6563 1612.6094,227.5469 Q1612.7969,227.4375 1613.0156,227.4375 Q1613.3906,227.4375 1613.625,227.7031 Q1613.8594,227.9531 1613.8594,228.5625 L1613.8594,230.0156 Q1613.8594,230.625 1613.625,230.8906 Q1613.3906,231.1563 1613.0156,231.1563 Q1612.6719,231.1563 1612.4688,230.9531 Q1612.2656,230.7656 1612.1563,230.25 Q1612.1094,229.8906 1611.9219,229.7031 Q1611.5938,229.3281 1610.9844,229.1094 Q1610.375,228.8906 1609.75,228.8906 Q1608.9844,228.8906 1608.3438,229.2188 Q1607.7188,229.5469 1607.2188,230.2969 Q1606.7344,231.0469 1606.7344,232.0781 L1606.7344,233.1719 Q1606.7344,234.4063 1607.625,235.2344 Q1608.5156,236.0469 1610.1094,236.0469 Q1611.0469,236.0469 1611.7031,235.7969 Q1612.0938,235.6406 1612.5156,235.2031 Q1612.7813,234.9375 1612.9219,234.8594 Q1613.0781,234.7813 1613.2813,234.7813 Q1613.6094,234.7813 1613.8594,235.0469 Q1614.125,235.2969 1614.125,235.6406 Q1614.125,235.9844 1613.7813,236.3906 Q1613.2813,236.9688 1612.4844,237.2969 Q1611.4063,237.75 1610.1094,237.75 Q1608.5938,237.75 1607.3906,237.125 Q1606.4063,236.625 1605.7188,235.5625 Q1605.0313,234.4844 1605.0313,233.2031 L1605.0313,232.0469 Q1605.0313,230.7188 1605.6406,229.5781 Q1606.2656,228.4219 1607.3594,227.8125 Q1608.4531,227.1875 1609.6875,227.1875 Q1610.4219,227.1875 1611.0625,227.3594 Q1611.7188,227.5156 1612.2656,227.875 Z "/><text fill="#000000" font-family="sans-serif" font-size="12" lengthAdjust="spacingAndGlyphs" textLength="65" x="1623.5" y="236.9102">Transaction</text><line style="stroke: #A80036; stroke-width: 1.5;" x1="1595.5" x2="1690.5" y1="248" y2="248"/><!--MD5=[f9fa7692a1144bec397c3ffa19589ca2]
class TaskExecutionDetails--><rect fill="#FEFECE" filter="url(#f1wzzcferwnr5t)" height="81.5078" id="TaskExecutionDetails" style="stroke: #A80036; stroke-width: 1.5;" width="171" x="1890" y="79"/><ellipse cx="1914" cy="95" fill="#ADD1B2" rx="11" ry="11" style="stroke: #A80036; stroke-width: 1.0;"/><path d="M1916.7656,90.875 Q1916.9219,90.6563 1917.1094,90.5469 Q1917.2969,90.4375 1917.5156,90.4375 Q1917.8906,90.4375 1918.125,90.7031 Q1918.3594,90.9531 1918.3594,91.5625 L1918.3594,93.0156 Q1918.3594,93.625 1918.125,93.8906 Q1917.8906,94.1563 1917.5156,94.1563 Q1917.1719,94.1563 1916.9688,93.9531 Q1916.7656,93.7656 1916.6563,93.25 Q1916.6094,92.8906 1916.4219,92.7031 Q1916.0938,92.3281 1915.4844,92.1094 Q1914.875,91.8906 1914.25,91.8906 Q1913.4844,91.8906 1912.8438,92.2188 Q1912.2188,92.5469 1911.7188,93.2969 Q1911.2344,94.0469 1911.2344,95.0781 L1911.2344,96.1719 Q1911.2344,97.4063 1912.125,98.2344 Q1913.0156,99.0469 1914.6094,99.0469 Q1915.5469,99.0469 1916.2031,98.7969 Q1916.5938,98.6406 1917.0156,98.2031 Q1917.2813,97.9375 1917.4219,97.8594 Q1917.5781,97.7813 1917.7813,97.7813 Q1918.1094,97.7813 1918.3594,98.0469 Q1918.625,98.2969 1918.625,98.6406 Q1918.625,98.9844 1918.2813,99.3906 Q1917.7813,99.9688 1916.9844,100.2969 Q1915.9063,100.75 1914.6094,100.75 Q1913.0938,100.75 1911.8906,100.125 Q1910.9063,99.625 1910.2188,98.5625 Q1909.5313,97.4844 1909.5313,96.2031 L1909.5313,95.0469 Q1909.5313,93.7188 1910.1406,92.5781 Q1910.7656,91.4219 1911.8594,90.8125 Q1912.9531,90.1875 1914.1875,90.1875 Q1914.9219,90.1875 1915.5625,90.3594 Q1916.2188,90.5156 1916.7656,90.875 Z "/><text fill="#000000" font-family="sans-serif" font-size="12" lengthAdjust="spacingAndGlyphs" textLength="119" x="1930" y="99.9102">TaskExecutionDetails</text><line style="stroke: #A80036; stroke-width: 1.5;" x1="1891" x2="2060" y1="111" y2="111"/><text fill="#000000" font-family="sans-serif" font-size="11" lengthAdjust="spacingAndGlyphs" textLength="69" x="1896" y="126.4189">-Date endDate</text><text fill="#000000" font-family="sans-serif" font-size="11" lengthAdjust="spacingAndGlyphs" textLength="99" x="1896" y="140.2549">-Integer delayInDays</text><text fill="#000000" font-family="sans-serif" font-size="11" lengthAdjust="spacingAndGlyphs" textLength="159" x="1896" y="154.0908">-String DescriptionQualityOfWork</text><!--MD5=[6e5bbc712ea226b699d2ce44e283e8b8]
class HistoricalTransactionFile--><rect fill="#FEFECE" filter="url(#f1wzzcferwnr5t)" height="40" id="HistoricalTransactionFile" style="stroke: #A80036; stroke-width: 1.5;" width="169" x="1257" y="238"/><ellipse cx="1272" cy="254" fill="#ADD1B2" rx="11" ry="11" style="stroke: #A80036; stroke-width: 1.0;"/><path d="M1274.7656,249.875 Q1274.9219,249.6563 1275.1094,249.5469 Q1275.2969,249.4375 1275.5156,249.4375 Q1275.8906,249.4375 1276.125,249.7031 Q1276.3594,249.9531 1276.3594,250.5625 L1276.3594,252.0156 Q1276.3594,252.625 1276.125,252.8906 Q1275.8906,253.1563 1275.5156,253.1563 Q1275.1719,253.1563 1274.9688,252.9531 Q1274.7656,252.7656 1274.6563,252.25 Q1274.6094,251.8906 1274.4219,251.7031 Q1274.0938,251.3281 1273.4844,251.1094 Q1272.875,250.8906 1272.25,250.8906 Q1271.4844,250.8906 1270.8438,251.2188 Q1270.2188,251.5469 1269.7188,252.2969 Q1269.2344,253.0469 1269.2344,254.0781 L1269.2344,255.1719 Q1269.2344,256.4063 1270.125,257.2344 Q1271.0156,258.0469 1272.6094,258.0469 Q1273.5469,258.0469 1274.2031,257.7969 Q1274.5938,257.6406 1275.0156,257.2031 Q1275.2813,256.9375 1275.4219,256.8594 Q1275.5781,256.7813 1275.7813,256.7813 Q1276.1094,256.7813 1276.3594,257.0469 Q1276.625,257.2969 1276.625,257.6406 Q1276.625,257.9844 1276.2813,258.3906 Q1275.7813,258.9688 1274.9844,259.2969 Q1273.9063,259.75 1272.6094,259.75 Q1271.0938,259.75 1269.8906,259.125 Q1268.9063,258.625 1268.2188,257.5625 Q1267.5313,256.4844 1267.5313,255.2031 L1267.5313,254.0469 Q1267.5313,252.7188 1268.1406,251.5781 Q1268.7656,250.4219 1269.8594,249.8125 Q1270.9531,249.1875 1272.1875,249.1875 Q1272.9219,249.1875 1273.5625,249.3594 Q1274.2188,249.5156 1274.7656,249.875 Z "/><text fill="#000000" font-family="sans-serif" font-size="12" lengthAdjust="spacingAndGlyphs" textLength="137" x="1286" y="258.9102">HistoricalTransactionFile</text><line style="stroke: #A80036; stroke-width: 1.5;" x1="1258" x2="1425" y1="270" y2="270"/><!--MD5=[dc84a4e894a42f8e8d7fc762e5a59f92]
class PaymentScheduler--><rect fill="#FEFECE" filter="url(#f1wzzcferwnr5t)" height="67.6719" id="PaymentScheduler" style="stroke: #A80036; stroke-width: 1.5;" width="136" x="926" y="453"/><ellipse cx="941" cy="469" fill="#ADD1B2" rx="11" ry="11" style="stroke: #A80036; stroke-width: 1.0;"/><path d="M943.7656,464.875 Q943.9219,464.6563 944.1094,464.5469 Q944.2969,464.4375 944.5156,464.4375 Q944.8906,464.4375 945.125,464.7031 Q945.3594,464.9531 945.3594,465.5625 L945.3594,467.0156 Q945.3594,467.625 945.125,467.8906 Q944.8906,468.1563 944.5156,468.1563 Q944.1719,468.1563 943.9688,467.9531 Q943.7656,467.7656 943.6563,467.25 Q943.6094,466.8906 943.4219,466.7031 Q943.0938,466.3281 942.4844,466.1094 Q941.875,465.8906 941.25,465.8906 Q940.4844,465.8906 939.8438,466.2188 Q939.2188,466.5469 938.7188,467.2969 Q938.2344,468.0469 938.2344,469.0781 L938.2344,470.1719 Q938.2344,471.4063 939.125,472.2344 Q940.0156,473.0469 941.6094,473.0469 Q942.5469,473.0469 943.2031,472.7969 Q943.5938,472.6406 944.0156,472.2031 Q944.2813,471.9375 944.4219,471.8594 Q944.5781,471.7813 944.7813,471.7813 Q945.1094,471.7813 945.3594,472.0469 Q945.625,472.2969 945.625,472.6406 Q945.625,472.9844 945.2813,473.3906 Q944.7813,473.9688 943.9844,474.2969 Q942.9063,474.75 941.6094,474.75 Q940.0938,474.75 938.8906,474.125 Q937.9063,473.625 937.2188,472.5625 Q936.5313,471.4844 936.5313,470.2031 L936.5313,469.0469 Q936.5313,467.7188 937.1406,466.5781 Q937.7656,465.4219 938.8594,464.8125 Q939.9531,464.1875 941.1875,464.1875 Q941.9219,464.1875 942.5625,464.3594 Q943.2188,464.5156 943.7656,464.875 Z "/><text fill="#000000" font-family="sans-serif" font-size="12" lengthAdjust="spacingAndGlyphs" textLength="104" x="955" y="473.9102">PaymentScheduler</text><line style="stroke: #A80036; stroke-width: 1.5;" x1="927" x2="1061" y1="485" y2="485"/><text fill="#000000" font-family="sans-serif" font-size="11" lengthAdjust="spacingAndGlyphs" textLength="87" x="932" y="500.4189">-Integer dayMonth</text><text fill="#000000" font-family="sans-serif" font-size="11" lengthAdjust="spacingAndGlyphs" textLength="105" x="932" y="514.2549">-LocalTime timeOfDay</text><!--MD5=[86c7c362de55a38b660185a1328fe18d]
class Organization--><rect fill="#FEFECE" filter="url(#f1wzzcferwnr5t)" height="53.8359" id="Organization" style="stroke: #A80036; stroke-width: 1.5;" width="101" x="440" y="404"/><ellipse cx="455" cy="420" fill="#ADD1B2" rx="11" ry="11" style="stroke: #A80036; stroke-width: 1.0;"/><path d="M457.7656,415.875 Q457.9219,415.6563 458.1094,415.5469 Q458.2969,415.4375 458.5156,415.4375 Q458.8906,415.4375 459.125,415.7031 Q459.3594,415.9531 459.3594,416.5625 L459.3594,418.0156 Q459.3594,418.625 459.125,418.8906 Q458.8906,419.1563 458.5156,419.1563 Q458.1719,419.1563 457.9688,418.9531 Q457.7656,418.7656 457.6563,418.25 Q457.6094,417.8906 457.4219,417.7031 Q457.0938,417.3281 456.4844,417.1094 Q455.875,416.8906 455.25,416.8906 Q454.4844,416.8906 453.8438,417.2188 Q453.2188,417.5469 452.7188,418.2969 Q452.2344,419.0469 452.2344,420.0781 L452.2344,421.1719 Q452.2344,422.4063 453.125,423.2344 Q454.0156,424.0469 455.6094,424.0469 Q456.5469,424.0469 457.2031,423.7969 Q457.5938,423.6406 458.0156,423.2031 Q458.2813,422.9375 458.4219,422.8594 Q458.5781,422.7813 458.7813,422.7813 Q459.1094,422.7813 459.3594,423.0469 Q459.625,423.2969 459.625,423.6406 Q459.625,423.9844 459.2813,424.3906 Q458.7813,424.9688 457.9844,425.2969 Q456.9063,425.75 455.6094,425.75 Q454.0938,425.75 452.8906,425.125 Q451.9063,424.625 451.2188,423.5625 Q450.5313,422.4844 450.5313,421.2031 L450.5313,420.0469 Q450.5313,418.7188 451.1406,417.5781 Q451.7656,416.4219 452.8594,415.8125 Q453.9531,415.1875 455.1875,415.1875 Q455.9219,415.1875 456.5625,415.3594 Q457.2188,415.5156 457.7656,415.875 Z "/><text fill="#000000" font-family="sans-serif" font-size="12" lengthAdjust="spacingAndGlyphs" textLength="69" x="469" y="424.9102">Organization</text><line style="stroke: #A80036; stroke-width: 1.5;" x1="441" x2="540" y1="436" y2="436"/><text fill="#000000" font-family="sans-serif" font-size="11" lengthAdjust="spacingAndGlyphs" textLength="61" x="446" y="451.4189">-String nome</text><!--MD5=[b34797a66dc35cbf1d65f7e3ca75530e]
class Task--><rect fill="#FEFECE" filter="url(#f1wzzcferwnr5t)" height="109.1797" id="Task" style="stroke: #A80036; stroke-width: 1.5;" width="169" x="2178" y="159.5"/><ellipse cx="2244.75" cy="175.5" fill="#ADD1B2" rx="11" ry="11" style="stroke: #A80036; stroke-width: 1.0;"/><path d="M2247.5156,171.375 Q2247.6719,171.1563 2247.8594,171.0469 Q2248.0469,170.9375 2248.2656,170.9375 Q2248.6406,170.9375 2248.875,171.2031 Q2249.1094,171.4531 2249.1094,172.0625 L2249.1094,173.5156 Q2249.1094,174.125 2248.875,174.3906 Q2248.6406,174.6563 2248.2656,174.6563 Q2247.9219,174.6563 2247.7188,174.4531 Q2247.5156,174.2656 2247.4063,173.75 Q2247.3594,173.3906 2247.1719,173.2031 Q2246.8438,172.8281 2246.2344,172.6094 Q2245.625,172.3906 2245,172.3906 Q2244.2344,172.3906 2243.5938,172.7188 Q2242.9688,173.0469 2242.4688,173.7969 Q2241.9844,174.5469 2241.9844,175.5781 L2241.9844,176.6719 Q2241.9844,177.9063 2242.875,178.7344 Q2243.7656,179.5469 2245.3594,179.5469 Q2246.2969,179.5469 2246.9531,179.2969 Q2247.3438,179.1406 2247.7656,178.7031 Q2248.0313,178.4375 2248.1719,178.3594 Q2248.3281,178.2813 2248.5313,178.2813 Q2248.8594,178.2813 2249.1094,178.5469 Q2249.375,178.7969 2249.375,179.1406 Q2249.375,179.4844 2249.0313,179.8906 Q2248.5313,180.4688 2247.7344,180.7969 Q2246.6563,181.25 2245.3594,181.25 Q2243.8438,181.25 2242.6406,180.625 Q2241.6563,180.125 2240.9688,179.0625 Q2240.2813,177.9844 2240.2813,176.7031 L2240.2813,175.5469 Q2240.2813,174.2188 2240.8906,173.0781 Q2241.5156,171.9219 2242.6094,171.3125 Q2243.7031,170.6875 2244.9375,170.6875 Q2245.6719,170.6875 2246.3125,170.8594 Q2246.9688,171.0156 2247.5156,171.375 Z "/><text fill="#000000" font-family="sans-serif" font-size="12" lengthAdjust="spacingAndGlyphs" textLength="27" x="2265.25" y="180.4102">Task</text><line style="stroke: #A80036; stroke-width: 1.5;" x1="2179" x2="2346" y1="191.5" y2="191.5"/><text fill="#000000" font-family="sans-serif" font-size="11" lengthAdjust="spacingAndGlyphs" textLength="43" x="2184" y="206.9189">-String id</text><text fill="#000000" font-family="sans-serif" font-size="11" lengthAdjust="spacingAndGlyphs" textLength="88" x="2184" y="220.7549">-String description</text><text fill="#000000" font-family="sans-serif" font-size="11" lengthAdjust="spacingAndGlyphs" textLength="116" x="2184" y="234.5908">-Integer durationInHours</text><text fill="#000000" font-family="sans-serif" font-size="11" lengthAdjust="spacingAndGlyphs" textLength="157" x="2184" y="248.4268">-Double costPerHourOfJuniorEur</text><text fill="#000000" font-family="sans-serif" font-size="11" lengthAdjust="spacingAndGlyphs" textLength="78" x="2184" y="262.2627">-String category</text><!--MD5=[335f4d9be48430461c68bf6d6fdba145]
class App--><rect fill="#FEFECE" filter="url(#f1wzzcferwnr5t)" height="40" id="App" style="stroke: #A80036; stroke-width: 1.5;" width="53" x="6" y="825"/><ellipse cx="21" cy="841" fill="#ADD1B2" rx="11" ry="11" style="stroke: #A80036; stroke-width: 1.0;"/><path d="M23.7656,836.875 Q23.9219,836.6563 24.1094,836.5469 Q24.2969,836.4375 24.5156,836.4375 Q24.8906,836.4375 25.125,836.7031 Q25.3594,836.9531 25.3594,837.5625 L25.3594,839.0156 Q25.3594,839.625 25.125,839.8906 Q24.8906,840.1563 24.5156,840.1563 Q24.1719,840.1563 23.9688,839.9531 Q23.7656,839.7656 23.6563,839.25 Q23.6094,838.8906 23.4219,838.7031 Q23.0938,838.3281 22.4844,838.1094 Q21.875,837.8906 21.25,837.8906 Q20.4844,837.8906 19.8438,838.2188 Q19.2188,838.5469 18.7188,839.2969 Q18.2344,840.0469 18.2344,841.0781 L18.2344,842.1719 Q18.2344,843.4063 19.125,844.2344 Q20.0156,845.0469 21.6094,845.0469 Q22.5469,845.0469 23.2031,844.7969 Q23.5938,844.6406 24.0156,844.2031 Q24.2813,843.9375 24.4219,843.8594 Q24.5781,843.7813 24.7813,843.7813 Q25.1094,843.7813 25.3594,844.0469 Q25.625,844.2969 25.625,844.6406 Q25.625,844.9844 25.2813,845.3906 Q24.7813,845.9688 23.9844,846.2969 Q22.9063,846.75 21.6094,846.75 Q20.0938,846.75 18.8906,846.125 Q17.9063,845.625 17.2188,844.5625 Q16.5313,843.4844 16.5313,842.2031 L16.5313,841.0469 Q16.5313,839.7188 17.1406,838.5781 Q17.7656,837.4219 18.8594,836.8125 Q19.9531,836.1875 21.1875,836.1875 Q21.9219,836.1875 22.5625,836.3594 Q23.2188,836.5156 23.7656,836.875 Z "/><text fill="#000000" font-family="sans-serif" font-size="12" lengthAdjust="spacingAndGlyphs" textLength="21" x="35" y="845.9102">App</text><line style="stroke: #A80036; stroke-width: 1.5;" x1="7" x2="58" y1="857" y2="857"/><!--MD5=[da547346deef918ea16944ba046651ef]
class Administrator--><rect fill="#FEFECE" filter="url(#f1wzzcferwnr5t)" height="81.5078" id="Administrator" style="stroke: #A80036; stroke-width: 1.5;" width="105" x="155" y="748"/><ellipse cx="170" cy="764" fill="#ADD1B2" rx="11" ry="11" style="stroke: #A80036; stroke-width: 1.0;"/><path d="M172.7656,759.875 Q172.9219,759.6563 173.1094,759.5469 Q173.2969,759.4375 173.5156,759.4375 Q173.8906,759.4375 174.125,759.7031 Q174.3594,759.9531 174.3594,760.5625 L174.3594,762.0156 Q174.3594,762.625 174.125,762.8906 Q173.8906,763.1563 173.5156,763.1563 Q173.1719,763.1563 172.9688,762.9531 Q172.7656,762.7656 172.6563,762.25 Q172.6094,761.8906 172.4219,761.7031 Q172.0938,761.3281 171.4844,761.1094 Q170.875,760.8906 170.25,760.8906 Q169.4844,760.8906 168.8438,761.2188 Q168.2188,761.5469 167.7188,762.2969 Q167.2344,763.0469 167.2344,764.0781 L167.2344,765.1719 Q167.2344,766.4063 168.125,767.2344 Q169.0156,768.0469 170.6094,768.0469 Q171.5469,768.0469 172.2031,767.7969 Q172.5938,767.6406 173.0156,767.2031 Q173.2813,766.9375 173.4219,766.8594 Q173.5781,766.7813 173.7813,766.7813 Q174.1094,766.7813 174.3594,767.0469 Q174.625,767.2969 174.625,767.6406 Q174.625,767.9844 174.2813,768.3906 Q173.7813,768.9688 172.9844,769.2969 Q171.9063,769.75 170.6094,769.75 Q169.0938,769.75 167.8906,769.125 Q166.9063,768.625 166.2188,767.5625 Q165.5313,766.4844 165.5313,765.2031 L165.5313,764.0469 Q165.5313,762.7188 166.1406,761.5781 Q166.7656,760.4219 167.8594,759.8125 Q168.9531,759.1875 170.1875,759.1875 Q170.9219,759.1875 171.5625,759.3594 Q172.2188,759.5156 172.7656,759.875 Z "/><text fill="#000000" font-family="sans-serif" font-size="12" lengthAdjust="spacingAndGlyphs" textLength="73" x="184" y="768.9102">Administrator</text><line style="stroke: #A80036; stroke-width: 1.5;" x1="156" x2="259" y1="780" y2="780"/><text fill="#000000" font-family="sans-serif" font-size="11" lengthAdjust="spacingAndGlyphs" textLength="61" x="161" y="795.4189">-String nome</text><text fill="#000000" font-family="sans-serif" font-size="11" lengthAdjust="spacingAndGlyphs" textLength="59" x="161" y="809.2549">-String email</text><text fill="#000000" font-family="sans-serif" font-size="11" lengthAdjust="spacingAndGlyphs" textLength="85" x="161" y="823.0908">-String password</text><!--MD5=[942000697ba2ca87a591befaf65c4861]
class EmailScheduler--><rect fill="#FEFECE" filter="url(#f1wzzcferwnr5t)" height="40" id="EmailScheduler" style="stroke: #A80036; stroke-width: 1.5;" width="120" x="290" y="942"/><ellipse cx="305" cy="958" fill="#ADD1B2" rx="11" ry="11" style="stroke: #A80036; stroke-width: 1.0;"/><path d="M307.7656,953.875 Q307.9219,953.6563 308.1094,953.5469 Q308.2969,953.4375 308.5156,953.4375 Q308.8906,953.4375 309.125,953.7031 Q309.3594,953.9531 309.3594,954.5625 L309.3594,956.0156 Q309.3594,956.625 309.125,956.8906 Q308.8906,957.1563 308.5156,957.1563 Q308.1719,957.1563 307.9688,956.9531 Q307.7656,956.7656 307.6563,956.25 Q307.6094,955.8906 307.4219,955.7031 Q307.0938,955.3281 306.4844,955.1094 Q305.875,954.8906 305.25,954.8906 Q304.4844,954.8906 303.8438,955.2188 Q303.2188,955.5469 302.7188,956.2969 Q302.2344,957.0469 302.2344,958.0781 L302.2344,959.1719 Q302.2344,960.4063 303.125,961.2344 Q304.0156,962.0469 305.6094,962.0469 Q306.5469,962.0469 307.2031,961.7969 Q307.5938,961.6406 308.0156,961.2031 Q308.2813,960.9375 308.4219,960.8594 Q308.5781,960.7813 308.7813,960.7813 Q309.1094,960.7813 309.3594,961.0469 Q309.625,961.2969 309.625,961.6406 Q309.625,961.9844 309.2813,962.3906 Q308.7813,962.9688 307.9844,963.2969 Q306.9063,963.75 305.6094,963.75 Q304.0938,963.75 302.8906,963.125 Q301.9063,962.625 301.2188,961.5625 Q300.5313,960.4844 300.5313,959.2031 L300.5313,958.0469 Q300.5313,956.7188 301.1406,955.5781 Q301.7656,954.4219 302.8594,953.8125 Q303.9531,953.1875 305.1875,953.1875 Q305.9219,953.1875 306.5625,953.3594 Q307.2188,953.5156 307.7656,953.875 Z "/><text fill="#000000" font-family="sans-serif" font-size="12" lengthAdjust="spacingAndGlyphs" textLength="88" x="319" y="962.9102">EmailScheduler</text><line style="stroke: #A80036; stroke-width: 1.5;" x1="291" x2="409" y1="974" y2="974"/><!--MD5=[3fd616f346a44cd59a91eb10b19e157c]
class User--><rect fill="#FEFECE" filter="url(#f1wzzcferwnr5t)" height="81.5078" id="User" style="stroke: #A80036; stroke-width: 1.5;" width="97" x="1927" y="749"/><ellipse cx="1959.1" cy="765" fill="#ADD1B2" rx="11" ry="11" style="stroke: #A80036; stroke-width: 1.0;"/><path d="M1961.8656,760.875 Q1962.0219,760.6563 1962.2094,760.5469 Q1962.3969,760.4375 1962.6156,760.4375 Q1962.9906,760.4375 1963.225,760.7031 Q1963.4594,760.9531 1963.4594,761.5625 L1963.4594,763.0156 Q1963.4594,763.625 1963.225,763.8906 Q1962.9906,764.1563 1962.6156,764.1563 Q1962.2719,764.1563 1962.0688,763.9531 Q1961.8656,763.7656 1961.7563,763.25 Q1961.7094,762.8906 1961.5219,762.7031 Q1961.1938,762.3281 1960.5844,762.1094 Q1959.975,761.8906 1959.35,761.8906 Q1958.5844,761.8906 1957.9438,762.2188 Q1957.3188,762.5469 1956.8188,763.2969 Q1956.3344,764.0469 1956.3344,765.0781 L1956.3344,766.1719 Q1956.3344,767.4063 1957.225,768.2344 Q1958.1156,769.0469 1959.7094,769.0469 Q1960.6469,769.0469 1961.3031,768.7969 Q1961.6938,768.6406 1962.1156,768.2031 Q1962.3813,767.9375 1962.5219,767.8594 Q1962.6781,767.7813 1962.8813,767.7813 Q1963.2094,767.7813 1963.4594,768.0469 Q1963.725,768.2969 1963.725,768.6406 Q1963.725,768.9844 1963.3813,769.3906 Q1962.8813,769.9688 1962.0844,770.2969 Q1961.0063,770.75 1959.7094,770.75 Q1958.1938,770.75 1956.9906,770.125 Q1956.0063,769.625 1955.3188,768.5625 Q1954.6313,767.4844 1954.6313,766.2031 L1954.6313,765.0469 Q1954.6313,763.7188 1955.2406,762.5781 Q1955.8656,761.4219 1956.9594,760.8125 Q1958.0531,760.1875 1959.2875,760.1875 Q1960.0219,760.1875 1960.6625,760.3594 Q1961.3188,760.5156 1961.8656,760.875 Z "/><text fill="#000000" font-family="sans-serif" font-size="12" lengthAdjust="spacingAndGlyphs" textLength="27" x="1976.9" y="769.9102">User</text><line style="stroke: #A80036; stroke-width: 1.5;" x1="1928" x2="2023" y1="781" y2="781"/><text fill="#000000" font-family="sans-serif" font-size="11" lengthAdjust="spacingAndGlyphs" textLength="61" x="1933" y="796.4189">-String nome</text><text fill="#000000" font-family="sans-serif" font-size="11" lengthAdjust="spacingAndGlyphs" textLength="59" x="1933" y="810.2549">-String email</text><text fill="#000000" font-family="sans-serif" font-size="11" lengthAdjust="spacingAndGlyphs" textLength="85" x="1933" y="824.0908">-String password</text><!--MD5=[1f687b5315377fe49fca59b457947463]
class Freelancer--><rect fill="#FEFECE" filter="url(#f1wzzcferwnr5t)" height="150.6875" id="Freelancer" style="stroke: #A80036; stroke-width: 1.5;" width="135" x="2493" y="368.5"/><ellipse cx="2527.8" cy="384.5" fill="#ADD1B2" rx="11" ry="11" style="stroke: #A80036; stroke-width: 1.0;"/><path d="M2530.5656,380.375 Q2530.7219,380.1563 2530.9094,380.0469 Q2531.0969,379.9375 2531.3156,379.9375 Q2531.6906,379.9375 2531.925,380.2031 Q2532.1594,380.4531 2532.1594,381.0625 L2532.1594,382.5156 Q2532.1594,383.125 2531.925,383.3906 Q2531.6906,383.6563 2531.3156,383.6563 Q2530.9719,383.6563 2530.7688,383.4531 Q2530.5656,383.2656 2530.4563,382.75 Q2530.4094,382.3906 2530.2219,382.2031 Q2529.8938,381.8281 2529.2844,381.6094 Q2528.675,381.3906 2528.05,381.3906 Q2527.2844,381.3906 2526.6438,381.7188 Q2526.0188,382.0469 2525.5188,382.7969 Q2525.0344,383.5469 2525.0344,384.5781 L2525.0344,385.6719 Q2525.0344,386.9063 2525.925,387.7344 Q2526.8156,388.5469 2528.4094,388.5469 Q2529.3469,388.5469 2530.0031,388.2969 Q2530.3938,388.1406 2530.8156,387.7031 Q2531.0813,387.4375 2531.2219,387.3594 Q2531.3781,387.2813 2531.5813,387.2813 Q2531.9094,387.2813 2532.1594,387.5469 Q2532.425,387.7969 2532.425,388.1406 Q2532.425,388.4844 2532.0813,388.8906 Q2531.5813,389.4688 2530.7844,389.7969 Q2529.7063,390.25 2528.4094,390.25 Q2526.8938,390.25 2525.6906,389.625 Q2524.7063,389.125 2524.0188,388.0625 Q2523.3313,386.9844 2523.3313,385.7031 L2523.3313,384.5469 Q2523.3313,383.2188 2523.9406,382.0781 Q2524.5656,380.9219 2525.6594,380.3125 Q2526.7531,379.6875 2527.9875,379.6875 Q2528.7219,379.6875 2529.3625,379.8594 Q2530.0188,380.0156 2530.5656,380.375 Z "/><text fill="#000000" font-family="sans-serif" font-size="12" lengthAdjust="spacingAndGlyphs" textLength="59" x="2546.2" y="389.4102">Freelancer</text><line style="stroke: #A80036; stroke-width: 1.5;" x1="2494" x2="2627" y1="400.5" y2="400.5"/><text fill="#000000" font-family="sans-serif" font-size="11" lengthAdjust="spacingAndGlyphs" textLength="43" x="2499" y="415.9189">-String id</text><text fill="#000000" font-family="sans-serif" font-size="11" lengthAdjust="spacingAndGlyphs" textLength="61" x="2499" y="429.7549">-String name</text><text fill="#000000" font-family="sans-serif" font-size="11" lengthAdjust="spacingAndGlyphs" textLength="114" x="2499" y="443.5908">-String levelOfExpertise</text><text fill="#000000" font-family="sans-serif" font-size="11" lengthAdjust="spacingAndGlyphs" textLength="59" x="2499" y="457.4268">-String email</text><text fill="#000000" font-family="sans-serif" font-size="11" lengthAdjust="spacingAndGlyphs" textLength="50" x="2499" y="471.2627">-String NIF</text><text fill="#000000" font-family="sans-serif" font-size="11" lengthAdjust="spacingAndGlyphs" textLength="123" x="2499" y="485.0986">-String bankAccountIBAN</text><text fill="#000000" font-family="sans-serif" font-size="11" lengthAdjust="spacingAndGlyphs" textLength="75" x="2499" y="498.9346">-String address</text><text fill="#000000" font-family="sans-serif" font-size="11" lengthAdjust="spacingAndGlyphs" textLength="72" x="2499" y="512.7705">-String country</text><!--MD5=[764fca796ce7f635542948d8fc39db5e]
class Payment--><rect fill="#FEFECE" filter="url(#f1wzzcferwnr5t)" height="40" id="Payment" style="stroke: #A80036; stroke-width: 1.5;" width="80" x="1301.5" y="559"/><ellipse cx="1316.5" cy="575" fill="#ADD1B2" rx="11" ry="11" style="stroke: #A80036; stroke-width: 1.0;"/><path d="M1319.2656,570.875 Q1319.4219,570.6563 1319.6094,570.5469 Q1319.7969,570.4375 1320.0156,570.4375 Q1320.3906,570.4375 1320.625,570.7031 Q1320.8594,570.9531 1320.8594,571.5625 L1320.8594,573.0156 Q1320.8594,573.625 1320.625,573.8906 Q1320.3906,574.1563 1320.0156,574.1563 Q1319.6719,574.1563 1319.4688,573.9531 Q1319.2656,573.7656 1319.1563,573.25 Q1319.1094,572.8906 1318.9219,572.7031 Q1318.5938,572.3281 1317.9844,572.1094 Q1317.375,571.8906 1316.75,571.8906 Q1315.9844,571.8906 1315.3438,572.2188 Q1314.7188,572.5469 1314.2188,573.2969 Q1313.7344,574.0469 1313.7344,575.0781 L1313.7344,576.1719 Q1313.7344,577.4063 1314.625,578.2344 Q1315.5156,579.0469 1317.1094,579.0469 Q1318.0469,579.0469 1318.7031,578.7969 Q1319.0938,578.6406 1319.5156,578.2031 Q1319.7813,577.9375 1319.9219,577.8594 Q1320.0781,577.7813 1320.2813,577.7813 Q1320.6094,577.7813 1320.8594,578.0469 Q1321.125,578.2969 1321.125,578.6406 Q1321.125,578.9844 1320.7813,579.3906 Q1320.2813,579.9688 1319.4844,580.2969 Q1318.4063,580.75 1317.1094,580.75 Q1315.5938,580.75 1314.3906,580.125 Q1313.4063,579.625 1312.7188,578.5625 Q1312.0313,577.4844 1312.0313,576.2031 L1312.0313,575.0469 Q1312.0313,573.7188 1312.6406,572.5781 Q1313.2656,571.4219 1314.3594,570.8125 Q1315.4531,570.1875 1316.6875,570.1875 Q1317.4219,570.1875 1318.0625,570.3594 Q1318.7188,570.5156 1319.2656,570.875 Z "/><text fill="#000000" font-family="sans-serif" font-size="12" lengthAdjust="spacingAndGlyphs" textLength="48" x="1330.5" y="579.9102">Payment</text><line style="stroke: #A80036; stroke-width: 1.5;" x1="1302.5" x2="1380.5" y1="591" y2="591"/><!--MD5=[8806e557260fb3598decb516dc04693d]
class EmailAPI--><rect fill="#FEFECE" filter="url(#f1wzzcferwnr5t)" height="40" id="EmailAPI" style="stroke: #A80036; stroke-width: 1.5;" width="82" x="1602" y="913"/><ellipse cx="1617" cy="929" fill="#ADD1B2" rx="11" ry="11" style="stroke: #A80036; stroke-width: 1.0;"/><path d="M1619.7656,924.875 Q1619.9219,924.6563 1620.1094,924.5469 Q1620.2969,924.4375 1620.5156,924.4375 Q1620.8906,924.4375 1621.125,924.7031 Q1621.3594,924.9531 1621.3594,925.5625 L1621.3594,927.0156 Q1621.3594,927.625 1621.125,927.8906 Q1620.8906,928.1563 1620.5156,928.1563 Q1620.1719,928.1563 1619.9688,927.9531 Q1619.7656,927.7656 1619.6563,927.25 Q1619.6094,926.8906 1619.4219,926.7031 Q1619.0938,926.3281 1618.4844,926.1094 Q1617.875,925.8906 1617.25,925.8906 Q1616.4844,925.8906 1615.8438,926.2188 Q1615.2188,926.5469 1614.7188,927.2969 Q1614.2344,928.0469 1614.2344,929.0781 L1614.2344,930.1719 Q1614.2344,931.4063 1615.125,932.2344 Q1616.0156,933.0469 1617.6094,933.0469 Q1618.5469,933.0469 1619.2031,932.7969 Q1619.5938,932.6406 1620.0156,932.2031 Q1620.2813,931.9375 1620.4219,931.8594 Q1620.5781,931.7813 1620.7813,931.7813 Q1621.1094,931.7813 1621.3594,932.0469 Q1621.625,932.2969 1621.625,932.6406 Q1621.625,932.9844 1621.2813,933.3906 Q1620.7813,933.9688 1619.9844,934.2969 Q1618.9063,934.75 1617.6094,934.75 Q1616.0938,934.75 1614.8906,934.125 Q1613.9063,933.625 1613.2188,932.5625 Q1612.5313,931.4844 1612.5313,930.2031 L1612.5313,929.0469 Q1612.5313,927.7188 1613.1406,926.5781 Q1613.7656,925.4219 1614.8594,924.8125 Q1615.9531,924.1875 1617.1875,924.1875 Q1617.9219,924.1875 1618.5625,924.3594 Q1619.2188,924.5156 1619.7656,924.875 Z "/><text fill="#000000" font-family="sans-serif" font-size="12" lengthAdjust="spacingAndGlyphs" textLength="50" x="1631" y="933.9102">EmailAPI</text><line style="stroke: #A80036; stroke-width: 1.5;" x1="1603" x2="1683" y1="945" y2="945"/><!--MD5=[b9b2b358c4596a7c3c612fa1a577c109]
class PaymentAPI--><rect fill="#FEFECE" filter="url(#f1wzzcferwnr5t)" height="40" id="PaymentAPI" style="stroke: #A80036; stroke-width: 1.5;" width="98" x="1594" y="641"/><ellipse cx="1609" cy="657" fill="#ADD1B2" rx="11" ry="11" style="stroke: #A80036; stroke-width: 1.0;"/><path d="M1611.7656,652.875 Q1611.9219,652.6563 1612.1094,652.5469 Q1612.2969,652.4375 1612.5156,652.4375 Q1612.8906,652.4375 1613.125,652.7031 Q1613.3594,652.9531 1613.3594,653.5625 L1613.3594,655.0156 Q1613.3594,655.625 1613.125,655.8906 Q1612.8906,656.1563 1612.5156,656.1563 Q1612.1719,656.1563 1611.9688,655.9531 Q1611.7656,655.7656 1611.6563,655.25 Q1611.6094,654.8906 1611.4219,654.7031 Q1611.0938,654.3281 1610.4844,654.1094 Q1609.875,653.8906 1609.25,653.8906 Q1608.4844,653.8906 1607.8438,654.2188 Q1607.2188,654.5469 1606.7188,655.2969 Q1606.2344,656.0469 1606.2344,657.0781 L1606.2344,658.1719 Q1606.2344,659.4063 1607.125,660.2344 Q1608.0156,661.0469 1609.6094,661.0469 Q1610.5469,661.0469 1611.2031,660.7969 Q1611.5938,660.6406 1612.0156,660.2031 Q1612.2813,659.9375 1612.4219,659.8594 Q1612.5781,659.7813 1612.7813,659.7813 Q1613.1094,659.7813 1613.3594,660.0469 Q1613.625,660.2969 1613.625,660.6406 Q1613.625,660.9844 1613.2813,661.3906 Q1612.7813,661.9688 1611.9844,662.2969 Q1610.9063,662.75 1609.6094,662.75 Q1608.0938,662.75 1606.8906,662.125 Q1605.9063,661.625 1605.2188,660.5625 Q1604.5313,659.4844 1604.5313,658.2031 L1604.5313,657.0469 Q1604.5313,655.7188 1605.1406,654.5781 Q1605.7656,653.4219 1606.8594,652.8125 Q1607.9531,652.1875 1609.1875,652.1875 Q1609.9219,652.1875 1610.5625,652.3594 Q1611.2188,652.5156 1611.7656,652.875 Z "/><text fill="#000000" font-family="sans-serif" font-size="12" lengthAdjust="spacingAndGlyphs" textLength="66" x="1623" y="661.9102">PaymentAPI</text><line style="stroke: #A80036; stroke-width: 1.5;" x1="1595" x2="1691" y1="673" y2="673"/><!--MD5=[b76730e11bf88a141099e30fd5a76626]
class MonetaryUnitConversionAPI--><rect fill="#FEFECE" filter="url(#f1wzzcferwnr5t)" height="40" id="MonetaryUnitConversionAPI" style="stroke: #A80036; stroke-width: 1.5;" width="184" x="1551" y="554"/><ellipse cx="1566" cy="570" fill="#ADD1B2" rx="11" ry="11" style="stroke: #A80036; stroke-width: 1.0;"/><path d="M1568.7656,565.875 Q1568.9219,565.6563 1569.1094,565.5469 Q1569.2969,565.4375 1569.5156,565.4375 Q1569.8906,565.4375 1570.125,565.7031 Q1570.3594,565.9531 1570.3594,566.5625 L1570.3594,568.0156 Q1570.3594,568.625 1570.125,568.8906 Q1569.8906,569.1563 1569.5156,569.1563 Q1569.1719,569.1563 1568.9688,568.9531 Q1568.7656,568.7656 1568.6563,568.25 Q1568.6094,567.8906 1568.4219,567.7031 Q1568.0938,567.3281 1567.4844,567.1094 Q1566.875,566.8906 1566.25,566.8906 Q1565.4844,566.8906 1564.8438,567.2188 Q1564.2188,567.5469 1563.7188,568.2969 Q1563.2344,569.0469 1563.2344,570.0781 L1563.2344,571.1719 Q1563.2344,572.4063 1564.125,573.2344 Q1565.0156,574.0469 1566.6094,574.0469 Q1567.5469,574.0469 1568.2031,573.7969 Q1568.5938,573.6406 1569.0156,573.2031 Q1569.2813,572.9375 1569.4219,572.8594 Q1569.5781,572.7813 1569.7813,572.7813 Q1570.1094,572.7813 1570.3594,573.0469 Q1570.625,573.2969 1570.625,573.6406 Q1570.625,573.9844 1570.2813,574.3906 Q1569.7813,574.9688 1568.9844,575.2969 Q1567.9063,575.75 1566.6094,575.75 Q1565.0938,575.75 1563.8906,575.125 Q1562.9063,574.625 1562.2188,573.5625 Q1561.5313,572.4844 1561.5313,571.2031 L1561.5313,570.0469 Q1561.5313,568.7188 1562.1406,567.5781 Q1562.7656,566.4219 1563.8594,565.8125 Q1564.9531,565.1875 1566.1875,565.1875 Q1566.9219,565.1875 1567.5625,565.3594 Q1568.2188,565.5156 1568.7656,565.875 Z "/><text fill="#000000" font-family="sans-serif" font-size="12" lengthAdjust="spacingAndGlyphs" textLength="152" x="1580" y="574.9102">MonetaryUnitConversionAPI</text><line style="stroke: #A80036; stroke-width: 1.5;" x1="1552" x2="1734" y1="586" y2="586"/><!--MD5=[d29e613367f81ad7dde1107857724e46]
link Colaborator to Payment--><path d="M1026.6,386.039 C1038.11,401.457 1050.98,419.296 1062,436 C1076.48,457.951 1071.06,471.089 1092,487 C1141.44,524.572 1168.87,501.155 1227,523 C1253.74,533.049 1282.59,547.332 1304.51,558.959 " fill="none" id="Colaborator-Payment" style="stroke: #A80036; stroke-width: 1.0;"/><text fill="#000000" font-family="sans-serif" font-size="13" lengthAdjust="spacingAndGlyphs" textLength="43" x="1131.5" y="483.4951">creates</text><polygon fill="#000000" points="1177.5,476.6758,1183.5,479.6758,1177.5,482.6758,1177.5,476.6758" style="stroke: #000000; stroke-width: 1.0;"/><text fill="#000000" font-family="sans-serif" font-size="13" lengthAdjust="spacingAndGlyphs" textLength="7" x="1024.0559" y="407.1078">1</text><text fill="#000000" font-family="sans-serif" font-size="13" lengthAdjust="spacingAndGlyphs" textLength="5" x="1288.4034" y="548.617">*</text><!--MD5=[43bc7443460eb6e15759d9c6a71318a8]
link Colaborator to Task--><path d="M1042.73,342.834 C1160.53,337.217 1474.45,320.589 1735,292 C1892.07,274.766 2074.22,245.753 2177.86,228.387 " fill="none" id="Colaborator-Task" style="stroke: #A80036; stroke-width: 1.0;"/><text fill="#000000" font-family="sans-serif" font-size="13" lengthAdjust="spacingAndGlyphs" textLength="43" x="1615" y="288.4951">creates</text><polygon fill="#000000" points="1661,281.6758,1667,284.6758,1661,287.6758,1661,281.6758" style="stroke: #000000; stroke-width: 1.0;"/><text fill="#000000" font-family="sans-serif" font-size="13" lengthAdjust="spacingAndGlyphs" textLength="7" x="1050.4013" y="357.2479">1</text><text fill="#000000" font-family="sans-serif" font-size="13" lengthAdjust="spacingAndGlyphs" textLength="5" x="2165.0991" y="243.8836">*</text><!--MD5=[7be2b93dc6b99f50a07263979bce1c9c]
link Colaborator to Freelancer--><path d="M1042.68,348.017 C1268.39,362.3 2229.53,423.12 2492.67,439.771 " fill="none" id="Colaborator-Freelancer" style="stroke: #A80036; stroke-width: 1.0;"/><text fill="#000000" font-family="sans-serif" font-size="13" lengthAdjust="spacingAndGlyphs" textLength="43" x="1784.5" y="389.4951">creates</text><polygon fill="#000000" points="1830.5,382.6758,1836.5,385.6758,1830.5,388.6758,1830.5,382.6758" style="stroke: #000000; stroke-width: 1.0;"/><text fill="#000000" font-family="sans-serif" font-size="13" lengthAdjust="spacingAndGlyphs" textLength="7" x="1050.3439" y="363.1922">1</text><text fill="#000000" font-family="sans-serif" font-size="13" lengthAdjust="spacingAndGlyphs" textLength="5" x="2479.9777" y="453.7149">*</text><!--MD5=[dfec053834ca4b8aaedc22769d2f526b]
link Colaborator to HistoricalTransactionFile--><path d="M1042.65,323.082 C1058.15,316.57 1075.59,309.88 1092,305 C1145.98,288.95 1208.24,277.186 1256.94,269.441 " fill="none" id="Colaborator-HistoricalTransactionFile" style="stroke: #A80036; stroke-width: 1.0;"/><text fill="#000000" font-family="sans-serif" font-size="13" lengthAdjust="spacingAndGlyphs" textLength="31" x="1137.5" y="270.4951">loads</text><polygon fill="#000000" points="1171.5,263.6758,1177.5,266.6758,1171.5,269.6758,1171.5,263.6758" style="stroke: #000000; stroke-width: 1.0;"/><text fill="#000000" font-family="sans-serif" font-size="13" lengthAdjust="spacingAndGlyphs" textLength="7" x="1050.6355" y="334.5105">1</text><text fill="#000000" font-family="sans-serif" font-size="13" lengthAdjust="spacingAndGlyphs" textLength="5" x="1243.9142" y="284.7445">*</text><!--MD5=[02dd8e0703276896f1e42edb558b3819]
link Colaborator to User--><path d="M1038.38,386.312 C1054.17,399.273 1072.87,412.421 1092,421 C1356.97,539.819 1479.55,398.891 1735,537 C1829.97,588.346 1908.94,691.092 1948.05,748.595 " fill="none" id="Colaborator-User" style="stroke: #A80036; stroke-width: 1.0;"/><text fill="#000000" font-family="sans-serif" font-size="13" lengthAdjust="spacingAndGlyphs" textLength="43" x="1460.5" y="466.4951">acts as</text><polygon fill="#000000" points="1506.5,459.6758,1512.5,462.6758,1506.5,465.6758,1506.5,459.6758" style="stroke: #000000; stroke-width: 1.0;"/><text fill="#000000" font-family="sans-serif" font-size="13" lengthAdjust="spacingAndGlyphs" textLength="18" x="1025.5764" y="407.1118">0,1</text><text fill="#000000" font-family="sans-serif" font-size="13" lengthAdjust="spacingAndGlyphs" textLength="7" x="1936.1173" y="738.2834">1</text><!--MD5=[7243fd82d00bd95e91d7be6a6f325055]
link Manager to PaymentScheduler--><path d="M763.204,487 C808.066,487 875.664,487 925.943,487 " fill="none" id="Manager-PaymentScheduler" style="stroke: #A80036; stroke-width: 1.0;"/><text fill="#000000" font-family="sans-serif" font-size="13" lengthAdjust="spacingAndGlyphs" textLength="41" x="817.5" y="483.4951">defines</text><polygon fill="#000000" points="861.5,476.6758,867.5,479.6758,861.5,482.6758,861.5,476.6758" style="stroke: #000000; stroke-width: 1.0;"/><text fill="#000000" font-family="sans-serif" font-size="13" lengthAdjust="spacingAndGlyphs" textLength="7" x="770.8715" y="501.7321">1</text><text fill="#000000" font-family="sans-serif" font-size="13" lengthAdjust="spacingAndGlyphs" textLength="18" x="899.9965" y="501.3552">0,1</text><!--MD5=[6eb6e197a729f6ec2412743e0bdbca1d]
link Manager to User--><path d="M733.324,528.189 C746.247,553.009 766.17,583.009 793,600 C1173.66,841.069 1757.31,810.048 1926.82,794.935 " fill="none" id="Manager-User" style="stroke: #A80036; stroke-width: 1.0;"/><text fill="#000000" font-family="sans-serif" font-size="13" lengthAdjust="spacingAndGlyphs" textLength="43" x="1313.5" y="765.4951">acts as</text><polygon fill="#000000" points="1359.5,758.6758,1365.5,761.6758,1359.5,764.6758,1359.5,758.6758" style="stroke: #000000; stroke-width: 1.0;"/><text fill="#000000" font-family="sans-serif" font-size="13" lengthAdjust="spacingAndGlyphs" textLength="18" x="716.7669" y="548.9707">0,1</text><text fill="#000000" font-family="sans-serif" font-size="13" lengthAdjust="spacingAndGlyphs" textLength="7" x="1912.1561" y="810.3919">1</text><!--MD5=[c4629210b2ba88e64afbee18491f07dd]
link Payment to Transaction--><path d="M1355.01,558.956 C1385.13,511.587 1465.55,390.308 1551,305 C1569.38,286.65 1592.78,269.012 1611.25,256.162 " fill="none" id="Payment-Transaction" style="stroke: #A80036; stroke-width: 1.0;"/><polygon fill="#000000" points="1477.5,331,1480.5,325,1483.5,331,1477.5,331" style="stroke: #000000; stroke-width: 1.0;"/><text fill="#000000" font-family="sans-serif" font-size="13" lengthAdjust="spacingAndGlyphs" textLength="50" x="1457" y="347.4951">registers</text><text fill="#000000" font-family="sans-serif" font-size="13" lengthAdjust="spacingAndGlyphs" textLength="7" x="1350.9504" y="548.2648">1</text><text fill="#000000" font-family="sans-serif" font-size="13" lengthAdjust="spacingAndGlyphs" textLength="23" x="1576.0859" y="277.6271">1,...</text><!--MD5=[ac4dd7fdeb0fa08e65a2b7971307989b]
link Payment to EmailAPI--><path d="M1359.46,599.047 C1412.05,661.208 1572.01,850.276 1624.85,912.734 " fill="none" id="Payment-EmailAPI" style="stroke: #A80036; stroke-width: 1.0;"/><text fill="#000000" font-family="sans-serif" font-size="13" lengthAdjust="spacingAndGlyphs" textLength="28" x="1468" y="709.4951">uses</text><polygon fill="#000000" points="1477.5,718.3516,1480.5,724.3516,1483.5,718.3516,1477.5,718.3516" style="stroke: #000000; stroke-width: 1.0;"/><text fill="#000000" font-family="sans-serif" font-size="13" lengthAdjust="spacingAndGlyphs" textLength="5" x="1358.8081" y="620.4798">*</text><text fill="#000000" font-family="sans-serif" font-size="13" lengthAdjust="spacingAndGlyphs" textLength="7" x="1611.4903" y="901.9776">1</text><!--MD5=[4e8d4ca70e30f9b9e34071c7768f0551]
link Payment to PaymentAPI--><path d="M1381.65,589.72 C1436.2,604.654 1534.97,631.697 1593.92,647.837 " fill="none" id="Payment-PaymentAPI" style="stroke: #A80036; stroke-width: 1.0;"/><text fill="#000000" font-family="sans-serif" font-size="13" lengthAdjust="spacingAndGlyphs" textLength="28" x="1468" y="606.4951">uses</text><polygon fill="#000000" points="1499,599.6758,1505,602.6758,1499,605.6758,1499,599.6758" style="stroke: #000000; stroke-width: 1.0;"/><text fill="#000000" font-family="sans-serif" font-size="13" lengthAdjust="spacingAndGlyphs" textLength="5" x="1389.5136" y="606.699">*</text><text fill="#000000" font-family="sans-serif" font-size="13" lengthAdjust="spacingAndGlyphs" textLength="7" x="1578.8687" y="660.5684">1</text><!--MD5=[a5bfdb67ecdee50c8f593adbd3c04571]
link Payment to MonetaryUnitConversionAPI--><path d="M1381.65,578.346 C1424.39,577.633 1494.27,576.466 1550.87,575.521 " fill="none" id="Payment-MonetaryUnitConversionAPI" style="stroke: #A80036; stroke-width: 1.0;"/><text fill="#000000" font-family="sans-serif" font-size="13" lengthAdjust="spacingAndGlyphs" textLength="28" x="1468" y="572.4951">uses</text><polygon fill="#000000" points="1499,565.6758,1505,568.6758,1499,571.6758,1499,565.6758" style="stroke: #000000; stroke-width: 1.0;"/><text fill="#000000" font-family="sans-serif" font-size="13" lengthAdjust="spacingAndGlyphs" textLength="5" x="1389.5136" y="574.2779">*</text><text fill="#000000" font-family="sans-serif" font-size="13" lengthAdjust="spacingAndGlyphs" textLength="7" x="1535.9506" y="589.8191">1</text><!--MD5=[8e4873cec2cb3febaaa9495c716fc885]
link Transaction to Task--><path d="M1691.68,234.301 C1796.21,230.577 2046.64,221.655 2177.94,216.977 " fill="none" id="Transaction-Task" style="stroke: #A80036; stroke-width: 1.0;"/><text fill="#000000" font-family="sans-serif" font-size="13" lengthAdjust="spacingAndGlyphs" textLength="55" x="1941.5" y="217.4951">relative to</text><polygon fill="#000000" points="1999.5,210.6758,2005.5,213.6758,1999.5,216.6758,1999.5,210.6758" style="stroke: #000000; stroke-width: 1.0;"/><text fill="#000000" font-family="sans-serif" font-size="13" lengthAdjust="spacingAndGlyphs" textLength="7" x="1699.3439" y="248.7474">1</text><text fill="#000000" font-family="sans-serif" font-size="13" lengthAdjust="spacingAndGlyphs" textLength="7" x="2163.0972" y="214.0324">1</text><!--MD5=[9aa0fa191c99edeef0ce6e9ae1d37765]
link Transaction to TaskExecutionDetails--><path d="M1691.72,216.255 C1713.88,207.297 1740.65,196.77 1765,188 C1805.83,173.291 1851.64,158.258 1889.98,146.08 " fill="none" id="Transaction-TaskExecutionDetails" style="stroke: #A80036; stroke-width: 1.0;"/><text fill="#000000" font-family="sans-serif" font-size="13" lengthAdjust="spacingAndGlyphs" textLength="80" x="1766" y="152.4951">executed with</text><polygon fill="#000000" points="1849,145.6758,1855,148.6758,1849,151.6758,1849,145.6758" style="stroke: #000000; stroke-width: 1.0;"/><text fill="#000000" font-family="sans-serif" font-size="13" lengthAdjust="spacingAndGlyphs" textLength="7" x="1699.3898" y="228.0509">1</text><text fill="#000000" font-family="sans-serif" font-size="13" lengthAdjust="spacingAndGlyphs" textLength="7" x="1875.0517" y="162.6479">1</text><!--MD5=[542f32193441b56ea302115ed1249c3b]
link Transaction to Freelancer--><path d="M1691.72,245.828 C1818,272.005 2171.26,346.321 2463,418 C2472.69,420.38 2482.89,423.003 2492.89,425.639 " fill="none" id="Transaction-Freelancer" style="stroke: #A80036; stroke-width: 1.0;"/><text fill="#000000" font-family="sans-serif" font-size="13" lengthAdjust="spacingAndGlyphs" textLength="11" x="2107.5" y="327.4951">to</text><polygon fill="#000000" points="2121.5,320.6758,2127.5,323.6758,2121.5,326.6758,2121.5,320.6758" style="stroke: #000000; stroke-width: 1.0;"/><text fill="#000000" font-family="sans-serif" font-size="13" lengthAdjust="spacingAndGlyphs" textLength="5" x="1699.5631" y="262.0799">*</text><text fill="#000000" font-family="sans-serif" font-size="13" lengthAdjust="spacingAndGlyphs" textLength="7" x="2478.1123" y="420.2872">1</text><!--MD5=[9155e95983ae2a088b11740d001758c9]
link TaskExecutionDetails to Task--><path d="M2061.24,147.949 C2097.99,160.071 2140.92,174.229 2177.58,186.321 " fill="none" id="TaskExecutionDetails-Task" style="stroke: #A80036; stroke-width: 1.0;"/><text fill="#000000" font-family="sans-serif" font-size="13" lengthAdjust="spacingAndGlyphs" textLength="40" x="2093" y="154.4951">refer to</text><polygon fill="#000000" points="2136,147.6758,2142,150.6758,2136,153.6758,2136,147.6758" style="stroke: #000000; stroke-width: 1.0;"/><text fill="#000000" font-family="sans-serif" font-size="13" lengthAdjust="spacingAndGlyphs" textLength="7" x="2068.9091" y="164.5697">1</text><text fill="#000000" font-family="sans-serif" font-size="13" lengthAdjust="spacingAndGlyphs" textLength="7" x="2162.9814" y="180.7573">1</text><!--MD5=[80bfe53c9a81718400b24a13b8f52143]
link HistoricalTransactionFile to Transaction--><path d="M1426.33,251.843 C1480.49,247.864 1549.03,242.829 1594.13,239.516 " fill="none" id="HistoricalTransactionFile-Transaction" style="stroke: #A80036; stroke-width: 1.0;"/><text fill="#000000" font-family="sans-serif" font-size="13" lengthAdjust="spacingAndGlyphs" textLength="43" x="1460.5" y="241.4951">records</text><polygon fill="#000000" points="1506.5,234.6758,1512.5,237.6758,1506.5,240.6758,1506.5,234.6758" style="stroke: #000000; stroke-width: 1.0;"/><text fill="#000000" font-family="sans-serif" font-size="13" lengthAdjust="spacingAndGlyphs" textLength="7" x="1433.9209" y="265.5116">1</text><text fill="#000000" font-family="sans-serif" font-size="13" lengthAdjust="spacingAndGlyphs" textLength="5" x="1581.585" y="254.7283">*</text><!--MD5=[f8679721e8e5159e33912074b64b525d]
link PaymentScheduler to Payment--><path d="M1043.44,521.16 C1058.4,530.249 1075.34,539.154 1092,545 C1163.08,569.94 1251.58,576.699 1301.49,578.46 " fill="none" id="PaymentScheduler-Payment" style="stroke: #A80036; stroke-width: 1.0;"/><text fill="#000000" font-family="sans-serif" font-size="13" lengthAdjust="spacingAndGlyphs" textLength="120" x="1093" y="541.4951">makes automatically</text><polygon fill="#000000" points="1216,534.6758,1222,537.6758,1216,540.6758,1216,534.6758" style="stroke: #000000; stroke-width: 1.0;"/><text fill="#000000" font-family="sans-serif" font-size="13" lengthAdjust="spacingAndGlyphs" textLength="7" x="1044.6231" y="542.2254">1</text><text fill="#000000" font-family="sans-serif" font-size="13" lengthAdjust="spacingAndGlyphs" textLength="5" x="1288.3865" y="574.3607">*</text><!--MD5=[656d67bb8fa389b55c147beff5b13611]
link Organization to Colaborator--><path d="M541.313,408.702 C551.012,405.006 561.21,401.552 571,399 C703.94,364.35 866.473,351.544 945.418,347.132 " fill="none" id="Organization-Colaborator" style="stroke: #A80036; stroke-width: 1.0;"/><text fill="#000000" font-family="sans-serif" font-size="13" lengthAdjust="spacingAndGlyphs" textLength="21" x="697.5" y="359.4951">has</text><polygon fill="#000000" points="721.5,352.6758,727.5,355.6758,721.5,358.6758,721.5,352.6758" style="stroke: #000000; stroke-width: 1.0;"/><text fill="#000000" font-family="sans-serif" font-size="13" lengthAdjust="spacingAndGlyphs" textLength="7" x="548.9508" y="420.2227">1</text><text fill="#000000" font-family="sans-serif" font-size="13" lengthAdjust="spacingAndGlyphs" textLength="23" x="914.3445" y="362.0453">1,...</text><!--MD5=[bc039f41cf0b27fadee5cae63fc6e1fe]
link Organization to Manager--><path d="M541.045,443.498 C578.232,452.878 628.856,465.648 665.631,474.925 " fill="none" id="Organization-Manager" style="stroke: #A80036; stroke-width: 1.0;"/><text fill="#000000" font-family="sans-serif" font-size="13" lengthAdjust="spacingAndGlyphs" textLength="21" x="586.5" y="448.4951">has</text><polygon fill="#000000" points="610.5,441.6758,616.5,444.6758,610.5,447.6758,610.5,441.6758" style="stroke: #000000; stroke-width: 1.0;"/><text fill="#000000" font-family="sans-serif" font-size="13" lengthAdjust="spacingAndGlyphs" textLength="7" x="548.9829" y="460.0416">1</text><text fill="#000000" font-family="sans-serif" font-size="13" lengthAdjust="spacingAndGlyphs" textLength="7" x="650.9393" y="487.8836">1</text><!--MD5=[5f4f57afaa4ed75c0a27618a4620afc1]
link Organization to PaymentScheduler--><path d="M541.095,427.398 C550.996,426.816 561.324,426.304 571,426 C599.875,425.093 607.113,425.659 636,426 C692.456,426.667 707.015,421.688 763,429 C823.286,436.873 837.077,446.017 896,461 C905.631,463.449 915.783,466.096 925.745,468.732 " fill="none" id="Organization-PaymentScheduler" style="stroke: #A80036; stroke-width: 1.0;"/><text fill="#000000" font-family="sans-serif" font-size="13" lengthAdjust="spacingAndGlyphs" textLength="28" x="694" y="420.4951">uses</text><polygon fill="#000000" points="725,413.6758,731,416.6758,725,419.6758,725,413.6758" style="stroke: #000000; stroke-width: 1.0;"/><text fill="#000000" font-family="sans-serif" font-size="13" lengthAdjust="spacingAndGlyphs" textLength="7" x="549.0402" y="441.5769">1</text><text fill="#000000" font-family="sans-serif" font-size="13" lengthAdjust="spacingAndGlyphs" textLength="7" x="910.8968" y="481.1412">1</text><!--MD5=[d7637ac3eb48d4f2830e10106a654da0]
link Organization to Payment--><path d="M521.999,458.196 C554.929,485.755 610.2,526.96 666,546 C895.962,624.469 1195.65,597.514 1301.45,584.402 " fill="none" id="Organization-Payment" style="stroke: #A80036; stroke-width: 1.0;"/><text fill="#000000" font-family="sans-serif" font-size="13" lengthAdjust="spacingAndGlyphs" textLength="88" x="794" y="574.4951">responsable by</text><polygon fill="#000000" points="885,567.6758,891,570.6758,885,573.6758,885,567.6758" style="stroke: #000000; stroke-width: 1.0;"/><text fill="#000000" font-family="sans-serif" font-size="13" lengthAdjust="spacingAndGlyphs" textLength="7" x="521.1238" y="479.4466">1</text><text fill="#000000" font-family="sans-serif" font-size="13" lengthAdjust="spacingAndGlyphs" textLength="5" x="1288.6048" y="600.4005">*</text><!--MD5=[4078351e3988aa35b1504a42837f2ab1]
link Organization to Task--><path d="M495.309,403.698 C502.73,359.446 522.836,271.344 571,215 C602.416,178.249 620.363,177.963 666,162 C1015.33,39.81 1117.42,26 1487.5,26 C1487.5,26 1487.5,26 1976.5,26 C2074.15,26 2164.15,103.86 2215.91,159.37 " fill="none" id="Organization-Task" style="stroke: #A80036; stroke-width: 1.0;"/><text fill="#000000" font-family="sans-serif" font-size="13" lengthAdjust="spacingAndGlyphs" textLength="55" x="1307.5" y="22.4951">publishes</text><polygon fill="#000000" points="1365.5,15.6758,1371.5,18.6758,1365.5,21.6758,1365.5,15.6758" style="stroke: #000000; stroke-width: 1.0;"/><text fill="#000000" font-family="sans-serif" font-size="13" lengthAdjust="spacingAndGlyphs" textLength="7" x="488.6117" y="393.0891">1</text><text fill="#000000" font-family="sans-serif" font-size="13" lengthAdjust="spacingAndGlyphs" textLength="5" x="2204.3135" y="148.4608">*</text><!--MD5=[42a7202f7cf6325e6697bc6383dceeb9]
link Organization to Transaction--><path d="M501.09,403.734 C525.552,339.685 596.718,185 713.5,185 C713.5,185 713.5,185 1160.5,185 C1320.22,185 1508.08,213.093 1594.34,227.578 " fill="none" id="Organization-Transaction" style="stroke: #A80036; stroke-width: 1.0;"/><text fill="#000000" font-family="sans-serif" font-size="13" lengthAdjust="spacingAndGlyphs" textLength="63" x="956" y="181.4951">has unpaid</text><polygon fill="#000000" points="1022,174.6758,1028,177.6758,1022,180.6758,1022,174.6758" style="stroke: #000000; stroke-width: 1.0;"/><text fill="#000000" font-family="sans-serif" font-size="13" lengthAdjust="spacingAndGlyphs" textLength="7" x="504.3483" y="393.1335">1</text><text fill="#000000" font-family="sans-serif" font-size="13" lengthAdjust="spacingAndGlyphs" textLength="5" x="1581.5061" y="222.5854">*</text><!--MD5=[8853e9d83a8841c20c4ef075af762602]
link Task to Freelancer--><path d="M2347.18,264.489 C2383.91,287.978 2426.82,317.264 2463,347 C2473,355.221 2483.12,364.337 2492.85,373.596 " fill="none" id="Task-Freelancer" style="stroke: #A80036; stroke-width: 1.0;"/><text fill="#000000" font-family="sans-serif" font-size="13" lengthAdjust="spacingAndGlyphs" textLength="71" x="2378" y="280.4951">executed by</text><polygon fill="#000000" points="2452,273.6758,2458,276.6758,2452,279.6758,2452,273.6758" style="stroke: #000000; stroke-width: 1.0;"/><text fill="#000000" font-family="sans-serif" font-size="13" lengthAdjust="spacingAndGlyphs" textLength="5" x="2354.9445" y="283.2009">*</text><text fill="#000000" font-family="sans-serif" font-size="13" lengthAdjust="spacingAndGlyphs" textLength="22" x="2463.1079" y="380.9809">0, 1</text><!--MD5=[939acada67c666032ddf52a0068bc128]
link App to MonetaryUnitConversionAPI--><path d="M33.3315,824.755 C32.8088,698.636 37.9229,26 206.5,26 C206.5,26 206.5,26 604.5,26 C836.886,26 1520.61,243.64 1521,244 C1527.11,249.582 1609.8,482.813 1634.86,553.746 " fill="none" id="App-MonetaryUnitConversionAPI" style="stroke: #A80036; stroke-width: 1.0;"/><text fill="#000000" font-family="sans-serif" font-size="13" lengthAdjust="spacingAndGlyphs" textLength="50" x="683" y="25.4951">supports</text><polygon fill="#000000" points="736,18.6758,742,21.6758,736,24.6758,736,18.6758" style="stroke: #000000; stroke-width: 1.0;"/><text fill="#000000" font-family="sans-serif" font-size="13" lengthAdjust="spacingAndGlyphs" textLength="7" x="25.5476" y="814.0048">1</text><text fill="#000000" font-family="sans-serif" font-size="13" lengthAdjust="spacingAndGlyphs" textLength="7" x="1624.4408" y="542.9931">1</text><!--MD5=[1370966fb1e3885ea6828d35f10d9d48]
link App to Organization--><path d="M35.1874,824.897 C39.0655,789.774 51.3953,716.461 89,669 C183.431,549.817 355.159,477.329 439.726,447.229 " fill="none" id="App-Organization" style="stroke: #A80036; stroke-width: 1.0;"/><text fill="#000000" font-family="sans-serif" font-size="13" lengthAdjust="spacingAndGlyphs" textLength="21" x="190.5" y="527.4951">has</text><polygon fill="#000000" points="214.5,520.6758,220.5,523.6758,214.5,526.6758,214.5,520.6758" style="stroke: #000000; stroke-width: 1.0;"/><text fill="#000000" font-family="sans-serif" font-size="13" lengthAdjust="spacingAndGlyphs" textLength="7" x="37.0049" y="814.1885">1</text><text fill="#000000" font-family="sans-serif" font-size="13" lengthAdjust="spacingAndGlyphs" textLength="5" x="426.9014" y="464.3206">*</text><!--MD5=[1cb21011969cc62c73f846209be643c8]
link App to EmailAPI--><path d="M40.2843,865.237 C58.4917,915.315 113.457,1041 206.5,1041 C206.5,1041 206.5,1041 1342.5,1041 C1445.03,1041 1556.23,984.294 1609.7,953.061 " fill="none" id="App-EmailAPI" style="stroke: #A80036; stroke-width: 1.0;"/><text fill="#000000" font-family="sans-serif" font-size="13" lengthAdjust="spacingAndGlyphs" textLength="50" x="683" y="1037.4951">supports</text><polygon fill="#000000" points="736,1030.6758,742,1033.6758,736,1036.6758,736,1030.6758" style="stroke: #000000; stroke-width: 1.0;"/><text fill="#000000" font-family="sans-serif" font-size="13" lengthAdjust="spacingAndGlyphs" textLength="7" x="34.4357" y="886.3681">1</text><text fill="#000000" font-family="sans-serif" font-size="13" lengthAdjust="spacingAndGlyphs" textLength="7" x="1592.35" y="974.4977">1</text><!--MD5=[c476b523f9294f20b13319074aa597a2]
link App to PaymentAPI--><path d="M59.0962,845.816 C83.6822,846.555 121.875,847.591 155,848 C201.663,848.576 213.336,848.464 260,848 C616.963,844.452 712.729,877.788 1062,804 C1150.85,785.23 1169.16,766.039 1257,743 C1377.14,711.487 1520.75,683.389 1593.95,669.74 " fill="none" id="App-PaymentAPI" style="stroke: #A80036; stroke-width: 1.0;"/><text fill="#000000" font-family="sans-serif" font-size="13" lengthAdjust="spacingAndGlyphs" textLength="50" x="683" y="844.4951">supports</text><polygon fill="#000000" points="736,837.6758,742,840.6758,736,843.6758,736,837.6758" style="stroke: #000000; stroke-width: 1.0;"/><text fill="#000000" font-family="sans-serif" font-size="13" lengthAdjust="spacingAndGlyphs" textLength="7" x="67.1846" y="861.7277">1</text><text fill="#000000" font-family="sans-serif" font-size="13" lengthAdjust="spacingAndGlyphs" textLength="7" x="1578.9033" y="685.8253">1</text><!--MD5=[96d7ba993ba442b366771602ebe86063]
link App to Payment--><path d="M48.1014,824.729 C68.6048,798.045 108.652,752.059 155,731 C591.659,532.592 755.001,692.165 1227,607 C1251.97,602.495 1279.61,595.714 1301.37,589.953 " fill="none" id="App-Payment" style="stroke: #A80036; stroke-width: 1.0;"/><text fill="#000000" font-family="sans-serif" font-size="13" lengthAdjust="spacingAndGlyphs" textLength="50" x="572" y="621.4951">registers</text><polygon fill="#000000" points="625,614.6758,631,617.6758,625,620.6758,625,614.6758" style="stroke: #000000; stroke-width: 1.0;"/><text fill="#000000" font-family="sans-serif" font-size="13" lengthAdjust="spacingAndGlyphs" textLength="7" x="53.7124" y="813.9711">1</text><text fill="#000000" font-family="sans-serif" font-size="13" lengthAdjust="spacingAndGlyphs" textLength="5" x="1288.4347" y="610.0236">*</text><!--MD5=[66e1bf42337190a3177776b035b1a873]
link App to Administrator--><path d="M59.0267,836.737 C84.1221,828.614 123.149,815.981 154.752,805.751 " fill="none" id="App-Administrator" style="stroke: #A80036; stroke-width: 1.0;"/><text fill="#000000" font-family="sans-serif" font-size="13" lengthAdjust="spacingAndGlyphs" textLength="21" x="90" y="813.4951">has</text><polygon fill="#000000" points="114,806.6758,120,809.6758,114,812.6758,114,806.6758" style="stroke: #000000; stroke-width: 1.0;"/><text fill="#000000" font-family="sans-serif" font-size="13" lengthAdjust="spacingAndGlyphs" textLength="7" x="67.0964" y="829.9087">1</text><text fill="#000000" font-family="sans-serif" font-size="13" lengthAdjust="spacingAndGlyphs" textLength="5" x="141.9828" y="822.7861">*</text><!--MD5=[d88947b97cc296deaa09f9756953ae3a]
link App to Freelancer--><path d="M35.9652,865.425 C45.0695,930.543 82.951,1129 206.5,1129 C206.5,1129 206.5,1129 2263.5,1129 C2395.08,1129 2504.21,697.742 2543.67,519.595 " fill="none" id="App-Freelancer" style="stroke: #A80036; stroke-width: 1.0;"/><text fill="#000000" font-family="sans-serif" font-size="13" lengthAdjust="spacingAndGlyphs" textLength="21" x="1142.5" y="1125.4951">has</text><polygon fill="#000000" points="1166.5,1118.6758,1172.5,1121.6758,1166.5,1124.6758,1166.5,1118.6758" style="stroke: #000000; stroke-width: 1.0;"/><text fill="#000000" font-family="sans-serif" font-size="13" lengthAdjust="spacingAndGlyphs" textLength="7" x="28.9558" y="886.6066">1</text><text fill="#000000" font-family="sans-serif" font-size="13" lengthAdjust="spacingAndGlyphs" textLength="5" x="2536.9484" y="540.5649">*</text><!--MD5=[63a18bfb0c55f564ea81086f541b4ad2]
link App to EmailScheduler--><path d="M41.3594,865.195 C49.9843,884.457 65.7671,912.602 89,927 C149.878,964.728 234.068,969.313 289.96,967.236 " fill="none" id="App-EmailScheduler" style="stroke: #A80036; stroke-width: 1.0;"/><text fill="#000000" font-family="sans-serif" font-size="13" lengthAdjust="spacingAndGlyphs" textLength="21" x="90" y="923.4951">has</text><polygon fill="#000000" points="114,916.6758,120,919.6758,114,922.6758,114,916.6758" style="stroke: #000000; stroke-width: 1.0;"/><text fill="#000000" font-family="sans-serif" font-size="13" lengthAdjust="spacingAndGlyphs" textLength="7" x="44.8355" y="886.6694">1</text><text fill="#000000" font-family="sans-serif" font-size="13" lengthAdjust="spacingAndGlyphs" textLength="7" x="274.8189" y="982.4495">1</text><!--MD5=[62b22ab9dd7e0fc0219b5bb8924f5993]
link EmailScheduler to EmailAPI--><path d="M410.183,964.945 C461.138,967.226 536.644,970 602.5,970 C602.5,970 602.5,970 1342.5,970 C1436.02,970 1544.73,952.011 1601.99,941.12 " fill="none" id="EmailScheduler-EmailAPI" style="stroke: #A80036; stroke-width: 1.0;"/><text fill="#000000" font-family="sans-serif" font-size="13" lengthAdjust="spacingAndGlyphs" textLength="28" x="824" y="966.4951">uses</text><polygon fill="#000000" points="855,959.6758,861,962.6758,855,965.6758,855,959.6758" style="stroke: #000000; stroke-width: 1.0;"/><text fill="#000000" font-family="sans-serif" font-size="13" lengthAdjust="spacingAndGlyphs" textLength="7" x="417.9444" y="979.7955">1</text><text fill="#000000" font-family="sans-serif" font-size="13" lengthAdjust="spacingAndGlyphs" textLength="7" x="1587.0617" y="957.5178">1</text><!--MD5=[2a41c1af413c0662bf55a6b8913ea24f]
link Administrator to Organization--><path d="M249.616,747.693 C292.207,703.845 359.478,631.552 410,563 C435.394,528.543 460.1,485.595 475.059,458.229 " fill="none" id="Administrator-Organization" style="stroke: #A80036; stroke-width: 1.0;"/><polygon fill="#000000" points="339,556,342,550,345,556,339,556" style="stroke: #000000; stroke-width: 1.0;"/><text fill="#000000" font-family="sans-serif" font-size="13" lengthAdjust="spacingAndGlyphs" textLength="28" x="329.5" y="572.4951">adds</text><text fill="#000000" font-family="sans-serif" font-size="13" lengthAdjust="spacingAndGlyphs" textLength="7" x="249.0118" y="737.0915">1</text><text fill="#000000" font-family="sans-serif" font-size="13" lengthAdjust="spacingAndGlyphs" textLength="5" x="466.1344" y="479.4869">*</text><!--MD5=[edc107c0a572352bcd12c9afaba4390b]
link Administrator to User--><path d="M260.028,790.466 C316.38,791.942 409.358,794 489.5,794 C489.5,794 489.5,794 845.5,794 C1159.16,794 1237.37,808 1551,812 C1688.32,813.752 1723.28,825.015 1860,812 C1882.17,809.89 1906.42,805.531 1926.88,801.246 " fill="none" id="Administrator-User" style="stroke: #A80036; stroke-width: 1.0;"/><text fill="#000000" font-family="sans-serif" font-size="13" lengthAdjust="spacingAndGlyphs" textLength="43" x="966" y="790.4951">acts as</text><polygon fill="#000000" points="1012,783.6758,1018,786.6758,1012,789.6758,1012,783.6758" style="stroke: #000000; stroke-width: 1.0;"/><text fill="#000000" font-family="sans-serif" font-size="13" lengthAdjust="spacingAndGlyphs" textLength="18" x="267.9113" y="805.228">0,1</text><text fill="#000000" font-family="sans-serif" font-size="13" lengthAdjust="spacingAndGlyphs" textLength="7" x="1911.8991" y="799.3028">1</text><!--MD5=[d633b45690d51141bd211d849cad7ced]
link EmailAPI to User--><path d="M1684.3,927.733 C1729,920.776 1802.4,905.989 1860,878 C1885.03,865.838 1909.88,847.678 1930,831.008 " fill="none" id="EmailAPI-User" style="stroke: #A80036; stroke-width: 1.0;"/><text fill="#000000" font-family="sans-serif" font-size="13" lengthAdjust="spacingAndGlyphs" textLength="42" x="1785" y="874.4951">e-mails</text><polygon fill="#000000" points="1830,867.6758,1836,870.6758,1830,873.6758,1830,867.6758" style="stroke: #000000; stroke-width: 1.0;"/><text fill="#000000" font-family="sans-serif" font-size="13" lengthAdjust="spacingAndGlyphs" textLength="7" x="1692" y="941.7281">1</text><text fill="#000000" font-family="sans-serif" font-size="13" lengthAdjust="spacingAndGlyphs" textLength="5" x="1917.65" y="852.0721">*</text><!--MD5=[cbdd6193c065fcdcc21acc530d8838bb]
link EmailAPI to Freelancer--><path d="M1684.19,932.457 C1761.67,929.84 1935.13,916.258 2061,849 C2232.86,757.167 2402.38,601.991 2492.67,512.742 " fill="none" id="EmailAPI-Freelancer" style="stroke: #A80036; stroke-width: 1.0;"/><text fill="#000000" font-family="sans-serif" font-size="13" lengthAdjust="spacingAndGlyphs" textLength="42" x="2092" y="793.4951">e-mails</text><polygon fill="#000000" points="2137,786.6758,2143,789.6758,2137,792.6758,2137,786.6758" style="stroke: #000000; stroke-width: 1.0;"/><text fill="#000000" font-family="sans-serif" font-size="13" lengthAdjust="spacingAndGlyphs" textLength="7" x="1691.8711" y="928.514">1</text><text fill="#000000" font-family="sans-serif" font-size="13" lengthAdjust="spacingAndGlyphs" textLength="5" x="2479.9777" y="534.6671">*</text><!--MD5=[2f1eb4c7aa0c5807fcdd25598ca740fe]
@startuml MD

skinparam classAttributeIconSize 0
hide methods
left to right direction

class Colaborator {
        - String nome
        - String email
        - String password
}

class Manager {
        - String nome
        - String email
        - String password
}

class Transaction {

}

class TaskExecutionDetails {
        - Date endDate
        - Integer delayInDays
        - String DescriptionQualityOfWork
}

class HistoricalTransactionFile {

}

class PaymentScheduler {
        - Integer dayMonth
        - LocalTime timeOfDay
}

class Organization {
        - String nome
}

class Task {
        - String id
        - String description
        - Integer durationInHours
        - Double costPerHourOfJuniorEur
        - String category
}

class App {

}

class Administrator {
        - String nome
        - String email
        - String password
}

class EmailScheduler {

}

class User {
        - String nome
        - String email
        - String password
}

class Freelancer {
        - String id
        - String name
        - String levelOfExpertise
        - String email
        - String NIF
        - String bankAccountIBAN
        - String address
        - String country
}

Colaborator                  "1" - - "*"      Payment                   : creates >
Colaborator                  "1" - - "*"      Task                      : creates >
Colaborator                  "1" - - "*"      Freelancer                : creates >
Colaborator                  "1" - - "*"      HistoricalTransactionFile : loads >
Colaborator                "0,1" - - "1"      User                      : acts as >
Manager                      "1" - - "0,1"    PaymentScheduler          : defines >
Manager                    "0,1" - - "1"      User                      : acts as >
Payment                      "1" - - "1,..."  Transaction               : registers >
Payment                      "*" - - "1"      EmailAPI                  : uses >
Payment                      "*" - - "1"      PaymentAPI                : uses >
Payment                      "*" - - "1"      MonetaryUnitConversionAPI : uses >
Transaction                  "1" - - "1"      Task                      : relative to >
Transaction                  "1" - - "1"      TaskExecutionDetails      : executed with >
Transaction                  "*" - - "1"      Freelancer                : to >
TaskExecutionDetails         "1" - - "1"      Task                      : refer to >
HistoricalTransactionFile    "1" - - "*"      Transaction               : records >
PaymentScheduler             "1" - - "*"      Payment                   : makes automatically >
Organization                 "1" - - "1,..."  Colaborator               : has >
Organization                 "1" - - "1"      Manager                   : has >
Organization                 "1" - - "1"      PaymentScheduler          : uses >
Organization                 "1" - - "*"      Payment                   : responsable by >
Organization                 "1" - - "*"      Task                      : publishes >
Organization                 "1" - - "*"      Transaction               : has unpaid >
Task                         "*" - - "0, 1"   Freelancer                : executed by >
App                          "1" - - "1"      MonetaryUnitConversionAPI : supports >
App                          "1" - - "*"      Organization              : has >
App                          "1" - - "1"      EmailAPI                  : supports >
App                          "1" - - "1"      PaymentAPI                : supports >
App                          "1" - - "*"      Payment                   : registers >
App                          "1" - - "*"      Administrator             : has >
App                          "1" - - "*"      Freelancer                : has >
App                          "1" - - "1"      EmailScheduler            : has >
EmailScheduler               "1" - - "1"      EmailAPI                  : uses >
Administrator                "1" - - "*"      Organization              : adds >
Administrator              "0,1" - - "1"      User                      : acts as >
EmailAPI                     "1" - - "*"      User                      : e-mails >
EmailAPI                     "1" - - "*"      Freelancer                : e-mails >

@enduml

PlantUML version 1.2020.10(Sun May 17 10:35:57 WEST 2020)
(GPL source distribution)
Java Runtime: OpenJDK Runtime Environment
JVM: OpenJDK 64-Bit Server VM
Java Version: 14+36
Operating System: Windows 10
Default Encoding: Cp1252
Language: en
Country: US
--></g></svg>