<?xml version="1.0" encoding="UTF-8" standalone="no"?><svg xmlns="http://www.w3.org/2000/svg" xmlns:xlink="http://www.w3.org/1999/xlink" contentScriptType="application/ecmascript" contentStyleType="text/css" height="1248px" preserveAspectRatio="none" style="width:2589px;height:1248px;" version="1.1" viewBox="0 0 2589 1248" width="2589px" zoomAndPan="magnify"><defs><filter height="300%" id="f12is8ubegst5c" width="300%" x="-1" y="-1"><feGaussianBlur result="blurOut" stdDeviation="2.0"/><feColorMatrix in="blurOut" result="blurOut2" type="matrix" values="0 0 0 0 0 0 0 0 0 0 0 0 0 0 0 0 0 0 .4 0"/><feOffset dx="4.0" dy="4.0" in="blurOut2" result="blurOut3"/><feBlend in="SourceGraphic" in2="blurOut3" mode="normal"/></filter></defs><g><!--MD5=[f483d6e5de34a60207b28a5563be5e8b]
class Collaborator--><rect fill="#FEFECE" filter="url(#f12is8ubegst5c)" height="81.5078" id="Collaborator" style="stroke: #A80036; stroke-width: 1.5;" width="100" x="958" y="240"/><ellipse cx="973" cy="256" fill="#ADD1B2" rx="11" ry="11" style="stroke: #A80036; stroke-width: 1.0;"/><path d="M975.7656,251.875 Q975.9219,251.6563 976.1094,251.5469 Q976.2969,251.4375 976.5156,251.4375 Q976.8906,251.4375 977.125,251.7031 Q977.3594,251.9531 977.3594,252.5625 L977.3594,254.0156 Q977.3594,254.625 977.125,254.8906 Q976.8906,255.1563 976.5156,255.1563 Q976.1719,255.1563 975.9688,254.9531 Q975.7656,254.7656 975.6563,254.25 Q975.6094,253.8906 975.4219,253.7031 Q975.0938,253.3281 974.4844,253.1094 Q973.875,252.8906 973.25,252.8906 Q972.4844,252.8906 971.8438,253.2188 Q971.2188,253.5469 970.7188,254.2969 Q970.2344,255.0469 970.2344,256.0781 L970.2344,257.1719 Q970.2344,258.4063 971.125,259.2344 Q972.0156,260.0469 973.6094,260.0469 Q974.5469,260.0469 975.2031,259.7969 Q975.5938,259.6406 976.0156,259.2031 Q976.2813,258.9375 976.4219,258.8594 Q976.5781,258.7813 976.7813,258.7813 Q977.1094,258.7813 977.3594,259.0469 Q977.625,259.2969 977.625,259.6406 Q977.625,259.9844 977.2813,260.3906 Q976.7813,260.9688 975.9844,261.2969 Q974.9063,261.75 973.6094,261.75 Q972.0938,261.75 970.8906,261.125 Q969.9063,260.625 969.2188,259.5625 Q968.5313,258.4844 968.5313,257.2031 L968.5313,256.0469 Q968.5313,254.7188 969.1406,253.5781 Q969.7656,252.4219 970.8594,251.8125 Q971.9531,251.1875 973.1875,251.1875 Q973.9219,251.1875 974.5625,251.3594 Q975.2188,251.5156 975.7656,251.875 Z "/><text fill="#000000" font-family="sans-serif" font-size="12" lengthAdjust="spacingAndGlyphs" textLength="68" x="987" y="260.9102">Collaborator</text><line style="stroke: #A80036; stroke-width: 1.5;" x1="959" x2="1057" y1="272" y2="272"/><text fill="#000000" font-family="sans-serif" font-size="11" lengthAdjust="spacingAndGlyphs" textLength="61" x="964" y="287.4189">-String nome</text><text fill="#000000" font-family="sans-serif" font-size="11" lengthAdjust="spacingAndGlyphs" textLength="59" x="964" y="301.2549">-String email</text><text fill="#000000" font-family="sans-serif" font-size="11" lengthAdjust="spacingAndGlyphs" textLength="85" x="964" y="315.0908">-String password</text><!--MD5=[b24ed8d4ae84bae9290d9aab401637c7]
class Manager--><rect fill="#FEFECE" filter="url(#f12is8ubegst5c)" height="81.5078" id="Manager" style="stroke: #A80036; stroke-width: 1.5;" width="97" x="666" y="624"/><ellipse cx="688.65" cy="640" fill="#ADD1B2" rx="11" ry="11" style="stroke: #A80036; stroke-width: 1.0;"/><path d="M691.4156,635.875 Q691.5719,635.6563 691.7594,635.5469 Q691.9469,635.4375 692.1656,635.4375 Q692.5406,635.4375 692.775,635.7031 Q693.0094,635.9531 693.0094,636.5625 L693.0094,638.0156 Q693.0094,638.625 692.775,638.8906 Q692.5406,639.1563 692.1656,639.1563 Q691.8219,639.1563 691.6188,638.9531 Q691.4156,638.7656 691.3063,638.25 Q691.2594,637.8906 691.0719,637.7031 Q690.7438,637.3281 690.1344,637.1094 Q689.525,636.8906 688.9,636.8906 Q688.1344,636.8906 687.4938,637.2188 Q686.8688,637.5469 686.3688,638.2969 Q685.8844,639.0469 685.8844,640.0781 L685.8844,641.1719 Q685.8844,642.4063 686.775,643.2344 Q687.6656,644.0469 689.2594,644.0469 Q690.1969,644.0469 690.8531,643.7969 Q691.2438,643.6406 691.6656,643.2031 Q691.9313,642.9375 692.0719,642.8594 Q692.2281,642.7813 692.4313,642.7813 Q692.7594,642.7813 693.0094,643.0469 Q693.275,643.2969 693.275,643.6406 Q693.275,643.9844 692.9313,644.3906 Q692.4313,644.9688 691.6344,645.2969 Q690.5563,645.75 689.2594,645.75 Q687.7438,645.75 686.5406,645.125 Q685.5563,644.625 684.8688,643.5625 Q684.1813,642.4844 684.1813,641.2031 L684.1813,640.0469 Q684.1813,638.7188 684.7906,637.5781 Q685.4156,636.4219 686.5094,635.8125 Q687.6031,635.1875 688.8375,635.1875 Q689.5719,635.1875 690.2125,635.3594 Q690.8688,635.5156 691.4156,635.875 Z "/><text fill="#000000" font-family="sans-serif" font-size="12" lengthAdjust="spacingAndGlyphs" textLength="48" x="704.35" y="644.9102">Manager</text><line style="stroke: #A80036; stroke-width: 1.5;" x1="667" x2="762" y1="656" y2="656"/><text fill="#000000" font-family="sans-serif" font-size="11" lengthAdjust="spacingAndGlyphs" textLength="61" x="672" y="671.4189">-String nome</text><text fill="#000000" font-family="sans-serif" font-size="11" lengthAdjust="spacingAndGlyphs" textLength="59" x="672" y="685.2549">-String email</text><text fill="#000000" font-family="sans-serif" font-size="11" lengthAdjust="spacingAndGlyphs" textLength="85" x="672" y="699.0908">-String password</text><!--MD5=[4555bb1b0911a5adf28ce6dbe60fed2e]
class Transaction--><rect fill="#FEFECE" filter="url(#f12is8ubegst5c)" height="40" id="Transaction" style="stroke: #A80036; stroke-width: 1.5;" width="97" x="1544.5" y="262"/><ellipse cx="1559.5" cy="278" fill="#ADD1B2" rx="11" ry="11" style="stroke: #A80036; stroke-width: 1.0;"/><path d="M1562.2656,273.875 Q1562.4219,273.6563 1562.6094,273.5469 Q1562.7969,273.4375 1563.0156,273.4375 Q1563.3906,273.4375 1563.625,273.7031 Q1563.8594,273.9531 1563.8594,274.5625 L1563.8594,276.0156 Q1563.8594,276.625 1563.625,276.8906 Q1563.3906,277.1563 1563.0156,277.1563 Q1562.6719,277.1563 1562.4688,276.9531 Q1562.2656,276.7656 1562.1563,276.25 Q1562.1094,275.8906 1561.9219,275.7031 Q1561.5938,275.3281 1560.9844,275.1094 Q1560.375,274.8906 1559.75,274.8906 Q1558.9844,274.8906 1558.3438,275.2188 Q1557.7188,275.5469 1557.2188,276.2969 Q1556.7344,277.0469 1556.7344,278.0781 L1556.7344,279.1719 Q1556.7344,280.4063 1557.625,281.2344 Q1558.5156,282.0469 1560.1094,282.0469 Q1561.0469,282.0469 1561.7031,281.7969 Q1562.0938,281.6406 1562.5156,281.2031 Q1562.7813,280.9375 1562.9219,280.8594 Q1563.0781,280.7813 1563.2813,280.7813 Q1563.6094,280.7813 1563.8594,281.0469 Q1564.125,281.2969 1564.125,281.6406 Q1564.125,281.9844 1563.7813,282.3906 Q1563.2813,282.9688 1562.4844,283.2969 Q1561.4063,283.75 1560.1094,283.75 Q1558.5938,283.75 1557.3906,283.125 Q1556.4063,282.625 1555.7188,281.5625 Q1555.0313,280.4844 1555.0313,279.2031 L1555.0313,278.0469 Q1555.0313,276.7188 1555.6406,275.5781 Q1556.2656,274.4219 1557.3594,273.8125 Q1558.4531,273.1875 1559.6875,273.1875 Q1560.4219,273.1875 1561.0625,273.3594 Q1561.7188,273.5156 1562.2656,273.875 Z "/><text fill="#000000" font-family="sans-serif" font-size="12" lengthAdjust="spacingAndGlyphs" textLength="65" x="1573.5" y="282.9102">Transaction</text><line style="stroke: #A80036; stroke-width: 1.5;" x1="1545.5" x2="1640.5" y1="294" y2="294"/><!--MD5=[f9fa7692a1144bec397c3ffa19589ca2]
class TaskExecutionDetails--><rect fill="#FEFECE" filter="url(#f12is8ubegst5c)" height="81.5078" id="TaskExecutionDetails" style="stroke: #A80036; stroke-width: 1.5;" width="171" x="1840" y="154"/><ellipse cx="1864" cy="170" fill="#ADD1B2" rx="11" ry="11" style="stroke: #A80036; stroke-width: 1.0;"/><path d="M1866.7656,165.875 Q1866.9219,165.6563 1867.1094,165.5469 Q1867.2969,165.4375 1867.5156,165.4375 Q1867.8906,165.4375 1868.125,165.7031 Q1868.3594,165.9531 1868.3594,166.5625 L1868.3594,168.0156 Q1868.3594,168.625 1868.125,168.8906 Q1867.8906,169.1563 1867.5156,169.1563 Q1867.1719,169.1563 1866.9688,168.9531 Q1866.7656,168.7656 1866.6563,168.25 Q1866.6094,167.8906 1866.4219,167.7031 Q1866.0938,167.3281 1865.4844,167.1094 Q1864.875,166.8906 1864.25,166.8906 Q1863.4844,166.8906 1862.8438,167.2188 Q1862.2188,167.5469 1861.7188,168.2969 Q1861.2344,169.0469 1861.2344,170.0781 L1861.2344,171.1719 Q1861.2344,172.4063 1862.125,173.2344 Q1863.0156,174.0469 1864.6094,174.0469 Q1865.5469,174.0469 1866.2031,173.7969 Q1866.5938,173.6406 1867.0156,173.2031 Q1867.2813,172.9375 1867.4219,172.8594 Q1867.5781,172.7813 1867.7813,172.7813 Q1868.1094,172.7813 1868.3594,173.0469 Q1868.625,173.2969 1868.625,173.6406 Q1868.625,173.9844 1868.2813,174.3906 Q1867.7813,174.9688 1866.9844,175.2969 Q1865.9063,175.75 1864.6094,175.75 Q1863.0938,175.75 1861.8906,175.125 Q1860.9063,174.625 1860.2188,173.5625 Q1859.5313,172.4844 1859.5313,171.2031 L1859.5313,170.0469 Q1859.5313,168.7188 1860.1406,167.5781 Q1860.7656,166.4219 1861.8594,165.8125 Q1862.9531,165.1875 1864.1875,165.1875 Q1864.9219,165.1875 1865.5625,165.3594 Q1866.2188,165.5156 1866.7656,165.875 Z "/><text fill="#000000" font-family="sans-serif" font-size="12" lengthAdjust="spacingAndGlyphs" textLength="119" x="1880" y="174.9102">TaskExecutionDetails</text><line style="stroke: #A80036; stroke-width: 1.5;" x1="1841" x2="2010" y1="186" y2="186"/><text fill="#000000" font-family="sans-serif" font-size="11" lengthAdjust="spacingAndGlyphs" textLength="95" x="1846" y="201.4189">-LocalDate endDate</text><text fill="#000000" font-family="sans-serif" font-size="11" lengthAdjust="spacingAndGlyphs" textLength="99" x="1846" y="215.2549">-Integer delayInDays</text><text fill="#000000" font-family="sans-serif" font-size="11" lengthAdjust="spacingAndGlyphs" textLength="159" x="1846" y="229.0908">-String DescriptionQualityOfWork</text><!--MD5=[6e5bbc712ea226b699d2ce44e283e8b8]
class HistoricalTransactionFile--><rect fill="#FEFECE" filter="url(#f12is8ubegst5c)" height="40" id="HistoricalTransactionFile" style="stroke: #A80036; stroke-width: 1.5;" width="169" x="1210" y="242"/><ellipse cx="1225" cy="258" fill="#ADD1B2" rx="11" ry="11" style="stroke: #A80036; stroke-width: 1.0;"/><path d="M1227.7656,253.875 Q1227.9219,253.6563 1228.1094,253.5469 Q1228.2969,253.4375 1228.5156,253.4375 Q1228.8906,253.4375 1229.125,253.7031 Q1229.3594,253.9531 1229.3594,254.5625 L1229.3594,256.0156 Q1229.3594,256.625 1229.125,256.8906 Q1228.8906,257.1563 1228.5156,257.1563 Q1228.1719,257.1563 1227.9688,256.9531 Q1227.7656,256.7656 1227.6563,256.25 Q1227.6094,255.8906 1227.4219,255.7031 Q1227.0938,255.3281 1226.4844,255.1094 Q1225.875,254.8906 1225.25,254.8906 Q1224.4844,254.8906 1223.8438,255.2188 Q1223.2188,255.5469 1222.7188,256.2969 Q1222.2344,257.0469 1222.2344,258.0781 L1222.2344,259.1719 Q1222.2344,260.4063 1223.125,261.2344 Q1224.0156,262.0469 1225.6094,262.0469 Q1226.5469,262.0469 1227.2031,261.7969 Q1227.5938,261.6406 1228.0156,261.2031 Q1228.2813,260.9375 1228.4219,260.8594 Q1228.5781,260.7813 1228.7813,260.7813 Q1229.1094,260.7813 1229.3594,261.0469 Q1229.625,261.2969 1229.625,261.6406 Q1229.625,261.9844 1229.2813,262.3906 Q1228.7813,262.9688 1227.9844,263.2969 Q1226.9063,263.75 1225.6094,263.75 Q1224.0938,263.75 1222.8906,263.125 Q1221.9063,262.625 1221.2188,261.5625 Q1220.5313,260.4844 1220.5313,259.2031 L1220.5313,258.0469 Q1220.5313,256.7188 1221.1406,255.5781 Q1221.7656,254.4219 1222.8594,253.8125 Q1223.9531,253.1875 1225.1875,253.1875 Q1225.9219,253.1875 1226.5625,253.3594 Q1227.2188,253.5156 1227.7656,253.875 Z "/><text fill="#000000" font-family="sans-serif" font-size="12" lengthAdjust="spacingAndGlyphs" textLength="137" x="1239" y="262.9102">HistoricalTransactionFile</text><line style="stroke: #A80036; stroke-width: 1.5;" x1="1211" x2="1378" y1="274" y2="274"/><!--MD5=[dc84a4e894a42f8e8d7fc762e5a59f92]
class PaymentScheduler--><rect fill="#FEFECE" filter="url(#f12is8ubegst5c)" height="67.6719" id="PaymentScheduler" style="stroke: #A80036; stroke-width: 1.5;" width="136" x="940" y="638"/><ellipse cx="955" cy="654" fill="#ADD1B2" rx="11" ry="11" style="stroke: #A80036; stroke-width: 1.0;"/><path d="M957.7656,649.875 Q957.9219,649.6563 958.1094,649.5469 Q958.2969,649.4375 958.5156,649.4375 Q958.8906,649.4375 959.125,649.7031 Q959.3594,649.9531 959.3594,650.5625 L959.3594,652.0156 Q959.3594,652.625 959.125,652.8906 Q958.8906,653.1563 958.5156,653.1563 Q958.1719,653.1563 957.9688,652.9531 Q957.7656,652.7656 957.6563,652.25 Q957.6094,651.8906 957.4219,651.7031 Q957.0938,651.3281 956.4844,651.1094 Q955.875,650.8906 955.25,650.8906 Q954.4844,650.8906 953.8438,651.2188 Q953.2188,651.5469 952.7188,652.2969 Q952.2344,653.0469 952.2344,654.0781 L952.2344,655.1719 Q952.2344,656.4063 953.125,657.2344 Q954.0156,658.0469 955.6094,658.0469 Q956.5469,658.0469 957.2031,657.7969 Q957.5938,657.6406 958.0156,657.2031 Q958.2813,656.9375 958.4219,656.8594 Q958.5781,656.7813 958.7813,656.7813 Q959.1094,656.7813 959.3594,657.0469 Q959.625,657.2969 959.625,657.6406 Q959.625,657.9844 959.2813,658.3906 Q958.7813,658.9688 957.9844,659.2969 Q956.9063,659.75 955.6094,659.75 Q954.0938,659.75 952.8906,659.125 Q951.9063,658.625 951.2188,657.5625 Q950.5313,656.4844 950.5313,655.2031 L950.5313,654.0469 Q950.5313,652.7188 951.1406,651.5781 Q951.7656,650.4219 952.8594,649.8125 Q953.9531,649.1875 955.1875,649.1875 Q955.9219,649.1875 956.5625,649.3594 Q957.2188,649.5156 957.7656,649.875 Z "/><text fill="#000000" font-family="sans-serif" font-size="12" lengthAdjust="spacingAndGlyphs" textLength="104" x="969" y="658.9102">PaymentScheduler</text><line style="stroke: #A80036; stroke-width: 1.5;" x1="941" x2="1075" y1="670" y2="670"/><text fill="#000000" font-family="sans-serif" font-size="11" lengthAdjust="spacingAndGlyphs" textLength="87" x="946" y="685.4189">-Integer dayMonth</text><text fill="#000000" font-family="sans-serif" font-size="11" lengthAdjust="spacingAndGlyphs" textLength="105" x="946" y="699.2549">-LocalTime timeOfDay</text><!--MD5=[86c7c362de55a38b660185a1328fe18d]
class Organization--><rect fill="#FEFECE" filter="url(#f12is8ubegst5c)" height="53.8359" id="Organization" style="stroke: #A80036; stroke-width: 1.5;" width="101" x="440" y="582"/><ellipse cx="455" cy="598" fill="#ADD1B2" rx="11" ry="11" style="stroke: #A80036; stroke-width: 1.0;"/><path d="M457.7656,593.875 Q457.9219,593.6563 458.1094,593.5469 Q458.2969,593.4375 458.5156,593.4375 Q458.8906,593.4375 459.125,593.7031 Q459.3594,593.9531 459.3594,594.5625 L459.3594,596.0156 Q459.3594,596.625 459.125,596.8906 Q458.8906,597.1563 458.5156,597.1563 Q458.1719,597.1563 457.9688,596.9531 Q457.7656,596.7656 457.6563,596.25 Q457.6094,595.8906 457.4219,595.7031 Q457.0938,595.3281 456.4844,595.1094 Q455.875,594.8906 455.25,594.8906 Q454.4844,594.8906 453.8438,595.2188 Q453.2188,595.5469 452.7188,596.2969 Q452.2344,597.0469 452.2344,598.0781 L452.2344,599.1719 Q452.2344,600.4063 453.125,601.2344 Q454.0156,602.0469 455.6094,602.0469 Q456.5469,602.0469 457.2031,601.7969 Q457.5938,601.6406 458.0156,601.2031 Q458.2813,600.9375 458.4219,600.8594 Q458.5781,600.7813 458.7813,600.7813 Q459.1094,600.7813 459.3594,601.0469 Q459.625,601.2969 459.625,601.6406 Q459.625,601.9844 459.2813,602.3906 Q458.7813,602.9688 457.9844,603.2969 Q456.9063,603.75 455.6094,603.75 Q454.0938,603.75 452.8906,603.125 Q451.9063,602.625 451.2188,601.5625 Q450.5313,600.4844 450.5313,599.2031 L450.5313,598.0469 Q450.5313,596.7188 451.1406,595.5781 Q451.7656,594.4219 452.8594,593.8125 Q453.9531,593.1875 455.1875,593.1875 Q455.9219,593.1875 456.5625,593.3594 Q457.2188,593.5156 457.7656,593.875 Z "/><text fill="#000000" font-family="sans-serif" font-size="12" lengthAdjust="spacingAndGlyphs" textLength="69" x="469" y="602.9102">Organization</text><line style="stroke: #A80036; stroke-width: 1.5;" x1="441" x2="540" y1="614" y2="614"/><text fill="#000000" font-family="sans-serif" font-size="11" lengthAdjust="spacingAndGlyphs" textLength="61" x="446" y="629.4189">-String nome</text><!--MD5=[b34797a66dc35cbf1d65f7e3ca75530e]
class Task--><rect fill="#FEFECE" filter="url(#f12is8ubegst5c)" height="109.1797" id="Task" style="stroke: #A80036; stroke-width: 1.5;" width="169" x="2128" y="214.5"/><ellipse cx="2194.75" cy="230.5" fill="#ADD1B2" rx="11" ry="11" style="stroke: #A80036; stroke-width: 1.0;"/><path d="M2197.5156,226.375 Q2197.6719,226.1563 2197.8594,226.0469 Q2198.0469,225.9375 2198.2656,225.9375 Q2198.6406,225.9375 2198.875,226.2031 Q2199.1094,226.4531 2199.1094,227.0625 L2199.1094,228.5156 Q2199.1094,229.125 2198.875,229.3906 Q2198.6406,229.6563 2198.2656,229.6563 Q2197.9219,229.6563 2197.7188,229.4531 Q2197.5156,229.2656 2197.4063,228.75 Q2197.3594,228.3906 2197.1719,228.2031 Q2196.8438,227.8281 2196.2344,227.6094 Q2195.625,227.3906 2195,227.3906 Q2194.2344,227.3906 2193.5938,227.7188 Q2192.9688,228.0469 2192.4688,228.7969 Q2191.9844,229.5469 2191.9844,230.5781 L2191.9844,231.6719 Q2191.9844,232.9063 2192.875,233.7344 Q2193.7656,234.5469 2195.3594,234.5469 Q2196.2969,234.5469 2196.9531,234.2969 Q2197.3438,234.1406 2197.7656,233.7031 Q2198.0313,233.4375 2198.1719,233.3594 Q2198.3281,233.2813 2198.5313,233.2813 Q2198.8594,233.2813 2199.1094,233.5469 Q2199.375,233.7969 2199.375,234.1406 Q2199.375,234.4844 2199.0313,234.8906 Q2198.5313,235.4688 2197.7344,235.7969 Q2196.6563,236.25 2195.3594,236.25 Q2193.8438,236.25 2192.6406,235.625 Q2191.6563,235.125 2190.9688,234.0625 Q2190.2813,232.9844 2190.2813,231.7031 L2190.2813,230.5469 Q2190.2813,229.2188 2190.8906,228.0781 Q2191.5156,226.9219 2192.6094,226.3125 Q2193.7031,225.6875 2194.9375,225.6875 Q2195.6719,225.6875 2196.3125,225.8594 Q2196.9688,226.0156 2197.5156,226.375 Z "/><text fill="#000000" font-family="sans-serif" font-size="12" lengthAdjust="spacingAndGlyphs" textLength="27" x="2215.25" y="235.4102">Task</text><line style="stroke: #A80036; stroke-width: 1.5;" x1="2129" x2="2296" y1="246.5" y2="246.5"/><text fill="#000000" font-family="sans-serif" font-size="11" lengthAdjust="spacingAndGlyphs" textLength="43" x="2134" y="261.9189">-String id</text><text fill="#000000" font-family="sans-serif" font-size="11" lengthAdjust="spacingAndGlyphs" textLength="88" x="2134" y="275.7549">-String description</text><text fill="#000000" font-family="sans-serif" font-size="11" lengthAdjust="spacingAndGlyphs" textLength="116" x="2134" y="289.5908">-Integer durationInHours</text><text fill="#000000" font-family="sans-serif" font-size="11" lengthAdjust="spacingAndGlyphs" textLength="157" x="2134" y="303.4268">-Double costPerHourOfJuniorEur</text><text fill="#000000" font-family="sans-serif" font-size="11" lengthAdjust="spacingAndGlyphs" textLength="78" x="2134" y="317.2627">-String category</text><!--MD5=[335f4d9be48430461c68bf6d6fdba145]
class App--><rect fill="#FEFECE" filter="url(#f12is8ubegst5c)" height="40" id="App" style="stroke: #A80036; stroke-width: 1.5;" width="53" x="6" y="932"/><ellipse cx="21" cy="948" fill="#ADD1B2" rx="11" ry="11" style="stroke: #A80036; stroke-width: 1.0;"/><path d="M23.7656,943.875 Q23.9219,943.6563 24.1094,943.5469 Q24.2969,943.4375 24.5156,943.4375 Q24.8906,943.4375 25.125,943.7031 Q25.3594,943.9531 25.3594,944.5625 L25.3594,946.0156 Q25.3594,946.625 25.125,946.8906 Q24.8906,947.1563 24.5156,947.1563 Q24.1719,947.1563 23.9688,946.9531 Q23.7656,946.7656 23.6563,946.25 Q23.6094,945.8906 23.4219,945.7031 Q23.0938,945.3281 22.4844,945.1094 Q21.875,944.8906 21.25,944.8906 Q20.4844,944.8906 19.8438,945.2188 Q19.2188,945.5469 18.7188,946.2969 Q18.2344,947.0469 18.2344,948.0781 L18.2344,949.1719 Q18.2344,950.4063 19.125,951.2344 Q20.0156,952.0469 21.6094,952.0469 Q22.5469,952.0469 23.2031,951.7969 Q23.5938,951.6406 24.0156,951.2031 Q24.2813,950.9375 24.4219,950.8594 Q24.5781,950.7813 24.7813,950.7813 Q25.1094,950.7813 25.3594,951.0469 Q25.625,951.2969 25.625,951.6406 Q25.625,951.9844 25.2813,952.3906 Q24.7813,952.9688 23.9844,953.2969 Q22.9063,953.75 21.6094,953.75 Q20.0938,953.75 18.8906,953.125 Q17.9063,952.625 17.2188,951.5625 Q16.5313,950.4844 16.5313,949.2031 L16.5313,948.0469 Q16.5313,946.7188 17.1406,945.5781 Q17.7656,944.4219 18.8594,943.8125 Q19.9531,943.1875 21.1875,943.1875 Q21.9219,943.1875 22.5625,943.3594 Q23.2188,943.5156 23.7656,943.875 Z "/><text fill="#000000" font-family="sans-serif" font-size="12" lengthAdjust="spacingAndGlyphs" textLength="21" x="35" y="952.9102">App</text><line style="stroke: #A80036; stroke-width: 1.5;" x1="7" x2="58" y1="964" y2="964"/><!--MD5=[da547346deef918ea16944ba046651ef]
class Administrator--><rect fill="#FEFECE" filter="url(#f12is8ubegst5c)" height="81.5078" id="Administrator" style="stroke: #A80036; stroke-width: 1.5;" width="105" x="155" y="855"/><ellipse cx="170" cy="871" fill="#ADD1B2" rx="11" ry="11" style="stroke: #A80036; stroke-width: 1.0;"/><path d="M172.7656,866.875 Q172.9219,866.6563 173.1094,866.5469 Q173.2969,866.4375 173.5156,866.4375 Q173.8906,866.4375 174.125,866.7031 Q174.3594,866.9531 174.3594,867.5625 L174.3594,869.0156 Q174.3594,869.625 174.125,869.8906 Q173.8906,870.1563 173.5156,870.1563 Q173.1719,870.1563 172.9688,869.9531 Q172.7656,869.7656 172.6563,869.25 Q172.6094,868.8906 172.4219,868.7031 Q172.0938,868.3281 171.4844,868.1094 Q170.875,867.8906 170.25,867.8906 Q169.4844,867.8906 168.8438,868.2188 Q168.2188,868.5469 167.7188,869.2969 Q167.2344,870.0469 167.2344,871.0781 L167.2344,872.1719 Q167.2344,873.4063 168.125,874.2344 Q169.0156,875.0469 170.6094,875.0469 Q171.5469,875.0469 172.2031,874.7969 Q172.5938,874.6406 173.0156,874.2031 Q173.2813,873.9375 173.4219,873.8594 Q173.5781,873.7813 173.7813,873.7813 Q174.1094,873.7813 174.3594,874.0469 Q174.625,874.2969 174.625,874.6406 Q174.625,874.9844 174.2813,875.3906 Q173.7813,875.9688 172.9844,876.2969 Q171.9063,876.75 170.6094,876.75 Q169.0938,876.75 167.8906,876.125 Q166.9063,875.625 166.2188,874.5625 Q165.5313,873.4844 165.5313,872.2031 L165.5313,871.0469 Q165.5313,869.7188 166.1406,868.5781 Q166.7656,867.4219 167.8594,866.8125 Q168.9531,866.1875 170.1875,866.1875 Q170.9219,866.1875 171.5625,866.3594 Q172.2188,866.5156 172.7656,866.875 Z "/><text fill="#000000" font-family="sans-serif" font-size="12" lengthAdjust="spacingAndGlyphs" textLength="73" x="184" y="875.9102">Administrator</text><line style="stroke: #A80036; stroke-width: 1.5;" x1="156" x2="259" y1="887" y2="887"/><text fill="#000000" font-family="sans-serif" font-size="11" lengthAdjust="spacingAndGlyphs" textLength="61" x="161" y="902.4189">-String nome</text><text fill="#000000" font-family="sans-serif" font-size="11" lengthAdjust="spacingAndGlyphs" textLength="59" x="161" y="916.2549">-String email</text><text fill="#000000" font-family="sans-serif" font-size="11" lengthAdjust="spacingAndGlyphs" textLength="85" x="161" y="930.0908">-String password</text><!--MD5=[942000697ba2ca87a591befaf65c4861]
class EmailScheduler--><rect fill="#FEFECE" filter="url(#f12is8ubegst5c)" height="40" id="EmailScheduler" style="stroke: #A80036; stroke-width: 1.5;" width="120" x="290" y="1049"/><ellipse cx="305" cy="1065" fill="#ADD1B2" rx="11" ry="11" style="stroke: #A80036; stroke-width: 1.0;"/><path d="M307.7656,1060.875 Q307.9219,1060.6563 308.1094,1060.5469 Q308.2969,1060.4375 308.5156,1060.4375 Q308.8906,1060.4375 309.125,1060.7031 Q309.3594,1060.9531 309.3594,1061.5625 L309.3594,1063.0156 Q309.3594,1063.625 309.125,1063.8906 Q308.8906,1064.1563 308.5156,1064.1563 Q308.1719,1064.1563 307.9688,1063.9531 Q307.7656,1063.7656 307.6563,1063.25 Q307.6094,1062.8906 307.4219,1062.7031 Q307.0938,1062.3281 306.4844,1062.1094 Q305.875,1061.8906 305.25,1061.8906 Q304.4844,1061.8906 303.8438,1062.2188 Q303.2188,1062.5469 302.7188,1063.2969 Q302.2344,1064.0469 302.2344,1065.0781 L302.2344,1066.1719 Q302.2344,1067.4063 303.125,1068.2344 Q304.0156,1069.0469 305.6094,1069.0469 Q306.5469,1069.0469 307.2031,1068.7969 Q307.5938,1068.6406 308.0156,1068.2031 Q308.2813,1067.9375 308.4219,1067.8594 Q308.5781,1067.7813 308.7813,1067.7813 Q309.1094,1067.7813 309.3594,1068.0469 Q309.625,1068.2969 309.625,1068.6406 Q309.625,1068.9844 309.2813,1069.3906 Q308.7813,1069.9688 307.9844,1070.2969 Q306.9063,1070.75 305.6094,1070.75 Q304.0938,1070.75 302.8906,1070.125 Q301.9063,1069.625 301.2188,1068.5625 Q300.5313,1067.4844 300.5313,1066.2031 L300.5313,1065.0469 Q300.5313,1063.7188 301.1406,1062.5781 Q301.7656,1061.4219 302.8594,1060.8125 Q303.9531,1060.1875 305.1875,1060.1875 Q305.9219,1060.1875 306.5625,1060.3594 Q307.2188,1060.5156 307.7656,1060.875 Z "/><text fill="#000000" font-family="sans-serif" font-size="12" lengthAdjust="spacingAndGlyphs" textLength="88" x="319" y="1069.9102">EmailScheduler</text><line style="stroke: #A80036; stroke-width: 1.5;" x1="291" x2="409" y1="1081" y2="1081"/><!--MD5=[3fd616f346a44cd59a91eb10b19e157c]
class User--><rect fill="#FEFECE" filter="url(#f12is8ubegst5c)" height="81.5078" id="User" style="stroke: #A80036; stroke-width: 1.5;" width="97" x="1877" y="726"/><ellipse cx="1909.1" cy="742" fill="#ADD1B2" rx="11" ry="11" style="stroke: #A80036; stroke-width: 1.0;"/><path d="M1911.8656,737.875 Q1912.0219,737.6563 1912.2094,737.5469 Q1912.3969,737.4375 1912.6156,737.4375 Q1912.9906,737.4375 1913.225,737.7031 Q1913.4594,737.9531 1913.4594,738.5625 L1913.4594,740.0156 Q1913.4594,740.625 1913.225,740.8906 Q1912.9906,741.1563 1912.6156,741.1563 Q1912.2719,741.1563 1912.0688,740.9531 Q1911.8656,740.7656 1911.7563,740.25 Q1911.7094,739.8906 1911.5219,739.7031 Q1911.1938,739.3281 1910.5844,739.1094 Q1909.975,738.8906 1909.35,738.8906 Q1908.5844,738.8906 1907.9438,739.2188 Q1907.3188,739.5469 1906.8188,740.2969 Q1906.3344,741.0469 1906.3344,742.0781 L1906.3344,743.1719 Q1906.3344,744.4063 1907.225,745.2344 Q1908.1156,746.0469 1909.7094,746.0469 Q1910.6469,746.0469 1911.3031,745.7969 Q1911.6938,745.6406 1912.1156,745.2031 Q1912.3813,744.9375 1912.5219,744.8594 Q1912.6781,744.7813 1912.8813,744.7813 Q1913.2094,744.7813 1913.4594,745.0469 Q1913.725,745.2969 1913.725,745.6406 Q1913.725,745.9844 1913.3813,746.3906 Q1912.8813,746.9688 1912.0844,747.2969 Q1911.0063,747.75 1909.7094,747.75 Q1908.1938,747.75 1906.9906,747.125 Q1906.0063,746.625 1905.3188,745.5625 Q1904.6313,744.4844 1904.6313,743.2031 L1904.6313,742.0469 Q1904.6313,740.7188 1905.2406,739.5781 Q1905.8656,738.4219 1906.9594,737.8125 Q1908.0531,737.1875 1909.2875,737.1875 Q1910.0219,737.1875 1910.6625,737.3594 Q1911.3188,737.5156 1911.8656,737.875 Z "/><text fill="#000000" font-family="sans-serif" font-size="12" lengthAdjust="spacingAndGlyphs" textLength="27" x="1926.9" y="746.9102">User</text><line style="stroke: #A80036; stroke-width: 1.5;" x1="1878" x2="1973" y1="758" y2="758"/><text fill="#000000" font-family="sans-serif" font-size="11" lengthAdjust="spacingAndGlyphs" textLength="61" x="1883" y="773.4189">-String nome</text><text fill="#000000" font-family="sans-serif" font-size="11" lengthAdjust="spacingAndGlyphs" textLength="59" x="1883" y="787.2549">-String email</text><text fill="#000000" font-family="sans-serif" font-size="11" lengthAdjust="spacingAndGlyphs" textLength="85" x="1883" y="801.0908">-String password</text><!--MD5=[1f687b5315377fe49fca59b457947463]
class Freelancer--><rect fill="#FEFECE" filter="url(#f12is8ubegst5c)" height="150.6875" id="Freelancer" style="stroke: #A80036; stroke-width: 1.5;" width="135" x="2443" y="301.5"/><ellipse cx="2477.8" cy="317.5" fill="#ADD1B2" rx="11" ry="11" style="stroke: #A80036; stroke-width: 1.0;"/><path d="M2480.5656,313.375 Q2480.7219,313.1563 2480.9094,313.0469 Q2481.0969,312.9375 2481.3156,312.9375 Q2481.6906,312.9375 2481.925,313.2031 Q2482.1594,313.4531 2482.1594,314.0625 L2482.1594,315.5156 Q2482.1594,316.125 2481.925,316.3906 Q2481.6906,316.6563 2481.3156,316.6563 Q2480.9719,316.6563 2480.7688,316.4531 Q2480.5656,316.2656 2480.4563,315.75 Q2480.4094,315.3906 2480.2219,315.2031 Q2479.8938,314.8281 2479.2844,314.6094 Q2478.675,314.3906 2478.05,314.3906 Q2477.2844,314.3906 2476.6438,314.7188 Q2476.0188,315.0469 2475.5188,315.7969 Q2475.0344,316.5469 2475.0344,317.5781 L2475.0344,318.6719 Q2475.0344,319.9063 2475.925,320.7344 Q2476.8156,321.5469 2478.4094,321.5469 Q2479.3469,321.5469 2480.0031,321.2969 Q2480.3938,321.1406 2480.8156,320.7031 Q2481.0813,320.4375 2481.2219,320.3594 Q2481.3781,320.2813 2481.5813,320.2813 Q2481.9094,320.2813 2482.1594,320.5469 Q2482.425,320.7969 2482.425,321.1406 Q2482.425,321.4844 2482.0813,321.8906 Q2481.5813,322.4688 2480.7844,322.7969 Q2479.7063,323.25 2478.4094,323.25 Q2476.8938,323.25 2475.6906,322.625 Q2474.7063,322.125 2474.0188,321.0625 Q2473.3313,319.9844 2473.3313,318.7031 L2473.3313,317.5469 Q2473.3313,316.2188 2473.9406,315.0781 Q2474.5656,313.9219 2475.6594,313.3125 Q2476.7531,312.6875 2477.9875,312.6875 Q2478.7219,312.6875 2479.3625,312.8594 Q2480.0188,313.0156 2480.5656,313.375 Z "/><text fill="#000000" font-family="sans-serif" font-size="12" lengthAdjust="spacingAndGlyphs" textLength="59" x="2496.2" y="322.4102">Freelancer</text><line style="stroke: #A80036; stroke-width: 1.5;" x1="2444" x2="2577" y1="333.5" y2="333.5"/><text fill="#000000" font-family="sans-serif" font-size="11" lengthAdjust="spacingAndGlyphs" textLength="43" x="2449" y="348.9189">-String id</text><text fill="#000000" font-family="sans-serif" font-size="11" lengthAdjust="spacingAndGlyphs" textLength="61" x="2449" y="362.7549">-String name</text><text fill="#000000" font-family="sans-serif" font-size="11" lengthAdjust="spacingAndGlyphs" textLength="114" x="2449" y="376.5908">-String levelOfExpertise</text><text fill="#000000" font-family="sans-serif" font-size="11" lengthAdjust="spacingAndGlyphs" textLength="59" x="2449" y="390.4268">-String email</text><text fill="#000000" font-family="sans-serif" font-size="11" lengthAdjust="spacingAndGlyphs" textLength="50" x="2449" y="404.2627">-String NIF</text><text fill="#000000" font-family="sans-serif" font-size="11" lengthAdjust="spacingAndGlyphs" textLength="123" x="2449" y="418.0986">-String bankAccountIBAN</text><text fill="#000000" font-family="sans-serif" font-size="11" lengthAdjust="spacingAndGlyphs" textLength="75" x="2449" y="431.9346">-String address</text><text fill="#000000" font-family="sans-serif" font-size="11" lengthAdjust="spacingAndGlyphs" textLength="72" x="2449" y="445.7705">-String country</text><!--MD5=[764fca796ce7f635542948d8fc39db5e]
class Payment--><rect fill="#FEFECE" filter="url(#f12is8ubegst5c)" height="40" id="Payment" style="stroke: #A80036; stroke-width: 1.5;" width="80" x="1254.5" y="732"/><ellipse cx="1269.5" cy="748" fill="#ADD1B2" rx="11" ry="11" style="stroke: #A80036; stroke-width: 1.0;"/><path d="M1272.2656,743.875 Q1272.4219,743.6563 1272.6094,743.5469 Q1272.7969,743.4375 1273.0156,743.4375 Q1273.3906,743.4375 1273.625,743.7031 Q1273.8594,743.9531 1273.8594,744.5625 L1273.8594,746.0156 Q1273.8594,746.625 1273.625,746.8906 Q1273.3906,747.1563 1273.0156,747.1563 Q1272.6719,747.1563 1272.4688,746.9531 Q1272.2656,746.7656 1272.1563,746.25 Q1272.1094,745.8906 1271.9219,745.7031 Q1271.5938,745.3281 1270.9844,745.1094 Q1270.375,744.8906 1269.75,744.8906 Q1268.9844,744.8906 1268.3438,745.2188 Q1267.7188,745.5469 1267.2188,746.2969 Q1266.7344,747.0469 1266.7344,748.0781 L1266.7344,749.1719 Q1266.7344,750.4063 1267.625,751.2344 Q1268.5156,752.0469 1270.1094,752.0469 Q1271.0469,752.0469 1271.7031,751.7969 Q1272.0938,751.6406 1272.5156,751.2031 Q1272.7813,750.9375 1272.9219,750.8594 Q1273.0781,750.7813 1273.2813,750.7813 Q1273.6094,750.7813 1273.8594,751.0469 Q1274.125,751.2969 1274.125,751.6406 Q1274.125,751.9844 1273.7813,752.3906 Q1273.2813,752.9688 1272.4844,753.2969 Q1271.4063,753.75 1270.1094,753.75 Q1268.5938,753.75 1267.3906,753.125 Q1266.4063,752.625 1265.7188,751.5625 Q1265.0313,750.4844 1265.0313,749.2031 L1265.0313,748.0469 Q1265.0313,746.7188 1265.6406,745.5781 Q1266.2656,744.4219 1267.3594,743.8125 Q1268.4531,743.1875 1269.6875,743.1875 Q1270.4219,743.1875 1271.0625,743.3594 Q1271.7188,743.5156 1272.2656,743.875 Z "/><text fill="#000000" font-family="sans-serif" font-size="12" lengthAdjust="spacingAndGlyphs" textLength="48" x="1283.5" y="752.9102">Payment</text><line style="stroke: #A80036; stroke-width: 1.5;" x1="1255.5" x2="1333.5" y1="764" y2="764"/><!--MD5=[8806e557260fb3598decb516dc04693d]
class EmailAPI--><rect fill="#FEFECE" filter="url(#f12is8ubegst5c)" height="40" id="EmailAPI" style="stroke: #A80036; stroke-width: 1.5;" width="82" x="1552" y="980"/><ellipse cx="1567" cy="996" fill="#ADD1B2" rx="11" ry="11" style="stroke: #A80036; stroke-width: 1.0;"/><path d="M1569.7656,991.875 Q1569.9219,991.6563 1570.1094,991.5469 Q1570.2969,991.4375 1570.5156,991.4375 Q1570.8906,991.4375 1571.125,991.7031 Q1571.3594,991.9531 1571.3594,992.5625 L1571.3594,994.0156 Q1571.3594,994.625 1571.125,994.8906 Q1570.8906,995.1563 1570.5156,995.1563 Q1570.1719,995.1563 1569.9688,994.9531 Q1569.7656,994.7656 1569.6563,994.25 Q1569.6094,993.8906 1569.4219,993.7031 Q1569.0938,993.3281 1568.4844,993.1094 Q1567.875,992.8906 1567.25,992.8906 Q1566.4844,992.8906 1565.8438,993.2188 Q1565.2188,993.5469 1564.7188,994.2969 Q1564.2344,995.0469 1564.2344,996.0781 L1564.2344,997.1719 Q1564.2344,998.4063 1565.125,999.2344 Q1566.0156,1000.0469 1567.6094,1000.0469 Q1568.5469,1000.0469 1569.2031,999.7969 Q1569.5938,999.6406 1570.0156,999.2031 Q1570.2813,998.9375 1570.4219,998.8594 Q1570.5781,998.7813 1570.7813,998.7813 Q1571.1094,998.7813 1571.3594,999.0469 Q1571.625,999.2969 1571.625,999.6406 Q1571.625,999.9844 1571.2813,1000.3906 Q1570.7813,1000.9688 1569.9844,1001.2969 Q1568.9063,1001.75 1567.6094,1001.75 Q1566.0938,1001.75 1564.8906,1001.125 Q1563.9063,1000.625 1563.2188,999.5625 Q1562.5313,998.4844 1562.5313,997.2031 L1562.5313,996.0469 Q1562.5313,994.7188 1563.1406,993.5781 Q1563.7656,992.4219 1564.8594,991.8125 Q1565.9531,991.1875 1567.1875,991.1875 Q1567.9219,991.1875 1568.5625,991.3594 Q1569.2188,991.5156 1569.7656,991.875 Z "/><text fill="#000000" font-family="sans-serif" font-size="12" lengthAdjust="spacingAndGlyphs" textLength="50" x="1581" y="1000.9102">EmailAPI</text><line style="stroke: #A80036; stroke-width: 1.5;" x1="1553" x2="1633" y1="1012" y2="1012"/><!--MD5=[b76730e11bf88a141099e30fd5a76626]
class MonetaryUnitConversionAPI--><rect fill="#FEFECE" filter="url(#f12is8ubegst5c)" height="40" id="MonetaryUnitConversionAPI" style="stroke: #A80036; stroke-width: 1.5;" width="184" x="1501" y="766"/><ellipse cx="1516" cy="782" fill="#ADD1B2" rx="11" ry="11" style="stroke: #A80036; stroke-width: 1.0;"/><path d="M1518.7656,777.875 Q1518.9219,777.6563 1519.1094,777.5469 Q1519.2969,777.4375 1519.5156,777.4375 Q1519.8906,777.4375 1520.125,777.7031 Q1520.3594,777.9531 1520.3594,778.5625 L1520.3594,780.0156 Q1520.3594,780.625 1520.125,780.8906 Q1519.8906,781.1563 1519.5156,781.1563 Q1519.1719,781.1563 1518.9688,780.9531 Q1518.7656,780.7656 1518.6563,780.25 Q1518.6094,779.8906 1518.4219,779.7031 Q1518.0938,779.3281 1517.4844,779.1094 Q1516.875,778.8906 1516.25,778.8906 Q1515.4844,778.8906 1514.8438,779.2188 Q1514.2188,779.5469 1513.7188,780.2969 Q1513.2344,781.0469 1513.2344,782.0781 L1513.2344,783.1719 Q1513.2344,784.4063 1514.125,785.2344 Q1515.0156,786.0469 1516.6094,786.0469 Q1517.5469,786.0469 1518.2031,785.7969 Q1518.5938,785.6406 1519.0156,785.2031 Q1519.2813,784.9375 1519.4219,784.8594 Q1519.5781,784.7813 1519.7813,784.7813 Q1520.1094,784.7813 1520.3594,785.0469 Q1520.625,785.2969 1520.625,785.6406 Q1520.625,785.9844 1520.2813,786.3906 Q1519.7813,786.9688 1518.9844,787.2969 Q1517.9063,787.75 1516.6094,787.75 Q1515.0938,787.75 1513.8906,787.125 Q1512.9063,786.625 1512.2188,785.5625 Q1511.5313,784.4844 1511.5313,783.2031 L1511.5313,782.0469 Q1511.5313,780.7188 1512.1406,779.5781 Q1512.7656,778.4219 1513.8594,777.8125 Q1514.9531,777.1875 1516.1875,777.1875 Q1516.9219,777.1875 1517.5625,777.3594 Q1518.2188,777.5156 1518.7656,777.875 Z "/><text fill="#000000" font-family="sans-serif" font-size="12" lengthAdjust="spacingAndGlyphs" textLength="152" x="1530" y="786.9102">MonetaryUnitConversionAPI</text><line style="stroke: #A80036; stroke-width: 1.5;" x1="1502" x2="1684" y1="798" y2="798"/><!--MD5=[b9b2b358c4596a7c3c612fa1a577c109]
class PaymentAPI--><rect fill="#FEFECE" filter="url(#f12is8ubegst5c)" height="40" id="PaymentAPI" style="stroke: #A80036; stroke-width: 1.5;" width="98" x="1876.5" y="8"/><ellipse cx="1891.5" cy="24" fill="#ADD1B2" rx="11" ry="11" style="stroke: #A80036; stroke-width: 1.0;"/><path d="M1894.2656,19.875 Q1894.4219,19.6563 1894.6094,19.5469 Q1894.7969,19.4375 1895.0156,19.4375 Q1895.3906,19.4375 1895.625,19.7031 Q1895.8594,19.9531 1895.8594,20.5625 L1895.8594,22.0156 Q1895.8594,22.625 1895.625,22.8906 Q1895.3906,23.1563 1895.0156,23.1563 Q1894.6719,23.1563 1894.4688,22.9531 Q1894.2656,22.7656 1894.1563,22.25 Q1894.1094,21.8906 1893.9219,21.7031 Q1893.5938,21.3281 1892.9844,21.1094 Q1892.375,20.8906 1891.75,20.8906 Q1890.9844,20.8906 1890.3438,21.2188 Q1889.7188,21.5469 1889.2188,22.2969 Q1888.7344,23.0469 1888.7344,24.0781 L1888.7344,25.1719 Q1888.7344,26.4063 1889.625,27.2344 Q1890.5156,28.0469 1892.1094,28.0469 Q1893.0469,28.0469 1893.7031,27.7969 Q1894.0938,27.6406 1894.5156,27.2031 Q1894.7813,26.9375 1894.9219,26.8594 Q1895.0781,26.7813 1895.2813,26.7813 Q1895.6094,26.7813 1895.8594,27.0469 Q1896.125,27.2969 1896.125,27.6406 Q1896.125,27.9844 1895.7813,28.3906 Q1895.2813,28.9688 1894.4844,29.2969 Q1893.4063,29.75 1892.1094,29.75 Q1890.5938,29.75 1889.3906,29.125 Q1888.4063,28.625 1887.7188,27.5625 Q1887.0313,26.4844 1887.0313,25.2031 L1887.0313,24.0469 Q1887.0313,22.7188 1887.6406,21.5781 Q1888.2656,20.4219 1889.3594,19.8125 Q1890.4531,19.1875 1891.6875,19.1875 Q1892.4219,19.1875 1893.0625,19.3594 Q1893.7188,19.5156 1894.2656,19.875 Z "/><text fill="#000000" font-family="sans-serif" font-size="12" lengthAdjust="spacingAndGlyphs" textLength="66" x="1905.5" y="28.9102">PaymentAPI</text><line style="stroke: #A80036; stroke-width: 1.5;" x1="1877.5" x2="1973.5" y1="40" y2="40"/><!--MD5=[8b5db564ea9bd1758097b07ca3fd81a4]
link Collaborator to Transaction--><path d="M1058.19,259.509 C1073.31,253.509 1090.15,247.428 1106,243 C1151.18,230.38 1163.26,229.01 1210,225 C1325.88,215.05 1358.42,214.78 1471,244 C1495.4,250.334 1522.18,258.604 1544.33,265.811 " fill="none" id="Collaborator-Transaction" style="stroke: #A80036; stroke-width: 1.0;"/><text fill="#000000" font-family="sans-serif" font-size="13" lengthAdjust="spacingAndGlyphs" textLength="43" x="1266.5" y="214.4951">creates</text><polygon fill="#000000" points="1312.5,207.6758,1318.5,210.6758,1312.5,213.6758,1312.5,207.6758" style="stroke: #000000; stroke-width: 1.0;"/><text fill="#000000" font-family="sans-serif" font-size="13" lengthAdjust="spacingAndGlyphs" textLength="7" x="1066.0757" y="271.0846">1</text><text fill="#000000" font-family="sans-serif" font-size="13" lengthAdjust="spacingAndGlyphs" textLength="5" x="1531.4946" y="278.0791">*</text><!--MD5=[f919d21ae7a75ef5ececc535e09d5009]
link Collaborator to Task--><path d="M1058.08,288.375 C1146.42,301.271 1338.17,327.54 1501,338 C1740.53,353.387 1800.98,343.444 2041,345 C2066.33,345.164 2073.76,352.366 2098,345 C2113.77,340.208 2129.34,332.416 2143.66,323.607 " fill="none" id="Collaborator-Task" style="stroke: #A80036; stroke-width: 1.0;"/><text fill="#000000" font-family="sans-serif" font-size="13" lengthAdjust="spacingAndGlyphs" textLength="43" x="1565" y="334.4951">creates</text><polygon fill="#000000" points="1611,327.6758,1617,330.6758,1611,333.6758,1611,327.6758" style="stroke: #000000; stroke-width: 1.0;"/><text fill="#000000" font-family="sans-serif" font-size="13" lengthAdjust="spacingAndGlyphs" textLength="7" x="1065.9496" y="304.1903">1</text><text fill="#000000" font-family="sans-serif" font-size="13" lengthAdjust="spacingAndGlyphs" textLength="5" x="2129.5196" y="345.1346">*</text><!--MD5=[d2c3650dbd07e79cdad2ffd4a879dec6]
link Collaborator to Freelancer--><path d="M1044.42,239.704 C1094.19,186.56 1190.34,101 1293.5,101 C1293.5,101 1293.5,101 2213.5,101 C2331.37,101 2421.86,219.51 2470.25,301.217 " fill="none" id="Collaborator-Freelancer" style="stroke: #A80036; stroke-width: 1.0;"/><text fill="#000000" font-family="sans-serif" font-size="13" lengthAdjust="spacingAndGlyphs" textLength="43" x="1734.5" y="97.4951">creates</text><polygon fill="#000000" points="1780.5,90.6758,1786.5,93.6758,1780.5,96.6758,1780.5,90.6758" style="stroke: #000000; stroke-width: 1.0;"/><text fill="#000000" font-family="sans-serif" font-size="13" lengthAdjust="spacingAndGlyphs" textLength="7" x="1042.8724" y="229.0997">1</text><text fill="#000000" font-family="sans-serif" font-size="13" lengthAdjust="spacingAndGlyphs" textLength="5" x="2461.1754" y="290.7582">*</text><!--MD5=[283bfb0345396a3619b4812849bd123f]
link Collaborator to HistoricalTransactionFile--><path d="M1058.23,277.712 C1099.9,274.929 1160.53,270.88 1209.8,267.59 " fill="none" id="Collaborator-HistoricalTransactionFile" style="stroke: #A80036; stroke-width: 1.0;"/><text fill="#000000" font-family="sans-serif" font-size="13" lengthAdjust="spacingAndGlyphs" textLength="31" x="1121" y="265.4951">loads</text><polygon fill="#000000" points="1155,258.6758,1161,261.6758,1155,264.6758,1155,258.6758" style="stroke: #000000; stroke-width: 1.0;"/><text fill="#000000" font-family="sans-serif" font-size="13" lengthAdjust="spacingAndGlyphs" textLength="7" x="1066.1216" y="291.9612">1</text><text fill="#000000" font-family="sans-serif" font-size="13" lengthAdjust="spacingAndGlyphs" textLength="5" x="1197.0338" y="282.3111">*</text><!--MD5=[04ce0ecdab38a3951889ff50c232570f]
link Collaborator to User--><path d="M1053.24,322.286 C1069.1,335.754 1087.63,350.045 1106,361 C1230.84,435.429 1272.23,434.842 1409,484 C1584.8,547.185 1658.24,501.066 1810,610 C1851.93,640.098 1884.64,690.299 1904.17,725.822 " fill="none" id="Collaborator-User" style="stroke: #A80036; stroke-width: 1.0;"/><text fill="#000000" font-family="sans-serif" font-size="13" lengthAdjust="spacingAndGlyphs" textLength="43" x="1412" y="480.4951">acts as</text><polygon fill="#000000" points="1458,473.6758,1464,476.6758,1458,479.6758,1458,473.6758" style="stroke: #000000; stroke-width: 1.0;"/><text fill="#000000" font-family="sans-serif" font-size="13" lengthAdjust="spacingAndGlyphs" textLength="18" x="1040.5628" y="343.082">0,1</text><text fill="#000000" font-family="sans-serif" font-size="13" lengthAdjust="spacingAndGlyphs" textLength="7" x="1893.0575" y="715.2419">1</text><!--MD5=[7243fd82d00bd95e91d7be6a6f325055]
link Manager to PaymentScheduler--><path d="M763.309,666.148 C811.361,667.302 885.847,669.091 939.825,670.387 " fill="none" id="Manager-PaymentScheduler" style="stroke: #A80036; stroke-width: 1.0;"/><text fill="#000000" font-family="sans-serif" font-size="13" lengthAdjust="spacingAndGlyphs" textLength="41" x="824.5" y="662.4951">defines</text><polygon fill="#000000" points="868.5,655.6758,874.5,658.6758,868.5,661.6758,868.5,655.6758" style="stroke: #000000; stroke-width: 1.0;"/><text fill="#000000" font-family="sans-serif" font-size="13" lengthAdjust="spacingAndGlyphs" textLength="7" x="770.9919" y="681.0487">1</text><text fill="#000000" font-family="sans-serif" font-size="13" lengthAdjust="spacingAndGlyphs" textLength="18" x="913.8663" y="684.5758">0,1</text><!--MD5=[6eb6e197a729f6ec2412743e0bdbca1d]
link Manager to User--><path d="M763.077,648.139 C772.882,645.093 783.205,642.193 793,640 C857.285,625.605 874.259,625.231 940,621 C1303.19,597.626 1735.18,711.545 1876.91,752.663 " fill="none" id="Manager-User" style="stroke: #A80036; stroke-width: 1.0;"/><text fill="#000000" font-family="sans-serif" font-size="13" lengthAdjust="spacingAndGlyphs" textLength="43" x="1266.5" y="621.4951">acts as</text><polygon fill="#000000" points="1312.5,614.6758,1318.5,617.6758,1312.5,620.6758,1312.5,614.6758" style="stroke: #000000; stroke-width: 1.0;"/><text fill="#000000" font-family="sans-serif" font-size="13" lengthAdjust="spacingAndGlyphs" textLength="18" x="771.1738" y="660.4474">0,1</text><text fill="#000000" font-family="sans-serif" font-size="13" lengthAdjust="spacingAndGlyphs" textLength="7" x="1861.9337" y="765.2524">1</text><!--MD5=[c4629210b2ba88e64afbee18491f07dd]
link Payment to Transaction--><path d="M1328.49,731.778 C1346.45,718.954 1367.32,700.704 1379,679 C1425.97,591.712 1353.87,540.375 1409,458 C1426.72,431.52 1450.71,446.571 1471,422 C1496.77,390.784 1475.37,367.338 1501,336 C1512.51,321.921 1528.73,310.655 1544.29,302.132 " fill="none" id="Payment-Transaction" style="stroke: #A80036; stroke-width: 1.0;"/><polygon fill="#000000" points="1429,415,1432,409,1435,415,1429,415" style="stroke: #000000; stroke-width: 1.0;"/><text fill="#000000" font-family="sans-serif" font-size="13" lengthAdjust="spacingAndGlyphs" textLength="47" x="1410" y="431.4951">refers to</text><text fill="#000000" font-family="sans-serif" font-size="13" lengthAdjust="spacingAndGlyphs" textLength="7" x="1330.4464" y="721.0345">1</text><text fill="#000000" font-family="sans-serif" font-size="13" lengthAdjust="spacingAndGlyphs" textLength="7" x="1531.5747" y="323.5887">1</text><!--MD5=[ac4dd7fdeb0fa08e65a2b7971307989b]
link Payment to EmailAPI--><path d="M1319.51,772.085 C1375.07,818.556 1511.99,933.074 1567.76,979.728 " fill="none" id="Payment-EmailAPI" style="stroke: #A80036; stroke-width: 1.0;"/><text fill="#000000" font-family="sans-serif" font-size="13" lengthAdjust="spacingAndGlyphs" textLength="28" x="1419.5" y="849.4951">uses</text><polygon fill="#000000" points="1450.5,842.6758,1456.5,845.6758,1450.5,848.6758,1450.5,842.6758" style="stroke: #000000; stroke-width: 1.0;"/><text fill="#000000" font-family="sans-serif" font-size="13" lengthAdjust="spacingAndGlyphs" textLength="5" x="1320.8409" y="793.5285">*</text><text fill="#000000" font-family="sans-serif" font-size="13" lengthAdjust="spacingAndGlyphs" textLength="7" x="1552.3176" y="968.9699">1</text><!--MD5=[a5bfdb67ecdee50c8f593adbd3c04571]
link Payment to MonetaryUnitConversionAPI--><path d="M1334.57,756.48 C1376.63,761.303 1445.01,769.145 1500.73,775.534 " fill="none" id="Payment-MonetaryUnitConversionAPI" style="stroke: #A80036; stroke-width: 1.0;"/><text fill="#000000" font-family="sans-serif" font-size="13" lengthAdjust="spacingAndGlyphs" textLength="28" x="1419.5" y="761.4951">uses</text><polygon fill="#000000" points="1450.5,754.6758,1456.5,757.6758,1450.5,760.6758,1450.5,754.6758" style="stroke: #000000; stroke-width: 1.0;"/><text fill="#000000" font-family="sans-serif" font-size="13" lengthAdjust="spacingAndGlyphs" textLength="5" x="1342.4188" y="772.3085">*</text><text fill="#000000" font-family="sans-serif" font-size="13" lengthAdjust="spacingAndGlyphs" textLength="7" x="1486.0983" y="788.8466">1</text><!--MD5=[c9e7bf11fbb39a4b7f8255480c211d61]
link Payment to Organization--><path d="M1254.4,757.277 C1153.78,769.378 878.905,793.055 666,724 C609.572,705.698 554.043,663.865 521.282,636.024 " fill="none" id="Payment-Organization" style="stroke: #A80036; stroke-width: 1.0;"/><polygon fill="#000000" points="801,743.6758,795,746.6758,801,749.6758,801,743.6758" style="stroke: #000000; stroke-width: 1.0;"/><text fill="#000000" font-family="sans-serif" font-size="13" lengthAdjust="spacingAndGlyphs" textLength="102" x="807" y="750.4951">made on behalf of</text><text fill="#000000" font-family="sans-serif" font-size="13" lengthAdjust="spacingAndGlyphs" textLength="5" x="1241.5456" y="773.2525">*</text><text fill="#000000" font-family="sans-serif" font-size="13" lengthAdjust="spacingAndGlyphs" textLength="7" x="520.2499" y="657.237">1</text><!--MD5=[8e4873cec2cb3febaaa9495c716fc885]
link Transaction to Task--><path d="M1641.68,280.996 C1746.21,278.796 1996.64,273.523 2127.94,270.759 " fill="none" id="Transaction-Task" style="stroke: #A80036; stroke-width: 1.0;"/><text fill="#000000" font-family="sans-serif" font-size="13" lengthAdjust="spacingAndGlyphs" textLength="55" x="1891.5" y="269.4951">relative to</text><polygon fill="#000000" points="1949.5,262.6758,1955.5,265.6758,1949.5,268.6758,1949.5,262.6758" style="stroke: #000000; stroke-width: 1.0;"/><text fill="#000000" font-family="sans-serif" font-size="13" lengthAdjust="spacingAndGlyphs" textLength="7" x="1649.3439" y="295.5445">1</text><text fill="#000000" font-family="sans-serif" font-size="13" lengthAdjust="spacingAndGlyphs" textLength="7" x="2113.0972" y="285.1309">1</text><!--MD5=[9aa0fa191c99edeef0ce6e9ae1d37765]
link Transaction to TaskExecutionDetails--><path d="M1641.7,270.192 C1685.52,259.263 1752.24,242.423 1810,227 C1819.67,224.42 1829.79,221.67 1839.83,218.9 " fill="none" id="Transaction-TaskExecutionDetails" style="stroke: #A80036; stroke-width: 1.0;"/><text fill="#000000" font-family="sans-serif" font-size="13" lengthAdjust="spacingAndGlyphs" textLength="80" x="1716" y="223.4951">executed with</text><polygon fill="#000000" points="1799,216.6758,1805,219.6758,1799,222.6758,1799,216.6758" style="stroke: #000000; stroke-width: 1.0;"/><text fill="#000000" font-family="sans-serif" font-size="13" lengthAdjust="spacingAndGlyphs" textLength="7" x="1649.3669" y="283.1536">1</text><text fill="#000000" font-family="sans-serif" font-size="13" lengthAdjust="spacingAndGlyphs" textLength="7" x="1824.8883" y="235.2738">1</text><!--MD5=[542f32193441b56ea302115ed1249c3b]
link Transaction to Freelancer--><path d="M1641.84,287.545 C1735.25,298.313 1948.46,322.611 2128,341 C2238.36,352.303 2366.81,364.155 2442.96,371.045 " fill="none" id="Transaction-Freelancer" style="stroke: #A80036; stroke-width: 1.0;"/><text fill="#000000" font-family="sans-serif" font-size="13" lengthAdjust="spacingAndGlyphs" textLength="11" x="2057.5" y="328.4951">to</text><polygon fill="#000000" points="2071.5,321.6758,2077.5,324.6758,2071.5,327.6758,2071.5,321.6758" style="stroke: #000000; stroke-width: 1.0;"/><text fill="#000000" font-family="sans-serif" font-size="13" lengthAdjust="spacingAndGlyphs" textLength="5" x="1649.3806" y="303.0554">*</text><text fill="#000000" font-family="sans-serif" font-size="13" lengthAdjust="spacingAndGlyphs" textLength="7" x="2428.19" y="384.8001">1</text><!--MD5=[c4d304e021406f0669e27c527a415194]
link Transaction to PaymentAPI--><path d="M1623.13,261.812 C1647.21,245.53 1682.59,222.53 1715,205 C1755.76,182.95 1772.95,189.84 1810,162 C1853.79,129.1 1892.32,76.69 1911.54,48.15 " fill="none" id="Transaction-PaymentAPI" style="stroke: #A80036; stroke-width: 1.0;"/><text fill="#000000" font-family="sans-serif" font-size="13" lengthAdjust="spacingAndGlyphs" textLength="28" x="1742" y="158.4951">uses</text><polygon fill="#000000" points="1773,151.6758,1779,154.6758,1773,157.6758,1773,151.6758" style="stroke: #000000; stroke-width: 1.0;"/><text fill="#000000" font-family="sans-serif" font-size="13" lengthAdjust="spacingAndGlyphs" textLength="5" x="1626.2463" y="251.0785">*</text><text fill="#000000" font-family="sans-serif" font-size="13" lengthAdjust="spacingAndGlyphs" textLength="7" x="1899.6294" y="69.6117">1</text><!--MD5=[9155e95983ae2a088b11740d001758c9]
link TaskExecutionDetails to Task--><path d="M2011.24,217 C2047.99,226.55 2090.92,237.691 2127.58,247.21 " fill="none" id="TaskExecutionDetails-Task" style="stroke: #A80036; stroke-width: 1.0;"/><text fill="#000000" font-family="sans-serif" font-size="13" lengthAdjust="spacingAndGlyphs" textLength="40" x="2043" y="221.4951">refer to</text><polygon fill="#000000" points="2086,214.6758,2092,217.6758,2086,220.6758,2086,214.6758" style="stroke: #000000; stroke-width: 1.0;"/><text fill="#000000" font-family="sans-serif" font-size="13" lengthAdjust="spacingAndGlyphs" textLength="7" x="2018.9091" y="233.1095">1</text><text fill="#000000" font-family="sans-serif" font-size="13" lengthAdjust="spacingAndGlyphs" textLength="7" x="2112.9814" y="259.5274">1</text><!--MD5=[80bfe53c9a81718400b24a13b8f52143]
link HistoricalTransactionFile to Transaction--><path d="M1379.28,267.651 C1432.71,271.255 1500.01,275.795 1544.44,278.792 " fill="none" id="HistoricalTransactionFile-Transaction" style="stroke: #A80036; stroke-width: 1.0;"/><text fill="#000000" font-family="sans-serif" font-size="13" lengthAdjust="spacingAndGlyphs" textLength="43" x="1412" y="266.4951">records</text><polygon fill="#000000" points="1458,259.6758,1464,262.6758,1458,265.6758,1458,259.6758" style="stroke: #000000; stroke-width: 1.0;"/><text fill="#000000" font-family="sans-serif" font-size="13" lengthAdjust="spacingAndGlyphs" textLength="7" x="1386.8666" y="282.3344">1</text><text fill="#000000" font-family="sans-serif" font-size="13" lengthAdjust="spacingAndGlyphs" textLength="5" x="1531.6214" y="293.0478">*</text><!--MD5=[f8679721e8e5159e33912074b64b525d]
link PaymentScheduler to Payment--><path d="M1076.06,690.858 C1131.59,706.471 1208.56,728.116 1254.47,741.025 " fill="none" id="PaymentScheduler-Payment" style="stroke: #A80036; stroke-width: 1.0;"/><text fill="#000000" font-family="sans-serif" font-size="13" lengthAdjust="spacingAndGlyphs" textLength="59" x="1107" y="696.4951">schedules</text><polygon fill="#000000" points="1169,689.6758,1175,692.6758,1169,695.6758,1169,689.6758" style="stroke: #000000; stroke-width: 1.0;"/><text fill="#000000" font-family="sans-serif" font-size="13" lengthAdjust="spacingAndGlyphs" textLength="7" x="1083.8869" y="707.3279">1</text><text fill="#000000" font-family="sans-serif" font-size="13" lengthAdjust="spacingAndGlyphs" textLength="5" x="1241.6285" y="754.004">*</text><!--MD5=[45817597bcd7048073a670d966abfd17]
link Organization to Collaborator--><path d="M492.746,581.818 C496.484,533.637 511.413,433.321 571,380 C681.336,281.265 869.312,274.704 957.968,277.773 " fill="none" id="Organization-Collaborator" style="stroke: #A80036; stroke-width: 1.0;"/><text fill="#000000" font-family="sans-serif" font-size="13" lengthAdjust="spacingAndGlyphs" textLength="21" x="697.5" y="288.4951">has</text><polygon fill="#000000" points="721.5,281.6758,727.5,284.6758,721.5,287.6758,721.5,281.6758" style="stroke: #000000; stroke-width: 1.0;"/><text fill="#000000" font-family="sans-serif" font-size="13" lengthAdjust="spacingAndGlyphs" textLength="7" x="485.456" y="571.2369">1</text><text fill="#000000" font-family="sans-serif" font-size="13" lengthAdjust="spacingAndGlyphs" textLength="23" x="927.0842" y="291.9337">1,...</text><!--MD5=[bc039f41cf0b27fadee5cae63fc6e1fe]
link Organization to Manager--><path d="M541.045,621.498 C578.232,630.878 628.856,643.648 665.631,652.925 " fill="none" id="Organization-Manager" style="stroke: #A80036; stroke-width: 1.0;"/><text fill="#000000" font-family="sans-serif" font-size="13" lengthAdjust="spacingAndGlyphs" textLength="21" x="586.5" y="626.4951">has</text><polygon fill="#000000" points="610.5,619.6758,616.5,622.6758,610.5,625.6758,610.5,619.6758" style="stroke: #000000; stroke-width: 1.0;"/><text fill="#000000" font-family="sans-serif" font-size="13" lengthAdjust="spacingAndGlyphs" textLength="7" x="548.9829" y="638.0416">1</text><text fill="#000000" font-family="sans-serif" font-size="13" lengthAdjust="spacingAndGlyphs" textLength="7" x="650.9393" y="665.8836">1</text><!--MD5=[5f4f57afaa4ed75c0a27618a4620afc1]
link Organization to PaymentScheduler--><path d="M541.095,605.398 C550.996,604.816 561.324,604.304 571,604 C599.875,603.093 607.113,603.659 636,604 C692.456,604.667 706.961,600.116 763,607 C829.46,615.164 845.462,622.157 910,640 C919.742,642.694 929.955,645.774 939.946,648.936 " fill="none" id="Organization-PaymentScheduler" style="stroke: #A80036; stroke-width: 1.0;"/><text fill="#000000" font-family="sans-serif" font-size="13" lengthAdjust="spacingAndGlyphs" textLength="28" x="694" y="599.4951">uses</text><polygon fill="#000000" points="725,592.6758,731,595.6758,725,598.6758,725,592.6758" style="stroke: #000000; stroke-width: 1.0;"/><text fill="#000000" font-family="sans-serif" font-size="13" lengthAdjust="spacingAndGlyphs" textLength="7" x="549.0402" y="619.5769">1</text><text fill="#000000" font-family="sans-serif" font-size="13" lengthAdjust="spacingAndGlyphs" textLength="7" x="925.1198" y="660.8207">1</text><!--MD5=[4078351e3988aa35b1504a42837f2ab1]
link Organization to Task--><path d="M541.209,586.282 C550.917,582.624 561.146,579.292 571,577 C1238.91,421.675 1479.76,652.677 2098,356 C2115.91,347.407 2133.71,335.688 2149.72,323.637 " fill="none" id="Organization-Task" style="stroke: #A80036; stroke-width: 1.0;"/><text fill="#000000" font-family="sans-serif" font-size="13" lengthAdjust="spacingAndGlyphs" textLength="55" x="1260.5" y="513.4951">publishes</text><polygon fill="#000000" points="1318.5,506.6758,1324.5,509.6758,1318.5,512.6758,1318.5,506.6758" style="stroke: #000000; stroke-width: 1.0;"/><text fill="#000000" font-family="sans-serif" font-size="13" lengthAdjust="spacingAndGlyphs" textLength="7" x="548.8321" y="597.7437">1</text><text fill="#000000" font-family="sans-serif" font-size="13" lengthAdjust="spacingAndGlyphs" textLength="5" x="2136.356" y="345.1685">*</text><!--MD5=[42a7202f7cf6325e6697bc6383dceeb9]
link Organization to Transaction--><path d="M498.99,581.801 C509.628,548.018 532.254,490.73 571,457 C621.736,412.833 646.233,406 713.5,406 C713.5,406 713.5,406 1144,406 C1184.55,406 1437.6,329.558 1544.46,296.711 " fill="none" id="Organization-Transaction" style="stroke: #A80036; stroke-width: 1.0;"/><text fill="#000000" font-family="sans-serif" font-size="13" lengthAdjust="spacingAndGlyphs" textLength="63" x="970" y="402.4951">has unpaid</text><polygon fill="#000000" points="1036,395.6758,1042,398.6758,1036,401.6758,1036,395.6758" style="stroke: #000000; stroke-width: 1.0;"/><text fill="#000000" font-family="sans-serif" font-size="13" lengthAdjust="spacingAndGlyphs" textLength="7" x="501.7627" y="571.216">1</text><text fill="#000000" font-family="sans-serif" font-size="13" lengthAdjust="spacingAndGlyphs" textLength="5" x="1531.6445" y="313.7107">*</text><!--MD5=[8853e9d83a8841c20c4ef075af762602]
link Task to Freelancer--><path d="M2297.13,299.515 C2343.29,316.357 2399.83,336.984 2442.96,352.72 " fill="none" id="Task-Freelancer" style="stroke: #A80036; stroke-width: 1.0;"/><text fill="#000000" font-family="sans-serif" font-size="13" lengthAdjust="spacingAndGlyphs" textLength="71" x="2328" y="309.4951">executed by</text><polygon fill="#000000" points="2402,302.6758,2408,305.6758,2402,308.6758,2402,302.6758" style="stroke: #000000; stroke-width: 1.0;"/><text fill="#000000" font-family="sans-serif" font-size="13" lengthAdjust="spacingAndGlyphs" textLength="5" x="2304.89" y="316.448">*</text><text fill="#000000" font-family="sans-serif" font-size="13" lengthAdjust="spacingAndGlyphs" textLength="22" x="2412.8606" y="364.5705">0, 1</text><!--MD5=[939acada67c666032ddf52a0068bc128]
link App to MonetaryUnitConversionAPI--><path d="M59.0771,954.235 C176.331,963.971 673.968,999.765 1076,944 C1256.04,919.027 1299.28,897.593 1471,838 C1497.57,828.78 1526.54,816.415 1549.47,806.057 " fill="none" id="App-MonetaryUnitConversionAPI" style="stroke: #A80036; stroke-width: 1.0;"/><text fill="#000000" font-family="sans-serif" font-size="13" lengthAdjust="spacingAndGlyphs" textLength="50" x="683" y="966.4951">supports</text><polygon fill="#000000" points="736,959.6758,742,962.6758,736,965.6758,736,959.6758" style="stroke: #000000; stroke-width: 1.0;"/><text fill="#000000" font-family="sans-serif" font-size="13" lengthAdjust="spacingAndGlyphs" textLength="7" x="67.1603" y="970.528">1</text><text fill="#000000" font-family="sans-serif" font-size="13" lengthAdjust="spacingAndGlyphs" textLength="7" x="1529.2428" y="827.4926">1</text><!--MD5=[1370966fb1e3885ea6828d35f10d9d48]
link App to Organization--><path d="M34.4745,931.896 C37.2497,896.114 47.9264,820.928 89,776 C184.561,671.47 355.759,630.404 439.966,615.963 " fill="none" id="App-Organization" style="stroke: #A80036; stroke-width: 1.0;"/><text fill="#000000" font-family="sans-serif" font-size="13" lengthAdjust="spacingAndGlyphs" textLength="21" x="190.5" y="663.4951">has</text><polygon fill="#000000" points="214.5,656.6758,220.5,659.6758,214.5,662.6758,214.5,656.6758" style="stroke: #000000; stroke-width: 1.0;"/><text fill="#000000" font-family="sans-serif" font-size="13" lengthAdjust="spacingAndGlyphs" textLength="7" x="27.0264" y="921.1872">1</text><text fill="#000000" font-family="sans-serif" font-size="13" lengthAdjust="spacingAndGlyphs" textLength="5" x="426.8452" y="631.7888">*</text><!--MD5=[1cb21011969cc62c73f846209be643c8]
link App to EmailAPI--><path d="M40.2843,972.237 C58.4917,1022.315 113.457,1148 206.5,1148 C206.5,1148 206.5,1148 1295.5,1148 C1408.55,1148 1522.74,1060.802 1569.72,1020.268 " fill="none" id="App-EmailAPI" style="stroke: #A80036; stroke-width: 1.0;"/><text fill="#000000" font-family="sans-serif" font-size="13" lengthAdjust="spacingAndGlyphs" textLength="50" x="683" y="1144.4951">supports</text><polygon fill="#000000" points="736,1137.6758,742,1140.6758,736,1143.6758,736,1137.6758" style="stroke: #000000; stroke-width: 1.0;"/><text fill="#000000" font-family="sans-serif" font-size="13" lengthAdjust="spacingAndGlyphs" textLength="7" x="34.4357" y="993.3681">1</text><text fill="#000000" font-family="sans-serif" font-size="13" lengthAdjust="spacingAndGlyphs" textLength="7" x="1555.5229" y="1041.4074">1</text><!--MD5=[c476b523f9294f20b13319074aa597a2]
link App to PaymentAPI--><path d="M35.0687,931.863 C45.8445,796.884 111.329,29 206.5,29 C206.5,29 206.5,29 1594,29 C1694.41,29 1811.99,28.53 1876.33,28.24 " fill="none" id="App-PaymentAPI" style="stroke: #A80036; stroke-width: 1.0;"/><text fill="#000000" font-family="sans-serif" font-size="13" lengthAdjust="spacingAndGlyphs" textLength="50" x="820" y="25.4951">supports</text><polygon fill="#000000" points="873,18.6758,879,21.6758,873,24.6758,873,18.6758" style="stroke: #000000; stroke-width: 1.0;"/><text fill="#000000" font-family="sans-serif" font-size="13" lengthAdjust="spacingAndGlyphs" textLength="7" x="36.8514" y="921.1445">1</text><text fill="#000000" font-family="sans-serif" font-size="13" lengthAdjust="spacingAndGlyphs" textLength="7" x="1861.5941" y="42.9712">1</text><!--MD5=[96d7ba993ba442b366771602ebe86063]
link App to Payment--><path d="M48.0652,931.649 C68.5275,904.873 108.528,858.785 155,838 C210.065,813.372 229.862,828.703 290,824 C684.901,793.116 787.486,830.226 1180,777 C1204.99,773.611 1232.64,767.571 1254.39,762.277 " fill="none" id="App-Payment" style="stroke: #A80036; stroke-width: 1.0;"/><text fill="#000000" font-family="sans-serif" font-size="13" lengthAdjust="spacingAndGlyphs" textLength="50" x="572" y="805.4951">registers</text><polygon fill="#000000" points="625,798.6758,631,801.6758,625,804.6758,625,798.6758" style="stroke: #000000; stroke-width: 1.0;"/><text fill="#000000" font-family="sans-serif" font-size="13" lengthAdjust="spacingAndGlyphs" textLength="7" x="44.4585" y="921.2198">1</text><text fill="#000000" font-family="sans-serif" font-size="13" lengthAdjust="spacingAndGlyphs" textLength="5" x="1241.5338" y="779.1743">*</text><!--MD5=[66e1bf42337190a3177776b035b1a873]
link App to Administrator--><path d="M59.0267,943.737 C84.1221,935.614 123.149,922.981 154.752,912.751 " fill="none" id="App-Administrator" style="stroke: #A80036; stroke-width: 1.0;"/><text fill="#000000" font-family="sans-serif" font-size="13" lengthAdjust="spacingAndGlyphs" textLength="21" x="90" y="920.4951">has</text><polygon fill="#000000" points="114,913.6758,120,916.6758,114,919.6758,114,913.6758" style="stroke: #000000; stroke-width: 1.0;"/><text fill="#000000" font-family="sans-serif" font-size="13" lengthAdjust="spacingAndGlyphs" textLength="7" x="67.0964" y="936.9087">1</text><text fill="#000000" font-family="sans-serif" font-size="13" lengthAdjust="spacingAndGlyphs" textLength="5" x="141.9828" y="929.7861">*</text><!--MD5=[d88947b97cc296deaa09f9756953ae3a]
link App to Freelancer--><path d="M35.9652,972.425 C45.0695,1037.543 82.951,1236 206.5,1236 C206.5,1236 206.5,1236 2213.5,1236 C2378.43,1236 2471.43,662.775 2499.95,452.854 " fill="none" id="App-Freelancer" style="stroke: #A80036; stroke-width: 1.0;"/><text fill="#000000" font-family="sans-serif" font-size="13" lengthAdjust="spacingAndGlyphs" textLength="21" x="1126" y="1232.4951">has</text><polygon fill="#000000" points="1150,1225.6758,1156,1228.6758,1150,1231.6758,1150,1225.6758" style="stroke: #000000; stroke-width: 1.0;"/><text fill="#000000" font-family="sans-serif" font-size="13" lengthAdjust="spacingAndGlyphs" textLength="7" x="28.9558" y="993.6066">1</text><text fill="#000000" font-family="sans-serif" font-size="13" lengthAdjust="spacingAndGlyphs" textLength="5" x="2493.8285" y="473.5839">*</text><!--MD5=[63a18bfb0c55f564ea81086f541b4ad2]
link App to EmailScheduler--><path d="M41.3594,972.195 C49.9843,991.457 65.7671,1019.602 89,1034 C149.878,1071.728 234.068,1076.313 289.96,1074.236 " fill="none" id="App-EmailScheduler" style="stroke: #A80036; stroke-width: 1.0;"/><text fill="#000000" font-family="sans-serif" font-size="13" lengthAdjust="spacingAndGlyphs" textLength="21" x="90" y="1030.4951">has</text><polygon fill="#000000" points="114,1023.6758,120,1026.6758,114,1029.6758,114,1023.6758" style="stroke: #000000; stroke-width: 1.0;"/><text fill="#000000" font-family="sans-serif" font-size="13" lengthAdjust="spacingAndGlyphs" textLength="7" x="44.8355" y="993.6694">1</text><text fill="#000000" font-family="sans-serif" font-size="13" lengthAdjust="spacingAndGlyphs" textLength="7" x="274.8189" y="1089.4495">1</text><!--MD5=[62b22ab9dd7e0fc0219b5bb8924f5993]
link EmailScheduler to EmailAPI--><path d="M410.183,1071.945 C461.138,1074.226 536.644,1077 602.5,1077 C602.5,1077 602.5,1077 1295.5,1077 C1389.63,1077 1495.34,1040.191 1551.61,1017.472 " fill="none" id="EmailScheduler-EmailAPI" style="stroke: #A80036; stroke-width: 1.0;"/><text fill="#000000" font-family="sans-serif" font-size="13" lengthAdjust="spacingAndGlyphs" textLength="28" x="831" y="1073.4951">uses</text><polygon fill="#000000" points="862,1066.6758,868,1069.6758,862,1072.6758,862,1066.6758" style="stroke: #000000; stroke-width: 1.0;"/><text fill="#000000" font-family="sans-serif" font-size="13" lengthAdjust="spacingAndGlyphs" textLength="7" x="417.9444" y="1086.7955">1</text><text fill="#000000" font-family="sans-serif" font-size="13" lengthAdjust="spacingAndGlyphs" textLength="7" x="1536.8945" y="1035.3753">1</text><!--MD5=[2a41c1af413c0662bf55a6b8913ea24f]
link Administrator to Organization--><path d="M255.236,854.651 C297.086,816.945 359.464,759.041 410,705 C430.84,682.714 452.841,655.855 468.402,636.221 " fill="none" id="Administrator-Organization" style="stroke: #A80036; stroke-width: 1.0;"/><polygon fill="#000000" points="339,698,342,692,345,698,339,698" style="stroke: #000000; stroke-width: 1.0;"/><text fill="#000000" font-family="sans-serif" font-size="13" lengthAdjust="spacingAndGlyphs" textLength="28" x="329.5" y="714.4951">adds</text><text fill="#000000" font-family="sans-serif" font-size="13" lengthAdjust="spacingAndGlyphs" textLength="7" x="255.5626" y="844.0426">1</text><text fill="#000000" font-family="sans-serif" font-size="13" lengthAdjust="spacingAndGlyphs" textLength="5" x="458.0212" y="657.4771">*</text><!--MD5=[edc107c0a572352bcd12c9afaba4390b]
link Administrator to User--><path d="M260.028,897.466 C316.38,898.942 409.358,901 489.5,901 C489.5,901 489.5,901 1594,901 C1701.27,901 1814.72,839.628 1876.85,799.952 " fill="none" id="Administrator-User" style="stroke: #A80036; stroke-width: 1.0;"/><text fill="#000000" font-family="sans-serif" font-size="13" lengthAdjust="spacingAndGlyphs" textLength="43" x="980" y="897.4951">acts as</text><polygon fill="#000000" points="1026,890.6758,1032,893.6758,1026,896.6758,1026,890.6758" style="stroke: #000000; stroke-width: 1.0;"/><text fill="#000000" font-family="sans-serif" font-size="13" lengthAdjust="spacingAndGlyphs" textLength="18" x="267.9113" y="912.228">0,1</text><text fill="#000000" font-family="sans-serif" font-size="13" lengthAdjust="spacingAndGlyphs" textLength="7" x="1861.8645" y="819.7825">1</text><!--MD5=[d633b45690d51141bd211d849cad7ced]
link EmailAPI to User--><path d="M1634.15,993.4 C1688.54,983.857 1782.06,965.13 1810,945 C1858,910.423 1890.91,848.934 1908.73,808.06 " fill="none" id="EmailAPI-User" style="stroke: #A80036; stroke-width: 1.0;"/><text fill="#000000" font-family="sans-serif" font-size="13" lengthAdjust="spacingAndGlyphs" textLength="42" x="1735" y="941.4951">e-mails</text><polygon fill="#000000" points="1780,934.6758,1786,937.6758,1780,940.6758,1780,934.6758" style="stroke: #000000; stroke-width: 1.0;"/><text fill="#000000" font-family="sans-serif" font-size="13" lengthAdjust="spacingAndGlyphs" textLength="7" x="1642.1033" y="1007.1758">1</text><text fill="#000000" font-family="sans-serif" font-size="13" lengthAdjust="spacingAndGlyphs" textLength="5" x="1900.7793" y="829.132">*</text><!--MD5=[cbdd6193c065fcdcc21acc530d8838bb]
link EmailAPI to Freelancer--><path d="M1634.13,1002.251 C1678.67,1003.329 1751.94,1000.82 1810,978 C2094.06,866.357 2342.93,587.741 2451.52,452.721 " fill="none" id="EmailAPI-Freelancer" style="stroke: #A80036; stroke-width: 1.0;"/><text fill="#000000" font-family="sans-serif" font-size="13" lengthAdjust="spacingAndGlyphs" textLength="42" x="2042" y="808.4951">e-mails</text><polygon fill="#000000" points="2087,801.6758,2093,804.6758,2087,807.6758,2087,801.6758" style="stroke: #000000; stroke-width: 1.0;"/><text fill="#000000" font-family="sans-serif" font-size="13" lengthAdjust="spacingAndGlyphs" textLength="7" x="1642.0797" y="1017.6034">1</text><text fill="#000000" font-family="sans-serif" font-size="13" lengthAdjust="spacingAndGlyphs" textLength="5" x="2441.0444" y="473.7021">*</text><!--MD5=[f069d24764f71b7da17f06844b0d1949]
@startuml MD

skinparam classAttributeIconSize 0
hide methods
left to right direction

class Collaborator {
        - String nome
        - String email
        - String password
}

class Manager {
        - String nome
        - String email
        - String password
}

class Transaction {

}

class TaskExecutionDetails {
        - LocalDate endDate
        - Integer delayInDays
        - String DescriptionQualityOfWork
}

class HistoricalTransactionFile {

}

class PaymentScheduler {
        - Integer dayMonth
        - LocalTime timeOfDay
}

class Organization {
        - String nome
}

class Task {
        - String id
        - String description
        - Integer durationInHours
        - Double costPerHourOfJuniorEur
        - String category
}

class App {

}

class Administrator {
        - String nome
        - String email
        - String password
}

class EmailScheduler {

}

class User {
        - String nome
        - String email
        - String password
}

class Freelancer {
        - String id
        - String name
        - String levelOfExpertise
        - String email
        - String NIF
        - String bankAccountIBAN
        - String address
        - String country
}

Collaborator                  "1" - - "*"      Transaction               : creates >
Collaborator                  "1" - - "*"      Task                      : creates >
Collaborator                  "1" - - "*"      Freelancer                : creates >
Collaborator                  "1" - - "*"      HistoricalTransactionFile : loads >
Collaborator                "0,1" - - "1"      User                      : acts as >
Manager                      "1" - - "0,1"    PaymentScheduler          : defines >
Manager                    "0,1" - - "1"      User                      : acts as >
Payment                      "1" - - "1"      Transaction               : refers to >
Payment                      "*" - - "1"      EmailAPI                  : uses >
Payment                      "*" - - "1"      MonetaryUnitConversionAPI : uses >
Payment                      "*" - - "1"     Organization              : made on behalf of >
Transaction                  "1" - - "1"      Task                      : relative to >
Transaction                  "1" - - "1"      TaskExecutionDetails      : executed with >
Transaction                  "*" - - "1"      Freelancer                : to >
Transaction                  "*" - - "1"      PaymentAPI                : uses >
TaskExecutionDetails         "1" - - "1"      Task                      : refer to >
HistoricalTransactionFile    "1" - - "*"      Transaction               : records >
PaymentScheduler             "1" - - "*"      Payment                   : schedules >
Organization                 "1" - - "1,..."  Collaborator               : has >
Organization                 "1" - - "1"      Manager                   : has >
Organization                 "1" - - "1"      PaymentScheduler          : uses >
Organization                 "1" - - "*"      Task                      : publishes >
Organization                 "1" - - "*"      Transaction               : has unpaid >
Task                         "*" - - "0, 1"   Freelancer                : executed by >
App                          "1" - - "1"      MonetaryUnitConversionAPI : supports >
App                          "1" - - "*"      Organization              : has >
App                          "1" - - "1"      EmailAPI                  : supports >
App                          "1" - - "1"      PaymentAPI                : supports >
App                          "1" - - "*"      Payment                   : registers >
App                          "1" - - "*"      Administrator             : has >
App                          "1" - - "*"      Freelancer                : has >
App                          "1" - - "1"      EmailScheduler            : has >
EmailScheduler               "1" - - "1"      EmailAPI                  : uses >
Administrator                "1" - - "*"      Organization              : adds >
Administrator              "0,1" - - "1"      User                      : acts as >
EmailAPI                     "1" - - "*"      User                      : e-mails >
EmailAPI                     "1" - - "*"      Freelancer                : e-mails >

@enduml

PlantUML version 1.2020.10(Sun May 17 10:35:57 WEST 2020)
(GPL source distribution)
Java Runtime: OpenJDK Runtime Environment
JVM: OpenJDK 64-Bit Server VM
Java Version: 14+36
Operating System: Windows 10
Default Encoding: Cp1252
Language: en
Country: US
--></g></svg>