<?xml version="1.0" encoding="UTF-8" standalone="no"?><svg xmlns="http://www.w3.org/2000/svg" xmlns:xlink="http://www.w3.org/1999/xlink" contentScriptType="application/ecmascript" contentStyleType="text/css" height="1525px" preserveAspectRatio="none" style="width:828px;height:1525px;" version="1.1" viewBox="0 0 828 1525" width="828px" zoomAndPan="magnify"><defs><filter height="300%" id="ffqejufk65mj1" width="300%" x="-1" y="-1"><feGaussianBlur result="blurOut" stdDeviation="2.0"/><feColorMatrix in="blurOut" result="blurOut2" type="matrix" values="0 0 0 0 0 0 0 0 0 0 0 0 0 0 0 0 0 0 .4 0"/><feOffset dx="4.0" dy="4.0" in="blurOut2" result="blurOut3"/><feBlend in="SourceGraphic" in2="blurOut3" mode="normal"/></filter></defs><g><!--MD5=[a40557e6e85d4da4ca6f03c9286aad25]
class CreateTransactionUI--><rect fill="#FEFECE" filter="url(#ffqejufk65mj1)" height="48" id="CreateTransactionUI" style="stroke: #A80036; stroke-width: 1.5;" width="146" x="275.5" y="8"/><ellipse cx="290.5" cy="24" fill="#ADD1B2" rx="11" ry="11" style="stroke: #A80036; stroke-width: 1.0;"/><path d="M293.2656,19.875 Q293.4219,19.6563 293.6094,19.5469 Q293.7969,19.4375 294.0156,19.4375 Q294.3906,19.4375 294.625,19.7031 Q294.8594,19.9531 294.8594,20.5625 L294.8594,22.0156 Q294.8594,22.625 294.625,22.8906 Q294.3906,23.1563 294.0156,23.1563 Q293.6719,23.1563 293.4688,22.9531 Q293.2656,22.7656 293.1563,22.25 Q293.1094,21.8906 292.9219,21.7031 Q292.5938,21.3281 291.9844,21.1094 Q291.375,20.8906 290.75,20.8906 Q289.9844,20.8906 289.3438,21.2188 Q288.7188,21.5469 288.2188,22.2969 Q287.7344,23.0469 287.7344,24.0781 L287.7344,25.1719 Q287.7344,26.4063 288.625,27.2344 Q289.5156,28.0469 291.1094,28.0469 Q292.0469,28.0469 292.7031,27.7969 Q293.0938,27.6406 293.5156,27.2031 Q293.7813,26.9375 293.9219,26.8594 Q294.0781,26.7813 294.2813,26.7813 Q294.6094,26.7813 294.8594,27.0469 Q295.125,27.2969 295.125,27.6406 Q295.125,27.9844 294.7813,28.3906 Q294.2813,28.9688 293.4844,29.2969 Q292.4063,29.75 291.1094,29.75 Q289.5938,29.75 288.3906,29.125 Q287.4063,28.625 286.7188,27.5625 Q286.0313,26.4844 286.0313,25.2031 L286.0313,24.0469 Q286.0313,22.7188 286.6406,21.5781 Q287.2656,20.4219 288.3594,19.8125 Q289.4531,19.1875 290.6875,19.1875 Q291.4219,19.1875 292.0625,19.3594 Q292.7188,19.5156 293.2656,19.875 Z "/><text fill="#000000" font-family="sans-serif" font-size="12" lengthAdjust="spacingAndGlyphs" textLength="114" x="304.5" y="28.9102">CreateTransactionUI</text><line style="stroke: #A80036; stroke-width: 1.5;" x1="276.5" x2="420.5" y1="40" y2="40"/><line style="stroke: #A80036; stroke-width: 1.5;" x1="276.5" x2="420.5" y1="48" y2="48"/><!--MD5=[68b9bdc8d17948337917a4afca18f499]
class CreateTransactionController--><rect fill="#FEFECE" filter="url(#ffqejufk65mj1)" height="131.0156" id="CreateTransactionController" style="stroke: #A80036; stroke-width: 1.5;" width="290" x="203.5" y="117"/><ellipse cx="266.25" cy="133" fill="#ADD1B2" rx="11" ry="11" style="stroke: #A80036; stroke-width: 1.0;"/><path d="M269.0156,128.875 Q269.1719,128.6563 269.3594,128.5469 Q269.5469,128.4375 269.7656,128.4375 Q270.1406,128.4375 270.375,128.7031 Q270.6094,128.9531 270.6094,129.5625 L270.6094,131.0156 Q270.6094,131.625 270.375,131.8906 Q270.1406,132.1563 269.7656,132.1563 Q269.4219,132.1563 269.2188,131.9531 Q269.0156,131.7656 268.9063,131.25 Q268.8594,130.8906 268.6719,130.7031 Q268.3438,130.3281 267.7344,130.1094 Q267.125,129.8906 266.5,129.8906 Q265.7344,129.8906 265.0938,130.2188 Q264.4688,130.5469 263.9688,131.2969 Q263.4844,132.0469 263.4844,133.0781 L263.4844,134.1719 Q263.4844,135.4063 264.375,136.2344 Q265.2656,137.0469 266.8594,137.0469 Q267.7969,137.0469 268.4531,136.7969 Q268.8438,136.6406 269.2656,136.2031 Q269.5313,135.9375 269.6719,135.8594 Q269.8281,135.7813 270.0313,135.7813 Q270.3594,135.7813 270.6094,136.0469 Q270.875,136.2969 270.875,136.6406 Q270.875,136.9844 270.5313,137.3906 Q270.0313,137.9688 269.2344,138.2969 Q268.1563,138.75 266.8594,138.75 Q265.3438,138.75 264.1406,138.125 Q263.1563,137.625 262.4688,136.5625 Q261.7813,135.4844 261.7813,134.2031 L261.7813,133.0469 Q261.7813,131.7188 262.3906,130.5781 Q263.0156,129.4219 264.1094,128.8125 Q265.2031,128.1875 266.4375,128.1875 Q267.1719,128.1875 267.8125,128.3594 Q268.4688,128.5156 269.0156,128.875 Z "/><text fill="#000000" font-family="sans-serif" font-size="12" lengthAdjust="spacingAndGlyphs" textLength="156" x="286.75" y="137.9102">CreateTransactionController</text><line style="stroke: #A80036; stroke-width: 1.5;" x1="204.5" x2="492.5" y1="149" y2="149"/><line style="stroke: #A80036; stroke-width: 1.5;" x1="204.5" x2="492.5" y1="157" y2="157"/><text fill="#000000" font-family="sans-serif" font-size="11" lengthAdjust="spacingAndGlyphs" textLength="58" x="209.5" y="172.4189">+getTasks()</text><text fill="#000000" font-family="sans-serif" font-size="11" lengthAdjust="spacingAndGlyphs" textLength="87" x="209.5" y="186.2549">+getFreelancers()</text><text fill="#000000" font-family="sans-serif" font-size="11" lengthAdjust="spacingAndGlyphs" textLength="249" x="209.5" y="200.0908">+newTransaction(Task task, Freelancer freelancer,</text><text fill="#000000" font-family="sans-serif" font-size="11" lengthAdjust="spacingAndGlyphs" textLength="278" x="209.5" y="213.9268">LocalDate endDate, Integer daysDelay, String description)</text><text fill="#000000" font-family="sans-serif" font-size="11" lengthAdjust="spacingAndGlyphs" textLength="89" x="209.5" y="227.7627">+addTransaction()</text><text fill="#000000" font-family="sans-serif" font-size="11" lengthAdjust="spacingAndGlyphs" textLength="66" x="209.5" y="241.5986">+getAmount()</text><!--MD5=[335f4d9be48430461c68bf6d6fdba145]
class App--><rect fill="#FEFECE" filter="url(#ffqejufk65mj1)" height="75.6719" id="App" style="stroke: #A80036; stroke-width: 1.5;" width="132" x="56.5" y="309"/><ellipse cx="107.75" cy="325" fill="#ADD1B2" rx="11" ry="11" style="stroke: #A80036; stroke-width: 1.0;"/><path d="M110.5156,320.875 Q110.6719,320.6563 110.8594,320.5469 Q111.0469,320.4375 111.2656,320.4375 Q111.6406,320.4375 111.875,320.7031 Q112.1094,320.9531 112.1094,321.5625 L112.1094,323.0156 Q112.1094,323.625 111.875,323.8906 Q111.6406,324.1563 111.2656,324.1563 Q110.9219,324.1563 110.7188,323.9531 Q110.5156,323.7656 110.4063,323.25 Q110.3594,322.8906 110.1719,322.7031 Q109.8438,322.3281 109.2344,322.1094 Q108.625,321.8906 108,321.8906 Q107.2344,321.8906 106.5938,322.2188 Q105.9688,322.5469 105.4688,323.2969 Q104.9844,324.0469 104.9844,325.0781 L104.9844,326.1719 Q104.9844,327.4063 105.875,328.2344 Q106.7656,329.0469 108.3594,329.0469 Q109.2969,329.0469 109.9531,328.7969 Q110.3438,328.6406 110.7656,328.2031 Q111.0313,327.9375 111.1719,327.8594 Q111.3281,327.7813 111.5313,327.7813 Q111.8594,327.7813 112.1094,328.0469 Q112.375,328.2969 112.375,328.6406 Q112.375,328.9844 112.0313,329.3906 Q111.5313,329.9688 110.7344,330.2969 Q109.6563,330.75 108.3594,330.75 Q106.8438,330.75 105.6406,330.125 Q104.6563,329.625 103.9688,328.5625 Q103.2813,327.4844 103.2813,326.2031 L103.2813,325.0469 Q103.2813,323.7188 103.8906,322.5781 Q104.5156,321.4219 105.6094,320.8125 Q106.7031,320.1875 107.9375,320.1875 Q108.6719,320.1875 109.3125,320.3594 Q109.9688,320.5156 110.5156,320.875 Z "/><text fill="#000000" font-family="sans-serif" font-size="12" lengthAdjust="spacingAndGlyphs" textLength="21" x="128.25" y="329.9102">App</text><line style="stroke: #A80036; stroke-width: 1.5;" x1="57.5" x2="187.5" y1="341" y2="341"/><line style="stroke: #A80036; stroke-width: 1.5;" x1="57.5" x2="187.5" y1="349" y2="349"/><text fill="#000000" font-family="sans-serif" font-size="11" lengthAdjust="spacingAndGlyphs" textLength="120" x="62.5" y="364.4189">+getRegistOrganization()</text><text fill="#000000" font-family="sans-serif" font-size="11" lengthAdjust="spacingAndGlyphs" textLength="111" x="62.5" y="378.2549">+getRegistFreelancer()</text><!--MD5=[e09e0019787cf83947156283bb671e06]
class RegistOrganization--><rect fill="#FEFECE" filter="url(#ffqejufk65mj1)" height="61.8359" id="RegistOrganization" style="stroke: #A80036; stroke-width: 1.5;" width="217" x="240" y="463"/><ellipse cx="291.75" cy="479" fill="#ADD1B2" rx="11" ry="11" style="stroke: #A80036; stroke-width: 1.0;"/><path d="M294.5156,474.875 Q294.6719,474.6563 294.8594,474.5469 Q295.0469,474.4375 295.2656,474.4375 Q295.6406,474.4375 295.875,474.7031 Q296.1094,474.9531 296.1094,475.5625 L296.1094,477.0156 Q296.1094,477.625 295.875,477.8906 Q295.6406,478.1563 295.2656,478.1563 Q294.9219,478.1563 294.7188,477.9531 Q294.5156,477.7656 294.4063,477.25 Q294.3594,476.8906 294.1719,476.7031 Q293.8438,476.3281 293.2344,476.1094 Q292.625,475.8906 292,475.8906 Q291.2344,475.8906 290.5938,476.2188 Q289.9688,476.5469 289.4688,477.2969 Q288.9844,478.0469 288.9844,479.0781 L288.9844,480.1719 Q288.9844,481.4063 289.875,482.2344 Q290.7656,483.0469 292.3594,483.0469 Q293.2969,483.0469 293.9531,482.7969 Q294.3438,482.6406 294.7656,482.2031 Q295.0313,481.9375 295.1719,481.8594 Q295.3281,481.7813 295.5313,481.7813 Q295.8594,481.7813 296.1094,482.0469 Q296.375,482.2969 296.375,482.6406 Q296.375,482.9844 296.0313,483.3906 Q295.5313,483.9688 294.7344,484.2969 Q293.6563,484.75 292.3594,484.75 Q290.8438,484.75 289.6406,484.125 Q288.6563,483.625 287.9688,482.5625 Q287.2813,481.4844 287.2813,480.2031 L287.2813,479.0469 Q287.2813,477.7188 287.8906,476.5781 Q288.5156,475.4219 289.6094,474.8125 Q290.7031,474.1875 291.9375,474.1875 Q292.6719,474.1875 293.3125,474.3594 Q293.9688,474.5156 294.5156,474.875 Z "/><text fill="#000000" font-family="sans-serif" font-size="12" lengthAdjust="spacingAndGlyphs" textLength="105" x="312.25" y="483.9102">RegistOrganization</text><line style="stroke: #A80036; stroke-width: 1.5;" x1="241" x2="456" y1="495" y2="495"/><line style="stroke: #A80036; stroke-width: 1.5;" x1="241" x2="456" y1="503" y2="503"/><text fill="#000000" font-family="sans-serif" font-size="11" lengthAdjust="spacingAndGlyphs" textLength="205" x="246" y="518.4189">+getOrganizationByEmailUser(String email)</text><!--MD5=[eba5144af5135a87840971fc4358c553]
class RegistFreelancer--><rect fill="#FEFECE" filter="url(#ffqejufk65mj1)" height="61.8359" id="RegistFreelancer" style="stroke: #A80036; stroke-width: 1.5;" width="127" x="6" y="463"/><ellipse cx="21" cy="479" fill="#ADD1B2" rx="11" ry="11" style="stroke: #A80036; stroke-width: 1.0;"/><path d="M23.7656,474.875 Q23.9219,474.6563 24.1094,474.5469 Q24.2969,474.4375 24.5156,474.4375 Q24.8906,474.4375 25.125,474.7031 Q25.3594,474.9531 25.3594,475.5625 L25.3594,477.0156 Q25.3594,477.625 25.125,477.8906 Q24.8906,478.1563 24.5156,478.1563 Q24.1719,478.1563 23.9688,477.9531 Q23.7656,477.7656 23.6563,477.25 Q23.6094,476.8906 23.4219,476.7031 Q23.0938,476.3281 22.4844,476.1094 Q21.875,475.8906 21.25,475.8906 Q20.4844,475.8906 19.8438,476.2188 Q19.2188,476.5469 18.7188,477.2969 Q18.2344,478.0469 18.2344,479.0781 L18.2344,480.1719 Q18.2344,481.4063 19.125,482.2344 Q20.0156,483.0469 21.6094,483.0469 Q22.5469,483.0469 23.2031,482.7969 Q23.5938,482.6406 24.0156,482.2031 Q24.2813,481.9375 24.4219,481.8594 Q24.5781,481.7813 24.7813,481.7813 Q25.1094,481.7813 25.3594,482.0469 Q25.625,482.2969 25.625,482.6406 Q25.625,482.9844 25.2813,483.3906 Q24.7813,483.9688 23.9844,484.2969 Q22.9063,484.75 21.6094,484.75 Q20.0938,484.75 18.8906,484.125 Q17.9063,483.625 17.2188,482.5625 Q16.5313,481.4844 16.5313,480.2031 L16.5313,479.0469 Q16.5313,477.7188 17.1406,476.5781 Q17.7656,475.4219 18.8594,474.8125 Q19.9531,474.1875 21.1875,474.1875 Q21.9219,474.1875 22.5625,474.3594 Q23.2188,474.5156 23.7656,474.875 Z "/><text fill="#000000" font-family="sans-serif" font-size="12" lengthAdjust="spacingAndGlyphs" textLength="95" x="35" y="483.9102">RegistFreelancer</text><line style="stroke: #A80036; stroke-width: 1.5;" x1="7" x2="132" y1="495" y2="495"/><line style="stroke: #A80036; stroke-width: 1.5;" x1="7" x2="132" y1="503" y2="503"/><text fill="#000000" font-family="sans-serif" font-size="11" lengthAdjust="spacingAndGlyphs" textLength="87" x="12" y="518.4189">+getFreelancers()</text><!--MD5=[86c7c362de55a38b660185a1328fe18d]
class Organization--><rect fill="#FEFECE" filter="url(#ffqejufk65mj1)" height="103.3438" id="Organization" style="stroke: #A80036; stroke-width: 1.5;" width="115" x="291" y="603"/><ellipse cx="312.3" cy="619" fill="#ADD1B2" rx="11" ry="11" style="stroke: #A80036; stroke-width: 1.0;"/><path d="M315.0656,614.875 Q315.2219,614.6563 315.4094,614.5469 Q315.5969,614.4375 315.8156,614.4375 Q316.1906,614.4375 316.425,614.7031 Q316.6594,614.9531 316.6594,615.5625 L316.6594,617.0156 Q316.6594,617.625 316.425,617.8906 Q316.1906,618.1563 315.8156,618.1563 Q315.4719,618.1563 315.2688,617.9531 Q315.0656,617.7656 314.9563,617.25 Q314.9094,616.8906 314.7219,616.7031 Q314.3938,616.3281 313.7844,616.1094 Q313.175,615.8906 312.55,615.8906 Q311.7844,615.8906 311.1438,616.2188 Q310.5188,616.5469 310.0188,617.2969 Q309.5344,618.0469 309.5344,619.0781 L309.5344,620.1719 Q309.5344,621.4063 310.425,622.2344 Q311.3156,623.0469 312.9094,623.0469 Q313.8469,623.0469 314.5031,622.7969 Q314.8938,622.6406 315.3156,622.2031 Q315.5813,621.9375 315.7219,621.8594 Q315.8781,621.7813 316.0813,621.7813 Q316.4094,621.7813 316.6594,622.0469 Q316.925,622.2969 316.925,622.6406 Q316.925,622.9844 316.5813,623.3906 Q316.0813,623.9688 315.2844,624.2969 Q314.2063,624.75 312.9094,624.75 Q311.3938,624.75 310.1906,624.125 Q309.2063,623.625 308.5188,622.5625 Q307.8313,621.4844 307.8313,620.2031 L307.8313,619.0469 Q307.8313,617.7188 308.4406,616.5781 Q309.0656,615.4219 310.1594,614.8125 Q311.2531,614.1875 312.4875,614.1875 Q313.2219,614.1875 313.8625,614.3594 Q314.5188,614.5156 315.0656,614.875 Z "/><text fill="#000000" font-family="sans-serif" font-size="12" lengthAdjust="spacingAndGlyphs" textLength="69" x="327.7" y="623.9102">Organization</text><line style="stroke: #A80036; stroke-width: 1.5;" x1="292" x2="405" y1="635" y2="635"/><text fill="#000000" font-family="sans-serif" font-size="11" lengthAdjust="spacingAndGlyphs" textLength="61" x="297" y="650.4189">-String nome</text><text fill="#000000" font-family="sans-serif" font-size="11" lengthAdjust="spacingAndGlyphs" textLength="50" x="297" y="664.2549">-String NIF</text><line style="stroke: #A80036; stroke-width: 1.5;" x1="292" x2="405" y1="670.6719" y2="670.6719"/><text fill="#000000" font-family="sans-serif" font-size="11" lengthAdjust="spacingAndGlyphs" textLength="69" x="297" y="686.0908">+getListTask()</text><text fill="#000000" font-family="sans-serif" font-size="11" lengthAdjust="spacingAndGlyphs" textLength="103" x="297" y="699.9268">+getListTransaction()</text><!--MD5=[b06a3547c6ce1bbc9e54a161efa0ce5f]
class ListTask--><rect fill="#FEFECE" filter="url(#ffqejufk65mj1)" height="75.6719" id="ListTask" style="stroke: #A80036; stroke-width: 1.5;" width="122" x="125.5" y="804.5"/><ellipse cx="159.85" cy="820.5" fill="#ADD1B2" rx="11" ry="11" style="stroke: #A80036; stroke-width: 1.0;"/><path d="M162.6156,816.375 Q162.7719,816.1563 162.9594,816.0469 Q163.1469,815.9375 163.3656,815.9375 Q163.7406,815.9375 163.975,816.2031 Q164.2094,816.4531 164.2094,817.0625 L164.2094,818.5156 Q164.2094,819.125 163.975,819.3906 Q163.7406,819.6563 163.3656,819.6563 Q163.0219,819.6563 162.8188,819.4531 Q162.6156,819.2656 162.5063,818.75 Q162.4594,818.3906 162.2719,818.2031 Q161.9438,817.8281 161.3344,817.6094 Q160.725,817.3906 160.1,817.3906 Q159.3344,817.3906 158.6938,817.7188 Q158.0688,818.0469 157.5688,818.7969 Q157.0844,819.5469 157.0844,820.5781 L157.0844,821.6719 Q157.0844,822.9063 157.975,823.7344 Q158.8656,824.5469 160.4594,824.5469 Q161.3969,824.5469 162.0531,824.2969 Q162.4438,824.1406 162.8656,823.7031 Q163.1313,823.4375 163.2719,823.3594 Q163.4281,823.2813 163.6313,823.2813 Q163.9594,823.2813 164.2094,823.5469 Q164.475,823.7969 164.475,824.1406 Q164.475,824.4844 164.1313,824.8906 Q163.6313,825.4688 162.8344,825.7969 Q161.7563,826.25 160.4594,826.25 Q158.9438,826.25 157.7406,825.625 Q156.7563,825.125 156.0688,824.0625 Q155.3813,822.9844 155.3813,821.7031 L155.3813,820.5469 Q155.3813,819.2188 155.9906,818.0781 Q156.6156,816.9219 157.7094,816.3125 Q158.8031,815.6875 160.0375,815.6875 Q160.7719,815.6875 161.4125,815.8594 Q162.0688,816.0156 162.6156,816.375 Z "/><text fill="#000000" font-family="sans-serif" font-size="12" lengthAdjust="spacingAndGlyphs" textLength="47" x="178.15" y="825.4102">ListTask</text><line style="stroke: #A80036; stroke-width: 1.5;" x1="126.5" x2="246.5" y1="836.5" y2="836.5"/><line style="stroke: #A80036; stroke-width: 1.5;" x1="126.5" x2="246.5" y1="844.5" y2="844.5"/><text fill="#000000" font-family="sans-serif" font-size="11" lengthAdjust="spacingAndGlyphs" textLength="110" x="131.5" y="859.9189">+getUnexecutedTaks()</text><text fill="#000000" font-family="sans-serif" font-size="11" lengthAdjust="spacingAndGlyphs" textLength="61" x="131.5" y="873.7549">+getTask(ID)</text><!--MD5=[031a1c1e2bc7e464975852eaac477fa5]
class ListTransaction--><rect fill="#FEFECE" filter="url(#ffqejufk65mj1)" height="117.1797" id="ListTransaction" style="stroke: #A80036; stroke-width: 1.5;" width="290" x="405.5" y="784"/><ellipse cx="503.75" cy="800" fill="#ADD1B2" rx="11" ry="11" style="stroke: #A80036; stroke-width: 1.0;"/><path d="M506.5156,795.875 Q506.6719,795.6563 506.8594,795.5469 Q507.0469,795.4375 507.2656,795.4375 Q507.6406,795.4375 507.875,795.7031 Q508.1094,795.9531 508.1094,796.5625 L508.1094,798.0156 Q508.1094,798.625 507.875,798.8906 Q507.6406,799.1563 507.2656,799.1563 Q506.9219,799.1563 506.7188,798.9531 Q506.5156,798.7656 506.4063,798.25 Q506.3594,797.8906 506.1719,797.7031 Q505.8438,797.3281 505.2344,797.1094 Q504.625,796.8906 504,796.8906 Q503.2344,796.8906 502.5938,797.2188 Q501.9688,797.5469 501.4688,798.2969 Q500.9844,799.0469 500.9844,800.0781 L500.9844,801.1719 Q500.9844,802.4063 501.875,803.2344 Q502.7656,804.0469 504.3594,804.0469 Q505.2969,804.0469 505.9531,803.7969 Q506.3438,803.6406 506.7656,803.2031 Q507.0313,802.9375 507.1719,802.8594 Q507.3281,802.7813 507.5313,802.7813 Q507.8594,802.7813 508.1094,803.0469 Q508.375,803.2969 508.375,803.6406 Q508.375,803.9844 508.0313,804.3906 Q507.5313,804.9688 506.7344,805.2969 Q505.6563,805.75 504.3594,805.75 Q502.8438,805.75 501.6406,805.125 Q500.6563,804.625 499.9688,803.5625 Q499.2813,802.4844 499.2813,801.2031 L499.2813,800.0469 Q499.2813,798.7188 499.8906,797.5781 Q500.5156,796.4219 501.6094,795.8125 Q502.7031,795.1875 503.9375,795.1875 Q504.6719,795.1875 505.3125,795.3594 Q505.9688,795.5156 506.5156,795.875 Z "/><text fill="#000000" font-family="sans-serif" font-size="12" lengthAdjust="spacingAndGlyphs" textLength="85" x="524.25" y="804.9102">ListTransaction</text><line style="stroke: #A80036; stroke-width: 1.5;" x1="406.5" x2="694.5" y1="816" y2="816"/><line style="stroke: #A80036; stroke-width: 1.5;" x1="406.5" x2="694.5" y1="824" y2="824"/><text fill="#000000" font-family="sans-serif" font-size="11" lengthAdjust="spacingAndGlyphs" textLength="249" x="411.5" y="839.4189">+newTransaction(Task task, Freelancer freelancer,</text><text fill="#000000" font-family="sans-serif" font-size="11" lengthAdjust="spacingAndGlyphs" textLength="278" x="411.5" y="853.2549">LocalDate endDate, Integer daysDelay, String description)</text><text fill="#000000" font-family="sans-serif" font-size="11" lengthAdjust="spacingAndGlyphs" textLength="118" x="411.5" y="867.0908">+validate(Transaction tr)</text><text fill="#000000" font-family="sans-serif" font-size="11" lengthAdjust="spacingAndGlyphs" textLength="156" x="411.5" y="880.9268">+addTransaction(Transaction tr)</text><text fill="#000000" font-family="sans-serif" font-size="11" lengthAdjust="spacingAndGlyphs" textLength="97" x="411.5" y="894.7627">-add(Transaction tr)</text><!--MD5=[4555bb1b0911a5adf28ce6dbe60fed2e]
class Transaction--><rect fill="#FEFECE" filter="url(#ffqejufk65mj1)" height="89.5078" id="Transaction" style="stroke: #A80036; stroke-width: 1.5;" width="290" x="405.5" y="979"/><ellipse cx="513.75" cy="995" fill="#ADD1B2" rx="11" ry="11" style="stroke: #A80036; stroke-width: 1.0;"/><path d="M516.5156,990.875 Q516.6719,990.6563 516.8594,990.5469 Q517.0469,990.4375 517.2656,990.4375 Q517.6406,990.4375 517.875,990.7031 Q518.1094,990.9531 518.1094,991.5625 L518.1094,993.0156 Q518.1094,993.625 517.875,993.8906 Q517.6406,994.1563 517.2656,994.1563 Q516.9219,994.1563 516.7188,993.9531 Q516.5156,993.7656 516.4063,993.25 Q516.3594,992.8906 516.1719,992.7031 Q515.8438,992.3281 515.2344,992.1094 Q514.625,991.8906 514,991.8906 Q513.2344,991.8906 512.5938,992.2188 Q511.9688,992.5469 511.4688,993.2969 Q510.9844,994.0469 510.9844,995.0781 L510.9844,996.1719 Q510.9844,997.4063 511.875,998.2344 Q512.7656,999.0469 514.3594,999.0469 Q515.2969,999.0469 515.9531,998.7969 Q516.3438,998.6406 516.7656,998.2031 Q517.0313,997.9375 517.1719,997.8594 Q517.3281,997.7813 517.5313,997.7813 Q517.8594,997.7813 518.1094,998.0469 Q518.375,998.2969 518.375,998.6406 Q518.375,998.9844 518.0313,999.3906 Q517.5313,999.9688 516.7344,1000.2969 Q515.6563,1000.75 514.3594,1000.75 Q512.8438,1000.75 511.6406,1000.125 Q510.6563,999.625 509.9688,998.5625 Q509.2813,997.4844 509.2813,996.2031 L509.2813,995.0469 Q509.2813,993.7188 509.8906,992.5781 Q510.5156,991.4219 511.6094,990.8125 Q512.7031,990.1875 513.9375,990.1875 Q514.6719,990.1875 515.3125,990.3594 Q515.9688,990.5156 516.5156,990.875 Z "/><text fill="#000000" font-family="sans-serif" font-size="12" lengthAdjust="spacingAndGlyphs" textLength="65" x="534.25" y="999.9102">Transaction</text><line style="stroke: #A80036; stroke-width: 1.5;" x1="406.5" x2="694.5" y1="1011" y2="1011"/><line style="stroke: #A80036; stroke-width: 1.5;" x1="406.5" x2="694.5" y1="1019" y2="1019"/><text fill="#000000" font-family="sans-serif" font-size="11" lengthAdjust="spacingAndGlyphs" textLength="201" x="411.5" y="1034.4189">+create(Task task, Freelancer freelancer,</text><text fill="#000000" font-family="sans-serif" font-size="11" lengthAdjust="spacingAndGlyphs" textLength="278" x="411.5" y="1048.2549">LocalDate endDate, Integer daysDelay, String description)</text><text fill="#000000" font-family="sans-serif" font-size="11" lengthAdjust="spacingAndGlyphs" textLength="66" x="411.5" y="1062.0908">+getAmount()</text><!--MD5=[b34797a66dc35cbf1d65f7e3ca75530e]
class Task--><rect fill="#FEFECE" filter="url(#ffqejufk65mj1)" height="131.0156" id="Task" style="stroke: #A80036; stroke-width: 1.5;" width="169" x="288" y="1147"/><ellipse cx="354.75" cy="1163" fill="#ADD1B2" rx="11" ry="11" style="stroke: #A80036; stroke-width: 1.0;"/><path d="M357.5156,1158.875 Q357.6719,1158.6563 357.8594,1158.5469 Q358.0469,1158.4375 358.2656,1158.4375 Q358.6406,1158.4375 358.875,1158.7031 Q359.1094,1158.9531 359.1094,1159.5625 L359.1094,1161.0156 Q359.1094,1161.625 358.875,1161.8906 Q358.6406,1162.1563 358.2656,1162.1563 Q357.9219,1162.1563 357.7188,1161.9531 Q357.5156,1161.7656 357.4063,1161.25 Q357.3594,1160.8906 357.1719,1160.7031 Q356.8438,1160.3281 356.2344,1160.1094 Q355.625,1159.8906 355,1159.8906 Q354.2344,1159.8906 353.5938,1160.2188 Q352.9688,1160.5469 352.4688,1161.2969 Q351.9844,1162.0469 351.9844,1163.0781 L351.9844,1164.1719 Q351.9844,1165.4063 352.875,1166.2344 Q353.7656,1167.0469 355.3594,1167.0469 Q356.2969,1167.0469 356.9531,1166.7969 Q357.3438,1166.6406 357.7656,1166.2031 Q358.0313,1165.9375 358.1719,1165.8594 Q358.3281,1165.7813 358.5313,1165.7813 Q358.8594,1165.7813 359.1094,1166.0469 Q359.375,1166.2969 359.375,1166.6406 Q359.375,1166.9844 359.0313,1167.3906 Q358.5313,1167.9688 357.7344,1168.2969 Q356.6563,1168.75 355.3594,1168.75 Q353.8438,1168.75 352.6406,1168.125 Q351.6563,1167.625 350.9688,1166.5625 Q350.2813,1165.4844 350.2813,1164.2031 L350.2813,1163.0469 Q350.2813,1161.7188 350.8906,1160.5781 Q351.5156,1159.4219 352.6094,1158.8125 Q353.7031,1158.1875 354.9375,1158.1875 Q355.6719,1158.1875 356.3125,1158.3594 Q356.9688,1158.5156 357.5156,1158.875 Z "/><text fill="#000000" font-family="sans-serif" font-size="12" lengthAdjust="spacingAndGlyphs" textLength="27" x="375.25" y="1167.9102">Task</text><line style="stroke: #A80036; stroke-width: 1.5;" x1="289" x2="456" y1="1179" y2="1179"/><text fill="#000000" font-family="sans-serif" font-size="11" lengthAdjust="spacingAndGlyphs" textLength="43" x="294" y="1194.4189">-String id</text><text fill="#000000" font-family="sans-serif" font-size="11" lengthAdjust="spacingAndGlyphs" textLength="88" x="294" y="1208.2549">-String description</text><text fill="#000000" font-family="sans-serif" font-size="11" lengthAdjust="spacingAndGlyphs" textLength="116" x="294" y="1222.0908">-Integer durationInHours</text><text fill="#000000" font-family="sans-serif" font-size="11" lengthAdjust="spacingAndGlyphs" textLength="157" x="294" y="1235.9268">-Double costPerHourOfJuniorEur</text><text fill="#000000" font-family="sans-serif" font-size="11" lengthAdjust="spacingAndGlyphs" textLength="78" x="294" y="1249.7627">-String category</text><line style="stroke: #A80036; stroke-width: 1.5;" x1="289" x2="456" y1="1256.1797" y2="1256.1797"/><text fill="#000000" font-family="sans-serif" font-size="11" lengthAdjust="spacingAndGlyphs" textLength="72" x="294" y="1271.5986">+getExecutor()</text><!--MD5=[c0dc12954b7564a58826a1327fba5c89]
class PaymentDetails--><rect fill="#FEFECE" filter="url(#ffqejufk65mj1)" height="61.8359" id="PaymentDetails" style="stroke: #A80036; stroke-width: 1.5;" width="119" x="492" y="1181.5"/><ellipse cx="507" cy="1197.5" fill="#ADD1B2" rx="11" ry="11" style="stroke: #A80036; stroke-width: 1.0;"/><path d="M509.7656,1193.375 Q509.9219,1193.1563 510.1094,1193.0469 Q510.2969,1192.9375 510.5156,1192.9375 Q510.8906,1192.9375 511.125,1193.2031 Q511.3594,1193.4531 511.3594,1194.0625 L511.3594,1195.5156 Q511.3594,1196.125 511.125,1196.3906 Q510.8906,1196.6563 510.5156,1196.6563 Q510.1719,1196.6563 509.9688,1196.4531 Q509.7656,1196.2656 509.6563,1195.75 Q509.6094,1195.3906 509.4219,1195.2031 Q509.0938,1194.8281 508.4844,1194.6094 Q507.875,1194.3906 507.25,1194.3906 Q506.4844,1194.3906 505.8438,1194.7188 Q505.2188,1195.0469 504.7188,1195.7969 Q504.2344,1196.5469 504.2344,1197.5781 L504.2344,1198.6719 Q504.2344,1199.9063 505.125,1200.7344 Q506.0156,1201.5469 507.6094,1201.5469 Q508.5469,1201.5469 509.2031,1201.2969 Q509.5938,1201.1406 510.0156,1200.7031 Q510.2813,1200.4375 510.4219,1200.3594 Q510.5781,1200.2813 510.7813,1200.2813 Q511.1094,1200.2813 511.3594,1200.5469 Q511.625,1200.7969 511.625,1201.1406 Q511.625,1201.4844 511.2813,1201.8906 Q510.7813,1202.4688 509.9844,1202.7969 Q508.9063,1203.25 507.6094,1203.25 Q506.0938,1203.25 504.8906,1202.625 Q503.9063,1202.125 503.2188,1201.0625 Q502.5313,1199.9844 502.5313,1198.7031 L502.5313,1197.5469 Q502.5313,1196.2188 503.1406,1195.0781 Q503.7656,1193.9219 504.8594,1193.3125 Q505.9531,1192.6875 507.1875,1192.6875 Q507.9219,1192.6875 508.5625,1192.8594 Q509.2188,1193.0156 509.7656,1193.375 Z "/><text fill="#000000" font-family="sans-serif" font-size="12" lengthAdjust="spacingAndGlyphs" textLength="87" x="521" y="1202.4102">PaymentDetails</text><line style="stroke: #A80036; stroke-width: 1.5;" x1="493" x2="610" y1="1213.5" y2="1213.5"/><text fill="#000000" font-family="sans-serif" font-size="11" lengthAdjust="spacingAndGlyphs" textLength="70" x="498" y="1228.9189">Boolean isPaid</text><line style="stroke: #A80036; stroke-width: 1.5;" x1="493" x2="610" y1="1235.3359" y2="1235.3359"/><!--MD5=[f9fa7692a1144bec397c3ffa19589ca2]
class TaskExecutionDetails--><rect fill="#FEFECE" filter="url(#ffqejufk65mj1)" height="89.5078" id="TaskExecutionDetails" style="stroke: #A80036; stroke-width: 1.5;" width="171" x="646" y="1167.5"/><ellipse cx="670" cy="1183.5" fill="#ADD1B2" rx="11" ry="11" style="stroke: #A80036; stroke-width: 1.0;"/><path d="M672.7656,1179.375 Q672.9219,1179.1563 673.1094,1179.0469 Q673.2969,1178.9375 673.5156,1178.9375 Q673.8906,1178.9375 674.125,1179.2031 Q674.3594,1179.4531 674.3594,1180.0625 L674.3594,1181.5156 Q674.3594,1182.125 674.125,1182.3906 Q673.8906,1182.6563 673.5156,1182.6563 Q673.1719,1182.6563 672.9688,1182.4531 Q672.7656,1182.2656 672.6563,1181.75 Q672.6094,1181.3906 672.4219,1181.2031 Q672.0938,1180.8281 671.4844,1180.6094 Q670.875,1180.3906 670.25,1180.3906 Q669.4844,1180.3906 668.8438,1180.7188 Q668.2188,1181.0469 667.7188,1181.7969 Q667.2344,1182.5469 667.2344,1183.5781 L667.2344,1184.6719 Q667.2344,1185.9063 668.125,1186.7344 Q669.0156,1187.5469 670.6094,1187.5469 Q671.5469,1187.5469 672.2031,1187.2969 Q672.5938,1187.1406 673.0156,1186.7031 Q673.2813,1186.4375 673.4219,1186.3594 Q673.5781,1186.2813 673.7813,1186.2813 Q674.1094,1186.2813 674.3594,1186.5469 Q674.625,1186.7969 674.625,1187.1406 Q674.625,1187.4844 674.2813,1187.8906 Q673.7813,1188.4688 672.9844,1188.7969 Q671.9063,1189.25 670.6094,1189.25 Q669.0938,1189.25 667.8906,1188.625 Q666.9063,1188.125 666.2188,1187.0625 Q665.5313,1185.9844 665.5313,1184.7031 L665.5313,1183.5469 Q665.5313,1182.2188 666.1406,1181.0781 Q666.7656,1179.9219 667.8594,1179.3125 Q668.9531,1178.6875 670.1875,1178.6875 Q670.9219,1178.6875 671.5625,1178.8594 Q672.2188,1179.0156 672.7656,1179.375 Z "/><text fill="#000000" font-family="sans-serif" font-size="12" lengthAdjust="spacingAndGlyphs" textLength="119" x="686" y="1188.4102">TaskExecutionDetails</text><line style="stroke: #A80036; stroke-width: 1.5;" x1="647" x2="816" y1="1199.5" y2="1199.5"/><text fill="#000000" font-family="sans-serif" font-size="11" lengthAdjust="spacingAndGlyphs" textLength="69" x="652" y="1214.9189">-Date endDate</text><text fill="#000000" font-family="sans-serif" font-size="11" lengthAdjust="spacingAndGlyphs" textLength="99" x="652" y="1228.7549">-Integer delayInDays</text><text fill="#000000" font-family="sans-serif" font-size="11" lengthAdjust="spacingAndGlyphs" textLength="159" x="652" y="1242.5908">-String DescriptionQualityOfWork</text><line style="stroke: #A80036; stroke-width: 1.5;" x1="647" x2="816" y1="1249.0078" y2="1249.0078"/><!--MD5=[1f687b5315377fe49fca59b457947463]
class Freelancer--><rect fill="#FEFECE" filter="url(#ffqejufk65mj1)" height="158.6875" id="Freelancer" style="stroke: #A80036; stroke-width: 1.5;" width="135" x="133" y="1356"/><ellipse cx="167.8" cy="1372" fill="#ADD1B2" rx="11" ry="11" style="stroke: #A80036; stroke-width: 1.0;"/><path d="M170.5656,1367.875 Q170.7219,1367.6563 170.9094,1367.5469 Q171.0969,1367.4375 171.3156,1367.4375 Q171.6906,1367.4375 171.925,1367.7031 Q172.1594,1367.9531 172.1594,1368.5625 L172.1594,1370.0156 Q172.1594,1370.625 171.925,1370.8906 Q171.6906,1371.1563 171.3156,1371.1563 Q170.9719,1371.1563 170.7688,1370.9531 Q170.5656,1370.7656 170.4563,1370.25 Q170.4094,1369.8906 170.2219,1369.7031 Q169.8938,1369.3281 169.2844,1369.1094 Q168.675,1368.8906 168.05,1368.8906 Q167.2844,1368.8906 166.6438,1369.2188 Q166.0188,1369.5469 165.5188,1370.2969 Q165.0344,1371.0469 165.0344,1372.0781 L165.0344,1373.1719 Q165.0344,1374.4063 165.925,1375.2344 Q166.8156,1376.0469 168.4094,1376.0469 Q169.3469,1376.0469 170.0031,1375.7969 Q170.3938,1375.6406 170.8156,1375.2031 Q171.0813,1374.9375 171.2219,1374.8594 Q171.3781,1374.7813 171.5813,1374.7813 Q171.9094,1374.7813 172.1594,1375.0469 Q172.425,1375.2969 172.425,1375.6406 Q172.425,1375.9844 172.0813,1376.3906 Q171.5813,1376.9688 170.7844,1377.2969 Q169.7063,1377.75 168.4094,1377.75 Q166.8938,1377.75 165.6906,1377.125 Q164.7063,1376.625 164.0188,1375.5625 Q163.3313,1374.4844 163.3313,1373.2031 L163.3313,1372.0469 Q163.3313,1370.7188 163.9406,1369.5781 Q164.5656,1368.4219 165.6594,1367.8125 Q166.7531,1367.1875 167.9875,1367.1875 Q168.7219,1367.1875 169.3625,1367.3594 Q170.0188,1367.5156 170.5656,1367.875 Z "/><text fill="#000000" font-family="sans-serif" font-size="12" lengthAdjust="spacingAndGlyphs" textLength="59" x="186.2" y="1376.9102">Freelancer</text><line style="stroke: #A80036; stroke-width: 1.5;" x1="134" x2="267" y1="1388" y2="1388"/><text fill="#000000" font-family="sans-serif" font-size="11" lengthAdjust="spacingAndGlyphs" textLength="43" x="139" y="1403.4189">-String id</text><text fill="#000000" font-family="sans-serif" font-size="11" lengthAdjust="spacingAndGlyphs" textLength="61" x="139" y="1417.2549">-String name</text><text fill="#000000" font-family="sans-serif" font-size="11" lengthAdjust="spacingAndGlyphs" textLength="114" x="139" y="1431.0908">-String levelOfExpertise</text><text fill="#000000" font-family="sans-serif" font-size="11" lengthAdjust="spacingAndGlyphs" textLength="59" x="139" y="1444.9268">-String email</text><text fill="#000000" font-family="sans-serif" font-size="11" lengthAdjust="spacingAndGlyphs" textLength="50" x="139" y="1458.7627">-String NIF</text><text fill="#000000" font-family="sans-serif" font-size="11" lengthAdjust="spacingAndGlyphs" textLength="123" x="139" y="1472.5986">-String bankAccountIBAN</text><text fill="#000000" font-family="sans-serif" font-size="11" lengthAdjust="spacingAndGlyphs" textLength="75" x="139" y="1486.4346">-String address</text><text fill="#000000" font-family="sans-serif" font-size="11" lengthAdjust="spacingAndGlyphs" textLength="72" x="139" y="1500.2705">-String country</text><line style="stroke: #A80036; stroke-width: 1.5;" x1="134" x2="267" y1="1506.6875" y2="1506.6875"/><!--MD5=[22ffe80e9e3e83a03222f0f343985799]
link CreateTransactionUI to CreateTransactionController--><path d="M348.5,56.2 C348.5,71.24 348.5,91.7 348.5,111.72 " fill="none" id="CreateTransactionUI-&gt;CreateTransactionController" style="stroke: #A80036; stroke-width: 1.0; stroke-dasharray: 7.0,7.0;"/><polygon fill="#A80036" points="348.5,116.8,352.5,107.8,348.5,111.8,344.5,107.8,348.5,116.8" style="stroke: #A80036; stroke-width: 1.0;"/><!--MD5=[f355b1d87947bb2838744df5a6662fb9]
link CreateTransactionController to App--><path d="M257.163,248.15 C243.186,258.12 228.942,268.31 215.5,278 C203.109,286.93 189.835,296.59 177.307,305.74 " fill="none" id="CreateTransactionController-&gt;App" style="stroke: #A80036; stroke-width: 1.0; stroke-dasharray: 7.0,7.0;"/><polygon fill="#A80036" points="173.089,308.82,182.7135,306.73,177.1231,305.866,177.9871,300.2755,173.089,308.82" style="stroke: #A80036; stroke-width: 1.0;"/><!--MD5=[c4a3e0fc18c5255350bfc6cb9c34afef]
link CreateTransactionController to RegistOrganization--><path d="M348.5,248 C348.5,311.72 348.5,406.81 348.5,457.76 " fill="none" id="CreateTransactionController-&gt;RegistOrganization" style="stroke: #A80036; stroke-width: 1.0; stroke-dasharray: 7.0,7.0;"/><polygon fill="#A80036" points="348.5,462.85,352.5,453.85,348.5,457.85,344.5,453.85,348.5,462.85" style="stroke: #A80036; stroke-width: 1.0;"/><!--MD5=[6688bada5bfda570a968c3148ca4366e]
link CreateTransactionController to Organization--><path d="M401.726,248.21 C451.719,317.27 513.452,429.64 474.5,525 C461.154,557.672 435.055,586.53 410.055,608.578 " fill="none" id="CreateTransactionController-&gt;Organization" style="stroke: #A80036; stroke-width: 1.0; stroke-dasharray: 7.0,7.0;"/><polygon fill="#A80036" points="406.054,612.058,415.4699,609.1698,409.8267,608.7767,410.2198,603.1335,406.054,612.058" style="stroke: #A80036; stroke-width: 1.0;"/><!--MD5=[4892ad348393f2a592b8c51a6fbd569b]
link CreateTransactionController to ListTask--><path d="M311.96,248.16 C282.571,303.41 242.928,385.95 222.5,463 C191.009,581.771 186.281,727.944 186.045,798.869 " fill="none" id="CreateTransactionController-&gt;ListTask" style="stroke: #A80036; stroke-width: 1.0; stroke-dasharray: 7.0,7.0;"/><polygon fill="#A80036" points="186.035,804.257,190.0504,795.2639,186.0436,799.257,182.0504,795.2502,186.035,804.257" style="stroke: #A80036; stroke-width: 1.0;"/><!--MD5=[71736c7e0f948be290c53d31b71fae73]
link CreateTransactionController to RegistFreelancer--><path d="M203.125,205.61 C141.59,222.95 75.6568,253.87 38.5,309 C8.2271,353.92 30.7231,418.65 49.9715,458.16 " fill="none" id="CreateTransactionController-&gt;RegistFreelancer" style="stroke: #A80036; stroke-width: 1.0; stroke-dasharray: 7.0,7.0;"/><polygon fill="#A80036" points="52.299,462.85,51.896,453.0094,50.083,458.3679,44.7245,456.5549,52.299,462.85" style="stroke: #A80036; stroke-width: 1.0;"/><!--MD5=[3eaba1ec36b6a202d37f177ebd63c34c]
link CreateTransactionController to ListTransaction--><path d="M493.745,231.11 C540.985,256.36 581.5,293.35 581.5,346 C581.5,346 581.5,346 581.5,655.5 C581.5,696.843 573.956,742.661 566.311,778.477 " fill="none" id="CreateTransactionController-&gt;ListTransaction" style="stroke: #A80036; stroke-width: 1.0; stroke-dasharray: 7.0,7.0;"/><polygon fill="#A80036" points="565.183,783.688,570.9976,775.7388,566.2415,778.8013,563.1789,774.0452,565.183,783.688" style="stroke: #A80036; stroke-width: 1.0;"/><!--MD5=[066fa29d1550b759016aef7322259445]
link CreateTransactionController to Transaction--><path d="M493.758,214.17 C608.179,242.66 748.5,289.17 748.5,346 C748.5,346 748.5,346 748.5,843.5 C748.5,901.825 700.758,946.151 652.161,976.163 " fill="none" id="CreateTransactionController-&gt;Transaction" style="stroke: #A80036; stroke-width: 1.0; stroke-dasharray: 7.0,7.0;"/><polygon fill="#A80036" points="647.76,978.842,657.5274,977.5778,652.0306,976.2416,653.3668,970.7449,647.76,978.842" style="stroke: #A80036; stroke-width: 1.0;"/><!--MD5=[8e4873cec2cb3febaaa9495c716fc885]
link Transaction to Task--><path d="M508.316,1069.198 C487.249,1091.271 461.289,1118.471 437.728,1143.157 " fill="none" id="Transaction-&gt;Task" style="stroke: #A80036; stroke-width: 1.0;"/><polygon fill="#A80036" points="434.27,1146.78,443.3778,1143.0319,437.7224,1143.1633,437.591,1137.508,434.27,1146.78" style="stroke: #A80036; stroke-width: 1.0;"/><text fill="#000000" font-family="sans-serif" font-size="13" lengthAdjust="spacingAndGlyphs" textLength="37" x="478.5" y="1113.4951">knows</text><polygon fill="#000000" points="492.5,1122.3516,495.5,1128.3516,498.5,1122.3516,492.5,1122.3516" style="stroke: #000000; stroke-width: 1.0;"/><text fill="#000000" font-family="sans-serif" font-size="13" lengthAdjust="spacingAndGlyphs" textLength="7" x="495.1772" y="1089.8983">1</text><text fill="#000000" font-family="sans-serif" font-size="13" lengthAdjust="spacingAndGlyphs" textLength="7" x="433.6433" y="1136.2304">1</text><!--MD5=[542f32193441b56ea302115ed1249c3b]
link Transaction to Freelancer--><path d="M405.276,1061.445 C327.269,1084.157 242.31,1115.06 218.5,1147 C175.473,1204.72 175.144,1288.433 183.098,1350.656 " fill="none" id="Transaction-&gt;Freelancer" style="stroke: #A80036; stroke-width: 1.0;"/><polygon fill="#A80036" points="183.788,1355.852,186.5679,1346.4036,183.1295,1350.8955,178.6376,1347.4572,183.788,1355.852" style="stroke: #A80036; stroke-width: 1.0;"/><text fill="#000000" font-family="sans-serif" font-size="13" lengthAdjust="spacingAndGlyphs" textLength="37" x="219.5" y="1217.9951">knows</text><polygon fill="#000000" points="233.5,1226.8516,236.5,1232.8516,239.5,1226.8516,233.5,1226.8516" style="stroke: #000000; stroke-width: 1.0;"/><text fill="#000000" font-family="sans-serif" font-size="13" lengthAdjust="spacingAndGlyphs" textLength="5" x="392.659" y="1060.4801">*</text><text fill="#000000" font-family="sans-serif" font-size="13" lengthAdjust="spacingAndGlyphs" textLength="7" x="174.8615" y="1345.0248">1</text><!--MD5=[4b35f5cbbb9f0916ba1866e97e83f62f]
link Transaction to Organization--><path d="M423.307,978.953 C388.725,960.473 355.369,935.12 335.5,901 C301.792,843.117 314.298,763.94 329.024,711.331 " fill="none" id="Transaction-&gt;Organization" style="stroke: #A80036; stroke-width: 1.0;"/><polygon fill="#A80036" points="330.455,706.324,324.1352,713.8778,329.0806,711.1314,331.8271,716.0768,330.455,706.324" style="stroke: #A80036; stroke-width: 1.0;"/><polygon fill="#000000" points="350.5,844.5,353.5,838.5,356.5,844.5,350.5,844.5" style="stroke: #000000; stroke-width: 1.0;"/><text fill="#000000" font-family="sans-serif" font-size="13" lengthAdjust="spacingAndGlyphs" textLength="37" x="336.5" y="860.9951">knows</text><text fill="#000000" font-family="sans-serif" font-size="13" lengthAdjust="spacingAndGlyphs" textLength="5" x="397.6372" y="968.061">*</text><text fill="#000000" font-family="sans-serif" font-size="13" lengthAdjust="spacingAndGlyphs" textLength="7" x="320.5599" y="727.8585">1</text><!--MD5=[9aa0fa191c99edeef0ce6e9ae1d37765]
link Transaction to TaskExecutionDetails--><path d="M593.394,1069.198 C620.908,1097.547 656.627,1134.352 684.846,1163.428 " fill="none" id="Transaction-&gt;TaskExecutionDetails" style="stroke: #A80036; stroke-width: 1.0;"/><polygon fill="#A80036" points="688.6,1167.297,685.2042,1158.0521,685.1184,1163.7083,679.4622,1163.6226,688.6,1167.297" style="stroke: #A80036; stroke-width: 1.0;"/><text fill="#000000" font-family="sans-serif" font-size="13" lengthAdjust="spacingAndGlyphs" textLength="21" x="636.5" y="1113.4951">has</text><polygon fill="#000000" points="642.5,1122.3516,645.5,1128.3516,648.5,1122.3516,642.5,1122.3516" style="stroke: #000000; stroke-width: 1.0;"/><text fill="#000000" font-family="sans-serif" font-size="13" lengthAdjust="spacingAndGlyphs" textLength="7" x="591.6876" y="1089.8983">1</text><text fill="#000000" font-family="sans-serif" font-size="13" lengthAdjust="spacingAndGlyphs" textLength="7" x="674.495" y="1156.71">1</text><!--MD5=[30a9d08d7dc467ac860797373cb7da8d]
link Organization to ListTask--><path d="M290.8,701.789 C278.893,712.469 266.843,724.181 256.5,736 C239.409,755.531 223.193,779.487 210.68,799.633 " fill="none" id="Organization-&gt;ListTask" style="stroke: #A80036; stroke-width: 1.0;"/><polygon fill="#A80036" points="207.906,804.135,216.0324,798.5707,210.5287,799.8781,209.2214,794.3744,207.906,804.135" style="stroke: #A80036; stroke-width: 1.0;"/><text fill="#000000" font-family="sans-serif" font-size="13" lengthAdjust="spacingAndGlyphs" textLength="21" x="257.5" y="750.4951">has</text><polygon fill="#000000" points="263.5,759.3516,266.5,765.3516,269.5,759.3516,263.5,759.3516" style="stroke: #000000; stroke-width: 1.0;"/><text fill="#000000" font-family="sans-serif" font-size="13" lengthAdjust="spacingAndGlyphs" textLength="7" x="275.9588" y="704.3185">1</text><text fill="#000000" font-family="sans-serif" font-size="13" lengthAdjust="spacingAndGlyphs" textLength="7" x="203.9836" y="793.7195">1</text><!--MD5=[9d963be07912ebb513990051144e238a]
link ListTask to Task--><path d="M205.358,880.811 C236.282,941.994 298.241,1064.579 337.418,1142.091 " fill="none" id="ListTask-&gt;Task" style="stroke: #A80036; stroke-width: 1.0;"/><polygon fill="#A80036" points="339.732,1146.669,339.2421,1136.8323,337.4765,1142.2066,332.1022,1140.4411,339.732,1146.669" style="stroke: #A80036; stroke-width: 1.0;"/><text fill="#000000" font-family="sans-serif" font-size="13" lengthAdjust="spacingAndGlyphs" textLength="21" x="299.5" y="1029.4951">has</text><polygon fill="#000000" points="305.5,1038.3516,308.5,1044.3516,311.5,1038.3516,305.5,1038.3516" style="stroke: #000000; stroke-width: 1.0;"/><text fill="#000000" font-family="sans-serif" font-size="13" lengthAdjust="spacingAndGlyphs" textLength="7" x="200.8057" y="901.7411">1</text><text fill="#000000" font-family="sans-serif" font-size="13" lengthAdjust="spacingAndGlyphs" textLength="5" x="330.8746" y="1136.1072">*</text><!--MD5=[eddc38b6bc72bc48b6f4e6dee3f36f26]
link Organization to ListTransaction--><path d="M403.431,706.08 C428.262,728.944 457.822,756.163 483.905,780.18 " fill="none" id="Organization-&gt;ListTransaction" style="stroke: #A80036; stroke-width: 1.0;"/><polygon fill="#A80036" points="487.727,783.699,483.8137,774.6609,484.0481,780.3129,478.3961,780.5473,487.727,783.699" style="stroke: #A80036; stroke-width: 1.0;"/><text fill="#000000" font-family="sans-serif" font-size="13" lengthAdjust="spacingAndGlyphs" textLength="21" x="450.5" y="750.4951">has</text><polygon fill="#000000" points="474.5,743.6758,480.5,746.6758,474.5,749.6758,474.5,743.6758" style="stroke: #000000; stroke-width: 1.0;"/><text fill="#000000" font-family="sans-serif" font-size="13" lengthAdjust="spacingAndGlyphs" textLength="7" x="403.6635" y="727.9541">1</text><text fill="#000000" font-family="sans-serif" font-size="13" lengthAdjust="spacingAndGlyphs" textLength="7" x="472.65" y="773.0632">1</text><!--MD5=[71d2e20b7b04e36d280b22ce75f9673c]
link ListTransaction to Transaction--><path d="M550.5,901.283 C550.5,924.722 550.5,951.507 550.5,973.973 " fill="none" id="ListTransaction-&gt;Transaction" style="stroke: #A80036; stroke-width: 1.0;"/><polygon fill="#A80036" points="550.5,978.992,554.5,969.992,550.5,973.992,546.5,969.992,550.5,978.992" style="stroke: #A80036; stroke-width: 1.0;"/><text fill="#000000" font-family="sans-serif" font-size="13" lengthAdjust="spacingAndGlyphs" textLength="21" x="551.5" y="945.4951">has</text><polygon fill="#000000" points="557.5,954.3516,560.5,960.3516,563.5,954.3516,557.5,954.3516" style="stroke: #000000; stroke-width: 1.0;"/><text fill="#000000" font-family="sans-serif" font-size="13" lengthAdjust="spacingAndGlyphs" textLength="7" x="543.0953" y="922.5098">1</text><text fill="#000000" font-family="sans-serif" font-size="13" lengthAdjust="spacingAndGlyphs" textLength="5" x="545.1016" y="968.1062">*</text><!--MD5=[8853e9d83a8841c20c4ef075af762602]
link Task to Freelancer--><path d="M322.288,1278.016 C304.385,1301.02 283.963,1327.259 265.026,1351.592 " fill="none" id="Task-&gt;Freelancer" style="stroke: #A80036; stroke-width: 1.0;"/><polygon fill="#A80036" points="261.755,1355.795,270.4397,1351.1501,264.8263,1351.8495,264.1269,1346.236,261.755,1355.795" style="stroke: #A80036; stroke-width: 1.0;"/><text fill="#000000" font-family="sans-serif" font-size="13" lengthAdjust="spacingAndGlyphs" textLength="37" x="298.5" y="1322.4951">knows</text><polygon fill="#000000" points="312.5,1331.3516,315.5,1337.3516,318.5,1331.3516,312.5,1331.3516" style="stroke: #000000; stroke-width: 1.0;"/><text fill="#000000" font-family="sans-serif" font-size="13" lengthAdjust="spacingAndGlyphs" textLength="5" x="311.5226" y="1299.5703">*</text><text fill="#000000" font-family="sans-serif" font-size="13" lengthAdjust="spacingAndGlyphs" textLength="22" x="244.3879" y="1345.2354">0, 1</text><!--MD5=[34f9f932fd778d30fdc72ceaaad0e98f]
link App to RegistOrganization--><path d="M180.407,385.15 C216.329,408.2 262.085,437.56 296.786,459.82 " fill="none" id="App-&gt;RegistOrganization" style="stroke: #A80036; stroke-width: 1.0;"/><polygon fill="#A80036" points="301.391,462.78,295.9707,454.5568,297.1809,460.0827,291.6551,461.2929,301.391,462.78" style="stroke: #A80036; stroke-width: 1.0;"/><text fill="#000000" font-family="sans-serif" font-size="13" lengthAdjust="spacingAndGlyphs" textLength="21" x="250.5" y="429.4951">has</text><polygon fill="#000000" points="274.5,422.6758,280.5,425.6758,274.5,428.6758,274.5,422.6758" style="stroke: #000000; stroke-width: 1.0;"/><text fill="#000000" font-family="sans-serif" font-size="13" lengthAdjust="spacingAndGlyphs" textLength="7" x="182.0781" y="406.0544">1</text><text fill="#000000" font-family="sans-serif" font-size="13" lengthAdjust="spacingAndGlyphs" textLength="7" x="283.9529" y="452.2392">1</text><!--MD5=[b2767384522f615c85a28d92ddf7f4b1]
link RegistOrganization to Organization--><path d="M348.5,525.186 C348.5,545.646 348.5,573.3 348.5,597.696 " fill="none" id="RegistOrganization-&gt;Organization" style="stroke: #A80036; stroke-width: 1.0;"/><polygon fill="#A80036" points="348.5,602.849,352.5,593.849,348.5,597.849,344.5,593.849,348.5,602.849" style="stroke: #A80036; stroke-width: 1.0;"/><text fill="#000000" font-family="sans-serif" font-size="13" lengthAdjust="spacingAndGlyphs" textLength="21" x="349.5" y="569.4951">has</text><polygon fill="#000000" points="355.5,578.3516,358.5,584.3516,361.5,578.3516,355.5,578.3516" style="stroke: #000000; stroke-width: 1.0;"/><text fill="#000000" font-family="sans-serif" font-size="13" lengthAdjust="spacingAndGlyphs" textLength="7" x="340.8109" y="546.4466">1</text><text fill="#000000" font-family="sans-serif" font-size="13" lengthAdjust="spacingAndGlyphs" textLength="5" x="343.1641" y="592.329">*</text><!--MD5=[96c7b0b2c198895e0003cefbcde5a63b]
link App to RegistFreelancer--><path d="M102.4291,385.31 C97.7858,394.83 93.1441,405.15 89.5,415 C84.4025,428.78 80.1197,444.39 76.8418,458.01 " fill="none" id="App-&gt;RegistFreelancer" style="stroke: #A80036; stroke-width: 1.0;"/><polygon fill="#A80036" points="75.6799,462.93,81.6317,455.0829,76.8231,458.0624,73.8436,453.2538,75.6799,462.93" style="stroke: #A80036; stroke-width: 1.0;"/><text fill="#000000" font-family="sans-serif" font-size="13" lengthAdjust="spacingAndGlyphs" textLength="21" x="90.5" y="429.4951">has</text><polygon fill="#000000" points="96.5,438.3516,99.5,444.3516,102.5,438.3516,96.5,438.3516" style="stroke: #000000; stroke-width: 1.0;"/><text fill="#000000" font-family="sans-serif" font-size="13" lengthAdjust="spacingAndGlyphs" textLength="7" x="91.6725" y="406.2399">1</text><text fill="#000000" font-family="sans-serif" font-size="13" lengthAdjust="spacingAndGlyphs" textLength="7" x="69.2661" y="451.935">1</text><!--MD5=[12a648b87e57a40b1492f312537407ab]
link RegistFreelancer to Freelancer--><path d="M70.1055,525.089 C70.6941,556.97 71.5,608.781 71.5,653.5 C71.5,653.5 71.5,653.5 71.5,1213.5 C71.5,1266.652 99.6752,1318.392 129.69,1358.431 " fill="none" id="RegistFreelancer-&gt;Freelancer" style="stroke: #A80036; stroke-width: 1.0;"/><polygon fill="#A80036" points="132.978,1362.761,130.721,1353.1742,129.9543,1358.7789,124.3496,1358.0122,132.978,1362.761" style="stroke: #A80036; stroke-width: 1.0;"/><text fill="#000000" font-family="sans-serif" font-size="13" lengthAdjust="spacingAndGlyphs" textLength="21" x="72.5" y="945.4951">has</text><polygon fill="#000000" points="78.5,954.3516,81.5,960.3516,84.5,954.3516,78.5,954.3516" style="stroke: #000000; stroke-width: 1.0;"/><text fill="#000000" font-family="sans-serif" font-size="13" lengthAdjust="spacingAndGlyphs" textLength="7" x="62.5356" y="546.3305">1</text><text fill="#000000" font-family="sans-serif" font-size="13" lengthAdjust="spacingAndGlyphs" textLength="5" x="119.8817" y="1350.9591">*</text><!--MD5=[592f3295148bcda02046a15209730c71]
link Transaction to PaymentDetails--><path d="M550.737,1069.198 C550.912,1101.884 551.148,1145.81 551.311,1176.172 " fill="none" id="Transaction-&gt;PaymentDetails" style="stroke: #A80036; stroke-width: 1.0;"/><polygon fill="#A80036" points="551.338,1181.301,555.2891,1172.2794,551.3109,1176.3011,547.2892,1172.3228,551.338,1181.301" style="stroke: #A80036; stroke-width: 1.0;"/><text fill="#000000" font-family="sans-serif" font-size="13" lengthAdjust="spacingAndGlyphs" textLength="21" x="552.5" y="1113.4951">has</text><polygon fill="#000000" points="558.5,1122.3516,561.5,1128.3516,564.5,1122.3516,558.5,1122.3516" style="stroke: #000000; stroke-width: 1.0;"/><text fill="#000000" font-family="sans-serif" font-size="13" lengthAdjust="spacingAndGlyphs" textLength="7" x="543.2985" y="1089.8983">1</text><text fill="#000000" font-family="sans-serif" font-size="13" lengthAdjust="spacingAndGlyphs" textLength="7" x="543.5827" y="1170.7645">1</text><!--MD5=[068d121d948bb4a6475f4e9c933ab379]
@startuml CD
skinparam classAttributeIconSize 0
top to bottom direction

class CreateTransactionUI {

}

class CreateTransactionController {
        + getTasks()
        + getFreelancers()
        + newTransaction(Task task, Freelancer freelancer, \nLocalDate endDate, Integer daysDelay, String description)
        + addTransaction()
        + getAmount()
}

class App {
        + getRegistOrganization()
        + getRegistFreelancer()
}

class RegistOrganization {
        + getOrganizationByEmailUser(String email)
}

class RegistFreelancer {
        + getFreelancers()
}

class Organization {
        - String nome
        - String NIF

        + getListTask()
        + getListTransaction()
}

class ListTask {
        + getUnexecutedTaks()
        + getTask(ID)
}

class ListTransaction {
        + newTransaction(Task task, Freelancer freelancer, \nLocalDate endDate, Integer daysDelay, String description)
        + validate(Transaction tr)
        + addTransaction(Transaction tr)
        - add(Transaction tr)
}

class Transaction {
        + create(Task task, Freelancer freelancer, \nLocalDate endDate, Integer daysDelay, String description)
        + getAmount()
}

class Task {
        - String id
        - String description
        - Integer durationInHours
        - Double costPerHourOfJuniorEur
        - String category

        + getExecutor()
}

class PaymentDetails {
        Boolean isPaid
}

class TaskExecutionDetails {
        - Date endDate
        - Integer delayInDays
        - String DescriptionQualityOfWork
}

class Freelancer {
        - String id
        - String name
        - String levelOfExpertise
        - String email
        - String NIF
        - String bankAccountIBAN
        - String address
        - String country
}

CreateTransactionUI              ..>          CreateTransactionController

CreateTransactionController      ..>          App
CreateTransactionController      ..>          RegistOrganization
CreateTransactionController      ..>          Organization
CreateTransactionController      ..>          ListTask
CreateTransactionController      ..>          RegistFreelancer
CreateTransactionController      ..>          ListTransaction
CreateTransactionController      ..>          Transaction

Transaction                  "1" - -> "1"      Task                      : knows >
Transaction                  "*" - -> "1"      Freelancer                : knows >
Transaction                  "*" - -> "1"      Organization              : knows >
Transaction                  "1" - -> "1"      TaskExecutionDetails      : has >
Organization                 "1" - -> "1"      ListTask                  : has >
ListTask                     "1" - -> "*"      Task                      : has >
Organization                 "1" - -> "1"      ListTransaction           : has >
ListTransaction              "1" - -> "*"      Transaction               : has >
Task                         "*" - -> "0, 1"   Freelancer                : knows >
App                          "1" - -> "1"      RegistOrganization        : has >
RegistOrganization           "1" - -> "*"      Organization              : has >
App                          "1" - -> "1"      RegistFreelancer          : has >
RegistFreelancer             "1" - -> "*"      Freelancer                : has >
Transaction                  "1" - -> "1"      PaymentDetails            : has >

@enduml

PlantUML version 1.2020.10(Sun May 17 10:35:57 WEST 2020)
(GPL source distribution)
Java Runtime: OpenJDK Runtime Environment
JVM: OpenJDK 64-Bit Server VM
Java Version: 14+36
Operating System: Windows 10
Default Encoding: Cp1252
Language: en
Country: US
--></g></svg>