<?xml version="1.0" encoding="UTF-8" standalone="no"?><svg xmlns="http://www.w3.org/2000/svg" xmlns:xlink="http://www.w3.org/1999/xlink" contentScriptType="application/ecmascript" contentStyleType="text/css" height="342px" preserveAspectRatio="none" style="width:1222px;height:342px;" version="1.1" viewBox="0 0 1222 342" width="1222px" zoomAndPan="magnify"><defs><filter height="300%" id="flk9yildypg9" width="300%" x="-1" y="-1"><feGaussianBlur result="blurOut" stdDeviation="2.0"/><feColorMatrix in="blurOut" result="blurOut2" type="matrix" values="0 0 0 0 0 0 0 0 0 0 0 0 0 0 0 0 0 0 .4 0"/><feOffset dx="4.0" dy="4.0" in="blurOut2" result="blurOut3"/><feBlend in="SourceGraphic" in2="blurOut3" mode="normal"/></filter></defs><g><!--MD5=[335f4d9be48430461c68bf6d6fdba145]
class App--><rect fill="#FEFECE" filter="url(#flk9yildypg9)" height="40" id="App" style="stroke: #A80036; stroke-width: 1.5;" width="53" x="208" y="8.364"/><ellipse cx="223" cy="24.364" fill="#ADD1B2" rx="11" ry="11" style="stroke: #A80036; stroke-width: 1.0;"/><path d="M225.7656,20.239 Q225.9219,20.0202 226.1094,19.9109 Q226.2969,19.8015 226.5156,19.8015 Q226.8906,19.8015 227.125,20.0671 Q227.3594,20.3171 227.3594,20.9265 L227.3594,22.3796 Q227.3594,22.989 227.125,23.2546 Q226.8906,23.5202 226.5156,23.5202 Q226.1719,23.5202 225.9688,23.3171 Q225.7656,23.1296 225.6563,22.614 Q225.6094,22.2546 225.4219,22.0671 Q225.0938,21.6921 224.4844,21.4734 Q223.875,21.2546 223.25,21.2546 Q222.4844,21.2546 221.8438,21.5827 Q221.2188,21.9109 220.7188,22.6609 Q220.2344,23.4109 220.2344,24.4421 L220.2344,25.5359 Q220.2344,26.7702 221.125,27.5984 Q222.0156,28.4109 223.6094,28.4109 Q224.5469,28.4109 225.2031,28.1609 Q225.5938,28.0046 226.0156,27.5671 Q226.2813,27.3015 226.4219,27.2234 Q226.5781,27.1452 226.7813,27.1452 Q227.1094,27.1452 227.3594,27.4109 Q227.625,27.6609 227.625,28.0046 Q227.625,28.3484 227.2813,28.7546 Q226.7813,29.3327 225.9844,29.6609 Q224.9063,30.114 223.6094,30.114 Q222.0938,30.114 220.8906,29.489 Q219.9063,28.989 219.2188,27.9265 Q218.5313,26.8484 218.5313,25.5671 L218.5313,24.4109 Q218.5313,23.0827 219.1406,21.9421 Q219.7656,20.7859 220.8594,20.1765 Q221.9531,19.5515 223.1875,19.5515 Q223.9219,19.5515 224.5625,19.7234 Q225.2188,19.8796 225.7656,20.239 Z "/><text fill="#000000" font-family="sans-serif" font-size="12" lengthAdjust="spacingAndGlyphs" textLength="21" x="237" y="29.2742">App</text><line style="stroke: #A80036; stroke-width: 1.5;" x1="209" x2="260" y1="40.364" y2="40.364"/><!--MD5=[86c7c362de55a38b660185a1328fe18d]
class Organization--><rect fill="#FEFECE" filter="url(#flk9yildypg9)" height="67.6719" id="Organization" style="stroke: #A80036; stroke-width: 1.5;" width="101" x="495" y="68.364"/><ellipse cx="510" cy="84.364" fill="#ADD1B2" rx="11" ry="11" style="stroke: #A80036; stroke-width: 1.0;"/><path d="M512.7656,80.239 Q512.9219,80.0203 513.1094,79.9109 Q513.2969,79.8015 513.5156,79.8015 Q513.8906,79.8015 514.125,80.0671 Q514.3594,80.3171 514.3594,80.9265 L514.3594,82.3796 Q514.3594,82.989 514.125,83.2546 Q513.8906,83.5203 513.5156,83.5203 Q513.1719,83.5203 512.9688,83.3171 Q512.7656,83.1296 512.6563,82.614 Q512.6094,82.2546 512.4219,82.0671 Q512.0938,81.6921 511.4844,81.4734 Q510.875,81.2546 510.25,81.2546 Q509.4844,81.2546 508.8438,81.5828 Q508.2188,81.9109 507.7188,82.6609 Q507.2344,83.4109 507.2344,84.4421 L507.2344,85.5359 Q507.2344,86.7703 508.125,87.5984 Q509.0156,88.4109 510.6094,88.4109 Q511.5469,88.4109 512.2031,88.1609 Q512.5938,88.0046 513.0156,87.5671 Q513.2813,87.3015 513.4219,87.2234 Q513.5781,87.1453 513.7813,87.1453 Q514.1094,87.1453 514.3594,87.4109 Q514.625,87.6609 514.625,88.0046 Q514.625,88.3484 514.2813,88.7546 Q513.7813,89.3328 512.9844,89.6609 Q511.9063,90.114 510.6094,90.114 Q509.0938,90.114 507.8906,89.489 Q506.9063,88.989 506.2188,87.9265 Q505.5313,86.8484 505.5313,85.5671 L505.5313,84.4109 Q505.5313,83.0828 506.1406,81.9421 Q506.7656,80.7859 507.8594,80.1765 Q508.9531,79.5515 510.1875,79.5515 Q510.9219,79.5515 511.5625,79.7234 Q512.2188,79.8796 512.7656,80.239 Z "/><text fill="#000000" font-family="sans-serif" font-size="12" lengthAdjust="spacingAndGlyphs" textLength="69" x="524" y="89.2742">Organization</text><line style="stroke: #A80036; stroke-width: 1.5;" x1="496" x2="595" y1="100.364" y2="100.364"/><text fill="#000000" font-family="sans-serif" font-size="11" lengthAdjust="spacingAndGlyphs" textLength="61" x="501" y="115.7829">-String nome</text><text fill="#000000" font-family="sans-serif" font-size="11" lengthAdjust="spacingAndGlyphs" textLength="50" x="501" y="129.6189">-String NIF</text><!--MD5=[4555bb1b0911a5adf28ce6dbe60fed2e]
class Transaction--><rect fill="#FEFECE" filter="url(#flk9yildypg9)" height="40" id="Transaction" style="stroke: #A80036; stroke-width: 1.5;" width="97" x="186" y="193.364"/><ellipse cx="201" cy="209.364" fill="#ADD1B2" rx="11" ry="11" style="stroke: #A80036; stroke-width: 1.0;"/><path d="M203.7656,205.239 Q203.9219,205.0203 204.1094,204.9109 Q204.2969,204.8015 204.5156,204.8015 Q204.8906,204.8015 205.125,205.0671 Q205.3594,205.3171 205.3594,205.9265 L205.3594,207.3796 Q205.3594,207.989 205.125,208.2546 Q204.8906,208.5203 204.5156,208.5203 Q204.1719,208.5203 203.9688,208.3171 Q203.7656,208.1296 203.6563,207.614 Q203.6094,207.2546 203.4219,207.0671 Q203.0938,206.6921 202.4844,206.4734 Q201.875,206.2546 201.25,206.2546 Q200.4844,206.2546 199.8438,206.5828 Q199.2188,206.9109 198.7188,207.6609 Q198.2344,208.4109 198.2344,209.4421 L198.2344,210.5359 Q198.2344,211.7703 199.125,212.5984 Q200.0156,213.4109 201.6094,213.4109 Q202.5469,213.4109 203.2031,213.1609 Q203.5938,213.0046 204.0156,212.5671 Q204.2813,212.3015 204.4219,212.2234 Q204.5781,212.1453 204.7813,212.1453 Q205.1094,212.1453 205.3594,212.4109 Q205.625,212.6609 205.625,213.0046 Q205.625,213.3484 205.2813,213.7546 Q204.7813,214.3328 203.9844,214.6609 Q202.9063,215.114 201.6094,215.114 Q200.0938,215.114 198.8906,214.489 Q197.9063,213.989 197.2188,212.9265 Q196.5313,211.8484 196.5313,210.5671 L196.5313,209.4109 Q196.5313,208.0828 197.1406,206.9421 Q197.7656,205.7859 198.8594,205.1765 Q199.9531,204.5515 201.1875,204.5515 Q201.9219,204.5515 202.5625,204.7234 Q203.2188,204.8796 203.7656,205.239 Z "/><text fill="#000000" font-family="sans-serif" font-size="12" lengthAdjust="spacingAndGlyphs" textLength="65" x="215" y="214.2742">Transaction</text><line style="stroke: #A80036; stroke-width: 1.5;" x1="187" x2="282" y1="225.364" y2="225.364"/><!--MD5=[b34797a66dc35cbf1d65f7e3ca75530e]
class Task--><rect fill="#FEFECE" filter="url(#flk9yildypg9)" height="109.1797" id="Task" style="stroke: #A80036; stroke-width: 1.5;" width="169" x="761" y="157.864"/><ellipse cx="827.75" cy="173.864" fill="#ADD1B2" rx="11" ry="11" style="stroke: #A80036; stroke-width: 1.0;"/><path d="M830.5156,169.739 Q830.6719,169.5203 830.8594,169.4109 Q831.0469,169.3015 831.2656,169.3015 Q831.6406,169.3015 831.875,169.5671 Q832.1094,169.8171 832.1094,170.4265 L832.1094,171.8796 Q832.1094,172.489 831.875,172.7546 Q831.6406,173.0203 831.2656,173.0203 Q830.9219,173.0203 830.7188,172.8171 Q830.5156,172.6296 830.4063,172.114 Q830.3594,171.7546 830.1719,171.5671 Q829.8438,171.1921 829.2344,170.9734 Q828.625,170.7546 828,170.7546 Q827.2344,170.7546 826.5938,171.0828 Q825.9688,171.4109 825.4688,172.1609 Q824.9844,172.9109 824.9844,173.9421 L824.9844,175.0359 Q824.9844,176.2703 825.875,177.0984 Q826.7656,177.9109 828.3594,177.9109 Q829.2969,177.9109 829.9531,177.6609 Q830.3438,177.5046 830.7656,177.0671 Q831.0313,176.8015 831.1719,176.7234 Q831.3281,176.6453 831.5313,176.6453 Q831.8594,176.6453 832.1094,176.9109 Q832.375,177.1609 832.375,177.5046 Q832.375,177.8484 832.0313,178.2546 Q831.5313,178.8328 830.7344,179.1609 Q829.6563,179.614 828.3594,179.614 Q826.8438,179.614 825.6406,178.989 Q824.6563,178.489 823.9688,177.4265 Q823.2813,176.3484 823.2813,175.0671 L823.2813,173.9109 Q823.2813,172.5828 823.8906,171.4421 Q824.5156,170.2859 825.6094,169.6765 Q826.7031,169.0515 827.9375,169.0515 Q828.6719,169.0515 829.3125,169.2234 Q829.9688,169.3796 830.5156,169.739 Z "/><text fill="#000000" font-family="sans-serif" font-size="12" lengthAdjust="spacingAndGlyphs" textLength="27" x="848.25" y="178.7742">Task</text><line style="stroke: #A80036; stroke-width: 1.5;" x1="762" x2="929" y1="189.864" y2="189.864"/><text fill="#000000" font-family="sans-serif" font-size="11" lengthAdjust="spacingAndGlyphs" textLength="43" x="767" y="205.2829">-String id</text><text fill="#000000" font-family="sans-serif" font-size="11" lengthAdjust="spacingAndGlyphs" textLength="88" x="767" y="219.1189">-String description</text><text fill="#000000" font-family="sans-serif" font-size="11" lengthAdjust="spacingAndGlyphs" textLength="116" x="767" y="232.9548">-Integer durationInHours</text><text fill="#000000" font-family="sans-serif" font-size="11" lengthAdjust="spacingAndGlyphs" textLength="157" x="767" y="246.7908">-Double costPerHourOfJuniorEur</text><text fill="#000000" font-family="sans-serif" font-size="11" lengthAdjust="spacingAndGlyphs" textLength="78" x="767" y="260.6267">-String category</text><!--MD5=[c0dc12954b7564a58826a1327fba5c89]
class PaymentDetails--><rect fill="#FEFECE" filter="url(#flk9yildypg9)" height="53.8359" id="PaymentDetails" style="stroke: #A80036; stroke-width: 1.5;" width="119" x="6" y="186.364"/><ellipse cx="21" cy="202.364" fill="#ADD1B2" rx="11" ry="11" style="stroke: #A80036; stroke-width: 1.0;"/><path d="M23.7656,198.239 Q23.9219,198.0203 24.1094,197.9109 Q24.2969,197.8015 24.5156,197.8015 Q24.8906,197.8015 25.125,198.0671 Q25.3594,198.3171 25.3594,198.9265 L25.3594,200.3796 Q25.3594,200.989 25.125,201.2546 Q24.8906,201.5203 24.5156,201.5203 Q24.1719,201.5203 23.9688,201.3171 Q23.7656,201.1296 23.6563,200.614 Q23.6094,200.2546 23.4219,200.0671 Q23.0938,199.6921 22.4844,199.4734 Q21.875,199.2546 21.25,199.2546 Q20.4844,199.2546 19.8438,199.5828 Q19.2188,199.9109 18.7188,200.6609 Q18.2344,201.4109 18.2344,202.4421 L18.2344,203.5359 Q18.2344,204.7703 19.125,205.5984 Q20.0156,206.4109 21.6094,206.4109 Q22.5469,206.4109 23.2031,206.1609 Q23.5938,206.0046 24.0156,205.5671 Q24.2813,205.3015 24.4219,205.2234 Q24.5781,205.1453 24.7813,205.1453 Q25.1094,205.1453 25.3594,205.4109 Q25.625,205.6609 25.625,206.0046 Q25.625,206.3484 25.2813,206.7546 Q24.7813,207.3328 23.9844,207.6609 Q22.9063,208.114 21.6094,208.114 Q20.0938,208.114 18.8906,207.489 Q17.9063,206.989 17.2188,205.9265 Q16.5313,204.8484 16.5313,203.5671 L16.5313,202.4109 Q16.5313,201.0828 17.1406,199.9421 Q17.7656,198.7859 18.8594,198.1765 Q19.9531,197.5515 21.1875,197.5515 Q21.9219,197.5515 22.5625,197.7234 Q23.2188,197.8796 23.7656,198.239 Z "/><text fill="#000000" font-family="sans-serif" font-size="12" lengthAdjust="spacingAndGlyphs" textLength="87" x="35" y="207.2742">PaymentDetails</text><line style="stroke: #A80036; stroke-width: 1.5;" x1="7" x2="124" y1="218.364" y2="218.364"/><text fill="#000000" font-family="sans-serif" font-size="11" lengthAdjust="spacingAndGlyphs" textLength="70" x="12" y="233.7829">Boolean isPaid</text><!--MD5=[f9fa7692a1144bec397c3ffa19589ca2]
class TaskExecutionDetails--><rect fill="#FEFECE" filter="url(#flk9yildypg9)" height="81.5078" id="TaskExecutionDetails" style="stroke: #A80036; stroke-width: 1.5;" width="171" x="460" y="171.364"/><ellipse cx="484" cy="187.364" fill="#ADD1B2" rx="11" ry="11" style="stroke: #A80036; stroke-width: 1.0;"/><path d="M486.7656,183.239 Q486.9219,183.0203 487.1094,182.9109 Q487.2969,182.8015 487.5156,182.8015 Q487.8906,182.8015 488.125,183.0671 Q488.3594,183.3171 488.3594,183.9265 L488.3594,185.3796 Q488.3594,185.989 488.125,186.2546 Q487.8906,186.5203 487.5156,186.5203 Q487.1719,186.5203 486.9688,186.3171 Q486.7656,186.1296 486.6563,185.614 Q486.6094,185.2546 486.4219,185.0671 Q486.0938,184.6921 485.4844,184.4734 Q484.875,184.2546 484.25,184.2546 Q483.4844,184.2546 482.8438,184.5828 Q482.2188,184.9109 481.7188,185.6609 Q481.2344,186.4109 481.2344,187.4421 L481.2344,188.5359 Q481.2344,189.7703 482.125,190.5984 Q483.0156,191.4109 484.6094,191.4109 Q485.5469,191.4109 486.2031,191.1609 Q486.5938,191.0046 487.0156,190.5671 Q487.2813,190.3015 487.4219,190.2234 Q487.5781,190.1453 487.7813,190.1453 Q488.1094,190.1453 488.3594,190.4109 Q488.625,190.6609 488.625,191.0046 Q488.625,191.3484 488.2813,191.7546 Q487.7813,192.3328 486.9844,192.6609 Q485.9063,193.114 484.6094,193.114 Q483.0938,193.114 481.8906,192.489 Q480.9063,191.989 480.2188,190.9265 Q479.5313,189.8484 479.5313,188.5671 L479.5313,187.4109 Q479.5313,186.0828 480.1406,184.9421 Q480.7656,183.7859 481.8594,183.1765 Q482.9531,182.5515 484.1875,182.5515 Q484.9219,182.5515 485.5625,182.7234 Q486.2188,182.8796 486.7656,183.239 Z "/><text fill="#000000" font-family="sans-serif" font-size="12" lengthAdjust="spacingAndGlyphs" textLength="119" x="500" y="192.2742">TaskExecutionDetails</text><line style="stroke: #A80036; stroke-width: 1.5;" x1="461" x2="630" y1="203.364" y2="203.364"/><text fill="#000000" font-family="sans-serif" font-size="11" lengthAdjust="spacingAndGlyphs" textLength="95" x="466" y="218.7829">-LocalDate endDate</text><text fill="#000000" font-family="sans-serif" font-size="11" lengthAdjust="spacingAndGlyphs" textLength="99" x="466" y="232.6189">-Integer delayInDays</text><text fill="#000000" font-family="sans-serif" font-size="11" lengthAdjust="spacingAndGlyphs" textLength="159" x="466" y="246.4548">-String DescriptionQualityOfWork</text><!--MD5=[1f687b5315377fe49fca59b457947463]
class Freelancer--><rect fill="#FEFECE" filter="url(#flk9yildypg9)" height="150.6875" id="Freelancer" style="stroke: #A80036; stroke-width: 1.5;" width="135" x="1076" y="136.864"/><ellipse cx="1110.8" cy="152.864" fill="#ADD1B2" rx="11" ry="11" style="stroke: #A80036; stroke-width: 1.0;"/><path d="M1113.5656,148.739 Q1113.7219,148.5203 1113.9094,148.4109 Q1114.0969,148.3015 1114.3156,148.3015 Q1114.6906,148.3015 1114.925,148.5671 Q1115.1594,148.8171 1115.1594,149.4265 L1115.1594,150.8796 Q1115.1594,151.489 1114.925,151.7546 Q1114.6906,152.0203 1114.3156,152.0203 Q1113.9719,152.0203 1113.7688,151.8171 Q1113.5656,151.6296 1113.4563,151.114 Q1113.4094,150.7546 1113.2219,150.5671 Q1112.8938,150.1921 1112.2844,149.9734 Q1111.675,149.7546 1111.05,149.7546 Q1110.2844,149.7546 1109.6438,150.0828 Q1109.0188,150.4109 1108.5188,151.1609 Q1108.0344,151.9109 1108.0344,152.9421 L1108.0344,154.0359 Q1108.0344,155.2703 1108.925,156.0984 Q1109.8156,156.9109 1111.4094,156.9109 Q1112.3469,156.9109 1113.0031,156.6609 Q1113.3938,156.5046 1113.8156,156.0671 Q1114.0813,155.8015 1114.2219,155.7234 Q1114.3781,155.6453 1114.5813,155.6453 Q1114.9094,155.6453 1115.1594,155.9109 Q1115.425,156.1609 1115.425,156.5046 Q1115.425,156.8484 1115.0813,157.2546 Q1114.5813,157.8328 1113.7844,158.1609 Q1112.7063,158.614 1111.4094,158.614 Q1109.8938,158.614 1108.6906,157.989 Q1107.7063,157.489 1107.0188,156.4265 Q1106.3313,155.3484 1106.3313,154.0671 L1106.3313,152.9109 Q1106.3313,151.5828 1106.9406,150.4421 Q1107.5656,149.2859 1108.6594,148.6765 Q1109.7531,148.0515 1110.9875,148.0515 Q1111.7219,148.0515 1112.3625,148.2234 Q1113.0188,148.3796 1113.5656,148.739 Z "/><text fill="#000000" font-family="sans-serif" font-size="12" lengthAdjust="spacingAndGlyphs" textLength="59" x="1129.2" y="157.7742">Freelancer</text><line style="stroke: #A80036; stroke-width: 1.5;" x1="1077" x2="1210" y1="168.864" y2="168.864"/><text fill="#000000" font-family="sans-serif" font-size="11" lengthAdjust="spacingAndGlyphs" textLength="43" x="1082" y="184.2829">-String id</text><text fill="#000000" font-family="sans-serif" font-size="11" lengthAdjust="spacingAndGlyphs" textLength="61" x="1082" y="198.1189">-String name</text><text fill="#000000" font-family="sans-serif" font-size="11" lengthAdjust="spacingAndGlyphs" textLength="114" x="1082" y="211.9548">-String levelOfExpertise</text><text fill="#000000" font-family="sans-serif" font-size="11" lengthAdjust="spacingAndGlyphs" textLength="59" x="1082" y="225.7908">-String email</text><text fill="#000000" font-family="sans-serif" font-size="11" lengthAdjust="spacingAndGlyphs" textLength="50" x="1082" y="239.6267">-String NIF</text><text fill="#000000" font-family="sans-serif" font-size="11" lengthAdjust="spacingAndGlyphs" textLength="123" x="1082" y="253.4626">-String bankAccountIBAN</text><text fill="#000000" font-family="sans-serif" font-size="11" lengthAdjust="spacingAndGlyphs" textLength="75" x="1082" y="267.2986">-String address</text><text fill="#000000" font-family="sans-serif" font-size="11" lengthAdjust="spacingAndGlyphs" textLength="72" x="1082" y="281.1345">-String country</text><ellipse cx="65.5" cy="149.364" fill="#000000" rx="2" ry="2" style="stroke: none; stroke-width: 1.0;"/><!--MD5=[8e4873cec2cb3febaaa9495c716fc885]
link Transaction to Task--><path d="M280.384,233.427 C324.922,252.1579 395.646,278.7662 460,289.3636 C534.99,301.7126 556.135,302.4512 631,289.3636 C675.151,281.6452 722.219,265.5835 760.894,250.1168 " fill="none" id="Transaction-Task" style="stroke: #A80036; stroke-width: 1.0;"/><text fill="#000000" font-family="sans-serif" font-size="13" lengthAdjust="spacingAndGlyphs" textLength="55" x="511.5" y="285.8587">relative to</text><polygon fill="#000000" points="569.5,279.0394,575.5,282.0394,569.5,285.0394,569.5,279.0394" style="stroke: #000000; stroke-width: 1.0;"/><text fill="#000000" font-family="sans-serif" font-size="13" lengthAdjust="spacingAndGlyphs" textLength="7" x="285.3045" y="254.8643">1</text><text fill="#000000" font-family="sans-serif" font-size="13" lengthAdjust="spacingAndGlyphs" textLength="7" x="746.0471" y="267.6944">1</text><!--MD5=[542f32193441b56ea302115ed1249c3b]
link Transaction to Freelancer--><path d="M249.514,233.5985 C263.36,251.8142 286.297,277.6194 313,290.3636 C372.311,318.6701 394.396,302.4764 460,306.3636 C668.751,318.7327 726.077,330.6834 930,284.3636 C979.76,273.0609 1034.24,254.4722 1075.58,239.0139 " fill="none" id="Transaction-Freelancer" style="stroke: #A80036; stroke-width: 1.0;"/><text fill="#000000" font-family="sans-serif" font-size="13" lengthAdjust="spacingAndGlyphs" textLength="11" x="684" y="311.8587">to</text><polygon fill="#000000" points="698,305.0394,704,308.0394,698,311.0394,698,305.0394" style="stroke: #000000; stroke-width: 1.0;"/><text fill="#000000" font-family="sans-serif" font-size="13" lengthAdjust="spacingAndGlyphs" textLength="5" x="247.8771" y="254.7289">*</text><text fill="#000000" font-family="sans-serif" font-size="13" lengthAdjust="spacingAndGlyphs" textLength="7" x="1061.2148" y="256.1165">1</text><!--MD5=[4b35f5cbbb9f0916ba1866e97e83f62f]
link Transaction to Organization--><path d="M283.28,200.906 C331.739,188.083 403.287,168.578 430,158.364 C451.806,150.025 475.085,139.049 494.92,129.025 " fill="none" id="Transaction-Organization" style="stroke: #A80036; stroke-width: 1.0;"/><text fill="#000000" font-family="sans-serif" font-size="13" lengthAdjust="spacingAndGlyphs" textLength="102" x="314" y="154.8591">made on behalf of</text><polygon fill="#000000" points="419,148.0398,425,151.0398,419,154.0398,419,148.0398" style="stroke: #000000; stroke-width: 1.0;"/><text fill="#000000" font-family="sans-serif" font-size="13" lengthAdjust="spacingAndGlyphs" textLength="5" x="291.1322" y="213.7454">*</text><text fill="#000000" font-family="sans-serif" font-size="13" lengthAdjust="spacingAndGlyphs" textLength="7" x="479.977" y="147.6609">1</text><!--MD5=[9aa0fa191c99edeef0ce6e9ae1d37765]
link Transaction to TaskExecutionDetails--><path d="M283.035,215.495 C292.936,215.857 303.307,216.176 313,216.364 C364.99,217.37 378.008,217.271 430,216.364 C439.645,216.195 449.746,215.947 459.783,215.655 " fill="none" id="Transaction-TaskExecutionDetails" style="stroke: #A80036; stroke-width: 1.0;"/><text fill="#000000" font-family="sans-serif" font-size="13" lengthAdjust="spacingAndGlyphs" textLength="80" x="325" y="212.8591">executed with</text><polygon fill="#000000" points="408,206.0398,414,209.0398,408,212.0398,408,206.0398" style="stroke: #000000; stroke-width: 1.0;"/><text fill="#000000" font-family="sans-serif" font-size="13" lengthAdjust="spacingAndGlyphs" textLength="7" x="291.0029" y="230.5683">1</text><text fill="#000000" font-family="sans-serif" font-size="13" lengthAdjust="spacingAndGlyphs" textLength="7" x="445.1159" y="230.1567">1</text><!--MD5=[9155e95983ae2a088b11740d001758c9]
link TaskExecutionDetails to Task--><path d="M631.098,212.364 C671.793,212.364 720.426,212.364 760.979,212.364 " fill="none" id="TaskExecutionDetails-Task" style="stroke: #A80036; stroke-width: 1.0;"/><text fill="#000000" font-family="sans-serif" font-size="13" lengthAdjust="spacingAndGlyphs" textLength="47" x="666" y="208.8591">refers to</text><polygon fill="#000000" points="716,202.0398,722,205.0398,716,208.0398,716,202.0398" style="stroke: #000000; stroke-width: 1.0;"/><text fill="#000000" font-family="sans-serif" font-size="13" lengthAdjust="spacingAndGlyphs" textLength="7" x="639.0333" y="226.6092">1</text><text fill="#000000" font-family="sans-serif" font-size="13" lengthAdjust="spacingAndGlyphs" textLength="7" x="745.8646" y="226.6045">1</text><!--MD5=[4078351e3988aa35b1504a42837f2ab1]
link Organization to Task--><path d="M596.043,120.651 C640.894,137.207 707.873,161.931 760.99,181.538 " fill="none" id="Organization-Task" style="stroke: #A80036; stroke-width: 1.0;"/><text fill="#000000" font-family="sans-serif" font-size="13" lengthAdjust="spacingAndGlyphs" textLength="55" x="662" y="144.8591">publishes</text><polygon fill="#000000" points="720,138.0398,726,141.0398,720,144.0398,720,138.0398" style="stroke: #000000; stroke-width: 1.0;"/><text fill="#000000" font-family="sans-serif" font-size="13" lengthAdjust="spacingAndGlyphs" textLength="7" x="603.9806" y="138.0569">1</text><text fill="#000000" font-family="sans-serif" font-size="13" lengthAdjust="spacingAndGlyphs" textLength="5" x="747.9688" y="192.9368">*</text><!--MD5=[8853e9d83a8841c20c4ef075af762602]
link Task to Freelancer--><path d="M930.135,212.364 C976.294,212.364 1032.83,212.364 1075.96,212.364 " fill="none" id="Task-Freelancer" style="stroke: #A80036; stroke-width: 1.0;"/><text fill="#000000" font-family="sans-serif" font-size="13" lengthAdjust="spacingAndGlyphs" textLength="71" x="961" y="208.8591">executed by</text><polygon fill="#000000" points="1035,202.0398,1041,205.0398,1035,208.0398,1035,202.0398" style="stroke: #000000; stroke-width: 1.0;"/><text fill="#000000" font-family="sans-serif" font-size="13" lengthAdjust="spacingAndGlyphs" textLength="5" x="937.8955" y="226.5793">*</text><text fill="#000000" font-family="sans-serif" font-size="13" lengthAdjust="spacingAndGlyphs" textLength="22" x="1045.8606" y="226.7184">0, 1</text><!--MD5=[1370966fb1e3885ea6828d35f10d9d48]
link App to Organization--><path d="M261.239,40.143 C276.112,46.571 295.323,54.241 313,59.364 C374.446,77.171 447.282,89.276 494.617,95.996 " fill="none" id="App-Organization" style="stroke: #A80036; stroke-width: 1.0;"/><text fill="#000000" font-family="sans-serif" font-size="13" lengthAdjust="spacingAndGlyphs" textLength="21" x="354.5" y="55.8591">has</text><polygon fill="#000000" points="378.5,49.0398,384.5,52.0398,378.5,55.0398,378.5,49.0398" style="stroke: #000000; stroke-width: 1.0;"/><text fill="#000000" font-family="sans-serif" font-size="13" lengthAdjust="spacingAndGlyphs" textLength="7" x="268.9877" y="58.7515">1</text><text fill="#000000" font-family="sans-serif" font-size="13" lengthAdjust="spacingAndGlyphs" textLength="5" x="482.11" y="109.7684">*</text><!--MD5=[d88947b97cc296deaa09f9756953ae3a]
link App to Freelancer--><path d="M261.306,29.407 C298.564,30.947 369.585,34.012 430,37.364 C519.383,42.322 542.902,34.471 631,50.364 C767.574,75.002 797.817,98.09 930,140.364 C978.974,156.026 1033.94,174.679 1075.7,189.075 " fill="none" id="App-Freelancer" style="stroke: #A80036; stroke-width: 1.0;"/><text fill="#000000" font-family="sans-serif" font-size="13" lengthAdjust="spacingAndGlyphs" textLength="21" x="679" y="53.8591">has</text><polygon fill="#000000" points="703,47.0398,709,50.0398,703,53.0398,703,47.0398" style="stroke: #000000; stroke-width: 1.0;"/><text fill="#000000" font-family="sans-serif" font-size="13" lengthAdjust="spacingAndGlyphs" textLength="7" x="269.0719" y="25.1644">1</text><text fill="#000000" font-family="sans-serif" font-size="13" lengthAdjust="spacingAndGlyphs" textLength="5" x="1063.0109" y="200.9342">*</text><!--MD5=[5666fb125f82775e951078116d76856c]
link Organization to apoint19--><path d="M494.964,107.234 C377.487,118.785 90.1311,147.04 67.8712,149.229 " fill="none" id="Organization-apoint19" style="stroke: #A80036; stroke-width: 1.0;"/><polygon fill="#000000" points="224.5,118.0398,218.5,121.0398,224.5,124.0398,224.5,118.0398" style="stroke: #000000; stroke-width: 1.0;"/><text fill="#000000" font-family="sans-serif" font-size="13" lengthAdjust="spacingAndGlyphs" textLength="21" x="230.5" y="124.8591">has</text><text fill="#000000" font-family="sans-serif" font-size="13" lengthAdjust="spacingAndGlyphs" textLength="7" x="480.0275" y="122.6693">1</text><!--MD5=[4dead91287647b0d384f9f2fd7d345b2]
link apoint19 to Transaction--><path d="M67.9618,149.792 C74.6009,151.746 102.56,160.081 125,168.364 C145.662,175.99 168.201,185.191 187.356,193.28 " fill="none" id="apoint19-Transaction" style="stroke: #A80036; stroke-width: 1.0;"/><text fill="#000000" font-family="sans-serif" font-size="13" lengthAdjust="spacingAndGlyphs" textLength="5" x="172.8926" y="185.4551">*</text><!--MD5=[7f6fa3cab2edf6f589a872045ad1ee0b]
link apoint19 to PaymentDetails--><path d="M65.5,151.645 C65.5,163.051 65.5,174.457 65.5,185.864 " fill="none" id="apoint19-PaymentDetails" style="stroke: #A80036; stroke-width: 1.0; stroke-dasharray: 7.0,7.0;"/><!--MD5=[a57ca28b68497911248bfdc988f6c5b6]
@startuml MD
skinparam classAttributeIconSize 0
hide methods
left to right direction


class App {
}

class Organization {
        - String nome
        - String NIF
}

class Transaction {
}

class Task {
        - String id
        - String description
        - Integer durationInHours
        - Double costPerHourOfJuniorEur
        - String category
}

class PaymentDetails {
        Boolean isPaid
}

class TaskExecutionDetails {
        - LocalDate endDate
        - Integer delayInDays
        - String DescriptionQualityOfWork
}

class Freelancer {
        - String id
        - String name
        - String levelOfExpertise
        - String email
        - String NIF
        - String bankAccountIBAN
        - String address
        - String country
}

Transaction                  "1" - - "1"      Task                      : relative to >
Transaction                  "*" - - "1"      Freelancer                : to >
Transaction                  "*" - - "1"      Organization              : made on behalf of >
Transaction                  "1" - - "1"      TaskExecutionDetails      : executed with >
TaskExecutionDetails         "1" - - "1"      Task                      : refers to >
Organization                 "1" - - "*"      Task                      : publishes >
Organization                 "1" - - "*"      Transaction               : has >
Task                         "*" - - "0, 1"   Freelancer                : executed by >
App                          "1" - - "*"      Organization              : has >
App                          "1" - - "*"      Freelancer                : has >
(Organization, Transaction)      ..          PaymentDetails

@enduml

PlantUML version 1.2020.10(Sun May 17 10:35:57 WEST 2020)
(GPL source distribution)
Java Runtime: OpenJDK Runtime Environment
JVM: OpenJDK 64-Bit Server VM
Java Version: 14+36
Operating System: Windows 10
Default Encoding: Cp1252
Language: en
Country: US
--></g></svg>