<?xml version="1.0" encoding="UTF-8"?><svg xmlns="http://www.w3.org/2000/svg" xmlns:xlink="http://www.w3.org/1999/xlink" contentScriptType="application/ecmascript" contentStyleType="text/css" height="244px" preserveAspectRatio="none" style="width:765px;height:244px;" version="1.1" viewBox="0 0 765 244" width="765px" zoomAndPan="magnify">
    <defs>
        <filter height="300%" id="f1rksrvhkykxm1" width="300%" x="-1" y="-1">
            <feGaussianBlur result="blurOut" stdDeviation="2.0"/>
            <feColorMatrix in="blurOut" result="blurOut2" type="matrix" values="0 0 0 0 0 0 0 0 0 0 0 0 0 0 0 0 0 0 .4 0"/>
            <feOffset dx="4.0" dy="4.0" in="blurOut2" result="blurOut3"/>
            <feBlend in="SourceGraphic" in2="blurOut3" mode="normal"/>
        </filter>
    </defs>
    <g>
        <!--class App-->
        <rect fill="#FEFECE" filter="url(#f1rksrvhkykxm1)" height="40" style="stroke: #A80036; stroke-width: 1.5;" width="53" x="6" y="122.5"/>
        <ellipse cx="21" cy="138.5" fill="#ADD1B2" rx="11" ry="11" style="stroke: #A80036; stroke-width: 1.0;"/>
        <path d="M23.7656,134.375 Q23.9219,134.1563 24.1094,134.0469 Q24.2969,133.9375 24.5156,133.9375 Q24.8906,133.9375 25.125,134.1953 Q25.3594,134.4531 25.3594,135.0625 L25.3594,136.5156 Q25.3594,137.125 25.125,137.3906 Q24.8906,137.6563 24.5156,137.6563 Q24.1719,137.6563 23.9688,137.4531 Q23.7656,137.2656 23.6563,136.75 Q23.6094,136.3906 23.4219,136.2031 Q23.0938,135.8281 22.4844,135.6094 Q21.875,135.3906 21.25,135.3906 Q20.4844,135.3906 19.8516,135.7188 Q19.2188,136.0469 18.7266,136.7969 Q18.2344,137.5469 18.2344,138.5781 L18.2344,139.6719 Q18.2344,140.9063 19.125,141.7266 Q20.0156,142.5469 21.6094,142.5469 Q22.5469,142.5469 23.2031,142.2969 Q23.5938,142.1406 24.0156,141.7031 Q24.2813,141.4375 24.4297,141.3594 Q24.5781,141.2813 24.7813,141.2813 Q25.1094,141.2813 25.3672,141.5391 Q25.625,141.7969 25.625,142.1406 Q25.625,142.4844 25.2813,142.8906 Q24.7813,143.4688 23.9844,143.7969 Q22.9063,144.25 21.6094,144.25 Q20.0938,144.25 18.8906,143.625 Q17.9063,143.125 17.2188,142.0547 Q16.5313,140.9844 16.5313,139.7031 L16.5313,138.5469 Q16.5313,137.2188 17.1484,136.0703 Q17.7656,134.9219 18.8594,134.3047 Q19.9531,133.6875 21.1875,133.6875 Q21.9219,133.6875 22.5703,133.8516 Q23.2188,134.0156 23.7656,134.375 Z "/>
        <text fill="#000000" font-family="sans-serif" font-size="12" lengthAdjust="spacingAndGlyphs" textLength="21" x="35" y="143.4102">App</text>
        <line style="stroke: #A80036; stroke-width: 1.5;" x1="7" x2="58" y1="154.5" y2="154.5"/>
        <!--class Organization-->
        <rect fill="#FEFECE" filter="url(#f1rksrvhkykxm1)" height="53.8359" style="stroke: #A80036; stroke-width: 1.5;" width="101" x="155" y="115.5"/>
        <ellipse cx="170" cy="131.5" fill="#ADD1B2" rx="11" ry="11" style="stroke: #A80036; stroke-width: 1.0;"/>
        <path d="M172.7656,127.375 Q172.9219,127.1563 173.1094,127.0469 Q173.2969,126.9375 173.5156,126.9375 Q173.8906,126.9375 174.125,127.1953 Q174.3594,127.4531 174.3594,128.0625 L174.3594,129.5156 Q174.3594,130.125 174.125,130.3906 Q173.8906,130.6563 173.5156,130.6563 Q173.1719,130.6563 172.9688,130.4531 Q172.7656,130.2656 172.6563,129.75 Q172.6094,129.3906 172.4219,129.2031 Q172.0938,128.8281 171.4844,128.6094 Q170.875,128.3906 170.25,128.3906 Q169.4844,128.3906 168.8516,128.7188 Q168.2188,129.0469 167.7266,129.7969 Q167.2344,130.5469 167.2344,131.5781 L167.2344,132.6719 Q167.2344,133.9063 168.125,134.7266 Q169.0156,135.5469 170.6094,135.5469 Q171.5469,135.5469 172.2031,135.2969 Q172.5938,135.1406 173.0156,134.7031 Q173.2813,134.4375 173.4297,134.3594 Q173.5781,134.2813 173.7813,134.2813 Q174.1094,134.2813 174.3672,134.5391 Q174.625,134.7969 174.625,135.1406 Q174.625,135.4844 174.2813,135.8906 Q173.7813,136.4688 172.9844,136.7969 Q171.9063,137.25 170.6094,137.25 Q169.0938,137.25 167.8906,136.625 Q166.9063,136.125 166.2188,135.0547 Q165.5313,133.9844 165.5313,132.7031 L165.5313,131.5469 Q165.5313,130.2188 166.1484,129.0703 Q166.7656,127.9219 167.8594,127.3047 Q168.9531,126.6875 170.1875,126.6875 Q170.9219,126.6875 171.5703,126.8516 Q172.2188,127.0156 172.7656,127.375 Z "/>
        <text fill="#000000" font-family="sans-serif" font-size="12" lengthAdjust="spacingAndGlyphs" textLength="69" x="184" y="136.4102">Organization</text>
        <line style="stroke: #A80036; stroke-width: 1.5;" x1="156" x2="255" y1="147.5" y2="147.5"/>
        <rect fill="none" height="6" style="stroke: #C82930; stroke-width: 1.0;" width="6" x="163" y="156.918"/>
        <text fill="#000000" font-family="sans-serif" font-size="11" lengthAdjust="spacingAndGlyphs" textLength="57" x="175" y="162.9189">String name</text>
        <!--class Collaborator-->
        <rect fill="#FEFECE" filter="url(#f1rksrvhkykxm1)" height="81.5078" style="stroke: #A80036; stroke-width: 1.5;" width="107" x="352" y="45.5"/>
        <ellipse cx="371.5" cy="61.5" fill="#ADD1B2" rx="11" ry="11" style="stroke: #A80036; stroke-width: 1.0;"/>
        <path d="M374.2656,57.375 Q374.4219,57.1563 374.6094,57.0469 Q374.7969,56.9375 375.0156,56.9375 Q375.3906,56.9375 375.625,57.1953 Q375.8594,57.4531 375.8594,58.0625 L375.8594,59.5156 Q375.8594,60.125 375.625,60.3906 Q375.3906,60.6563 375.0156,60.6563 Q374.6719,60.6563 374.4688,60.4531 Q374.2656,60.2656 374.1563,59.75 Q374.1094,59.3906 373.9219,59.2031 Q373.5938,58.8281 372.9844,58.6094 Q372.375,58.3906 371.75,58.3906 Q370.9844,58.3906 370.3516,58.7188 Q369.7188,59.0469 369.2266,59.7969 Q368.7344,60.5469 368.7344,61.5781 L368.7344,62.6719 Q368.7344,63.9063 369.625,64.7266 Q370.5156,65.5469 372.1094,65.5469 Q373.0469,65.5469 373.7031,65.2969 Q374.0938,65.1406 374.5156,64.7031 Q374.7813,64.4375 374.9297,64.3594 Q375.0781,64.2813 375.2813,64.2813 Q375.6094,64.2813 375.8672,64.5391 Q376.125,64.7969 376.125,65.1406 Q376.125,65.4844 375.7813,65.8906 Q375.2813,66.4688 374.4844,66.7969 Q373.4063,67.25 372.1094,67.25 Q370.5938,67.25 369.3906,66.625 Q368.4063,66.125 367.7188,65.0547 Q367.0313,63.9844 367.0313,62.7031 L367.0313,61.5469 Q367.0313,60.2188 367.6484,59.0703 Q368.2656,57.9219 369.3594,57.3047 Q370.4531,56.6875 371.6875,56.6875 Q372.4219,56.6875 373.0703,56.8516 Q373.7188,57.0156 374.2656,57.375 Z "/>
        <text fill="#000000" font-family="sans-serif" font-size="12" lengthAdjust="spacingAndGlyphs" textLength="65" x="386.5" y="66.4102">Collaborator</text>
        <line style="stroke: #A80036; stroke-width: 1.5;" x1="353" x2="458" y1="77.5" y2="77.5"/>
        <rect fill="none" height="6" style="stroke: #C82930; stroke-width: 1.0;" width="6" x="360" y="86.918"/>
        <text fill="#000000" font-family="sans-serif" font-size="11" lengthAdjust="spacingAndGlyphs" textLength="57" x="372" y="92.9189">String nome</text>
        <rect fill="none" height="6" style="stroke: #C82930; stroke-width: 1.0;" width="6" x="360" y="100.7539"/>
        <text fill="#000000" font-family="sans-serif" font-size="11" lengthAdjust="spacingAndGlyphs" textLength="55" x="372" y="106.7549">String email</text>
        <rect fill="none" height="6" style="stroke: #C82930; stroke-width: 1.0;" width="6" x="360" y="114.5898"/>
        <text fill="#000000" font-family="sans-serif" font-size="11" lengthAdjust="spacingAndGlyphs" textLength="81" x="372" y="120.5908">String password</text>
        <!--class Task-->
        <rect fill="#FEFECE" filter="url(#f1rksrvhkykxm1)" height="109.1797" style="stroke: #A80036; stroke-width: 1.5;" width="179" x="577" y="126"/>
        <ellipse cx="648.75" cy="142" fill="#ADD1B2" rx="11" ry="11" style="stroke: #A80036; stroke-width: 1.0;"/>
        <path d="M651.5156,137.875 Q651.6719,137.6563 651.8594,137.5469 Q652.0469,137.4375 652.2656,137.4375 Q652.6406,137.4375 652.875,137.6953 Q653.1094,137.9531 653.1094,138.5625 L653.1094,140.0156 Q653.1094,140.625 652.875,140.8906 Q652.6406,141.1563 652.2656,141.1563 Q651.9219,141.1563 651.7188,140.9531 Q651.5156,140.7656 651.4063,140.25 Q651.3594,139.8906 651.1719,139.7031 Q650.8438,139.3281 650.2344,139.1094 Q649.625,138.8906 649,138.8906 Q648.2344,138.8906 647.6016,139.2188 Q646.9688,139.5469 646.4766,140.2969 Q645.9844,141.0469 645.9844,142.0781 L645.9844,143.1719 Q645.9844,144.4063 646.875,145.2266 Q647.7656,146.0469 649.3594,146.0469 Q650.2969,146.0469 650.9531,145.7969 Q651.3438,145.6406 651.7656,145.2031 Q652.0313,144.9375 652.1797,144.8594 Q652.3281,144.7813 652.5313,144.7813 Q652.8594,144.7813 653.1172,145.0391 Q653.375,145.2969 653.375,145.6406 Q653.375,145.9844 653.0313,146.3906 Q652.5313,146.9688 651.7344,147.2969 Q650.6563,147.75 649.3594,147.75 Q647.8438,147.75 646.6406,147.125 Q645.6563,146.625 644.9688,145.5547 Q644.2813,144.4844 644.2813,143.2031 L644.2813,142.0469 Q644.2813,140.7188 644.8984,139.5703 Q645.5156,138.4219 646.6094,137.8047 Q647.7031,137.1875 648.9375,137.1875 Q649.6719,137.1875 650.3203,137.3516 Q650.9688,137.5156 651.5156,137.875 Z "/>
        <text fill="#000000" font-family="sans-serif" font-size="12" lengthAdjust="spacingAndGlyphs" textLength="27" x="669.25" y="146.9102">Task</text>
        <line style="stroke: #A80036; stroke-width: 1.5;" x1="578" x2="755" y1="158" y2="158"/>
        <rect fill="none" height="6" style="stroke: #C82930; stroke-width: 1.0;" width="6" x="585" y="167.418"/>
        <text fill="#000000" font-family="sans-serif" font-size="11" lengthAdjust="spacingAndGlyphs" textLength="39" x="597" y="173.4189">String id</text>
        <rect fill="none" height="6" style="stroke: #C82930; stroke-width: 1.0;" width="6" x="585" y="181.2539"/>
        <text fill="#000000" font-family="sans-serif" font-size="11" lengthAdjust="spacingAndGlyphs" textLength="84" x="597" y="187.2549">String description</text>
        <rect fill="none" height="6" style="stroke: #C82930; stroke-width: 1.0;" width="6" x="585" y="195.0898"/>
        <text fill="#000000" font-family="sans-serif" font-size="11" lengthAdjust="spacingAndGlyphs" textLength="112" x="597" y="201.0908">Integer durationInHours</text>
        <rect fill="none" height="6" style="stroke: #C82930; stroke-width: 1.0;" width="6" x="585" y="208.9258"/>
        <text fill="#000000" font-family="sans-serif" font-size="11" lengthAdjust="spacingAndGlyphs" textLength="153" x="597" y="214.9268">Double costPerHourOfJuniorEur</text>
        <rect fill="none" height="6" style="stroke: #C82930; stroke-width: 1.0;" width="6" x="585" y="222.7617"/>
        <text fill="#000000" font-family="sans-serif" font-size="11" lengthAdjust="spacingAndGlyphs" textLength="74" x="597" y="228.7627">String category</text>
        <!--class User-->
        <rect fill="#FEFECE" filter="url(#f1rksrvhkykxm1)" height="81.5078" style="stroke: #A80036; stroke-width: 1.5;" width="107" x="613" y="8.5"/>
        <ellipse cx="649.6" cy="24.5" fill="#ADD1B2" rx="11" ry="11" style="stroke: #A80036; stroke-width: 1.0;"/>
        <path d="M652.3656,20.375 Q652.5219,20.1563 652.7094,20.0469 Q652.8969,19.9375 653.1156,19.9375 Q653.4906,19.9375 653.725,20.1953 Q653.9594,20.4531 653.9594,21.0625 L653.9594,22.5156 Q653.9594,23.125 653.725,23.3906 Q653.4906,23.6563 653.1156,23.6563 Q652.7719,23.6563 652.5688,23.4531 Q652.3656,23.2656 652.2563,22.75 Q652.2094,22.3906 652.0219,22.2031 Q651.6938,21.8281 651.0844,21.6094 Q650.475,21.3906 649.85,21.3906 Q649.0844,21.3906 648.4516,21.7188 Q647.8188,22.0469 647.3266,22.7969 Q646.8344,23.5469 646.8344,24.5781 L646.8344,25.6719 Q646.8344,26.9063 647.725,27.7266 Q648.6156,28.5469 650.2094,28.5469 Q651.1469,28.5469 651.8031,28.2969 Q652.1938,28.1406 652.6156,27.7031 Q652.8813,27.4375 653.0297,27.3594 Q653.1781,27.2813 653.3813,27.2813 Q653.7094,27.2813 653.9672,27.5391 Q654.225,27.7969 654.225,28.1406 Q654.225,28.4844 653.8813,28.8906 Q653.3813,29.4688 652.5844,29.7969 Q651.5063,30.25 650.2094,30.25 Q648.6938,30.25 647.4906,29.625 Q646.5063,29.125 645.8188,28.0547 Q645.1313,26.9844 645.1313,25.7031 L645.1313,24.5469 Q645.1313,23.2188 645.7484,22.0703 Q646.3656,20.9219 647.4594,20.3047 Q648.5531,19.6875 649.7875,19.6875 Q650.5219,19.6875 651.1703,19.8516 Q651.8188,20.0156 652.3656,20.375 Z "/>
        <text fill="#000000" font-family="sans-serif" font-size="12" lengthAdjust="spacingAndGlyphs" textLength="27" x="668.4" y="29.4102">User</text>
        <line style="stroke: #A80036; stroke-width: 1.5;" x1="614" x2="719" y1="40.5" y2="40.5"/>
        <rect fill="none" height="6" style="stroke: #C82930; stroke-width: 1.0;" width="6" x="621" y="49.918"/>
        <text fill="#000000" font-family="sans-serif" font-size="11" lengthAdjust="spacingAndGlyphs" textLength="57" x="633" y="55.9189">String nome</text>
        <rect fill="none" height="6" style="stroke: #C82930; stroke-width: 1.0;" width="6" x="621" y="63.7539"/>
        <text fill="#000000" font-family="sans-serif" font-size="11" lengthAdjust="spacingAndGlyphs" textLength="55" x="633" y="69.7549">String email</text>
        <rect fill="none" height="6" style="stroke: #C82930; stroke-width: 1.0;" width="6" x="621" y="77.5898"/>
        <text fill="#000000" font-family="sans-serif" font-size="11" lengthAdjust="spacingAndGlyphs" textLength="81" x="633" y="83.5908">String password</text>
        <path d="M459.225,78.968 C504.04,72.566 568.055,63.421 612.849,57.022 " fill="none" style="stroke: #A80036; stroke-width: 1.0;"/>
        <text fill="#000000" font-family="sans-serif" font-size="13" lengthAdjust="spacingAndGlyphs" textLength="43" x="490" y="62.9951">acts as</text>
        <polygon fill="#000000" points="536,56.1758,542,59.1758,536,62.1758,536,56.1758" style="stroke: #000000; stroke-width: 1.0;"/>
        <text fill="#000000" font-family="sans-serif" font-size="13" lengthAdjust="spacingAndGlyphs" textLength="18" x="466.8696" y="92.5716">0,1</text>
        <text fill="#000000" font-family="sans-serif" font-size="13" lengthAdjust="spacingAndGlyphs" textLength="7" x="598.1693" y="72.6596">1</text>
        <path d="M459.225,105.636 C493.021,117.902 537.736,134.13 576.893,148.3415 " fill="none" style="stroke: #A80036; stroke-width: 1.0;"/>
        <text fill="#000000" font-family="sans-serif" font-size="13" lengthAdjust="spacingAndGlyphs" textLength="43" x="490" y="112.9951">creates</text>
        <polygon fill="#000000" points="536,106.1758,542,109.1758,536,112.1758,536,106.1758" style="stroke: #000000; stroke-width: 1.0;"/>
        <text fill="#000000" font-family="sans-serif" font-size="13" lengthAdjust="spacingAndGlyphs" textLength="7" x="466.9146" y="122.8342">1</text>
        <text fill="#000000" font-family="sans-serif" font-size="13" lengthAdjust="spacingAndGlyphs" textLength="5" x="563.9776" y="159.7679">*</text>
        <path d="M256.208,128.441 C285.419,120.179 322.317,109.744 352,101.349 " fill="none" style="stroke: #A80036; stroke-width: 1.0;"/>
        <text fill="#000000" font-family="sans-serif" font-size="13" lengthAdjust="spacingAndGlyphs" textLength="21" x="287" y="106.9951">has</text>
        <polygon fill="#000000" points="311,100.1758,317,103.1758,311,106.1758,311,100.1758" style="stroke: #000000; stroke-width: 1.0;"/>
        <text fill="#000000" font-family="sans-serif" font-size="13" lengthAdjust="spacingAndGlyphs" textLength="7" x="263.831" y="141.1203">1</text>
        <text fill="#000000" font-family="sans-serif" font-size="13" lengthAdjust="spacingAndGlyphs" textLength="23" x="321.0781" y="117.6803">1,...</text>
        <path d="M256.198,150.7932 C284.252,155.1926 319.999,160.3293 352,163.5 C427.667,170.997 513.959,175.3714 576.829,177.8002 " fill="none" style="stroke: #A80036; stroke-width: 1.0;"/>
        <text fill="#000000" font-family="sans-serif" font-size="13" lengthAdjust="spacingAndGlyphs" textLength="55" x="371.5" y="159.9951">publishes</text>
        <polygon fill="#000000" points="429.5,153.1758,435.5,156.1758,429.5,159.1758,429.5,153.1758" style="stroke: #000000; stroke-width: 1.0;"/>
        <text fill="#000000" font-family="sans-serif" font-size="13" lengthAdjust="spacingAndGlyphs" textLength="7" x="264.1583" y="166.7192">1</text>
        <text fill="#000000" font-family="sans-serif" font-size="13" lengthAdjust="spacingAndGlyphs" textLength="5" x="563.9081" y="191.7582">*</text>
        <path d="M59.1004,142.5 C84.3496,142.5 123.605,142.5 154.965,142.5 " fill="none" style="stroke: #A80036; stroke-width: 1.0;"/>
        <text fill="#000000" font-family="sans-serif" font-size="13" lengthAdjust="spacingAndGlyphs" textLength="21" x="90" y="138.9951">has</text>
        <polygon fill="#000000" points="114,132.1758,120,135.1758,114,138.1758,114,132.1758" style="stroke: #000000; stroke-width: 1.0;"/>
        <text fill="#000000" font-family="sans-serif" font-size="13" lengthAdjust="spacingAndGlyphs" textLength="7" x="66.8136" y="158.0902">1</text>
        <text fill="#000000" font-family="sans-serif" font-size="13" lengthAdjust="spacingAndGlyphs" textLength="5" x="141.844" y="157.2596">*</text>
        <!--
@startuml

hide methods
left to right direction

class App {

}

class Organization {
        - String name
}


class Collaborator {
        - String nome
        - String email
        - String password
}

class Task {
        - String id
        - String description
        - Integer durationInHours
        - Double costPerHourOfJuniorEur
        - String category
}

class User {
        - String nome
        - String email
        - String password
}

Collaborator                "0,1" - - "1"      User                      : acts as >
Collaborator                  "1" - - "*"      Task                      : creates >
Organization                 "1" - - "1,..."  Collaborator               : has >
Organization                 "1" - - "*"      Task                      : publishes >
App                          "1" - - "*"      Organization              : has >


@enduml

PlantUML version 2017.11(Wed Apr 19 17:18:59 BST 2017)
(GPL source distribution)
Java Runtime: Java(TM) SE Runtime Environment
JVM: Java HotSpot(TM) 64-Bit Server VM
Java Version: 1.8.0_231-b11
Operating System: Windows 10
OS Version: 10.0
Default Encoding: UTF-8
Language: pt
Country: PT
-->
    </g>
</svg>
