<?xml version="1.0" encoding="UTF-8" standalone="no"?><svg xmlns="http://www.w3.org/2000/svg" xmlns:xlink="http://www.w3.org/1999/xlink" contentScriptType="application/ecmascript" contentStyleType="text/css" height="394px" preserveAspectRatio="none" style="width:550px;height:394px;" version="1.1" viewBox="0 0 550 394" width="550px" zoomAndPan="magnify"><defs><filter height="300%" id="f1h1lxdd6egwmf" width="300%" x="-1" y="-1"><feGaussianBlur result="blurOut" stdDeviation="2.0"/><feColorMatrix in="blurOut" result="blurOut2" type="matrix" values="0 0 0 0 0 0 0 0 0 0 0 0 0 0 0 0 0 0 .4 0"/><feOffset dx="4.0" dy="4.0" in="blurOut2" result="blurOut3"/><feBlend in="SourceGraphic" in2="blurOut3" mode="normal"/></filter></defs><g><rect fill="#FFFFFF" filter="url(#f1h1lxdd6egwmf)" height="190.4609" style="stroke: #A80036; stroke-width: 1.0;" width="10" x="45" y="97.6094"/><rect fill="#FFFFFF" filter="url(#f1h1lxdd6egwmf)" height="46.7031" style="stroke: #A80036; stroke-width: 1.0;" width="10" x="504" y="119.9609"/><rect fill="#FFFFFF" filter="url(#f1h1lxdd6egwmf)" height="30.3516" style="stroke: #A80036; stroke-width: 1.0;" width="10" x="504" y="197.0156"/><rect fill="#FFFFFF" filter="url(#f1h1lxdd6egwmf)" height="30.3516" style="stroke: #A80036; stroke-width: 1.0;" width="10" x="504" y="257.7188"/><line style="stroke: #A80036; stroke-width: 1.0; stroke-dasharray: 5.0,5.0;" x1="50" x2="50" y1="87.6094" y2="306.0703"/><line style="stroke: #A80036; stroke-width: 1.0; stroke-dasharray: 5.0,5.0;" x1="509" x2="509" y1="87.6094" y2="306.0703"/><text fill="#000000" font-family="sans-serif" font-size="14" lengthAdjust="spacingAndGlyphs" textLength="78" x="8" y="84.5332">Collaborator</text><ellipse cx="50" cy="13" fill="#FEFECE" filter="url(#f1h1lxdd6egwmf)" rx="8" ry="8" style="stroke: #A80036; stroke-width: 2.0;"/><path d="M50,21 L50,48 M37,29 L63,29 M50,48 L37,63 M50,48 L63,63 " fill="none" filter="url(#f1h1lxdd6egwmf)" style="stroke: #A80036; stroke-width: 2.0;"/><text fill="#000000" font-family="sans-serif" font-size="14" lengthAdjust="spacingAndGlyphs" textLength="78" x="8" y="319.6035">Collaborator</text><ellipse cx="50" cy="332.6797" fill="#FEFECE" filter="url(#f1h1lxdd6egwmf)" rx="8" ry="8" style="stroke: #A80036; stroke-width: 2.0;"/><path d="M50,340.6797 L50,367.6797 M37,348.6797 L63,348.6797 M50,367.6797 L37,382.6797 M50,367.6797 L63,382.6797 " fill="none" filter="url(#f1h1lxdd6egwmf)" style="stroke: #A80036; stroke-width: 2.0;"/><rect fill="#FEFECE" filter="url(#f1h1lxdd6egwmf)" height="31.6094" style="stroke: #A80036; stroke-width: 1.5;" width="64" x="475" y="51"/><text fill="#000000" font-family="sans-serif" font-size="14" lengthAdjust="spacingAndGlyphs" textLength="50" x="482" y="72.5332">:System</text><rect fill="#FEFECE" filter="url(#f1h1lxdd6egwmf)" height="31.6094" style="stroke: #A80036; stroke-width: 1.5;" width="64" x="475" y="305.0703"/><text fill="#000000" font-family="sans-serif" font-size="14" lengthAdjust="spacingAndGlyphs" textLength="50" x="482" y="326.6035">:System</text><rect fill="#FFFFFF" filter="url(#f1h1lxdd6egwmf)" height="190.4609" style="stroke: #A80036; stroke-width: 1.0;" width="10" x="45" y="97.6094"/><rect fill="#FFFFFF" filter="url(#f1h1lxdd6egwmf)" height="46.7031" style="stroke: #A80036; stroke-width: 1.0;" width="10" x="504" y="119.9609"/><rect fill="#FFFFFF" filter="url(#f1h1lxdd6egwmf)" height="30.3516" style="stroke: #A80036; stroke-width: 1.0;" width="10" x="504" y="197.0156"/><rect fill="#FFFFFF" filter="url(#f1h1lxdd6egwmf)" height="30.3516" style="stroke: #A80036; stroke-width: 1.0;" width="10" x="504" y="257.7188"/><polygon fill="#A80036" points="492,115.9609,502,119.9609,492,123.9609,496,119.9609" style="stroke: #A80036; stroke-width: 1.0;"/><line style="stroke: #A80036; stroke-width: 1.0;" x1="55" x2="498" y1="119.9609" y2="119.9609"/><text fill="#000000" font-family="sans-serif" font-size="13" font-weight="bold" lengthAdjust="spacingAndGlyphs" textLength="7" x="62" y="115.1045">1</text><text fill="#000000" font-family="sans-serif" font-size="13" lengthAdjust="spacingAndGlyphs" textLength="131" x="73" y="115.1045">creating of a new task.</text><polygon fill="#A80036" points="66,162.6641,56,166.6641,66,170.6641,62,166.6641" style="stroke: #A80036; stroke-width: 1.0;"/><line style="stroke: #A80036; stroke-width: 1.0; stroke-dasharray: 2.0,2.0;" x1="60" x2="508" y1="166.6641" y2="166.6641"/><text fill="#000000" font-family="sans-serif" font-size="13" font-weight="bold" lengthAdjust="spacingAndGlyphs" textLength="7" x="72" y="153.6318">2</text><text fill="#000000" font-family="sans-serif" font-size="13" lengthAdjust="spacingAndGlyphs" textLength="123" x="83" y="145.4561">request the task data</text><text fill="#000000" font-family="sans-serif" font-size="13" lengthAdjust="spacingAndGlyphs" textLength="414" x="83" y="161.8076">(i.e. id, description, durationInHours, costPerHourOfJuniorEur, category)</text><polygon fill="#A80036" points="492,193.0156,502,197.0156,492,201.0156,496,197.0156" style="stroke: #A80036; stroke-width: 1.0;"/><line style="stroke: #A80036; stroke-width: 1.0;" x1="55" x2="498" y1="197.0156" y2="197.0156"/><text fill="#000000" font-family="sans-serif" font-size="13" font-weight="bold" lengthAdjust="spacingAndGlyphs" textLength="7" x="62" y="192.1592">3</text><text fill="#000000" font-family="sans-serif" font-size="13" lengthAdjust="spacingAndGlyphs" textLength="141" x="73" y="192.1592">enter the requested data</text><polygon fill="#A80036" points="66,223.3672,56,227.3672,66,231.3672,62,227.3672" style="stroke: #A80036; stroke-width: 1.0;"/><line style="stroke: #A80036; stroke-width: 1.0; stroke-dasharray: 2.0,2.0;" x1="60" x2="508" y1="227.3672" y2="227.3672"/><text fill="#000000" font-family="sans-serif" font-size="13" font-weight="bold" lengthAdjust="spacingAndGlyphs" textLength="7" x="72" y="222.5107">4</text><text fill="#000000" font-family="sans-serif" font-size="13" lengthAdjust="spacingAndGlyphs" textLength="228" x="83" y="222.5107">presents data and asks for confirmation</text><polygon fill="#A80036" points="492,253.7188,502,257.7188,492,261.7188,496,257.7188" style="stroke: #A80036; stroke-width: 1.0;"/><line style="stroke: #A80036; stroke-width: 1.0;" x1="55" x2="498" y1="257.7188" y2="257.7188"/><text fill="#000000" font-family="sans-serif" font-size="13" font-weight="bold" lengthAdjust="spacingAndGlyphs" textLength="7" x="62" y="252.8623">5</text><text fill="#000000" font-family="sans-serif" font-size="13" lengthAdjust="spacingAndGlyphs" textLength="49" x="73" y="252.8623">confirms</text><polygon fill="#A80036" points="61,284.0703,51,288.0703,61,292.0703,57,288.0703" style="stroke: #A80036; stroke-width: 1.0;"/><line style="stroke: #A80036; stroke-width: 1.0; stroke-dasharray: 2.0,2.0;" x1="55" x2="508" y1="288.0703" y2="288.0703"/><text fill="#000000" font-family="sans-serif" font-size="13" font-weight="bold" lengthAdjust="spacingAndGlyphs" textLength="7" x="67" y="283.2139">6</text><text fill="#000000" font-family="sans-serif" font-size="13" lengthAdjust="spacingAndGlyphs" textLength="119" x="78" y="283.2139">successful operation</text><!--MD5=[23cb5f22f85c3cfe9ba10e1c0c672c91]
@startuml SSD

autonumber
actor Collaborator as C

activate C
C -> ":System" : creating of a new task.
activate ":System"
":System" - -> C : request the task data \n(i.e. id, description, durationInHours, costPerHourOfJuniorEur, category)
deactivate ":System"

C -> ":System" : enter the requested data
activate ":System"
":System" - -> C : presents data and asks for confirmation
deactivate ":System"

C -> ":System" : confirms
activate ":System"
":System" - -> C : successful operation
deactivate ":System"

deactivate C
@enduml

PlantUML version 1.2020.10(Sun May 17 10:35:57 WEST 2020)
(GPL source distribution)
Java Runtime: OpenJDK Runtime Environment
JVM: OpenJDK 64-Bit Server VM
Java Version: 14+36
Operating System: Windows 10
Default Encoding: Cp1252
Language: en
Country: US
--></g></svg>