<?xml version="1.0" encoding="UTF-8"?><svg xmlns="http://www.w3.org/2000/svg" xmlns:xlink="http://www.w3.org/1999/xlink" contentScriptType="application/ecmascript" contentStyleType="text/css" height="911px" preserveAspectRatio="none" style="width:752px;height:911px;" version="1.1" viewBox="0 0 752 911" width="752px" zoomAndPan="magnify">
    <defs>
        <filter height="300%" id="f1bxdcihd7r0rg" width="300%" x="-1" y="-1">
            <feGaussianBlur result="blurOut" stdDeviation="2.0"/>
            <feColorMatrix in="blurOut" result="blurOut2" type="matrix" values="0 0 0 0 0 0 0 0 0 0 0 0 0 0 0 0 0 0 .4 0"/>
            <feOffset dx="4.0" dy="4.0" in="blurOut2" result="blurOut3"/>
            <feBlend in="SourceGraphic" in2="blurOut3" mode="normal"/>
        </filter>
    </defs>
    <g>
        <!--class Colaborator-->
        <rect fill="#FEFECE" filter="url(#f1bxdcihd7r0rg)" height="131.0156" style="stroke: #A80036; stroke-width: 1.5;" width="194" x="211" y="771"/>
        <ellipse cx="271.25" cy="787" fill="#ADD1B2" rx="11" ry="11" style="stroke: #A80036; stroke-width: 1.0;"/>
        <path d="M274.0156,782.875 Q274.1719,782.6563 274.3594,782.5469 Q274.5469,782.4375 274.7656,782.4375 Q275.1406,782.4375 275.375,782.6953 Q275.6094,782.9531 275.6094,783.5625 L275.6094,785.0156 Q275.6094,785.625 275.375,785.8906 Q275.1406,786.1563 274.7656,786.1563 Q274.4219,786.1563 274.2188,785.9531 Q274.0156,785.7656 273.9063,785.25 Q273.8594,784.8906 273.6719,784.7031 Q273.3438,784.3281 272.7344,784.1094 Q272.125,783.8906 271.5,783.8906 Q270.7344,783.8906 270.1016,784.2188 Q269.4688,784.5469 268.9766,785.2969 Q268.4844,786.0469 268.4844,787.0781 L268.4844,788.1719 Q268.4844,789.4063 269.375,790.2266 Q270.2656,791.0469 271.8594,791.0469 Q272.7969,791.0469 273.4531,790.7969 Q273.8438,790.6406 274.2656,790.2031 Q274.5313,789.9375 274.6797,789.8594 Q274.8281,789.7813 275.0313,789.7813 Q275.3594,789.7813 275.6172,790.0391 Q275.875,790.2969 275.875,790.6406 Q275.875,790.9844 275.5313,791.3906 Q275.0313,791.9688 274.2344,792.2969 Q273.1563,792.75 271.8594,792.75 Q270.3438,792.75 269.1406,792.125 Q268.1563,791.625 267.4688,790.5547 Q266.7813,789.4844 266.7813,788.2031 L266.7813,787.0469 Q266.7813,785.7188 267.3984,784.5703 Q268.0156,783.4219 269.1094,782.8047 Q270.2031,782.1875 271.4375,782.1875 Q272.1719,782.1875 272.8203,782.3516 Q273.4688,782.5156 274.0156,782.875 Z "/>
        <text fill="#000000" font-family="sans-serif" font-size="12" lengthAdjust="spacingAndGlyphs" textLength="65" x="291.75" y="791.9102">Colaborator</text>
        <line style="stroke: #A80036; stroke-width: 1.5;" x1="212" x2="404" y1="803" y2="803"/>
        <rect fill="none" height="6" style="stroke: #C82930; stroke-width: 1.0;" width="6" x="219" y="812.418"/>
        <text fill="#000000" font-family="sans-serif" font-size="11" lengthAdjust="spacingAndGlyphs" textLength="57" x="231" y="818.4189">String nome</text>
        <rect fill="none" height="6" style="stroke: #C82930; stroke-width: 1.0;" width="6" x="219" y="826.2539"/>
        <text fill="#000000" font-family="sans-serif" font-size="11" lengthAdjust="spacingAndGlyphs" textLength="55" x="231" y="832.2549">String email</text>
        <line style="stroke: #A80036; stroke-width: 1.5;" x1="212" x2="404" y1="838.6719" y2="838.6719"/>
        <text fill="#000000" font-family="sans-serif" font-size="11" lengthAdjust="spacingAndGlyphs" textLength="182" x="217" y="854.0908">Colaborador(nome, email, password )</text>
        <text fill="#000000" font-family="sans-serif" font-size="11" lengthAdjust="spacingAndGlyphs" textLength="81" x="217" y="867.9268">String getNome()</text>
        <text fill="#000000" font-family="sans-serif" font-size="11" lengthAdjust="spacingAndGlyphs" textLength="78" x="217" y="881.7627">String getEmail()</text>
        <text fill="#000000" font-family="sans-serif" font-size="11" lengthAdjust="spacingAndGlyphs" textLength="104" x="217" y="895.5986">String getPassword()</text>
        <!--class Manager-->
        <rect fill="#FEFECE" filter="url(#f1bxdcihd7r0rg)" height="131.0156" style="stroke: #A80036; stroke-width: 1.5;" width="191" x="459.5" y="771"/>
        <ellipse cx="526.75" cy="787" fill="#ADD1B2" rx="11" ry="11" style="stroke: #A80036; stroke-width: 1.0;"/>
        <path d="M529.5156,782.875 Q529.6719,782.6563 529.8594,782.5469 Q530.0469,782.4375 530.2656,782.4375 Q530.6406,782.4375 530.875,782.6953 Q531.1094,782.9531 531.1094,783.5625 L531.1094,785.0156 Q531.1094,785.625 530.875,785.8906 Q530.6406,786.1563 530.2656,786.1563 Q529.9219,786.1563 529.7188,785.9531 Q529.5156,785.7656 529.4063,785.25 Q529.3594,784.8906 529.1719,784.7031 Q528.8438,784.3281 528.2344,784.1094 Q527.625,783.8906 527,783.8906 Q526.2344,783.8906 525.6016,784.2188 Q524.9688,784.5469 524.4766,785.2969 Q523.9844,786.0469 523.9844,787.0781 L523.9844,788.1719 Q523.9844,789.4063 524.875,790.2266 Q525.7656,791.0469 527.3594,791.0469 Q528.2969,791.0469 528.9531,790.7969 Q529.3438,790.6406 529.7656,790.2031 Q530.0313,789.9375 530.1797,789.8594 Q530.3281,789.7813 530.5313,789.7813 Q530.8594,789.7813 531.1172,790.0391 Q531.375,790.2969 531.375,790.6406 Q531.375,790.9844 531.0313,791.3906 Q530.5313,791.9688 529.7344,792.2969 Q528.6563,792.75 527.3594,792.75 Q525.8438,792.75 524.6406,792.125 Q523.6563,791.625 522.9688,790.5547 Q522.2813,789.4844 522.2813,788.2031 L522.2813,787.0469 Q522.2813,785.7188 522.8984,784.5703 Q523.5156,783.4219 524.6094,782.8047 Q525.7031,782.1875 526.9375,782.1875 Q527.6719,782.1875 528.3203,782.3516 Q528.9688,782.5156 529.5156,782.875 Z "/>
        <text fill="#000000" font-family="sans-serif" font-size="12" lengthAdjust="spacingAndGlyphs" textLength="48" x="547.25" y="791.9102">Manager</text>
        <line style="stroke: #A80036; stroke-width: 1.5;" x1="460.5" x2="649.5" y1="803" y2="803"/>
        <rect fill="none" height="6" style="stroke: #C82930; stroke-width: 1.0;" width="6" x="467.5" y="812.418"/>
        <text fill="#000000" font-family="sans-serif" font-size="11" lengthAdjust="spacingAndGlyphs" textLength="57" x="479.5" y="818.4189">String name</text>
        <rect fill="none" height="6" style="stroke: #C82930; stroke-width: 1.0;" width="6" x="467.5" y="826.2539"/>
        <text fill="#000000" font-family="sans-serif" font-size="11" lengthAdjust="spacingAndGlyphs" textLength="55" x="479.5" y="832.2549">String email</text>
        <line style="stroke: #A80036; stroke-width: 1.5;" x1="460.5" x2="649.5" y1="838.6719" y2="838.6719"/>
        <text fill="#000000" font-family="sans-serif" font-size="11" lengthAdjust="spacingAndGlyphs" textLength="179" x="465.5" y="854.0908">Colaborador(name, email, password)</text>
        <text fill="#000000" font-family="sans-serif" font-size="11" lengthAdjust="spacingAndGlyphs" textLength="81" x="465.5" y="867.9268">String getName()</text>
        <text fill="#000000" font-family="sans-serif" font-size="11" lengthAdjust="spacingAndGlyphs" textLength="78" x="465.5" y="881.7627">String getEmail()</text>
        <text fill="#000000" font-family="sans-serif" font-size="11" lengthAdjust="spacingAndGlyphs" textLength="104" x="465.5" y="895.5986">String getPassword()</text>
        <!--class Administrator-->
        <rect fill="#FEFECE" filter="url(#f1bxdcihd7r0rg)" height="89.5078" style="stroke: #A80036; stroke-width: 1.5;" width="107" x="600.5" y="422"/>
        <ellipse cx="616.4" cy="438" fill="#ADD1B2" rx="11" ry="11" style="stroke: #A80036; stroke-width: 1.0;"/>
        <path d="M619.1656,433.875 Q619.3219,433.6563 619.5094,433.5469 Q619.6969,433.4375 619.9156,433.4375 Q620.2906,433.4375 620.525,433.6953 Q620.7594,433.9531 620.7594,434.5625 L620.7594,436.0156 Q620.7594,436.625 620.525,436.8906 Q620.2906,437.1563 619.9156,437.1563 Q619.5719,437.1563 619.3688,436.9531 Q619.1656,436.7656 619.0563,436.25 Q619.0094,435.8906 618.8219,435.7031 Q618.4938,435.3281 617.8844,435.1094 Q617.275,434.8906 616.65,434.8906 Q615.8844,434.8906 615.2516,435.2188 Q614.6188,435.5469 614.1266,436.2969 Q613.6344,437.0469 613.6344,438.0781 L613.6344,439.1719 Q613.6344,440.4063 614.525,441.2266 Q615.4156,442.0469 617.0094,442.0469 Q617.9469,442.0469 618.6031,441.7969 Q618.9938,441.6406 619.4156,441.2031 Q619.6813,440.9375 619.8297,440.8594 Q619.9781,440.7813 620.1813,440.7813 Q620.5094,440.7813 620.7672,441.0391 Q621.025,441.2969 621.025,441.6406 Q621.025,441.9844 620.6813,442.3906 Q620.1813,442.9688 619.3844,443.2969 Q618.3063,443.75 617.0094,443.75 Q615.4938,443.75 614.2906,443.125 Q613.3063,442.625 612.6188,441.5547 Q611.9313,440.4844 611.9313,439.2031 L611.9313,438.0469 Q611.9313,436.7188 612.5484,435.5703 Q613.1656,434.4219 614.2594,433.8047 Q615.3531,433.1875 616.5875,433.1875 Q617.3219,433.1875 617.9703,433.3516 Q618.6188,433.5156 619.1656,433.875 Z "/>
        <text fill="#000000" font-family="sans-serif" font-size="12" lengthAdjust="spacingAndGlyphs" textLength="73" x="630.6" y="442.9102">Administrator</text>
        <line style="stroke: #A80036; stroke-width: 1.5;" x1="601.5" x2="706.5" y1="454" y2="454"/>
        <rect fill="none" height="6" style="stroke: #C82930; stroke-width: 1.0;" width="6" x="608.5" y="463.418"/>
        <text fill="#000000" font-family="sans-serif" font-size="11" lengthAdjust="spacingAndGlyphs" textLength="57" x="620.5" y="469.4189">String nome</text>
        <rect fill="none" height="6" style="stroke: #C82930; stroke-width: 1.0;" width="6" x="608.5" y="477.2539"/>
        <text fill="#000000" font-family="sans-serif" font-size="11" lengthAdjust="spacingAndGlyphs" textLength="55" x="620.5" y="483.2549">String email</text>
        <rect fill="none" height="6" style="stroke: #C82930; stroke-width: 1.0;" width="6" x="608.5" y="491.0898"/>
        <text fill="#000000" font-family="sans-serif" font-size="11" lengthAdjust="spacingAndGlyphs" textLength="81" x="620.5" y="497.0908">String password</text>
        <line style="stroke: #A80036; stroke-width: 1.5;" x1="601.5" x2="706.5" y1="503.5078" y2="503.5078"/>
        <!--class Organization-->
        <rect fill="#FEFECE" filter="url(#f1bxdcihd7r0rg)" height="103.3438" style="stroke: #A80036; stroke-width: 1.5;" width="302" x="386" y="590"/>
        <ellipse cx="498.25" cy="606" fill="#ADD1B2" rx="11" ry="11" style="stroke: #A80036; stroke-width: 1.0;"/>
        <path d="M501.0156,601.875 Q501.1719,601.6563 501.3594,601.5469 Q501.5469,601.4375 501.7656,601.4375 Q502.1406,601.4375 502.375,601.6953 Q502.6094,601.9531 502.6094,602.5625 L502.6094,604.0156 Q502.6094,604.625 502.375,604.8906 Q502.1406,605.1563 501.7656,605.1563 Q501.4219,605.1563 501.2188,604.9531 Q501.0156,604.7656 500.9063,604.25 Q500.8594,603.8906 500.6719,603.7031 Q500.3438,603.3281 499.7344,603.1094 Q499.125,602.8906 498.5,602.8906 Q497.7344,602.8906 497.1016,603.2188 Q496.4688,603.5469 495.9766,604.2969 Q495.4844,605.0469 495.4844,606.0781 L495.4844,607.1719 Q495.4844,608.4063 496.375,609.2266 Q497.2656,610.0469 498.8594,610.0469 Q499.7969,610.0469 500.4531,609.7969 Q500.8438,609.6406 501.2656,609.2031 Q501.5313,608.9375 501.6797,608.8594 Q501.8281,608.7813 502.0313,608.7813 Q502.3594,608.7813 502.6172,609.0391 Q502.875,609.2969 502.875,609.6406 Q502.875,609.9844 502.5313,610.3906 Q502.0313,610.9688 501.2344,611.2969 Q500.1563,611.75 498.8594,611.75 Q497.3438,611.75 496.1406,611.125 Q495.1563,610.625 494.4688,609.5547 Q493.7813,608.4844 493.7813,607.2031 L493.7813,606.0469 Q493.7813,604.7188 494.3984,603.5703 Q495.0156,602.4219 496.1094,601.8047 Q497.2031,601.1875 498.4375,601.1875 Q499.1719,601.1875 499.8203,601.3516 Q500.4688,601.5156 501.0156,601.875 Z "/>
        <text fill="#000000" font-family="sans-serif" font-size="12" lengthAdjust="spacingAndGlyphs" textLength="69" x="518.75" y="610.9102">Organization</text>
        <line style="stroke: #A80036; stroke-width: 1.5;" x1="387" x2="687" y1="622" y2="622"/>
        <rect fill="none" height="6" style="stroke: #C82930; stroke-width: 1.0;" width="6" x="394" y="631.418"/>
        <text fill="#000000" font-family="sans-serif" font-size="11" lengthAdjust="spacingAndGlyphs" textLength="57" x="406" y="637.4189">String name</text>
        <line style="stroke: #A80036; stroke-width: 1.5;" x1="387" x2="687" y1="643.8359" y2="643.8359"/>
        <text fill="#000000" font-family="sans-serif" font-size="11" lengthAdjust="spacingAndGlyphs" textLength="290" x="392" y="659.2549">Organizacao(name, managerColaborador ,otherColaborator)</text>
        <text fill="#000000" font-family="sans-serif" font-size="11" lengthAdjust="spacingAndGlyphs" text-decoration="underline" textLength="231" x="392" y="673.0908">Manager novoManager(nome, email, password)</text>
        <line style="stroke: #000000; stroke-width: 1.0;" x1="392" x2="623" y1="675.0908" y2="675.0908"/>
        <text fill="#000000" font-family="sans-serif" font-size="11" lengthAdjust="spacingAndGlyphs" text-decoration="underline" textLength="265" x="392" y="686.9268">Colaborador novoColaborador(nome, email, password)</text>
        <line style="stroke: #000000; stroke-width: 1.0;" x1="392" x2="657" y1="688.9268" y2="688.9268"/>
        <!--class App-->
        <rect fill="#FEFECE" filter="url(#f1bxdcihd7r0rg)" height="89.5078" style="stroke: #A80036; stroke-width: 1.5;" width="492" x="251" y="254"/>
        <ellipse cx="482.25" cy="270" fill="#ADD1B2" rx="11" ry="11" style="stroke: #A80036; stroke-width: 1.0;"/>
        <path d="M485.0156,265.875 Q485.1719,265.6563 485.3594,265.5469 Q485.5469,265.4375 485.7656,265.4375 Q486.1406,265.4375 486.375,265.6953 Q486.6094,265.9531 486.6094,266.5625 L486.6094,268.0156 Q486.6094,268.625 486.375,268.8906 Q486.1406,269.1563 485.7656,269.1563 Q485.4219,269.1563 485.2188,268.9531 Q485.0156,268.7656 484.9063,268.25 Q484.8594,267.8906 484.6719,267.7031 Q484.3438,267.3281 483.7344,267.1094 Q483.125,266.8906 482.5,266.8906 Q481.7344,266.8906 481.1016,267.2188 Q480.4688,267.5469 479.9766,268.2969 Q479.4844,269.0469 479.4844,270.0781 L479.4844,271.1719 Q479.4844,272.4063 480.375,273.2266 Q481.2656,274.0469 482.8594,274.0469 Q483.7969,274.0469 484.4531,273.7969 Q484.8438,273.6406 485.2656,273.2031 Q485.5313,272.9375 485.6797,272.8594 Q485.8281,272.7813 486.0313,272.7813 Q486.3594,272.7813 486.6172,273.0391 Q486.875,273.2969 486.875,273.6406 Q486.875,273.9844 486.5313,274.3906 Q486.0313,274.9688 485.2344,275.2969 Q484.1563,275.75 482.8594,275.75 Q481.3438,275.75 480.1406,275.125 Q479.1563,274.625 478.4688,273.5547 Q477.7813,272.4844 477.7813,271.2031 L477.7813,270.0469 Q477.7813,268.7188 478.3984,267.5703 Q479.0156,266.4219 480.1094,265.8047 Q481.2031,265.1875 482.4375,265.1875 Q483.1719,265.1875 483.8203,265.3516 Q484.4688,265.5156 485.0156,265.875 Z "/>
        <text fill="#000000" font-family="sans-serif" font-size="12" lengthAdjust="spacingAndGlyphs" textLength="21" x="502.75" y="274.9102">App</text>
        <line style="stroke: #A80036; stroke-width: 1.5;" x1="252" x2="742" y1="286" y2="286"/>
        <line style="stroke: #A80036; stroke-width: 1.5;" x1="252" x2="742" y1="294" y2="294"/>
        <text fill="#000000" font-family="sans-serif" font-size="11" lengthAdjust="spacingAndGlyphs" textLength="466" x="271" y="309.4189">Organizacao novaOrganizacao(name, nameM, emailM, passwordM, nameC, emailC, passwordC)</text>
        <text fill="#000000" font-family="sans-serif" font-size="11" lengthAdjust="spacingAndGlyphs" textLength="193" x="271" y="323.2549">validatesOrganization(Organizacao org)</text>
        <rect fill="#F24D5C" height="6" style="stroke: #C82930; stroke-width: 1.0;" width="6" x="259" y="331.0898"/>
        <text fill="#000000" font-family="sans-serif" font-size="11" lengthAdjust="spacingAndGlyphs" textLength="168" x="271" y="337.0908">addOrganization(Organizacao org)</text>
        <!--class AutorizacaoFacade-->
        <rect fill="#FEFECE" filter="url(#f1bxdcihd7r0rg)" height="75.6719" style="stroke: #A80036; stroke-width: 1.5;" width="243" x="322.5" y="429"/>
        <ellipse cx="387.75" cy="445" fill="#ADD1B2" rx="11" ry="11" style="stroke: #A80036; stroke-width: 1.0;"/>
        <path d="M390.5156,440.875 Q390.6719,440.6563 390.8594,440.5469 Q391.0469,440.4375 391.2656,440.4375 Q391.6406,440.4375 391.875,440.6953 Q392.1094,440.9531 392.1094,441.5625 L392.1094,443.0156 Q392.1094,443.625 391.875,443.8906 Q391.6406,444.1563 391.2656,444.1563 Q390.9219,444.1563 390.7188,443.9531 Q390.5156,443.7656 390.4063,443.25 Q390.3594,442.8906 390.1719,442.7031 Q389.8438,442.3281 389.2344,442.1094 Q388.625,441.8906 388,441.8906 Q387.2344,441.8906 386.6016,442.2188 Q385.9688,442.5469 385.4766,443.2969 Q384.9844,444.0469 384.9844,445.0781 L384.9844,446.1719 Q384.9844,447.4063 385.875,448.2266 Q386.7656,449.0469 388.3594,449.0469 Q389.2969,449.0469 389.9531,448.7969 Q390.3438,448.6406 390.7656,448.2031 Q391.0313,447.9375 391.1797,447.8594 Q391.3281,447.7813 391.5313,447.7813 Q391.8594,447.7813 392.1172,448.0391 Q392.375,448.2969 392.375,448.6406 Q392.375,448.9844 392.0313,449.3906 Q391.5313,449.9688 390.7344,450.2969 Q389.6563,450.75 388.3594,450.75 Q386.8438,450.75 385.6406,450.125 Q384.6563,449.625 383.9688,448.5547 Q383.2813,447.4844 383.2813,446.2031 L383.2813,445.0469 Q383.2813,443.7188 383.8984,442.5703 Q384.5156,441.4219 385.6094,440.8047 Q386.7031,440.1875 387.9375,440.1875 Q388.6719,440.1875 389.3203,440.3516 Q389.9688,440.5156 390.5156,440.875 Z "/>
        <text fill="#000000" font-family="sans-serif" font-size="12" lengthAdjust="spacingAndGlyphs" textLength="104" x="408.25" y="449.9102">AutorizacaoFacade</text>
        <line style="stroke: #A80036; stroke-width: 1.5;" x1="323.5" x2="564.5" y1="461" y2="461"/>
        <line style="stroke: #A80036; stroke-width: 1.5;" x1="323.5" x2="564.5" y1="469" y2="469"/>
        <rect fill="#F24D5C" height="6" style="stroke: #C82930; stroke-width: 1.0;" width="6" x="330.5" y="478.418"/>
        <text fill="#000000" font-family="sans-serif" font-size="11" lengthAdjust="spacingAndGlyphs" textLength="204" x="342.5" y="484.4189">addManager(nomeM,emailM,passawordM)</text>
        <rect fill="#F24D5C" height="6" style="stroke: #C82930; stroke-width: 1.0;" width="6" x="330.5" y="492.2539"/>
        <text fill="#000000" font-family="sans-serif" font-size="11" lengthAdjust="spacingAndGlyphs" textLength="217" x="342.5" y="498.2549">addColaborator(nomeM,emailM,passawordC)</text>
        <!--class AddingOrganizationController-->
        <rect fill="#FEFECE" filter="url(#f1bxdcihd7r0rg)" height="75.6719" style="stroke: #A80036; stroke-width: 1.5;" width="424" x="6" y="117"/>
        <ellipse cx="133.25" cy="133" fill="#ADD1B2" rx="11" ry="11" style="stroke: #A80036; stroke-width: 1.0;"/>
        <path d="M136.0156,128.875 Q136.1719,128.6563 136.3594,128.5469 Q136.5469,128.4375 136.7656,128.4375 Q137.1406,128.4375 137.375,128.6953 Q137.6094,128.9531 137.6094,129.5625 L137.6094,131.0156 Q137.6094,131.625 137.375,131.8906 Q137.1406,132.1563 136.7656,132.1563 Q136.4219,132.1563 136.2188,131.9531 Q136.0156,131.7656 135.9063,131.25 Q135.8594,130.8906 135.6719,130.7031 Q135.3438,130.3281 134.7344,130.1094 Q134.125,129.8906 133.5,129.8906 Q132.7344,129.8906 132.1016,130.2188 Q131.4688,130.5469 130.9766,131.2969 Q130.4844,132.0469 130.4844,133.0781 L130.4844,134.1719 Q130.4844,135.4063 131.375,136.2266 Q132.2656,137.0469 133.8594,137.0469 Q134.7969,137.0469 135.4531,136.7969 Q135.8438,136.6406 136.2656,136.2031 Q136.5313,135.9375 136.6797,135.8594 Q136.8281,135.7813 137.0313,135.7813 Q137.3594,135.7813 137.6172,136.0391 Q137.875,136.2969 137.875,136.6406 Q137.875,136.9844 137.5313,137.3906 Q137.0313,137.9688 136.2344,138.2969 Q135.1563,138.75 133.8594,138.75 Q132.3438,138.75 131.1406,138.125 Q130.1563,137.625 129.4688,136.5547 Q128.7813,135.4844 128.7813,134.2031 L128.7813,133.0469 Q128.7813,131.7188 129.3984,130.5703 Q130.0156,129.4219 131.1094,128.8047 Q132.2031,128.1875 133.4375,128.1875 Q134.1719,128.1875 134.8203,128.3516 Q135.4688,128.5156 136.0156,128.875 Z "/>
        <text fill="#000000" font-family="sans-serif" font-size="12" lengthAdjust="spacingAndGlyphs" textLength="161" x="153.75" y="137.9102">AddingOrganizationController</text>
        <line style="stroke: #A80036; stroke-width: 1.5;" x1="7" x2="429" y1="149" y2="149"/>
        <line style="stroke: #A80036; stroke-width: 1.5;" x1="7" x2="429" y1="157" y2="157"/>
        <text fill="#000000" font-family="sans-serif" font-size="11" lengthAdjust="spacingAndGlyphs" textLength="398" x="26" y="172.4189">newOrganization(name, nameM, emailM, passwordM, nameC, emailC, passwordC)</text>
        <rect fill="#F24D5C" height="6" style="stroke: #C82930; stroke-width: 1.0;" width="6" x="14" y="180.2539"/>
        <text fill="#000000" font-family="sans-serif" font-size="11" lengthAdjust="spacingAndGlyphs" textLength="85" x="26" y="186.2549">addOrganizaton()</text>
        <!--class AddingOrganizationUI-->
        <rect fill="#FEFECE" filter="url(#f1bxdcihd7r0rg)" height="48" style="stroke: #A80036; stroke-width: 1.5;" width="151" x="142.5" y="8"/>
        <ellipse cx="157.5" cy="24" fill="#ADD1B2" rx="11" ry="11" style="stroke: #A80036; stroke-width: 1.0;"/>
        <path d="M160.2656,19.875 Q160.4219,19.6563 160.6094,19.5469 Q160.7969,19.4375 161.0156,19.4375 Q161.3906,19.4375 161.625,19.6953 Q161.8594,19.9531 161.8594,20.5625 L161.8594,22.0156 Q161.8594,22.625 161.625,22.8906 Q161.3906,23.1563 161.0156,23.1563 Q160.6719,23.1563 160.4688,22.9531 Q160.2656,22.7656 160.1563,22.25 Q160.1094,21.8906 159.9219,21.7031 Q159.5938,21.3281 158.9844,21.1094 Q158.375,20.8906 157.75,20.8906 Q156.9844,20.8906 156.3516,21.2188 Q155.7188,21.5469 155.2266,22.2969 Q154.7344,23.0469 154.7344,24.0781 L154.7344,25.1719 Q154.7344,26.4063 155.625,27.2266 Q156.5156,28.0469 158.1094,28.0469 Q159.0469,28.0469 159.7031,27.7969 Q160.0938,27.6406 160.5156,27.2031 Q160.7813,26.9375 160.9297,26.8594 Q161.0781,26.7813 161.2813,26.7813 Q161.6094,26.7813 161.8672,27.0391 Q162.125,27.2969 162.125,27.6406 Q162.125,27.9844 161.7813,28.3906 Q161.2813,28.9688 160.4844,29.2969 Q159.4063,29.75 158.1094,29.75 Q156.5938,29.75 155.3906,29.125 Q154.4063,28.625 153.7188,27.5547 Q153.0313,26.4844 153.0313,25.2031 L153.0313,24.0469 Q153.0313,22.7188 153.6484,21.5703 Q154.2656,20.4219 155.3594,19.8047 Q156.4531,19.1875 157.6875,19.1875 Q158.4219,19.1875 159.0703,19.3516 Q159.7188,19.5156 160.2656,19.875 Z "/>
        <text fill="#000000" font-family="sans-serif" font-size="12" lengthAdjust="spacingAndGlyphs" textLength="119" x="171.5" y="28.9102">AddingOrganizationUI</text>
        <line style="stroke: #A80036; stroke-width: 1.5;" x1="143.5" x2="292.5" y1="40" y2="40"/>
        <line style="stroke: #A80036; stroke-width: 1.5;" x1="143.5" x2="292.5" y1="48" y2="48"/>
        <path d="M218,56.044 C218,71.713 218,92.908 218,111.575 " fill="none" style="stroke: #A80036; stroke-width: 1.0; stroke-dasharray: 7.0,7.0;"/>
        <polygon fill="#A80036" points="218,116.767,222,107.767,218,111.767,214,107.767,218,116.767" style="stroke: #A80036; stroke-width: 1.0;"/>
        <path d="M290.94,193.123 C326.081,211.009 368.582,232.64 405.836,251.601 " fill="none" style="stroke: #A80036; stroke-width: 1.0; stroke-dasharray: 7.0,7.0;"/>
        <polygon fill="#A80036" points="410.352,253.9,404.1465,246.252,405.8963,251.6314,400.5168,253.3811,410.352,253.9" style="stroke: #A80036; stroke-width: 1.0;"/>
        <path d="M216.258,193.241 C215.006,264.417 222.554,420.784 305,512 C332.962,542.937 370.177,568.067 406.597,587.627 " fill="none" style="stroke: #A80036; stroke-width: 1.0; stroke-dasharray: 7.0,7.0;"/>
        <polygon fill="#A80036" points="411.034,589.985,404.9624,582.2303,406.6184,587.6393,401.2093,589.2953,411.034,589.985" style="stroke: #A80036; stroke-width: 1.0;"/>
        <path d="M387.901,344.017 C355.313,362.91 323.398,388.511 305,422 C245.604,530.114 267.293,679.381 287.976,765.851 " fill="none" style="stroke: #A80036; stroke-width: 1.0; stroke-dasharray: 7.0,7.0;"/>
        <polygon fill="#A80036" points="289.211,770.943,290.98,761.2543,288.034,766.0835,283.2048,763.1375,289.211,770.943" style="stroke: #A80036; stroke-width: 1.0;"/>
        <path d="M634.977,344.104 C670.463,362.394 704.409,387.628 725,422 C749.757,463.326 726.554,651.458 706,693 C692.249,720.792 670.689,745.996 648.121,767.214 " fill="none" style="stroke: #A80036; stroke-width: 1.0; stroke-dasharray: 7.0,7.0;"/>
        <polygon fill="#A80036" points="644.196,770.857,653.5148,767.6694,647.8619,767.4568,648.0745,761.804,644.196,770.857" style="stroke: #A80036; stroke-width: 1.0;"/>
        <path d="M482.936,344.049 C475.03,368.812 465.213,399.558 457.415,423.983 " fill="none" style="stroke: #A80036; stroke-width: 1.0; stroke-dasharray: 7.0,7.0;"/>
        <polygon fill="#A80036" points="455.884,428.779,462.4323,421.4224,457.405,424.016,454.8114,418.9887,455.884,428.779" style="stroke: #A80036; stroke-width: 1.0;"/>
        <path d="M476.833,693.208 C448.607,716.997 414.646,745.619 384.607,770.936 " fill="none" style="stroke: #A80036; stroke-width: 1.0;"/>
        <polygon fill="#000000" points="445,730.6758,439,733.6758,445,736.6758,445,730.6758" style="stroke: #000000; stroke-width: 1.0;"/>
        <text fill="#000000" font-family="sans-serif" font-size="13" lengthAdjust="spacingAndGlyphs" textLength="21" x="451" y="737.4951">has</text>
        <text fill="#000000" font-family="sans-serif" font-size="13" lengthAdjust="spacingAndGlyphs" textLength="7" x="461.2777" y="714.7269">1</text>
        <text fill="#000000" font-family="sans-serif" font-size="13" lengthAdjust="spacingAndGlyphs" textLength="23" x="369.135" y="759.9447">1,...</text>
        <path d="M541.729,693.208 C543.948,716.997 546.617,745.619 548.978,770.936 " fill="none" style="stroke: #A80036; stroke-width: 1.0;"/>
        <text fill="#000000" font-family="sans-serif" font-size="13" lengthAdjust="spacingAndGlyphs" textLength="21" x="547" y="737.4951">has</text>
        <polygon fill="#000000" points="553,746.3516,556,752.3516,559,746.3516,553,746.3516" style="stroke: #000000; stroke-width: 1.0;"/>
        <text fill="#000000" font-family="sans-serif" font-size="13" lengthAdjust="spacingAndGlyphs" textLength="7" x="534.8941" y="714.7269">1</text>
        <text fill="#000000" font-family="sans-serif" font-size="13" lengthAdjust="spacingAndGlyphs" textLength="7" x="540.877" y="759.9447">1</text>
        <path d="M623.87,512.423 C607.823,536.082 588.019,565.28 571.374,589.821 " fill="none" style="stroke: #A80036; stroke-width: 1.0;"/>
        <text fill="#000000" font-family="sans-serif" font-size="13" lengthAdjust="spacingAndGlyphs" textLength="28" x="603" y="556.4951">adds</text>
        <polygon fill="#000000" points="612.5,565.3516,615.5,571.3516,618.5,565.3516,612.5,565.3516" style="stroke: #000000; stroke-width: 1.0;"/>
        <text fill="#000000" font-family="sans-serif" font-size="13" lengthAdjust="spacingAndGlyphs" textLength="7" x="612.351" y="533.1535">1</text>
        <text fill="#000000" font-family="sans-serif" font-size="13" lengthAdjust="spacingAndGlyphs" textLength="5" x="570.6571" y="579.2973">*</text>
        <path d="M538.661,344.049 C561.372,368.062 589.403,397.7 612.144,421.745 " fill="none" style="stroke: #A80036; stroke-width: 1.0;"/>
        <text fill="#000000" font-family="sans-serif" font-size="13" lengthAdjust="spacingAndGlyphs" textLength="21" x="581" y="388.4951">has</text>
        <polygon fill="#000000" points="587,397.3516,590,403.3516,593,397.3516,587,397.3516" style="stroke: #000000; stroke-width: 1.0;"/>
        <text fill="#000000" font-family="sans-serif" font-size="13" lengthAdjust="spacingAndGlyphs" textLength="7" x="537.0274" y="365.0635">1</text>
        <text fill="#000000" font-family="sans-serif" font-size="13" lengthAdjust="spacingAndGlyphs" textLength="5" x="600.352" y="411.15">*</text>
        <!--
@startuml

class Colaborator {
  -String nome
  -String email
  Colaborador(nome, email, password )
  String getNome()
  String getEmail()
  String getPassword()
}

class Manager {
  -String name
  -String email
  Colaborador(name, email, password)
  String getName()
  String getEmail()
  String getPassword()
}

class Administrator {
- String nome
- String email
- String password
}

class Organization {
  -String name
  Organizacao(name, managerColaborador ,otherColaborator)
  {static} Manager novoManager(nome, email, password)
  {static} Colaborador novoColaborador(nome, email, password)
}

class App {
  
  Organizacao novaOrganizacao(name, nameM, emailM, passwordM, nameC, emailC, passwordC)
  validatesOrganization(Organizacao org)
  - addOrganization(Organizacao org) 
}

class AutorizacaoFacade {
   - addManager(nomeM,emailM,passawordM)
   - addColaborator(nomeM,emailM,passawordC)
}

class AddingOrganizationController {
    newOrganization(name, nameM, emailM, passwordM, nameC, emailC, passwordC)
   - addOrganizaton()
}

class AddingOrganizationUI {
}

AddingOrganizationUI ..> AddingOrganizationController
AddingOrganizationController ..> App
AddingOrganizationController ..> Organization
App ..> Colaborator
App ..> Manager
App ..> AutorizacaoFacade
Organization                 "1" - - "1,..."  Colaborator    : has >
Organization                 "1" - - "1"      Manager        : has >
Administrator                "1" - - "*"      Organization   : adds >
App                          "1" - - "*"      Administrator  : has >

@enduml

PlantUML version 2017.11(Wed Apr 19 17:18:59 BST 2017)
(GPL source distribution)
Java Runtime: Java(TM) SE Runtime Environment
JVM: Java HotSpot(TM) 64-Bit Server VM
Java Version: 1.8.0_231-b11
Operating System: Windows 10
OS Version: 10.0
Default Encoding: UTF-8
Language: pt
Country: PT
-->
    </g>
</svg>
