<?xml version="1.0" encoding="UTF-8"?><svg xmlns="http://www.w3.org/2000/svg" xmlns:xlink="http://www.w3.org/1999/xlink" contentScriptType="application/ecmascript" contentStyleType="text/css" height="215px" preserveAspectRatio="none" style="width:693px;height:215px;" version="1.1" viewBox="0 0 693 215" width="693px" zoomAndPan="magnify">
    <defs>
        <filter height="300%" id="f1nsve3gcqhhh5" width="300%" x="-1" y="-1">
            <feGaussianBlur result="blurOut" stdDeviation="2.0"/>
            <feColorMatrix in="blurOut" result="blurOut2" type="matrix" values="0 0 0 0 0 0 0 0 0 0 0 0 0 0 0 0 0 0 .4 0"/>
            <feOffset dx="4.0" dy="4.0" in="blurOut2" result="blurOut3"/>
            <feBlend in="SourceGraphic" in2="blurOut3" mode="normal"/>
        </filter>
    </defs>
    <g>
        <!--class App-->
        <rect fill="#FEFECE" filter="url(#f1nsve3gcqhhh5)" height="40" style="stroke: #A80036; stroke-width: 1.5;" width="53" x="6" y="81"/>
        <ellipse cx="21" cy="97" fill="#ADD1B2" rx="11" ry="11" style="stroke: #A80036; stroke-width: 1.0;"/>
        <path d="M23.7656,92.875 Q23.9219,92.6563 24.1094,92.5469 Q24.2969,92.4375 24.5156,92.4375 Q24.8906,92.4375 25.125,92.6953 Q25.3594,92.9531 25.3594,93.5625 L25.3594,95.0156 Q25.3594,95.625 25.125,95.8906 Q24.8906,96.1563 24.5156,96.1563 Q24.1719,96.1563 23.9688,95.9531 Q23.7656,95.7656 23.6563,95.25 Q23.6094,94.8906 23.4219,94.7031 Q23.0938,94.3281 22.4844,94.1094 Q21.875,93.8906 21.25,93.8906 Q20.4844,93.8906 19.8516,94.2188 Q19.2188,94.5469 18.7266,95.2969 Q18.2344,96.0469 18.2344,97.0781 L18.2344,98.1719 Q18.2344,99.4063 19.125,100.2266 Q20.0156,101.0469 21.6094,101.0469 Q22.5469,101.0469 23.2031,100.7969 Q23.5938,100.6406 24.0156,100.2031 Q24.2813,99.9375 24.4297,99.8594 Q24.5781,99.7813 24.7813,99.7813 Q25.1094,99.7813 25.3672,100.0391 Q25.625,100.2969 25.625,100.6406 Q25.625,100.9844 25.2813,101.3906 Q24.7813,101.9688 23.9844,102.2969 Q22.9063,102.75 21.6094,102.75 Q20.0938,102.75 18.8906,102.125 Q17.9063,101.625 17.2188,100.5547 Q16.5313,99.4844 16.5313,98.2031 L16.5313,97.0469 Q16.5313,95.7188 17.1484,94.5703 Q17.7656,93.4219 18.8594,92.8047 Q19.9531,92.1875 21.1875,92.1875 Q21.9219,92.1875 22.5703,92.3516 Q23.2188,92.5156 23.7656,92.875 Z "/>
        <text fill="#000000" font-family="sans-serif" font-size="12" lengthAdjust="spacingAndGlyphs" textLength="21" x="35" y="101.9102">App</text>
        <line style="stroke: #A80036; stroke-width: 1.5;" x1="7" x2="58" y1="113" y2="113"/>
        <!--class Organization-->
        <rect fill="#FEFECE" filter="url(#f1nsve3gcqhhh5)" height="53.8359" style="stroke: #A80036; stroke-width: 1.5;" width="101" x="155" y="74"/>
        <ellipse cx="170" cy="90" fill="#ADD1B2" rx="11" ry="11" style="stroke: #A80036; stroke-width: 1.0;"/>
        <path d="M172.7656,85.875 Q172.9219,85.6563 173.1094,85.5469 Q173.2969,85.4375 173.5156,85.4375 Q173.8906,85.4375 174.125,85.6953 Q174.3594,85.9531 174.3594,86.5625 L174.3594,88.0156 Q174.3594,88.625 174.125,88.8906 Q173.8906,89.1563 173.5156,89.1563 Q173.1719,89.1563 172.9688,88.9531 Q172.7656,88.7656 172.6563,88.25 Q172.6094,87.8906 172.4219,87.7031 Q172.0938,87.3281 171.4844,87.1094 Q170.875,86.8906 170.25,86.8906 Q169.4844,86.8906 168.8516,87.2188 Q168.2188,87.5469 167.7266,88.2969 Q167.2344,89.0469 167.2344,90.0781 L167.2344,91.1719 Q167.2344,92.4063 168.125,93.2266 Q169.0156,94.0469 170.6094,94.0469 Q171.5469,94.0469 172.2031,93.7969 Q172.5938,93.6406 173.0156,93.2031 Q173.2813,92.9375 173.4297,92.8594 Q173.5781,92.7813 173.7813,92.7813 Q174.1094,92.7813 174.3672,93.0391 Q174.625,93.2969 174.625,93.6406 Q174.625,93.9844 174.2813,94.3906 Q173.7813,94.9688 172.9844,95.2969 Q171.9063,95.75 170.6094,95.75 Q169.0938,95.75 167.8906,95.125 Q166.9063,94.625 166.2188,93.5547 Q165.5313,92.4844 165.5313,91.2031 L165.5313,90.0469 Q165.5313,88.7188 166.1484,87.5703 Q166.7656,86.4219 167.8594,85.8047 Q168.9531,85.1875 170.1875,85.1875 Q170.9219,85.1875 171.5703,85.3516 Q172.2188,85.5156 172.7656,85.875 Z "/>
        <text fill="#000000" font-family="sans-serif" font-size="12" lengthAdjust="spacingAndGlyphs" textLength="69" x="184" y="94.9102">Organization</text>
        <line style="stroke: #A80036; stroke-width: 1.5;" x1="156" x2="255" y1="106" y2="106"/>
        <rect fill="none" height="6" style="stroke: #C82930; stroke-width: 1.0;" width="6" x="163" y="115.418"/>
        <text fill="#000000" font-family="sans-serif" font-size="11" lengthAdjust="spacingAndGlyphs" textLength="57" x="175" y="121.4189">String nome</text>
        <!--class Colaborator-->
        <rect fill="#FEFECE" filter="url(#f1nsve3gcqhhh5)" height="81.5078" style="stroke: #A80036; stroke-width: 1.5;" width="107" x="352" y="8"/>
        <ellipse cx="371.5" cy="24" fill="#ADD1B2" rx="11" ry="11" style="stroke: #A80036; stroke-width: 1.0;"/>
        <path d="M374.2656,19.875 Q374.4219,19.6563 374.6094,19.5469 Q374.7969,19.4375 375.0156,19.4375 Q375.3906,19.4375 375.625,19.6953 Q375.8594,19.9531 375.8594,20.5625 L375.8594,22.0156 Q375.8594,22.625 375.625,22.8906 Q375.3906,23.1563 375.0156,23.1563 Q374.6719,23.1563 374.4688,22.9531 Q374.2656,22.7656 374.1563,22.25 Q374.1094,21.8906 373.9219,21.7031 Q373.5938,21.3281 372.9844,21.1094 Q372.375,20.8906 371.75,20.8906 Q370.9844,20.8906 370.3516,21.2188 Q369.7188,21.5469 369.2266,22.2969 Q368.7344,23.0469 368.7344,24.0781 L368.7344,25.1719 Q368.7344,26.4063 369.625,27.2266 Q370.5156,28.0469 372.1094,28.0469 Q373.0469,28.0469 373.7031,27.7969 Q374.0938,27.6406 374.5156,27.2031 Q374.7813,26.9375 374.9297,26.8594 Q375.0781,26.7813 375.2813,26.7813 Q375.6094,26.7813 375.8672,27.0391 Q376.125,27.2969 376.125,27.6406 Q376.125,27.9844 375.7813,28.3906 Q375.2813,28.9688 374.4844,29.2969 Q373.4063,29.75 372.1094,29.75 Q370.5938,29.75 369.3906,29.125 Q368.4063,28.625 367.7188,27.5547 Q367.0313,26.4844 367.0313,25.2031 L367.0313,24.0469 Q367.0313,22.7188 367.6484,21.5703 Q368.2656,20.4219 369.3594,19.8047 Q370.4531,19.1875 371.6875,19.1875 Q372.4219,19.1875 373.0703,19.3516 Q373.7188,19.5156 374.2656,19.875 Z "/>
        <text fill="#000000" font-family="sans-serif" font-size="12" lengthAdjust="spacingAndGlyphs" textLength="65" x="386.5" y="28.9102">Colaborator</text>
        <line style="stroke: #A80036; stroke-width: 1.5;" x1="353" x2="458" y1="40" y2="40"/>
        <rect fill="none" height="6" style="stroke: #C82930; stroke-width: 1.0;" width="6" x="360" y="49.418"/>
        <text fill="#000000" font-family="sans-serif" font-size="11" lengthAdjust="spacingAndGlyphs" textLength="57" x="372" y="55.4189">String nome</text>
        <rect fill="none" height="6" style="stroke: #C82930; stroke-width: 1.0;" width="6" x="360" y="63.2539"/>
        <text fill="#000000" font-family="sans-serif" font-size="11" lengthAdjust="spacingAndGlyphs" textLength="55" x="372" y="69.2549">String email</text>
        <rect fill="none" height="6" style="stroke: #C82930; stroke-width: 1.0;" width="6" x="360" y="77.0898"/>
        <text fill="#000000" font-family="sans-serif" font-size="11" lengthAdjust="spacingAndGlyphs" textLength="81" x="372" y="83.0908">String password</text>
        <!--class Manager-->
        <rect fill="#FEFECE" filter="url(#f1nsve3gcqhhh5)" height="81.5078" style="stroke: #A80036; stroke-width: 1.5;" width="107" x="352" y="125"/>
        <ellipse cx="379.15" cy="141" fill="#ADD1B2" rx="11" ry="11" style="stroke: #A80036; stroke-width: 1.0;"/>
        <path d="M381.9156,136.875 Q382.0719,136.6563 382.2594,136.5469 Q382.4469,136.4375 382.6656,136.4375 Q383.0406,136.4375 383.275,136.6953 Q383.5094,136.9531 383.5094,137.5625 L383.5094,139.0156 Q383.5094,139.625 383.275,139.8906 Q383.0406,140.1563 382.6656,140.1563 Q382.3219,140.1563 382.1188,139.9531 Q381.9156,139.7656 381.8063,139.25 Q381.7594,138.8906 381.5719,138.7031 Q381.2438,138.3281 380.6344,138.1094 Q380.025,137.8906 379.4,137.8906 Q378.6344,137.8906 378.0016,138.2188 Q377.3688,138.5469 376.8766,139.2969 Q376.3844,140.0469 376.3844,141.0781 L376.3844,142.1719 Q376.3844,143.4063 377.275,144.2266 Q378.1656,145.0469 379.7594,145.0469 Q380.6969,145.0469 381.3531,144.7969 Q381.7438,144.6406 382.1656,144.2031 Q382.4313,143.9375 382.5797,143.8594 Q382.7281,143.7813 382.9313,143.7813 Q383.2594,143.7813 383.5172,144.0391 Q383.775,144.2969 383.775,144.6406 Q383.775,144.9844 383.4313,145.3906 Q382.9313,145.9688 382.1344,146.2969 Q381.0563,146.75 379.7594,146.75 Q378.2438,146.75 377.0406,146.125 Q376.0563,145.625 375.3688,144.5547 Q374.6813,143.4844 374.6813,142.2031 L374.6813,141.0469 Q374.6813,139.7188 375.2984,138.5703 Q375.9156,137.4219 377.0094,136.8047 Q378.1031,136.1875 379.3375,136.1875 Q380.0719,136.1875 380.7203,136.3516 Q381.3688,136.5156 381.9156,136.875 Z "/>
        <text fill="#000000" font-family="sans-serif" font-size="12" lengthAdjust="spacingAndGlyphs" textLength="48" x="395.85" y="145.9102">Manager</text>
        <line style="stroke: #A80036; stroke-width: 1.5;" x1="353" x2="458" y1="157" y2="157"/>
        <rect fill="none" height="6" style="stroke: #C82930; stroke-width: 1.0;" width="6" x="360" y="166.418"/>
        <text fill="#000000" font-family="sans-serif" font-size="11" lengthAdjust="spacingAndGlyphs" textLength="57" x="372" y="172.4189">String nome</text>
        <rect fill="none" height="6" style="stroke: #C82930; stroke-width: 1.0;" width="6" x="360" y="180.2539"/>
        <text fill="#000000" font-family="sans-serif" font-size="11" lengthAdjust="spacingAndGlyphs" textLength="55" x="372" y="186.2549">String email</text>
        <rect fill="none" height="6" style="stroke: #C82930; stroke-width: 1.0;" width="6" x="360" y="194.0898"/>
        <text fill="#000000" font-family="sans-serif" font-size="11" lengthAdjust="spacingAndGlyphs" textLength="81" x="372" y="200.0908">String password</text>
        <!--class User-->
        <rect fill="#FEFECE" filter="url(#f1nsve3gcqhhh5)" height="81.5078" style="stroke: #A80036; stroke-width: 1.5;" width="107" x="577" y="60"/>
        <ellipse cx="613.6" cy="76" fill="#ADD1B2" rx="11" ry="11" style="stroke: #A80036; stroke-width: 1.0;"/>
        <path d="M616.3656,71.875 Q616.5219,71.6563 616.7094,71.5469 Q616.8969,71.4375 617.1156,71.4375 Q617.4906,71.4375 617.725,71.6953 Q617.9594,71.9531 617.9594,72.5625 L617.9594,74.0156 Q617.9594,74.625 617.725,74.8906 Q617.4906,75.1563 617.1156,75.1563 Q616.7719,75.1563 616.5688,74.9531 Q616.3656,74.7656 616.2563,74.25 Q616.2094,73.8906 616.0219,73.7031 Q615.6938,73.3281 615.0844,73.1094 Q614.475,72.8906 613.85,72.8906 Q613.0844,72.8906 612.4516,73.2188 Q611.8188,73.5469 611.3266,74.2969 Q610.8344,75.0469 610.8344,76.0781 L610.8344,77.1719 Q610.8344,78.4063 611.725,79.2266 Q612.6156,80.0469 614.2094,80.0469 Q615.1469,80.0469 615.8031,79.7969 Q616.1938,79.6406 616.6156,79.2031 Q616.8813,78.9375 617.0297,78.8594 Q617.1781,78.7813 617.3813,78.7813 Q617.7094,78.7813 617.9672,79.0391 Q618.225,79.2969 618.225,79.6406 Q618.225,79.9844 617.8813,80.3906 Q617.3813,80.9688 616.5844,81.2969 Q615.5063,81.75 614.2094,81.75 Q612.6938,81.75 611.4906,81.125 Q610.5063,80.625 609.8188,79.5547 Q609.1313,78.4844 609.1313,77.2031 L609.1313,76.0469 Q609.1313,74.7188 609.7484,73.5703 Q610.3656,72.4219 611.4594,71.8047 Q612.5531,71.1875 613.7875,71.1875 Q614.5219,71.1875 615.1703,71.3516 Q615.8188,71.5156 616.3656,71.875 Z "/>
        <text fill="#000000" font-family="sans-serif" font-size="12" lengthAdjust="spacingAndGlyphs" textLength="27" x="632.4" y="80.9102">User</text>
        <line style="stroke: #A80036; stroke-width: 1.5;" x1="578" x2="683" y1="92" y2="92"/>
        <rect fill="none" height="6" style="stroke: #C82930; stroke-width: 1.0;" width="6" x="585" y="101.418"/>
        <text fill="#000000" font-family="sans-serif" font-size="11" lengthAdjust="spacingAndGlyphs" textLength="57" x="597" y="107.4189">String nome</text>
        <rect fill="none" height="6" style="stroke: #C82930; stroke-width: 1.0;" width="6" x="585" y="115.2539"/>
        <text fill="#000000" font-family="sans-serif" font-size="11" lengthAdjust="spacingAndGlyphs" textLength="55" x="597" y="121.2549">String email</text>
        <rect fill="none" height="6" style="stroke: #C82930; stroke-width: 1.0;" width="6" x="585" y="129.0898"/>
        <text fill="#000000" font-family="sans-serif" font-size="11" lengthAdjust="spacingAndGlyphs" textLength="81" x="597" y="135.0908">String password</text>
        <path d="M459.066,61.257 C494.605,69.545 541.355,80.446 576.901,88.735 " fill="none" style="stroke: #A80036; stroke-width: 1.0;"/>
        <text fill="#000000" font-family="sans-serif" font-size="13" lengthAdjust="spacingAndGlyphs" textLength="43" x="490" y="65.4951">acts as</text>
        <polygon fill="#000000" points="536,58.6758,542,61.6758,536,64.6758,536,58.6758" style="stroke: #000000; stroke-width: 1.0;"/>
        <text fill="#000000" font-family="sans-serif" font-size="13" lengthAdjust="spacingAndGlyphs" textLength="18" x="467.0823" y="77.4016">0,1</text>
        <text fill="#000000" font-family="sans-serif" font-size="13" lengthAdjust="spacingAndGlyphs" textLength="7" x="561.8715" y="101.6897">1</text>
        <path d="M459.066,150.6782 C494.605,140.3191 541.355,126.6925 576.901,116.3314 " fill="none" style="stroke: #A80036; stroke-width: 1.0;"/>
        <text fill="#000000" font-family="sans-serif" font-size="13" lengthAdjust="spacingAndGlyphs" textLength="43" x="490" y="122.4951">acts as</text>
        <polygon fill="#000000" points="536,115.6758,542,118.6758,536,121.6758,536,115.6758" style="stroke: #000000; stroke-width: 1.0;"/>
        <text fill="#000000" font-family="sans-serif" font-size="13" lengthAdjust="spacingAndGlyphs" textLength="18" x="467.0823" y="163.2893">0,1</text>
        <text fill="#000000" font-family="sans-serif" font-size="13" lengthAdjust="spacingAndGlyphs" textLength="7" x="561.8715" y="133.1668">1</text>
        <path d="M256.208,87.945 C285.419,80.274 322.317,70.583 352,62.788 " fill="none" style="stroke: #A80036; stroke-width: 1.0;"/>
        <text fill="#000000" font-family="sans-serif" font-size="13" lengthAdjust="spacingAndGlyphs" textLength="21" x="287" y="68.4951">has</text>
        <polygon fill="#000000" points="311,61.6758,317,64.6758,311,67.6758,311,61.6758" style="stroke: #000000; stroke-width: 1.0;"/>
        <text fill="#000000" font-family="sans-serif" font-size="13" lengthAdjust="spacingAndGlyphs" textLength="7" x="263.831" y="100.7655">1</text>
        <text fill="#000000" font-family="sans-serif" font-size="13" lengthAdjust="spacingAndGlyphs" textLength="23" x="321.0781" y="78.9899">1,...</text>
        <path d="M256.208,117.3183 C285.419,126.9079 322.317,139.0208 352,148.765 " fill="none" style="stroke: #A80036; stroke-width: 1.0;"/>
        <text fill="#000000" font-family="sans-serif" font-size="13" lengthAdjust="spacingAndGlyphs" textLength="21" x="287" y="124.4951">has</text>
        <polygon fill="#000000" points="311,117.6758,317,120.6758,311,123.6758,311,117.6758" style="stroke: #000000; stroke-width: 1.0;"/>
        <text fill="#000000" font-family="sans-serif" font-size="13" lengthAdjust="spacingAndGlyphs" textLength="7" x="263.831" y="134.2694">1</text>
        <text fill="#000000" font-family="sans-serif" font-size="13" lengthAdjust="spacingAndGlyphs" textLength="7" x="336.9844" y="161.0208">1</text>
        <path d="M59.1004,101 C84.3496,101 123.605,101 154.965,101 " fill="none" style="stroke: #A80036; stroke-width: 1.0;"/>
        <text fill="#000000" font-family="sans-serif" font-size="13" lengthAdjust="spacingAndGlyphs" textLength="21" x="90" y="97.4951">has</text>
        <polygon fill="#000000" points="114,90.6758,120,93.6758,114,96.6758,114,90.6758" style="stroke: #000000; stroke-width: 1.0;"/>
        <text fill="#000000" font-family="sans-serif" font-size="13" lengthAdjust="spacingAndGlyphs" textLength="7" x="66.8136" y="116.5902">1</text>
        <text fill="#000000" font-family="sans-serif" font-size="13" lengthAdjust="spacingAndGlyphs" textLength="5" x="141.844" y="115.7596">*</text>
        <!--
@startuml

hide methods
left to right direction

class App {

}

class Organization {
        - String nome
}

class Colaborator {
        - String nome
        - String email
        - String password
}

class Manager {
        - String nome
        - String email
        - String password
}

class User {
        - String nome
        - String email
        - String password
}

Colaborator                "0,1" - - "1"      User                      : acts as >
Manager                    "0,1" - - "1"      User                      : acts as >
Organization                 "1" - - "1,..."  Colaborator               : has >
Organization                 "1" - - "1"      Manager                   : has >
App                          "1" - - "*"      Organization              : has >

@enduml

PlantUML version 2017.11(Wed Apr 19 17:18:59 BST 2017)
(GPL source distribution)
Java Runtime: Java(TM) SE Runtime Environment
JVM: Java HotSpot(TM) 64-Bit Server VM
Java Version: 1.8.0_231-b11
Operating System: Windows 10
OS Version: 10.0
Default Encoding: UTF-8
Language: pt
Country: PT
-->
    </g>
</svg>
