<?xml version="1.0" encoding="UTF-8"?><svg xmlns="http://www.w3.org/2000/svg" xmlns:xlink="http://www.w3.org/1999/xlink" contentScriptType="application/ecmascript" contentStyleType="text/css" height="910px" preserveAspectRatio="none" style="width:786px;height:910px;" version="1.1" viewBox="0 0 786 910" width="786px" zoomAndPan="magnify">
    <defs>
        <filter height="300%" id="f4nhf7r5wczvl" width="300%" x="-1" y="-1">
            <feGaussianBlur result="blurOut" stdDeviation="2.0"/>
            <feColorMatrix in="blurOut" result="blurOut2" type="matrix" values="0 0 0 0 0 0 0 0 0 0 0 0 0 0 0 0 0 0 .4 0"/>
            <feOffset dx="4.0" dy="4.0" in="blurOut2" result="blurOut3"/>
            <feBlend in="SourceGraphic" in2="blurOut3" mode="normal"/>
        </filter>
    </defs>
    <g>
        <!--class Collaborator-->
        <rect fill="#FEFECE" filter="url(#f4nhf7r5wczvl)" height="131.0156" style="stroke: #A80036; stroke-width: 1.5;" width="194" x="184" y="770"/>
        <ellipse cx="242.75" cy="786" fill="#ADD1B2" rx="11" ry="11" style="stroke: #A80036; stroke-width: 1.0;"/>
        <path d="M245.5156,781.875 Q245.6719,781.6563 245.8594,781.5469 Q246.0469,781.4375 246.2656,781.4375 Q246.6406,781.4375 246.875,781.6953 Q247.1094,781.9531 247.1094,782.5625 L247.1094,784.0156 Q247.1094,784.625 246.875,784.8906 Q246.6406,785.1563 246.2656,785.1563 Q245.9219,785.1563 245.7188,784.9531 Q245.5156,784.7656 245.4063,784.25 Q245.3594,783.8906 245.1719,783.7031 Q244.8438,783.3281 244.2344,783.1094 Q243.625,782.8906 243,782.8906 Q242.2344,782.8906 241.6016,783.2188 Q240.9688,783.5469 240.4766,784.2969 Q239.9844,785.0469 239.9844,786.0781 L239.9844,787.1719 Q239.9844,788.4063 240.875,789.2266 Q241.7656,790.0469 243.3594,790.0469 Q244.2969,790.0469 244.9531,789.7969 Q245.3438,789.6406 245.7656,789.2031 Q246.0313,788.9375 246.1797,788.8594 Q246.3281,788.7813 246.5313,788.7813 Q246.8594,788.7813 247.1172,789.0391 Q247.375,789.2969 247.375,789.6406 Q247.375,789.9844 247.0313,790.3906 Q246.5313,790.9688 245.7344,791.2969 Q244.6563,791.75 243.3594,791.75 Q241.8438,791.75 240.6406,791.125 Q239.6563,790.625 238.9688,789.5547 Q238.2813,788.4844 238.2813,787.2031 L238.2813,786.0469 Q238.2813,784.7188 238.8984,783.5703 Q239.5156,782.4219 240.6094,781.8047 Q241.7031,781.1875 242.9375,781.1875 Q243.6719,781.1875 244.3203,781.3516 Q244.9688,781.5156 245.5156,781.875 Z "/>
        <text fill="#000000" font-family="sans-serif" font-size="12" lengthAdjust="spacingAndGlyphs" textLength="68" x="263.25" y="790.9102">Collaborator</text>
        <line style="stroke: #A80036; stroke-width: 1.5;" x1="185" x2="377" y1="802" y2="802"/>
        <rect fill="none" height="6" style="stroke: #C82930; stroke-width: 1.0;" width="6" x="192" y="811.418"/>
        <text fill="#000000" font-family="sans-serif" font-size="11" lengthAdjust="spacingAndGlyphs" textLength="57" x="204" y="817.4189">String nome</text>
        <rect fill="none" height="6" style="stroke: #C82930; stroke-width: 1.0;" width="6" x="192" y="825.2539"/>
        <text fill="#000000" font-family="sans-serif" font-size="11" lengthAdjust="spacingAndGlyphs" textLength="55" x="204" y="831.2549">String email</text>
        <line style="stroke: #A80036; stroke-width: 1.5;" x1="185" x2="377" y1="837.6719" y2="837.6719"/>
        <text fill="#000000" font-family="sans-serif" font-size="11" lengthAdjust="spacingAndGlyphs" textLength="182" x="190" y="853.0908">Colaborador(nome, email, password )</text>
        <text fill="#000000" font-family="sans-serif" font-size="11" lengthAdjust="spacingAndGlyphs" textLength="81" x="190" y="866.9268">String getNome()</text>
        <text fill="#000000" font-family="sans-serif" font-size="11" lengthAdjust="spacingAndGlyphs" textLength="78" x="190" y="880.7627">String getEmail()</text>
        <text fill="#000000" font-family="sans-serif" font-size="11" lengthAdjust="spacingAndGlyphs" textLength="108" x="190" y="894.5986">String getPassword()}</text>
        <!--class Manager-->
        <rect fill="#FEFECE" filter="url(#f4nhf7r5wczvl)" height="131.0156" style="stroke: #A80036; stroke-width: 1.5;" width="191" x="523.5" y="770"/>
        <ellipse cx="590.75" cy="786" fill="#ADD1B2" rx="11" ry="11" style="stroke: #A80036; stroke-width: 1.0;"/>
        <path d="M593.5156,781.875 Q593.6719,781.6563 593.8594,781.5469 Q594.0469,781.4375 594.2656,781.4375 Q594.6406,781.4375 594.875,781.6953 Q595.1094,781.9531 595.1094,782.5625 L595.1094,784.0156 Q595.1094,784.625 594.875,784.8906 Q594.6406,785.1563 594.2656,785.1563 Q593.9219,785.1563 593.7188,784.9531 Q593.5156,784.7656 593.4063,784.25 Q593.3594,783.8906 593.1719,783.7031 Q592.8438,783.3281 592.2344,783.1094 Q591.625,782.8906 591,782.8906 Q590.2344,782.8906 589.6016,783.2188 Q588.9688,783.5469 588.4766,784.2969 Q587.9844,785.0469 587.9844,786.0781 L587.9844,787.1719 Q587.9844,788.4063 588.875,789.2266 Q589.7656,790.0469 591.3594,790.0469 Q592.2969,790.0469 592.9531,789.7969 Q593.3438,789.6406 593.7656,789.2031 Q594.0313,788.9375 594.1797,788.8594 Q594.3281,788.7813 594.5313,788.7813 Q594.8594,788.7813 595.1172,789.0391 Q595.375,789.2969 595.375,789.6406 Q595.375,789.9844 595.0313,790.3906 Q594.5313,790.9688 593.7344,791.2969 Q592.6563,791.75 591.3594,791.75 Q589.8438,791.75 588.6406,791.125 Q587.6563,790.625 586.9688,789.5547 Q586.2813,788.4844 586.2813,787.2031 L586.2813,786.0469 Q586.2813,784.7188 586.8984,783.5703 Q587.5156,782.4219 588.6094,781.8047 Q589.7031,781.1875 590.9375,781.1875 Q591.6719,781.1875 592.3203,781.3516 Q592.9688,781.5156 593.5156,781.875 Z "/>
        <text fill="#000000" font-family="sans-serif" font-size="12" lengthAdjust="spacingAndGlyphs" textLength="48" x="611.25" y="790.9102">Manager</text>
        <line style="stroke: #A80036; stroke-width: 1.5;" x1="524.5" x2="713.5" y1="802" y2="802"/>
        <rect fill="none" height="6" style="stroke: #C82930; stroke-width: 1.0;" width="6" x="531.5" y="811.418"/>
        <text fill="#000000" font-family="sans-serif" font-size="11" lengthAdjust="spacingAndGlyphs" textLength="57" x="543.5" y="817.4189">String name</text>
        <rect fill="none" height="6" style="stroke: #C82930; stroke-width: 1.0;" width="6" x="531.5" y="825.2539"/>
        <text fill="#000000" font-family="sans-serif" font-size="11" lengthAdjust="spacingAndGlyphs" textLength="55" x="543.5" y="831.2549">String email</text>
        <line style="stroke: #A80036; stroke-width: 1.5;" x1="524.5" x2="713.5" y1="837.6719" y2="837.6719"/>
        <text fill="#000000" font-family="sans-serif" font-size="11" lengthAdjust="spacingAndGlyphs" textLength="179" x="529.5" y="853.0908">Colaborador(name, email, password)</text>
        <text fill="#000000" font-family="sans-serif" font-size="11" lengthAdjust="spacingAndGlyphs" textLength="81" x="529.5" y="866.9268">String getName()</text>
        <text fill="#000000" font-family="sans-serif" font-size="11" lengthAdjust="spacingAndGlyphs" textLength="78" x="529.5" y="880.7627">String getEmail()</text>
        <text fill="#000000" font-family="sans-serif" font-size="11" lengthAdjust="spacingAndGlyphs" textLength="104" x="529.5" y="894.5986">String getPassword()</text>
        <!--class Administrator-->
        <rect fill="#FEFECE" filter="url(#f4nhf7r5wczvl)" height="89.5078" style="stroke: #A80036; stroke-width: 1.5;" width="107" x="144.5" y="414.5"/>
        <ellipse cx="160.4" cy="430.5" fill="#ADD1B2" rx="11" ry="11" style="stroke: #A80036; stroke-width: 1.0;"/>
        <path d="M163.1656,426.375 Q163.3219,426.1563 163.5094,426.0469 Q163.6969,425.9375 163.9156,425.9375 Q164.2906,425.9375 164.525,426.1953 Q164.7594,426.4531 164.7594,427.0625 L164.7594,428.5156 Q164.7594,429.125 164.525,429.3906 Q164.2906,429.6563 163.9156,429.6563 Q163.5719,429.6563 163.3688,429.4531 Q163.1656,429.2656 163.0563,428.75 Q163.0094,428.3906 162.8219,428.2031 Q162.4938,427.8281 161.8844,427.6094 Q161.275,427.3906 160.65,427.3906 Q159.8844,427.3906 159.2516,427.7188 Q158.6188,428.0469 158.1266,428.7969 Q157.6344,429.5469 157.6344,430.5781 L157.6344,431.6719 Q157.6344,432.9063 158.525,433.7266 Q159.4156,434.5469 161.0094,434.5469 Q161.9469,434.5469 162.6031,434.2969 Q162.9938,434.1406 163.4156,433.7031 Q163.6813,433.4375 163.8297,433.3594 Q163.9781,433.2813 164.1813,433.2813 Q164.5094,433.2813 164.7672,433.5391 Q165.025,433.7969 165.025,434.1406 Q165.025,434.4844 164.6813,434.8906 Q164.1813,435.4688 163.3844,435.7969 Q162.3063,436.25 161.0094,436.25 Q159.4938,436.25 158.2906,435.625 Q157.3063,435.125 156.6188,434.0547 Q155.9313,432.9844 155.9313,431.7031 L155.9313,430.5469 Q155.9313,429.2188 156.5484,428.0703 Q157.1656,426.9219 158.2594,426.3047 Q159.3531,425.6875 160.5875,425.6875 Q161.3219,425.6875 161.9703,425.8516 Q162.6188,426.0156 163.1656,426.375 Z "/>
        <text fill="#000000" font-family="sans-serif" font-size="12" lengthAdjust="spacingAndGlyphs" textLength="73" x="174.6" y="435.4102">Administrator</text>
        <line style="stroke: #A80036; stroke-width: 1.5;" x1="145.5" x2="250.5" y1="446.5" y2="446.5"/>
        <rect fill="none" height="6" style="stroke: #C82930; stroke-width: 1.0;" width="6" x="152.5" y="455.918"/>
        <text fill="#000000" font-family="sans-serif" font-size="11" lengthAdjust="spacingAndGlyphs" textLength="57" x="164.5" y="461.9189">String nome</text>
        <rect fill="none" height="6" style="stroke: #C82930; stroke-width: 1.0;" width="6" x="152.5" y="469.7539"/>
        <text fill="#000000" font-family="sans-serif" font-size="11" lengthAdjust="spacingAndGlyphs" textLength="55" x="164.5" y="475.7549">String email</text>
        <rect fill="none" height="6" style="stroke: #C82930; stroke-width: 1.0;" width="6" x="152.5" y="483.5898"/>
        <text fill="#000000" font-family="sans-serif" font-size="11" lengthAdjust="spacingAndGlyphs" textLength="81" x="164.5" y="489.5908">String password</text>
        <line style="stroke: #A80036; stroke-width: 1.5;" x1="145.5" x2="250.5" y1="496.0078" y2="496.0078"/>
        <!--class Organization-->
        <rect fill="#FEFECE" filter="url(#f4nhf7r5wczvl)" height="103.3438" style="stroke: #A80036; stroke-width: 1.5;" width="318" x="6" y="589"/>
        <ellipse cx="126.25" cy="605" fill="#ADD1B2" rx="11" ry="11" style="stroke: #A80036; stroke-width: 1.0;"/>
        <path d="M129.0156,600.875 Q129.1719,600.6563 129.3594,600.5469 Q129.5469,600.4375 129.7656,600.4375 Q130.1406,600.4375 130.375,600.6953 Q130.6094,600.9531 130.6094,601.5625 L130.6094,603.0156 Q130.6094,603.625 130.375,603.8906 Q130.1406,604.1563 129.7656,604.1563 Q129.4219,604.1563 129.2188,603.9531 Q129.0156,603.7656 128.9063,603.25 Q128.8594,602.8906 128.6719,602.7031 Q128.3438,602.3281 127.7344,602.1094 Q127.125,601.8906 126.5,601.8906 Q125.7344,601.8906 125.1016,602.2188 Q124.4688,602.5469 123.9766,603.2969 Q123.4844,604.0469 123.4844,605.0781 L123.4844,606.1719 Q123.4844,607.4063 124.375,608.2266 Q125.2656,609.0469 126.8594,609.0469 Q127.7969,609.0469 128.4531,608.7969 Q128.8438,608.6406 129.2656,608.2031 Q129.5313,607.9375 129.6797,607.8594 Q129.8281,607.7813 130.0313,607.7813 Q130.3594,607.7813 130.6172,608.0391 Q130.875,608.2969 130.875,608.6406 Q130.875,608.9844 130.5313,609.3906 Q130.0313,609.9688 129.2344,610.2969 Q128.1563,610.75 126.8594,610.75 Q125.3438,610.75 124.1406,610.125 Q123.1563,609.625 122.4688,608.5547 Q121.7813,607.4844 121.7813,606.2031 L121.7813,605.0469 Q121.7813,603.7188 122.3984,602.5703 Q123.0156,601.4219 124.1094,600.8047 Q125.2031,600.1875 126.4375,600.1875 Q127.1719,600.1875 127.8203,600.3516 Q128.4688,600.5156 129.0156,600.875 Z "/>
        <text fill="#000000" font-family="sans-serif" font-size="12" lengthAdjust="spacingAndGlyphs" textLength="69" x="146.75" y="609.9102">Organization</text>
        <line style="stroke: #A80036; stroke-width: 1.5;" x1="7" x2="323" y1="621" y2="621"/>
        <rect fill="none" height="6" style="stroke: #C82930; stroke-width: 1.0;" width="6" x="14" y="630.418"/>
        <text fill="#000000" font-family="sans-serif" font-size="11" lengthAdjust="spacingAndGlyphs" textLength="57" x="26" y="636.4189">String name</text>
        <line style="stroke: #A80036; stroke-width: 1.5;" x1="7" x2="323" y1="642.8359" y2="642.8359"/>
        <ellipse cx="17" cy="655.2539" fill="#84BE84" rx="3" ry="3" style="stroke: #038048; stroke-width: 1.0;"/>
        <text fill="#000000" font-family="sans-serif" font-size="11" lengthAdjust="spacingAndGlyphs" textLength="292" x="26" y="658.2549">Organizacao(name, managerColaborador ,otherCollaborator)</text>
        <text fill="#000000" font-family="sans-serif" font-size="11" lengthAdjust="spacingAndGlyphs" text-decoration="underline" textLength="231" x="26" y="672.0908">Manager novoManager(nome, email, password)</text>
        <line style="stroke: #000000; stroke-width: 1.0;" x1="26" x2="257" y1="674.0908" y2="674.0908"/>
        <text fill="#000000" font-family="sans-serif" font-size="11" lengthAdjust="spacingAndGlyphs" text-decoration="underline" textLength="265" x="26" y="685.9268">Colaborador novoColaborador(nome, email, password)</text>
        <line style="stroke: #000000; stroke-width: 1.0;" x1="26" x2="291" y1="687.9268" y2="687.9268"/>
        <!--class App-->
        <rect fill="#FEFECE" filter="url(#f4nhf7r5wczvl)" height="75.6719" style="stroke: #A80036; stroke-width: 1.5;" width="242" x="144" y="254"/>
        <ellipse cx="250.25" cy="270" fill="#ADD1B2" rx="11" ry="11" style="stroke: #A80036; stroke-width: 1.0;"/>
        <path d="M253.0156,265.875 Q253.1719,265.6563 253.3594,265.5469 Q253.5469,265.4375 253.7656,265.4375 Q254.1406,265.4375 254.375,265.6953 Q254.6094,265.9531 254.6094,266.5625 L254.6094,268.0156 Q254.6094,268.625 254.375,268.8906 Q254.1406,269.1563 253.7656,269.1563 Q253.4219,269.1563 253.2188,268.9531 Q253.0156,268.7656 252.9063,268.25 Q252.8594,267.8906 252.6719,267.7031 Q252.3438,267.3281 251.7344,267.1094 Q251.125,266.8906 250.5,266.8906 Q249.7344,266.8906 249.1016,267.2188 Q248.4688,267.5469 247.9766,268.2969 Q247.4844,269.0469 247.4844,270.0781 L247.4844,271.1719 Q247.4844,272.4063 248.375,273.2266 Q249.2656,274.0469 250.8594,274.0469 Q251.7969,274.0469 252.4531,273.7969 Q252.8438,273.6406 253.2656,273.2031 Q253.5313,272.9375 253.6797,272.8594 Q253.8281,272.7813 254.0313,272.7813 Q254.3594,272.7813 254.6172,273.0391 Q254.875,273.2969 254.875,273.6406 Q254.875,273.9844 254.5313,274.3906 Q254.0313,274.9688 253.2344,275.2969 Q252.1563,275.75 250.8594,275.75 Q249.3438,275.75 248.1406,275.125 Q247.1563,274.625 246.4688,273.5547 Q245.7813,272.4844 245.7813,271.2031 L245.7813,270.0469 Q245.7813,268.7188 246.3984,267.5703 Q247.0156,266.4219 248.1094,265.8047 Q249.2031,265.1875 250.4375,265.1875 Q251.1719,265.1875 251.8203,265.3516 Q252.4688,265.5156 253.0156,265.875 Z "/>
        <text fill="#000000" font-family="sans-serif" font-size="12" lengthAdjust="spacingAndGlyphs" textLength="21" x="270.75" y="274.9102">App</text>
        <line style="stroke: #A80036; stroke-width: 1.5;" x1="145" x2="385" y1="286" y2="286"/>
        <line style="stroke: #A80036; stroke-width: 1.5;" x1="145" x2="385" y1="294" y2="294"/>
        <ellipse cx="155" cy="306.418" fill="#84BE84" rx="3" ry="3" style="stroke: #038048; stroke-width: 1.0;"/>
        <text fill="#000000" font-family="sans-serif" font-size="11" lengthAdjust="spacingAndGlyphs" textLength="208" x="164" y="309.4189">RegistOrganization getRegistOrganization()</text>
        <ellipse cx="155" cy="320.2539" fill="#84BE84" rx="3" ry="3" style="stroke: #038048; stroke-width: 1.0;"/>
        <text fill="#000000" font-family="sans-serif" font-size="11" lengthAdjust="spacingAndGlyphs" textLength="216" x="164" y="323.2549">AutorizacaoFacade getAutorizacaoFacade()</text>
        <!--class RegistOrganization-->
        <rect fill="#FEFECE" filter="url(#f4nhf7r5wczvl)" height="103.3438" style="stroke: #A80036; stroke-width: 1.5;" width="491" x="286.5" y="408"/>
        <ellipse cx="475.25" cy="424" fill="#ADD1B2" rx="11" ry="11" style="stroke: #A80036; stroke-width: 1.0;"/>
        <path d="M478.0156,419.875 Q478.1719,419.6563 478.3594,419.5469 Q478.5469,419.4375 478.7656,419.4375 Q479.1406,419.4375 479.375,419.6953 Q479.6094,419.9531 479.6094,420.5625 L479.6094,422.0156 Q479.6094,422.625 479.375,422.8906 Q479.1406,423.1563 478.7656,423.1563 Q478.4219,423.1563 478.2188,422.9531 Q478.0156,422.7656 477.9063,422.25 Q477.8594,421.8906 477.6719,421.7031 Q477.3438,421.3281 476.7344,421.1094 Q476.125,420.8906 475.5,420.8906 Q474.7344,420.8906 474.1016,421.2188 Q473.4688,421.5469 472.9766,422.2969 Q472.4844,423.0469 472.4844,424.0781 L472.4844,425.1719 Q472.4844,426.4063 473.375,427.2266 Q474.2656,428.0469 475.8594,428.0469 Q476.7969,428.0469 477.4531,427.7969 Q477.8438,427.6406 478.2656,427.2031 Q478.5313,426.9375 478.6797,426.8594 Q478.8281,426.7813 479.0313,426.7813 Q479.3594,426.7813 479.6172,427.0391 Q479.875,427.2969 479.875,427.6406 Q479.875,427.9844 479.5313,428.3906 Q479.0313,428.9688 478.2344,429.2969 Q477.1563,429.75 475.8594,429.75 Q474.3438,429.75 473.1406,429.125 Q472.1563,428.625 471.4688,427.5547 Q470.7813,426.4844 470.7813,425.2031 L470.7813,424.0469 Q470.7813,422.7188 471.3984,421.5703 Q472.0156,420.4219 473.1094,419.8047 Q474.2031,419.1875 475.4375,419.1875 Q476.1719,419.1875 476.8203,419.3516 Q477.4688,419.5156 478.0156,419.875 Z "/>
        <text fill="#000000" font-family="sans-serif" font-size="12" lengthAdjust="spacingAndGlyphs" textLength="105" x="495.75" y="428.9102">RegistOrganization</text>
        <line style="stroke: #A80036; stroke-width: 1.5;" x1="287.5" x2="776.5" y1="440" y2="440"/>
        <line style="stroke: #A80036; stroke-width: 1.5;" x1="287.5" x2="776.5" y1="448" y2="448"/>
        <ellipse cx="297.5" cy="460.418" fill="#84BE84" rx="3" ry="3" style="stroke: #038048; stroke-width: 1.0;"/>
        <text fill="#000000" font-family="sans-serif" font-size="11" lengthAdjust="spacingAndGlyphs" textLength="465" x="306.5" y="463.4189">Organization novaOrganizacao(name, nameM, emailM, passwordM, nameC, emailC, passwordC)</text>
        <ellipse cx="297.5" cy="474.2539" fill="#84BE84" rx="3" ry="3" style="stroke: #038048; stroke-width: 1.0;"/>
        <text fill="#000000" font-family="sans-serif" font-size="11" lengthAdjust="spacingAndGlyphs" textLength="192" x="306.5" y="477.2549">validatesOrganization(Organization org)</text>
        <ellipse cx="297.5" cy="488.0898" fill="#84BE84" rx="3" ry="3" style="stroke: #038048; stroke-width: 1.0;"/>
        <text fill="#000000" font-family="sans-serif" font-size="11" lengthAdjust="spacingAndGlyphs" textLength="177" x="306.5" y="491.0908">registOrganization(Organizacao org)</text>
        <rect fill="#F24D5C" height="6" style="stroke: #C82930; stroke-width: 1.0;" width="6" x="294.5" y="498.9258"/>
        <text fill="#000000" font-family="sans-serif" font-size="11" lengthAdjust="spacingAndGlyphs" textLength="172" x="306.5" y="504.9268">addOrganization(Organizacao org))</text>
        <!--class AutorizacaoFacade-->
        <rect fill="#FEFECE" filter="url(#f4nhf7r5wczvl)" height="75.6719" style="stroke: #A80036; stroke-width: 1.5;" width="245" x="430.5" y="602.5"/>
        <ellipse cx="496.75" cy="618.5" fill="#ADD1B2" rx="11" ry="11" style="stroke: #A80036; stroke-width: 1.0;"/>
        <path d="M499.5156,614.375 Q499.6719,614.1563 499.8594,614.0469 Q500.0469,613.9375 500.2656,613.9375 Q500.6406,613.9375 500.875,614.1953 Q501.1094,614.4531 501.1094,615.0625 L501.1094,616.5156 Q501.1094,617.125 500.875,617.3906 Q500.6406,617.6563 500.2656,617.6563 Q499.9219,617.6563 499.7188,617.4531 Q499.5156,617.2656 499.4063,616.75 Q499.3594,616.3906 499.1719,616.2031 Q498.8438,615.8281 498.2344,615.6094 Q497.625,615.3906 497,615.3906 Q496.2344,615.3906 495.6016,615.7188 Q494.9688,616.0469 494.4766,616.7969 Q493.9844,617.5469 493.9844,618.5781 L493.9844,619.6719 Q493.9844,620.9063 494.875,621.7266 Q495.7656,622.5469 497.3594,622.5469 Q498.2969,622.5469 498.9531,622.2969 Q499.3438,622.1406 499.7656,621.7031 Q500.0313,621.4375 500.1797,621.3594 Q500.3281,621.2813 500.5313,621.2813 Q500.8594,621.2813 501.1172,621.5391 Q501.375,621.7969 501.375,622.1406 Q501.375,622.4844 501.0313,622.8906 Q500.5313,623.4688 499.7344,623.7969 Q498.6563,624.25 497.3594,624.25 Q495.8438,624.25 494.6406,623.625 Q493.6563,623.125 492.9688,622.0547 Q492.2813,620.9844 492.2813,619.7031 L492.2813,618.5469 Q492.2813,617.2188 492.8984,616.0703 Q493.5156,614.9219 494.6094,614.3047 Q495.7031,613.6875 496.9375,613.6875 Q497.6719,613.6875 498.3203,613.8516 Q498.9688,614.0156 499.5156,614.375 Z "/>
        <text fill="#000000" font-family="sans-serif" font-size="12" lengthAdjust="spacingAndGlyphs" textLength="104" x="517.25" y="623.4102">AutorizacaoFacade</text>
        <line style="stroke: #A80036; stroke-width: 1.5;" x1="431.5" x2="674.5" y1="634.5" y2="634.5"/>
        <line style="stroke: #A80036; stroke-width: 1.5;" x1="431.5" x2="674.5" y1="642.5" y2="642.5"/>
        <rect fill="#F24D5C" height="6" style="stroke: #C82930; stroke-width: 1.0;" width="6" x="438.5" y="651.918"/>
        <text fill="#000000" font-family="sans-serif" font-size="11" lengthAdjust="spacingAndGlyphs" textLength="204" x="450.5" y="657.9189">addManager(nomeM,emailM,passawordM)</text>
        <rect fill="#F24D5C" height="6" style="stroke: #C82930; stroke-width: 1.0;" width="6" x="438.5" y="665.7539"/>
        <text fill="#000000" font-family="sans-serif" font-size="11" lengthAdjust="spacingAndGlyphs" textLength="219" x="450.5" y="671.7549">addCollaborator(nomeM,emailM,passawordC)</text>
        <!--class CreateOrganizationController-->
        <rect fill="#FEFECE" filter="url(#f4nhf7r5wczvl)" height="75.6719" style="stroke: #A80036; stroke-width: 1.5;" width="424" x="53" y="117"/>
        <ellipse cx="180.25" cy="133" fill="#ADD1B2" rx="11" ry="11" style="stroke: #A80036; stroke-width: 1.0;"/>
        <path d="M183.0156,128.875 Q183.1719,128.6563 183.3594,128.5469 Q183.5469,128.4375 183.7656,128.4375 Q184.1406,128.4375 184.375,128.6953 Q184.6094,128.9531 184.6094,129.5625 L184.6094,131.0156 Q184.6094,131.625 184.375,131.8906 Q184.1406,132.1563 183.7656,132.1563 Q183.4219,132.1563 183.2188,131.9531 Q183.0156,131.7656 182.9063,131.25 Q182.8594,130.8906 182.6719,130.7031 Q182.3438,130.3281 181.7344,130.1094 Q181.125,129.8906 180.5,129.8906 Q179.7344,129.8906 179.1016,130.2188 Q178.4688,130.5469 177.9766,131.2969 Q177.4844,132.0469 177.4844,133.0781 L177.4844,134.1719 Q177.4844,135.4063 178.375,136.2266 Q179.2656,137.0469 180.8594,137.0469 Q181.7969,137.0469 182.4531,136.7969 Q182.8438,136.6406 183.2656,136.2031 Q183.5313,135.9375 183.6797,135.8594 Q183.8281,135.7813 184.0313,135.7813 Q184.3594,135.7813 184.6172,136.0391 Q184.875,136.2969 184.875,136.6406 Q184.875,136.9844 184.5313,137.3906 Q184.0313,137.9688 183.2344,138.2969 Q182.1563,138.75 180.8594,138.75 Q179.3438,138.75 178.1406,138.125 Q177.1563,137.625 176.4688,136.5547 Q175.7813,135.4844 175.7813,134.2031 L175.7813,133.0469 Q175.7813,131.7188 176.3984,130.5703 Q177.0156,129.4219 178.1094,128.8047 Q179.2031,128.1875 180.4375,128.1875 Q181.1719,128.1875 181.8203,128.3516 Q182.4688,128.5156 183.0156,128.875 Z "/>
        <text fill="#000000" font-family="sans-serif" font-size="12" lengthAdjust="spacingAndGlyphs" textLength="161" x="200.75" y="137.9102">CreateOrganizationController</text>
        <line style="stroke: #A80036; stroke-width: 1.5;" x1="54" x2="476" y1="149" y2="149"/>
        <line style="stroke: #A80036; stroke-width: 1.5;" x1="54" x2="476" y1="157" y2="157"/>
        <text fill="#000000" font-family="sans-serif" font-size="11" lengthAdjust="spacingAndGlyphs" textLength="398" x="73" y="172.4189">newOrganization(name, nameM, emailM, passwordM, nameC, emailC, passwordC)</text>
        <rect fill="#F24D5C" height="6" style="stroke: #C82930; stroke-width: 1.0;" width="6" x="61" y="180.2539"/>
        <text fill="#000000" font-family="sans-serif" font-size="11" lengthAdjust="spacingAndGlyphs" textLength="85" x="73" y="186.2549">addOrganizaton()</text>
        <!--class CreateOrganizationUI-->
        <rect fill="#FEFECE" filter="url(#f4nhf7r5wczvl)" height="48" style="stroke: #A80036; stroke-width: 1.5;" width="151" x="189.5" y="8"/>
        <ellipse cx="204.5" cy="24" fill="#ADD1B2" rx="11" ry="11" style="stroke: #A80036; stroke-width: 1.0;"/>
        <path d="M207.2656,19.875 Q207.4219,19.6563 207.6094,19.5469 Q207.7969,19.4375 208.0156,19.4375 Q208.3906,19.4375 208.625,19.6953 Q208.8594,19.9531 208.8594,20.5625 L208.8594,22.0156 Q208.8594,22.625 208.625,22.8906 Q208.3906,23.1563 208.0156,23.1563 Q207.6719,23.1563 207.4688,22.9531 Q207.2656,22.7656 207.1563,22.25 Q207.1094,21.8906 206.9219,21.7031 Q206.5938,21.3281 205.9844,21.1094 Q205.375,20.8906 204.75,20.8906 Q203.9844,20.8906 203.3516,21.2188 Q202.7188,21.5469 202.2266,22.2969 Q201.7344,23.0469 201.7344,24.0781 L201.7344,25.1719 Q201.7344,26.4063 202.625,27.2266 Q203.5156,28.0469 205.1094,28.0469 Q206.0469,28.0469 206.7031,27.7969 Q207.0938,27.6406 207.5156,27.2031 Q207.7813,26.9375 207.9297,26.8594 Q208.0781,26.7813 208.2813,26.7813 Q208.6094,26.7813 208.8672,27.0391 Q209.125,27.2969 209.125,27.6406 Q209.125,27.9844 208.7813,28.3906 Q208.2813,28.9688 207.4844,29.2969 Q206.4063,29.75 205.1094,29.75 Q203.5938,29.75 202.3906,29.125 Q201.4063,28.625 200.7188,27.5547 Q200.0313,26.4844 200.0313,25.2031 L200.0313,24.0469 Q200.0313,22.7188 200.6484,21.5703 Q201.2656,20.4219 202.3594,19.8047 Q203.4531,19.1875 204.6875,19.1875 Q205.4219,19.1875 206.0703,19.3516 Q206.7188,19.5156 207.2656,19.875 Z "/>
        <text fill="#000000" font-family="sans-serif" font-size="12" lengthAdjust="spacingAndGlyphs" textLength="119" x="218.5" y="28.9102">CreateOrganizationUI</text>
        <line style="stroke: #A80036; stroke-width: 1.5;" x1="190.5" x2="339.5" y1="40" y2="40"/>
        <line style="stroke: #A80036; stroke-width: 1.5;" x1="190.5" x2="339.5" y1="48" y2="48"/>
        <path d="M265,56.044 C265,71.713 265,92.908 265,111.575 " fill="none" style="stroke: #A80036; stroke-width: 1.0; stroke-dasharray: 7.0,7.0;"/>
        <polygon fill="#A80036" points="265,116.767,269,107.767,265,111.767,261,107.767,265,116.767" style="stroke: #A80036; stroke-width: 1.0;"/>
        <path d="M327.816,193.052 C352.953,209.716 381.081,230.847 403,254 C445.409,298.796 481.637,359.549 504.806,403.179 " fill="none" style="stroke: #A80036; stroke-width: 1.0; stroke-dasharray: 7.0,7.0;"/>
        <polygon fill="#A80036" points="507.147,407.612,506.4824,397.7856,504.8126,403.1904,499.4078,401.5206,507.147,407.612" style="stroke: #A80036; stroke-width: 1.0;"/>
        <path d="M265,193.247 C265,210.363 265,230.752 265,248.469 " fill="none" style="stroke: #A80036; stroke-width: 1.0; stroke-dasharray: 7.0,7.0;"/>
        <polygon fill="#A80036" points="265,253.875,269,244.875,265,248.875,261,244.875,265,253.875" style="stroke: #A80036; stroke-width: 1.0;"/>
        <path d="M186.003,193.028 C162.333,208.346 139.184,228.574 126,254 C70.8549,360.352 111.309,505.295 141.039,583.668 " fill="none" style="stroke: #A80036; stroke-width: 1.0; stroke-dasharray: 7.0,7.0;"/>
        <polygon fill="#A80036" points="142.981,588.733,143.4939,578.8975,141.191,584.0644,136.0241,581.7615,142.981,588.733" style="stroke: #A80036; stroke-width: 1.0;"/>
        <path d="M342.119,511.108 C319.921,519.794 298.063,529.726 278,541 C256.801,552.912 236.024,569.249 218.185,585.195 " fill="none" style="stroke: #A80036; stroke-width: 1.0;"/>
        <polygon fill="#A80036" points="214.189,588.804,223.5494,585.741,217.8999,585.453,218.1879,579.8035,214.189,588.804" style="stroke: #A80036; stroke-width: 1.0;"/>
        <text fill="#000000" font-family="sans-serif" font-size="13" lengthAdjust="spacingAndGlyphs" textLength="71" x="279" y="555.4951">has registed</text>
        <text fill="#000000" font-family="sans-serif" font-size="13" lengthAdjust="spacingAndGlyphs" textLength="7" x="307.9248" y="532.986">1</text>
        <text fill="#000000" font-family="sans-serif" font-size="13" lengthAdjust="spacingAndGlyphs" textLength="5" x="215.4628" y="578.278">*</text>
        <path d="M476.677,511.12 C454.691,533.393 430.517,560.865 413,589 C375.002,650.029 390.442,677.452 355,740 C350.1,748.647 344.458,757.352 338.519,765.794 " fill="none" style="stroke: #A80036; stroke-width: 1.0; stroke-dasharray: 7.0,7.0;"/>
        <polygon fill="#A80036" points="335.582,769.915,344.0626,764.9071,338.4837,765.8431,337.5476,760.2643,335.582,769.915" style="stroke: #A80036; stroke-width: 1.0;"/>
        <path d="M623.337,511.148 C650.92,531.455 677.877,557.581 693,589 C720.362,645.847 694.749,714.992 666.43,765.397 " fill="none" style="stroke: #A80036; stroke-width: 1.0; stroke-dasharray: 7.0,7.0;"/>
        <polygon fill="#A80036" points="663.86,769.909,671.7914,764.0701,666.3356,765.5649,664.8408,760.1091,663.86,769.909" style="stroke: #A80036; stroke-width: 1.0;"/>
        <path d="M537.962,511.315 C541.145,538.447 545.017,571.453 548.035,597.177 " fill="none" style="stroke: #A80036; stroke-width: 1.0; stroke-dasharray: 7.0,7.0;"/>
        <polygon fill="#A80036" points="548.626,602.221,551.5495,592.8161,548.0431,597.2551,543.6041,593.7487,548.626,602.221" style="stroke: #A80036; stroke-width: 1.0;"/>
        <path d="M179.672,692.135 C185.263,707.992 192.401,725.203 201,740 C206.886,750.129 213.892,760.228 221.274,769.851 " fill="none" style="stroke: #A80036; stroke-width: 1.0;"/>
        <text fill="#000000" font-family="sans-serif" font-size="13" lengthAdjust="spacingAndGlyphs" textLength="21" x="202" y="736.4951">has</text>
        <polygon fill="#000000" points="208,745.3516,211,751.3516,214,745.3516,208,745.3516" style="stroke: #000000; stroke-width: 1.0;"/>
        <text fill="#000000" font-family="sans-serif" font-size="13" lengthAdjust="spacingAndGlyphs" textLength="7" x="174.2431" y="714.0168">1</text>
        <text fill="#000000" font-family="sans-serif" font-size="13" lengthAdjust="spacingAndGlyphs" textLength="23" x="190.4837" y="759.3091">1,...</text>
        <path d="M283.987,692.082 C358.6,723.801 453.516,764.151 523.254,793.797 " fill="none" style="stroke: #A80036; stroke-width: 1.0;"/>
        <text fill="#000000" font-family="sans-serif" font-size="13" lengthAdjust="spacingAndGlyphs" textLength="21" x="393" y="736.4951">has</text>
        <polygon fill="#000000" points="417,729.6758,423,732.6758,417,735.6758,417,729.6758" style="stroke: #000000; stroke-width: 1.0;"/>
        <text fill="#000000" font-family="sans-serif" font-size="13" lengthAdjust="spacingAndGlyphs" textLength="7" x="293.2274" y="713.9564">1</text>
        <text fill="#000000" font-family="sans-serif" font-size="13" lengthAdjust="spacingAndGlyphs" textLength="7" x="508.3453" y="787.3448">1</text>
        <path d="M189.843,504.747 C185.147,530.215 179.229,562.318 174.347,588.8 " fill="none" style="stroke: #A80036; stroke-width: 1.0;"/>
        <text fill="#000000" font-family="sans-serif" font-size="13" lengthAdjust="spacingAndGlyphs" textLength="28" x="184" y="555.4951">adds</text>
        <polygon fill="#000000" points="193.5,564.3516,196.5,570.3516,199.5,564.3516,193.5,564.3516" style="stroke: #000000; stroke-width: 1.0;"/>
        <text fill="#000000" font-family="sans-serif" font-size="13" lengthAdjust="spacingAndGlyphs" textLength="7" x="181.2766" y="525.4539">1</text>
        <text fill="#000000" font-family="sans-serif" font-size="13" lengthAdjust="spacingAndGlyphs" textLength="5" x="170.2671" y="578.2735">*</text>
        <path d="M249.964,330.141 C239.855,355.111 226.485,388.137 215.839,414.436 " fill="none" style="stroke: #A80036; stroke-width: 1.0;"/>
        <text fill="#000000" font-family="sans-serif" font-size="13" lengthAdjust="spacingAndGlyphs" textLength="21" x="239" y="374.4951">has</text>
        <polygon fill="#000000" points="245,383.3516,248,389.3516,251,383.3516,245,383.3516" style="stroke: #000000; stroke-width: 1.0;"/>
        <text fill="#000000" font-family="sans-serif" font-size="13" lengthAdjust="spacingAndGlyphs" textLength="7" x="240.0098" y="351.044">1</text>
        <text fill="#000000" font-family="sans-serif" font-size="13" lengthAdjust="spacingAndGlyphs" textLength="5" x="213.2837" y="403.5413">*</text>
        <!--
@startuml

class Collaborator {
  -String nome
  -String email
  Colaborador(nome, email, password )
  String getNome()
  String getEmail()
  String getPassword()}
}

class Manager {
  -String name
  -String email
  Colaborador(name, email, password)
  String getName()
  String getEmail()
  String getPassword()
}

class Administrator {
- String nome
- String email
- String password
}

class Organization {
  -String name
  +Organizacao(name, managerColaborador ,otherCollaborator)
  {static} Manager novoManager(nome, email, password)
  {static} Colaborador novoColaborador(nome, email, password)
}

class App {

  + RegistOrganization getRegistOrganization()
  + AutorizacaoFacade getAutorizacaoFacade()
}

class RegistOrganization {
  +Organization novaOrganizacao(name, nameM, emailM, passwordM, nameC, emailC, passwordC)
  +validatesOrganization(Organization org)
  +registOrganization(Organizacao org)
  -addOrganization(Organizacao org))
}

class AutorizacaoFacade {
   - addManager(nomeM,emailM,passawordM)
   - addCollaborator(nomeM,emailM,passawordC)
}

class CreateOrganizationController {
    newOrganization(name, nameM, emailM, passwordM, nameC, emailC, passwordC)
   - addOrganizaton()
}

class CreateOrganizationUI {
}

CreateOrganizationUI ..> CreateOrganizationController
CreateOrganizationController ..> RegistOrganization
CreateOrganizationController ..> App
CreateOrganizationController ..> Organization
RegistOrganization"1" - -> "*" Organization : has registed
RegistOrganization ..> Collaborator
RegistOrganization ..> Manager
RegistOrganization ..> AutorizacaoFacade

Organization                 "1" - - "1,..."  Collaborator    : has >
Organization                 "1" - - "1"      Manager        : has >
Administrator                "1" - - "*"      Organization   : adds >
App                          "1" - - "*"      Administrator  : has >

@enduml

PlantUML version 2017.11(Wed Apr 19 17:18:59 BST 2017)
(GPL source distribution)
Java Runtime: Java(TM) SE Runtime Environment
JVM: Java HotSpot(TM) 64-Bit Server VM
Java Version: 1.8.0_231-b11
Operating System: Windows 10
OS Version: 10.0
Default Encoding: UTF-8
Language: pt
Country: PT
-->
    </g>
</svg>
