<?xml version="1.0" encoding="UTF-8"?><svg xmlns="http://www.w3.org/2000/svg" xmlns:xlink="http://www.w3.org/1999/xlink" contentScriptType="application/ecmascript" contentStyleType="text/css" height="896px" preserveAspectRatio="none" style="width:860px;height:896px;" version="1.1" viewBox="0 0 860 896" width="860px" zoomAndPan="magnify">
    <defs>
        <filter height="300%" id="foda7cgw3dnut" width="300%" x="-1" y="-1">
            <feGaussianBlur result="blurOut" stdDeviation="2.0"/>
            <feColorMatrix in="blurOut" result="blurOut2" type="matrix" values="0 0 0 0 0 0 0 0 0 0 0 0 0 0 0 0 0 0 .4 0"/>
            <feOffset dx="4.0" dy="4.0" in="blurOut2" result="blurOut3"/>
            <feBlend in="SourceGraphic" in2="blurOut3" mode="normal"/>
        </filter>
    </defs>
    <g>
        <!--class Collaborator-->
        <rect fill="#FEFECE" filter="url(#foda7cgw3dnut)" height="89.5078" style="stroke: #A80036; stroke-width: 1.5;" width="287" x="197.5" y="798"/>
        <ellipse cx="302.75" cy="814" fill="#ADD1B2" rx="11" ry="11" style="stroke: #A80036; stroke-width: 1.0;"/>
        <path d="M305.5156,809.875 Q305.6719,809.6563 305.8594,809.5469 Q306.0469,809.4375 306.2656,809.4375 Q306.6406,809.4375 306.875,809.6953 Q307.1094,809.9531 307.1094,810.5625 L307.1094,812.0156 Q307.1094,812.625 306.875,812.8906 Q306.6406,813.1563 306.2656,813.1563 Q305.9219,813.1563 305.7188,812.9531 Q305.5156,812.7656 305.4063,812.25 Q305.3594,811.8906 305.1719,811.7031 Q304.8438,811.3281 304.2344,811.1094 Q303.625,810.8906 303,810.8906 Q302.2344,810.8906 301.6016,811.2188 Q300.9688,811.5469 300.4766,812.2969 Q299.9844,813.0469 299.9844,814.0781 L299.9844,815.1719 Q299.9844,816.4063 300.875,817.2266 Q301.7656,818.0469 303.3594,818.0469 Q304.2969,818.0469 304.9531,817.7969 Q305.3438,817.6406 305.7656,817.2031 Q306.0313,816.9375 306.1797,816.8594 Q306.3281,816.7813 306.5313,816.7813 Q306.8594,816.7813 307.1172,817.0391 Q307.375,817.2969 307.375,817.6406 Q307.375,817.9844 307.0313,818.3906 Q306.5313,818.9688 305.7344,819.2969 Q304.6563,819.75 303.3594,819.75 Q301.8438,819.75 300.6406,819.125 Q299.6563,818.625 298.9688,817.5547 Q298.2813,816.4844 298.2813,815.2031 L298.2813,814.0469 Q298.2813,812.7188 298.8984,811.5703 Q299.5156,810.4219 300.6094,809.8047 Q301.7031,809.1875 302.9375,809.1875 Q303.6719,809.1875 304.3203,809.3516 Q304.9688,809.5156 305.5156,809.875 Z "/>
        <text fill="#000000" font-family="sans-serif" font-size="12" lengthAdjust="spacingAndGlyphs" textLength="68" x="323.25" y="818.9102">Collaborator</text>
        <line style="stroke: #A80036; stroke-width: 1.5;" x1="198.5" x2="483.5" y1="830" y2="830"/>
        <rect fill="none" height="6" style="stroke: #C82930; stroke-width: 1.0;" width="6" x="205.5" y="839.418"/>
        <text fill="#000000" font-family="sans-serif" font-size="11" lengthAdjust="spacingAndGlyphs" textLength="57" x="217.5" y="845.4189">String name</text>
        <rect fill="none" height="6" style="stroke: #C82930; stroke-width: 1.0;" width="6" x="205.5" y="853.2539"/>
        <text fill="#000000" font-family="sans-serif" font-size="11" lengthAdjust="spacingAndGlyphs" textLength="55" x="217.5" y="859.2549">String email</text>
        <line style="stroke: #A80036; stroke-width: 1.5;" x1="198.5" x2="483.5" y1="865.6719" y2="865.6719"/>
        <text fill="#000000" font-family="sans-serif" font-size="11" lengthAdjust="spacingAndGlyphs" textLength="275" x="203.5" y="881.0908">Colaborador(String name, String email, String password )</text>
        <!--class Manager-->
        <rect fill="#FEFECE" filter="url(#foda7cgw3dnut)" height="89.5078" style="stroke: #A80036; stroke-width: 1.5;" width="267" x="547.5" y="798"/>
        <ellipse cx="652.75" cy="814" fill="#ADD1B2" rx="11" ry="11" style="stroke: #A80036; stroke-width: 1.0;"/>
        <path d="M655.5156,809.875 Q655.6719,809.6563 655.8594,809.5469 Q656.0469,809.4375 656.2656,809.4375 Q656.6406,809.4375 656.875,809.6953 Q657.1094,809.9531 657.1094,810.5625 L657.1094,812.0156 Q657.1094,812.625 656.875,812.8906 Q656.6406,813.1563 656.2656,813.1563 Q655.9219,813.1563 655.7188,812.9531 Q655.5156,812.7656 655.4063,812.25 Q655.3594,811.8906 655.1719,811.7031 Q654.8438,811.3281 654.2344,811.1094 Q653.625,810.8906 653,810.8906 Q652.2344,810.8906 651.6016,811.2188 Q650.9688,811.5469 650.4766,812.2969 Q649.9844,813.0469 649.9844,814.0781 L649.9844,815.1719 Q649.9844,816.4063 650.875,817.2266 Q651.7656,818.0469 653.3594,818.0469 Q654.2969,818.0469 654.9531,817.7969 Q655.3438,817.6406 655.7656,817.2031 Q656.0313,816.9375 656.1797,816.8594 Q656.3281,816.7813 656.5313,816.7813 Q656.8594,816.7813 657.1172,817.0391 Q657.375,817.2969 657.375,817.6406 Q657.375,817.9844 657.0313,818.3906 Q656.5313,818.9688 655.7344,819.2969 Q654.6563,819.75 653.3594,819.75 Q651.8438,819.75 650.6406,819.125 Q649.6563,818.625 648.9688,817.5547 Q648.2813,816.4844 648.2813,815.2031 L648.2813,814.0469 Q648.2813,812.7188 648.8984,811.5703 Q649.5156,810.4219 650.6094,809.8047 Q651.7031,809.1875 652.9375,809.1875 Q653.6719,809.1875 654.3203,809.3516 Q654.9688,809.5156 655.5156,809.875 Z "/>
        <text fill="#000000" font-family="sans-serif" font-size="12" lengthAdjust="spacingAndGlyphs" textLength="48" x="673.25" y="818.9102">Manager</text>
        <line style="stroke: #A80036; stroke-width: 1.5;" x1="548.5" x2="813.5" y1="830" y2="830"/>
        <rect fill="none" height="6" style="stroke: #C82930; stroke-width: 1.0;" width="6" x="555.5" y="839.418"/>
        <text fill="#000000" font-family="sans-serif" font-size="11" lengthAdjust="spacingAndGlyphs" textLength="57" x="567.5" y="845.4189">String name</text>
        <rect fill="none" height="6" style="stroke: #C82930; stroke-width: 1.0;" width="6" x="555.5" y="853.2539"/>
        <text fill="#000000" font-family="sans-serif" font-size="11" lengthAdjust="spacingAndGlyphs" textLength="55" x="567.5" y="859.2549">String email</text>
        <line style="stroke: #A80036; stroke-width: 1.5;" x1="548.5" x2="813.5" y1="865.6719" y2="865.6719"/>
        <text fill="#000000" font-family="sans-serif" font-size="11" lengthAdjust="spacingAndGlyphs" textLength="255" x="553.5" y="881.0908">Manager(String name, String email, String password)</text>
        <!--class Administrator-->
        <rect fill="#FEFECE" filter="url(#foda7cgw3dnut)" height="89.5078" style="stroke: #A80036; stroke-width: 1.5;" width="107" x="196.5" y="428.5"/>
        <ellipse cx="212.4" cy="444.5" fill="#ADD1B2" rx="11" ry="11" style="stroke: #A80036; stroke-width: 1.0;"/>
        <path d="M215.1656,440.375 Q215.3219,440.1563 215.5094,440.0469 Q215.6969,439.9375 215.9156,439.9375 Q216.2906,439.9375 216.525,440.1953 Q216.7594,440.4531 216.7594,441.0625 L216.7594,442.5156 Q216.7594,443.125 216.525,443.3906 Q216.2906,443.6563 215.9156,443.6563 Q215.5719,443.6563 215.3688,443.4531 Q215.1656,443.2656 215.0563,442.75 Q215.0094,442.3906 214.8219,442.2031 Q214.4938,441.8281 213.8844,441.6094 Q213.275,441.3906 212.65,441.3906 Q211.8844,441.3906 211.2516,441.7188 Q210.6188,442.0469 210.1266,442.7969 Q209.6344,443.5469 209.6344,444.5781 L209.6344,445.6719 Q209.6344,446.9063 210.525,447.7266 Q211.4156,448.5469 213.0094,448.5469 Q213.9469,448.5469 214.6031,448.2969 Q214.9938,448.1406 215.4156,447.7031 Q215.6813,447.4375 215.8297,447.3594 Q215.9781,447.2813 216.1813,447.2813 Q216.5094,447.2813 216.7672,447.5391 Q217.025,447.7969 217.025,448.1406 Q217.025,448.4844 216.6813,448.8906 Q216.1813,449.4688 215.3844,449.7969 Q214.3063,450.25 213.0094,450.25 Q211.4938,450.25 210.2906,449.625 Q209.3063,449.125 208.6188,448.0547 Q207.9313,446.9844 207.9313,445.7031 L207.9313,444.5469 Q207.9313,443.2188 208.5484,442.0703 Q209.1656,440.9219 210.2594,440.3047 Q211.3531,439.6875 212.5875,439.6875 Q213.3219,439.6875 213.9703,439.8516 Q214.6188,440.0156 215.1656,440.375 Z "/>
        <text fill="#000000" font-family="sans-serif" font-size="12" lengthAdjust="spacingAndGlyphs" textLength="73" x="226.6" y="449.4102">Administrator</text>
        <line style="stroke: #A80036; stroke-width: 1.5;" x1="197.5" x2="302.5" y1="460.5" y2="460.5"/>
        <rect fill="none" height="6" style="stroke: #C82930; stroke-width: 1.0;" width="6" x="204.5" y="469.918"/>
        <text fill="#000000" font-family="sans-serif" font-size="11" lengthAdjust="spacingAndGlyphs" textLength="57" x="216.5" y="475.9189">String name</text>
        <rect fill="none" height="6" style="stroke: #C82930; stroke-width: 1.0;" width="6" x="204.5" y="483.7539"/>
        <text fill="#000000" font-family="sans-serif" font-size="11" lengthAdjust="spacingAndGlyphs" textLength="55" x="216.5" y="489.7549">String email</text>
        <rect fill="none" height="6" style="stroke: #C82930; stroke-width: 1.0;" width="6" x="204.5" y="497.5898"/>
        <text fill="#000000" font-family="sans-serif" font-size="11" lengthAdjust="spacingAndGlyphs" textLength="81" x="216.5" y="503.5908">String password</text>
        <line style="stroke: #A80036; stroke-width: 1.5;" x1="197.5" x2="302.5" y1="510.0078" y2="510.0078"/>
        <!--class Organization-->
        <rect fill="#FEFECE" filter="url(#foda7cgw3dnut)" height="117.1797" style="stroke: #A80036; stroke-width: 1.5;" width="289" x="124.5" y="603"/>
        <ellipse cx="230.25" cy="619" fill="#ADD1B2" rx="11" ry="11" style="stroke: #A80036; stroke-width: 1.0;"/>
        <path d="M233.0156,614.875 Q233.1719,614.6563 233.3594,614.5469 Q233.5469,614.4375 233.7656,614.4375 Q234.1406,614.4375 234.375,614.6953 Q234.6094,614.9531 234.6094,615.5625 L234.6094,617.0156 Q234.6094,617.625 234.375,617.8906 Q234.1406,618.1563 233.7656,618.1563 Q233.4219,618.1563 233.2188,617.9531 Q233.0156,617.7656 232.9063,617.25 Q232.8594,616.8906 232.6719,616.7031 Q232.3438,616.3281 231.7344,616.1094 Q231.125,615.8906 230.5,615.8906 Q229.7344,615.8906 229.1016,616.2188 Q228.4688,616.5469 227.9766,617.2969 Q227.4844,618.0469 227.4844,619.0781 L227.4844,620.1719 Q227.4844,621.4063 228.375,622.2266 Q229.2656,623.0469 230.8594,623.0469 Q231.7969,623.0469 232.4531,622.7969 Q232.8438,622.6406 233.2656,622.2031 Q233.5313,621.9375 233.6797,621.8594 Q233.8281,621.7813 234.0313,621.7813 Q234.3594,621.7813 234.6172,622.0391 Q234.875,622.2969 234.875,622.6406 Q234.875,622.9844 234.5313,623.3906 Q234.0313,623.9688 233.2344,624.2969 Q232.1563,624.75 230.8594,624.75 Q229.3438,624.75 228.1406,624.125 Q227.1563,623.625 226.4688,622.5547 Q225.7813,621.4844 225.7813,620.2031 L225.7813,619.0469 Q225.7813,617.7188 226.3984,616.5703 Q227.0156,615.4219 228.1094,614.8047 Q229.2031,614.1875 230.4375,614.1875 Q231.1719,614.1875 231.8203,614.3516 Q232.4688,614.5156 233.0156,614.875 Z "/>
        <text fill="#000000" font-family="sans-serif" font-size="12" lengthAdjust="spacingAndGlyphs" textLength="69" x="250.75" y="623.9102">Organization</text>
        <line style="stroke: #A80036; stroke-width: 1.5;" x1="125.5" x2="412.5" y1="635" y2="635"/>
        <rect fill="none" height="6" style="stroke: #C82930; stroke-width: 1.0;" width="6" x="132.5" y="644.418"/>
        <text fill="#000000" font-family="sans-serif" font-size="11" lengthAdjust="spacingAndGlyphs" textLength="57" x="144.5" y="650.4189">String name</text>
        <rect fill="none" height="6" style="stroke: #C82930; stroke-width: 1.0;" width="6" x="132.5" y="658.2539"/>
        <text fill="#000000" font-family="sans-serif" font-size="11" lengthAdjust="spacingAndGlyphs" textLength="55" x="144.5" y="664.2549">String IBAN</text>
        <line style="stroke: #A80036; stroke-width: 1.5;" x1="125.5" x2="412.5" y1="670.6719" y2="670.6719"/>
        <ellipse cx="135.5" cy="683.0898" fill="#84BE84" rx="3" ry="3" style="stroke: #038048; stroke-width: 1.0;"/>
        <text fill="#000000" font-family="sans-serif" font-size="11" lengthAdjust="spacingAndGlyphs" textLength="233" x="144.5" y="686.0908">Organizacao(name, iban, manager ,collaborator)</text>
        <text fill="#000000" font-family="sans-serif" font-size="11" lengthAdjust="spacingAndGlyphs" text-decoration="underline" textLength="229" x="144.5" y="699.9268">Manager newManager(name, email, password)</text>
        <line style="stroke: #000000; stroke-width: 1.0;" x1="144.5" x2="373.5" y1="701.9268" y2="701.9268"/>
        <text fill="#000000" font-family="sans-serif" font-size="11" lengthAdjust="spacingAndGlyphs" text-decoration="underline" textLength="263" x="144.5" y="713.7627">Colaborador newColaborador(name, email, password)</text>
        <line style="stroke: #000000; stroke-width: 1.0;" x1="144.5" x2="407.5" y1="715.7627" y2="715.7627"/>
        <!--class App-->
        <rect fill="#FEFECE" filter="url(#foda7cgw3dnut)" height="75.6719" style="stroke: #A80036; stroke-width: 1.5;" width="242" x="196" y="268"/>
        <ellipse cx="302.25" cy="284" fill="#ADD1B2" rx="11" ry="11" style="stroke: #A80036; stroke-width: 1.0;"/>
        <path d="M305.0156,279.875 Q305.1719,279.6563 305.3594,279.5469 Q305.5469,279.4375 305.7656,279.4375 Q306.1406,279.4375 306.375,279.6953 Q306.6094,279.9531 306.6094,280.5625 L306.6094,282.0156 Q306.6094,282.625 306.375,282.8906 Q306.1406,283.1563 305.7656,283.1563 Q305.4219,283.1563 305.2188,282.9531 Q305.0156,282.7656 304.9063,282.25 Q304.8594,281.8906 304.6719,281.7031 Q304.3438,281.3281 303.7344,281.1094 Q303.125,280.8906 302.5,280.8906 Q301.7344,280.8906 301.1016,281.2188 Q300.4688,281.5469 299.9766,282.2969 Q299.4844,283.0469 299.4844,284.0781 L299.4844,285.1719 Q299.4844,286.4063 300.375,287.2266 Q301.2656,288.0469 302.8594,288.0469 Q303.7969,288.0469 304.4531,287.7969 Q304.8438,287.6406 305.2656,287.2031 Q305.5313,286.9375 305.6797,286.8594 Q305.8281,286.7813 306.0313,286.7813 Q306.3594,286.7813 306.6172,287.0391 Q306.875,287.2969 306.875,287.6406 Q306.875,287.9844 306.5313,288.3906 Q306.0313,288.9688 305.2344,289.2969 Q304.1563,289.75 302.8594,289.75 Q301.3438,289.75 300.1406,289.125 Q299.1563,288.625 298.4688,287.5547 Q297.7813,286.4844 297.7813,285.2031 L297.7813,284.0469 Q297.7813,282.7188 298.3984,281.5703 Q299.0156,280.4219 300.1094,279.8047 Q301.2031,279.1875 302.4375,279.1875 Q303.1719,279.1875 303.8203,279.3516 Q304.4688,279.5156 305.0156,279.875 Z "/>
        <text fill="#000000" font-family="sans-serif" font-size="12" lengthAdjust="spacingAndGlyphs" textLength="21" x="322.75" y="288.9102">App</text>
        <line style="stroke: #A80036; stroke-width: 1.5;" x1="197" x2="437" y1="300" y2="300"/>
        <line style="stroke: #A80036; stroke-width: 1.5;" x1="197" x2="437" y1="308" y2="308"/>
        <ellipse cx="207" cy="320.418" fill="#84BE84" rx="3" ry="3" style="stroke: #038048; stroke-width: 1.0;"/>
        <text fill="#000000" font-family="sans-serif" font-size="11" lengthAdjust="spacingAndGlyphs" textLength="208" x="216" y="323.4189">RegistOrganization getRegistOrganization()</text>
        <ellipse cx="207" cy="334.2539" fill="#84BE84" rx="3" ry="3" style="stroke: #038048; stroke-width: 1.0;"/>
        <text fill="#000000" font-family="sans-serif" font-size="11" lengthAdjust="spacingAndGlyphs" textLength="216" x="216" y="337.2549">AutorizacaoFacade getAutorizacaoFacade()</text>
        <!--class RegistOrganization-->
        <rect fill="#FEFECE" filter="url(#foda7cgw3dnut)" height="103.3438" style="stroke: #A80036; stroke-width: 1.5;" width="513" x="338.5" y="422"/>
        <ellipse cx="538.25" cy="438" fill="#ADD1B2" rx="11" ry="11" style="stroke: #A80036; stroke-width: 1.0;"/>
        <path d="M541.0156,433.875 Q541.1719,433.6563 541.3594,433.5469 Q541.5469,433.4375 541.7656,433.4375 Q542.1406,433.4375 542.375,433.6953 Q542.6094,433.9531 542.6094,434.5625 L542.6094,436.0156 Q542.6094,436.625 542.375,436.8906 Q542.1406,437.1563 541.7656,437.1563 Q541.4219,437.1563 541.2188,436.9531 Q541.0156,436.7656 540.9063,436.25 Q540.8594,435.8906 540.6719,435.7031 Q540.3438,435.3281 539.7344,435.1094 Q539.125,434.8906 538.5,434.8906 Q537.7344,434.8906 537.1016,435.2188 Q536.4688,435.5469 535.9766,436.2969 Q535.4844,437.0469 535.4844,438.0781 L535.4844,439.1719 Q535.4844,440.4063 536.375,441.2266 Q537.2656,442.0469 538.8594,442.0469 Q539.7969,442.0469 540.4531,441.7969 Q540.8438,441.6406 541.2656,441.2031 Q541.5313,440.9375 541.6797,440.8594 Q541.8281,440.7813 542.0313,440.7813 Q542.3594,440.7813 542.6172,441.0391 Q542.875,441.2969 542.875,441.6406 Q542.875,441.9844 542.5313,442.3906 Q542.0313,442.9688 541.2344,443.2969 Q540.1563,443.75 538.8594,443.75 Q537.3438,443.75 536.1406,443.125 Q535.1563,442.625 534.4688,441.5547 Q533.7813,440.4844 533.7813,439.2031 L533.7813,438.0469 Q533.7813,436.7188 534.3984,435.5703 Q535.0156,434.4219 536.1094,433.8047 Q537.2031,433.1875 538.4375,433.1875 Q539.1719,433.1875 539.8203,433.3516 Q540.4688,433.5156 541.0156,433.875 Z "/>
        <text fill="#000000" font-family="sans-serif" font-size="12" lengthAdjust="spacingAndGlyphs" textLength="105" x="558.75" y="442.9102">RegistOrganization</text>
        <line style="stroke: #A80036; stroke-width: 1.5;" x1="339.5" x2="850.5" y1="454" y2="454"/>
        <line style="stroke: #A80036; stroke-width: 1.5;" x1="339.5" x2="850.5" y1="462" y2="462"/>
        <ellipse cx="349.5" cy="474.418" fill="#84BE84" rx="3" ry="3" style="stroke: #038048; stroke-width: 1.0;"/>
        <text fill="#000000" font-family="sans-serif" font-size="11" lengthAdjust="spacingAndGlyphs" textLength="487" x="358.5" y="477.4189">Organization newOrganizacao(String iban, String name, Manager manager, Collaborator collaborator)</text>
        <ellipse cx="349.5" cy="488.2539" fill="#84BE84" rx="3" ry="3" style="stroke: #038048; stroke-width: 1.0;"/>
        <text fill="#000000" font-family="sans-serif" font-size="11" lengthAdjust="spacingAndGlyphs" textLength="192" x="358.5" y="491.2549">validatesOrganization(Organization org)</text>
        <ellipse cx="349.5" cy="502.0898" fill="#84BE84" rx="3" ry="3" style="stroke: #038048; stroke-width: 1.0;"/>
        <text fill="#000000" font-family="sans-serif" font-size="11" lengthAdjust="spacingAndGlyphs" textLength="177" x="358.5" y="505.0908">registOrganization(Organizacao org)</text>
        <rect fill="#F24D5C" height="6" style="stroke: #C82930; stroke-width: 1.0;" width="6" x="346.5" y="512.9258"/>
        <text fill="#000000" font-family="sans-serif" font-size="11" lengthAdjust="spacingAndGlyphs" textLength="172" x="358.5" y="518.9268">addOrganization(Organizacao org))</text>
        <!--class AuthorizationFacade-->
        <rect fill="#FEFECE" filter="url(#foda7cgw3dnut)" height="61.8359" style="stroke: #A80036; stroke-width: 1.5;" width="143" x="427.5" y="8"/>
        <ellipse cx="442.5" cy="24" fill="#ADD1B2" rx="11" ry="11" style="stroke: #A80036; stroke-width: 1.0;"/>
        <path d="M445.2656,19.875 Q445.4219,19.6563 445.6094,19.5469 Q445.7969,19.4375 446.0156,19.4375 Q446.3906,19.4375 446.625,19.6953 Q446.8594,19.9531 446.8594,20.5625 L446.8594,22.0156 Q446.8594,22.625 446.625,22.8906 Q446.3906,23.1563 446.0156,23.1563 Q445.6719,23.1563 445.4688,22.9531 Q445.2656,22.7656 445.1563,22.25 Q445.1094,21.8906 444.9219,21.7031 Q444.5938,21.3281 443.9844,21.1094 Q443.375,20.8906 442.75,20.8906 Q441.9844,20.8906 441.3516,21.2188 Q440.7188,21.5469 440.2266,22.2969 Q439.7344,23.0469 439.7344,24.0781 L439.7344,25.1719 Q439.7344,26.4063 440.625,27.2266 Q441.5156,28.0469 443.1094,28.0469 Q444.0469,28.0469 444.7031,27.7969 Q445.0938,27.6406 445.5156,27.2031 Q445.7813,26.9375 445.9297,26.8594 Q446.0781,26.7813 446.2813,26.7813 Q446.6094,26.7813 446.8672,27.0391 Q447.125,27.2969 447.125,27.6406 Q447.125,27.9844 446.7813,28.3906 Q446.2813,28.9688 445.4844,29.2969 Q444.4063,29.75 443.1094,29.75 Q441.5938,29.75 440.3906,29.125 Q439.4063,28.625 438.7188,27.5547 Q438.0313,26.4844 438.0313,25.2031 L438.0313,24.0469 Q438.0313,22.7188 438.6484,21.5703 Q439.2656,20.4219 440.3594,19.8047 Q441.4531,19.1875 442.6875,19.1875 Q443.4219,19.1875 444.0703,19.3516 Q444.7188,19.5156 445.2656,19.875 Z "/>
        <text fill="#000000" font-family="sans-serif" font-size="12" lengthAdjust="spacingAndGlyphs" textLength="111" x="456.5" y="28.9102">AuthorizationFacade</text>
        <line style="stroke: #A80036; stroke-width: 1.5;" x1="428.5" x2="569.5" y1="40" y2="40"/>
        <line style="stroke: #A80036; stroke-width: 1.5;" x1="428.5" x2="569.5" y1="48" y2="48"/>
        <rect fill="#F24D5C" height="6" style="stroke: #C82930; stroke-width: 1.0;" width="6" x="435.5" y="57.418"/>
        <text fill="#000000" font-family="sans-serif" font-size="11" lengthAdjust="spacingAndGlyphs" textLength="111" x="447.5" y="63.4189">registerUser(User utlz)</text>
        <!--class CreateOrganizationController-->
        <rect fill="#FEFECE" filter="url(#foda7cgw3dnut)" height="75.6719" style="stroke: #A80036; stroke-width: 1.5;" width="622" x="6" y="131"/>
        <ellipse cx="232.75" cy="147" fill="#ADD1B2" rx="11" ry="11" style="stroke: #A80036; stroke-width: 1.0;"/>
        <path d="M235.5156,142.875 Q235.6719,142.6563 235.8594,142.5469 Q236.0469,142.4375 236.2656,142.4375 Q236.6406,142.4375 236.875,142.6953 Q237.1094,142.9531 237.1094,143.5625 L237.1094,145.0156 Q237.1094,145.625 236.875,145.8906 Q236.6406,146.1563 236.2656,146.1563 Q235.9219,146.1563 235.7188,145.9531 Q235.5156,145.7656 235.4063,145.25 Q235.3594,144.8906 235.1719,144.7031 Q234.8438,144.3281 234.2344,144.1094 Q233.625,143.8906 233,143.8906 Q232.2344,143.8906 231.6016,144.2188 Q230.9688,144.5469 230.4766,145.2969 Q229.9844,146.0469 229.9844,147.0781 L229.9844,148.1719 Q229.9844,149.4063 230.875,150.2266 Q231.7656,151.0469 233.3594,151.0469 Q234.2969,151.0469 234.9531,150.7969 Q235.3438,150.6406 235.7656,150.2031 Q236.0313,149.9375 236.1797,149.8594 Q236.3281,149.7813 236.5313,149.7813 Q236.8594,149.7813 237.1172,150.0391 Q237.375,150.2969 237.375,150.6406 Q237.375,150.9844 237.0313,151.3906 Q236.5313,151.9688 235.7344,152.2969 Q234.6563,152.75 233.3594,152.75 Q231.8438,152.75 230.6406,152.125 Q229.6563,151.625 228.9688,150.5547 Q228.2813,149.4844 228.2813,148.2031 L228.2813,147.0469 Q228.2813,145.7188 228.8984,144.5703 Q229.5156,143.4219 230.6094,142.8047 Q231.7031,142.1875 232.9375,142.1875 Q233.6719,142.1875 234.3203,142.3516 Q234.9688,142.5156 235.5156,142.875 Z "/>
        <text fill="#000000" font-family="sans-serif" font-size="12" lengthAdjust="spacingAndGlyphs" textLength="160" x="253.25" y="151.9102">CreateOrganizationController</text>
        <line style="stroke: #A80036; stroke-width: 1.5;" x1="7" x2="627" y1="163" y2="163"/>
        <line style="stroke: #A80036; stroke-width: 1.5;" x1="7" x2="627" y1="171" y2="171"/>
        <text fill="#000000" font-family="sans-serif" font-size="11" lengthAdjust="spacingAndGlyphs" textLength="596" x="26" y="186.4189">newOrganization(newOrganization(String iban, String name, String nameM, String strEmailM, String nameC, String strEmailC)</text>
        <rect fill="#F24D5C" height="6" style="stroke: #C82930; stroke-width: 1.0;" width="6" x="14" y="194.2539"/>
        <text fill="#000000" font-family="sans-serif" font-size="11" lengthAdjust="spacingAndGlyphs" textLength="85" x="26" y="200.2549">addOrganizaton()</text>
        <!--class CreateOrganizationUI-->
        <rect fill="#FEFECE" filter="url(#foda7cgw3dnut)" height="48" style="stroke: #A80036; stroke-width: 1.5;" width="150" x="242" y="15"/>
        <ellipse cx="257" cy="31" fill="#ADD1B2" rx="11" ry="11" style="stroke: #A80036; stroke-width: 1.0;"/>
        <path d="M259.7656,26.875 Q259.9219,26.6563 260.1094,26.5469 Q260.2969,26.4375 260.5156,26.4375 Q260.8906,26.4375 261.125,26.6953 Q261.3594,26.9531 261.3594,27.5625 L261.3594,29.0156 Q261.3594,29.625 261.125,29.8906 Q260.8906,30.1563 260.5156,30.1563 Q260.1719,30.1563 259.9688,29.9531 Q259.7656,29.7656 259.6563,29.25 Q259.6094,28.8906 259.4219,28.7031 Q259.0938,28.3281 258.4844,28.1094 Q257.875,27.8906 257.25,27.8906 Q256.4844,27.8906 255.8516,28.2188 Q255.2188,28.5469 254.7266,29.2969 Q254.2344,30.0469 254.2344,31.0781 L254.2344,32.1719 Q254.2344,33.4063 255.125,34.2266 Q256.0156,35.0469 257.6094,35.0469 Q258.5469,35.0469 259.2031,34.7969 Q259.5938,34.6406 260.0156,34.2031 Q260.2813,33.9375 260.4297,33.8594 Q260.5781,33.7813 260.7813,33.7813 Q261.1094,33.7813 261.3672,34.0391 Q261.625,34.2969 261.625,34.6406 Q261.625,34.9844 261.2813,35.3906 Q260.7813,35.9688 259.9844,36.2969 Q258.9063,36.75 257.6094,36.75 Q256.0938,36.75 254.8906,36.125 Q253.9063,35.625 253.2188,34.5547 Q252.5313,33.4844 252.5313,32.2031 L252.5313,31.0469 Q252.5313,29.7188 253.1484,28.5703 Q253.7656,27.4219 254.8594,26.8047 Q255.9531,26.1875 257.1875,26.1875 Q257.9219,26.1875 258.5703,26.3516 Q259.2188,26.5156 259.7656,26.875 Z "/>
        <text fill="#000000" font-family="sans-serif" font-size="12" lengthAdjust="spacingAndGlyphs" textLength="118" x="271" y="35.9102">CreateOrganizationUI</text>
        <line style="stroke: #A80036; stroke-width: 1.5;" x1="243" x2="391" y1="47" y2="47"/>
        <line style="stroke: #A80036; stroke-width: 1.5;" x1="243" x2="391" y1="55" y2="55"/>
        <!--class AutorizacaoFacade-->
        <rect fill="#FEFECE" filter="url(#foda7cgw3dnut)" height="48" style="stroke: #A80036; stroke-width: 1.5;" width="136" x="520" y="637.5"/>
        <ellipse cx="535" cy="653.5" fill="#ADD1B2" rx="11" ry="11" style="stroke: #A80036; stroke-width: 1.0;"/>
        <path d="M537.7656,649.375 Q537.9219,649.1563 538.1094,649.0469 Q538.2969,648.9375 538.5156,648.9375 Q538.8906,648.9375 539.125,649.1953 Q539.3594,649.4531 539.3594,650.0625 L539.3594,651.5156 Q539.3594,652.125 539.125,652.3906 Q538.8906,652.6563 538.5156,652.6563 Q538.1719,652.6563 537.9688,652.4531 Q537.7656,652.2656 537.6563,651.75 Q537.6094,651.3906 537.4219,651.2031 Q537.0938,650.8281 536.4844,650.6094 Q535.875,650.3906 535.25,650.3906 Q534.4844,650.3906 533.8516,650.7188 Q533.2188,651.0469 532.7266,651.7969 Q532.2344,652.5469 532.2344,653.5781 L532.2344,654.6719 Q532.2344,655.9063 533.125,656.7266 Q534.0156,657.5469 535.6094,657.5469 Q536.5469,657.5469 537.2031,657.2969 Q537.5938,657.1406 538.0156,656.7031 Q538.2813,656.4375 538.4297,656.3594 Q538.5781,656.2813 538.7813,656.2813 Q539.1094,656.2813 539.3672,656.5391 Q539.625,656.7969 539.625,657.1406 Q539.625,657.4844 539.2813,657.8906 Q538.7813,658.4688 537.9844,658.7969 Q536.9063,659.25 535.6094,659.25 Q534.0938,659.25 532.8906,658.625 Q531.9063,658.125 531.2188,657.0547 Q530.5313,655.9844 530.5313,654.7031 L530.5313,653.5469 Q530.5313,652.2188 531.1484,651.0703 Q531.7656,649.9219 532.8594,649.3047 Q533.9531,648.6875 535.1875,648.6875 Q535.9219,648.6875 536.5703,648.8516 Q537.2188,649.0156 537.7656,649.375 Z "/>
        <text fill="#000000" font-family="sans-serif" font-size="12" lengthAdjust="spacingAndGlyphs" textLength="104" x="549" y="658.4102">AutorizacaoFacade</text>
        <line style="stroke: #A80036; stroke-width: 1.5;" x1="521" x2="655" y1="669.5" y2="669.5"/>
        <line style="stroke: #A80036; stroke-width: 1.5;" x1="521" x2="655" y1="677.5" y2="677.5"/>
        <path d="M317,63.18 C317,80.581 317,104.891 317,125.719 " fill="none" style="stroke: #A80036; stroke-width: 1.0; stroke-dasharray: 7.0,7.0;"/>
        <polygon fill="#A80036" points="317,130.933,321,121.933,317,125.933,313,121.933,317,130.933" style="stroke: #A80036; stroke-width: 1.0;"/>
        <path d="M378.695,207.005 C403.936,223.807 432.444,245.053 455,268 C499.323,313.092 538.893,373.801 564.561,417.34 " fill="none" style="stroke: #A80036; stroke-width: 1.0; stroke-dasharray: 7.0,7.0;"/>
        <polygon fill="#A80036" points="567.156,421.763,566.0523,411.9762,564.6261,417.4503,559.152,416.024,567.156,421.763" style="stroke: #A80036; stroke-width: 1.0;"/>
        <path d="M317,207.247 C317,224.363 317,244.752 317,262.469 " fill="none" style="stroke: #A80036; stroke-width: 1.0; stroke-dasharray: 7.0,7.0;"/>
        <polygon fill="#A80036" points="317,267.875,321,258.875,317,262.875,313,258.875,317,267.875" style="stroke: #A80036; stroke-width: 1.0;"/>
        <path d="M238.003,207.028 C214.333,222.346 191.184,242.574 178,268 C164.876,293.31 149.264,427.462 179,525 C186.952,551.085 201.71,576.77 217.009,598.646 " fill="none" style="stroke: #A80036; stroke-width: 1.0; stroke-dasharray: 7.0,7.0;"/>
        <polygon fill="#A80036" points="220.074,602.969,218.1321,593.3135,217.1823,598.89,211.6057,597.9402,220.074,602.969" style="stroke: #A80036; stroke-width: 1.0;"/>
        <path d="M423.997,525.027 C404.437,533.719 385.325,543.675 368,555 C349.782,566.91 332.553,582.845 317.732,598.716 " fill="none" style="stroke: #A80036; stroke-width: 1.0;"/>
        <polygon fill="#A80036" points="314.017,602.747,323.0575,598.8393,317.4053,599.0701,317.1745,593.418,314.017,602.747" style="stroke: #A80036; stroke-width: 1.0;"/>
        <text fill="#000000" font-family="sans-serif" font-size="13" lengthAdjust="spacingAndGlyphs" textLength="71" x="369" y="569.4951">has registed</text>
        <text fill="#000000" font-family="sans-serif" font-size="13" lengthAdjust="spacingAndGlyphs" textLength="7" x="392.4575" y="546.8937">1</text>
        <text fill="#000000" font-family="sans-serif" font-size="13" lengthAdjust="spacingAndGlyphs" textLength="5" x="314.1988" y="592.1171">*</text>
        <path d="M553.1,525.066 C535.635,547.87 516.167,575.758 502,603 C466.204,671.834 491.489,705.885 445,768 C437.797,777.625 428.976,786.493 419.547,794.4939 " fill="none" style="stroke: #A80036; stroke-width: 1.0; stroke-dasharray: 7.0,7.0;"/>
        <polygon fill="#A80036" points="415.471,797.8694,424.9541,795.2103,419.3221,794.6805,419.8519,789.0485,415.471,797.8694" style="stroke: #A80036; stroke-width: 1.0;"/>
        <path d="M634.733,525.281 C650.011,547.792 665.756,575.398 674,603 C692.913,666.321 691.01,743.314 686.867,792.4868 " fill="none" style="stroke: #A80036; stroke-width: 1.0; stroke-dasharray: 7.0,7.0;"/>
        <polygon fill="#A80036" points="686.406,797.7492,691.1762,789.1327,686.8424,792.7683,683.2068,788.4344,686.406,797.7492" style="stroke: #A80036; stroke-width: 1.0;"/>
        <path d="M593.087,525.325 C591.792,559.753 590.128,603.964 589.062,632.271 " fill="none" style="stroke: #A80036; stroke-width: 1.0; stroke-dasharray: 7.0,7.0;"/>
        <polygon fill="#A80036" points="588.871,637.366,593.205,628.522,589.0581,632.3695,585.2106,628.2226,588.871,637.366" style="stroke: #A80036; stroke-width: 1.0;"/>
        <path d="M292.178,720.283 C302.29,745.495 313.956,774.578 323.348,797.9924 " fill="none" style="stroke: #A80036; stroke-width: 1.0;"/>
        <text fill="#000000" font-family="sans-serif" font-size="13" lengthAdjust="spacingAndGlyphs" textLength="21" x="311" y="764.4951">has</text>
        <polygon fill="#000000" points="317,773.3516,320,779.3516,323,773.3516,317,773.3516" style="stroke: #000000; stroke-width: 1.0;"/>
        <text fill="#000000" font-family="sans-serif" font-size="13" lengthAdjust="spacingAndGlyphs" textLength="7" x="287.4533" y="741.5098">1</text>
        <text fill="#000000" font-family="sans-serif" font-size="13" lengthAdjust="spacingAndGlyphs" textLength="23" x="295.7019" y="787.1062">1,...</text>
        <path d="M401.059,720.036 C458.96,745.262 525.846,774.403 579.717,797.8729 " fill="none" style="stroke: #A80036; stroke-width: 1.0;"/>
        <text fill="#000000" font-family="sans-serif" font-size="13" lengthAdjust="spacingAndGlyphs" textLength="21" x="501" y="764.4951">has</text>
        <polygon fill="#000000" points="525,757.6758,531,760.6758,525,763.6758,525,757.6758" style="stroke: #000000; stroke-width: 1.0;"/>
        <text fill="#000000" font-family="sans-serif" font-size="13" lengthAdjust="spacingAndGlyphs" textLength="7" x="409.7271" y="741.6507">1</text>
        <text fill="#000000" font-family="sans-serif" font-size="13" lengthAdjust="spacingAndGlyphs" textLength="7" x="556.6721" y="787.2976">1</text>
        <path d="M254.503,518.579 C257.082,543.825 260.347,575.794 263.126,602.996 " fill="none" style="stroke: #A80036; stroke-width: 1.0;"/>
        <text fill="#000000" font-family="sans-serif" font-size="13" lengthAdjust="spacingAndGlyphs" textLength="28" x="261" y="569.4951">adds</text>
        <polygon fill="#000000" points="270.5,578.3516,273.5,584.3516,276.5,578.3516,270.5,578.3516" style="stroke: #000000; stroke-width: 1.0;"/>
        <text fill="#000000" font-family="sans-serif" font-size="13" lengthAdjust="spacingAndGlyphs" textLength="7" x="247.644" y="539.5977">1</text>
        <text fill="#000000" font-family="sans-serif" font-size="13" lengthAdjust="spacingAndGlyphs" textLength="5" x="257.0531" y="591.9813">*</text>
        <path d="M301.964,344.141 C291.855,369.111 278.485,402.137 267.839,428.436 " fill="none" style="stroke: #A80036; stroke-width: 1.0;"/>
        <text fill="#000000" font-family="sans-serif" font-size="13" lengthAdjust="spacingAndGlyphs" textLength="21" x="291" y="388.4951">has</text>
        <polygon fill="#000000" points="297,397.3516,300,403.3516,303,397.3516,297,397.3516" style="stroke: #000000; stroke-width: 1.0;"/>
        <text fill="#000000" font-family="sans-serif" font-size="13" lengthAdjust="spacingAndGlyphs" textLength="7" x="292.0098" y="365.044">1</text>
        <text fill="#000000" font-family="sans-serif" font-size="13" lengthAdjust="spacingAndGlyphs" textLength="5" x="265.2837" y="417.5413">*</text>
        <!--
@startuml

class Collaborator {
  -String name
  -String email
  Colaborador(String name, String email, String password )
}

class Manager {
  -String name
  -String email
  Manager(String name, String email, String password)
}

class Administrator {
- String name
- String email
- String password
}

class Organization {
  -String name
  -String IBAN
  +Organizacao(name, iban, manager ,collaborator)
  {static} Manager newManager(name, email, password)
  {static} Colaborador newColaborador(name, email, password)
}

class App {

  + RegistOrganization getRegistOrganization()
  + AutorizacaoFacade getAutorizacaoFacade()
}

class RegistOrganization {
  +Organization newOrganizacao(String iban, String name, Manager manager, Collaborator collaborator)
  +validatesOrganization(Organization org)
  +registOrganization(Organizacao org)
  -addOrganization(Organizacao org))
}

class AuthorizationFacade {
   - registerUser(User utlz)
}

class CreateOrganizationController {
    newOrganization(newOrganization(String iban, String name, String nameM, String strEmailM, String nameC, String strEmailC) 
   - addOrganizaton()
}

class CreateOrganizationUI {
}

CreateOrganizationUI ..> CreateOrganizationController
CreateOrganizationController ..> RegistOrganization
CreateOrganizationController ..> App
CreateOrganizationController ..> Organization
RegistOrganization"1" - -> "*" Organization : has registed
RegistOrganization ..> Collaborator
RegistOrganization ..> Manager
RegistOrganization ..> AutorizacaoFacade

Organization                 "1" - - "1,..."  Collaborator    : has >
Organization                 "1" - - "1"      Manager        : has >
Administrator                "1" - - "*"      Organization   : adds >
App                          "1" - - "*"      Administrator  : has >

@enduml

PlantUML version 2017.11(Wed Apr 19 17:18:59 BST 2017)
(GPL source distribution)
Java Runtime: Java(TM) SE Runtime Environment
JVM: Java HotSpot(TM) 64-Bit Server VM
Java Version: 1.8.0_231-b11
Operating System: Windows 10
OS Version: 10.0
Default Encoding: UTF-8
Language: pt
Country: PT
-->
    </g>
</svg>
