<?xml version="1.0" encoding="UTF-8"?><svg xmlns="http://www.w3.org/2000/svg" xmlns:xlink="http://www.w3.org/1999/xlink" contentScriptType="application/ecmascript" contentStyleType="text/css" height="309px" preserveAspectRatio="none" style="width:925px;height:309px;" version="1.1" viewBox="0 0 925 309" width="925px" zoomAndPan="magnify">
    <defs>
        <filter height="300%" id="fdv1dup85re0r" width="300%" x="-1" y="-1">
            <feGaussianBlur result="blurOut" stdDeviation="2.0"/>
            <feColorMatrix in="blurOut" result="blurOut2" type="matrix" values="0 0 0 0 0 0 0 0 0 0 0 0 0 0 0 0 0 0 .4 0"/>
            <feOffset dx="4.0" dy="4.0" in="blurOut2" result="blurOut3"/>
            <feBlend in="SourceGraphic" in2="blurOut3" mode="normal"/>
        </filter>
    </defs>
    <g>
        <!--class App-->
        <rect fill="#FEFECE" filter="url(#fdv1dup85re0r)" height="40" style="stroke: #A80036; stroke-width: 1.5;" width="53" x="6" y="167"/>
        <ellipse cx="21" cy="183" fill="#ADD1B2" rx="11" ry="11" style="stroke: #A80036; stroke-width: 1.0;"/>
        <path d="M23.7656,178.875 Q23.9219,178.6563 24.1094,178.5469 Q24.2969,178.4375 24.5156,178.4375 Q24.8906,178.4375 25.125,178.6953 Q25.3594,178.9531 25.3594,179.5625 L25.3594,181.0156 Q25.3594,181.625 25.125,181.8906 Q24.8906,182.1563 24.5156,182.1563 Q24.1719,182.1563 23.9688,181.9531 Q23.7656,181.7656 23.6563,181.25 Q23.6094,180.8906 23.4219,180.7031 Q23.0938,180.3281 22.4844,180.1094 Q21.875,179.8906 21.25,179.8906 Q20.4844,179.8906 19.8516,180.2188 Q19.2188,180.5469 18.7266,181.2969 Q18.2344,182.0469 18.2344,183.0781 L18.2344,184.1719 Q18.2344,185.4063 19.125,186.2266 Q20.0156,187.0469 21.6094,187.0469 Q22.5469,187.0469 23.2031,186.7969 Q23.5938,186.6406 24.0156,186.2031 Q24.2813,185.9375 24.4297,185.8594 Q24.5781,185.7813 24.7813,185.7813 Q25.1094,185.7813 25.3672,186.0391 Q25.625,186.2969 25.625,186.6406 Q25.625,186.9844 25.2813,187.3906 Q24.7813,187.9688 23.9844,188.2969 Q22.9063,188.75 21.6094,188.75 Q20.0938,188.75 18.8906,188.125 Q17.9063,187.625 17.2188,186.5547 Q16.5313,185.4844 16.5313,184.2031 L16.5313,183.0469 Q16.5313,181.7188 17.1484,180.5703 Q17.7656,179.4219 18.8594,178.8047 Q19.9531,178.1875 21.1875,178.1875 Q21.9219,178.1875 22.5703,178.3516 Q23.2188,178.5156 23.7656,178.875 Z "/>
        <text fill="#000000" font-family="sans-serif" font-size="12" lengthAdjust="spacingAndGlyphs" textLength="21" x="35" y="187.9102">App</text>
        <line style="stroke: #A80036; stroke-width: 1.5;" x1="7" x2="58" y1="199" y2="199"/>
        <!--class Organization-->
        <rect fill="#FEFECE" filter="url(#fdv1dup85re0r)" height="67.6719" style="stroke: #A80036; stroke-width: 1.5;" width="101" x="365" y="120"/>
        <ellipse cx="380" cy="136" fill="#ADD1B2" rx="11" ry="11" style="stroke: #A80036; stroke-width: 1.0;"/>
        <path d="M382.7656,131.875 Q382.9219,131.6563 383.1094,131.5469 Q383.2969,131.4375 383.5156,131.4375 Q383.8906,131.4375 384.125,131.6953 Q384.3594,131.9531 384.3594,132.5625 L384.3594,134.0156 Q384.3594,134.625 384.125,134.8906 Q383.8906,135.1563 383.5156,135.1563 Q383.1719,135.1563 382.9688,134.9531 Q382.7656,134.7656 382.6563,134.25 Q382.6094,133.8906 382.4219,133.7031 Q382.0938,133.3281 381.4844,133.1094 Q380.875,132.8906 380.25,132.8906 Q379.4844,132.8906 378.8516,133.2188 Q378.2188,133.5469 377.7266,134.2969 Q377.2344,135.0469 377.2344,136.0781 L377.2344,137.1719 Q377.2344,138.4063 378.125,139.2266 Q379.0156,140.0469 380.6094,140.0469 Q381.5469,140.0469 382.2031,139.7969 Q382.5938,139.6406 383.0156,139.2031 Q383.2813,138.9375 383.4297,138.8594 Q383.5781,138.7813 383.7813,138.7813 Q384.1094,138.7813 384.3672,139.0391 Q384.625,139.2969 384.625,139.6406 Q384.625,139.9844 384.2813,140.3906 Q383.7813,140.9688 382.9844,141.2969 Q381.9063,141.75 380.6094,141.75 Q379.0938,141.75 377.8906,141.125 Q376.9063,140.625 376.2188,139.5547 Q375.5313,138.4844 375.5313,137.2031 L375.5313,136.0469 Q375.5313,134.7188 376.1484,133.5703 Q376.7656,132.4219 377.8594,131.8047 Q378.9531,131.1875 380.1875,131.1875 Q380.9219,131.1875 381.5703,131.3516 Q382.2188,131.5156 382.7656,131.875 Z "/>
        <text fill="#000000" font-family="sans-serif" font-size="12" lengthAdjust="spacingAndGlyphs" textLength="69" x="394" y="140.9102">Organization</text>
        <line style="stroke: #A80036; stroke-width: 1.5;" x1="366" x2="465" y1="152" y2="152"/>
        <rect fill="none" height="6" style="stroke: #C82930; stroke-width: 1.0;" width="6" x="373" y="161.418"/>
        <text fill="#000000" font-family="sans-serif" font-size="11" lengthAdjust="spacingAndGlyphs" textLength="57" x="385" y="167.4189">String name</text>
        <rect fill="none" height="6" style="stroke: #C82930; stroke-width: 1.0;" width="6" x="373" y="175.2539"/>
        <text fill="#000000" font-family="sans-serif" font-size="11" lengthAdjust="spacingAndGlyphs" textLength="55" x="385" y="181.2549">String IBAN</text>
        <!--class Administrator-->
        <rect fill="#FEFECE" filter="url(#fdv1dup85re0r)" height="81.5078" style="stroke: #A80036; stroke-width: 1.5;" width="107" x="155" y="219"/>
        <ellipse cx="170.9" cy="235" fill="#ADD1B2" rx="11" ry="11" style="stroke: #A80036; stroke-width: 1.0;"/>
        <path d="M173.6656,230.875 Q173.8219,230.6563 174.0094,230.5469 Q174.1969,230.4375 174.4156,230.4375 Q174.7906,230.4375 175.025,230.6953 Q175.2594,230.9531 175.2594,231.5625 L175.2594,233.0156 Q175.2594,233.625 175.025,233.8906 Q174.7906,234.1563 174.4156,234.1563 Q174.0719,234.1563 173.8688,233.9531 Q173.6656,233.7656 173.5563,233.25 Q173.5094,232.8906 173.3219,232.7031 Q172.9938,232.3281 172.3844,232.1094 Q171.775,231.8906 171.15,231.8906 Q170.3844,231.8906 169.7516,232.2188 Q169.1188,232.5469 168.6266,233.2969 Q168.1344,234.0469 168.1344,235.0781 L168.1344,236.1719 Q168.1344,237.4063 169.025,238.2266 Q169.9156,239.0469 171.5094,239.0469 Q172.4469,239.0469 173.1031,238.7969 Q173.4938,238.6406 173.9156,238.2031 Q174.1813,237.9375 174.3297,237.8594 Q174.4781,237.7813 174.6813,237.7813 Q175.0094,237.7813 175.2672,238.0391 Q175.525,238.2969 175.525,238.6406 Q175.525,238.9844 175.1813,239.3906 Q174.6813,239.9688 173.8844,240.2969 Q172.8063,240.75 171.5094,240.75 Q169.9938,240.75 168.7906,240.125 Q167.8063,239.625 167.1188,238.5547 Q166.4313,237.4844 166.4313,236.2031 L166.4313,235.0469 Q166.4313,233.7188 167.0484,232.5703 Q167.6656,231.4219 168.7594,230.8047 Q169.8531,230.1875 171.0875,230.1875 Q171.8219,230.1875 172.4703,230.3516 Q173.1188,230.5156 173.6656,230.875 Z "/>
        <text fill="#000000" font-family="sans-serif" font-size="12" lengthAdjust="spacingAndGlyphs" textLength="73" x="185.1" y="239.9102">Administrator</text>
        <line style="stroke: #A80036; stroke-width: 1.5;" x1="156" x2="261" y1="251" y2="251"/>
        <rect fill="none" height="6" style="stroke: #C82930; stroke-width: 1.0;" width="6" x="163" y="260.418"/>
        <text fill="#000000" font-family="sans-serif" font-size="11" lengthAdjust="spacingAndGlyphs" textLength="57" x="175" y="266.4189">String name</text>
        <rect fill="none" height="6" style="stroke: #C82930; stroke-width: 1.0;" width="6" x="163" y="274.2539"/>
        <text fill="#000000" font-family="sans-serif" font-size="11" lengthAdjust="spacingAndGlyphs" textLength="55" x="175" y="280.2549">String email</text>
        <rect fill="none" height="6" style="stroke: #C82930; stroke-width: 1.0;" width="6" x="163" y="288.0898"/>
        <text fill="#000000" font-family="sans-serif" font-size="11" lengthAdjust="spacingAndGlyphs" textLength="81" x="175" y="294.0908">String password</text>
        <!--class Collaborator-->
        <rect fill="#FEFECE" filter="url(#fdv1dup85re0r)" height="81.5078" style="stroke: #A80036; stroke-width: 1.5;" width="107" x="584" y="8"/>
        <ellipse cx="602.15" cy="24" fill="#ADD1B2" rx="11" ry="11" style="stroke: #A80036; stroke-width: 1.0;"/>
        <path d="M604.9156,19.875 Q605.0719,19.6563 605.2594,19.5469 Q605.4469,19.4375 605.6656,19.4375 Q606.0406,19.4375 606.275,19.6953 Q606.5094,19.9531 606.5094,20.5625 L606.5094,22.0156 Q606.5094,22.625 606.275,22.8906 Q606.0406,23.1563 605.6656,23.1563 Q605.3219,23.1563 605.1188,22.9531 Q604.9156,22.7656 604.8063,22.25 Q604.7594,21.8906 604.5719,21.7031 Q604.2438,21.3281 603.6344,21.1094 Q603.025,20.8906 602.4,20.8906 Q601.6344,20.8906 601.0016,21.2188 Q600.3688,21.5469 599.8766,22.2969 Q599.3844,23.0469 599.3844,24.0781 L599.3844,25.1719 Q599.3844,26.4063 600.275,27.2266 Q601.1656,28.0469 602.7594,28.0469 Q603.6969,28.0469 604.3531,27.7969 Q604.7438,27.6406 605.1656,27.2031 Q605.4313,26.9375 605.5797,26.8594 Q605.7281,26.7813 605.9313,26.7813 Q606.2594,26.7813 606.5172,27.0391 Q606.775,27.2969 606.775,27.6406 Q606.775,27.9844 606.4313,28.3906 Q605.9313,28.9688 605.1344,29.2969 Q604.0563,29.75 602.7594,29.75 Q601.2438,29.75 600.0406,29.125 Q599.0563,28.625 598.3688,27.5547 Q597.6813,26.4844 597.6813,25.2031 L597.6813,24.0469 Q597.6813,22.7188 598.2984,21.5703 Q598.9156,20.4219 600.0094,19.8047 Q601.1031,19.1875 602.3375,19.1875 Q603.0719,19.1875 603.7203,19.3516 Q604.3688,19.5156 604.9156,19.875 Z "/>
        <text fill="#000000" font-family="sans-serif" font-size="12" lengthAdjust="spacingAndGlyphs" textLength="68" x="616.85" y="28.9102">Collaborator</text>
        <line style="stroke: #A80036; stroke-width: 1.5;" x1="585" x2="690" y1="40" y2="40"/>
        <rect fill="none" height="6" style="stroke: #C82930; stroke-width: 1.0;" width="6" x="592" y="49.418"/>
        <text fill="#000000" font-family="sans-serif" font-size="11" lengthAdjust="spacingAndGlyphs" textLength="57" x="604" y="55.4189">String name</text>
        <rect fill="none" height="6" style="stroke: #C82930; stroke-width: 1.0;" width="6" x="592" y="63.2539"/>
        <text fill="#000000" font-family="sans-serif" font-size="11" lengthAdjust="spacingAndGlyphs" textLength="55" x="604" y="69.2549">String email</text>
        <rect fill="none" height="6" style="stroke: #C82930; stroke-width: 1.0;" width="6" x="592" y="77.0898"/>
        <text fill="#000000" font-family="sans-serif" font-size="11" lengthAdjust="spacingAndGlyphs" textLength="81" x="604" y="83.0908">String password</text>
        <!--class Manager-->
        <rect fill="#FEFECE" filter="url(#fdv1dup85re0r)" height="81.5078" style="stroke: #A80036; stroke-width: 1.5;" width="107" x="584" y="125"/>
        <ellipse cx="611.15" cy="141" fill="#ADD1B2" rx="11" ry="11" style="stroke: #A80036; stroke-width: 1.0;"/>
        <path d="M613.9156,136.875 Q614.0719,136.6563 614.2594,136.5469 Q614.4469,136.4375 614.6656,136.4375 Q615.0406,136.4375 615.275,136.6953 Q615.5094,136.9531 615.5094,137.5625 L615.5094,139.0156 Q615.5094,139.625 615.275,139.8906 Q615.0406,140.1563 614.6656,140.1563 Q614.3219,140.1563 614.1188,139.9531 Q613.9156,139.7656 613.8063,139.25 Q613.7594,138.8906 613.5719,138.7031 Q613.2438,138.3281 612.6344,138.1094 Q612.025,137.8906 611.4,137.8906 Q610.6344,137.8906 610.0016,138.2188 Q609.3688,138.5469 608.8766,139.2969 Q608.3844,140.0469 608.3844,141.0781 L608.3844,142.1719 Q608.3844,143.4063 609.275,144.2266 Q610.1656,145.0469 611.7594,145.0469 Q612.6969,145.0469 613.3531,144.7969 Q613.7438,144.6406 614.1656,144.2031 Q614.4313,143.9375 614.5797,143.8594 Q614.7281,143.7813 614.9313,143.7813 Q615.2594,143.7813 615.5172,144.0391 Q615.775,144.2969 615.775,144.6406 Q615.775,144.9844 615.4313,145.3906 Q614.9313,145.9688 614.1344,146.2969 Q613.0563,146.75 611.7594,146.75 Q610.2438,146.75 609.0406,146.125 Q608.0563,145.625 607.3688,144.5547 Q606.6813,143.4844 606.6813,142.2031 L606.6813,141.0469 Q606.6813,139.7188 607.2984,138.5703 Q607.9156,137.4219 609.0094,136.8047 Q610.1031,136.1875 611.3375,136.1875 Q612.0719,136.1875 612.7203,136.3516 Q613.3688,136.5156 613.9156,136.875 Z "/>
        <text fill="#000000" font-family="sans-serif" font-size="12" lengthAdjust="spacingAndGlyphs" textLength="48" x="627.85" y="145.9102">Manager</text>
        <line style="stroke: #A80036; stroke-width: 1.5;" x1="585" x2="690" y1="157" y2="157"/>
        <rect fill="none" height="6" style="stroke: #C82930; stroke-width: 1.0;" width="6" x="592" y="166.418"/>
        <text fill="#000000" font-family="sans-serif" font-size="11" lengthAdjust="spacingAndGlyphs" textLength="57" x="604" y="172.4189">String name</text>
        <rect fill="none" height="6" style="stroke: #C82930; stroke-width: 1.0;" width="6" x="592" y="180.2539"/>
        <text fill="#000000" font-family="sans-serif" font-size="11" lengthAdjust="spacingAndGlyphs" textLength="55" x="604" y="186.2549">String email</text>
        <rect fill="none" height="6" style="stroke: #C82930; stroke-width: 1.0;" width="6" x="592" y="194.0898"/>
        <text fill="#000000" font-family="sans-serif" font-size="11" lengthAdjust="spacingAndGlyphs" textLength="81" x="604" y="200.0908">String password</text>
        <!--class User-->
        <rect fill="#FEFECE" filter="url(#fdv1dup85re0r)" height="81.5078" style="stroke: #A80036; stroke-width: 1.5;" width="107" x="809" y="125"/>
        <ellipse cx="845.6" cy="141" fill="#ADD1B2" rx="11" ry="11" style="stroke: #A80036; stroke-width: 1.0;"/>
        <path d="M848.3656,136.875 Q848.5219,136.6563 848.7094,136.5469 Q848.8969,136.4375 849.1156,136.4375 Q849.4906,136.4375 849.725,136.6953 Q849.9594,136.9531 849.9594,137.5625 L849.9594,139.0156 Q849.9594,139.625 849.725,139.8906 Q849.4906,140.1563 849.1156,140.1563 Q848.7719,140.1563 848.5688,139.9531 Q848.3656,139.7656 848.2563,139.25 Q848.2094,138.8906 848.0219,138.7031 Q847.6938,138.3281 847.0844,138.1094 Q846.475,137.8906 845.85,137.8906 Q845.0844,137.8906 844.4516,138.2188 Q843.8188,138.5469 843.3266,139.2969 Q842.8344,140.0469 842.8344,141.0781 L842.8344,142.1719 Q842.8344,143.4063 843.725,144.2266 Q844.6156,145.0469 846.2094,145.0469 Q847.1469,145.0469 847.8031,144.7969 Q848.1938,144.6406 848.6156,144.2031 Q848.8813,143.9375 849.0297,143.8594 Q849.1781,143.7813 849.3813,143.7813 Q849.7094,143.7813 849.9672,144.0391 Q850.225,144.2969 850.225,144.6406 Q850.225,144.9844 849.8813,145.3906 Q849.3813,145.9688 848.5844,146.2969 Q847.5063,146.75 846.2094,146.75 Q844.6938,146.75 843.4906,146.125 Q842.5063,145.625 841.8188,144.5547 Q841.1313,143.4844 841.1313,142.2031 L841.1313,141.0469 Q841.1313,139.7188 841.7484,138.5703 Q842.3656,137.4219 843.4594,136.8047 Q844.5531,136.1875 845.7875,136.1875 Q846.5219,136.1875 847.1703,136.3516 Q847.8188,136.5156 848.3656,136.875 Z "/>
        <text fill="#000000" font-family="sans-serif" font-size="12" lengthAdjust="spacingAndGlyphs" textLength="27" x="864.4" y="145.9102">User</text>
        <line style="stroke: #A80036; stroke-width: 1.5;" x1="810" x2="915" y1="157" y2="157"/>
        <rect fill="none" height="6" style="stroke: #C82930; stroke-width: 1.0;" width="6" x="817" y="166.418"/>
        <text fill="#000000" font-family="sans-serif" font-size="11" lengthAdjust="spacingAndGlyphs" textLength="57" x="829" y="172.4189">String name</text>
        <rect fill="none" height="6" style="stroke: #C82930; stroke-width: 1.0;" width="6" x="817" y="180.2539"/>
        <text fill="#000000" font-family="sans-serif" font-size="11" lengthAdjust="spacingAndGlyphs" textLength="55" x="829" y="186.2549">String email</text>
        <rect fill="none" height="6" style="stroke: #C82930; stroke-width: 1.0;" width="6" x="817" y="194.0898"/>
        <text fill="#000000" font-family="sans-serif" font-size="11" lengthAdjust="spacingAndGlyphs" textLength="81" x="829" y="200.0908">String password</text>
        <path d="M691.066,76.579 C726.605,95.226 773.355,119.753 808.901,138.403 " fill="none" style="stroke: #A80036; stroke-width: 1.0;"/>
        <text fill="#000000" font-family="sans-serif" font-size="13" lengthAdjust="spacingAndGlyphs" textLength="43" x="722" y="90.4951">acts as</text>
        <polygon fill="#000000" points="768,83.6758,774,86.6758,768,89.6758,768,83.6758" style="stroke: #000000; stroke-width: 1.0;"/>
        <text fill="#000000" font-family="sans-serif" font-size="13" lengthAdjust="spacingAndGlyphs" textLength="18" x="699.0823" y="94.6867">0,1</text>
        <text fill="#000000" font-family="sans-serif" font-size="13" lengthAdjust="spacingAndGlyphs" textLength="7" x="793.8715" y="149.2016">1</text>
        <path d="M691.066,166 C726.605,166 773.355,166 808.901,166 " fill="none" style="stroke: #A80036; stroke-width: 1.0;"/>
        <text fill="#000000" font-family="sans-serif" font-size="13" lengthAdjust="spacingAndGlyphs" textLength="43" x="722" y="162.4951">acts as</text>
        <polygon fill="#000000" points="768,155.6758,774,158.6758,768,161.6758,768,155.6758" style="stroke: #000000; stroke-width: 1.0;"/>
        <text fill="#000000" font-family="sans-serif" font-size="13" lengthAdjust="spacingAndGlyphs" textLength="18" x="699.0823" y="180.5742">0,1</text>
        <text fill="#000000" font-family="sans-serif" font-size="13" lengthAdjust="spacingAndGlyphs" textLength="7" x="793.8715" y="180.6794">1</text>
        <path d="M466.147,130.305 C501.251,113.55 548.234,91.127 583.967,74.073 " fill="none" style="stroke: #A80036; stroke-width: 1.0;"/>
        <text fill="#000000" font-family="sans-serif" font-size="13" lengthAdjust="spacingAndGlyphs" textLength="21" x="508" y="86.4951">has</text>
        <polygon fill="#000000" points="532,79.6758,538,82.6758,532,85.6758,532,79.6758" style="stroke: #000000; stroke-width: 1.0;"/>
        <text fill="#000000" font-family="sans-serif" font-size="13" lengthAdjust="spacingAndGlyphs" textLength="7" x="474.0998" y="141.5448">1</text>
        <text fill="#000000" font-family="sans-serif" font-size="13" lengthAdjust="spacingAndGlyphs" textLength="23" x="553.0411" y="91.6503">1,...</text>
        <path d="M466.147,156.708 C501.251,158.623 548.234,161.185 583.967,163.135 " fill="none" style="stroke: #A80036; stroke-width: 1.0;"/>
        <text fill="#000000" font-family="sans-serif" font-size="13" lengthAdjust="spacingAndGlyphs" textLength="21" x="508" y="155.4951">has</text>
        <polygon fill="#000000" points="532,148.6758,538,151.6758,532,154.6758,532,148.6758" style="stroke: #000000; stroke-width: 1.0;"/>
        <text fill="#000000" font-family="sans-serif" font-size="13" lengthAdjust="spacingAndGlyphs" textLength="7" x="474.0998" y="171.8258">1</text>
        <text fill="#000000" font-family="sans-serif" font-size="13" lengthAdjust="spacingAndGlyphs" textLength="7" x="568.9467" y="177.4116">1</text>
        <path d="M59.0901,184.784 C121.574,179.372 282.799,165.407 364.889,158.297 " fill="none" style="stroke: #A80036; stroke-width: 1.0;"/>
        <text fill="#000000" font-family="sans-serif" font-size="13" lengthAdjust="spacingAndGlyphs" textLength="21" x="191.5" y="164.4951">has</text>
        <polygon fill="#000000" points="215.5,157.6758,221.5,160.6758,215.5,163.6758,215.5,157.6758" style="stroke: #000000; stroke-width: 1.0;"/>
        <text fill="#000000" font-family="sans-serif" font-size="13" lengthAdjust="spacingAndGlyphs" textLength="7" x="67.1768" y="179.5808">1</text>
        <text fill="#000000" font-family="sans-serif" font-size="13" lengthAdjust="spacingAndGlyphs" textLength="5" x="352.0883" y="173.6482">*</text>
        <path d="M59.1743,197.771 C84.2256,208.2814 123.079,224.5822 154.737,237.8638 " fill="none" style="stroke: #A80036; stroke-width: 1.0;"/>
        <text fill="#000000" font-family="sans-serif" font-size="13" lengthAdjust="spacingAndGlyphs" textLength="21" x="90" y="207.4951">has</text>
        <polygon fill="#000000" points="114,200.6758,120,203.6758,114,206.6758,114,200.6758" style="stroke: #000000; stroke-width: 1.0;"/>
        <text fill="#000000" font-family="sans-serif" font-size="13" lengthAdjust="spacingAndGlyphs" textLength="7" x="66.9065" y="216.1212">1</text>
        <text fill="#000000" font-family="sans-serif" font-size="13" lengthAdjust="spacingAndGlyphs" textLength="5" x="141.825" y="249.4303">*</text>
        <path d="M262.026,232.84 C293.701,216.4621 333.804,195.726 364.932,179.63 " fill="none" style="stroke: #A80036; stroke-width: 1.0;"/>
        <text fill="#000000" font-family="sans-serif" font-size="13" lengthAdjust="spacingAndGlyphs" textLength="28" x="293" y="194.4951">adds</text>
        <polygon fill="#000000" points="324,187.6758,330,190.6758,324,193.6758,324,187.6758" style="stroke: #000000; stroke-width: 1.0;"/>
        <text fill="#000000" font-family="sans-serif" font-size="13" lengthAdjust="spacingAndGlyphs" textLength="7" x="270.0453" y="243.7001">1</text>
        <text fill="#000000" font-family="sans-serif" font-size="13" lengthAdjust="spacingAndGlyphs" textLength="5" x="352.1376" y="198.1144">*</text>
        <path d="M262.124,260.6244 C351.323,260.6969 537.481,256.5761 691,225 C731.498,216.6702 775.564,201.2442 808.75,188.255 " fill="none" style="stroke: #A80036; stroke-width: 1.0;"/>
        <text fill="#000000" font-family="sans-serif" font-size="13" lengthAdjust="spacingAndGlyphs" textLength="43" x="497" y="242.4951">acts as</text>
        <polygon fill="#000000" points="543,235.6758,549,238.6758,543,241.6758,543,235.6758" style="stroke: #000000; stroke-width: 1.0;"/>
        <text fill="#000000" font-family="sans-serif" font-size="13" lengthAdjust="spacingAndGlyphs" textLength="18" x="270.1477" y="275.2786">0,1</text>
        <text fill="#000000" font-family="sans-serif" font-size="13" lengthAdjust="spacingAndGlyphs" textLength="7" x="794.057" y="205.8723">1</text>
        <!--
@startuml

hide methods
left to right direction

class App {

}

class Organization {
        - String name
        - String IBAN
}

class Administrator {
        - String name
        - String email
        - String password
}

class Collaborator {
        - String name
        - String email
        - String password
}

class Manager {
        - String name
        - String email
        - String password
}

class User {
        - String name
        - String email
        - String password
}

Collaborator                "0,1" - - "1"      User                      : acts as >
Manager                    "0,1" - - "1"      User                      : acts as >
Organization                 "1" - - "1,..."  Collaborator               : has >
Organization                 "1" - - "1"      Manager                   : has >
App                          "1" - - "*"      Organization              : has >
App                          "1" - - "*"      Administrator             : has >
Administrator                "1" - - "*"      Organization              : adds >
Administrator              "0,1" - - "1"      User                      : acts as >

@enduml

PlantUML version 2017.11(Wed Apr 19 17:18:59 BST 2017)
(GPL source distribution)
Java Runtime: Java(TM) SE Runtime Environment
JVM: Java HotSpot(TM) 64-Bit Server VM
Java Version: 1.8.0_231-b11
Operating System: Windows 10
OS Version: 10.0
Default Encoding: UTF-8
Language: pt
Country: PT
-->
    </g>
</svg>
