<?xml version="1.0" encoding="UTF-8" standalone="no"?><svg xmlns="http://www.w3.org/2000/svg" xmlns:xlink="http://www.w3.org/1999/xlink" contentScriptType="application/ecmascript" contentStyleType="text/css" height="1023px" preserveAspectRatio="none" style="width:828px;height:1023px;" version="1.1" viewBox="0 0 828 1023" width="828px" zoomAndPan="magnify"><defs><filter height="300%" id="f8ocl4du2i0yz" width="300%" x="-1" y="-1"><feGaussianBlur result="blurOut" stdDeviation="2.0"/><feColorMatrix in="blurOut" result="blurOut2" type="matrix" values="0 0 0 0 0 0 0 0 0 0 0 0 0 0 0 0 0 0 .4 0"/><feOffset dx="4.0" dy="4.0" in="blurOut2" result="blurOut3"/><feBlend in="SourceGraphic" in2="blurOut3" mode="normal"/></filter></defs><g><!--MD5=[f483d6e5de34a60207b28a5563be5e8b]
class Collaborator--><rect fill="#FEFECE" filter="url(#f8ocl4du2i0yz)" height="241.7031" id="Collaborator" style="stroke: #A80036; stroke-width: 1.5;" width="194" x="259" y="771"/><ellipse cx="317.75" cy="787" fill="#ADD1B2" rx="11" ry="11" style="stroke: #A80036; stroke-width: 1.0;"/><path d="M320.5156,782.875 Q320.6719,782.6563 320.8594,782.5469 Q321.0469,782.4375 321.2656,782.4375 Q321.6406,782.4375 321.875,782.7031 Q322.1094,782.9531 322.1094,783.5625 L322.1094,785.0156 Q322.1094,785.625 321.875,785.8906 Q321.6406,786.1563 321.2656,786.1563 Q320.9219,786.1563 320.7188,785.9531 Q320.5156,785.7656 320.4063,785.25 Q320.3594,784.8906 320.1719,784.7031 Q319.8438,784.3281 319.2344,784.1094 Q318.625,783.8906 318,783.8906 Q317.2344,783.8906 316.5938,784.2188 Q315.9688,784.5469 315.4688,785.2969 Q314.9844,786.0469 314.9844,787.0781 L314.9844,788.1719 Q314.9844,789.4063 315.875,790.2344 Q316.7656,791.0469 318.3594,791.0469 Q319.2969,791.0469 319.9531,790.7969 Q320.3438,790.6406 320.7656,790.2031 Q321.0313,789.9375 321.1719,789.8594 Q321.3281,789.7813 321.5313,789.7813 Q321.8594,789.7813 322.1094,790.0469 Q322.375,790.2969 322.375,790.6406 Q322.375,790.9844 322.0313,791.3906 Q321.5313,791.9688 320.7344,792.2969 Q319.6563,792.75 318.3594,792.75 Q316.8438,792.75 315.6406,792.125 Q314.6563,791.625 313.9688,790.5625 Q313.2813,789.4844 313.2813,788.2031 L313.2813,787.0469 Q313.2813,785.7188 313.8906,784.5781 Q314.5156,783.4219 315.6094,782.8125 Q316.7031,782.1875 317.9375,782.1875 Q318.6719,782.1875 319.3125,782.3594 Q319.9688,782.5156 320.5156,782.875 Z "/><text fill="#000000" font-family="sans-serif" font-size="12" lengthAdjust="spacingAndGlyphs" textLength="68" x="338.25" y="791.9102">Collaborator</text><line style="stroke: #A80036; stroke-width: 1.5;" x1="260" x2="452" y1="803" y2="803"/><rect fill="none" height="6" style="stroke: #C82930; stroke-width: 1.0;" width="6" x="267" y="811"/><text fill="#000000" font-family="sans-serif" font-size="11" lengthAdjust="spacingAndGlyphs" textLength="57" x="279" y="818.4189">String nome</text><rect fill="none" height="6" style="stroke: #C82930; stroke-width: 1.0;" width="6" x="267" y="824.8359"/><text fill="#000000" font-family="sans-serif" font-size="11" lengthAdjust="spacingAndGlyphs" textLength="55" x="279" y="832.2549">String email</text><text fill="#000000" font-family="sans-serif" font-size="11" lengthAdjust="spacingAndGlyphs" textLength="0" x="282" y="846.0908"/><text fill="#000000" font-family="sans-serif" font-size="11" lengthAdjust="spacingAndGlyphs" textLength="78" x="279" y="859.9268">class Manager {</text><rect fill="none" height="6" style="stroke: #C82930; stroke-width: 1.0;" width="6" x="267" y="866.3438"/><text fill="#000000" font-family="sans-serif" font-size="11" lengthAdjust="spacingAndGlyphs" textLength="57" x="279" y="873.7627">String name</text><rect fill="none" height="6" style="stroke: #C82930; stroke-width: 1.0;" width="6" x="267" y="880.1797"/><text fill="#000000" font-family="sans-serif" font-size="11" lengthAdjust="spacingAndGlyphs" textLength="55" x="279" y="887.5986">String email</text><line style="stroke: #A80036; stroke-width: 1.5;" x1="260" x2="452" y1="894.0156" y2="894.0156"/><text fill="#000000" font-family="sans-serif" font-size="11" lengthAdjust="spacingAndGlyphs" textLength="182" x="265" y="909.4346">Colaborador(nome, email, password )</text><text fill="#000000" font-family="sans-serif" font-size="11" lengthAdjust="spacingAndGlyphs" textLength="81" x="265" y="923.2705">String getNome()</text><text fill="#000000" font-family="sans-serif" font-size="11" lengthAdjust="spacingAndGlyphs" textLength="78" x="265" y="937.1064">String getEmail()</text><text fill="#000000" font-family="sans-serif" font-size="11" lengthAdjust="spacingAndGlyphs" textLength="108" x="265" y="950.9424">String getPassword()}</text><text fill="#000000" font-family="sans-serif" font-size="11" lengthAdjust="spacingAndGlyphs" textLength="179" x="265" y="964.7783">Colaborador(name, email, password)</text><text fill="#000000" font-family="sans-serif" font-size="11" lengthAdjust="spacingAndGlyphs" textLength="81" x="265" y="978.6143">String getName()</text><text fill="#000000" font-family="sans-serif" font-size="11" lengthAdjust="spacingAndGlyphs" textLength="78" x="265" y="992.4502">String getEmail()</text><text fill="#000000" font-family="sans-serif" font-size="11" lengthAdjust="spacingAndGlyphs" textLength="104" x="265" y="1006.2861">String getPassword()</text><!--MD5=[da547346deef918ea16944ba046651ef]
class Administrator--><rect fill="#FEFECE" filter="url(#f8ocl4du2i0yz)" height="89.5078" id="Administrator" style="stroke: #A80036; stroke-width: 1.5;" width="107" x="602.5" y="422"/><ellipse cx="618.4" cy="438" fill="#ADD1B2" rx="11" ry="11" style="stroke: #A80036; stroke-width: 1.0;"/><path d="M621.1656,433.875 Q621.3219,433.6563 621.5094,433.5469 Q621.6969,433.4375 621.9156,433.4375 Q622.2906,433.4375 622.525,433.7031 Q622.7594,433.9531 622.7594,434.5625 L622.7594,436.0156 Q622.7594,436.625 622.525,436.8906 Q622.2906,437.1563 621.9156,437.1563 Q621.5719,437.1563 621.3688,436.9531 Q621.1656,436.7656 621.0563,436.25 Q621.0094,435.8906 620.8219,435.7031 Q620.4938,435.3281 619.8844,435.1094 Q619.275,434.8906 618.65,434.8906 Q617.8844,434.8906 617.2438,435.2188 Q616.6188,435.5469 616.1188,436.2969 Q615.6344,437.0469 615.6344,438.0781 L615.6344,439.1719 Q615.6344,440.4063 616.525,441.2344 Q617.4156,442.0469 619.0094,442.0469 Q619.9469,442.0469 620.6031,441.7969 Q620.9938,441.6406 621.4156,441.2031 Q621.6813,440.9375 621.8219,440.8594 Q621.9781,440.7813 622.1813,440.7813 Q622.5094,440.7813 622.7594,441.0469 Q623.025,441.2969 623.025,441.6406 Q623.025,441.9844 622.6813,442.3906 Q622.1813,442.9688 621.3844,443.2969 Q620.3063,443.75 619.0094,443.75 Q617.4938,443.75 616.2906,443.125 Q615.3063,442.625 614.6188,441.5625 Q613.9313,440.4844 613.9313,439.2031 L613.9313,438.0469 Q613.9313,436.7188 614.5406,435.5781 Q615.1656,434.4219 616.2594,433.8125 Q617.3531,433.1875 618.5875,433.1875 Q619.3219,433.1875 619.9625,433.3594 Q620.6188,433.5156 621.1656,433.875 Z "/><text fill="#000000" font-family="sans-serif" font-size="12" lengthAdjust="spacingAndGlyphs" textLength="73" x="632.6" y="442.9102">Administrator</text><line style="stroke: #A80036; stroke-width: 1.5;" x1="603.5" x2="708.5" y1="454" y2="454"/><rect fill="none" height="6" style="stroke: #C82930; stroke-width: 1.0;" width="6" x="610.5" y="462"/><text fill="#000000" font-family="sans-serif" font-size="11" lengthAdjust="spacingAndGlyphs" textLength="57" x="622.5" y="469.4189">String nome</text><rect fill="none" height="6" style="stroke: #C82930; stroke-width: 1.0;" width="6" x="610.5" y="475.8359"/><text fill="#000000" font-family="sans-serif" font-size="11" lengthAdjust="spacingAndGlyphs" textLength="55" x="622.5" y="483.2549">String email</text><rect fill="none" height="6" style="stroke: #C82930; stroke-width: 1.0;" width="6" x="610.5" y="489.6719"/><text fill="#000000" font-family="sans-serif" font-size="11" lengthAdjust="spacingAndGlyphs" textLength="81" x="622.5" y="497.0908">String password</text><line style="stroke: #A80036; stroke-width: 1.5;" x1="603.5" x2="708.5" y1="503.5078" y2="503.5078"/><!--MD5=[86c7c362de55a38b660185a1328fe18d]
class Organization--><rect fill="#FEFECE" filter="url(#f8ocl4du2i0yz)" height="103.3438" id="Organization" style="stroke: #A80036; stroke-width: 1.5;" width="304" x="364" y="590"/><ellipse cx="477.25" cy="606" fill="#ADD1B2" rx="11" ry="11" style="stroke: #A80036; stroke-width: 1.0;"/><path d="M480.0156,601.875 Q480.1719,601.6563 480.3594,601.5469 Q480.5469,601.4375 480.7656,601.4375 Q481.1406,601.4375 481.375,601.7031 Q481.6094,601.9531 481.6094,602.5625 L481.6094,604.0156 Q481.6094,604.625 481.375,604.8906 Q481.1406,605.1563 480.7656,605.1563 Q480.4219,605.1563 480.2188,604.9531 Q480.0156,604.7656 479.9063,604.25 Q479.8594,603.8906 479.6719,603.7031 Q479.3438,603.3281 478.7344,603.1094 Q478.125,602.8906 477.5,602.8906 Q476.7344,602.8906 476.0938,603.2188 Q475.4688,603.5469 474.9688,604.2969 Q474.4844,605.0469 474.4844,606.0781 L474.4844,607.1719 Q474.4844,608.4063 475.375,609.2344 Q476.2656,610.0469 477.8594,610.0469 Q478.7969,610.0469 479.4531,609.7969 Q479.8438,609.6406 480.2656,609.2031 Q480.5313,608.9375 480.6719,608.8594 Q480.8281,608.7813 481.0313,608.7813 Q481.3594,608.7813 481.6094,609.0469 Q481.875,609.2969 481.875,609.6406 Q481.875,609.9844 481.5313,610.3906 Q481.0313,610.9688 480.2344,611.2969 Q479.1563,611.75 477.8594,611.75 Q476.3438,611.75 475.1406,611.125 Q474.1563,610.625 473.4688,609.5625 Q472.7813,608.4844 472.7813,607.2031 L472.7813,606.0469 Q472.7813,604.7188 473.3906,603.5781 Q474.0156,602.4219 475.1094,601.8125 Q476.2031,601.1875 477.4375,601.1875 Q478.1719,601.1875 478.8125,601.3594 Q479.4688,601.5156 480.0156,601.875 Z "/><text fill="#000000" font-family="sans-serif" font-size="12" lengthAdjust="spacingAndGlyphs" textLength="69" x="497.75" y="610.9102">Organization</text><line style="stroke: #A80036; stroke-width: 1.5;" x1="365" x2="667" y1="622" y2="622"/><rect fill="none" height="6" style="stroke: #C82930; stroke-width: 1.0;" width="6" x="372" y="630"/><text fill="#000000" font-family="sans-serif" font-size="11" lengthAdjust="spacingAndGlyphs" textLength="57" x="384" y="637.4189">String name</text><line style="stroke: #A80036; stroke-width: 1.5;" x1="365" x2="667" y1="643.8359" y2="643.8359"/><text fill="#000000" font-family="sans-serif" font-size="11" lengthAdjust="spacingAndGlyphs" textLength="292" x="370" y="659.2549">Organizacao(name, managerColaborador ,otherCollaborator)</text><text fill="#000000" font-family="sans-serif" font-size="11" lengthAdjust="spacingAndGlyphs" text-decoration="underline" textLength="231" x="370" y="673.0908">Manager novoManager(nome, email, password)</text><text fill="#000000" font-family="sans-serif" font-size="11" lengthAdjust="spacingAndGlyphs" text-decoration="underline" textLength="265" x="370" y="686.9268">Colaborador novoColaborador(nome, email, password)</text><!--MD5=[335f4d9be48430461c68bf6d6fdba145]
class App--><rect fill="#FEFECE" filter="url(#f8ocl4du2i0yz)" height="89.5078" id="App" style="stroke: #A80036; stroke-width: 1.5;" width="492" x="251" y="254"/><ellipse cx="482.25" cy="270" fill="#ADD1B2" rx="11" ry="11" style="stroke: #A80036; stroke-width: 1.0;"/><path d="M485.0156,265.875 Q485.1719,265.6563 485.3594,265.5469 Q485.5469,265.4375 485.7656,265.4375 Q486.1406,265.4375 486.375,265.7031 Q486.6094,265.9531 486.6094,266.5625 L486.6094,268.0156 Q486.6094,268.625 486.375,268.8906 Q486.1406,269.1563 485.7656,269.1563 Q485.4219,269.1563 485.2188,268.9531 Q485.0156,268.7656 484.9063,268.25 Q484.8594,267.8906 484.6719,267.7031 Q484.3438,267.3281 483.7344,267.1094 Q483.125,266.8906 482.5,266.8906 Q481.7344,266.8906 481.0938,267.2188 Q480.4688,267.5469 479.9688,268.2969 Q479.4844,269.0469 479.4844,270.0781 L479.4844,271.1719 Q479.4844,272.4063 480.375,273.2344 Q481.2656,274.0469 482.8594,274.0469 Q483.7969,274.0469 484.4531,273.7969 Q484.8438,273.6406 485.2656,273.2031 Q485.5313,272.9375 485.6719,272.8594 Q485.8281,272.7813 486.0313,272.7813 Q486.3594,272.7813 486.6094,273.0469 Q486.875,273.2969 486.875,273.6406 Q486.875,273.9844 486.5313,274.3906 Q486.0313,274.9688 485.2344,275.2969 Q484.1563,275.75 482.8594,275.75 Q481.3438,275.75 480.1406,275.125 Q479.1563,274.625 478.4688,273.5625 Q477.7813,272.4844 477.7813,271.2031 L477.7813,270.0469 Q477.7813,268.7188 478.3906,267.5781 Q479.0156,266.4219 480.1094,265.8125 Q481.2031,265.1875 482.4375,265.1875 Q483.1719,265.1875 483.8125,265.3594 Q484.4688,265.5156 485.0156,265.875 Z "/><text fill="#000000" font-family="sans-serif" font-size="12" lengthAdjust="spacingAndGlyphs" textLength="21" x="502.75" y="274.9102">App</text><line style="stroke: #A80036; stroke-width: 1.5;" x1="252" x2="742" y1="286" y2="286"/><line style="stroke: #A80036; stroke-width: 1.5;" x1="252" x2="742" y1="294" y2="294"/><text fill="#000000" font-family="sans-serif" font-size="11" lengthAdjust="spacingAndGlyphs" textLength="466" x="271" y="309.4189">Organizacao novaOrganizacao(name, nameM, emailM, passwordM, nameC, emailC, passwordC)</text><text fill="#000000" font-family="sans-serif" font-size="11" lengthAdjust="spacingAndGlyphs" textLength="193" x="271" y="323.2549">validatesOrganization(Organizacao org)</text><rect fill="#F24D5C" height="6" style="stroke: #C82930; stroke-width: 1.0;" width="6" x="259" y="329.6719"/><text fill="#000000" font-family="sans-serif" font-size="11" lengthAdjust="spacingAndGlyphs" textLength="168" x="271" y="337.0908">addOrganization(Organizacao org)</text><!--MD5=[ed5c6b4e01c9b1c9efc043b411d08420]
class AutorizacaoFacade--><rect fill="#FEFECE" filter="url(#f8ocl4du2i0yz)" height="75.6719" id="AutorizacaoFacade" style="stroke: #A80036; stroke-width: 1.5;" width="245" x="322.5" y="429"/><ellipse cx="388.75" cy="445" fill="#ADD1B2" rx="11" ry="11" style="stroke: #A80036; stroke-width: 1.0;"/><path d="M391.5156,440.875 Q391.6719,440.6563 391.8594,440.5469 Q392.0469,440.4375 392.2656,440.4375 Q392.6406,440.4375 392.875,440.7031 Q393.1094,440.9531 393.1094,441.5625 L393.1094,443.0156 Q393.1094,443.625 392.875,443.8906 Q392.6406,444.1563 392.2656,444.1563 Q391.9219,444.1563 391.7188,443.9531 Q391.5156,443.7656 391.4063,443.25 Q391.3594,442.8906 391.1719,442.7031 Q390.8438,442.3281 390.2344,442.1094 Q389.625,441.8906 389,441.8906 Q388.2344,441.8906 387.5938,442.2188 Q386.9688,442.5469 386.4688,443.2969 Q385.9844,444.0469 385.9844,445.0781 L385.9844,446.1719 Q385.9844,447.4063 386.875,448.2344 Q387.7656,449.0469 389.3594,449.0469 Q390.2969,449.0469 390.9531,448.7969 Q391.3438,448.6406 391.7656,448.2031 Q392.0313,447.9375 392.1719,447.8594 Q392.3281,447.7813 392.5313,447.7813 Q392.8594,447.7813 393.1094,448.0469 Q393.375,448.2969 393.375,448.6406 Q393.375,448.9844 393.0313,449.3906 Q392.5313,449.9688 391.7344,450.2969 Q390.6563,450.75 389.3594,450.75 Q387.8438,450.75 386.6406,450.125 Q385.6563,449.625 384.9688,448.5625 Q384.2813,447.4844 384.2813,446.2031 L384.2813,445.0469 Q384.2813,443.7188 384.8906,442.5781 Q385.5156,441.4219 386.6094,440.8125 Q387.7031,440.1875 388.9375,440.1875 Q389.6719,440.1875 390.3125,440.3594 Q390.9688,440.5156 391.5156,440.875 Z "/><text fill="#000000" font-family="sans-serif" font-size="12" lengthAdjust="spacingAndGlyphs" textLength="104" x="409.25" y="449.9102">AutorizacaoFacade</text><line style="stroke: #A80036; stroke-width: 1.5;" x1="323.5" x2="566.5" y1="461" y2="461"/><line style="stroke: #A80036; stroke-width: 1.5;" x1="323.5" x2="566.5" y1="469" y2="469"/><rect fill="#F24D5C" height="6" style="stroke: #C82930; stroke-width: 1.0;" width="6" x="330.5" y="477"/><text fill="#000000" font-family="sans-serif" font-size="11" lengthAdjust="spacingAndGlyphs" textLength="204" x="342.5" y="484.4189">addManager(nomeM,emailM,passawordM)</text><rect fill="#F24D5C" height="6" style="stroke: #C82930; stroke-width: 1.0;" width="6" x="330.5" y="490.8359"/><text fill="#000000" font-family="sans-serif" font-size="11" lengthAdjust="spacingAndGlyphs" textLength="219" x="342.5" y="498.2549">addCollaborator(nomeM,emailM,passawordC)</text><!--MD5=[7d463fb13f17fd06a885dce36e83a96d]
class AddingOrganizationController--><rect fill="#FEFECE" filter="url(#f8ocl4du2i0yz)" height="75.6719" id="AddingOrganizationController" style="stroke: #A80036; stroke-width: 1.5;" width="424" x="6" y="117"/><ellipse cx="133.25" cy="133" fill="#ADD1B2" rx="11" ry="11" style="stroke: #A80036; stroke-width: 1.0;"/><path d="M136.0156,128.875 Q136.1719,128.6563 136.3594,128.5469 Q136.5469,128.4375 136.7656,128.4375 Q137.1406,128.4375 137.375,128.7031 Q137.6094,128.9531 137.6094,129.5625 L137.6094,131.0156 Q137.6094,131.625 137.375,131.8906 Q137.1406,132.1563 136.7656,132.1563 Q136.4219,132.1563 136.2188,131.9531 Q136.0156,131.7656 135.9063,131.25 Q135.8594,130.8906 135.6719,130.7031 Q135.3438,130.3281 134.7344,130.1094 Q134.125,129.8906 133.5,129.8906 Q132.7344,129.8906 132.0938,130.2188 Q131.4688,130.5469 130.9688,131.2969 Q130.4844,132.0469 130.4844,133.0781 L130.4844,134.1719 Q130.4844,135.4063 131.375,136.2344 Q132.2656,137.0469 133.8594,137.0469 Q134.7969,137.0469 135.4531,136.7969 Q135.8438,136.6406 136.2656,136.2031 Q136.5313,135.9375 136.6719,135.8594 Q136.8281,135.7813 137.0313,135.7813 Q137.3594,135.7813 137.6094,136.0469 Q137.875,136.2969 137.875,136.6406 Q137.875,136.9844 137.5313,137.3906 Q137.0313,137.9688 136.2344,138.2969 Q135.1563,138.75 133.8594,138.75 Q132.3438,138.75 131.1406,138.125 Q130.1563,137.625 129.4688,136.5625 Q128.7813,135.4844 128.7813,134.2031 L128.7813,133.0469 Q128.7813,131.7188 129.3906,130.5781 Q130.0156,129.4219 131.1094,128.8125 Q132.2031,128.1875 133.4375,128.1875 Q134.1719,128.1875 134.8125,128.3594 Q135.4688,128.5156 136.0156,128.875 Z "/><text fill="#000000" font-family="sans-serif" font-size="12" lengthAdjust="spacingAndGlyphs" textLength="161" x="153.75" y="137.9102">AddingOrganizationController</text><line style="stroke: #A80036; stroke-width: 1.5;" x1="7" x2="429" y1="149" y2="149"/><line style="stroke: #A80036; stroke-width: 1.5;" x1="7" x2="429" y1="157" y2="157"/><text fill="#000000" font-family="sans-serif" font-size="11" lengthAdjust="spacingAndGlyphs" textLength="398" x="26" y="172.4189">newOrganization(name, nameM, emailM, passwordM, nameC, emailC, passwordC)</text><rect fill="#F24D5C" height="6" style="stroke: #C82930; stroke-width: 1.0;" width="6" x="14" y="178.8359"/><text fill="#000000" font-family="sans-serif" font-size="11" lengthAdjust="spacingAndGlyphs" textLength="85" x="26" y="186.2549">addOrganizaton()</text><!--MD5=[b0c19d169c93509195e7b7c9e59c9100]
class AddingOrganizationUI--><rect fill="#FEFECE" filter="url(#f8ocl4du2i0yz)" height="48" id="AddingOrganizationUI" style="stroke: #A80036; stroke-width: 1.5;" width="151" x="142.5" y="8"/><ellipse cx="157.5" cy="24" fill="#ADD1B2" rx="11" ry="11" style="stroke: #A80036; stroke-width: 1.0;"/><path d="M160.2656,19.875 Q160.4219,19.6563 160.6094,19.5469 Q160.7969,19.4375 161.0156,19.4375 Q161.3906,19.4375 161.625,19.7031 Q161.8594,19.9531 161.8594,20.5625 L161.8594,22.0156 Q161.8594,22.625 161.625,22.8906 Q161.3906,23.1563 161.0156,23.1563 Q160.6719,23.1563 160.4688,22.9531 Q160.2656,22.7656 160.1563,22.25 Q160.1094,21.8906 159.9219,21.7031 Q159.5938,21.3281 158.9844,21.1094 Q158.375,20.8906 157.75,20.8906 Q156.9844,20.8906 156.3438,21.2188 Q155.7188,21.5469 155.2188,22.2969 Q154.7344,23.0469 154.7344,24.0781 L154.7344,25.1719 Q154.7344,26.4063 155.625,27.2344 Q156.5156,28.0469 158.1094,28.0469 Q159.0469,28.0469 159.7031,27.7969 Q160.0938,27.6406 160.5156,27.2031 Q160.7813,26.9375 160.9219,26.8594 Q161.0781,26.7813 161.2813,26.7813 Q161.6094,26.7813 161.8594,27.0469 Q162.125,27.2969 162.125,27.6406 Q162.125,27.9844 161.7813,28.3906 Q161.2813,28.9688 160.4844,29.2969 Q159.4063,29.75 158.1094,29.75 Q156.5938,29.75 155.3906,29.125 Q154.4063,28.625 153.7188,27.5625 Q153.0313,26.4844 153.0313,25.2031 L153.0313,24.0469 Q153.0313,22.7188 153.6406,21.5781 Q154.2656,20.4219 155.3594,19.8125 Q156.4531,19.1875 157.6875,19.1875 Q158.4219,19.1875 159.0625,19.3594 Q159.7188,19.5156 160.2656,19.875 Z "/><text fill="#000000" font-family="sans-serif" font-size="12" lengthAdjust="spacingAndGlyphs" textLength="119" x="171.5" y="28.9102">AddingOrganizationUI</text><line style="stroke: #A80036; stroke-width: 1.5;" x1="143.5" x2="292.5" y1="40" y2="40"/><line style="stroke: #A80036; stroke-width: 1.5;" x1="143.5" x2="292.5" y1="48" y2="48"/><!--MD5=[b24ed8d4ae84bae9290d9aab401637c7]
class Manager--><rect fill="#FEFECE" filter="url(#f8ocl4du2i0yz)" height="48" id="Manager" style="stroke: #A80036; stroke-width: 1.5;" width="80" x="574" y="868"/><ellipse cx="589" cy="884" fill="#ADD1B2" rx="11" ry="11" style="stroke: #A80036; stroke-width: 1.0;"/><path d="M591.7656,879.875 Q591.9219,879.6563 592.1094,879.5469 Q592.2969,879.4375 592.5156,879.4375 Q592.8906,879.4375 593.125,879.7031 Q593.3594,879.9531 593.3594,880.5625 L593.3594,882.0156 Q593.3594,882.625 593.125,882.8906 Q592.8906,883.1563 592.5156,883.1563 Q592.1719,883.1563 591.9688,882.9531 Q591.7656,882.7656 591.6563,882.25 Q591.6094,881.8906 591.4219,881.7031 Q591.0938,881.3281 590.4844,881.1094 Q589.875,880.8906 589.25,880.8906 Q588.4844,880.8906 587.8438,881.2188 Q587.2188,881.5469 586.7188,882.2969 Q586.2344,883.0469 586.2344,884.0781 L586.2344,885.1719 Q586.2344,886.4063 587.125,887.2344 Q588.0156,888.0469 589.6094,888.0469 Q590.5469,888.0469 591.2031,887.7969 Q591.5938,887.6406 592.0156,887.2031 Q592.2813,886.9375 592.4219,886.8594 Q592.5781,886.7813 592.7813,886.7813 Q593.1094,886.7813 593.3594,887.0469 Q593.625,887.2969 593.625,887.6406 Q593.625,887.9844 593.2813,888.3906 Q592.7813,888.9688 591.9844,889.2969 Q590.9063,889.75 589.6094,889.75 Q588.0938,889.75 586.8906,889.125 Q585.9063,888.625 585.2188,887.5625 Q584.5313,886.4844 584.5313,885.2031 L584.5313,884.0469 Q584.5313,882.7188 585.1406,881.5781 Q585.7656,880.4219 586.8594,879.8125 Q587.9531,879.1875 589.1875,879.1875 Q589.9219,879.1875 590.5625,879.3594 Q591.2188,879.5156 591.7656,879.875 Z "/><text fill="#000000" font-family="sans-serif" font-size="12" lengthAdjust="spacingAndGlyphs" textLength="48" x="603" y="888.9102">Manager</text><line style="stroke: #A80036; stroke-width: 1.5;" x1="575" x2="653" y1="900" y2="900"/><line style="stroke: #A80036; stroke-width: 1.5;" x1="575" x2="653" y1="908" y2="908"/><!--MD5=[a01acb3a6a0e71b5d46ebffceaddd4f5]
link AddingOrganizationUI to AddingOrganizationController--><path d="M218,56.044 C218,71.713 218,92.908 218,111.575 " fill="none" id="AddingOrganizationUI-&gt;AddingOrganizationController" style="stroke: #A80036; stroke-width: 1.0; stroke-dasharray: 7.0,7.0;"/><polygon fill="#A80036" points="218,116.767,222,107.767,218,111.767,214,107.767,218,116.767" style="stroke: #A80036; stroke-width: 1.0;"/><!--MD5=[d620719a766bcd04dea80b5d748e071c]
link AddingOrganizationController to App--><path d="M290.94,193.123 C326.081,211.009 368.582,232.64 405.836,251.601 " fill="none" id="AddingOrganizationController-&gt;App" style="stroke: #A80036; stroke-width: 1.0; stroke-dasharray: 7.0,7.0;"/><polygon fill="#A80036" points="410.352,253.9,404.1465,246.252,405.8963,251.6314,400.5168,253.3811,410.352,253.9" style="stroke: #A80036; stroke-width: 1.0;"/><!--MD5=[beac338515bfe74c3147399168a8f5cf]
link AddingOrganizationController to Organization--><path d="M216.598,193.213 C215.957,263.996 224.555,419.225 305,512 C331.151,542.16 366.177,567.374 400.167,587.253 " fill="none" id="AddingOrganizationController-&gt;Organization" style="stroke: #A80036; stroke-width: 1.0; stroke-dasharray: 7.0,7.0;"/><polygon fill="#A80036" points="404.738,589.898,398.9509,581.9287,400.4101,587.3941,394.9447,588.8533,404.738,589.898" style="stroke: #A80036; stroke-width: 1.0;"/><!--MD5=[c26113f5e4d224c5b8c46892fc73162a]
link App to Collaborator--><path d="M387.901,344.017 C355.313,362.91 323.398,388.511 305,422 C247.021,527.535 272.455,666.535 304.619,765.756 " fill="none" id="App-&gt;Collaborator" style="stroke: #A80036; stroke-width: 1.0; stroke-dasharray: 7.0,7.0;"/><polygon fill="#A80036" points="306.253,770.747,307.2539,760.9491,304.6972,765.9952,299.6511,763.4385,306.253,770.747" style="stroke: #A80036; stroke-width: 1.0;"/><!--MD5=[fb1f6deb1f6cbb875e820f078ee604a9]
link App to Manager--><path d="M636.459,344.007 C672.147,362.279 706.264,387.528 727,422 C816.843,571.355 685.945,787.811 633.821,863.577 " fill="none" id="App-&gt;Manager" style="stroke: #A80036; stroke-width: 1.0; stroke-dasharray: 7.0,7.0;"/><polygon fill="#A80036" points="630.802,867.936,639.2151,862.8155,633.6492,863.8259,632.6389,858.26,630.802,867.936" style="stroke: #A80036; stroke-width: 1.0;"/><!--MD5=[181afe9f403e7faaf985939be70851a5]
link App to AutorizacaoFacade--><path d="M483.201,344.049 C475.444,368.812 465.813,399.558 458.162,423.983 " fill="none" id="App-&gt;AutorizacaoFacade" style="stroke: #A80036; stroke-width: 1.0; stroke-dasharray: 7.0,7.0;"/><polygon fill="#A80036" points="456.659,428.779,463.1659,421.3858,458.1533,424.0075,455.5316,418.9949,456.659,428.779" style="stroke: #A80036; stroke-width: 1.0;"/><!--MD5=[45817597bcd7048073a670d966abfd17]
link Organization to Collaborator--><path d="M483.429,693.087 C468.855,715.722 450.995,743.461 433.31,770.927 " fill="none" id="Organization-Collaborator" style="stroke: #A80036; stroke-width: 1.0;"/><text fill="#000000" font-family="sans-serif" font-size="13" lengthAdjust="spacingAndGlyphs" textLength="21" x="460" y="737.4951">has</text><polygon fill="#000000" points="466,746.3516,469,752.3516,472,746.3516,466,746.3516" style="stroke: #000000; stroke-width: 1.0;"/><text fill="#000000" font-family="sans-serif" font-size="13" lengthAdjust="spacingAndGlyphs" textLength="7" x="471.3565" y="714.9621">1</text><text fill="#000000" font-family="sans-serif" font-size="13" lengthAdjust="spacingAndGlyphs" textLength="23" x="414.526" y="760.1741">1,...</text><!--MD5=[bc039f41cf0b27fadee5cae63fc6e1fe]
link Organization to Manager--><path d="M535.95,693.087 C556.992,746.445 589.222,828.169 604.859,867.821 " fill="none" id="Organization-Manager" style="stroke: #A80036; stroke-width: 1.0;"/><text fill="#000000" font-family="sans-serif" font-size="13" lengthAdjust="spacingAndGlyphs" textLength="21" x="554" y="737.4951">has</text><polygon fill="#000000" points="560,746.3516,563,752.3516,566,746.3516,560,746.3516" style="stroke: #000000; stroke-width: 1.0;"/><text fill="#000000" font-family="sans-serif" font-size="13" lengthAdjust="spacingAndGlyphs" textLength="7" x="531.2633" y="714.9621">1</text><text fill="#000000" font-family="sans-serif" font-size="13" lengthAdjust="spacingAndGlyphs" textLength="7" x="594.6197" y="857.1153">1</text><!--MD5=[2a41c1af413c0662bf55a6b8913ea24f]
link Administrator to Organization--><path d="M619.947,512.423 C600.745,536.082 577.048,565.28 557.131,589.821 " fill="none" id="Administrator-Organization" style="stroke: #A80036; stroke-width: 1.0;"/><text fill="#000000" font-family="sans-serif" font-size="13" lengthAdjust="spacingAndGlyphs" textLength="28" x="595" y="556.4951">adds</text><polygon fill="#000000" points="604.5,565.3516,607.5,571.3516,610.5,565.3516,604.5,565.3516" style="stroke: #000000; stroke-width: 1.0;"/><text fill="#000000" font-family="sans-serif" font-size="13" lengthAdjust="spacingAndGlyphs" textLength="7" x="607.6321" y="533.1535">1</text><text fill="#000000" font-family="sans-serif" font-size="13" lengthAdjust="spacingAndGlyphs" textLength="5" x="557.322" y="579.2973">*</text><!--MD5=[66e1bf42337190a3177776b035b1a873]
link App to Administrator--><path d="M539.192,344.049 C562.192,368.062 590.58,397.7 613.611,421.745 " fill="none" id="App-Administrator" style="stroke: #A80036; stroke-width: 1.0;"/><text fill="#000000" font-family="sans-serif" font-size="13" lengthAdjust="spacingAndGlyphs" textLength="21" x="582" y="388.4951">has</text><polygon fill="#000000" points="588,397.3516,591,403.3516,594,397.3516,588,397.3516" style="stroke: #000000; stroke-width: 1.0;"/><text fill="#000000" font-family="sans-serif" font-size="13" lengthAdjust="spacingAndGlyphs" textLength="7" x="537.6331" y="365.0635">1</text><text fill="#000000" font-family="sans-serif" font-size="13" lengthAdjust="spacingAndGlyphs" textLength="5" x="601.7374" y="411.15">*</text><!--MD5=[01bdf25395da6f218f22dfa203684953]
@startuml

class Collaborator {
  -String nome
  -String email
  Colaborador(nome, email, password )
  String getNome()
  String getEmail()
  String getPassword()}

class Manager {
  -String name
  -String email
  Colaborador(name, email, password)
  String getName()
  String getEmail()
  String getPassword()
}

class Administrator {
- String nome
- String email
- String password
}

class Organization {
  -String name
  Organizacao(name, managerColaborador ,otherCollaborator)
  {static} Manager novoManager(nome, email, password)
  {static} Colaborador novoColaborador(nome, email, password)
}

class App {

  Organizacao novaOrganizacao(name, nameM, emailM, passwordM, nameC, emailC, passwordC)
  validatesOrganization(Organizacao org)
  - addOrganization(Organizacao org)
}

class AutorizacaoFacade {
   - addManager(nomeM,emailM,passawordM)
   - addCollaborator(nomeM,emailM,passawordC)
}

class AddingOrganizationController {
    newOrganization(name, nameM, emailM, passwordM, nameC, emailC, passwordC)
   - addOrganizaton()
}

class AddingOrganizationUI {
}

AddingOrganizationUI ..> AddingOrganizationController
AddingOrganizationController ..> App
AddingOrganizationController ..> Organization
App ..> Collaborator
App ..> Manager
App ..> AutorizacaoFacade
Organization                 "1" - - "1,..."  Collaborator    : has >
Organization                 "1" - - "1"      Manager        : has >
Administrator                "1" - - "*"      Organization   : adds >
App                          "1" - - "*"      Administrator  : has >

@enduml

PlantUML version 1.2020.10(Sun May 17 10:35:57 WEST 2020)
(GPL source distribution)
Java Runtime: OpenJDK Runtime Environment
JVM: OpenJDK 64-Bit Server VM
Java Version: 14+36
Operating System: Windows 10
Default Encoding: Cp1252
Language: en
Country: US
--></g></svg>